<svg id="Layer_1" data-name="Layer 1" xmlns="http://www.w3.org/2000/svg" viewBox="0 0 1080 1080"><defs><style>.cls-1{fill:#77411b;}.cls-2,.cls-3{fill:none;}.cls-2{stroke:#231f20;stroke-miterlimit:10;stroke-width:0.5px;}.cls-4{fill:#fff;}.cls-5{fill:#231f20;}</style></defs><title>5th oder</title><rect class="cls-1" x="258.99" y="56.99" width="526.26" height="212.63"/><rect class="cls-1" x="258.99" y="763.98" width="526.26" height="212.63"/><polygon class="cls-2" points="785.25 763.8 258.99 763.98 258.99 269.62 785.25 269.62 785.25 763.8"/><rect class="cls-3" y="2.8" width="1080" height="1080"/><path class="cls-4" d="M353.31,187.85v-49.1h15.14l9.09,33.49,9-33.49h15.18v49.1h-9.4V149.2l-9.95,38.65h-9.74l-9.91-38.65v38.65Z"/><path class="cls-4" d="M456.94,187.85h-11l-4.38-11.15h-20l-4.13,11.15H406.66l19.52-49.1h10.7Zm-18.63-19.42-6.9-18.23-6.77,18.23Z"/><path class="cls-4" d="M462.34,187.85v-49.1h21.3q8,0,11.67,1.32a11.44,11.44,0,0,1,5.83,4.71,14,14,0,0,1,2.18,7.74,12.94,12.94,0,0,1-3.31,9.12q-3.31,3.6-9.91,4.54a23.73,23.73,0,0,1,5.41,4.12,55.79,55.79,0,0,1,5.76,8l6.12,9.58h-12.1L488,177.17a70.43,70.43,0,0,0-5.33-7.22,7.87,7.87,0,0,0-3-2,16.89,16.89,0,0,0-5.09-.56h-2.05v20.5Zm10.12-28.33H480q7.28,0,9.09-.61a5.43,5.43,0,0,0,2.83-2.07,6.27,6.27,0,0,0,1-3.69,5.82,5.82,0,0,0-1.35-4,6.23,6.23,0,0,0-3.81-1.93q-1.23-.16-7.38-.16h-7.9Z"/><path class="cls-4" d="M512.55,187.85v-49.1h10.12v49.1Z"/><path class="cls-4" d="M543.59,187.85V147.06H528.72v-8.31h39.82v8.31H553.7v40.79Z"/><path class="cls-4" d="M574.76,187.85v-49.1h10.12v49.1Z"/><path class="cls-4" d="M594.38,187.85v-49.1h15.14l9.09,33.49,9-33.49h15.18v49.1h-9.4V149.2l-10,38.65h-9.74l-9.91-38.65v38.65Z"/><path class="cls-4" d="M652.83,187.85v-49.1H690v8.31h-27v10.88H688.1v8.28H662.94v13.36h28v8.27Z"/><path class="cls-5" d="M270.48,636V397.56H344l44.16,162.67,43.65-162.67h73.7V636H459.88V448.31L411.57,636H364.26L316.13,448.31V636Z"/><path class="cls-5" d="M773.77,636H720.32l-21.25-54.17H601.8L581.71,636H529.59l94.78-238.48h52ZM683.3,541.69l-33.53-88.5-32.87,88.5Z"/><path class="cls-4" d="M344,862.92v-50.1h37.15v8.47h-27V832.4h25.16v8.44H354.11v13.64h28v8.44Z"/><path class="cls-4" d="M390.79,862.92v-50.1h9.84l20.51,33.46V812.82h9.4v50.1H420.39l-20.2-32.67v32.67Z"/><path class="cls-4" d="M441.2,812.82h18.49a36.55,36.55,0,0,1,9.54.95,16.76,16.76,0,0,1,7.55,4.62,22,22,0,0,1,4.79,8.12,37.07,37.07,0,0,1,1.64,11.84A32.77,32.77,0,0,1,481.67,849a22,22,0,0,1-5.37,8.86,17.76,17.76,0,0,1-7.1,4,30.54,30.54,0,0,1-9,1.06h-19Zm10.12,8.47v33.19h7.55A27.45,27.45,0,0,0,465,854a9.4,9.4,0,0,0,4.09-2.08,10.58,10.58,0,0,0,2.64-4.84,32.4,32.4,0,0,0,1-9.18,29.74,29.74,0,0,0-1-8.92,11.43,11.43,0,0,0-2.87-4.85,9.64,9.64,0,0,0-4.68-2.36,45.67,45.67,0,0,0-8.3-.48Z"/><path class="cls-4" d="M511.17,812.82h10.12V840a56.73,56.73,0,0,0,.37,8.37,8.11,8.11,0,0,0,3.1,4.94,10.75,10.75,0,0,0,6.68,1.86c2.87,0,5-.58,6.49-1.76a6.9,6.9,0,0,0,2.63-4.32,55.71,55.71,0,0,0,.45-8.51V812.82h10.11v26.32q0,9-.82,12.74a14,14,0,0,1-3,6.29,15.37,15.37,0,0,1-5.9,4.09,25.72,25.72,0,0,1-9.64,1.52q-7.17,0-10.88-1.66a15.37,15.37,0,0,1-5.86-4.31,13.61,13.61,0,0,1-2.84-5.55,60.9,60.9,0,0,1-1-12.71Z"/><path class="cls-4" d="M559.22,846.62l9.85-1c.59,3.31,1.79,5.73,3.6,7.28a10.93,10.93,0,0,0,7.34,2.33c3.25,0,5.71-.69,7.36-2.07a6.16,6.16,0,0,0,2.48-4.84,4.58,4.58,0,0,0-1-3,8.34,8.34,0,0,0-3.64-2.17q-1.78-.61-8.1-2.19-8.15-2-11.42-5A13,13,0,0,1,561,825.94a12.85,12.85,0,0,1,2.17-7.16,13.54,13.54,0,0,1,6.25-5.07,24.91,24.91,0,0,1,9.86-1.75q9.43,0,14.2,4.14a14.61,14.61,0,0,1,5,11l-10.12.44a8.6,8.6,0,0,0-2.78-5.55c-1.43-1.13-3.56-1.69-6.41-1.69a11.52,11.52,0,0,0-6.9,1.81,3.62,3.62,0,0,0-1.61,3.11,3.85,3.85,0,0,0,1.5,3q1.92,1.61,9.3,3.35a48.56,48.56,0,0,1,10.92,3.61,14.12,14.12,0,0,1,5.54,5.09,14.9,14.9,0,0,1,2,8,14.75,14.75,0,0,1-2.4,8.07,14.3,14.3,0,0,1-6.76,5.58,28.38,28.38,0,0,1-10.91,1.83q-9.49,0-14.59-4.39T559.22,846.62Z"/><path class="cls-4" d="M608.48,862.92v-50.1h37.15v8.47h-27V832.4h25.16v8.44H618.59v13.64h28v8.44Z"/><path class="cls-4" d="M655.2,862.92v-50.1h21.3q8,0,11.67,1.35A11.56,11.56,0,0,1,694,819a14.48,14.48,0,0,1,2.18,7.89,13.39,13.39,0,0,1-3.31,9.32q-3.32,3.68-9.91,4.63a23.91,23.91,0,0,1,5.41,4.2,56.31,56.31,0,0,1,5.76,8.14l6.12,9.77h-12.1L680.84,852a70.78,70.78,0,0,0-5.34-7.37,7.79,7.79,0,0,0-3-2.08,16.57,16.57,0,0,0-5.09-.56h-2v20.91ZM665.32,834h7.48q7.29,0,9.1-.62a5.41,5.41,0,0,0,2.83-2.12,6.46,6.46,0,0,0,1-3.76,6,6,0,0,0-1.35-4.08,6.22,6.22,0,0,0-3.81-2q-1.23-.16-7.39-.17h-7.89Z"/><path class="cls-4" d="M266.77,927.79V878.68h37.15V887h-27v10.89H302v8.27H276.88v13.37h28v8.27Z"/><path class="cls-4" d="M313.56,927.79V878.68h9.84l20.51,32.8v-32.8h9.4v49.11H343.16l-20.2-32v32Z"/><path class="cls-4" d="M376.79,927.79l-17.91-49.11h11L382.53,915l12.27-36.35h10.74l-18,49.11Z"/><path class="cls-4" d="M410.39,927.79V878.68h10.12v49.11Z"/><path class="cls-4" d="M430.18,927.79V878.68h21.29q8,0,11.68,1.33a11.49,11.49,0,0,1,5.82,4.7,14,14,0,0,1,2.19,7.74,13,13,0,0,1-3.31,9.13q-3.33,3.6-9.92,4.54a23.3,23.3,0,0,1,5.42,4.12,56.19,56.19,0,0,1,5.76,8l6.12,9.58h-12.1l-7.32-10.69a68,68,0,0,0-5.33-7.21,7.69,7.69,0,0,0-3-2,17,17,0,0,0-5.09-.55H440.3v20.5Zm10.12-28.34h7.48q7.29,0,9.09-.6a5.38,5.38,0,0,0,2.84-2.08,6.31,6.31,0,0,0,1-3.68,5.8,5.8,0,0,0-1.35-4,6.23,6.23,0,0,0-3.82-1.93q-1.23-.17-7.38-.17H440.3Z"/><path class="cls-4" d="M478.65,903.54a30.68,30.68,0,0,1,2.29-12.6,23.14,23.14,0,0,1,4.66-6.73,19.44,19.44,0,0,1,6.48-4.42,28.09,28.09,0,0,1,10.8-1.94q11.07,0,17.72,6.73t6.65,18.72q0,11.9-6.6,18.61T503,928.63q-11.17,0-17.78-6.69T478.65,903.54Zm10.42-.34q0,8.34,3.93,12.65a13.71,13.71,0,0,0,19.91,0c2.59-2.84,3.88-7.12,3.88-12.81s-1.26-9.83-3.78-12.59a14.17,14.17,0,0,0-20.11,0Q489.08,894.73,489.07,903.2Z"/><path class="cls-4" d="M535.25,927.79V878.68h9.84l20.51,32.8v-32.8H575v49.11H564.85l-20.2-32v32Z"/><path class="cls-4" d="M585.56,927.79V878.68H600.7l9.09,33.5,9-33.5H634v49.11h-9.4V889.14l-9.95,38.65h-9.74L595,889.14v38.65Z"/><path class="cls-4" d="M644,927.79V878.68h37.15V887h-27v10.89h25.16v8.27H654.12v13.37h28v8.27Z"/><path class="cls-4" d="M690.8,927.79V878.68h9.84l20.51,32.8v-32.8h9.4v49.11H720.4l-20.2-32v32Z"/><path class="cls-4" d="M752.53,927.79V887H737.66v-8.31h39.82V887H762.65v40.8Z"/></svg>