<svg id="Layer_1" data-name="Layer 1" xmlns="http://www.w3.org/2000/svg" viewBox="0 0 1080 1080"><defs><style>.cls-1{fill:#77411b;}.cls-2,.cls-3{fill:none;}.cls-2{stroke:#231f20;stroke-miterlimit:10;stroke-width:0.5px;}.cls-4{fill:#fff;}.cls-5{fill:#231f20;}</style></defs><title>5th oder</title><rect class="cls-1" x="258.99" y="53.92" width="526.26" height="212.63"/><rect class="cls-1" x="258.99" y="760.91" width="526.26" height="212.63"/><polygon class="cls-2" points="785.25 760.73 258.99 760.91 258.99 266.55 785.25 266.55 785.25 760.73"/><rect class="cls-3" y="-0.27" width="1080" height="1080"/><path class="cls-4" d="M344,859.86V809.75h37.15v8.47h-27v11.11h25.16v8.45H354.11v13.63h28v8.45Z"/><path class="cls-4" d="M390.79,859.86V809.75h9.84l20.51,33.46V809.75h9.4v50.11H420.39l-20.2-32.68v32.68Z"/><path class="cls-4" d="M441.2,809.75h18.49a36,36,0,0,1,9.54,1,16.65,16.65,0,0,1,7.55,4.61,22,22,0,0,1,4.79,8.12,37.07,37.07,0,0,1,1.64,11.84,32.73,32.73,0,0,1-1.54,10.66,22,22,0,0,1-5.37,8.86,17.77,17.77,0,0,1-7.1,4,30.88,30.88,0,0,1-9,1.06h-19Zm10.12,8.47v33.19h7.55a27.45,27.45,0,0,0,6.12-.48,9.4,9.4,0,0,0,4.09-2.08,10.58,10.58,0,0,0,2.64-4.84,32.37,32.37,0,0,0,1-9.17,29.65,29.65,0,0,0-1-8.92,11.41,11.41,0,0,0-2.87-4.86,9.64,9.64,0,0,0-4.68-2.36,46.64,46.64,0,0,0-8.3-.48Z"/><path class="cls-4" d="M511.17,809.75h10.12v27.14a56.64,56.64,0,0,0,.37,8.37,8.11,8.11,0,0,0,3.1,4.94,10.75,10.75,0,0,0,6.68,1.86c2.87,0,5-.58,6.49-1.76a6.9,6.9,0,0,0,2.63-4.32,55.71,55.71,0,0,0,.45-8.51V809.75h10.11v26.32q0,9-.82,12.75a14,14,0,0,1-3,6.28,15.26,15.26,0,0,1-5.9,4.09,25.72,25.72,0,0,1-9.64,1.52q-7.17,0-10.88-1.66a15.45,15.45,0,0,1-5.86-4.3,13.71,13.71,0,0,1-2.84-5.56,60.9,60.9,0,0,1-1-12.71Z"/><path class="cls-4" d="M559.22,843.55l9.85-.95q.88,4.95,3.6,7.28A10.93,10.93,0,0,0,580,852.2c3.25,0,5.71-.69,7.36-2.07a6.16,6.16,0,0,0,2.48-4.83,4.59,4.59,0,0,0-1-3,8.44,8.44,0,0,0-3.64-2.17q-1.78-.61-8.1-2.19-8.15-2-11.42-4.95A13,13,0,0,1,561,822.87a12.85,12.85,0,0,1,2.17-7.16,13.54,13.54,0,0,1,6.25-5.07,24.91,24.91,0,0,1,9.86-1.75q9.43,0,14.2,4.14a14.61,14.61,0,0,1,5,11l-10.12.44a8.6,8.6,0,0,0-2.78-5.55c-1.43-1.13-3.56-1.69-6.41-1.69a11.52,11.52,0,0,0-6.9,1.81,3.62,3.62,0,0,0-1.61,3.11,3.84,3.84,0,0,0,1.5,3q1.92,1.6,9.3,3.35a49.07,49.07,0,0,1,10.92,3.61,14.12,14.12,0,0,1,5.54,5.09,14.9,14.9,0,0,1,2,8,14.75,14.75,0,0,1-2.4,8.07,14.37,14.37,0,0,1-6.76,5.59,28.58,28.58,0,0,1-10.91,1.82q-9.49,0-14.59-4.39T559.22,843.55Z"/><path class="cls-4" d="M608.48,859.86V809.75h37.15v8.47h-27v11.11h25.16v8.45H618.59v13.63h28v8.45Z"/><path class="cls-4" d="M655.2,859.86V809.75h21.3q8,0,11.67,1.35a11.56,11.56,0,0,1,5.83,4.8,14.49,14.49,0,0,1,2.18,7.9,13.36,13.36,0,0,1-3.31,9.31q-3.32,3.67-9.91,4.63a23.66,23.66,0,0,1,5.41,4.21,55.5,55.5,0,0,1,5.76,8.13l6.12,9.78h-12.1L680.84,849a70.23,70.23,0,0,0-5.34-7.36,7.71,7.71,0,0,0-3-2.09,16.89,16.89,0,0,0-5.09-.56h-2v20.92Zm10.12-28.92h7.48q7.29,0,9.1-.62a5.45,5.45,0,0,0,2.83-2.11,6.5,6.5,0,0,0,1-3.76,6,6,0,0,0-1.35-4.09,6.16,6.16,0,0,0-3.81-2q-1.23-.18-7.39-.18h-7.89Z"/><path class="cls-4" d="M266.77,924.72v-49.1h37.15v8.3h-27v10.89H302v8.27H276.88v13.37h28v8.27Z"/><path class="cls-4" d="M313.56,924.72v-49.1h9.84l20.51,32.79V875.62h9.4v49.1H343.16l-20.2-32v32Z"/><path class="cls-4" d="M376.79,924.72l-17.91-49.1h11L382.53,912l12.27-36.34h10.74l-18,49.1Z"/><path class="cls-4" d="M410.39,924.72v-49.1h10.12v49.1Z"/><path class="cls-4" d="M430.18,924.72v-49.1h21.29q8,0,11.68,1.32a11.46,11.46,0,0,1,5.82,4.71,13.89,13.89,0,0,1,2.19,7.73,13,13,0,0,1-3.31,9.13q-3.33,3.6-9.92,4.54a23.3,23.3,0,0,1,5.42,4.12,56.8,56.8,0,0,1,5.76,8l6.12,9.58h-12.1L455.81,914a67.41,67.41,0,0,0-5.33-7.22,7.69,7.69,0,0,0-3-2.05,17.3,17.3,0,0,0-5.09-.55H440.3v20.5Zm10.12-28.34h7.48q7.29,0,9.09-.6a5.38,5.38,0,0,0,2.84-2.08,6.31,6.31,0,0,0,1-3.68,5.8,5.8,0,0,0-1.35-4,6.23,6.23,0,0,0-3.82-1.93q-1.23-.17-7.38-.17H440.3Z"/><path class="cls-4" d="M478.65,900.47a30.6,30.6,0,0,1,2.29-12.59,23.19,23.19,0,0,1,4.66-6.74,19.59,19.59,0,0,1,6.48-4.42,28.09,28.09,0,0,1,10.8-1.94q11.07,0,17.72,6.73t6.65,18.73q0,11.88-6.6,18.6T503,925.56q-11.17,0-17.78-6.68T478.65,900.47Zm10.42-.33q0,8.34,3.93,12.64a13.71,13.71,0,0,0,19.91,0q3.89-4.26,3.88-12.81T513,887.41a14.17,14.17,0,0,0-20.11.05Q489.08,891.66,489.07,900.14Z"/><path class="cls-4" d="M535.25,924.72v-49.1h9.84l20.51,32.79V875.62H575v49.1H564.85l-20.2-32v32Z"/><path class="cls-4" d="M585.56,924.72v-49.1H600.7l9.09,33.49,9-33.49H634v49.1h-9.4V886.07l-9.95,38.65h-9.74L595,886.07v38.65Z"/><path class="cls-4" d="M644,924.72v-49.1h37.15v8.3h-27v10.89h25.16v8.27H654.12v13.37h28v8.27Z"/><path class="cls-4" d="M690.8,924.72v-49.1h9.84l20.51,32.79V875.62h9.4v49.1H720.4l-20.2-32v32Z"/><path class="cls-4" d="M752.53,924.72v-40.8H737.66v-8.3h39.82v8.3H762.65v40.8Z"/><path class="cls-4" d="M266.77,184.79V135.68h37.15V144h-27v10.88H302v8.28H276.88v13.36h28v8.28Z"/><path class="cls-4" d="M313.56,184.79V135.68h9.84l20.51,32.79V135.68h9.4v49.11H343.16l-20.2-32v32Z"/><path class="cls-4" d="M376.79,184.79l-17.91-49.11h11L382.53,172l12.27-36.34h10.74l-18,49.11Z"/><path class="cls-4" d="M410.39,184.79V135.68h10.12v49.11Z"/><path class="cls-4" d="M430.18,184.79V135.68h21.29q8,0,11.68,1.32a11.51,11.51,0,0,1,5.82,4.71,13.93,13.93,0,0,1,2.19,7.74,12.94,12.94,0,0,1-3.31,9.12q-3.33,3.62-9.92,4.54a23.58,23.58,0,0,1,5.42,4.12,57.05,57.05,0,0,1,5.76,8l6.12,9.58h-12.1l-7.32-10.69a68.53,68.53,0,0,0-5.33-7.22,7.77,7.77,0,0,0-3-2,17,17,0,0,0-5.09-.55H440.3v20.5Zm10.12-28.34h7.48q7.29,0,9.09-.6a5.49,5.49,0,0,0,2.84-2.08,6.33,6.33,0,0,0,1-3.69,5.82,5.82,0,0,0-1.35-4,6.28,6.28,0,0,0-3.82-1.93q-1.23-.17-7.38-.16H440.3Z"/><path class="cls-4" d="M478.65,160.53a30.6,30.6,0,0,1,2.29-12.59,23,23,0,0,1,4.66-6.73,19.44,19.44,0,0,1,6.48-4.42,27.9,27.9,0,0,1,10.8-1.95q11.07,0,17.72,6.74t6.65,18.72q0,11.89-6.6,18.61T503,185.62q-11.17,0-17.78-6.68T478.65,160.53Zm10.42-.33q0,8.34,3.93,12.64a12.93,12.93,0,0,0,10,4.31,12.8,12.8,0,0,0,9.93-4.27q3.89-4.27,3.88-12.81T513,147.47a14.2,14.2,0,0,0-20.11.05Q489.08,151.72,489.07,160.2Z"/><path class="cls-4" d="M535.25,184.79V135.68h9.84l20.51,32.79V135.68H575v49.11H564.85l-20.2-32v32Z"/><path class="cls-4" d="M585.56,184.79V135.68H600.7l9.09,33.5,9-33.5H634v49.11h-9.4V146.13l-9.95,38.66h-9.74L595,146.13v38.66Z"/><path class="cls-4" d="M644,184.79V135.68h37.15V144h-27v10.88h25.16v8.28H654.12v13.36h28v8.28Z"/><path class="cls-4" d="M690.8,184.79V135.68h9.84l20.51,32.79V135.68h9.4v49.11H720.4l-20.2-32v32Z"/><path class="cls-4" d="M752.53,184.79V144H737.66v-8.31h39.82V144H762.65v40.8Z"/><path class="cls-5" d="M351,734.27V293.19H684.68v74.62H441.84v97.78h226v74.32h-226V660H693.28v74.32Z"/></svg>