<svg id="Layer_1" data-name="Layer 1" xmlns="http://www.w3.org/2000/svg" viewBox="0 0 1080 1080"><defs><style>.cls-1{fill:#231f20;}.cls-2{fill:#77411b;}.cls-3,.cls-4{fill:none;}.cls-3{stroke:#231f20;stroke-miterlimit:10;stroke-width:0.5px;}.cls-5{fill:#fff;}</style></defs><title>5th oder</title><path class="cls-1" d="M271.89,232.49v-49.1h37.16v8.31H282v10.88h25.16v8.28H282v13.36h28v8.27Z"/><rect class="cls-2" x="258.99" y="54.73" width="526.26" height="212.63"/><rect class="cls-2" x="258.99" y="761.72" width="526.26" height="212.63"/><polygon class="cls-3" points="785.25 761.54 258.99 761.72 258.99 267.36 785.25 267.36 785.25 761.54"/><rect class="cls-4" y="0.54" width="1080" height="1080"/><path class="cls-5" d="M344,860.67V810.56h37.15V819h-27v11.1h25.16v8.45H354.11v13.63h28v8.45Z"/><path class="cls-5" d="M390.79,860.67V810.56h9.84L421.14,844V810.56h9.4v50.11H420.39L400.19,828v32.68Z"/><path class="cls-5" d="M441.2,810.56h18.49a36,36,0,0,1,9.54,1,16.65,16.65,0,0,1,7.55,4.61,22,22,0,0,1,4.79,8.12,37.07,37.07,0,0,1,1.64,11.84,32.84,32.84,0,0,1-1.54,10.67,22.06,22.06,0,0,1-5.37,8.85,17.77,17.77,0,0,1-7.1,4,30.88,30.88,0,0,1-9,1.06h-19ZM451.32,819v33.18h7.55a28.24,28.24,0,0,0,6.12-.47,9.41,9.41,0,0,0,4.09-2.09,10.58,10.58,0,0,0,2.64-4.84,32.37,32.37,0,0,0,1-9.17,29.65,29.65,0,0,0-1-8.92,11.41,11.41,0,0,0-2.87-4.86,9.64,9.64,0,0,0-4.68-2.36,47,47,0,0,0-8.3-.47Z"/><path class="cls-5" d="M511.17,810.56h10.12V837.7a56.64,56.64,0,0,0,.37,8.37,8.11,8.11,0,0,0,3.1,4.94,10.75,10.75,0,0,0,6.68,1.86c2.87,0,5-.58,6.49-1.76a6.9,6.9,0,0,0,2.63-4.32,55.71,55.71,0,0,0,.45-8.51V810.56h10.11v26.32q0,9-.82,12.75a14.06,14.06,0,0,1-3,6.29,15.35,15.35,0,0,1-5.9,4.08,25.72,25.72,0,0,1-9.64,1.52q-7.17,0-10.88-1.66a15.45,15.45,0,0,1-5.86-4.3,13.71,13.71,0,0,1-2.84-5.56,60.9,60.9,0,0,1-1-12.71Z"/><path class="cls-5" d="M559.22,844.36l9.85-1q.88,5,3.6,7.28A10.93,10.93,0,0,0,580,853c3.25,0,5.71-.69,7.36-2.07a6.16,6.16,0,0,0,2.48-4.83,4.59,4.59,0,0,0-1-3,8.44,8.44,0,0,0-3.64-2.17q-1.78-.61-8.1-2.19-8.15-2-11.42-5A13,13,0,0,1,561,823.68a12.85,12.85,0,0,1,2.17-7.16,13.54,13.54,0,0,1,6.25-5.07,25.09,25.09,0,0,1,9.86-1.75q9.43,0,14.2,4.14a14.61,14.61,0,0,1,5,11l-10.12.44a8.6,8.6,0,0,0-2.78-5.55c-1.43-1.13-3.56-1.69-6.41-1.69a11.52,11.52,0,0,0-6.9,1.81,3.64,3.64,0,0,0-1.61,3.11,3.84,3.84,0,0,0,1.5,3q1.92,1.61,9.3,3.35A49.07,49.07,0,0,1,592.43,833a14.12,14.12,0,0,1,5.54,5.09,14.9,14.9,0,0,1,2,8,14.75,14.75,0,0,1-2.4,8.07,14.32,14.32,0,0,1-6.76,5.59,28.57,28.57,0,0,1-10.91,1.83q-9.49,0-14.59-4.4T559.22,844.36Z"/><path class="cls-5" d="M608.48,860.67V810.56h37.15V819h-27v11.1h25.16v8.45H618.59v13.63h28v8.45Z"/><path class="cls-5" d="M655.2,860.67V810.56h21.3q8,0,11.67,1.35a11.56,11.56,0,0,1,5.83,4.8,14.52,14.52,0,0,1,2.18,7.9,13.36,13.36,0,0,1-3.31,9.31q-3.32,3.68-9.91,4.63a23.66,23.66,0,0,1,5.41,4.21,55.5,55.5,0,0,1,5.76,8.13l6.12,9.78h-12.1l-7.31-10.91a70.23,70.23,0,0,0-5.34-7.36,7.71,7.71,0,0,0-3-2.09,16.89,16.89,0,0,0-5.09-.56h-2v20.92Zm10.12-28.92h7.48q7.29,0,9.1-.61a5.46,5.46,0,0,0,2.83-2.12,6.5,6.5,0,0,0,1-3.76,6,6,0,0,0-1.35-4.09,6.21,6.21,0,0,0-3.81-2c-.82-.12-3.28-.17-7.39-.17h-7.89Z"/><path class="cls-5" d="M266.77,925.53v-49.1h37.15v8.3h-27v10.89H302v8.27H276.88v13.37h28v8.27Z"/><path class="cls-5" d="M313.56,925.53v-49.1h9.84l20.51,32.79V876.43h9.4v49.1H343.16l-20.2-32v32Z"/><path class="cls-5" d="M376.79,925.53l-17.91-49.1h11l12.68,36.34,12.27-36.34h10.74l-18,49.1Z"/><path class="cls-5" d="M410.39,925.53v-49.1h10.12v49.1Z"/><path class="cls-5" d="M430.18,925.53v-49.1h21.29q8,0,11.68,1.32a11.46,11.46,0,0,1,5.82,4.71,13.89,13.89,0,0,1,2.19,7.73,13,13,0,0,1-3.31,9.13q-3.33,3.6-9.92,4.54a23.3,23.3,0,0,1,5.42,4.12,56.8,56.8,0,0,1,5.76,8l6.12,9.58h-12.1l-7.32-10.68a67.41,67.41,0,0,0-5.33-7.22,7.66,7.66,0,0,0-3-2,16.89,16.89,0,0,0-5.09-.56H440.3v20.5Zm10.12-28.34h7.48q7.29,0,9.09-.6a5.38,5.38,0,0,0,2.84-2.08,6.31,6.31,0,0,0,1-3.68,5.8,5.8,0,0,0-1.35-4,6.23,6.23,0,0,0-3.82-1.93q-1.23-.17-7.38-.17H440.3Z"/><path class="cls-5" d="M478.65,901.28a30.6,30.6,0,0,1,2.29-12.59A23.19,23.19,0,0,1,485.6,882a19.59,19.59,0,0,1,6.48-4.42,28.09,28.09,0,0,1,10.8-1.94q11.07,0,17.72,6.73t6.65,18.73q0,11.88-6.6,18.6T503,926.37q-11.17,0-17.78-6.68T478.65,901.28Zm10.42-.33q0,8.34,3.93,12.64a13.68,13.68,0,0,0,19.91,0q3.89-4.26,3.88-12.81T513,888.22a14.17,14.17,0,0,0-20.11,0Q489.08,892.47,489.07,901Z"/><path class="cls-5" d="M535.25,925.53v-49.1h9.84l20.51,32.79V876.43H575v49.1H564.85l-20.2-32v32Z"/><path class="cls-5" d="M585.56,925.53v-49.1H600.7l9.09,33.49,9-33.49H634v49.1h-9.4V886.88l-9.95,38.65h-9.74L595,886.88v38.65Z"/><path class="cls-5" d="M644,925.53v-49.1h37.15v8.3h-27v10.89h25.16v8.27H654.12v13.37h28v8.27Z"/><path class="cls-5" d="M690.8,925.53v-49.1h9.84l20.51,32.79V876.43h9.4v49.1H720.4l-20.2-32v32Z"/><path class="cls-5" d="M752.53,925.53v-40.8H737.66v-8.3h39.82v8.3H762.65v40.8Z"/><path class="cls-5" d="M400.34,185.6V136.49h15.14l9.09,33.5,9-33.5h15.18V185.6h-9.4V146.94l-9.95,38.66h-9.74l-9.91-38.66V185.6Z"/><path class="cls-5" d="M458.48,185.6V136.49H468.6V185.6Z"/><path class="cls-5" d="M478.34,185.6V136.49h9.84l20.51,32.79V136.49h9.4V185.6H507.94l-20.2-32v32Z"/><path class="cls-5" d="M528.48,185.6V136.49H538.6V185.6Z"/><path class="cls-5" d="M548.34,185.6V136.49h9.84l20.51,32.79V136.49h9.4V185.6H577.94l-20.2-32v32Z"/><path class="cls-5" d="M622.1,167.54v-8.27h21.8v19.56a27.39,27.39,0,0,1-9.21,5.31,34.09,34.09,0,0,1-12.22,2.29,27.78,27.78,0,0,1-13.7-3.23A20.68,20.68,0,0,1,600,174,29.38,29.38,0,0,1,597,160.88a27.81,27.81,0,0,1,3.29-13.64,21.84,21.84,0,0,1,9.6-9.14,26.35,26.35,0,0,1,12-2.45q9.33,0,14.58,3.84a17.35,17.35,0,0,1,6.75,10.6l-10,1.84a10.44,10.44,0,0,0-4-5.71,12.22,12.22,0,0,0-7.29-2.09q-6.63,0-10.55,4.12t-3.91,12.22q0,8.75,4,13.12A13.39,13.39,0,0,0,621.82,178a17.86,17.86,0,0,0,6.38-1.22,22.28,22.28,0,0,0,5.49-3v-6.23Z"/><path class="cls-1" d="M283.57,686.16V342.92H389.41L453,577.05l62.83-234.13H621.87V686.16h-65.7V416L486.64,686.16H418.56L349.27,416V686.16Z"/><path class="cls-1" d="M690,686.16V342.92h70.71V686.16Z"/></svg>