<svg id="Layer_1" data-name="Layer 1" xmlns="http://www.w3.org/2000/svg" viewBox="0 0 1080 1080"><defs><style>.cls-1{fill:#231f20;}.cls-2{fill:#77411b;}.cls-3,.cls-4{fill:none;}.cls-3{stroke:#231f20;stroke-miterlimit:10;stroke-width:0.5px;}.cls-5{fill:#fff;}</style></defs><title>5th oder</title><path class="cls-1" d="M762.76,760.54H657.41L615.53,653.77H423.81L384.22,760.54H281.49l186.81-470H570.71Zm-178.31-186L518.36,400.16,453.58,574.58Z"/><rect class="cls-2" x="258.99" y="65.71" width="526.26" height="212.63"/><rect class="cls-2" x="258.99" y="772.7" width="526.26" height="212.63"/><polygon class="cls-3" points="785.25 772.52 258.99 772.7 258.99 278.34 785.25 278.34 785.25 772.52"/><rect class="cls-4" y="11.52" width="1080" height="1080"/><path class="cls-5" d="M344,871.65V821.54h37.15V830h-27v11.1h25.16v8.45H354.11V863.2h28v8.45Z"/><path class="cls-5" d="M390.79,871.65V821.54h9.84L421.14,855V821.54h9.4v50.11H420.39L400.19,839v32.68Z"/><path class="cls-5" d="M441.2,821.54h18.49a36,36,0,0,1,9.54,1,16.65,16.65,0,0,1,7.55,4.61,22,22,0,0,1,4.79,8.12,37.07,37.07,0,0,1,1.64,11.84,32.73,32.73,0,0,1-1.54,10.66,22,22,0,0,1-5.37,8.86,17.77,17.77,0,0,1-7.1,4,30.88,30.88,0,0,1-9,1.06h-19ZM451.32,830V863.2h7.55a28.24,28.24,0,0,0,6.12-.47,9.41,9.41,0,0,0,4.09-2.09,10.58,10.58,0,0,0,2.64-4.84,32.37,32.37,0,0,0,1-9.17,29.65,29.65,0,0,0-1-8.92,11.41,11.41,0,0,0-2.87-4.86,9.64,9.64,0,0,0-4.68-2.36,47,47,0,0,0-8.3-.47Z"/><path class="cls-5" d="M511.17,821.54h10.12v27.14a56.64,56.64,0,0,0,.37,8.37,8.11,8.11,0,0,0,3.1,4.94,10.75,10.75,0,0,0,6.68,1.86c2.87,0,5-.58,6.49-1.76a6.9,6.9,0,0,0,2.63-4.32,55.71,55.71,0,0,0,.45-8.51V821.54h10.11v26.32q0,9-.82,12.75a14.06,14.06,0,0,1-3,6.29,15.35,15.35,0,0,1-5.9,4.08,25.72,25.72,0,0,1-9.64,1.52q-7.17,0-10.88-1.66a15.45,15.45,0,0,1-5.86-4.3,13.71,13.71,0,0,1-2.84-5.56,60.9,60.9,0,0,1-1-12.71Z"/><path class="cls-5" d="M559.22,855.34l9.85-1q.88,5,3.6,7.28A10.93,10.93,0,0,0,580,864c3.25,0,5.71-.69,7.36-2.07a6.16,6.16,0,0,0,2.48-4.83,4.59,4.59,0,0,0-1-3,8.44,8.44,0,0,0-3.64-2.17q-1.78-.61-8.1-2.19-8.15-2-11.42-5A13,13,0,0,1,561,834.66a12.85,12.85,0,0,1,2.17-7.16,13.54,13.54,0,0,1,6.25-5.07,25.09,25.09,0,0,1,9.86-1.75q9.43,0,14.2,4.14a14.61,14.61,0,0,1,5,11l-10.12.44a8.6,8.6,0,0,0-2.78-5.55c-1.43-1.13-3.56-1.69-6.41-1.69a11.52,11.52,0,0,0-6.9,1.81,3.64,3.64,0,0,0-1.61,3.11,3.84,3.84,0,0,0,1.5,3q1.92,1.61,9.3,3.35A49.07,49.07,0,0,1,592.43,844a14.12,14.12,0,0,1,5.54,5.09,14.9,14.9,0,0,1,2,8,14.75,14.75,0,0,1-2.4,8.07,14.37,14.37,0,0,1-6.76,5.59,28.58,28.58,0,0,1-10.91,1.82q-9.49,0-14.59-4.39T559.22,855.34Z"/><path class="cls-5" d="M608.48,871.65V821.54h37.15V830h-27v11.1h25.16v8.45H618.59V863.2h28v8.45Z"/><path class="cls-5" d="M655.2,871.65V821.54h21.3q8,0,11.67,1.35a11.56,11.56,0,0,1,5.83,4.8,14.49,14.49,0,0,1,2.18,7.9,13.36,13.36,0,0,1-3.31,9.31q-3.32,3.68-9.91,4.63a23.66,23.66,0,0,1,5.41,4.21,55.5,55.5,0,0,1,5.76,8.13l6.12,9.78h-12.1l-7.31-10.91a70.23,70.23,0,0,0-5.34-7.36,7.71,7.71,0,0,0-3-2.09,16.89,16.89,0,0,0-5.09-.56h-2v20.92Zm10.12-28.92h7.48q7.29,0,9.1-.62a5.45,5.45,0,0,0,2.83-2.11,6.5,6.5,0,0,0,1-3.76,6,6,0,0,0-1.35-4.09,6.16,6.16,0,0,0-3.81-2c-.82-.12-3.28-.17-7.39-.17h-7.89Z"/><path class="cls-5" d="M266.77,936.51v-49.1h37.15v8.3h-27V906.6H302v8.27H276.88v13.37h28v8.27Z"/><path class="cls-5" d="M313.56,936.51v-49.1h9.84l20.51,32.79V887.41h9.4v49.1H343.16l-20.2-32v32Z"/><path class="cls-5" d="M376.79,936.51l-17.91-49.1h11l12.68,36.34,12.27-36.34h10.74l-18,49.1Z"/><path class="cls-5" d="M410.39,936.51v-49.1h10.12v49.1Z"/><path class="cls-5" d="M430.18,936.51v-49.1h21.29q8,0,11.68,1.32a11.46,11.46,0,0,1,5.82,4.71,13.89,13.89,0,0,1,2.19,7.73,13,13,0,0,1-3.31,9.13q-3.33,3.6-9.92,4.54a23.3,23.3,0,0,1,5.42,4.12,56.8,56.8,0,0,1,5.76,8l6.12,9.58h-12.1l-7.32-10.68a67.41,67.41,0,0,0-5.33-7.22,7.56,7.56,0,0,0-3-2,16.89,16.89,0,0,0-5.09-.56H440.3v20.5Zm10.12-28.34h7.48q7.29,0,9.09-.6a5.38,5.38,0,0,0,2.84-2.08,6.31,6.31,0,0,0,1-3.68,5.8,5.8,0,0,0-1.35-4,6.23,6.23,0,0,0-3.82-1.93q-1.23-.17-7.38-.17H440.3Z"/><path class="cls-5" d="M478.65,912.26a30.6,30.6,0,0,1,2.29-12.59,23.19,23.19,0,0,1,4.66-6.74,19.59,19.59,0,0,1,6.48-4.42,28.09,28.09,0,0,1,10.8-1.94q11.07,0,17.72,6.73T527.25,912q0,11.88-6.6,18.6T503,937.35q-11.17,0-17.78-6.68T478.65,912.26Zm10.42-.33q0,8.34,3.93,12.64a13.71,13.71,0,0,0,19.91,0q3.89-4.26,3.88-12.81T513,899.2a14.17,14.17,0,0,0-20.11,0Q489.08,903.45,489.07,911.93Z"/><path class="cls-5" d="M535.25,936.51v-49.1h9.84L565.6,920.2V887.41H575v49.1H564.85l-20.2-32v32Z"/><path class="cls-5" d="M585.56,936.51v-49.1H600.7l9.09,33.49,9-33.49H634v49.1h-9.4V897.86l-9.95,38.65h-9.74L595,897.86v38.65Z"/><path class="cls-5" d="M644,936.51v-49.1h37.15v8.3h-27V906.6h25.16v8.27H654.12v13.37h28v8.27Z"/><path class="cls-5" d="M690.8,936.51v-49.1h9.84l20.51,32.79V887.41h9.4v49.1H720.4l-20.2-32v32Z"/><path class="cls-5" d="M752.53,936.51v-40.8H737.66v-8.3h39.82v8.3H762.65v40.8Z"/><path class="cls-5" d="M322,196.58H311l-4.38-11.16h-20l-4.13,11.16H271.76l19.51-49.11H302Zm-18.62-19.43-6.91-18.22-6.76,18.22Z"/><path class="cls-5" d="M350.71,178.52v-8.27h21.81v19.56a27.59,27.59,0,0,1-9.21,5.31,34.17,34.17,0,0,1-12.22,2.29,27.85,27.85,0,0,1-13.71-3.23,20.76,20.76,0,0,1-8.78-9.24,29.38,29.38,0,0,1-2.94-13.08,27.8,27.8,0,0,1,3.28-13.64,21.94,21.94,0,0,1,9.6-9.14,26.41,26.41,0,0,1,12-2.45q9.33,0,14.58,3.84a17.27,17.27,0,0,1,6.75,10.6l-10.05,1.84a10.42,10.42,0,0,0-4-5.71,12.25,12.25,0,0,0-7.3-2.09q-6.63,0-10.54,4.12t-3.92,12.22q0,8.75,4,13.12a13.36,13.36,0,0,0,10.39,4.37,17.81,17.81,0,0,0,6.37-1.22,22.28,22.28,0,0,0,5.49-3v-6.23Z"/><path class="cls-5" d="M381.88,196.58V147.47h21.3q8,0,11.67,1.32a11.49,11.49,0,0,1,5.83,4.71,13.92,13.92,0,0,1,2.18,7.74,13,13,0,0,1-3.31,9.13q-3.32,3.6-9.91,4.53a24,24,0,0,1,5.41,4.12,55.43,55.43,0,0,1,5.76,8l6.12,9.58h-12.1l-7.31-10.69a71.66,71.66,0,0,0-5.33-7.22,7.8,7.8,0,0,0-3.05-2,16.91,16.91,0,0,0-5.09-.55H392v20.5ZM392,168.24h7.49q7.27,0,9.09-.6a5.46,5.46,0,0,0,2.83-2.08,6.25,6.25,0,0,0,1-3.69,5.82,5.82,0,0,0-1.35-4,6.22,6.22,0,0,0-3.81-1.92c-.82-.12-3.28-.17-7.38-.17H392Z"/><path class="cls-5" d="M432.09,196.58V147.47h10.12v49.11Z"/><path class="cls-5" d="M483.91,178.52l9.81,3q-2.25,8-7.5,11.94t-13.32,3.9q-10,0-16.4-6.68t-6.43-18.27q0-12.26,6.46-19t17-6.79q9.19,0,14.94,5.33a19.34,19.34,0,0,1,5.12,9l-10,2.35a10.34,10.34,0,0,0-3.71-6,10.72,10.72,0,0,0-6.85-2.21,11.47,11.47,0,0,0-9,3.92q-3.48,3.91-3.47,12.69,0,9.32,3.41,13.27a11.23,11.23,0,0,0,8.89,3.95,10.29,10.29,0,0,0,6.94-2.51Q482.65,183.91,483.91,178.52Z"/><path class="cls-5" d="M502.33,147.47h10.12v26.6a52.51,52.51,0,0,0,.38,8.2,7.89,7.89,0,0,0,3.09,4.84,10.92,10.92,0,0,0,6.68,1.83q4.3,0,6.5-1.73a6.84,6.84,0,0,0,2.63-4.23,55.22,55.22,0,0,0,.44-8.34V147.47h10.12v25.79q0,8.85-.82,12.5a13.74,13.74,0,0,1-3,6.16,15.17,15.17,0,0,1-5.89,4,26,26,0,0,1-9.64,1.49q-7.18,0-10.89-1.62a15.57,15.57,0,0,1-5.86-4.22,13.6,13.6,0,0,1-2.84-5.44,58.65,58.65,0,0,1-1-12.47Z"/><path class="cls-5" d="M553.23,196.58V147.87h10.11V188.3H588.5v8.28Z"/><path class="cls-5" d="M601.8,196.58v-40.8H586.93v-8.31h39.82v8.31H611.91v40.8Z"/><path class="cls-5" d="M633.21,147.47h10.11v26.6a53.86,53.86,0,0,0,.38,8.2,7.89,7.89,0,0,0,3.09,4.84,10.93,10.93,0,0,0,6.69,1.83q4.31,0,6.49-1.73A6.8,6.8,0,0,0,662.6,183a53.57,53.57,0,0,0,.45-8.34V147.47h10.11v25.79q0,8.85-.82,12.5a13.62,13.62,0,0,1-3,6.16,15.21,15.21,0,0,1-5.9,4,26,26,0,0,1-9.64,1.49q-7.17,0-10.88-1.62a15.53,15.53,0,0,1-5.87-4.22,13.45,13.45,0,0,1-2.83-5.44,58.65,58.65,0,0,1-1-12.47Z"/><path class="cls-5" d="M683.86,196.58V147.47h21.29q8,0,11.68,1.32a11.47,11.47,0,0,1,5.82,4.71,13.93,13.93,0,0,1,2.19,7.74,13,13,0,0,1-3.31,9.13q-3.31,3.6-9.92,4.53A23.86,23.86,0,0,1,717,179a55.43,55.43,0,0,1,5.76,8l6.12,9.58h-12.1l-7.31-10.69a69.59,69.59,0,0,0-5.34-7.22,7.77,7.77,0,0,0-3-2,17,17,0,0,0-5.09-.55h-2v20.5ZM694,168.24h7.48q7.29,0,9.1-.6a5.5,5.5,0,0,0,2.83-2.08,6.25,6.25,0,0,0,1-3.69,5.82,5.82,0,0,0-1.35-4,6.22,6.22,0,0,0-3.81-1.92c-.82-.12-3.28-.17-7.39-.17H694Z"/><path class="cls-5" d="M734.38,196.58V147.47h37.15v8.31h-27v10.88h25.15v8.28H744.5V188.3h28v8.28Z"/></svg>