<svg id="Layer_1" data-name="Layer 1" xmlns="http://www.w3.org/2000/svg" viewBox="0 0 1080 1080"><defs><style>.cls-1{fill:#231f20;}.cls-2{fill:#77411b;}.cls-3{fill:#fff;}.cls-4{fill:none;stroke:#231f20;stroke-miterlimit:10;stroke-width:0.5px;}</style></defs><title>5th oder</title><path class="cls-1" d="M286,636.12V391.88h80.75q45.9,0,59.84,3.67Q448,401,462.45,419.45T476.9,467q0,22.49-8.33,37.82t-21.16,24.07a73.76,73.76,0,0,1-26.1,11.58q-18,3.5-52.19,3.5H336.31v92.13ZM336.31,433.2v69.31h27.54q29.75,0,39.78-3.84a32.94,32.94,0,0,0,15.73-12,32.4,32.4,0,0,0,5.69-19q0-13.32-8-22a35.08,35.08,0,0,0-20.23-10.83q-9-1.65-36.21-1.66Z"/><path class="cls-1" d="M517.53,636.12V391.88h75.31l45.22,166.6,44.72-166.6h75.48V636.12H711.51V443.86L662,636.12H613.58l-49.3-192.26V636.12Z"/><rect class="cls-2" x="258.99" y="54.73" width="526.26" height="212.63"/><rect class="cls-2" x="258.99" y="761.72" width="526.26" height="212.63"/><path class="cls-3" d="M344,860.67V810.56h37.15V819h-27v11.1h25.16v8.45H354.11v13.63h28v8.45Z"/><path class="cls-3" d="M390.79,860.67V810.56h9.84L421.14,844V810.56h9.4v50.11H420.39L400.19,828v32.68Z"/><path class="cls-3" d="M441.2,810.56h18.49a36,36,0,0,1,9.54,1,16.65,16.65,0,0,1,7.55,4.61,22,22,0,0,1,4.79,8.12,37.07,37.07,0,0,1,1.64,11.84,32.84,32.84,0,0,1-1.54,10.67,22.06,22.06,0,0,1-5.37,8.85,17.77,17.77,0,0,1-7.1,4,30.88,30.88,0,0,1-9,1.06h-19ZM451.32,819v33.18h7.55a28.24,28.24,0,0,0,6.12-.47,9.41,9.41,0,0,0,4.09-2.09,10.58,10.58,0,0,0,2.64-4.84,32.37,32.37,0,0,0,1-9.17,29.65,29.65,0,0,0-1-8.92,11.41,11.41,0,0,0-2.87-4.86,9.64,9.64,0,0,0-4.68-2.36,47,47,0,0,0-8.3-.47Z"/><path class="cls-3" d="M511.17,810.56h10.12V837.7a56.64,56.64,0,0,0,.37,8.37,8.11,8.11,0,0,0,3.1,4.94,10.75,10.75,0,0,0,6.68,1.86c2.87,0,5-.58,6.49-1.76a6.9,6.9,0,0,0,2.63-4.32,55.71,55.71,0,0,0,.45-8.51V810.56h10.11v26.32q0,9-.82,12.75a14.06,14.06,0,0,1-3,6.29,15.35,15.35,0,0,1-5.9,4.08,25.72,25.72,0,0,1-9.64,1.52q-7.17,0-10.88-1.66a15.45,15.45,0,0,1-5.86-4.3,13.71,13.71,0,0,1-2.84-5.56,60.9,60.9,0,0,1-1-12.71Z"/><path class="cls-3" d="M559.22,844.36l9.85-1q.88,5,3.6,7.28A10.93,10.93,0,0,0,580,853c3.25,0,5.71-.69,7.36-2.07a6.16,6.16,0,0,0,2.48-4.83,4.59,4.59,0,0,0-1-3,8.44,8.44,0,0,0-3.64-2.17q-1.78-.61-8.1-2.19-8.15-2-11.42-5A13,13,0,0,1,561,823.68a12.85,12.85,0,0,1,2.17-7.16,13.54,13.54,0,0,1,6.25-5.07,25.09,25.09,0,0,1,9.86-1.75q9.43,0,14.2,4.14a14.61,14.61,0,0,1,5,11l-10.12.44a8.6,8.6,0,0,0-2.78-5.55c-1.43-1.13-3.56-1.69-6.41-1.69a11.52,11.52,0,0,0-6.9,1.81,3.64,3.64,0,0,0-1.61,3.11,3.84,3.84,0,0,0,1.5,3q1.92,1.61,9.3,3.35A49.07,49.07,0,0,1,592.43,833a14.12,14.12,0,0,1,5.54,5.09,14.9,14.9,0,0,1,2,8,14.75,14.75,0,0,1-2.4,8.07,14.32,14.32,0,0,1-6.76,5.59,28.57,28.57,0,0,1-10.91,1.83q-9.49,0-14.59-4.4T559.22,844.36Z"/><path class="cls-3" d="M608.48,860.67V810.56h37.15V819h-27v11.1h25.16v8.45H618.59v13.63h28v8.45Z"/><path class="cls-3" d="M655.2,860.67V810.56h21.3q8,0,11.67,1.35a11.56,11.56,0,0,1,5.83,4.8,14.52,14.52,0,0,1,2.18,7.9,13.36,13.36,0,0,1-3.31,9.31q-3.32,3.68-9.91,4.63a23.66,23.66,0,0,1,5.41,4.21,55.5,55.5,0,0,1,5.76,8.13l6.12,9.78h-12.1l-7.31-10.91a70.23,70.23,0,0,0-5.34-7.36,7.71,7.71,0,0,0-3-2.09,16.89,16.89,0,0,0-5.09-.56h-2v20.92Zm10.12-28.92h7.48q7.29,0,9.1-.61a5.46,5.46,0,0,0,2.83-2.12,6.5,6.5,0,0,0,1-3.76,6,6,0,0,0-1.35-4.09,6.21,6.21,0,0,0-3.81-2c-.82-.12-3.28-.17-7.39-.17h-7.89Z"/><path class="cls-3" d="M266.77,925.53v-49.1h37.15v8.3h-27v10.89H302v8.27H276.88v13.37h28v8.27Z"/><path class="cls-3" d="M313.56,925.53v-49.1h9.84l20.51,32.79V876.43h9.4v49.1H343.16l-20.2-32v32Z"/><path class="cls-3" d="M376.79,925.53l-17.91-49.1h11l12.68,36.34,12.27-36.34h10.74l-18,49.1Z"/><path class="cls-3" d="M410.39,925.53v-49.1h10.12v49.1Z"/><path class="cls-3" d="M430.18,925.53v-49.1h21.29q8,0,11.68,1.32a11.46,11.46,0,0,1,5.82,4.71,13.89,13.89,0,0,1,2.19,7.73,13,13,0,0,1-3.31,9.13q-3.33,3.6-9.92,4.54a23.3,23.3,0,0,1,5.42,4.12,56.8,56.8,0,0,1,5.76,8l6.12,9.58h-12.1l-7.32-10.68a67.41,67.41,0,0,0-5.33-7.22,7.66,7.66,0,0,0-3-2,16.89,16.89,0,0,0-5.09-.56H440.3v20.5Zm10.12-28.34h7.48q7.29,0,9.09-.6a5.38,5.38,0,0,0,2.84-2.08,6.31,6.31,0,0,0,1-3.68,5.8,5.8,0,0,0-1.35-4,6.23,6.23,0,0,0-3.82-1.93q-1.23-.17-7.38-.17H440.3Z"/><path class="cls-3" d="M478.65,901.28a30.6,30.6,0,0,1,2.29-12.59A23.19,23.19,0,0,1,485.6,882a19.59,19.59,0,0,1,6.48-4.42,28.09,28.09,0,0,1,10.8-1.94q11.07,0,17.72,6.73t6.65,18.73q0,11.88-6.6,18.6T503,926.37q-11.17,0-17.78-6.68T478.65,901.28Zm10.42-.33q0,8.34,3.93,12.64a13.68,13.68,0,0,0,19.91,0q3.89-4.26,3.88-12.81T513,888.22a14.17,14.17,0,0,0-20.11,0Q489.08,892.47,489.07,901Z"/><path class="cls-3" d="M535.25,925.53v-49.1h9.84l20.51,32.79V876.43H575v49.1H564.85l-20.2-32v32Z"/><path class="cls-3" d="M585.56,925.53v-49.1H600.7l9.09,33.49,9-33.49H634v49.1h-9.4V886.88l-9.95,38.65h-9.74L595,886.88v38.65Z"/><path class="cls-3" d="M644,925.53v-49.1h37.15v8.3h-27v10.89h25.16v8.27H654.12v13.37h28v8.27Z"/><path class="cls-3" d="M690.8,925.53v-49.1h9.84l20.51,32.79V876.43h9.4v49.1H720.4l-20.2-32v32Z"/><path class="cls-3" d="M752.53,925.53v-40.8H737.66v-8.3h39.82v8.3H762.65v40.8Z"/><polygon class="cls-4" points="785.25 761 258.99 761.18 258.99 266.82 785.25 266.82 785.25 761"/><path class="cls-3" d="M366.93,144.73V95.62h16.24q9.22,0,12,.74a13.17,13.17,0,0,1,7.21,4.81,15,15,0,0,1,2.9,9.56,15.7,15.7,0,0,1-1.67,7.6,13.53,13.53,0,0,1-4.26,4.84,14.71,14.71,0,0,1-5.24,2.33,59,59,0,0,1-10.5.7h-6.59v18.53Zm10.12-40.8v13.93h5.53c4,0,6.66-.25,8-.77a6.52,6.52,0,0,0,3.16-2.41,6.44,6.44,0,0,0,1.15-3.82,6.28,6.28,0,0,0-1.61-4.42,7.08,7.08,0,0,0-4.06-2.18,50.5,50.5,0,0,0-7.29-.33Z"/><path class="cls-3" d="M413.31,144.73V95.62h10.12v49.11Z"/><path class="cls-3" d="M433.07,144.73V95.62H449.3q9.24,0,12,.74a13.16,13.16,0,0,1,7.22,4.81,15,15,0,0,1,2.9,9.56,15.82,15.82,0,0,1-1.67,7.6,13.53,13.53,0,0,1-4.26,4.84,14.68,14.68,0,0,1-5.25,2.33,58.79,58.79,0,0,1-10.49.7h-6.6v18.53Zm10.11-40.8v13.93h5.54c4,0,6.66-.25,8-.77a6.46,6.46,0,0,0,4.31-6.23,6.28,6.28,0,0,0-1.61-4.42,7.11,7.11,0,0,0-4.07-2.18,50.33,50.33,0,0,0-7.28-.33Z"/><path class="cls-3" d="M479.76,144.73V95.62h37.15v8.31h-27v10.89H515v8.27H489.87v13.36h28v8.28Z"/><path class="cls-3" d="M526.72,144.73V96h10.12v40.43H562v8.28Z"/><path class="cls-3" d="M568.9,144.73V95.62H579v49.11Z"/><path class="cls-3" d="M588.76,144.73V95.62h9.84l20.51,32.8V95.62h9.4v49.11H618.36l-20.2-32v32Z"/><path class="cls-3" d="M639.21,144.73V95.62h37.15v8.31h-27v10.89h25.16v8.27H649.32v13.36h28v8.28Z"/><path class="cls-3" d="M270.61,225.63V176.52h15.14l9.09,33.5,9-33.5H319v49.11h-9.4V187l-9.95,38.66h-9.74L280,187v38.66Z"/><path class="cls-3" d="M374.24,225.63h-11l-4.38-11.16h-20l-4.13,11.16H324l19.51-49.11h10.7ZM355.62,206.2,348.71,188l-6.77,18.22Z"/><path class="cls-3" d="M379.71,225.63V176.52h9.85l20.5,32.8v-32.8h9.4v49.11H409.31l-20.2-32v32Z"/><path class="cls-3" d="M475.35,225.63h-11L460,214.47h-20l-4.14,11.16H425.07l19.52-49.11h10.69ZM456.72,206.2,449.82,188l-6.77,18.22Z"/><path class="cls-3" d="M504,207.57V199.3h21.81v19.56a27.59,27.59,0,0,1-9.21,5.31,34.14,34.14,0,0,1-12.22,2.3,27.85,27.85,0,0,1-13.71-3.24,20.71,20.71,0,0,1-8.78-9.24A29.38,29.38,0,0,1,479,200.91a27.8,27.8,0,0,1,3.28-13.64,21.91,21.91,0,0,1,9.61-9.14,26.34,26.34,0,0,1,12-2.45q9.33,0,14.58,3.84a17.27,17.27,0,0,1,6.75,10.6l-10,1.84a10.37,10.37,0,0,0-4-5.71,12.25,12.25,0,0,0-7.3-2.09q-6.63,0-10.54,4.12t-3.91,12.23c0,5.82,1.32,10.2,4,13.11A13.38,13.38,0,0,0,503.75,218a17.9,17.9,0,0,0,6.38-1.22,21.89,21.89,0,0,0,5.48-3v-6.23Z"/><path class="cls-3" d="M535.16,225.63V176.52h37.16v8.31h-27v10.89h25.16V204H545.28v13.36h28v8.28Z"/><path class="cls-3" d="M581.72,225.63V176.52h15.14L606,210l9-33.5h15.17v49.11h-9.4V187l-9.94,38.66H601L591.11,187v38.66Z"/><path class="cls-3" d="M640.16,225.63V176.52h37.16v8.31h-27v10.89h25.16V204H650.28v13.36h28v8.28Z"/><path class="cls-3" d="M687,225.63V176.52h9.85l20.51,32.8v-32.8h9.4v49.11H716.55l-20.2-32v32Z"/><path class="cls-3" d="M748.68,225.63v-40.8H733.81v-8.31h39.82v8.31H758.8v40.8Z"/></svg>