<svg id="Layer_1" data-name="Layer 1" xmlns="http://www.w3.org/2000/svg" viewBox="0 0 1080 1080"><defs><style>.cls-1{fill:#77411b;}.cls-2,.cls-3{fill:none;}.cls-2{stroke:#231f20;stroke-miterlimit:10;stroke-width:0.5px;}.cls-4{fill:#fff;}.cls-5{fill:#231f20;}</style></defs><title>5th oder</title><rect class="cls-1" x="258.99" y="54.19" width="526.26" height="212.63"/><rect class="cls-1" x="258.99" y="761.18" width="526.26" height="212.63"/><polygon class="cls-2" points="785.3 761 259.04 761.18 259.04 266.82 785.3 266.82 785.3 761"/><rect class="cls-3" width="1080" height="1080"/><path class="cls-4" d="M344,860.13V810h37.15v8.48h-27v11.1h25.16v8.45H354.11v13.63h28v8.45Z"/><path class="cls-4" d="M390.79,860.13V810h9.84l20.51,33.46V810h9.4v50.11H420.39l-20.2-32.68v32.68Z"/><path class="cls-4" d="M441.2,810h18.49a36,36,0,0,1,9.54,1,16.65,16.65,0,0,1,7.55,4.61,22,22,0,0,1,4.79,8.12,37.07,37.07,0,0,1,1.64,11.84,32.73,32.73,0,0,1-1.54,10.66,22,22,0,0,1-5.37,8.86,17.77,17.77,0,0,1-7.1,4,30.88,30.88,0,0,1-9,1.06h-19Zm10.12,8.48v33.18h7.55a28.24,28.24,0,0,0,6.12-.47,9.41,9.41,0,0,0,4.09-2.09,10.58,10.58,0,0,0,2.64-4.84,32.37,32.37,0,0,0,1-9.17,29.65,29.65,0,0,0-1-8.92,11.41,11.41,0,0,0-2.87-4.86,9.64,9.64,0,0,0-4.68-2.36,47,47,0,0,0-8.3-.47Z"/><path class="cls-4" d="M511.17,810h10.12v27.14a56.64,56.64,0,0,0,.37,8.37,8.11,8.11,0,0,0,3.1,4.94,10.75,10.75,0,0,0,6.68,1.86c2.87,0,5-.58,6.49-1.76a6.9,6.9,0,0,0,2.63-4.32,55.71,55.71,0,0,0,.45-8.51V810h10.11v26.32q0,9-.82,12.75a14.06,14.06,0,0,1-3,6.29,15.35,15.35,0,0,1-5.9,4.08,25.72,25.72,0,0,1-9.64,1.52q-7.17,0-10.88-1.66A15.45,15.45,0,0,1,515,855a13.71,13.71,0,0,1-2.84-5.56,60.9,60.9,0,0,1-1-12.71Z"/><path class="cls-4" d="M559.22,843.82l9.85-1q.88,4.95,3.6,7.28a10.93,10.93,0,0,0,7.34,2.32c3.25,0,5.71-.69,7.36-2.07a6.16,6.16,0,0,0,2.48-4.83,4.59,4.59,0,0,0-1-3,8.44,8.44,0,0,0-3.64-2.17q-1.78-.61-8.1-2.19-8.15-2-11.42-4.95A13,13,0,0,1,561,823.14a12.85,12.85,0,0,1,2.17-7.16,13.54,13.54,0,0,1,6.25-5.07,25.09,25.09,0,0,1,9.86-1.75q9.43,0,14.2,4.14a14.61,14.61,0,0,1,5,11l-10.12.44a8.6,8.6,0,0,0-2.78-5.55c-1.43-1.13-3.56-1.69-6.41-1.69a11.52,11.52,0,0,0-6.9,1.81,3.64,3.64,0,0,0-1.61,3.11,3.84,3.84,0,0,0,1.5,3q1.92,1.61,9.3,3.35a49.07,49.07,0,0,1,10.92,3.61,14.12,14.12,0,0,1,5.54,5.09,14.9,14.9,0,0,1,2,8,14.75,14.75,0,0,1-2.4,8.07,14.37,14.37,0,0,1-6.76,5.59A28.58,28.58,0,0,1,579.9,861q-9.49,0-14.59-4.39T559.22,843.82Z"/><path class="cls-4" d="M608.48,860.13V810h37.15v8.48h-27v11.1h25.16v8.45H618.59v13.63h28v8.45Z"/><path class="cls-4" d="M655.2,860.13V810h21.3q8,0,11.67,1.35a11.56,11.56,0,0,1,5.83,4.8,14.49,14.49,0,0,1,2.18,7.9,13.36,13.36,0,0,1-3.31,9.31q-3.32,3.68-9.91,4.63a23.66,23.66,0,0,1,5.41,4.21,55.5,55.5,0,0,1,5.76,8.13l6.12,9.78h-12.1l-7.31-10.91a70.23,70.23,0,0,0-5.34-7.36,7.71,7.71,0,0,0-3-2.09,16.89,16.89,0,0,0-5.09-.56h-2v20.92Zm10.12-28.92h7.48q7.29,0,9.1-.62a5.45,5.45,0,0,0,2.83-2.11,6.5,6.5,0,0,0,1-3.76,6,6,0,0,0-1.35-4.09,6.16,6.16,0,0,0-3.81-2c-.82-.12-3.28-.17-7.39-.17h-7.89Z"/><path class="cls-4" d="M266.77,925v-49.1h37.15v8.3h-27v10.89H302v8.27H276.88v13.37h28V925Z"/><path class="cls-4" d="M313.56,925v-49.1h9.84l20.51,32.79V875.89h9.4V925H343.16L323,893v32Z"/><path class="cls-4" d="M376.79,925l-17.91-49.1h11l12.68,36.34,12.27-36.34h10.74l-18,49.1Z"/><path class="cls-4" d="M410.39,925v-49.1h10.12V925Z"/><path class="cls-4" d="M430.18,925v-49.1h21.29q8,0,11.68,1.32a11.46,11.46,0,0,1,5.82,4.71,13.89,13.89,0,0,1,2.19,7.73,13,13,0,0,1-3.31,9.13q-3.33,3.6-9.92,4.54a23.3,23.3,0,0,1,5.42,4.12,56.8,56.8,0,0,1,5.76,8l6.12,9.58h-12.1l-7.32-10.68a67.41,67.41,0,0,0-5.33-7.22,7.56,7.56,0,0,0-3-2,16.89,16.89,0,0,0-5.09-.56H440.3V925Zm10.12-28.34h7.48q7.29,0,9.09-.6a5.38,5.38,0,0,0,2.84-2.08,6.31,6.31,0,0,0,1-3.68,5.8,5.8,0,0,0-1.35-4,6.23,6.23,0,0,0-3.82-1.93q-1.23-.17-7.38-.17H440.3Z"/><path class="cls-4" d="M478.65,900.74a30.6,30.6,0,0,1,2.29-12.59,23.19,23.19,0,0,1,4.66-6.74,19.59,19.59,0,0,1,6.48-4.42,28.09,28.09,0,0,1,10.8-1.94q11.07,0,17.72,6.73t6.65,18.73q0,11.88-6.6,18.6T503,925.83q-11.17,0-17.78-6.68T478.65,900.74Zm10.42-.33q0,8.34,3.93,12.64a13.71,13.71,0,0,0,19.91,0q3.89-4.26,3.88-12.81T513,887.68a14.17,14.17,0,0,0-20.11.05Q489.08,891.93,489.07,900.41Z"/><path class="cls-4" d="M535.25,925v-49.1h9.84l20.51,32.79V875.89H575V925H564.85l-20.2-32v32Z"/><path class="cls-4" d="M585.56,925v-49.1H600.7l9.09,33.49,9-33.49H634V925h-9.4V886.34L614.61,925h-9.74L595,886.34V925Z"/><path class="cls-4" d="M644,925v-49.1h37.15v8.3h-27v10.89h25.16v8.27H654.12v13.37h28V925Z"/><path class="cls-4" d="M690.8,925v-49.1h9.84l20.51,32.79V875.89h9.4V925H720.4l-20.2-32v32Z"/><path class="cls-4" d="M752.53,925v-40.8H737.66v-8.3h39.82v8.3H762.65V925Z"/><path class="cls-4" d="M277.87,180.28V147.4h-12v-6.7H298v6.7H286v32.88Z"/><path class="cls-4" d="M303.27,180.28V140.7h17.17c4.31,0,7.45.36,9.4,1.07a9.19,9.19,0,0,1,4.7,3.79,11.21,11.21,0,0,1,1.76,6.24,10.42,10.42,0,0,1-2.67,7.35q-2.67,2.91-8,3.66a19.12,19.12,0,0,1,4.37,3.32,45.47,45.47,0,0,1,4.64,6.43l4.93,7.72h-9.75l-5.89-8.61a56.74,56.74,0,0,0-4.3-5.82,6.33,6.33,0,0,0-2.45-1.65,14.06,14.06,0,0,0-4.11-.44h-1.65v16.52Zm8.16-22.84h6c3.91,0,6.36-.16,7.33-.49a4.43,4.43,0,0,0,2.29-1.67,5.07,5.07,0,0,0,.82-3,4.68,4.68,0,0,0-1.09-3.23,5,5,0,0,0-3.07-1.55q-1-.14-5.95-.13h-6.36Z"/><path class="cls-4" d="M380.41,180.28h-8.87l-3.53-9H351.87l-3.33,9h-8.65l15.73-39.58h8.62Zm-15-15.66-5.57-14.69-5.45,14.69Z"/><path class="cls-4" d="M384.82,180.28V140.7h7.93l16.53,26.43V140.7h7.58v39.58h-8.18l-16.29-25.81v25.81Z"/><path class="cls-4" d="M423.41,167.4l7.94-.75a9.45,9.45,0,0,0,2.91,5.75,8.92,8.92,0,0,0,5.9,1.83q3.94,0,5.94-1.63a4.83,4.83,0,0,0,2-3.82,3.56,3.56,0,0,0-.84-2.39,6.75,6.75,0,0,0-2.94-1.72c-.95-.32-3.13-.9-6.52-1.72-4.38-1.07-7.44-2.37-9.21-3.92a10.21,10.21,0,0,1-3.72-8,10.09,10.09,0,0,1,1.75-5.66,11,11,0,0,1,5.05-4,20.49,20.49,0,0,1,7.94-1.37q7.61,0,11.45,3.26a11.46,11.46,0,0,1,4,8.72l-8.16.35A6.77,6.77,0,0,0,444.7,148a8.36,8.36,0,0,0-5.17-1.34,9.47,9.47,0,0,0-5.56,1.43,2.85,2.85,0,0,0-1.3,2.46,3,3,0,0,0,1.21,2.4q1.55,1.27,7.5,2.65a39.89,39.89,0,0,1,8.8,2.84,11.32,11.32,0,0,1,4.46,4,11.86,11.86,0,0,1-5.77,17.09,23.36,23.36,0,0,1-8.79,1.44c-5.1,0-9-1.15-11.76-3.47S424,171.83,423.41,167.4Z"/><path class="cls-4" d="M463.11,180.28V140.7H476.2q7.44,0,9.7.59a10.64,10.64,0,0,1,5.81,3.88,12.13,12.13,0,0,1,2.34,7.71A12.65,12.65,0,0,1,492.7,159a10.93,10.93,0,0,1-3.43,3.91,12,12,0,0,1-4.23,1.87,47.22,47.22,0,0,1-8.46.57h-5.31v14.93Zm8.16-32.88v11.23h4.46a21.72,21.72,0,0,0,6.45-.62,5.37,5.37,0,0,0,2.54-1.95,5.22,5.22,0,0,0,.93-3.08,5,5,0,0,0-1.3-3.56,5.65,5.65,0,0,0-3.28-1.75,39.8,39.8,0,0,0-5.86-.27Z"/><path class="cls-4" d="M499.09,160.73a24.75,24.75,0,0,1,1.85-10.15,18.82,18.82,0,0,1,3.76-5.43,15.87,15.87,0,0,1,5.22-3.56,22.62,22.62,0,0,1,8.7-1.56q8.93,0,14.29,5.42t5.36,15.09q0,9.59-5.32,15T518.73,181q-9,0-14.32-5.38T499.09,160.73Zm8.4-.27q0,6.72,3.17,10.19a11,11,0,0,0,16.05,0q3.12-3.44,3.13-10.33t-3.05-10.15a10.39,10.39,0,0,0-8.08-3.34,10.5,10.5,0,0,0-8.13,3.38Q507.49,153.63,507.49,160.46Z"/><path class="cls-4" d="M544.66,180.28V140.7h17.16c4.32,0,7.45.36,9.41,1.07a9.27,9.27,0,0,1,4.7,3.79,11.29,11.29,0,0,1,1.76,6.24,10.42,10.42,0,0,1-2.67,7.35c-1.78,1.94-4.45,3.16-8,3.66a19.05,19.05,0,0,1,4.36,3.32,45.34,45.34,0,0,1,4.65,6.43l4.93,7.72h-9.75l-5.9-8.61a55.21,55.21,0,0,0-4.3-5.82,6.33,6.33,0,0,0-2.45-1.65,13.94,13.94,0,0,0-4.1-.44h-1.66v16.52Zm8.15-22.84h6q5.86,0,7.32-.49a4.35,4.35,0,0,0,2.29-1.67,5.08,5.08,0,0,0,.83-3,4.73,4.73,0,0,0-1.09-3.23,5.05,5.05,0,0,0-3.07-1.55c-.66-.09-2.65-.13-6-.13h-6.37Z"/><path class="cls-4" d="M594.47,180.28V147.4h-12v-6.7h32.1v6.7h-12v32.88Z"/><path class="cls-4" d="M652.07,180.28H643.2l-3.53-9H623.53l-3.33,9h-8.65l15.73-39.58h8.62Zm-15-15.66-5.57-14.69L626,164.62Z"/><path class="cls-4" d="M661.3,180.28V147.4h-12v-6.7h32.09v6.7h-12v32.88Z"/><path class="cls-4" d="M686.43,180.28V140.7h8.15v39.58Z"/><path class="cls-4" d="M700.7,160.73a24.75,24.75,0,0,1,1.84-10.15,18.82,18.82,0,0,1,3.76-5.43,15.87,15.87,0,0,1,5.22-3.56,22.67,22.67,0,0,1,8.71-1.56q8.92,0,14.28,5.42t5.36,15.09q0,9.59-5.32,15T720.34,181q-9,0-14.33-5.38T700.7,160.73Zm8.4-.27q0,6.72,3.17,10.19a11,11,0,0,0,16,0q3.13-3.44,3.13-10.33t-3-10.15a11.47,11.47,0,0,0-16.22,0Q709.11,153.63,709.1,160.46Z"/><path class="cls-4" d="M746.32,180.28V140.7h7.93l16.53,26.43V140.7h7.58v39.58h-8.19l-16.28-25.81v25.81Z"/><path class="cls-5" d="M473.75,749.81V358H331V278.19H713.39V358H570.92V749.81Z"/></svg>