<svg id="Layer_1" data-name="Layer 1" xmlns="http://www.w3.org/2000/svg" viewBox="0 0 1080 1080"><defs><style>.cls-1,.cls-2{fill:none;}.cls-2{stroke:#231f20;stroke-miterlimit:10;stroke-width:0.5px;}.cls-3{fill:#fdfefe;}.cls-4{fill:#231f20;}.cls-5{fill:#fff;}</style></defs><title>PLATFORM ASSET</title><rect class="cls-1" x="3.04" width="1080" height="1080"/><rect x="279.91" y="80.19" width="526.26" height="212.63"/><rect x="279.91" y="787.18" width="526.26" height="212.63"/><polygon class="cls-2" points="806.17 787 279.91 787.18 279.91 292.82 806.17 292.82 806.17 787"/><path class="cls-3" d="M356.87,876.59V826.65h16.18q9.21,0,12,.75a13.07,13.07,0,0,1,7.19,4.89,15.5,15.5,0,0,1,2.9,9.72,16.35,16.35,0,0,1-1.67,7.74,13.67,13.67,0,0,1-4.24,4.92A14.79,14.79,0,0,1,384,857a58.3,58.3,0,0,1-10.46.71H367v18.84ZM367,835.1v14.17h5.51c4,0,6.63-.26,8-.78a6.57,6.57,0,0,0,4.29-6.34,6.49,6.49,0,0,0-1.6-4.5,7,7,0,0,0-4.06-2.21,48,48,0,0,0-7.25-.34Z"/><path class="cls-3" d="M403.68,876.59V827.06h10.08v41.12h25.07v8.41Z"/><path class="cls-3" d="M491.06,876.59h-11l-4.36-11.34h-20l-4.12,11.34H441l19.45-49.94h10.66Zm-18.57-19.76-6.88-18.53-6.75,18.53Z"/><path class="cls-3" d="M502.47,876.59V835.1H487.65v-8.45h39.69v8.45H512.55v41.49Z"/><path class="cls-3" d="M533.91,876.59V826.65h34.24v8.45H544v11.82h20.85v8.45H544v21.22Z"/><path class="cls-3" d="M574.41,851.93a31.6,31.6,0,0,1,2.29-12.81,23.33,23.33,0,0,1,4.65-6.85,19.45,19.45,0,0,1,6.45-4.5,27.55,27.55,0,0,1,10.77-2q11,0,17.66,6.85t6.63,19q0,12.09-6.58,18.92t-17.58,6.83q-11.13,0-17.71-6.79T574.41,851.93Zm10.39-.34q0,8.48,3.92,12.86a12.79,12.79,0,0,0,9.95,4.37,12.61,12.61,0,0,0,9.89-4.34q3.87-4.35,3.87-13t-3.76-12.81a14,14,0,0,0-20,.05Q584.81,843,584.8,851.59Z"/><path class="cls-3" d="M630.76,876.59V826.65H652q8,0,11.63,1.35a11.43,11.43,0,0,1,5.81,4.78,14.35,14.35,0,0,1,2.18,7.87,13.33,13.33,0,0,1-3.3,9.28q-3.3,3.68-9.88,4.62a23.54,23.54,0,0,1,5.4,4.19,56.66,56.66,0,0,1,5.74,8.11l6.1,9.74H663.6l-7.29-10.87a69.7,69.7,0,0,0-5.32-7.34,7.76,7.76,0,0,0-3-2.08,16.78,16.78,0,0,0-5.07-.56h-2v20.85Zm10.08-28.82h7.46q7.26,0,9.06-.61a5.41,5.41,0,0,0,2.83-2.11,6.52,6.52,0,0,0,1-3.75,6,6,0,0,0-1.34-4.07,6.16,6.16,0,0,0-3.8-2q-1.23-.16-7.36-.17h-7.87Z"/><path class="cls-3" d="M681,876.59V826.65h15.09l9.06,34.07,9-34.07h15.13v49.94h-9.37V837.28l-9.91,39.31h-9.71l-9.88-39.31v39.31Z"/><path class="cls-3" d="M477.57,960.31h-11L462.24,949h-20l-4.12,11.34H427.46l19.45-49.94h10.66ZM459,940.55,452.12,922l-6.75,18.53Z"/><path class="cls-3" d="M480.36,944.06l9.81-.95q.88,4.93,3.59,7.25a10.86,10.86,0,0,0,7.31,2.32q4.88,0,7.34-2.06a6.13,6.13,0,0,0,2.47-4.82,4.53,4.53,0,0,0-1-3,8.25,8.25,0,0,0-3.62-2.16q-1.79-.61-8.08-2.18-8.1-2-11.38-4.94a13.13,13.13,0,0,1-2.43-17.19,13.58,13.58,0,0,1,6.23-5.06,25.17,25.17,0,0,1,9.83-1.73q9.41,0,14.15,4.12a14.52,14.52,0,0,1,5,11l-10.08.45a8.59,8.59,0,0,0-2.77-5.54c-1.42-1.12-3.55-1.69-6.39-1.69a11.53,11.53,0,0,0-6.88,1.81,3.62,3.62,0,0,0-1.6,3.1,3.82,3.82,0,0,0,1.49,3c1.28,1.07,4.36,2.18,9.27,3.34a49.29,49.29,0,0,1,10.88,3.59,14,14,0,0,1,5.52,5.08,15.68,15.68,0,0,1-.39,16,14.27,14.27,0,0,1-6.74,5.57A28.21,28.21,0,0,1,501,961.19q-9.48,0-14.55-4.37T480.36,944.06Z"/><path class="cls-3" d="M526.89,944.06l9.81-.95q.88,4.93,3.6,7.25a10.82,10.82,0,0,0,7.3,2.32q4.88,0,7.35-2.06a6.16,6.16,0,0,0,2.47-4.82,4.58,4.58,0,0,0-1-3,8.35,8.35,0,0,0-3.63-2.16q-1.77-.61-8.07-2.18-8.11-2-11.38-4.94a13.12,13.12,0,0,1-2.44-17.19,13.56,13.56,0,0,1,6.24-5.06,25.08,25.08,0,0,1,9.82-1.73q9.41,0,14.16,4.12a14.55,14.55,0,0,1,5,11l-10.09.45q-.65-3.86-2.77-5.54c-1.42-1.12-3.55-1.69-6.39-1.69a11.55,11.55,0,0,0-6.88,1.81,3.62,3.62,0,0,0-1.6,3.1,3.83,3.83,0,0,0,1.5,3q1.9,1.61,9.26,3.34A49.41,49.41,0,0,1,560,932.73a14,14,0,0,1,5.52,5.08,14.91,14.91,0,0,1,2,8,14.72,14.72,0,0,1-2.39,8,14.23,14.23,0,0,1-6.74,5.57,28.21,28.21,0,0,1-10.87,1.82q-9.46,0-14.54-4.37T526.89,944.06Z"/><path class="cls-3" d="M576,960.31V910.37h37v8.45h-27v11.07h25.08v8.41H586.06v13.59H614v8.42Z"/><path class="cls-3" d="M633.76,960.31V918.82H618.94v-8.45h39.68v8.45H643.84v41.49Z"/><path class="cls-4" d="M466.39,634.43H426.3L410.37,593H337.42l-15.07,41.46H283.26l71.09-182.51h39Zm-67.85-72.21L373.4,494.5l-24.65,67.72Z"/><path class="cls-4" d="M555.76,564.55V533.8h79.43v72.7q-11.58,11.21-33.55,19.73a122,122,0,0,1-44.51,8.53q-28.64,0-49.92-12a76.42,76.42,0,0,1-32-34.36,111.15,111.15,0,0,1-10.7-48.62q0-28.5,11.95-50.66a80.47,80.47,0,0,1,35-34Q529,446,555.14,446q34,0,53.09,14.26t24.59,39.4l-36.6,6.84a38.63,38.63,0,0,0-14.5-21.22q-10.65-7.79-26.58-7.78-24.15,0-38.41,15.31t-14.25,45.44q0,32.49,14.44,48.74t37.85,16.24A63.43,63.43,0,0,0,578,598.72a79.44,79.44,0,0,0,20-11V564.55Z"/><path class="cls-4" d="M654.42,571.48,690.28,568q3.22,18.06,13.13,26.52t26.7,8.46q17.8,0,26.83-7.53t9-17.61a16.62,16.62,0,0,0-3.8-11q-3.79-4.54-13.26-7.91-6.46-2.24-29.5-8-29.64-7.35-41.58-18.06Q661,517.82,661,496.16a46.89,46.89,0,0,1,7.9-26.08q7.91-12.13,22.79-18.49t35.91-6.35q34.36,0,51.73,15.06t18.24,40.21l-36.85,1.62q-2.37-14.06-10.15-20.22t-23.34-6.17q-16.07,0-25.15,6.6a13.3,13.3,0,0,0-5.85,11.33,14,14,0,0,0,5.48,11.08q7,5.85,33.86,12.2t39.78,13.13a51.28,51.28,0,0,1,20.16,18.55q7.29,11.76,7.29,29.07a53.74,53.74,0,0,1-8.72,29.38,52.25,52.25,0,0,1-24.65,20.36q-15.93,6.66-39.71,6.66-34.62,0-53.16-16T654.42,571.48Z"/><path class="cls-5" d="M438.23,142.41H426.75l-4.56-11.87H401.3L397,142.41h-11.2l20.36-52.25H417.3ZM418.8,121.74l-7.2-19.39-7.06,19.39Z"/><path class="cls-5" d="M443.68,142.41V90.16h15.79L469,125.8l9.38-35.64h15.82v52.25h-9.8V101.28L474,142.41H463.82l-10.34-41.13v41.13Z"/><path class="cls-5" d="M551.76,142.41H540.28l-4.57-11.87H514.83l-4.32,11.87H499.32l20.36-52.25h11.15Zm-19.43-20.67-7.2-19.39-7.06,19.39Z"/><path class="cls-5" d="M552.82,142.41V132.9L580.27,99H555.92V90.16h38.25v8.2l-28.62,35.25h29.73v8.8Z"/><path class="cls-5" d="M599.8,116.61a33.31,33.31,0,0,1,2.39-13.41A24.49,24.49,0,0,1,607.06,96a20.31,20.31,0,0,1,6.75-4.71,28.86,28.86,0,0,1,11.27-2.06q11.53,0,18.48,7.16t6.93,19.93q0,12.64-6.88,19.8t-18.39,7.14q-11.65,0-18.54-7.11T599.8,116.61Zm10.87-.36q0,8.88,4.1,13.46a13.39,13.39,0,0,0,10.41,4.58,13.25,13.25,0,0,0,10.36-4.55q4-4.55,4-13.63t-3.94-13.4a14.59,14.59,0,0,0-21,.05Q610.67,107.23,610.67,116.25Z"/><path class="cls-5" d="M658.83,142.41V90.16H669.1l21.38,34.89V90.16h9.81v52.25H689.7l-21.07-34.07v34.07Z"/><path class="cls-5" d="M410.51,193.41v-8.8h22.74v20.81a28.55,28.55,0,0,1-9.6,5.65,34.89,34.89,0,0,1-12.74,2.44,28.56,28.56,0,0,1-14.3-3.44,21.92,21.92,0,0,1-9.16-9.83,31.87,31.87,0,0,1-3.06-13.92,30.11,30.11,0,0,1,3.42-14.51,23,23,0,0,1,10-9.73,26.93,26.93,0,0,1,12.51-2.6q9.72,0,15.2,4.08a18.43,18.43,0,0,1,7,11.28l-10.48,2a11.1,11.1,0,0,0-4.15-6.08,12.61,12.61,0,0,0-7.61-2.23q-6.91,0-11,4.39t-4.08,13q0,9.3,4.13,14a13.83,13.83,0,0,0,10.84,4.66,18.17,18.17,0,0,0,6.65-1.31A22.57,22.57,0,0,0,422.6,200v-6.63Z"/><path class="cls-5" d="M443,212.62V160.37h22.21q8.37,0,12.17,1.41a12,12,0,0,1,6.08,5,15.08,15.08,0,0,1,2.28,8.24,13.91,13.91,0,0,1-3.46,9.71c-2.3,2.56-5.75,4.16-10.33,4.83a24.78,24.78,0,0,1,5.65,4.38,60.41,60.41,0,0,1,6,8.49L490,212.62H477.38l-7.62-11.37a75.89,75.89,0,0,0-5.56-7.68A8,8,0,0,0,461,191.4a17.07,17.07,0,0,0-5.31-.59h-2.14v21.81Zm10.55-30.15h7.81c5.06,0,8.22-.22,9.48-.64a5.71,5.71,0,0,0,3-2.21,6.86,6.86,0,0,0,1.07-3.93,6.29,6.29,0,0,0-1.41-4.26,6.49,6.49,0,0,0-4-2.05q-1.29-.16-7.7-.17h-8.24Z"/><path class="cls-5" d="M493.57,186.82A33.32,33.32,0,0,1,496,173.41a24.49,24.49,0,0,1,4.87-7.16,20.41,20.41,0,0,1,6.75-4.71,28.86,28.86,0,0,1,11.27-2.06q11.55,0,18.48,7.16t6.93,19.93q0,12.65-6.88,19.8T519,213.51q-11.66,0-18.53-7.11T493.57,186.82Zm10.87-.36q0,8.88,4.1,13.46a14.08,14.08,0,0,0,20.76,0q4.05-4.55,4-13.63t-3.93-13.41a14.59,14.59,0,0,0-21,.06Q504.44,177.44,504.44,186.46Z"/><path class="cls-5" d="M552.42,160.37H563v28.3a59,59,0,0,0,.39,8.73,8.42,8.42,0,0,0,3.22,5.15,11.23,11.23,0,0,0,7,1.95c3,0,5.25-.62,6.78-1.84a7.25,7.25,0,0,0,2.74-4.51,58.76,58.76,0,0,0,.46-8.88v-28.9h10.55v27.44q0,9.42-.85,13.3a14.69,14.69,0,0,1-3.16,6.56,16,16,0,0,1-6.14,4.26,27,27,0,0,1-10.06,1.58q-7.49,0-11.35-1.73a16.14,16.14,0,0,1-6.11-4.49,14.28,14.28,0,0,1-3-5.79,63.4,63.4,0,0,1-1-13.26Z"/><path class="cls-5" d="M605.31,212.62V160.37h10.27L637,195.26V160.37h9.81v52.25H636.18l-21.07-34.07v34.07Z"/><path class="cls-5" d="M657.89,160.37h19.28a37.53,37.53,0,0,1,10,1,17.37,17.37,0,0,1,7.87,4.81,22.7,22.7,0,0,1,5,8.46A38.61,38.61,0,0,1,701.69,187a34.27,34.27,0,0,1-1.6,11.12,23,23,0,0,1-5.6,9.24,18.6,18.6,0,0,1-7.41,4.17,32.17,32.17,0,0,1-9.34,1.1H657.89Zm10.55,8.84v34.61h7.87a29,29,0,0,0,6.39-.5,9.7,9.7,0,0,0,4.26-2.18,11.19,11.19,0,0,0,2.76-5,34.18,34.18,0,0,0,1.07-9.57,31.27,31.27,0,0,0-1.07-9.3,11.9,11.9,0,0,0-3-5.06,9.89,9.89,0,0,0-4.88-2.46,47.08,47.08,0,0,0-8.66-.5Z"/><path class="cls-5" d="M392.51,265.81l10.27-1q.93,5.18,3.76,7.59a11.35,11.35,0,0,0,7.64,2.43q5.1,0,7.69-2.16a6.41,6.41,0,0,0,2.58-5,4.74,4.74,0,0,0-1.09-3.16,8.72,8.72,0,0,0-3.79-2.26q-1.86-.65-8.45-2.28c-5.66-1.4-9.62-3.13-11.91-5.17a13.72,13.72,0,0,1-2.55-18,14.16,14.16,0,0,1,6.53-5.29,26,26,0,0,1,10.28-1.82q9.84,0,14.81,4.31a15.18,15.18,0,0,1,5.22,11.51L423,246q-.68-4-2.9-5.8t-6.68-1.76a12.09,12.09,0,0,0-7.21,1.89,3.82,3.82,0,0,0-1.67,3.24,4,4,0,0,0,1.57,3.17q2,1.68,9.69,3.5A50.71,50.71,0,0,1,427.14,254a14.62,14.62,0,0,1,5.78,5.31,15.54,15.54,0,0,1,2.08,8.32,15.38,15.38,0,0,1-2.49,8.41,15,15,0,0,1-7.06,5.83,29.6,29.6,0,0,1-11.37,1.91q-9.91,0-15.22-4.58T392.51,265.81Z"/><path class="cls-5" d="M455.64,282.81V239.4H440.13v-8.84h41.53v8.84H466.19v43.41Z"/><path class="cls-5" d="M530.17,282.81H518.69l-4.56-11.87H493.25l-4.32,11.87H477.74l20.35-52.25h11.16Zm-19.42-20.67-7.2-19.39-7.06,19.39Z"/><path class="cls-5" d="M542.11,282.81V239.4h-15.5v-8.84h41.52v8.84H552.66v43.41Z"/><path class="cls-5" d="M574.62,282.81V230.56h10.55v52.25Z"/><path class="cls-5" d="M593.08,257a33.31,33.31,0,0,1,2.39-13.41,24.49,24.49,0,0,1,4.87-7.16,20.31,20.31,0,0,1,6.75-4.71,28.86,28.86,0,0,1,11.27-2.06q11.55,0,18.48,7.16t6.93,19.93q0,12.64-6.88,19.8T618.5,283.7q-11.65,0-18.54-7.11T593.08,257Zm10.88-.36q0,8.88,4.09,13.46a13.39,13.39,0,0,0,10.41,4.58,13.25,13.25,0,0,0,10.36-4.55q4-4.54,4-13.63t-3.94-13.4a14.59,14.59,0,0,0-21,0Q604,247.63,604,256.65Z"/><path class="cls-5" d="M652.11,282.81V230.56h10.27l21.38,34.89V230.56h9.81v52.25H683l-21.07-34.07v34.07Z"/></svg>