<svg id="Layer_1" data-name="Layer 1" xmlns="http://www.w3.org/2000/svg" viewBox="0 0 1080 1080"><defs><style>.cls-1,.cls-2{fill:none;}.cls-2{stroke:#231f20;stroke-miterlimit:10;stroke-width:0.5px;}.cls-3{fill:#fdfefe;}.cls-4{fill:#231f20;}.cls-5{fill:#fff;}</style></defs><title>PLATFORM ASSET</title><rect class="cls-1" x="0.08" width="1080" height="1080"/><rect x="276.95" y="80.19" width="526.26" height="212.63"/><rect x="276.95" y="787.18" width="526.26" height="212.63"/><polygon class="cls-2" points="803.21 787 276.95 787.18 276.95 292.82 803.21 292.82 803.21 787"/><path class="cls-3" d="M353.91,876.59V826.65h16.18q9.21,0,12,.75a13.07,13.07,0,0,1,7.19,4.89,15.5,15.5,0,0,1,2.9,9.72,16.35,16.35,0,0,1-1.67,7.74,13.67,13.67,0,0,1-4.24,4.92A14.79,14.79,0,0,1,381,857a58.3,58.3,0,0,1-10.46.71H364v18.84ZM364,835.1v14.17h5.51c4,0,6.63-.26,8-.78a6.57,6.57,0,0,0,4.29-6.34,6.49,6.49,0,0,0-1.6-4.5,7,7,0,0,0-4.06-2.21,48,48,0,0,0-7.25-.34Z"/><path class="cls-3" d="M400.72,876.59V827.06H410.8v41.12h25.07v8.41Z"/><path class="cls-3" d="M488.1,876.59h-11l-4.36-11.34h-20l-4.12,11.34H438l19.45-49.94H468.1Zm-18.57-19.76-6.88-18.53-6.75,18.53Z"/><path class="cls-3" d="M499.51,876.59V835.1H484.69v-8.45h39.69v8.45H509.59v41.49Z"/><path class="cls-3" d="M531,876.59V826.65h34.24v8.45H541v11.82h20.85v8.45H541v21.22Z"/><path class="cls-3" d="M571.45,851.93a31.6,31.6,0,0,1,2.29-12.81,23.33,23.33,0,0,1,4.65-6.85,19.45,19.45,0,0,1,6.45-4.5,27.55,27.55,0,0,1,10.77-2q11,0,17.66,6.85t6.63,19q0,12.09-6.58,18.92t-17.58,6.83q-11.13,0-17.71-6.79T571.45,851.93Zm10.39-.34q0,8.48,3.92,12.86a12.79,12.79,0,0,0,10,4.37,12.61,12.61,0,0,0,9.89-4.34q3.87-4.35,3.87-13t-3.76-12.81a14,14,0,0,0-20.05.05Q581.85,843,581.84,851.59Z"/><path class="cls-3" d="M627.8,876.59V826.65H649q8,0,11.63,1.35a11.43,11.43,0,0,1,5.81,4.78,14.35,14.35,0,0,1,2.18,7.87,13.33,13.33,0,0,1-3.3,9.28q-3.3,3.68-9.88,4.62a23.54,23.54,0,0,1,5.4,4.19,56.66,56.66,0,0,1,5.74,8.11l6.1,9.74H660.64l-7.29-10.87a69.7,69.7,0,0,0-5.32-7.34,7.76,7.76,0,0,0-3-2.08,16.78,16.78,0,0,0-5.07-.56h-2v20.85Zm10.08-28.82h7.46q7.26,0,9.06-.61a5.41,5.41,0,0,0,2.83-2.11,6.52,6.52,0,0,0,1-3.75,6,6,0,0,0-1.34-4.07,6.16,6.16,0,0,0-3.8-2q-1.23-.16-7.36-.17h-7.87Z"/><path class="cls-3" d="M678,876.59V826.65H693.1l9.06,34.07,9-34.07h15.13v49.94h-9.37V837.28L707,876.59h-9.71l-9.88-39.31v39.31Z"/><path class="cls-3" d="M474.61,960.31h-11L459.28,949h-20l-4.12,11.34H424.5L444,910.37h10.66ZM456,940.55,449.16,922l-6.75,18.53Z"/><path class="cls-3" d="M477.4,944.06l9.81-.95q.89,4.93,3.59,7.25a10.86,10.86,0,0,0,7.31,2.32q4.88,0,7.34-2.06a6.13,6.13,0,0,0,2.47-4.82,4.53,4.53,0,0,0-1-3,8.25,8.25,0,0,0-3.62-2.16q-1.78-.61-8.08-2.18-8.1-2-11.38-4.94a13.13,13.13,0,0,1-2.43-17.19,13.58,13.58,0,0,1,6.23-5.06,25.17,25.17,0,0,1,9.83-1.73q9.4,0,14.15,4.12a14.52,14.52,0,0,1,5,11l-10.08.45a8.59,8.59,0,0,0-2.77-5.54c-1.42-1.12-3.55-1.69-6.39-1.69a11.53,11.53,0,0,0-6.88,1.81,3.62,3.62,0,0,0-1.6,3.1,3.82,3.82,0,0,0,1.49,3c1.28,1.07,4.36,2.18,9.27,3.34a49.29,49.29,0,0,1,10.88,3.59,14,14,0,0,1,5.52,5.08,15.68,15.68,0,0,1-.39,16,14.27,14.27,0,0,1-6.74,5.57A28.21,28.21,0,0,1,498,961.19q-9.48,0-14.55-4.37T477.4,944.06Z"/><path class="cls-3" d="M523.93,944.06l9.81-.95q.88,4.93,3.6,7.25a10.82,10.82,0,0,0,7.3,2.32q4.88,0,7.35-2.06a6.16,6.16,0,0,0,2.47-4.82,4.58,4.58,0,0,0-1-3,8.35,8.35,0,0,0-3.63-2.16q-1.77-.61-8.07-2.18-8.12-2-11.38-4.94a13.12,13.12,0,0,1-2.44-17.19,13.56,13.56,0,0,1,6.24-5.06,25.08,25.08,0,0,1,9.82-1.73q9.4,0,14.16,4.12a14.55,14.55,0,0,1,5,11l-10.09.45q-.64-3.86-2.77-5.54c-1.42-1.12-3.55-1.69-6.39-1.69a11.55,11.55,0,0,0-6.88,1.81,3.62,3.62,0,0,0-1.6,3.1,3.83,3.83,0,0,0,1.5,3q1.9,1.61,9.26,3.34A49.41,49.41,0,0,1,557,932.73a14,14,0,0,1,5.52,5.08,14.91,14.91,0,0,1,2,8,14.72,14.72,0,0,1-2.39,8,14.23,14.23,0,0,1-6.74,5.57,28.21,28.21,0,0,1-10.87,1.82q-9.46,0-14.54-4.37T523.93,944.06Z"/><path class="cls-3" d="M573,960.31V910.37h37v8.45H583.1v11.07h25.08v8.41H583.1v13.59H611v8.42Z"/><path class="cls-3" d="M630.8,960.31V918.82H616v-8.45h39.68v8.45H640.88v41.49Z"/><path class="cls-4" d="M416.37,610.66h-30l-11.93-31H319.86l-11.27,31H279.34l53.19-136.57h29.16Zm-50.77-54L346.78,506l-18.44,50.68Z"/><path class="cls-4" d="M430.9,474.34h50.4q17,0,26,2.61a45.74,45.74,0,0,1,20.59,12.57,59.73,59.73,0,0,1,13,22.13q4.47,13.08,4.47,32.28,0,16.86-4.19,29.06-5.13,14.91-14.63,24.13-7.17,7-19.37,10.9-9.13,2.88-24.41,2.88H430.9Zm27.58,23.1v90.45h20.58q11.55,0,16.68-1.3a25.48,25.48,0,0,0,11.13-5.68q4.42-4,7.22-13.18t2.8-25q0-15.83-2.8-24.31t-7.82-13.23a26.35,26.35,0,0,0-12.77-6.43q-5.78-1.29-22.63-1.3Z"/><path class="cls-4" d="M646.37,557.78l26.73,8.48q-6.14,22.35-20.44,33.21t-36.29,10.85q-27.2,0-44.71-18.58t-17.51-50.82q0-34.09,17.6-53t46.3-18.86q25.07,0,40.71,14.81,9.32,8.76,14,25.15l-27.29,6.52a29,29,0,0,0-10.11-16.77q-7.68-6.15-18.68-6.15-15.18,0-24.64,10.9t-9.45,35.31q0,25.9,9.31,36.89t24.22,11a27.61,27.61,0,0,0,18.91-7Q642.92,572.79,646.37,557.78Z"/><path class="cls-4" d="M689.78,563.56,716.61,561q2.42,13.5,9.83,19.84t20,6.33q13.32,0,20.07-5.63t6.76-13.18a12.47,12.47,0,0,0-2.84-8.25c-1.9-2.26-5.21-4.24-9.93-5.91q-4.85-1.68-22.07-6-22.18-5.49-31.12-13.5-12.57-11.28-12.57-27.48a35.14,35.14,0,0,1,5.91-19.52,37.06,37.06,0,0,1,17-13.83q11.13-4.75,26.87-4.75,25.71,0,38.71,11.27t13.65,30.09l-27.58,1.21q-1.77-10.53-7.59-15.14t-17.47-4.61q-12,0-18.81,4.94a9.93,9.93,0,0,0-4.38,8.47,10.46,10.46,0,0,0,4.1,8.29q5.22,4.38,25.34,9.13t29.76,9.83a38.35,38.35,0,0,1,15.09,13.88q5.45,8.81,5.45,21.75a40.2,40.2,0,0,1-6.52,22,39.09,39.09,0,0,1-18.45,15.23q-11.93,5-29.71,5-25.9,0-39.78-12T689.78,563.56Z"/><path class="cls-5" d="M443.57,130.57h-9L431,121.3H414.71l-3.37,9.27h-8.75L418.5,89.73h8.72Zm-15.18-16.15-5.63-15.16-5.51,15.16Z"/><path class="cls-5" d="M452.9,130.57V96.64H440.79V89.73h32.45v6.91H461.15v33.93Z"/><path class="cls-5" d="M487.75,130.57V96.64H475.63V89.73h32.46v6.91H496v33.93Z"/><path class="cls-5" d="M513.16,130.57V89.73h8.24v40.84Z"/><path class="cls-5" d="M538.45,130.57V96.64H526.33V89.73h32.46v6.91H546.7v33.93Z"/><path class="cls-5" d="M564.05,89.73h8.25v22.12a46.94,46.94,0,0,0,.3,6.83,6.58,6.58,0,0,0,2.52,4,8.76,8.76,0,0,0,5.45,1.52,8.34,8.34,0,0,0,5.29-1.43,5.67,5.67,0,0,0,2.15-3.53,46.1,46.1,0,0,0,.36-6.93V89.73h8.24v21.45a55.72,55.72,0,0,1-.66,10.39,11.5,11.5,0,0,1-2.47,5.13,12.57,12.57,0,0,1-4.8,3.33,21.08,21.08,0,0,1-7.86,1.24q-5.85,0-8.87-1.35a12.64,12.64,0,0,1-4.78-3.51,11.24,11.24,0,0,1-2.31-4.53,49.43,49.43,0,0,1-.81-10.36Z"/><path class="cls-5" d="M605.28,89.73h15.07a29.39,29.39,0,0,1,7.77.78,13.7,13.7,0,0,1,6.16,3.76,18,18,0,0,1,3.9,6.62,30.21,30.21,0,0,1,1.33,9.65,26.71,26.71,0,0,1-1.25,8.69,18,18,0,0,1-4.37,7.22,14.51,14.51,0,0,1-5.8,3.26,25.15,25.15,0,0,1-7.3.86H605.28Zm8.24,6.91v27.05h6.16a22.57,22.57,0,0,0,5-.39,7.64,7.64,0,0,0,3.33-1.7,8.59,8.59,0,0,0,2.15-3.94,26.51,26.51,0,0,0,.84-7.48,24.26,24.26,0,0,0-.84-7.27,9.24,9.24,0,0,0-2.34-4A7.93,7.93,0,0,0,624,97a37.39,37.39,0,0,0-6.77-.39Z"/><path class="cls-5" d="M646.51,130.57V89.73h30.28v6.91h-22v9.06h20.5v6.88h-20.5v11.11h22.82v6.88Z"/><path class="cls-5" d="M327.87,140.63h15.07a29.39,29.39,0,0,1,7.77.78,13.7,13.7,0,0,1,6.16,3.76,17.8,17.8,0,0,1,3.9,6.62,30.16,30.16,0,0,1,1.33,9.65,26.71,26.71,0,0,1-1.25,8.69,18,18,0,0,1-4.37,7.21,14.39,14.39,0,0,1-5.8,3.26,24.76,24.76,0,0,1-7.3.87H327.87Zm8.24,6.91v27.05h6.16a22.57,22.57,0,0,0,5-.39,7.75,7.75,0,0,0,3.33-1.7,8.59,8.59,0,0,0,2.15-3.94,26.55,26.55,0,0,0,.84-7.48,24.26,24.26,0,0,0-.84-7.27,9.24,9.24,0,0,0-2.34-4,7.76,7.76,0,0,0-3.81-1.92,37.39,37.39,0,0,0-6.77-.39Z"/><path class="cls-5" d="M369.1,181.47V140.63h30.28v6.91h-22v9.05h20.5v6.88h-20.5v11.12h22.82v6.88Z"/><path class="cls-5" d="M416.34,181.47V147.54H404.22v-6.91h32.46v6.91H424.59v33.93Z"/><path class="cls-5" d="M442,181.47V140.63h17.36q6.54,0,9.51,1.1a9.39,9.39,0,0,1,4.75,3.91,11.76,11.76,0,0,1,1.78,6.44,10.92,10.92,0,0,1-2.7,7.59c-1.8,2-4.49,3.25-8.08,3.77a19.23,19.23,0,0,1,4.42,3.43,46.86,46.86,0,0,1,4.69,6.63l5,8h-9.86l-6-8.89a58.82,58.82,0,0,0-4.35-6,6.35,6.35,0,0,0-2.48-1.7,13.43,13.43,0,0,0-4.15-.46h-1.67v17.05Zm8.25-23.57h6.1q5.94,0,7.41-.5a4.39,4.39,0,0,0,2.31-1.73,5.28,5.28,0,0,0,.84-3.06,4.9,4.9,0,0,0-1.1-3.33,5,5,0,0,0-3.11-1.6c-.67-.09-2.67-.14-6-.14h-6.43Z"/><path class="cls-5" d="M483.08,181.47V140.63h12.35l7.41,27.86,7.32-27.86h12.37v40.84h-7.66V149.32l-8.11,32.15h-7.94l-8.07-32.15v32.15Z"/><path class="cls-5" d="M530.47,181.47V140.63h8.25v40.84Z"/><path class="cls-5" d="M546.65,181.47V140.63h8l16.71,27.27V140.63h7.66v40.84h-8.27l-16.47-26.63v26.63Z"/><path class="cls-5" d="M624.6,181.47h-9l-3.57-9.28H595.74l-3.37,9.28h-8.75l15.91-40.84h8.71Zm-15.19-16.16-5.62-15.15-5.52,15.15Z"/><path class="cls-5" d="M633.93,181.47V147.54H621.81v-6.91h32.45v6.91H642.17v33.93Z"/><path class="cls-5" d="M659.33,181.47V140.63h8.25v40.84Z"/><path class="cls-5" d="M673.76,161.3a25.84,25.84,0,0,1,1.87-10.47,19.33,19.33,0,0,1,3.8-5.6,15.89,15.89,0,0,1,5.28-3.68,22.35,22.35,0,0,1,8.8-1.62q9,0,14.45,5.6t5.42,15.57q0,9.9-5.38,15.48t-14.38,5.58q-9.11,0-14.48-5.55T673.76,161.3Zm8.5-.28q0,6.94,3.2,10.52a10.47,10.47,0,0,0,8.14,3.58,10.36,10.36,0,0,0,8.09-3.56q3.16-3.54,3.16-10.65t-3.08-10.47A10.38,10.38,0,0,0,693.6,147a10.49,10.49,0,0,0-8.22,3.5Q682.26,154,682.26,161Z"/><path class="cls-5" d="M719.89,181.47V140.63h8l16.71,27.27V140.63h7.66v40.84H744l-16.47-26.63v26.63Z"/><path class="cls-5" d="M371.17,232h-9l-3.56-9.27H342.31L338.94,232H330.2l15.9-40.83h8.72ZM356,215.86l-5.63-15.16-5.51,15.16Z"/><path class="cls-5" d="M375.63,232V191.18h8l16.72,27.27V191.18H408V232h-8.28l-16.46-26.63V232Z"/><path class="cls-5" d="M416.72,191.18h15.07a29.39,29.39,0,0,1,7.77.78,13.67,13.67,0,0,1,6.16,3.76,18,18,0,0,1,3.9,6.61A30.23,30.23,0,0,1,451,212a27,27,0,0,1-1.25,8.69,18,18,0,0,1-4.37,7.21,14.65,14.65,0,0,1-5.8,3.26,24.81,24.81,0,0,1-7.3.86H416.72Zm8.24,6.91v27h6.16a22.41,22.41,0,0,0,5-.39,7.53,7.53,0,0,0,3.33-1.7,8.45,8.45,0,0,0,2.16-3.94,26.51,26.51,0,0,0,.84-7.48,24.31,24.31,0,0,0-.84-7.27,9.14,9.14,0,0,0-2.34-3.95,7.76,7.76,0,0,0-3.81-1.92,37.47,37.47,0,0,0-6.77-.39Z"/><path class="cls-5" d="M499.92,217l8,2.54q-1.85,6.68-6.12,9.93a19.25,19.25,0,0,1-24.22-2.32q-5.24-5.55-5.23-15.19,0-10.2,5.26-15.84t13.85-5.64q7.49,0,12.17,4.43a16.11,16.11,0,0,1,4.18,7.52l-8.16,1.95a8.46,8.46,0,0,0-8.61-6.85,9.26,9.26,0,0,0-7.37,3.26q-2.82,3.26-2.83,10.56,0,7.74,2.79,11a9,9,0,0,0,7.24,3.28,8.24,8.24,0,0,0,5.66-2.09A12.12,12.12,0,0,0,499.92,217Z"/><path class="cls-5" d="M513.32,211.85a26.1,26.1,0,0,1,1.87-10.48,19.47,19.47,0,0,1,3.8-5.6,16,16,0,0,1,5.28-3.67,22.35,22.35,0,0,1,8.8-1.62q9,0,14.45,5.6t5.42,15.57q0,9.89-5.38,15.48t-14.37,5.58q-9.12,0-14.49-5.56T513.32,211.85Zm8.5-.28q0,6.93,3.2,10.51a11,11,0,0,0,16.23,0q3.16-3.56,3.16-10.65T541.33,201a11.41,11.41,0,0,0-16.39,0Q521.82,204.53,521.82,211.57Z"/><path class="cls-5" d="M559.45,232V191.18h8l16.71,27.27V191.18h7.66V232h-8.27l-16.47-26.63V232Z"/><path class="cls-5" d="M609.76,232V198.09H597.65v-6.91H630.1v6.91H618V232Z"/><path class="cls-5" d="M635.45,232V191.18H652.8c4.37,0,7.54.36,9.51,1.1a9.35,9.35,0,0,1,4.75,3.91,11.77,11.77,0,0,1,1.79,6.44,10.88,10.88,0,0,1-2.71,7.59q-2.7,3-8.07,3.77a19.1,19.1,0,0,1,4.41,3.43,46.12,46.12,0,0,1,4.7,6.63l5,8H662.3l-6-8.88a56.47,56.47,0,0,0-4.35-6,6.18,6.18,0,0,0-2.48-1.7,13.43,13.43,0,0,0-4.15-.46h-1.67v17Zm8.24-23.56h6.1q5.94,0,7.41-.5a4.47,4.47,0,0,0,2.32-1.73,5.38,5.38,0,0,0,.83-3.06,4.9,4.9,0,0,0-1.1-3.33,5.06,5.06,0,0,0-3.11-1.61c-.66-.09-2.67-.13-6-.13h-6.44Z"/><path class="cls-5" d="M675,211.85a26.11,26.11,0,0,1,1.86-10.48,19.3,19.3,0,0,1,3.81-5.6,15.87,15.87,0,0,1,5.27-3.67,22.4,22.4,0,0,1,8.81-1.62q9,0,14.44,5.6t5.42,15.57q0,9.89-5.38,15.48t-14.37,5.58q-9.1,0-14.49-5.56T675,211.85Zm8.49-.28q0,6.93,3.21,10.51a11,11,0,0,0,16.22,0q3.17-3.56,3.16-10.65T703,201a11.42,11.42,0,0,0-16.4,0Q683.44,204.53,683.44,211.57Z"/><path class="cls-5" d="M721.22,232v-40.5h8.24v33.62H750V232Z"/><path class="cls-5" d="M425.84,269.26l8-.78a9.85,9.85,0,0,0,2.94,5.93,8.87,8.87,0,0,0,6,1.9q4,0,6-1.69a5,5,0,0,0,2-3.94,3.68,3.68,0,0,0-.85-2.46,6.8,6.8,0,0,0-3-1.77c-1-.34-3.16-.93-6.6-1.79q-6.63-1.64-9.3-4a10.71,10.71,0,0,1-2-14.05,11.08,11.08,0,0,1,5.09-4.14,20.58,20.58,0,0,1,8-1.42c5.13,0,9,1.13,11.58,3.37a11.91,11.91,0,0,1,4.08,9l-8.25.36a7,7,0,0,0-2.27-4.52,8.3,8.3,0,0,0-5.22-1.38,9.44,9.44,0,0,0-5.63,1.47,3,3,0,0,0-1.31,2.54,3.13,3.13,0,0,0,1.23,2.48q1.56,1.3,7.57,2.73a40.22,40.22,0,0,1,8.9,2.94,11.41,11.41,0,0,1,4.52,4.15,12.86,12.86,0,0,1-.32,13.08,11.67,11.67,0,0,1-5.52,4.55,23.22,23.22,0,0,1-8.89,1.49q-7.74,0-11.89-3.58T425.84,269.26Z"/><path class="cls-5" d="M476.71,282.55V265.36l-15-23.65h9.66L481,257.87l9.42-16.16h9.5l-15,23.71v17.13Z"/><path class="cls-5" d="M501.94,269.26l8-.78a9.74,9.74,0,0,0,2.94,5.93,8.82,8.82,0,0,0,6,1.9q4,0,6-1.69a5,5,0,0,0,2-3.94,3.68,3.68,0,0,0-.85-2.46,6.7,6.7,0,0,0-3-1.77c-1-.34-3.17-.93-6.6-1.79q-6.63-1.64-9.31-4a10.71,10.71,0,0,1-2-14.05,11.11,11.11,0,0,1,5.1-4.14,20.56,20.56,0,0,1,8-1.42q7.7,0,11.58,3.37a11.91,11.91,0,0,1,4.08,9l-8.25.36a7,7,0,0,0-2.27-4.52,8.3,8.3,0,0,0-5.22-1.38,9.46,9.46,0,0,0-5.63,1.47,3,3,0,0,0-1.31,2.54,3.13,3.13,0,0,0,1.23,2.48q1.56,1.3,7.58,2.73A40.22,40.22,0,0,1,529,260a11.45,11.45,0,0,1,4.51,4.15,12.86,12.86,0,0,1-.32,13.08,11.67,11.67,0,0,1-5.52,4.55,23.16,23.16,0,0,1-8.88,1.49q-7.75,0-11.9-3.58T501.94,269.26Z"/><path class="cls-5" d="M551.28,282.55V248.62H539.16v-6.91h32.45v6.91H559.52v33.93Z"/><path class="cls-5" d="M576.93,282.55V241.71h30.28v6.91h-22v9.05h20.5v6.88h-20.5v11.12H608v6.88Z"/><path class="cls-5" d="M614.87,282.55V241.71h12.35l7.41,27.86L642,241.71h12.37v40.84h-7.66V250.4l-8.11,32.15h-7.94l-8.07-32.15v32.15Z"/></svg>