<svg id="Layer_1" data-name="Layer 1" xmlns="http://www.w3.org/2000/svg" viewBox="0 0 1080 1080"><defs><style>.cls-1,.cls-2{fill:none;}.cls-2{stroke:#231f20;stroke-miterlimit:10;stroke-width:0.5px;}.cls-3{fill:#fdfefe;}.cls-4{fill:#231f20;}.cls-5{fill:#fff;}</style></defs><title>PLATFORM ASSET</title><rect class="cls-1" width="1080" height="1080"/><rect x="276.87" y="80.19" width="526.26" height="212.63"/><rect x="276.87" y="787.18" width="526.26" height="212.63"/><polygon class="cls-2" points="803.13 787 276.87 787.18 276.87 292.82 803.13 292.82 803.13 787"/><path class="cls-3" d="M353.83,876.59V826.65H370q9.21,0,12,.75a13.07,13.07,0,0,1,7.19,4.89,15.5,15.5,0,0,1,2.9,9.72,16.35,16.35,0,0,1-1.67,7.74,13.67,13.67,0,0,1-4.24,4.92A14.79,14.79,0,0,1,381,857a58.3,58.3,0,0,1-10.46.71h-6.57v18.84Zm10.09-41.49v14.17h5.51c4,0,6.63-.26,8-.78a6.57,6.57,0,0,0,4.29-6.34,6.49,6.49,0,0,0-1.6-4.5,7,7,0,0,0-4.06-2.21,48,48,0,0,0-7.25-.34Z"/><path class="cls-3" d="M400.64,876.59V827.06h10.08v41.12h25.07v8.41Z"/><path class="cls-3" d="M488,876.59h-11l-4.36-11.34h-20l-4.12,11.34H437.91l19.45-49.94H468Zm-18.57-19.76-6.88-18.53-6.75,18.53Z"/><path class="cls-3" d="M499.43,876.59V835.1H484.61v-8.45H524.3v8.45H509.51v41.49Z"/><path class="cls-3" d="M530.87,876.59V826.65h34.24v8.45H541v11.82H561.8v8.45H541v21.22Z"/><path class="cls-3" d="M571.37,851.93a31.6,31.6,0,0,1,2.29-12.81,23.33,23.33,0,0,1,4.65-6.85,19.45,19.45,0,0,1,6.45-4.5,27.55,27.55,0,0,1,10.77-2q11,0,17.66,6.85t6.63,19q0,12.09-6.58,18.92t-17.58,6.83q-11.13,0-17.71-6.79T571.37,851.93Zm10.39-.34q0,8.48,3.92,12.86a12.79,12.79,0,0,0,10,4.37,12.61,12.61,0,0,0,9.89-4.34q3.87-4.35,3.87-13t-3.76-12.81a14,14,0,0,0-20,.05Q581.77,843,581.76,851.59Z"/><path class="cls-3" d="M627.72,876.59V826.65h21.22q8,0,11.63,1.35a11.43,11.43,0,0,1,5.81,4.78,14.35,14.35,0,0,1,2.18,7.87,13.33,13.33,0,0,1-3.3,9.28q-3.3,3.68-9.88,4.62a23.54,23.54,0,0,1,5.4,4.19,56.66,56.66,0,0,1,5.74,8.11l6.1,9.74H660.56l-7.29-10.87a69.7,69.7,0,0,0-5.32-7.34,7.76,7.76,0,0,0-3-2.08,16.78,16.78,0,0,0-5.07-.56H637.8v20.85Zm10.08-28.82h7.46q7.26,0,9.06-.61a5.41,5.41,0,0,0,2.83-2.11,6.52,6.52,0,0,0,1-3.75,6,6,0,0,0-1.34-4.07,6.16,6.16,0,0,0-3.8-2q-1.23-.16-7.36-.17H637.8Z"/><path class="cls-3" d="M677.93,876.59V826.65H693l9.06,34.07,9-34.07h15.13v49.94H716.8V837.28l-9.91,39.31h-9.71l-9.88-39.31v39.31Z"/><path class="cls-3" d="M474.53,960.31h-11L459.2,949h-20l-4.12,11.34H424.42l19.45-49.94h10.66ZM456,940.55,449.08,922l-6.75,18.53Z"/><path class="cls-3" d="M477.32,944.06l9.81-.95q.89,4.93,3.59,7.25a10.86,10.86,0,0,0,7.31,2.32q4.88,0,7.34-2.06a6.13,6.13,0,0,0,2.47-4.82,4.53,4.53,0,0,0-1-3,8.25,8.25,0,0,0-3.62-2.16q-1.79-.61-8.08-2.18-8.1-2-11.38-4.94a13.13,13.13,0,0,1-2.43-17.19,13.58,13.58,0,0,1,6.23-5.06,25.17,25.17,0,0,1,9.83-1.73q9.4,0,14.15,4.12a14.52,14.52,0,0,1,5,11l-10.08.45a8.59,8.59,0,0,0-2.77-5.54c-1.42-1.12-3.55-1.69-6.39-1.69a11.53,11.53,0,0,0-6.88,1.81,3.62,3.62,0,0,0-1.6,3.1,3.82,3.82,0,0,0,1.49,3c1.28,1.07,4.36,2.18,9.27,3.34a49.29,49.29,0,0,1,10.88,3.59,14,14,0,0,1,5.52,5.08,15.68,15.68,0,0,1-.39,16,14.27,14.27,0,0,1-6.74,5.57,28.21,28.21,0,0,1-10.87,1.82q-9.48,0-14.55-4.37T477.32,944.06Z"/><path class="cls-3" d="M523.85,944.06l9.81-.95q.89,4.93,3.6,7.25a10.82,10.82,0,0,0,7.3,2.32q4.88,0,7.35-2.06a6.16,6.16,0,0,0,2.47-4.82,4.58,4.58,0,0,0-1-3,8.35,8.35,0,0,0-3.63-2.16q-1.77-.61-8.07-2.18-8.11-2-11.38-4.94a13.12,13.12,0,0,1-2.44-17.19,13.56,13.56,0,0,1,6.24-5.06,25.08,25.08,0,0,1,9.82-1.73q9.4,0,14.16,4.12a14.55,14.55,0,0,1,5,11l-10.09.45q-.65-3.86-2.77-5.54c-1.42-1.12-3.55-1.69-6.39-1.69a11.55,11.55,0,0,0-6.88,1.81,3.62,3.62,0,0,0-1.6,3.1,3.83,3.83,0,0,0,1.5,3q1.91,1.61,9.26,3.34A49.41,49.41,0,0,1,557,932.73a14,14,0,0,1,5.52,5.08,14.91,14.91,0,0,1,2,8,14.72,14.72,0,0,1-2.39,8,14.23,14.23,0,0,1-6.74,5.57,28.21,28.21,0,0,1-10.87,1.82q-9.47,0-14.54-4.37T523.85,944.06Z"/><path class="cls-3" d="M572.94,960.31V910.37h37v8.45H583v11.07H608.1v8.41H583v13.59h27.9v8.42Z"/><path class="cls-3" d="M630.72,960.31V918.82H615.9v-8.45h39.68v8.45H640.8v41.49Z"/><path class="cls-4" d="M463.76,627.5H423.94l-15.83-41.19H335.64l-15,41.19H281.84l70.62-181.3h38.7Zm-67.4-71.73-25-67.28-24.49,67.28Z"/><path class="cls-4" d="M467.43,540.73q0-27.71,8.29-46.5a85.4,85.4,0,0,1,16.88-24.86A70.59,70.59,0,0,1,516,453.05q17-7.17,39.08-7.17,40.08,0,64.12,24.85t24.06,69.14q0,43.89-23.87,68.69t-63.81,24.8q-40.44,0-64.31-24.67T467.43,540.73Zm37.72-1.24q0,30.79,14.22,46.69t36.11,15.89q21.9,0,35.93-15.77t14-47.3q0-31.17-13.67-46.5t-36.3-15.34q-22.62,0-36.48,15.53T505.15,539.49Z"/><path class="cls-4" d="M650.74,571.92l35.62-3.47q3.21,17.94,13,26.35t26.53,8.41q17.68,0,26.65-7.49t9-17.5a16.48,16.48,0,0,0-3.77-10.94q-3.78-4.51-13.17-7.85-6.43-2.23-29.31-7.92-29.43-7.29-41.3-17.93-16.71-15-16.7-36.48a46.64,46.64,0,0,1,7.85-25.91q7.86-12.06,22.63-18.37t35.68-6.3q34.14,0,51.39,15T793,501.43L756.36,503q-2.36-14-10.08-20.09t-23.19-6.12q-15.95,0-25,6.55a13.21,13.21,0,0,0-5.81,11.25,13.92,13.92,0,0,0,5.44,11q6.93,5.82,33.64,12.12t39.51,13a50.88,50.88,0,0,1,20,18.42q7.25,11.68,7.24,28.88a53.42,53.42,0,0,1-8.66,29.19A51.84,51.84,0,0,1,765,627.51q-15.82,6.62-39.44,6.61-34.4,0-52.81-15.89T650.74,571.92Z"/><path class="cls-5" d="M474.07,146.32H463.49l-4.21-10.95H440l-4,10.95H425.71l18.77-48.2h10.29Zm-17.92-19.07-6.64-17.89L443,127.25Z"/><path class="cls-5" d="M475.06,146.32v-8.78l25.32-31.27H477.92V98.12H513.2v7.56L486.8,138.2h27.42v8.12Z"/><path class="cls-5" d="M520.3,98.12H530v26.11a54.36,54.36,0,0,0,.36,8,7.84,7.84,0,0,0,3,4.75,10.34,10.34,0,0,0,6.43,1.79c2.76,0,4.85-.56,6.25-1.69a6.67,6.67,0,0,0,2.53-4.16,53.42,53.42,0,0,0,.43-8.19V98.12h9.73v25.32A64.7,64.7,0,0,1,558,135.7a13.42,13.42,0,0,1-2.91,6.05,14.74,14.74,0,0,1-5.67,3.93,24.8,24.8,0,0,1-9.27,1.46q-6.92,0-10.47-1.59a15,15,0,0,1-5.64-4.14,13.3,13.3,0,0,1-2.73-5.35,58.14,58.14,0,0,1-1-12.23Z"/><path class="cls-5" d="M569,146.32V98.12h20.49q7.72,0,11.23,1.3a11,11,0,0,1,5.6,4.62,13.89,13.89,0,0,1,2.11,7.59,12.88,12.88,0,0,1-3.19,9q-3.19,3.54-9.54,4.46a22.32,22.32,0,0,1,5.21,4,54.74,54.74,0,0,1,5.54,7.83l5.89,9.4H600.73l-7-10.49a67.14,67.14,0,0,0-5.13-7.08,7.4,7.4,0,0,0-2.92-2,16.14,16.14,0,0,0-4.9-.54h-2v20.12Zm9.74-27.82H586c4.67,0,7.58-.19,8.74-.59a5.21,5.21,0,0,0,2.73-2,6.24,6.24,0,0,0,1-3.61,5.75,5.75,0,0,0-1.3-3.93,6,6,0,0,0-3.67-1.89c-.79-.11-3.15-.17-7.1-.17h-7.59Z"/><path class="cls-5" d="M617.63,146.32V98.12h35.74v8.15h-26V117h24.2v8.12h-24.2V138.2h26.93v8.12Z"/><path class="cls-5" d="M395.36,186.59a30.67,30.67,0,0,1,2.2-12.37,22.75,22.75,0,0,1,4.49-6.61,18.9,18.9,0,0,1,6.23-4.34,26.49,26.49,0,0,1,10.39-1.9q10.65,0,17.05,6.61t6.4,18.38q0,11.67-6.35,18.26t-17,6.59q-10.76,0-17.1-6.56T395.36,186.59Zm10-.33q0,8.19,3.78,12.41a13,13,0,0,0,19.15,0q3.74-4.19,3.73-12.57t-3.63-12.37a13.48,13.48,0,0,0-19.35.05Q405.38,177.94,405.39,186.26Z"/><path class="cls-5" d="M449.74,210.39v-48.2h20.49q7.72,0,11.23,1.3a11,11,0,0,1,5.6,4.62,13.89,13.89,0,0,1,2.11,7.59,12.88,12.88,0,0,1-3.19,9q-3.19,3.54-9.54,4.46a22.32,22.32,0,0,1,5.21,4,54.74,54.74,0,0,1,5.54,7.83l5.89,9.4H481.44l-7-10.49a67.14,67.14,0,0,0-5.13-7.08,7.4,7.4,0,0,0-2.92-2,16.14,16.14,0,0,0-4.9-.54h-2v20.12Zm9.74-27.82h7.2c4.67,0,7.58-.19,8.74-.59a5.21,5.21,0,0,0,2.73-2,6.24,6.24,0,0,0,1-3.61,5.75,5.75,0,0,0-1.3-3.93,6,6,0,0,0-3.67-1.89c-.79-.11-3.15-.17-7.1-.17h-7.59Z"/><path class="cls-5" d="M498.37,162.19h19.27a56.77,56.77,0,0,1,8.53.47,12.7,12.7,0,0,1,5,2,12.37,12.37,0,0,1,3.69,4,10.9,10.9,0,0,1,1.48,5.64,11.22,11.22,0,0,1-1.82,6.22,11.42,11.42,0,0,1-4.95,4.24,12.61,12.61,0,0,1,6.77,4.37,11.6,11.6,0,0,1,2.37,7.27,14.3,14.3,0,0,1-1.53,6.39,13,13,0,0,1-4.17,5,13.74,13.74,0,0,1-6.53,2.28q-2.43.27-11.74.33H498.37Zm9.74,8v11.15h6.38c3.79,0,6.14-.06,7.07-.17a6.39,6.39,0,0,0,3.92-1.72,5.08,5.08,0,0,0,1.43-3.77,5.29,5.29,0,0,0-1.23-3.63,5.54,5.54,0,0,0-3.67-1.69q-1.44-.16-8.31-.17Zm0,19.17v12.89h9a43.4,43.4,0,0,0,6.67-.3,6,6,0,0,0,3.54-1.92,5.91,5.91,0,0,0,1.36-4.09,6.32,6.32,0,0,0-1.05-3.69,6,6,0,0,0-3-2.2q-2-.69-8.64-.69Z"/><path class="cls-5" d="M546.68,210.39v-48.2h9.73v48.2Z"/><path class="cls-5" d="M576.53,210.39v-40h-14.3v-8.15h38.3v8.15H586.26v40Z"/><path class="cls-5" d="M645.28,210.39H634.7l-4.21-10.95H611.22l-4,10.95H596.92l18.77-48.2H626Zm-17.92-19.07-6.64-17.89-6.51,17.89Z"/><path class="cls-5" d="M650.71,210.39V162.58h9.73v39.69h24.2v8.12Z"/><path class="cls-5" d="M395.69,258.35l9.47-.92c.57,3.18,1.72,5.51,3.47,7a10.48,10.48,0,0,0,7.05,2.24q4.69,0,7.08-2a5.93,5.93,0,0,0,2.39-4.65,4.43,4.43,0,0,0-1-2.91,8,8,0,0,0-3.51-2.09c-1.14-.4-3.73-1.1-7.79-2.11q-7.83-1.93-11-4.76a12.56,12.56,0,0,1-4.44-9.7,12.41,12.41,0,0,1,2.09-6.89,13,13,0,0,1,6-4.88A24.11,24.11,0,0,1,415,225q9.08,0,13.66,4a14,14,0,0,1,4.82,10.62l-9.73.43a8.3,8.3,0,0,0-2.68-5.35c-1.37-1.08-3.43-1.63-6.17-1.63a11.12,11.12,0,0,0-6.64,1.75,3.51,3.51,0,0,0-1.55,3,3.74,3.74,0,0,0,1.45,2.93q1.85,1.54,8.94,3.22a47,47,0,0,1,10.51,3.47,13.5,13.5,0,0,1,5.33,4.9,15.18,15.18,0,0,1-.38,15.43,13.85,13.85,0,0,1-6.51,5.38,27.36,27.36,0,0,1-10.49,1.76q-9.15,0-14-4.23T395.69,258.35Z"/><path class="cls-5" d="M443.07,274v-48.2h35.74V234h-26v10.68H477v8.12H452.8v13.12h26.93V274Z"/><path class="cls-5" d="M488,274v-48.2H508.5q7.72,0,11.23,1.3a11.11,11.11,0,0,1,5.6,4.62,13.8,13.8,0,0,1,2.11,7.59,12.83,12.83,0,0,1-3.19,9c-2.13,2.36-5.3,3.85-9.54,4.46a22.94,22.94,0,0,1,5.22,4,55.57,55.57,0,0,1,5.54,7.83l5.88,9.4H519.71l-7-10.49a68.31,68.31,0,0,0-5.13-7.08,7.53,7.53,0,0,0-2.93-2,16.1,16.1,0,0,0-4.9-.54h-2V274Zm9.73-27.81H505c4.67,0,7.58-.2,8.75-.6a5.18,5.18,0,0,0,2.72-2,6.27,6.27,0,0,0,1-3.62,5.77,5.77,0,0,0-1.3-3.93,5.92,5.92,0,0,0-3.66-1.89q-1.19-.17-7.11-.16h-7.59Z"/><path class="cls-5" d="M547.69,274l-17.22-48.2H541l12.2,35.68L565,225.83h10.33L558.08,274Z"/><path class="cls-5" d="M580,274v-48.2h9.73V274Z"/><path class="cls-5" d="M629.86,256.31l9.44,3q-2.17,7.89-7.22,11.73t-12.81,3.83a20.74,20.74,0,0,1-15.78-6.56q-6.18-6.57-6.18-17.94,0-12,6.22-18.69T619.87,225q8.83,0,14.37,5.23a19.07,19.07,0,0,1,4.93,8.87l-9.64,2.31a9.94,9.94,0,0,0-10.16-8.09,11,11,0,0,0-8.69,3.84q-3.34,3.86-3.34,12.47,0,9.13,3.29,13a10.69,10.69,0,0,0,8.55,3.88,9.77,9.77,0,0,0,6.67-2.47Q628.64,261.61,629.86,256.31Z"/><path class="cls-5" d="M647.65,274v-48.2h35.74V234h-26v10.68h24.2v8.12h-24.2v13.12h26.93V274Z"/></svg>