<svg id="Layer_1" data-name="Layer 1" xmlns="http://www.w3.org/2000/svg" viewBox="0 0 1080 1080"><defs><style>.cls-1,.cls-2{fill:none;}.cls-2{stroke:#231f20;stroke-miterlimit:10;stroke-width:0.5px;}.cls-3{fill:#fdfefe;}.cls-4{fill:#fff;}</style></defs><title>correction plateform asset</title><rect class="cls-1" x="4.58" y="-1.98" width="1080" height="1080"/><rect x="281.45" y="78.21" width="526.26" height="212.63"/><rect x="281.45" y="785.21" width="526.26" height="212.63"/><polygon class="cls-2" points="807.71 785.02 281.45 785.21 281.45 290.84 807.71 290.84 807.71 785.02"/><path class="cls-3" d="M358.41,874.61V824.67h16.18c6.14,0,10.13.26,12,.75a13.07,13.07,0,0,1,7.19,4.89,15.51,15.51,0,0,1,2.9,9.73,16.33,16.33,0,0,1-1.67,7.73,13.67,13.67,0,0,1-4.24,4.92,14.44,14.44,0,0,1-5.23,2.37,57.2,57.2,0,0,1-10.46.72H368.5v18.83Zm10.09-41.49v14.17H374c4,0,6.63-.26,8-.78a6.54,6.54,0,0,0,4.29-6.34,6.48,6.48,0,0,0-1.6-4.49,7,7,0,0,0-4.06-2.22,49.42,49.42,0,0,0-7.25-.34Z"/><path class="cls-3" d="M405.22,874.61V825.08H415.3V866.2h25.07v8.41Z"/><path class="cls-3" d="M492.6,874.61h-11l-4.36-11.34h-20l-4.12,11.34H442.49l19.45-49.94H472.6ZM474,854.86l-6.88-18.54-6.75,18.54Z"/><path class="cls-3" d="M504,874.61V833.12H489.19v-8.45h39.69v8.45H514.09v41.49Z"/><path class="cls-3" d="M535.45,874.61V824.67h34.24v8.45H545.53v11.82h20.85v8.45H545.53v21.22Z"/><path class="cls-3" d="M576,850a31.64,31.64,0,0,1,2.29-12.81,23.29,23.29,0,0,1,4.65-6.84,19.3,19.3,0,0,1,6.45-4.5,27.37,27.37,0,0,1,10.77-2q11,0,17.66,6.85t6.63,19q0,12.1-6.58,18.93t-17.58,6.83q-11.13,0-17.71-6.8T576,850Zm10.39-.34q0,8.49,3.92,12.86a12.76,12.76,0,0,0,10,4.38,12.62,12.62,0,0,0,9.89-4.35q3.87-4.34,3.87-13t-3.76-12.8a13.94,13.94,0,0,0-20.05.05Q586.35,841,586.34,849.61Z"/><path class="cls-3" d="M632.3,874.61V824.67h21.22q8,0,11.63,1.35a11.45,11.45,0,0,1,5.81,4.79,14.39,14.39,0,0,1,2.18,7.87,13.34,13.34,0,0,1-3.3,9.28q-3.32,3.66-9.88,4.61a23.82,23.82,0,0,1,5.4,4.19,57.88,57.88,0,0,1,5.74,8.11l6.1,9.74H665.14l-7.29-10.86a68.57,68.57,0,0,0-5.32-7.34,7.65,7.65,0,0,0-3-2.08,16.46,16.46,0,0,0-5.07-.56h-2v20.84Zm10.08-28.82h7.46q7.26,0,9.06-.61a5.41,5.41,0,0,0,2.83-2.11,6.52,6.52,0,0,0,1-3.75,6,6,0,0,0-1.34-4.07,6.26,6.26,0,0,0-3.8-2q-1.23-.16-7.36-.17h-7.87Z"/><path class="cls-3" d="M682.51,874.61V824.67H697.6l9.06,34.07,9-34.07h15.13v49.94h-9.37V835.3l-9.91,39.31h-9.71l-9.88-39.31v39.31Z"/><path class="cls-3" d="M479.11,958.33h-11L463.78,947h-20l-4.12,11.34H429l19.45-49.94h10.66Zm-18.57-19.75L453.66,920l-6.75,18.54Z"/><path class="cls-3" d="M481.9,942.08l9.81-1q.89,4.93,3.59,7.26a10.91,10.91,0,0,0,7.31,2.31c3.25,0,5.69-.68,7.34-2.06a6.11,6.11,0,0,0,2.47-4.82,4.5,4.5,0,0,0-1-3,8.35,8.35,0,0,0-3.62-2.17c-1.19-.41-3.88-1.13-8.08-2.18q-8.1-2-11.38-4.94a13,13,0,0,1-4.6-10,12.76,12.76,0,0,1,2.17-7.13,13.52,13.52,0,0,1,6.23-5.06,24.94,24.94,0,0,1,9.83-1.74q9.4,0,14.15,4.12a14.52,14.52,0,0,1,5,11l-10.08.44a8.61,8.61,0,0,0-2.77-5.54q-2.13-1.68-6.39-1.68a11.53,11.53,0,0,0-6.88,1.8,3.65,3.65,0,0,0-1.6,3.1,3.81,3.81,0,0,0,1.49,3c1.28,1.07,4.36,2.18,9.27,3.34a48.68,48.68,0,0,1,10.88,3.6,14.09,14.09,0,0,1,5.52,5.07,15.69,15.69,0,0,1-.39,16,14.33,14.33,0,0,1-6.74,5.57,28.4,28.4,0,0,1-10.87,1.82q-9.48,0-14.55-4.38T481.9,942.08Z"/><path class="cls-3" d="M528.43,942.08l9.81-1q.88,4.93,3.6,7.26a10.87,10.87,0,0,0,7.3,2.31c3.25,0,5.7-.68,7.35-2.06a6.14,6.14,0,0,0,2.47-4.82,4.55,4.55,0,0,0-1-3,8.45,8.45,0,0,0-3.63-2.17c-1.18-.41-3.87-1.13-8.08-2.18q-8.1-2-11.37-4.94a13,13,0,0,1-4.6-10,12.83,12.83,0,0,1,2.16-7.13,13.5,13.5,0,0,1,6.24-5.06,24.89,24.89,0,0,1,9.82-1.74q9.4,0,14.16,4.12a14.56,14.56,0,0,1,5,11l-10.09.44c-.43-2.57-1.35-4.41-2.77-5.54s-3.55-1.68-6.39-1.68a11.55,11.55,0,0,0-6.88,1.8,3.65,3.65,0,0,0-1.6,3.1,3.82,3.82,0,0,0,1.5,3q1.9,1.6,9.26,3.34a48.8,48.8,0,0,1,10.89,3.6,14.09,14.09,0,0,1,5.52,5.07,14.94,14.94,0,0,1,2,8,14.72,14.72,0,0,1-2.39,8,14.28,14.28,0,0,1-6.74,5.57A28.4,28.4,0,0,1,549,959.22q-9.46,0-14.54-4.38T528.43,942.08Z"/><path class="cls-3" d="M577.52,958.33V908.39h37v8.45H587.6v11.07h25.08v8.42H587.6v13.59h27.9v8.41Z"/><path class="cls-3" d="M635.3,958.33V916.84H620.48v-8.45h39.68v8.45H645.38v41.49Z"/><path class="cls-4" d="M333.3,175.35h-8.56l-3.4-8.85H305.78l-3.22,8.85h-8.34l15.17-38.94h8.31Zm-14.48-15.41-5.37-14.45-5.25,14.45Z"/><path class="cls-4" d="M337.49,175.35V136.41H354c4.16,0,7.19.35,9.07,1.05a8.91,8.91,0,0,1,4.53,3.73,11.24,11.24,0,0,1,1.7,6.14,10.36,10.36,0,0,1-2.58,7.23q-2.56,2.87-7.7,3.6a18.55,18.55,0,0,1,4.21,3.27,44.35,44.35,0,0,1,4.48,6.32l4.75,7.6h-9.4l-5.69-8.47a54.69,54.69,0,0,0-4.14-5.73,6,6,0,0,0-2.36-1.62,13.05,13.05,0,0,0-4-.44h-1.59v16.26Zm7.87-22.47h5.81q5.65,0,7.07-.48a4.22,4.22,0,0,0,2.2-1.65,5.07,5.07,0,0,0,.8-2.92,4.65,4.65,0,0,0-1.05-3.17,4.79,4.79,0,0,0-3-1.53c-.64-.09-2.55-.13-5.74-.13h-6.13Z"/><path class="cls-4" d="M376.75,175.35V136.41h28.87V143h-21v8.63h19.55v6.56H384.61v10.6h21.76v6.56Z"/><path class="cls-4" d="M411.44,156.12a24.7,24.7,0,0,1,1.78-10,18.18,18.18,0,0,1,3.63-5.34,15.11,15.11,0,0,1,5-3.5,21.29,21.29,0,0,1,8.39-1.54q8.61,0,13.77,5.33t5.17,14.85q0,9.44-5.13,14.76T430.38,176q-8.69,0-13.81-5.3T411.44,156.12Zm8.1-.27q0,6.61,3.06,10a10.51,10.51,0,0,0,15.47,0q3-3.39,3-10.16c0-4.47-1-7.79-2.93-10a10.88,10.88,0,0,0-15.63,0Q419.54,149.13,419.54,155.85Z"/><path class="cls-4" d="M453.35,162.68l7.65-.74a9.31,9.31,0,0,0,2.81,5.65,8.41,8.41,0,0,0,5.69,1.81,8.8,8.8,0,0,0,5.73-1.61,4.78,4.78,0,0,0,1.92-3.76,3.55,3.55,0,0,0-.81-2.35,6.44,6.44,0,0,0-2.83-1.68q-1.38-.48-6.29-1.7-6.33-1.58-8.87-3.86a10.12,10.12,0,0,1-3.59-7.83,10,10,0,0,1,1.69-5.57,10.53,10.53,0,0,1,4.86-3.94,19.51,19.51,0,0,1,7.66-1.35q7.33,0,11,3.21a11.32,11.32,0,0,1,3.89,8.58l-7.86.34a6.65,6.65,0,0,0-2.17-4.31,7.88,7.88,0,0,0-5-1.32,9,9,0,0,0-5.36,1.41,2.82,2.82,0,0,0-1.25,2.42,3,3,0,0,0,1.17,2.36q1.49,1.25,7.22,2.6a38.06,38.06,0,0,1,8.49,2.81,10.88,10.88,0,0,1,4.3,4A11.59,11.59,0,0,1,485,164a11.42,11.42,0,0,1-1.86,6.26,11.2,11.2,0,0,1-5.26,4.35,22,22,0,0,1-8.48,1.42q-7.38,0-11.34-3.41T453.35,162.68Z"/><path class="cls-4" d="M500.4,175.35V143H488.84v-6.59h30.94V143H508.26v32.35Z"/><path class="cls-4" d="M555.94,175.35h-8.56L544,166.5H528.42l-3.22,8.85h-8.34L532,136.41h8.31Zm-14.48-15.41-5.37-14.45-5.26,14.45Z"/><path class="cls-4" d="M564.83,175.35V143H553.28v-6.59h30.94V143H572.7v32.35Z"/><path class="cls-4" d="M589.06,175.35V136.41h7.86v38.94Z"/><path class="cls-4" d="M602.82,156.12a24.7,24.7,0,0,1,1.78-10,18.34,18.34,0,0,1,3.62-5.34,15.22,15.22,0,0,1,5-3.5,21.37,21.37,0,0,1,8.4-1.54q8.6,0,13.77,5.33t5.17,14.85q0,9.44-5.13,14.76T621.75,176q-8.68,0-13.81-5.3T602.82,156.12Zm8.1-.27q0,6.61,3.05,10a10.51,10.51,0,0,0,15.47,0q3-3.39,3-10.16c0-4.47-1-7.79-2.94-10a9.89,9.89,0,0,0-7.79-3.29,10,10,0,0,0-7.84,3.33Q610.92,149.13,610.92,155.85Z"/><path class="cls-4" d="M646.8,175.35V136.41h7.65l15.94,26v-26h7.3v38.94H669.8L654.11,150v25.39Z"/><path class="cls-4" d="M721.12,175.35h-8.55l-3.4-8.85H693.6l-3.21,8.85h-8.34l15.17-38.94h8.31Zm-14.48-15.41-5.36-14.45L696,159.94Z"/><path class="cls-4" d="M725.32,175.35V136.41h16.55q6.24,0,9.07,1.05a8.93,8.93,0,0,1,4.52,3.73,11.16,11.16,0,0,1,1.7,6.14,10.36,10.36,0,0,1-2.57,7.23q-2.58,2.87-7.7,3.6a18.55,18.55,0,0,1,4.21,3.27,45.33,45.33,0,0,1,4.47,6.32l4.76,7.6h-9.41l-5.68-8.47a56.28,56.28,0,0,0-4.14-5.73,6.07,6.07,0,0,0-2.37-1.62,13,13,0,0,0-4-.44h-1.59v16.26Zm7.86-22.47H739q5.65,0,7.06-.48a4.24,4.24,0,0,0,2.21-1.65,5.07,5.07,0,0,0,.79-2.92,4.65,4.65,0,0,0-1-3.17,4.77,4.77,0,0,0-3-1.53c-.64-.09-2.55-.13-5.73-.13h-6.14Z"/><path class="cls-4" d="M772.78,175.35V159l-14.26-22.55h9.22l9.16,15.41,9-15.41h9.06L780.62,159v16.34Z"/><path class="cls-4" d="M461.71,213.42a24.7,24.7,0,0,1,1.78-10,18.34,18.34,0,0,1,3.62-5.34,15.14,15.14,0,0,1,5-3.51,21.47,21.47,0,0,1,8.39-1.54q8.61,0,13.77,5.34t5.17,14.85q0,9.44-5.13,14.75t-13.7,5.33q-8.68,0-13.82-5.3T461.71,213.42Zm8.1-.27q0,6.61,3.05,10a10,10,0,0,0,7.76,3.41,9.88,9.88,0,0,0,7.72-3.39q3-3.37,3-10.16t-2.93-10a10.87,10.87,0,0,0-15.64,0Q469.81,206.43,469.81,213.15Z"/><path class="cls-4" d="M505.64,232.65V193.71h16.55q6.24,0,9.07,1a8.91,8.91,0,0,1,4.53,3.73,11.23,11.23,0,0,1,1.7,6.13,10.37,10.37,0,0,1-2.58,7.24c-1.72,1.91-4.28,3.11-7.7,3.6a18.28,18.28,0,0,1,4.21,3.27,43.11,43.11,0,0,1,4.47,6.32l4.76,7.6h-9.4l-5.69-8.48a57,57,0,0,0-4.14-5.72,6,6,0,0,0-2.36-1.62,13.1,13.1,0,0,0-4-.44h-1.6v16.26Zm7.86-22.48h5.82c3.77,0,6.13-.15,7.07-.47a4.26,4.26,0,0,0,2.2-1.65,5.07,5.07,0,0,0,.8-2.92,4.69,4.69,0,0,0-1-3.18,4.83,4.83,0,0,0-3-1.52c-.64-.09-2.55-.14-5.74-.14H513.5Z"/><path class="cls-4" d="M544.93,193.71h15.56a46,46,0,0,1,6.89.38,10.12,10.12,0,0,1,4.07,1.61,9.94,9.94,0,0,1,3,3.25,8.83,8.83,0,0,1,1.2,4.56,9.09,9.09,0,0,1-1.47,5,9.19,9.19,0,0,1-4,3.42,10.27,10.27,0,0,1,5.47,3.54,9.33,9.33,0,0,1,1.91,5.87,11.58,11.58,0,0,1-1.23,5.16,10.39,10.39,0,0,1-3.38,4,11.11,11.11,0,0,1-5.27,1.85q-2,.21-9.48.27H544.93Zm7.86,6.48v9h5.15c3.06,0,5,0,5.71-.13a5.26,5.26,0,0,0,3.18-1.39,4.14,4.14,0,0,0,1.15-3,4.24,4.24,0,0,0-1-2.93,4.51,4.51,0,0,0-3-1.37q-1.17-.13-6.72-.13Zm0,15.48v10.41h7.28a36,36,0,0,0,5.39-.23,4.85,4.85,0,0,0,2.85-1.56,4.74,4.74,0,0,0,1.11-3.3,5.15,5.15,0,0,0-.85-3,4.85,4.85,0,0,0-2.46-1.78,26.77,26.77,0,0,0-7-.56Z"/><path class="cls-4" d="M583.94,232.65V193.71h7.87v38.94Z"/><path class="cls-4" d="M608.06,232.65V200.29H596.51v-6.58h30.94v6.58H615.92v32.36Z"/><path d="M464.92,578h-38l-15.1-39.28H342.7L328.43,578H291.38l67.37-172.95h36.92ZM400.63,509.6,376.8,445.42,353.44,509.6Z"/><path d="M476.36,492.61q0-26.43,7.91-44.36a81.51,81.51,0,0,1,16.1-23.71A67.28,67.28,0,0,1,522.73,409q16.15-6.84,37.28-6.84,38.22,0,61.17,23.71t22.94,65.94q0,41.88-22.77,65.54T560.48,581q-38.58,0-61.35-23.54T476.36,492.61Zm36-1.18q0,29.37,13.56,44.53t34.45,15.16q20.88,0,34.27-15T608,491q0-29.73-13-44.36T560.36,432q-21.58,0-34.8,14.81T512.35,491.43Z"/><path d="M662.52,521.75l34-3.3q3.06,17.1,12.45,25.12t25.3,8q16.88,0,25.42-7.14t8.56-16.69a15.78,15.78,0,0,0-3.6-10.45q-3.6-4.3-12.57-7.49-6.13-2.11-28-7.55-28.07-7-39.4-17.1-15.93-14.28-15.92-34.8a44.43,44.43,0,0,1,7.49-24.72q7.49-11.51,21.59-17.52t34-6q32.57,0,49,14.27t17.28,38.1L763.27,456q-2.24-13.34-9.61-19.17T731.54,431q-15.22,0-23.83,6.25A12.59,12.59,0,0,0,702.16,448a13.29,13.29,0,0,0,5.19,10.5q6.61,5.53,32.09,11.56t37.69,12.44a48.71,48.71,0,0,1,19.12,17.58q6.88,11.14,6.9,27.55a51,51,0,0,1-8.26,27.84,49.53,49.53,0,0,1-23.36,19.29q-15.1,6.3-37.63,6.31-32.8,0-50.38-15.16T662.52,521.75Z"/></svg>