<svg id="Layer_1" data-name="Layer 1" xmlns="http://www.w3.org/2000/svg" viewBox="0 0 1080 1080"><defs><style>.cls-1,.cls-2{fill:none;}.cls-2{stroke:#231f20;stroke-miterlimit:10;stroke-width:0.5px;}.cls-3{fill:#fdfefe;}.cls-4{fill:#231f20;}.cls-5{fill:#fff;}</style></defs><title>PLATFORM ASSET</title><rect class="cls-1" x="0.08" width="1080" height="1080"/><rect x="276.95" y="80.19" width="526.26" height="212.63"/><rect x="276.95" y="787.18" width="526.26" height="212.63"/><polygon class="cls-2" points="803.21 787 276.95 787.18 276.95 292.82 803.21 292.82 803.21 787"/><path class="cls-3" d="M353.91,876.59V826.65h16.18q9.21,0,12,.75a13.07,13.07,0,0,1,7.19,4.89,15.5,15.5,0,0,1,2.9,9.72,16.35,16.35,0,0,1-1.67,7.74,13.67,13.67,0,0,1-4.24,4.92A14.79,14.79,0,0,1,381,857a58.3,58.3,0,0,1-10.46.71H364v18.84ZM364,835.1v14.17h5.51c4,0,6.63-.26,8-.78a6.57,6.57,0,0,0,4.29-6.34,6.49,6.49,0,0,0-1.6-4.5,7,7,0,0,0-4.06-2.21,48,48,0,0,0-7.25-.34Z"/><path class="cls-3" d="M400.72,876.59V827.06H410.8v41.12h25.07v8.41Z"/><path class="cls-3" d="M488.1,876.59h-11l-4.36-11.34h-20l-4.12,11.34H438l19.45-49.94H468.1Zm-18.57-19.76-6.88-18.53-6.75,18.53Z"/><path class="cls-3" d="M499.51,876.59V835.1H484.69v-8.45h39.69v8.45H509.59v41.49Z"/><path class="cls-3" d="M531,876.59V826.65h34.24v8.45H541v11.82h20.85v8.45H541v21.22Z"/><path class="cls-3" d="M571.45,851.93a31.6,31.6,0,0,1,2.29-12.81,23.33,23.33,0,0,1,4.65-6.85,19.45,19.45,0,0,1,6.45-4.5,27.55,27.55,0,0,1,10.77-2q11,0,17.66,6.85t6.63,19q0,12.09-6.58,18.92t-17.58,6.83q-11.13,0-17.71-6.79T571.45,851.93Zm10.39-.34q0,8.48,3.92,12.86a12.79,12.79,0,0,0,10,4.37,12.61,12.61,0,0,0,9.89-4.34q3.87-4.35,3.87-13t-3.76-12.81a14,14,0,0,0-20.05.05Q581.85,843,581.84,851.59Z"/><path class="cls-3" d="M627.8,876.59V826.65H649q8,0,11.63,1.35a11.43,11.43,0,0,1,5.81,4.78,14.35,14.35,0,0,1,2.18,7.87,13.33,13.33,0,0,1-3.3,9.28q-3.3,3.68-9.88,4.62a23.54,23.54,0,0,1,5.4,4.19,56.66,56.66,0,0,1,5.74,8.11l6.1,9.74H660.64l-7.29-10.87a69.7,69.7,0,0,0-5.32-7.34,7.76,7.76,0,0,0-3-2.08,16.78,16.78,0,0,0-5.07-.56h-2v20.85Zm10.08-28.82h7.46q7.26,0,9.06-.61a5.41,5.41,0,0,0,2.83-2.11,6.52,6.52,0,0,0,1-3.75,6,6,0,0,0-1.34-4.07,6.16,6.16,0,0,0-3.8-2q-1.23-.16-7.36-.17h-7.87Z"/><path class="cls-3" d="M678,876.59V826.65H693.1l9.06,34.07,9-34.07h15.13v49.94h-9.37V837.28L707,876.59h-9.71l-9.88-39.31v39.31Z"/><path class="cls-3" d="M474.61,960.31h-11L459.28,949h-20l-4.12,11.34H424.5L444,910.37h10.66ZM456,940.55,449.16,922l-6.75,18.53Z"/><path class="cls-3" d="M477.4,944.06l9.81-.95q.89,4.93,3.59,7.25a10.86,10.86,0,0,0,7.31,2.32q4.88,0,7.34-2.06a6.13,6.13,0,0,0,2.47-4.82,4.53,4.53,0,0,0-1-3,8.25,8.25,0,0,0-3.62-2.16q-1.78-.61-8.08-2.18-8.1-2-11.38-4.94a13.13,13.13,0,0,1-2.43-17.19,13.58,13.58,0,0,1,6.23-5.06,25.17,25.17,0,0,1,9.83-1.73q9.4,0,14.15,4.12a14.52,14.52,0,0,1,5,11l-10.08.45a8.59,8.59,0,0,0-2.77-5.54c-1.42-1.12-3.55-1.69-6.39-1.69a11.53,11.53,0,0,0-6.88,1.81,3.62,3.62,0,0,0-1.6,3.1,3.82,3.82,0,0,0,1.49,3c1.28,1.07,4.36,2.18,9.27,3.34a49.29,49.29,0,0,1,10.88,3.59,14,14,0,0,1,5.52,5.08,15.68,15.68,0,0,1-.39,16,14.27,14.27,0,0,1-6.74,5.57A28.21,28.21,0,0,1,498,961.19q-9.48,0-14.55-4.37T477.4,944.06Z"/><path class="cls-3" d="M523.93,944.06l9.81-.95q.88,4.93,3.6,7.25a10.82,10.82,0,0,0,7.3,2.32q4.88,0,7.35-2.06a6.16,6.16,0,0,0,2.47-4.82,4.58,4.58,0,0,0-1-3,8.35,8.35,0,0,0-3.63-2.16q-1.77-.61-8.07-2.18-8.12-2-11.38-4.94a13.12,13.12,0,0,1-2.44-17.19,13.56,13.56,0,0,1,6.24-5.06,25.08,25.08,0,0,1,9.82-1.73q9.4,0,14.16,4.12a14.55,14.55,0,0,1,5,11l-10.09.45q-.64-3.86-2.77-5.54c-1.42-1.12-3.55-1.69-6.39-1.69a11.55,11.55,0,0,0-6.88,1.81,3.62,3.62,0,0,0-1.6,3.1,3.83,3.83,0,0,0,1.5,3q1.9,1.61,9.26,3.34A49.41,49.41,0,0,1,557,932.73a14,14,0,0,1,5.52,5.08,14.91,14.91,0,0,1,2,8,14.72,14.72,0,0,1-2.39,8,14.23,14.23,0,0,1-6.74,5.57,28.21,28.21,0,0,1-10.87,1.82q-9.46,0-14.54-4.37T523.93,944.06Z"/><path class="cls-3" d="M573,960.31V910.37h37v8.45H583.1v11.07h25.08v8.41H583.1v13.59H611v8.42Z"/><path class="cls-3" d="M630.8,960.31V918.82H616v-8.45h39.68v8.45H640.88v41.49Z"/><path class="cls-4" d="M281.68,435.31h83.84q24.9,0,37.13,2.08A54.45,54.45,0,0,1,424.54,446a53.81,53.81,0,0,1,16.1,17.53,47.52,47.52,0,0,1,6.44,24.53,49.72,49.72,0,0,1-29.48,45.51q19.18,5.57,29.48,19t10.3,31.62a62.4,62.4,0,0,1-6.65,27.83,56.14,56.14,0,0,1-18.17,21.61q-11.52,8.09-28.4,9.94-10.61,1.15-51.08,1.43h-71.4ZM324,470.22v48.51h27.76q24.75,0,30.76-.72,10.88-1.29,17.1-7.51t6.22-16.38q0-9.74-5.36-15.81t-15.95-7.37q-6.3-.72-36.21-.72Zm0,83.42v56.08h39.2q22.89,0,29-1.28a26.28,26.28,0,0,0,15.38-8.38q5.94-6.64,5.94-17.81,0-9.43-4.58-16a25.9,25.9,0,0,0-13.24-9.59q-8.65-3-37.55-3Z"/><path class="cls-4" d="M473,644.69V434.94h68q38.63,0,50.36,3.14,18,4.73,30.19,20.54t12.16,40.85q0,19.31-7,32.47a57.48,57.48,0,0,1-17.81,20.68,61.28,61.28,0,0,1-22,9.94q-15.18,3-43.93,3H515.34v79.12Zm42.35-174.27v59.52h23.17q25.05,0,33.49-3.29a27.85,27.85,0,0,0,13.23-10.3A28.22,28.22,0,0,0,590,500q0-11.44-6.72-18.89a29.31,29.31,0,0,0-17-9.3q-7.57-1.43-30.47-1.43Z"/><path class="cls-4" d="M650.82,644.32v-208h42.35V609H798.48v35.34Z"/><path class="cls-5" d="M297.06,122.16H317a57.33,57.33,0,0,1,8.81.49,12.52,12.52,0,0,1,9,6.21,11.33,11.33,0,0,1,1.52,5.82,11.53,11.53,0,0,1-1.88,6.42,11.66,11.66,0,0,1-5.11,4.38,13.08,13.08,0,0,1,7,4.52,12,12,0,0,1,2.45,7.5,14.84,14.84,0,0,1-1.58,6.61,13.2,13.2,0,0,1-4.31,5.12,14.22,14.22,0,0,1-6.74,2.36q-2.52.28-12.13.34H297.06Zm10.05,8.28V142h6.59q5.88,0,7.3-.17a6.67,6.67,0,0,0,4.06-1.78,5.28,5.28,0,0,0,1.47-3.89,5.44,5.44,0,0,0-1.27-3.75,5.76,5.76,0,0,0-3.79-1.75q-1.49-.17-8.59-.17Zm0,19.8v13.31h9.31a44.32,44.32,0,0,0,6.89-.31,6.24,6.24,0,0,0,3.65-2,6.14,6.14,0,0,0,1.41-4.23,6.48,6.48,0,0,0-1.09-3.81,6.09,6.09,0,0,0-3.14-2.27c-1.37-.48-4.34-.71-8.91-.71Z"/><path class="cls-5" d="M347.18,122.16h10.05v27a55.82,55.82,0,0,0,.37,8.31,8.05,8.05,0,0,0,3.08,4.91,10.64,10.64,0,0,0,6.63,1.85q4.29,0,6.46-1.75a6.89,6.89,0,0,0,2.61-4.29,56.73,56.73,0,0,0,.44-8.46V122.16h10.05V148.3a67.63,67.63,0,0,1-.81,12.67,14.06,14.06,0,0,1-3,6.24,15.2,15.2,0,0,1-5.85,4.06,25.47,25.47,0,0,1-9.58,1.51q-7.12,0-10.81-1.64a15.56,15.56,0,0,1-5.83-4.28,14,14,0,0,1-2.82-5.52,60.93,60.93,0,0,1-1-12.63Z"/><path class="cls-5" d="M394.92,155.74l9.78-1q.89,4.92,3.58,7.23a10.84,10.84,0,0,0,7.29,2.31q4.85,0,7.31-2.06a6.12,6.12,0,0,0,2.47-4.8,4.55,4.55,0,0,0-1-3,8.34,8.34,0,0,0-3.62-2.15c-1.17-.41-3.86-1.13-8-2.18q-8.08-2-11.35-4.92a13,13,0,0,1-4.58-10,12.79,12.79,0,0,1,2.16-7.11,13.43,13.43,0,0,1,6.21-5,24.83,24.83,0,0,1,9.8-1.73q9.36,0,14.11,4.1a14.54,14.54,0,0,1,5,11l-10.05.44a8.51,8.51,0,0,0-2.77-5.51c-1.41-1.12-3.54-1.68-6.36-1.68a11.53,11.53,0,0,0-6.86,1.79,3.62,3.62,0,0,0-1.6,3.09,3.85,3.85,0,0,0,1.49,3q1.9,1.59,9.24,3.32a48.59,48.59,0,0,1,10.85,3.59,14,14,0,0,1,5.5,5.06,15.65,15.65,0,0,1-.39,15.94A14.29,14.29,0,0,1,426.3,171a28.24,28.24,0,0,1-10.84,1.82q-9.43,0-14.49-4.37T394.92,155.74Z"/><path class="cls-5" d="M463.17,171.93V122.16H479.3q9.17,0,11.95.74a13,13,0,0,1,7.17,4.88,15.46,15.46,0,0,1,2.88,9.69,16.28,16.28,0,0,1-1.66,7.71,13.58,13.58,0,0,1-4.23,4.9,14.42,14.42,0,0,1-5.21,2.36,56.78,56.78,0,0,1-10.42.72h-6.56v18.77Zm10.05-41.35V144.7h5.5q5.94,0,7.95-.78a6.61,6.61,0,0,0,3.14-2.44A6.69,6.69,0,0,0,491,137.6a6.45,6.45,0,0,0-1.6-4.48,6.94,6.94,0,0,0-4-2.2,47.76,47.76,0,0,0-7.23-.34Z"/><path class="cls-5" d="M549.28,171.93H538.35L534,160.63H514.1l-4.1,11.3H499.33l19.39-49.77h10.63Zm-18.5-19.69-6.86-18.47-6.73,18.47Z"/><path class="cls-5" d="M561.3,171.93V151l-18.23-28.82h11.78l11.72,19.69L578,122.16h11.58l-18.3,28.89v20.88Z"/><path class="cls-5" d="M594.88,171.93V122.56h10v41h25v8.38Z"/><path class="cls-5" d="M635.05,147.35a31.61,31.61,0,0,1,2.28-12.77,23.32,23.32,0,0,1,4.63-6.82,19.3,19.3,0,0,1,6.44-4.48,27.21,27.21,0,0,1,10.73-2q11,0,17.6,6.82t6.61,19q0,12.06-6.56,18.86t-17.52,6.81q-11.1,0-17.65-6.77T635.05,147.35Zm10.36-.34q0,8.46,3.9,12.82a12.73,12.73,0,0,0,9.92,4.36,12.59,12.59,0,0,0,9.86-4.33q3.85-4.32,3.86-13t-3.75-12.76a13.91,13.91,0,0,0-20,0Q645.42,138.42,645.41,147Z"/><path class="cls-5" d="M736.07,171.93H725.14l-4.35-11.3h-19.9l-4.11,11.3H686.12l19.39-49.77h10.63Zm-18.5-19.69-6.86-18.47L704,152.24Z"/><path class="cls-5" d="M741.37,122.16h18.37a35.58,35.58,0,0,1,9.47,1,16.66,16.66,0,0,1,7.51,4.58,21.84,21.84,0,0,1,4.75,8.06,36.68,36.68,0,0,1,1.63,11.77,32.62,32.62,0,0,1-1.53,10.59,21.84,21.84,0,0,1-5.33,8.8,17.63,17.63,0,0,1-7.06,4,30.53,30.53,0,0,1-8.9,1.05H741.37Zm10,8.42v33h7.5a27.1,27.1,0,0,0,6.08-.48,9.37,9.37,0,0,0,4.06-2.07,10.56,10.56,0,0,0,2.63-4.8,32.45,32.45,0,0,0,1-9.12,29.68,29.68,0,0,0-1-8.86,11.49,11.49,0,0,0-2.85-4.83,9.69,9.69,0,0,0-4.65-2.34,45.58,45.58,0,0,0-8.26-.47Z"/><path class="cls-5" d="M461.69,251.7V202.33h10.05v41h25v8.39Z"/><path class="cls-5" d="M503.6,251.7V201.92h10V251.7Z"/><path class="cls-5" d="M523.32,251.7V201.92h9.78l20.38,33.24V201.92h9.33V251.7H552.73l-20.07-32.46V251.7Z"/><path class="cls-5" d="M573.58,251.7V201.92h10V224l20.3-22.11h13.52L598.7,221.31l19.77,30.39h-13l-13.68-23.36-8.15,8.32v15Z"/></svg>