<svg id="Layer_1" data-name="Layer 1" xmlns="http://www.w3.org/2000/svg" viewBox="0 0 1080 1080"><defs><style>.cls-1,.cls-2{fill:none;}.cls-2{stroke:#231f20;stroke-miterlimit:10;stroke-width:0.5px;}.cls-3{fill:#fdfefe;}.cls-4{fill:#231f20;}.cls-5{fill:#fff;}</style></defs><title>PLATFORM ASSET</title><rect class="cls-1" width="1080" height="1080"/><rect x="276.87" y="80.19" width="526.26" height="212.63"/><rect x="276.87" y="787.18" width="526.26" height="212.63"/><polygon class="cls-2" points="803.13 787 276.87 787.18 276.87 292.82 803.13 292.82 803.13 787"/><path class="cls-3" d="M353.83,876.59V826.65H370q9.21,0,12,.75a13.07,13.07,0,0,1,7.19,4.89,15.5,15.5,0,0,1,2.9,9.72,16.35,16.35,0,0,1-1.67,7.74,13.67,13.67,0,0,1-4.24,4.92A14.79,14.79,0,0,1,381,857a58.3,58.3,0,0,1-10.46.71h-6.57v18.84Zm10.09-41.49v14.17h5.51c4,0,6.63-.26,8-.78a6.57,6.57,0,0,0,4.29-6.34,6.49,6.49,0,0,0-1.6-4.5,7,7,0,0,0-4.06-2.21,48,48,0,0,0-7.25-.34Z"/><path class="cls-3" d="M400.64,876.59V827.06h10.08v41.12h25.07v8.41Z"/><path class="cls-3" d="M488,876.59h-11l-4.36-11.34h-20l-4.12,11.34H437.91l19.45-49.94H468Zm-18.57-19.76-6.88-18.53-6.75,18.53Z"/><path class="cls-3" d="M499.43,876.59V835.1H484.61v-8.45H524.3v8.45H509.51v41.49Z"/><path class="cls-3" d="M530.87,876.59V826.65h34.24v8.45H541v11.82H561.8v8.45H541v21.22Z"/><path class="cls-3" d="M571.37,851.93a31.6,31.6,0,0,1,2.29-12.81,23.33,23.33,0,0,1,4.65-6.85,19.45,19.45,0,0,1,6.45-4.5,27.55,27.55,0,0,1,10.77-2q11,0,17.66,6.85t6.63,19q0,12.09-6.58,18.92t-17.58,6.83q-11.13,0-17.71-6.79T571.37,851.93Zm10.39-.34q0,8.48,3.92,12.86a12.79,12.79,0,0,0,10,4.37,12.61,12.61,0,0,0,9.89-4.34q3.87-4.35,3.87-13t-3.76-12.81a14,14,0,0,0-20,.05Q581.77,843,581.76,851.59Z"/><path class="cls-3" d="M627.72,876.59V826.65h21.22q8,0,11.63,1.35a11.43,11.43,0,0,1,5.81,4.78,14.35,14.35,0,0,1,2.18,7.87,13.33,13.33,0,0,1-3.3,9.28q-3.3,3.68-9.88,4.62a23.54,23.54,0,0,1,5.4,4.19,56.66,56.66,0,0,1,5.74,8.11l6.1,9.74H660.56l-7.29-10.87a69.7,69.7,0,0,0-5.32-7.34,7.76,7.76,0,0,0-3-2.08,16.78,16.78,0,0,0-5.07-.56H637.8v20.85Zm10.08-28.82h7.46q7.26,0,9.06-.61a5.41,5.41,0,0,0,2.83-2.11,6.52,6.52,0,0,0,1-3.75,6,6,0,0,0-1.34-4.07,6.16,6.16,0,0,0-3.8-2q-1.23-.16-7.36-.17H637.8Z"/><path class="cls-3" d="M677.93,876.59V826.65H693l9.06,34.07,9-34.07h15.13v49.94H716.8V837.28l-9.91,39.31h-9.71l-9.88-39.31v39.31Z"/><path class="cls-3" d="M474.53,960.31h-11L459.2,949h-20l-4.12,11.34H424.42l19.45-49.94h10.66ZM456,940.55,449.08,922l-6.75,18.53Z"/><path class="cls-3" d="M477.32,944.06l9.81-.95q.89,4.93,3.59,7.25a10.86,10.86,0,0,0,7.31,2.32q4.88,0,7.34-2.06a6.13,6.13,0,0,0,2.47-4.82,4.53,4.53,0,0,0-1-3,8.25,8.25,0,0,0-3.62-2.16q-1.79-.61-8.08-2.18-8.1-2-11.38-4.94a13.13,13.13,0,0,1-2.43-17.19,13.58,13.58,0,0,1,6.23-5.06,25.17,25.17,0,0,1,9.83-1.73q9.4,0,14.15,4.12a14.52,14.52,0,0,1,5,11l-10.08.45a8.59,8.59,0,0,0-2.77-5.54c-1.42-1.12-3.55-1.69-6.39-1.69a11.53,11.53,0,0,0-6.88,1.81,3.62,3.62,0,0,0-1.6,3.1,3.82,3.82,0,0,0,1.49,3c1.28,1.07,4.36,2.18,9.27,3.34a49.29,49.29,0,0,1,10.88,3.59,14,14,0,0,1,5.52,5.08,15.68,15.68,0,0,1-.39,16,14.27,14.27,0,0,1-6.74,5.57,28.21,28.21,0,0,1-10.87,1.82q-9.48,0-14.55-4.37T477.32,944.06Z"/><path class="cls-3" d="M523.85,944.06l9.81-.95q.89,4.93,3.6,7.25a10.82,10.82,0,0,0,7.3,2.32q4.88,0,7.35-2.06a6.16,6.16,0,0,0,2.47-4.82,4.58,4.58,0,0,0-1-3,8.35,8.35,0,0,0-3.63-2.16q-1.77-.61-8.07-2.18-8.11-2-11.38-4.94a13.12,13.12,0,0,1-2.44-17.19,13.56,13.56,0,0,1,6.24-5.06,25.08,25.08,0,0,1,9.82-1.73q9.4,0,14.16,4.12a14.55,14.55,0,0,1,5,11l-10.09.45q-.65-3.86-2.77-5.54c-1.42-1.12-3.55-1.69-6.39-1.69a11.55,11.55,0,0,0-6.88,1.81,3.62,3.62,0,0,0-1.6,3.1,3.83,3.83,0,0,0,1.5,3q1.91,1.61,9.26,3.34A49.41,49.41,0,0,1,557,932.73a14,14,0,0,1,5.52,5.08,14.91,14.91,0,0,1,2,8,14.72,14.72,0,0,1-2.39,8,14.23,14.23,0,0,1-6.74,5.57,28.21,28.21,0,0,1-10.87,1.82q-9.47,0-14.54-4.37T523.85,944.06Z"/><path class="cls-3" d="M572.94,960.31V910.37h37v8.45H583v11.07H608.1v8.41H583v13.59h27.9v8.42Z"/><path class="cls-3" d="M630.72,960.31V918.82H615.9v-8.45h39.68v8.45H640.8v41.49Z"/><path class="cls-4" d="M373.6,558.41l27,8.55q-6.19,22.54-20.62,33.5t-36.6,10.94q-27.43,0-45.1-18.74T280.57,541.4q0-34.39,17.76-53.41T345,469q25.28,0,41.06,14.94,9.41,8.84,14.1,25.37l-27.53,6.57a29.19,29.19,0,0,0-10.2-16.91q-7.74-6.19-18.84-6.2-15.31,0-24.85,11t-9.54,35.61q0,26.13,9.4,37.21t24.43,11.09a27.84,27.84,0,0,0,19.07-7Q370.13,573.54,373.6,558.41Z"/><path class="cls-4" d="M424.33,471.31h50.84q17.19,0,26.21,2.63a46.16,46.16,0,0,1,20.77,12.68,60.18,60.18,0,0,1,13.15,22.32q4.51,13.2,4.51,32.56,0,17-4.23,29.31-5.16,15-14.75,24.34-7.23,7-19.54,11-9.21,2.91-24.62,2.91H424.33Zm27.82,23.3v91.23h20.76q11.65,0,16.82-1.31A25.77,25.77,0,0,0,501,578.8q4.46-4,7.28-13.3t2.82-25.23q0-16-2.82-24.52t-7.89-13.34a26.37,26.37,0,0,0-12.87-6.48q-5.84-1.32-22.84-1.32Z"/><path class="cls-4" d="M555.6,608.69V471h27.81v54.21h54.5V471h27.81V608.69H637.91V548.47h-54.5v60.22Z"/><path class="cls-4" d="M687.43,563.87l27.06-2.63q2.43,13.63,9.91,20t20.15,6.39q13.44,0,20.25-5.69t6.81-13.29a12.55,12.55,0,0,0-2.86-8.32c-1.91-2.29-5.25-4.27-10-6q-4.89-1.68-22.27-6-22.37-5.54-31.38-13.62Q692.4,523.38,692.41,507a35.4,35.4,0,0,1,6-19.69,37.37,37.37,0,0,1,17.2-13.95q11.22-4.78,27.1-4.79,25.94,0,39,11.37t13.77,30.35l-27.81,1.22q-1.78-10.62-7.66-15.27t-17.62-4.65q-12.12,0-19,5a10,10,0,0,0-4.41,8.55,10.56,10.56,0,0,0,4.13,8.36q5.26,4.43,25.56,9.21t30,9.91a38.79,38.79,0,0,1,15.22,14q5.49,8.88,5.5,21.94a40.63,40.63,0,0,1-6.58,22.18,39.44,39.44,0,0,1-18.61,15.36q-12,5-30,5-26.12,0-40.12-12.08T687.43,563.87Z"/><path class="cls-5" d="M431.11,115.31l7.15,2.27q-1.63,6-5.47,8.88a17.21,17.21,0,0,1-21.66-2.07q-4.68-5-4.68-13.59,0-9.12,4.71-14.16a16.12,16.12,0,0,1,12.38-5,15.2,15.2,0,0,1,10.89,4,14.43,14.43,0,0,1,3.73,6.73l-7.3,1.74a7.53,7.53,0,0,0-7.69-6.12,8.31,8.31,0,0,0-6.59,2.91q-2.54,2.91-2.53,9.44,0,6.93,2.49,9.87a8.09,8.09,0,0,0,6.48,2.94,7.39,7.39,0,0,0,5.05-1.87A10.8,10.8,0,0,0,431.11,115.31Z"/><path class="cls-5" d="M443.09,110.7a23.31,23.31,0,0,1,1.67-9.37,17.17,17.17,0,0,1,3.4-5A14.11,14.11,0,0,1,452.89,93a19.87,19.87,0,0,1,7.87-1.45q8.07,0,12.91,5t4.85,13.93q0,8.84-4.81,13.83t-12.85,5q-8.14,0-13-5T443.09,110.7Zm7.6-.25q0,6.21,2.87,9.41a9.85,9.85,0,0,0,14.51,0q2.82-3.18,2.83-9.53T468.14,101a10.22,10.22,0,0,0-14.66,0Q450.69,104.16,450.69,110.45Z"/><path class="cls-5" d="M484.17,128.74V92.22h11l6.63,24.91,6.55-24.91h11.06v36.52H512.6V100l-7.25,28.75h-7.1L491,100v28.75Z"/><path class="cls-5" d="M526.67,128.74V92.22h11l6.62,24.91,6.56-24.91H562v36.52H555.1V100l-7.25,28.75h-7.1L533.52,100v28.75Z"/><path class="cls-5" d="M602.2,128.74h-8l-3.19-8.3H576.4l-3,8.3h-7.82l14.22-36.52h7.8Zm-13.57-14.45-5-13.55-4.94,13.55Z"/><path class="cls-5" d="M606.19,128.74V92.22h7.17l14.95,24.38V92.22h6.85v36.52h-7.4L613,104.92v23.82Z"/><path class="cls-5" d="M642.93,92.22h13.48a26.56,26.56,0,0,1,7,.69,12.26,12.26,0,0,1,5.51,3.37,15.94,15.94,0,0,1,3.48,5.91,26.88,26.88,0,0,1,1.2,8.63,24,24,0,0,1-1.12,7.78,16.3,16.3,0,0,1-3.91,6.45,13,13,0,0,1-5.18,2.91,22.15,22.15,0,0,1-6.53.78H642.93Zm7.38,6.17v24.19h5.5a19.61,19.61,0,0,0,4.46-.35,6.75,6.75,0,0,0,3-1.52,7.67,7.67,0,0,0,1.93-3.52,23.79,23.79,0,0,0,.75-6.69,21.74,21.74,0,0,0-.75-6.5,8.48,8.48,0,0,0-2.09-3.54,7,7,0,0,0-3.42-1.72,33.56,33.56,0,0,0-6-.35Z"/><path class="cls-5" d="M447.33,179.42h-8l-3.19-8.3h-14.6l-3,8.3h-7.82l14.22-36.52h7.8ZM433.75,165l-5-13.55L423.79,165Z"/><path class="cls-5" d="M451.32,179.42V142.9h7.17l14.95,24.38V142.9h6.85v36.52h-7.4L458.17,155.6v23.82Z"/><path class="cls-5" d="M488.06,142.9h13.48a26.61,26.61,0,0,1,6.95.69A12.32,12.32,0,0,1,514,147a16,16,0,0,1,3.49,5.91,26.88,26.88,0,0,1,1.2,8.63,24,24,0,0,1-1.13,7.78,16,16,0,0,1-3.91,6.45,12.79,12.79,0,0,1-5.18,2.91,22.11,22.11,0,0,1-6.53.78H488.06Zm7.37,6.17v24.19h5.51a19.66,19.66,0,0,0,4.46-.35,6.79,6.79,0,0,0,3-1.51,7.86,7.86,0,0,0,1.93-3.53,24.22,24.22,0,0,0,.74-6.69,22.13,22.13,0,0,0-.74-6.5,8.39,8.39,0,0,0-2.1-3.54,7,7,0,0,0-3.41-1.72,33.64,33.64,0,0,0-6.05-.35Z"/><path class="cls-5" d="M539.08,142.9h13.47a26.7,26.7,0,0,1,7,.69A12.32,12.32,0,0,1,565,147a16,16,0,0,1,3.49,5.91,27.19,27.19,0,0,1,1.19,8.63,24,24,0,0,1-1.12,7.78,16,16,0,0,1-3.91,6.45,12.79,12.79,0,0,1-5.18,2.91,22.11,22.11,0,0,1-6.53.78H539.08Zm7.37,6.17v24.19H552a19.66,19.66,0,0,0,4.46-.35,6.75,6.75,0,0,0,3-1.51,7.68,7.68,0,0,0,1.93-3.53,23.79,23.79,0,0,0,.75-6.69,21.74,21.74,0,0,0-.75-6.5,8.28,8.28,0,0,0-2.09-3.54,7,7,0,0,0-3.41-1.72,33.7,33.7,0,0,0-6.06-.35Z"/><path class="cls-5" d="M608.88,179.42h-8l-3.19-8.3h-14.6l-3,8.3h-7.83l14.23-36.52h7.8ZM595.3,165l-5-13.55L585.34,165Z"/><path class="cls-5" d="M617.22,179.42V149.07H606.39V142.9h29v6.17H624.6v30.35Z"/><path class="cls-5" d="M669.31,179.42h-8l-3.19-8.3H643.51l-3,8.3h-7.82l14.22-36.52h7.8ZM655.74,165l-5-13.55L645.77,165Z"/><path class="cls-5" d="M408.79,230.1V193.58h7.38V208h14.45V193.58H438V230.1h-7.37v-16H416.17v16Z"/><path class="cls-5" d="M478.54,230.1h-8l-3.19-8.3H452.74l-3,8.3H441.9l14.22-36.52h7.8ZM465,215.65l-5-13.55L455,215.65Z"/><path class="cls-5" d="M482.53,230.1V193.58h7.17L504.65,218V193.58h6.85V230.1h-7.4l-14.72-23.82V230.1Z"/><path class="cls-5" d="M519.27,193.58h13.48a26.06,26.06,0,0,1,7,.7,12.24,12.24,0,0,1,5.51,3.36,15.94,15.94,0,0,1,3.48,5.91,27,27,0,0,1,1.2,8.64,24,24,0,0,1-1.12,7.77,16.16,16.16,0,0,1-3.91,6.45,13,13,0,0,1-5.18,2.92,22.54,22.54,0,0,1-6.53.77H519.27Zm7.38,6.18v24.18h5.5a20.36,20.36,0,0,0,4.46-.34,6.86,6.86,0,0,0,3-1.52,7.77,7.77,0,0,0,1.93-3.53,23.69,23.69,0,0,0,.75-6.69,21.74,21.74,0,0,0-.75-6.5,8.48,8.48,0,0,0-2.09-3.54A7.12,7.12,0,0,0,536,200.1a33.87,33.87,0,0,0-6-.34Z"/><path class="cls-5" d="M556.34,230.1V193.88h7.38v30.06h18.33v6.16Z"/><path class="cls-5" d="M587.08,230.1V193.58h7.38V230.1Z"/><path class="cls-5" d="M601.56,230.1V193.58h7.17L623.68,218V193.58h6.85V230.1h-7.4l-14.72-23.82V230.1Z"/><path class="cls-5" d="M655.31,216.67v-6.15h15.9v14.55a20.06,20.06,0,0,1-6.72,3.94,24.38,24.38,0,0,1-8.9,1.71,20,20,0,0,1-10-2.4,15.29,15.29,0,0,1-6.4-6.88,22.19,22.19,0,0,1-2.15-9.73,21,21,0,0,1,2.4-10.14,16.09,16.09,0,0,1,7-6.8,18.89,18.89,0,0,1,8.74-1.82q6.79,0,10.62,2.86a12.87,12.87,0,0,1,4.92,7.88l-7.32,1.37a7.78,7.78,0,0,0-2.9-4.25,8.84,8.84,0,0,0-5.32-1.55,10,10,0,0,0-7.69,3.06c-1.9,2-2.85,5.08-2.85,9.09q0,6.51,2.89,9.76a9.68,9.68,0,0,0,7.58,3.25,12.8,12.8,0,0,0,4.64-.91,15.86,15.86,0,0,0,4-2.21v-4.63Z"/><path class="cls-5" d="M437.84,268.88l7.17-.69a8.75,8.75,0,0,0,2.63,5.3,8,8,0,0,0,5.35,1.7,8.22,8.22,0,0,0,5.36-1.51,4.48,4.48,0,0,0,1.81-3.53,3.31,3.31,0,0,0-.76-2.2,6.07,6.07,0,0,0-2.65-1.58q-1.31-.45-5.91-1.6-5.93-1.47-8.32-3.61a9.6,9.6,0,0,1-1.78-12.57,10,10,0,0,1,4.56-3.7,18.39,18.39,0,0,1,7.19-1.27q6.87,0,10.35,3a10.67,10.67,0,0,1,3.65,8l-7.38.33a6.22,6.22,0,0,0-2-4,7.44,7.44,0,0,0-4.67-1.23,8.42,8.42,0,0,0-5,1.32,2.65,2.65,0,0,0-1.17,2.26,2.77,2.77,0,0,0,1.1,2.22c.92.78,3.18,1.6,6.77,2.44a36.15,36.15,0,0,1,8,2.63,10.35,10.35,0,0,1,4,3.71,11.54,11.54,0,0,1-.29,11.7,10.5,10.5,0,0,1-4.93,4.07,20.7,20.7,0,0,1-7.95,1.33q-6.93,0-10.64-3.2T437.84,268.88Z"/><path class="cls-5" d="M483.33,280.77V265.4L470,244.25h8.64l8.6,14.44,8.42-14.44h8.49l-13.42,21.2v15.32Z"/><path class="cls-5" d="M505.9,268.88l7.17-.69a8.75,8.75,0,0,0,2.63,5.3,7.94,7.94,0,0,0,5.34,1.7,8.23,8.23,0,0,0,5.37-1.51,4.48,4.48,0,0,0,1.81-3.53,3.36,3.36,0,0,0-.76-2.2,6.06,6.06,0,0,0-2.66-1.58q-1.29-.45-5.9-1.6c-3.95-1-6.73-2.18-8.32-3.61a9.51,9.51,0,0,1-3.36-7.35,9.35,9.35,0,0,1,1.58-5.22,9.87,9.87,0,0,1,4.56-3.7,18.37,18.37,0,0,1,7.18-1.27q6.88,0,10.36,3a10.63,10.63,0,0,1,3.64,8l-7.37.33a6.26,6.26,0,0,0-2-4,7.44,7.44,0,0,0-4.67-1.23,8.42,8.42,0,0,0-5,1.32,2.65,2.65,0,0,0-1.17,2.26,2.79,2.79,0,0,0,1.09,2.22c.93.78,3.19,1.6,6.78,2.44a36.15,36.15,0,0,1,8,2.63,10.25,10.25,0,0,1,4,3.71,11.51,11.51,0,0,1-.28,11.7,10.53,10.53,0,0,1-4.94,4.07,20.61,20.61,0,0,1-7.94,1.33q-6.93,0-10.64-3.2T505.9,268.88Z"/><path class="cls-5" d="M550,280.77V250.42H539.18v-6.17h29v6.17H557.39v30.35Z"/><path class="cls-5" d="M573,280.77V244.25H600v6.17H580.33v8.1h18.34v6.15H580.33v9.94h20.4v6.16Z"/><path class="cls-5" d="M606.89,280.77V244.25h11l6.63,24.91,6.55-24.91h11.06v36.52h-6.85V252l-7.25,28.75H621L613.74,252v28.75Z"/></svg>