<svg id="Layer_1" data-name="Layer 1" xmlns="http://www.w3.org/2000/svg" viewBox="0 0 1080 1080"><defs><style>.cls-1,.cls-2{fill:none;}.cls-2{stroke:#231f20;stroke-miterlimit:10;stroke-width:0.5px;}.cls-3{fill:#fdfefe;}.cls-4{fill:#231f20;}.cls-5{fill:#fff;}</style></defs><title>PLATFORM ASSET</title><rect class="cls-1" x="3.04" width="1080" height="1080"/><rect x="279.91" y="80.19" width="526.26" height="212.63"/><rect x="279.91" y="787.18" width="526.26" height="212.63"/><polygon class="cls-2" points="806.17 787 279.91 787.18 279.91 292.82 806.17 292.82 806.17 787"/><path class="cls-3" d="M356.87,876.59V826.65h16.18q9.21,0,12,.75a13.07,13.07,0,0,1,7.19,4.89,15.5,15.5,0,0,1,2.9,9.72,16.35,16.35,0,0,1-1.67,7.74,13.67,13.67,0,0,1-4.24,4.92A14.79,14.79,0,0,1,384,857a58.3,58.3,0,0,1-10.46.71H367v18.84ZM367,835.1v14.17h5.51c4,0,6.63-.26,8-.78a6.57,6.57,0,0,0,4.29-6.34,6.49,6.49,0,0,0-1.6-4.5,7,7,0,0,0-4.06-2.21,48,48,0,0,0-7.25-.34Z"/><path class="cls-3" d="M403.68,876.59V827.06h10.08v41.12h25.07v8.41Z"/><path class="cls-3" d="M491.06,876.59h-11l-4.36-11.34h-20l-4.12,11.34H441l19.45-49.94h10.66Zm-18.57-19.76-6.88-18.53-6.75,18.53Z"/><path class="cls-3" d="M502.47,876.59V835.1H487.65v-8.45h39.69v8.45H512.55v41.49Z"/><path class="cls-3" d="M533.91,876.59V826.65h34.24v8.45H544v11.82h20.85v8.45H544v21.22Z"/><path class="cls-3" d="M574.41,851.93a31.6,31.6,0,0,1,2.29-12.81,23.33,23.33,0,0,1,4.65-6.85,19.45,19.45,0,0,1,6.45-4.5,27.55,27.55,0,0,1,10.77-2q11,0,17.66,6.85t6.63,19q0,12.09-6.58,18.92t-17.58,6.83q-11.13,0-17.71-6.79T574.41,851.93Zm10.39-.34q0,8.48,3.92,12.86a12.79,12.79,0,0,0,9.95,4.37,12.61,12.61,0,0,0,9.89-4.34q3.87-4.35,3.87-13t-3.76-12.81a14,14,0,0,0-20,.05Q584.81,843,584.8,851.59Z"/><path class="cls-3" d="M630.76,876.59V826.65H652q8,0,11.63,1.35a11.43,11.43,0,0,1,5.81,4.78,14.35,14.35,0,0,1,2.18,7.87,13.33,13.33,0,0,1-3.3,9.28q-3.3,3.68-9.88,4.62a23.54,23.54,0,0,1,5.4,4.19,56.66,56.66,0,0,1,5.74,8.11l6.1,9.74H663.6l-7.29-10.87a69.7,69.7,0,0,0-5.32-7.34,7.76,7.76,0,0,0-3-2.08,16.78,16.78,0,0,0-5.07-.56h-2v20.85Zm10.08-28.82h7.46q7.26,0,9.06-.61a5.41,5.41,0,0,0,2.83-2.11,6.52,6.52,0,0,0,1-3.75,6,6,0,0,0-1.34-4.07,6.16,6.16,0,0,0-3.8-2q-1.23-.16-7.36-.17h-7.87Z"/><path class="cls-3" d="M681,876.59V826.65h15.09l9.06,34.07,9-34.07h15.13v49.94h-9.37V837.28l-9.91,39.31h-9.71l-9.88-39.31v39.31Z"/><path class="cls-3" d="M477.57,960.31h-11L462.24,949h-20l-4.12,11.34H427.46l19.45-49.94h10.66ZM459,940.55,452.12,922l-6.75,18.53Z"/><path class="cls-3" d="M480.36,944.06l9.81-.95q.88,4.93,3.59,7.25a10.86,10.86,0,0,0,7.31,2.32q4.88,0,7.34-2.06a6.13,6.13,0,0,0,2.47-4.82,4.53,4.53,0,0,0-1-3,8.25,8.25,0,0,0-3.62-2.16q-1.79-.61-8.08-2.18-8.1-2-11.38-4.94a13.13,13.13,0,0,1-2.43-17.19,13.58,13.58,0,0,1,6.23-5.06,25.17,25.17,0,0,1,9.83-1.73q9.41,0,14.15,4.12a14.52,14.52,0,0,1,5,11l-10.08.45a8.59,8.59,0,0,0-2.77-5.54c-1.42-1.12-3.55-1.69-6.39-1.69a11.53,11.53,0,0,0-6.88,1.81,3.62,3.62,0,0,0-1.6,3.1,3.82,3.82,0,0,0,1.49,3c1.28,1.07,4.36,2.18,9.27,3.34a49.29,49.29,0,0,1,10.88,3.59,14,14,0,0,1,5.52,5.08,15.68,15.68,0,0,1-.39,16,14.27,14.27,0,0,1-6.74,5.57A28.21,28.21,0,0,1,501,961.19q-9.48,0-14.55-4.37T480.36,944.06Z"/><path class="cls-3" d="M526.89,944.06l9.81-.95q.88,4.93,3.6,7.25a10.82,10.82,0,0,0,7.3,2.32q4.88,0,7.35-2.06a6.16,6.16,0,0,0,2.47-4.82,4.58,4.58,0,0,0-1-3,8.35,8.35,0,0,0-3.63-2.16q-1.77-.61-8.07-2.18-8.11-2-11.38-4.94a13.12,13.12,0,0,1-2.44-17.19,13.56,13.56,0,0,1,6.24-5.06,25.08,25.08,0,0,1,9.82-1.73q9.41,0,14.16,4.12a14.55,14.55,0,0,1,5,11l-10.09.45q-.65-3.86-2.77-5.54c-1.42-1.12-3.55-1.69-6.39-1.69a11.55,11.55,0,0,0-6.88,1.81,3.62,3.62,0,0,0-1.6,3.1,3.83,3.83,0,0,0,1.5,3q1.9,1.61,9.26,3.34A49.41,49.41,0,0,1,560,932.73a14,14,0,0,1,5.52,5.08,14.91,14.91,0,0,1,2,8,14.72,14.72,0,0,1-2.39,8,14.23,14.23,0,0,1-6.74,5.57,28.21,28.21,0,0,1-10.87,1.82q-9.46,0-14.54-4.37T526.89,944.06Z"/><path class="cls-3" d="M576,960.31V910.37h37v8.45h-27v11.07h25.08v8.41H586.06v13.59H614v8.42Z"/><path class="cls-3" d="M633.76,960.31V918.82H618.94v-8.45h39.68v8.45H643.84v41.49Z"/><path class="cls-4" d="M471.36,575.84l53,16.81Q512.18,637,483.83,658.5T411.88,680q-53.94,0-88.67-36.85T288.48,542.4q0-67.61,34.91-105T415.2,400q49.69,0,80.73,29.37,18.46,17.37,27.71,49.88l-54.13,12.93q-4.8-21.06-20-33.26t-37-12.19q-30.1,0-48.86,21.62t-18.75,70q0,51.36,18.48,73.15t48,21.8q21.8,0,37.5-13.86T471.36,575.84Z"/><path class="cls-4" d="M536,679.59V408.78h81.83L667,593.5l48.58-184.72h82V679.59H746.8V466.41L693.05,679.59H640.4L586.83,466.41V679.59Z"/><path class="cls-5" d="M317.31,159.09l7.67,2.43q-1.77,6.42-5.87,9.53a18.46,18.46,0,0,1-23.23-2.22q-5-5.34-5-14.58,0-9.76,5.05-15.18t13.28-5.41q7.19,0,11.67,4.24a15.48,15.48,0,0,1,4,7.22L317,147a8.11,8.11,0,0,0-8.25-6.58,8.93,8.93,0,0,0-7.07,3.13Q299,146.66,299,153.67q0,7.43,2.67,10.58a8.68,8.68,0,0,0,6.95,3.15,7.89,7.89,0,0,0,5.42-2A11.62,11.62,0,0,0,317.31,159.09Z"/><path class="cls-5" d="M330.16,154.15A25,25,0,0,1,332,144.1a18.57,18.57,0,0,1,3.65-5.37,15.43,15.43,0,0,1,5.06-3.53,21.58,21.58,0,0,1,8.44-1.54q8.65,0,13.86,5.37T368.15,154q0,9.48-5.15,14.84t-13.79,5.36q-8.73,0-13.89-5.33T330.16,154.15Zm8.15-.27q0,6.66,3.07,10.09A10.57,10.57,0,0,0,357,164q3-3.41,3-10.22t-3-10a10.93,10.93,0,0,0-15.73,0Q338.32,147.12,338.31,153.88Z"/><path class="cls-5" d="M374.22,173.49V134.32h11.83L393.16,161l7-26.72h11.86v39.17H404.7V142.66l-7.77,30.83h-7.62l-7.75-30.83v30.83Z"/><path class="cls-5" d="M419.8,173.49V134.32h11.83L438.74,161l7-26.72h11.87v39.17h-7.35V142.66l-7.77,30.83h-7.62l-7.75-30.83v30.83Z"/><path class="cls-5" d="M465.43,134.32h7.91v21.22a43.6,43.6,0,0,0,.29,6.54,6.33,6.33,0,0,0,2.42,3.86,8.41,8.41,0,0,0,5.22,1.46,8,8,0,0,0,5.08-1.38,5.45,5.45,0,0,0,2.06-3.38,44.43,44.43,0,0,0,.34-6.65V134.32h7.91V154.9a52.61,52.61,0,0,1-.64,10,11.1,11.1,0,0,1-2.37,4.92,11.9,11.9,0,0,1-4.6,3.19,20.15,20.15,0,0,1-7.54,1.19q-5.61,0-8.51-1.3a12.12,12.12,0,0,1-4.58-3.36,10.86,10.86,0,0,1-2.22-4.35,48,48,0,0,1-.77-9.93Z"/><path class="cls-5" d="M505.08,173.49V134.32h7.69l16,26.16V134.32h7.35v39.17h-7.94L512.42,148v25.54Z"/><path class="cls-5" d="M544.27,173.49V134.32h7.91v39.17Z"/><path class="cls-5" d="M584.77,159.09l7.67,2.43q-1.77,6.42-5.86,9.53a18.46,18.46,0,0,1-23.23-2.22q-5-5.34-5-14.58,0-9.76,5-15.18t13.28-5.41q7.19,0,11.68,4.24a15.47,15.47,0,0,1,4,7.22L584.5,147a8.09,8.09,0,0,0-8.25-6.58,8.94,8.94,0,0,0-7.07,3.13q-2.7,3.12-2.71,10.13,0,7.43,2.67,10.58a8.68,8.68,0,0,0,7,3.15,7.89,7.89,0,0,0,5.42-2A11.56,11.56,0,0,0,584.77,159.09Z"/><path class="cls-5" d="M634.55,173.49h-8.61l-3.42-8.9H606.87l-3.24,8.9h-8.39l15.26-39.17h8.36ZM620,158l-5.39-14.53L609.3,158Z"/><path class="cls-5" d="M643.5,173.49V141H631.87v-6.63H663V141H651.4v32.54Z"/><path class="cls-5" d="M667.86,173.49V134.32h7.91v39.17Z"/><path class="cls-5" d="M681.7,154.15a25,25,0,0,1,1.79-10.05,18.57,18.57,0,0,1,3.65-5.37,15.32,15.32,0,0,1,5.06-3.53,21.54,21.54,0,0,1,8.44-1.54q8.65,0,13.85,5.37t5.2,14.93q0,9.48-5.16,14.84t-13.78,5.36q-8.75,0-13.89-5.33T681.7,154.15Zm8.15-.27q0,6.66,3.07,10.09a10,10,0,0,0,7.8,3.43,9.91,9.91,0,0,0,7.76-3.41q3-3.41,3-10.22t-3-10a10.92,10.92,0,0,0-15.72,0Q689.86,147.12,689.85,153.88Z"/><path class="cls-5" d="M725.94,173.49V134.32h7.7l16,26.16V134.32H757v39.17h-7.94L733.29,148v25.54Z"/><path class="cls-5" d="M763.37,160.75l7.7-.75a9.35,9.35,0,0,0,2.82,5.69,8.51,8.51,0,0,0,5.73,1.82,8.78,8.78,0,0,0,5.75-1.62,4.79,4.79,0,0,0,1.94-3.78,3.59,3.59,0,0,0-.81-2.37,6.59,6.59,0,0,0-2.85-1.69q-1.39-.48-6.33-1.71-6.36-1.58-8.92-3.88a10.16,10.16,0,0,1-3.61-7.88,10,10,0,0,1,1.7-5.59,10.63,10.63,0,0,1,4.88-4,19.59,19.59,0,0,1,7.71-1.36q7.38,0,11.1,3.23a11.4,11.4,0,0,1,3.92,8.63l-7.91.35a6.76,6.76,0,0,0-2.18-4.35,8,8,0,0,0-5-1.32,9,9,0,0,0-5.39,1.42,2.84,2.84,0,0,0-1.26,2.43,3,3,0,0,0,1.18,2.38c1,.83,3.41,1.71,7.26,2.61a38.58,38.58,0,0,1,8.54,2.82,11.1,11.1,0,0,1,4.33,4,11.7,11.7,0,0,1,1.56,6.24,11.51,11.51,0,0,1-1.87,6.31,11.26,11.26,0,0,1-5.29,4.37,22.24,22.24,0,0,1-8.52,1.42q-7.44,0-11.41-3.43T763.37,160.75Z"/><path class="cls-5" d="M427.8,238.68V199.52h11.83l7.11,26.71,7-26.71h11.86v39.16h-7.35V207.85l-7.77,30.83h-7.62l-7.75-30.83v30.83Z"/><path class="cls-5" d="M471.88,219.34a24.91,24.91,0,0,1,1.79-10,18.31,18.31,0,0,1,3.65-5.37,15,15,0,0,1,5.06-3.53,21.54,21.54,0,0,1,8.44-1.55q8.65,0,13.85,5.37t5.2,14.93q0,9.49-5.15,14.84t-13.79,5.36q-8.74,0-13.89-5.33T471.88,219.34Zm8.15-.27q0,6.66,3.07,10.09a10,10,0,0,0,7.8,3.43,9.91,9.91,0,0,0,7.76-3.4q3-3.41,3-10.22t-3-10.05a10,10,0,0,0-7.84-3.31A10.07,10.07,0,0,0,483,209Q480,212.32,480,219.07Z"/><path class="cls-5" d="M516,199.52h14.45a28.12,28.12,0,0,1,7.45.75,13,13,0,0,1,5.91,3.6,17.22,17.22,0,0,1,3.74,6.35,29,29,0,0,1,1.28,9.25,25.77,25.77,0,0,1-1.2,8.34,17.32,17.32,0,0,1-4.19,6.92,14,14,0,0,1-5.56,3.13,24.06,24.06,0,0,1-7,.82H516Zm7.9,6.62v25.94h5.91a21.54,21.54,0,0,0,4.78-.37,7.22,7.22,0,0,0,3.19-1.63,8.15,8.15,0,0,0,2.07-3.78,25.24,25.24,0,0,0,.81-7.17,23.25,23.25,0,0,0-.81-7,8.93,8.93,0,0,0-2.24-3.79,7.49,7.49,0,0,0-3.66-1.84,35.58,35.58,0,0,0-6.49-.38Z"/><path class="cls-5" d="M555.5,199.52h7.91v21.21a43.18,43.18,0,0,0,.3,6.55,6.31,6.31,0,0,0,2.41,3.86,8.46,8.46,0,0,0,5.23,1.45,8,8,0,0,0,5.07-1.37,5.46,5.46,0,0,0,2.06-3.38,44.33,44.33,0,0,0,.35-6.66V199.52h7.91v20.57a52.38,52.38,0,0,1-.65,10,10.93,10.93,0,0,1-2.36,4.92,11.84,11.84,0,0,1-4.61,3.19,20.06,20.06,0,0,1-7.53,1.19q-5.61,0-8.51-1.29a12.24,12.24,0,0,1-4.58-3.37,10.64,10.64,0,0,1-2.22-4.34,47.32,47.32,0,0,1-.78-9.94Z"/><path class="cls-5" d="M595.28,238.68V199.84h7.91v32.24h19.67v6.6Z"/><path class="cls-5" d="M628.49,238.68V199.52h29v6.62H636.4v8.69h19.66v6.59H636.4v10.66h21.88v6.6Z"/></svg>