<svg id="Layer_1" data-name="Layer 1" xmlns="http://www.w3.org/2000/svg" viewBox="0 0 1080 1080"><defs><style>.cls-1,.cls-2{fill:none;}.cls-2{stroke:#231f20;stroke-miterlimit:10;stroke-width:0.5px;}.cls-3{fill:#fdfefe;}.cls-4{fill:#231f20;}.cls-5{fill:#fff;}</style></defs><title>PLATFORM ASSET</title><rect class="cls-1" x="12.92" width="1067.08" height="1080"/><rect x="283.03" y="80.19" width="526.26" height="212.63"/><rect x="283.03" y="787.18" width="526.26" height="212.63"/><polygon class="cls-2" points="809.29 787 283.03 787.18 283.03 292.82 809.29 292.82 809.29 787"/><path class="cls-3" d="M360,876.59V826.65h16.18q9.21,0,12,.75a13.07,13.07,0,0,1,7.19,4.89,15.5,15.5,0,0,1,2.9,9.72,16.35,16.35,0,0,1-1.67,7.74,13.67,13.67,0,0,1-4.24,4.92,14.79,14.79,0,0,1-5.23,2.37,58.3,58.3,0,0,1-10.46.71h-6.57v18.84Zm10.09-41.49v14.17h5.51c4,0,6.63-.26,8-.78a6.57,6.57,0,0,0,4.29-6.34,6.49,6.49,0,0,0-1.6-4.5,7,7,0,0,0-4.06-2.21,48,48,0,0,0-7.25-.34Z"/><path class="cls-3" d="M406.8,876.59V827.06h10.08v41.12H442v8.41Z"/><path class="cls-3" d="M494.18,876.59h-11l-4.36-11.34h-20l-4.12,11.34H444.07l19.45-49.94h10.66Zm-18.57-19.76-6.88-18.53L462,856.83Z"/><path class="cls-3" d="M505.59,876.59V835.1H490.77v-8.45h39.69v8.45H515.67v41.49Z"/><path class="cls-3" d="M537,876.59V826.65h34.24v8.45H547.11v11.82H568v8.45H547.11v21.22Z"/><path class="cls-3" d="M577.53,851.93a31.6,31.6,0,0,1,2.29-12.81,23.33,23.33,0,0,1,4.65-6.85,19.45,19.45,0,0,1,6.45-4.5,27.55,27.55,0,0,1,10.77-2q11,0,17.66,6.85t6.63,19q0,12.09-6.58,18.92t-17.58,6.83q-11.13,0-17.71-6.79T577.53,851.93Zm10.39-.34q0,8.48,3.92,12.86a12.79,12.79,0,0,0,9.95,4.37,12.61,12.61,0,0,0,9.89-4.34q3.87-4.35,3.87-13t-3.76-12.81a14,14,0,0,0-20,.05Q587.93,843,587.92,851.59Z"/><path class="cls-3" d="M633.88,876.59V826.65H655.1q8,0,11.63,1.35a11.43,11.43,0,0,1,5.81,4.78,14.35,14.35,0,0,1,2.18,7.87,13.33,13.33,0,0,1-3.3,9.28q-3.3,3.68-9.88,4.62a23.54,23.54,0,0,1,5.4,4.19,56.66,56.66,0,0,1,5.74,8.11l6.1,9.74H666.72l-7.29-10.87a69.7,69.7,0,0,0-5.32-7.34,7.76,7.76,0,0,0-3-2.08,16.78,16.78,0,0,0-5.07-.56h-2v20.85ZM644,847.77h7.46q7.26,0,9.06-.61a5.41,5.41,0,0,0,2.83-2.11,6.52,6.52,0,0,0,1-3.75,6,6,0,0,0-1.34-4.07,6.16,6.16,0,0,0-3.8-2q-1.23-.16-7.36-.17H644Z"/><path class="cls-3" d="M684.09,876.59V826.65h15.09l9.06,34.07,9-34.07h15.13v49.94H723V837.28l-9.91,39.31h-9.71l-9.88-39.31v39.31Z"/><path class="cls-3" d="M480.69,960.31h-11L465.36,949h-20l-4.12,11.34H430.58L450,910.37h10.66Zm-18.57-19.76L455.24,922l-6.75,18.53Z"/><path class="cls-3" d="M483.48,944.06l9.81-.95q.88,4.93,3.59,7.25a10.86,10.86,0,0,0,7.31,2.32q4.88,0,7.34-2.06A6.13,6.13,0,0,0,514,945.8a4.53,4.53,0,0,0-1-3,8.25,8.25,0,0,0-3.62-2.16q-1.79-.61-8.08-2.18-8.1-2-11.38-4.94a13.13,13.13,0,0,1-2.43-17.19,13.58,13.58,0,0,1,6.23-5.06,25.17,25.17,0,0,1,9.83-1.73q9.4,0,14.15,4.12a14.52,14.52,0,0,1,5,11l-10.08.45a8.59,8.59,0,0,0-2.77-5.54c-1.42-1.12-3.55-1.69-6.39-1.69a11.53,11.53,0,0,0-6.88,1.81,3.62,3.62,0,0,0-1.6,3.1,3.82,3.82,0,0,0,1.49,3c1.28,1.07,4.36,2.18,9.27,3.34a49.29,49.29,0,0,1,10.88,3.59,14,14,0,0,1,5.52,5.08,15.68,15.68,0,0,1-.39,16,14.27,14.27,0,0,1-6.74,5.57,28.21,28.21,0,0,1-10.87,1.82q-9.48,0-14.55-4.37T483.48,944.06Z"/><path class="cls-3" d="M530,944.06l9.81-.95q.88,4.93,3.6,7.25a10.82,10.82,0,0,0,7.3,2.32q4.88,0,7.35-2.06a6.16,6.16,0,0,0,2.47-4.82,4.58,4.58,0,0,0-1-3,8.35,8.35,0,0,0-3.63-2.16q-1.77-.61-8.07-2.18-8.12-2-11.38-4.94A13.12,13.12,0,0,1,534,916.31a13.56,13.56,0,0,1,6.24-5.06,25.08,25.08,0,0,1,9.82-1.73q9.4,0,14.16,4.12a14.55,14.55,0,0,1,5,11l-10.09.45q-.65-3.86-2.77-5.54c-1.42-1.12-3.55-1.69-6.39-1.69a11.55,11.55,0,0,0-6.88,1.81,3.62,3.62,0,0,0-1.6,3.1,3.83,3.83,0,0,0,1.5,3q1.9,1.61,9.26,3.34a49.41,49.41,0,0,1,10.89,3.59,14,14,0,0,1,5.52,5.08,14.91,14.91,0,0,1,2,8,14.72,14.72,0,0,1-2.39,8,14.23,14.23,0,0,1-6.74,5.57,28.21,28.21,0,0,1-10.87,1.82q-9.47,0-14.54-4.37T530,944.06Z"/><path class="cls-3" d="M579.1,960.31V910.37h37v8.45h-27v11.07h25.08v8.41H589.18v13.59h27.9v8.42Z"/><path class="cls-3" d="M636.88,960.31V918.82H622.06v-8.45h39.68v8.45H647v41.49Z"/><path class="cls-4" d="M483.65,576.6l53.71,17Q525,638.56,496.28,660.35t-72.89,21.81q-54.66,0-89.84-37.34T298.37,542.73q0-68.5,35.37-106.4t93-37.9q50.36,0,81.79,29.76,18.72,17.6,28.08,50.53l-54.84,13.1q-4.87-21.33-20.31-33.69T424,445.78q-30.51,0-49.5,21.9t-19,70.93q0,52,18.72,74.11t48.65,22.08q22.1,0,38-14T483.65,576.6Z"/><path class="cls-4" d="M570.86,587.62l53.9-5.24q4.88,27.14,19.75,39.86T684.65,635q26.77,0,40.33-11.32t13.57-26.49a25,25,0,0,0-5.71-16.56q-5.7-6.83-19.93-11.88-9.72-3.37-44.35-12-44.55-11-62.51-27.14Q580.79,507,580.78,474.39a70.48,70.48,0,0,1,11.89-39.21q11.88-18.24,34.25-27.79t54-9.55q51.66,0,77.76,22.65t27.42,60.45l-55.4,2.43q-3.56-21.14-15.25-30.41t-35.09-9.26q-24.15,0-37.81,9.92a20,20,0,0,0-8.79,17q0,9.74,8.23,16.65,10.49,8.81,50.91,18.34t59.79,19.75A77,77,0,0,1,783,553.28Q793.95,571,794,597a80.79,80.79,0,0,1-13.1,44.16q-13.1,20.6-37.06,30.6t-59.7,10q-52,0-79.91-24T570.86,587.62Z"/><path class="cls-5" d="M481.57,153.06l10.23,3.24Q489.45,164.86,484,169t-13.89,4.15a22.46,22.46,0,0,1-17.1-7.11q-6.71-7.11-6.71-19.44,0-13.05,6.74-20.27t17.72-7.21q9.58,0,15.57,5.66a20.66,20.66,0,0,1,5.35,9.63l-10.44,2.49a10.82,10.82,0,0,0-11-8.77,11.91,11.91,0,0,0-9.43,4.17q-3.61,4.17-3.61,13.51,0,9.92,3.56,14.12a11.6,11.6,0,0,0,9.27,4.21,10.58,10.58,0,0,0,7.23-2.68Q480.25,158.8,481.57,153.06Z"/><path class="cls-5" d="M500.79,120h10.55v28.3a59,59,0,0,0,.39,8.73A8.42,8.42,0,0,0,515,162.2a11.23,11.23,0,0,0,7,2c3,0,5.25-.62,6.78-1.84a7.25,7.25,0,0,0,2.74-4.51,58.76,58.76,0,0,0,.46-8.88V120h10.55v27.44q0,9.42-.85,13.3a14.64,14.64,0,0,1-3.16,6.56,16,16,0,0,1-6.14,4.26,27,27,0,0,1-10.06,1.58q-7.49,0-11.35-1.73a16,16,0,0,1-6.11-4.49,14.28,14.28,0,0,1-3-5.79,63.4,63.4,0,0,1-1-13.26Z"/><path class="cls-5" d="M553.61,120H574.5a61.17,61.17,0,0,1,9.25.51,13.69,13.69,0,0,1,5.45,2.16,13.31,13.31,0,0,1,4,4.37,11.79,11.79,0,0,1,1.61,6.11,12.36,12.36,0,0,1-7.35,11.33,13.78,13.78,0,0,1,7.35,4.75,12.57,12.57,0,0,1,2.56,7.87,15.5,15.5,0,0,1-1.66,6.94,14,14,0,0,1-4.52,5.38,15,15,0,0,1-7.08,2.48q-2.64.29-12.72.35H553.61Zm10.55,8.69V140.8h6.92q6.17,0,7.66-.18a7,7,0,0,0,4.26-1.87,5.55,5.55,0,0,0,1.55-4.08,5.74,5.74,0,0,0-1.34-3.94,6.06,6.06,0,0,0-4-1.84c-1-.12-4-.18-9-.18Zm0,20.79v14h9.77a48.23,48.23,0,0,0,7.23-.32,6.52,6.52,0,0,0,3.83-2.09,6.39,6.39,0,0,0,1.48-4.44,6.85,6.85,0,0,0-1.14-4,6.48,6.48,0,0,0-3.29-2.39q-2.16-.74-9.36-.74Z"/><path class="cls-5" d="M606.29,172.27V120H645v8.84h-28.2v11.58h26.24v8.81H616.84v14.22H646v8.8Z"/><path class="cls-5" d="M353.29,236l10.26-1q.93,5.18,3.76,7.6A11.41,11.41,0,0,0,375,245q5.1,0,7.68-2.16a6.41,6.41,0,0,0,2.58-5,4.74,4.74,0,0,0-1.08-3.15,8.68,8.68,0,0,0-3.8-2.27q-1.84-.65-8.45-2.28-8.47-2.1-11.9-5.17a13.58,13.58,0,0,1-4.81-10.51,13.44,13.44,0,0,1,2.26-7.47,14.13,14.13,0,0,1,6.52-5.29,26,26,0,0,1,10.29-1.82q9.84,0,14.81,4.31a15.25,15.25,0,0,1,5.22,11.51l-10.55.47q-.68-4-2.91-5.79t-6.68-1.77a12,12,0,0,0-7.2,1.89,3.81,3.81,0,0,0-1.68,3.24,4,4,0,0,0,1.57,3.18q2,1.67,9.7,3.49a50.89,50.89,0,0,1,11.39,3.76,14.66,14.66,0,0,1,5.77,5.31,16.43,16.43,0,0,1-.41,16.74,15,15,0,0,1-7.06,5.82,29.6,29.6,0,0,1-11.37,1.91q-9.9,0-15.22-4.58T353.29,236Z"/><path class="cls-5" d="M451.77,253H440.3l-4.57-11.87H414.85L410.53,253H399.34l20.35-52.25h11.16Zm-19.42-20.67-7.2-19.39-7.06,19.39Z"/><path class="cls-5" d="M463.71,253V209.54h-15.5V200.7h41.52v8.84H474.26V253Z"/><path class="cls-5" d="M496.54,253V200.7h38.75v8.84h-28.2v11.58h26.24v8.81H507.09v14.22h29.2V253Z"/><path class="cls-5" d="M545.52,253V201.13h10.55v43H582.3V253Z"/><path class="cls-5" d="M590.11,253V201.13h10.55v43h26.23V253Z"/><path class="cls-5" d="M634.1,253V200.7h10.55V253Z"/><path class="cls-5" d="M666.46,253V209.54H651V200.7h41.53v8.84H677V253Z"/><path class="cls-5" d="M699.29,253V200.7H738v8.84H709.84v11.58h26.23v8.81H709.84v14.22H739V253Z"/></svg>