<svg id="Layer_1" data-name="Layer 1" xmlns="http://www.w3.org/2000/svg" viewBox="0 0 1080 1080"><defs><style>.cls-1,.cls-2{fill:none;}.cls-2{stroke:#231f20;stroke-miterlimit:10;stroke-width:0.5px;}.cls-3{fill:#fdfefe;}.cls-4{fill:#231f20;}.cls-5{fill:#fff;}</style></defs><title>PLATFORM ASSET</title><rect class="cls-1" x="9.2" width="1080" height="1080"/><rect x="286.07" y="80.19" width="526.26" height="212.63"/><rect x="286.07" y="787.18" width="526.26" height="212.63"/><polygon class="cls-2" points="812.33 787 286.07 787.18 286.07 292.82 812.33 292.82 812.33 787"/><path class="cls-3" d="M363,876.59V826.65h16.18q9.21,0,12,.75a13.07,13.07,0,0,1,7.19,4.89,15.5,15.5,0,0,1,2.9,9.72,16.35,16.35,0,0,1-1.67,7.74,13.67,13.67,0,0,1-4.24,4.92,14.79,14.79,0,0,1-5.23,2.37,58.3,58.3,0,0,1-10.46.71h-6.57v18.84Zm10.09-41.49v14.17h5.51c4,0,6.63-.26,8-.78a6.57,6.57,0,0,0,4.29-6.34,6.49,6.49,0,0,0-1.6-4.5,7,7,0,0,0-4.06-2.21,48,48,0,0,0-7.25-.34Z"/><path class="cls-3" d="M409.84,876.59V827.06h10.08v41.12H445v8.41Z"/><path class="cls-3" d="M497.22,876.59h-11l-4.36-11.34h-20l-4.12,11.34H447.11l19.45-49.94h10.66Zm-18.57-19.76-6.88-18.53L465,856.83Z"/><path class="cls-3" d="M508.63,876.59V835.1H493.81v-8.45H533.5v8.45H518.71v41.49Z"/><path class="cls-3" d="M540.07,876.59V826.65h34.24v8.45H550.15v11.82H571v8.45H550.15v21.22Z"/><path class="cls-3" d="M580.57,851.93a31.6,31.6,0,0,1,2.29-12.81,23.33,23.33,0,0,1,4.65-6.85,19.45,19.45,0,0,1,6.45-4.5,27.55,27.55,0,0,1,10.77-2q11,0,17.66,6.85t6.63,19q0,12.09-6.58,18.92t-17.58,6.83q-11.13,0-17.71-6.79T580.57,851.93Zm10.39-.34q0,8.48,3.92,12.86a12.79,12.79,0,0,0,10,4.37,12.61,12.61,0,0,0,9.89-4.34q3.87-4.35,3.87-13t-3.76-12.81a14,14,0,0,0-20.05.05Q591,843,591,851.59Z"/><path class="cls-3" d="M636.92,876.59V826.65h21.22q8,0,11.63,1.35a11.43,11.43,0,0,1,5.81,4.78,14.35,14.35,0,0,1,2.18,7.87,13.33,13.33,0,0,1-3.3,9.28q-3.3,3.68-9.88,4.62a23.54,23.54,0,0,1,5.4,4.19,56.66,56.66,0,0,1,5.74,8.11l6.1,9.74H669.76l-7.29-10.87a69.7,69.7,0,0,0-5.32-7.34,7.76,7.76,0,0,0-3-2.08,16.78,16.78,0,0,0-5.07-.56h-2v20.85ZM647,847.77h7.46q7.26,0,9.06-.61a5.41,5.41,0,0,0,2.83-2.11,6.52,6.52,0,0,0,1-3.75,6,6,0,0,0-1.34-4.07,6.16,6.16,0,0,0-3.8-2q-1.23-.16-7.36-.17H647Z"/><path class="cls-3" d="M687.13,876.59V826.65h15.09l9.06,34.07,9-34.07h15.13v49.94H726V837.28l-9.91,39.31h-9.71l-9.88-39.31v39.31Z"/><path class="cls-3" d="M483.73,960.31h-11L468.4,949h-20l-4.12,11.34H433.62l19.45-49.94h10.66Zm-18.57-19.76L458.28,922l-6.75,18.53Z"/><path class="cls-3" d="M486.52,944.06l9.81-.95q.89,4.93,3.59,7.25a10.86,10.86,0,0,0,7.31,2.32q4.88,0,7.34-2.06A6.13,6.13,0,0,0,517,945.8a4.53,4.53,0,0,0-1-3,8.25,8.25,0,0,0-3.62-2.16q-1.78-.61-8.08-2.18-8.1-2-11.38-4.94a13.13,13.13,0,0,1-2.43-17.19,13.58,13.58,0,0,1,6.23-5.06,25.17,25.17,0,0,1,9.83-1.73q9.41,0,14.15,4.12a14.52,14.52,0,0,1,5,11l-10.08.45a8.59,8.59,0,0,0-2.77-5.54c-1.42-1.12-3.55-1.69-6.39-1.69a11.53,11.53,0,0,0-6.88,1.81,3.62,3.62,0,0,0-1.6,3.1,3.82,3.82,0,0,0,1.49,3c1.28,1.07,4.36,2.18,9.27,3.34a49.29,49.29,0,0,1,10.88,3.59,14,14,0,0,1,5.52,5.08,15.68,15.68,0,0,1-.39,16,14.27,14.27,0,0,1-6.74,5.57,28.21,28.21,0,0,1-10.87,1.82q-9.48,0-14.55-4.37T486.52,944.06Z"/><path class="cls-3" d="M533.05,944.06l9.81-.95q.89,4.93,3.6,7.25a10.82,10.82,0,0,0,7.3,2.32q4.88,0,7.35-2.06a6.16,6.16,0,0,0,2.47-4.82,4.58,4.58,0,0,0-1-3,8.35,8.35,0,0,0-3.63-2.16q-1.77-.61-8.07-2.18-8.12-2-11.38-4.94A13.12,13.12,0,0,1,537,916.31a13.56,13.56,0,0,1,6.24-5.06,25.08,25.08,0,0,1,9.82-1.73q9.4,0,14.16,4.12a14.55,14.55,0,0,1,5,11l-10.09.45q-.64-3.86-2.77-5.54c-1.42-1.12-3.55-1.69-6.39-1.69a11.55,11.55,0,0,0-6.88,1.81,3.62,3.62,0,0,0-1.6,3.1,3.83,3.83,0,0,0,1.5,3q1.9,1.61,9.26,3.34a49.41,49.41,0,0,1,10.89,3.59,14,14,0,0,1,5.52,5.08,14.91,14.91,0,0,1,2,8,14.72,14.72,0,0,1-2.39,8,14.23,14.23,0,0,1-6.74,5.57,28.21,28.21,0,0,1-10.87,1.82q-9.46,0-14.54-4.37T533.05,944.06Z"/><path class="cls-3" d="M582.14,960.31V910.37h37v8.45H592.22v11.07H617.3v8.41H592.22v13.59h27.9v8.42Z"/><path class="cls-3" d="M639.92,960.31V918.82H625.1v-8.45h39.68v8.45H650v41.49Z"/><path class="cls-4" d="M490.73,577.59l55.91,17.73q-12.85,46.76-42.76,69.45T428,687.46q-56.88,0-93.5-38.86T297.87,542.33q0-71.3,36.82-110.75t96.82-39.44q52.39,0,85.13,31,19.49,18.31,29.22,52.6l-57.07,13.64q-5.07-22.22-21.14-35.07t-39.06-12.86q-31.75,0-51.53,22.79t-19.77,73.84q0,54.15,19.48,77.14t50.65,23q23,0,39.54-14.61T490.73,577.59Z"/><path class="cls-4" d="M574,687.86V402.28h56.1L747,593V402.28h53.58V687.86H742.67L627.54,501.63V687.86Z"/><path class="cls-5" d="M325.88,156.44l8.28,2.62q-1.91,6.93-6.33,10.3a20,20,0,0,1-25.11-2.4q-5.43-5.76-5.43-15.75,0-10.58,5.46-16.42T317.1,129q7.77,0,12.62,4.59a16.74,16.74,0,0,1,4.33,7.79l-8.46,2a8.75,8.75,0,0,0-8.92-7.11,9.64,9.64,0,0,0-7.64,3.38q-2.94,3.38-2.93,10.94,0,8,2.89,11.44a9.36,9.36,0,0,0,7.5,3.41,8.57,8.57,0,0,0,5.86-2.17C324,161.81,325.16,159.54,325.88,156.44Z"/><path class="cls-5" d="M339.77,151.09a26.87,26.87,0,0,1,1.93-10.85,20,20,0,0,1,3.94-5.81,16.63,16.63,0,0,1,5.47-3.81,23.38,23.38,0,0,1,9.13-1.67q9.36,0,15,5.8t5.62,16.14q0,10.26-5.58,16t-14.9,5.79q-9.44,0-15-5.76T339.77,151.09Zm8.8-.28q0,7.19,3.32,10.9a10.85,10.85,0,0,0,8.43,3.71,10.73,10.73,0,0,0,8.39-3.68q3.29-3.69,3.28-11.05t-3.19-10.86a11.81,11.81,0,0,0-17,0Q348.57,143.5,348.57,150.81Z"/><path class="cls-5" d="M387.38,172V129.67h12.79l7.68,28.87,7.6-28.87h12.82V172h-7.94V138.68L411.93,172H403.7l-8.38-33.32V172Z"/><path class="cls-5" d="M436.64,172V129.67h12.8l7.68,28.87,7.59-28.87h12.82V172h-7.94V138.68L461.19,172H453l-8.38-33.32V172Z"/><path class="cls-5" d="M486,129.67h8.55V152.6a47.71,47.71,0,0,0,.32,7.07,6.81,6.81,0,0,0,2.61,4.17,9.12,9.12,0,0,0,5.65,1.58,8.61,8.61,0,0,0,5.48-1.49,5.89,5.89,0,0,0,2.23-3.65,47.9,47.9,0,0,0,.37-7.19V129.67h8.55V151.9a57.25,57.25,0,0,1-.69,10.77,12.08,12.08,0,0,1-2.56,5.32,13,13,0,0,1-5,3.45,21.83,21.83,0,0,1-8.14,1.28c-4.05,0-7.11-.46-9.2-1.4a13,13,0,0,1-4.95-3.64,11.48,11.48,0,0,1-2.4-4.69,51.17,51.17,0,0,1-.84-10.74Z"/><path class="cls-5" d="M528.81,172V129.67h8.32l17.32,28.27V129.67h7.95V172h-8.58l-17.07-27.6V172Z"/><path class="cls-5" d="M571.17,172V129.67h8.55V172Z"/><path class="cls-5" d="M615,156.44l8.29,2.62q-1.9,6.93-6.34,10.3a20,20,0,0,1-25.11-2.4q-5.43-5.76-5.43-15.75,0-10.58,5.46-16.42T606.17,129q7.77,0,12.62,4.59a16.74,16.74,0,0,1,4.33,7.79l-8.46,2a8.75,8.75,0,0,0-8.92-7.11,9.64,9.64,0,0,0-7.64,3.38q-2.93,3.38-2.93,10.94,0,8,2.89,11.44a9.36,9.36,0,0,0,7.5,3.41,8.6,8.6,0,0,0,5.87-2.17C613.06,161.81,614.24,159.54,615,156.44Z"/><path class="cls-5" d="M668.74,172h-9.29l-3.7-9.62H638.83L635.34,172h-9.07l16.49-42.33h9ZM653,155.25l-5.84-15.71-5.71,15.71Z"/><path class="cls-5" d="M678.42,172V136.83H665.86v-7.16H699.5v7.16H687V172Z"/><path class="cls-5" d="M704.75,172V129.67h8.55V172Z"/><path class="cls-5" d="M719.71,151.09a26.87,26.87,0,0,1,1.93-10.85,20.07,20.07,0,0,1,4-5.81,16.42,16.42,0,0,1,5.47-3.81,23.33,23.33,0,0,1,9.12-1.67q9.36,0,15,5.8t5.62,16.14q0,10.26-5.57,16t-14.9,5.79q-9.45,0-15-5.76T719.71,151.09Zm8.81-.28q0,7.19,3.32,10.9a11.42,11.42,0,0,0,16.82,0q3.27-3.69,3.27-11.05t-3.19-10.86a11.81,11.81,0,0,0-17,0Q728.51,143.5,728.52,150.81Z"/><path class="cls-5" d="M767.53,172V129.67h8.31l17.33,28.27V129.67h7.94V172h-8.58l-17.06-27.6V172Z"/><path class="cls-5" d="M380.37,243.31V201h8.31L406,229.25V201H414v42.33h-8.58L388.31,215.7v27.61Z"/><path class="cls-5" d="M423,243.31V201h31.38v7.16H431.53v9.38h21.25v7.14H431.53v11.52h23.65v7.13Z"/><path class="cls-5" d="M472,243.31V208.14H459.4V201H493v7.16H480.51v35.17Z"/><path class="cls-5" d="M504.56,243.31,494.45,201h8.75l6.38,29.07L517.32,201h10.17l7.42,29.57L541.4,201H550l-10.28,42.33h-9.07l-8.43-31.65-8.4,31.65Z"/><path class="cls-5" d="M552.64,222.4a26.87,26.87,0,0,1,1.93-10.85,20,20,0,0,1,3.94-5.81,16.63,16.63,0,0,1,5.47-3.81,23.2,23.2,0,0,1,9.13-1.67q9.36,0,15,5.8t5.62,16.14q0,10.26-5.58,16T573.22,244q-9.44,0-15-5.76T552.64,222.4Zm8.8-.29q0,7.2,3.32,10.91a10.85,10.85,0,0,0,8.43,3.71,10.71,10.71,0,0,0,8.39-3.69q3.28-3.67,3.28-11t-3.19-10.86a11.81,11.81,0,0,0-17,.05Q561.44,214.81,561.44,222.11Z"/><path class="cls-5" d="M600.4,243.31V201h18q6.78,0,9.86,1.14a9.69,9.69,0,0,1,4.92,4.06,12.17,12.17,0,0,1,1.85,6.66,11.33,11.33,0,0,1-2.8,7.87q-2.81,3.1-8.38,3.92a19.63,19.63,0,0,1,4.58,3.55,48.6,48.6,0,0,1,4.86,6.87l5.17,8.26H628.23l-6.18-9.21a58.34,58.34,0,0,0-4.5-6.22,6.62,6.62,0,0,0-2.57-1.77,14.4,14.4,0,0,0-4.3-.47h-1.74v17.67Zm8.54-24.43h6.33q6.15,0,7.68-.52a4.56,4.56,0,0,0,2.39-1.79,5.51,5.51,0,0,0,.87-3.18,5.09,5.09,0,0,0-1.14-3.45,5.25,5.25,0,0,0-3.22-1.66q-1-.14-6.24-.14h-6.67Z"/><path class="cls-5" d="M643.19,243.31V201h8.55v18.8L669,201h11.5l-15.94,16.49,16.8,25.84H670.3l-11.63-19.87-6.93,7.08v12.79Z"/><path class="cls-5" d="M683.62,229.53l8.31-.8a10.15,10.15,0,0,0,3.05,6.15,9.19,9.19,0,0,0,6.19,2c2.75,0,4.83-.58,6.22-1.75a5.17,5.17,0,0,0,2.1-4.08,3.92,3.92,0,0,0-.88-2.56,7.12,7.12,0,0,0-3.08-1.83c-1-.35-3.28-1-6.84-1.85q-6.87-1.71-9.65-4.19a11,11,0,0,1-3.89-8.51,10.87,10.87,0,0,1,1.83-6,11.43,11.43,0,0,1,5.28-4.29,21.22,21.22,0,0,1,8.33-1.47q8,0,12,3.49a12.31,12.31,0,0,1,4.23,9.33l-8.55.37a7.24,7.24,0,0,0-2.35-4.69,8.63,8.63,0,0,0-5.41-1.43,9.79,9.79,0,0,0-5.84,1.53,3.1,3.1,0,0,0-1.35,2.63,3.24,3.24,0,0,0,1.27,2.57c1.08.9,3.69,1.85,7.85,2.83a41.86,41.86,0,0,1,9.23,3,12,12,0,0,1,4.68,4.31A12.62,12.62,0,0,1,718,231a12.42,12.42,0,0,1-2,6.81,12,12,0,0,1-5.71,4.72,24,24,0,0,1-9.21,1.55q-8,0-12.33-3.71T683.62,229.53Z"/></svg>