<svg id="Layer_1" data-name="Layer 1" xmlns="http://www.w3.org/2000/svg" viewBox="0 0 1080 1080"><defs><style>.cls-1,.cls-2{fill:none;}.cls-2{stroke:#231f20;stroke-miterlimit:10;stroke-width:0.5px;}.cls-3{fill:#fdfefe;}.cls-4{fill:#231f20;}.cls-5{fill:#fff;}</style></defs><title>PLATFORM ASSET</title><rect class="cls-1" x="5.12" width="1080" height="1080"/><rect x="281.99" y="80.19" width="526.26" height="212.63"/><rect x="281.99" y="787.18" width="526.26" height="212.63"/><polygon class="cls-2" points="808.25 787 281.99 787.18 281.99 292.82 808.25 292.82 808.25 787"/><path class="cls-3" d="M359,876.59V826.65h16.18q9.21,0,12,.75a13.07,13.07,0,0,1,7.19,4.89,15.5,15.5,0,0,1,2.9,9.72,16.35,16.35,0,0,1-1.67,7.74,13.67,13.67,0,0,1-4.24,4.92,14.79,14.79,0,0,1-5.23,2.37,58.3,58.3,0,0,1-10.46.71H369v18.84ZM369,835.1v14.17h5.51c4,0,6.63-.26,8-.78a6.57,6.57,0,0,0,4.29-6.34,6.49,6.49,0,0,0-1.6-4.5,7,7,0,0,0-4.06-2.21,48,48,0,0,0-7.25-.34Z"/><path class="cls-3" d="M405.76,876.59V827.06h10.08v41.12h25.07v8.41Z"/><path class="cls-3" d="M493.14,876.59h-11l-4.36-11.34h-20l-4.12,11.34H443l19.45-49.94h10.66Zm-18.57-19.76-6.88-18.53-6.75,18.53Z"/><path class="cls-3" d="M504.55,876.59V835.1H489.73v-8.45h39.69v8.45H514.63v41.49Z"/><path class="cls-3" d="M536,876.59V826.65h34.24v8.45H546.07v11.82h20.85v8.45H546.07v21.22Z"/><path class="cls-3" d="M576.49,851.93a31.6,31.6,0,0,1,2.29-12.81,23.33,23.33,0,0,1,4.65-6.85,19.45,19.45,0,0,1,6.45-4.5,27.55,27.55,0,0,1,10.77-2q11,0,17.66,6.85t6.63,19q0,12.09-6.58,18.92t-17.58,6.83q-11.13,0-17.71-6.79T576.49,851.93Zm10.39-.34q0,8.48,3.92,12.86a12.79,12.79,0,0,0,10,4.37,12.61,12.61,0,0,0,9.89-4.34q3.87-4.35,3.87-13t-3.76-12.81a14,14,0,0,0-20,.05Q586.89,843,586.88,851.59Z"/><path class="cls-3" d="M632.84,876.59V826.65h21.22q8,0,11.63,1.35a11.43,11.43,0,0,1,5.81,4.78,14.35,14.35,0,0,1,2.18,7.87,13.33,13.33,0,0,1-3.3,9.28q-3.3,3.68-9.88,4.62a23.54,23.54,0,0,1,5.4,4.19,56.66,56.66,0,0,1,5.74,8.11l6.1,9.74H665.68l-7.29-10.87a69.7,69.7,0,0,0-5.32-7.34,7.76,7.76,0,0,0-3-2.08,16.78,16.78,0,0,0-5.07-.56h-2.05v20.85Zm10.08-28.82h7.46q7.26,0,9.06-.61a5.41,5.41,0,0,0,2.83-2.11,6.52,6.52,0,0,0,1-3.75,6,6,0,0,0-1.34-4.07,6.16,6.16,0,0,0-3.8-2q-1.23-.16-7.36-.17h-7.87Z"/><path class="cls-3" d="M683.05,876.59V826.65h15.09l9.06,34.07,9-34.07h15.13v49.94h-9.37V837.28L712,876.59H702.3l-9.88-39.31v39.31Z"/><path class="cls-3" d="M479.65,960.31h-11L464.32,949h-20l-4.12,11.34H429.54L449,910.37h10.66Zm-18.57-19.76L454.2,922l-6.75,18.53Z"/><path class="cls-3" d="M482.44,944.06l9.81-.95q.88,4.93,3.59,7.25a10.86,10.86,0,0,0,7.31,2.32q4.88,0,7.34-2.06A6.13,6.13,0,0,0,513,945.8a4.53,4.53,0,0,0-1-3,8.25,8.25,0,0,0-3.62-2.16q-1.79-.61-8.08-2.18-8.1-2-11.38-4.94a13.13,13.13,0,0,1-2.43-17.19,13.58,13.58,0,0,1,6.23-5.06,25.17,25.17,0,0,1,9.83-1.73q9.4,0,14.15,4.12a14.52,14.52,0,0,1,5,11l-10.08.45a8.59,8.59,0,0,0-2.77-5.54c-1.42-1.12-3.55-1.69-6.39-1.69a11.53,11.53,0,0,0-6.88,1.81,3.62,3.62,0,0,0-1.6,3.1,3.82,3.82,0,0,0,1.49,3c1.28,1.07,4.36,2.18,9.27,3.34a49.29,49.29,0,0,1,10.88,3.59,14,14,0,0,1,5.52,5.08,15.68,15.68,0,0,1-.39,16,14.27,14.27,0,0,1-6.74,5.57,28.21,28.21,0,0,1-10.87,1.82q-9.48,0-14.55-4.37T482.44,944.06Z"/><path class="cls-3" d="M529,944.06l9.81-.95q.88,4.93,3.6,7.25a10.82,10.82,0,0,0,7.3,2.32q4.88,0,7.35-2.06a6.16,6.16,0,0,0,2.47-4.82,4.58,4.58,0,0,0-1-3,8.35,8.35,0,0,0-3.63-2.16q-1.77-.61-8.07-2.18-8.12-2-11.38-4.94a13.12,13.12,0,0,1-2.44-17.19,13.56,13.56,0,0,1,6.24-5.06,25.08,25.08,0,0,1,9.82-1.73q9.4,0,14.16,4.12a14.55,14.55,0,0,1,5,11l-10.09.45q-.64-3.86-2.77-5.54c-1.42-1.12-3.55-1.69-6.39-1.69a11.55,11.55,0,0,0-6.88,1.81,3.62,3.62,0,0,0-1.6,3.1,3.83,3.83,0,0,0,1.5,3q1.91,1.61,9.26,3.34a49.41,49.41,0,0,1,10.89,3.59,14,14,0,0,1,5.52,5.08,14.91,14.91,0,0,1,2,8,14.72,14.72,0,0,1-2.39,8,14.23,14.23,0,0,1-6.74,5.57,28.21,28.21,0,0,1-10.87,1.82q-9.47,0-14.54-4.37T529,944.06Z"/><path class="cls-3" d="M578.06,960.31V910.37h37v8.45h-27v11.07h25.08v8.41H588.14v13.59H616v8.42Z"/><path class="cls-3" d="M635.84,960.31V918.82H621v-8.45H660.7v8.45H645.92v41.49Z"/><path class="cls-4" d="M284.4,651.77V436.49H444v36.42H327.87v47.73H436v36.27H327.87V615.5H448.14v36.27Z"/><path class="cls-4" d="M464.12,651.39V436.1h69.75q39.66,0,51.7,3.23,18.49,4.85,31,21.08T629,502.33q0,19.83-7.19,33.34a59,59,0,0,1-18.29,21.22A62.86,62.86,0,0,1,581,567.09q-15.56,3.09-45.08,3.09H507.59v81.21Zm43.47-178.87v61.09h23.79q25.7,0,34.36-3.38a28.51,28.51,0,0,0,13.59-10.57,28.9,28.9,0,0,0,4.91-16.74q0-11.75-6.9-19.38A30,30,0,0,0,559.87,474q-7.79-1.47-31.28-1.47Z"/><path class="cls-4" d="M630.79,577.13l42.3-4.11q3.81,21.3,15.49,31.28t31.5,10q21,0,31.65-8.89t10.64-20.78a19.56,19.56,0,0,0-4.48-13q-4.47-5.37-15.64-9.33-7.63-2.64-34.8-9.4-35-8.65-49.05-21.29-19.81-17.76-19.82-43.32a55.43,55.43,0,0,1,9.32-30.77q9.33-14.31,26.88-21.8t42.36-7.49q40.53,0,61,17.77t21.51,47.43l-43.47,1.91q-2.79-16.59-12-23.86t-27.53-7.27q-18.94,0-29.66,7.78a15.66,15.66,0,0,0-6.9,13.36q0,7.63,6.46,13.07,8.22,6.9,39.94,14.39t46.92,15.49a60.5,60.5,0,0,1,23.79,21.89q8.58,13.88,8.59,34.29a63.42,63.42,0,0,1-10.28,34.65q-10.27,16.15-29.08,24T719.64,651q-40.83,0-62.71-18.87T630.79,577.13Z"/><path class="cls-5" d="M317.73,143.65V91.39h38.74v8.84H328.28v11.58h26.23v8.81H328.28v14.22h29.19v8.81Z"/><path class="cls-5" d="M366.7,143.65V91.82h10.55v43h26.24v8.81Z"/><path class="cls-5" d="M411,143.65V91.39h38.74v8.84H421.56v11.58h26.23v8.81H421.56v14.22h29.19v8.81Z"/><path class="cls-5" d="M493.13,124.43l10.23,3.25q-2.36,8.55-7.82,12.7t-13.88,4.16a22.47,22.47,0,0,1-17.11-7.11q-6.71-7.12-6.71-19.45,0-13,6.74-20.26T482.3,90.5q9.58,0,15.57,5.67a20.58,20.58,0,0,1,5.35,9.62l-10.44,2.5a10.79,10.79,0,0,0-11-8.77,11.91,11.91,0,0,0-9.43,4.17q-3.61,4.17-3.61,13.51,0,9.9,3.56,14.11a11.57,11.57,0,0,0,9.27,4.21,10.53,10.53,0,0,0,7.23-2.68Q491.81,130.17,493.13,124.43Z"/><path class="cls-5" d="M524.18,143.65V100.23H508.67V91.39H550.2v8.84H534.73v43.42Z"/><path class="cls-5" d="M557,143.65V91.39h22.21q8.37,0,12.17,1.41a12,12,0,0,1,6.08,5,15,15,0,0,1,2.28,8.23,13.91,13.91,0,0,1-3.46,9.71q-3.45,3.84-10.33,4.83a24.8,24.8,0,0,1,5.65,4.39,60.16,60.16,0,0,1,6,8.48l6.38,10.2H591.4l-7.62-11.38a75.89,75.89,0,0,0-5.56-7.68,8.15,8.15,0,0,0-3.18-2.17,17.38,17.38,0,0,0-5.31-.59h-2.14v21.82Zm10.55-30.16h7.81q7.59,0,9.48-.64a5.71,5.71,0,0,0,3-2.21,6.83,6.83,0,0,0,1.07-3.92,6.26,6.26,0,0,0-1.41-4.26,6.44,6.44,0,0,0-4-2q-1.29-.18-7.7-.18h-8.24Z"/><path class="cls-5" d="M609.41,143.65V91.39H620v52.26Z"/><path class="cls-5" d="M663.44,124.43l10.23,3.25q-2.35,8.55-7.82,12.7T652,144.54a22.5,22.5,0,0,1-17.11-7.11q-6.69-7.12-6.7-19.45,0-13,6.74-20.26t17.72-7.22q9.58,0,15.57,5.67a20.58,20.58,0,0,1,5.35,9.62l-10.45,2.5a10.77,10.77,0,0,0-11-8.77,11.9,11.9,0,0,0-9.43,4.17Q639,107.86,639,117.2q0,9.9,3.56,14.11a11.56,11.56,0,0,0,9.27,4.21,10.53,10.53,0,0,0,7.23-2.68Q662.12,130.17,663.44,124.43Z"/><path class="cls-5" d="M729.85,143.65H718.37l-4.56-11.87H692.92l-4.31,11.87h-11.2l20.36-52.26h11.15ZM710.42,123l-7.2-19.39L696.16,123Z"/><path class="cls-5" d="M735.73,143.65V91.82h10.55v43h26.23v8.81Z"/><path class="cls-5" d="M410.08,212.62V160.37H427q9.63,0,12.55.78a13.73,13.73,0,0,1,7.52,5.12,16.19,16.19,0,0,1,3,10.17,17,17,0,0,1-1.75,8.09,14.21,14.21,0,0,1-4.43,5.15,15.22,15.22,0,0,1-5.48,2.48,60.06,60.06,0,0,1-10.94.75h-6.88v19.71Zm10.55-43.41V184h5.78q6.22,0,8.34-.83a6.86,6.86,0,0,0,3.29-2.56,7,7,0,0,0,1.2-4.06,6.74,6.74,0,0,0-1.68-4.71,7.26,7.26,0,0,0-4.24-2.32,52.12,52.12,0,0,0-7.59-.35Z"/><path class="cls-5" d="M456.63,186.82A33.31,33.31,0,0,1,459,173.41a24.49,24.49,0,0,1,4.87-7.16,20.31,20.31,0,0,1,6.75-4.71,28.85,28.85,0,0,1,11.26-2.06q11.55,0,18.49,7.16t6.93,19.93q0,12.65-6.88,19.8t-18.39,7.14q-11.66,0-18.54-7.11T456.63,186.82Zm10.87-.36q0,8.88,4.1,13.46A13.39,13.39,0,0,0,482,204.5,13.25,13.25,0,0,0,492.37,200q4-4.55,4-13.63t-3.94-13.41a14.58,14.58,0,0,0-21,.06Q467.5,177.44,467.5,186.46Z"/><path class="cls-5" d="M523,212.62l-12.48-52.25h10.8l7.88,35.89,9.55-35.89h12.55l9.16,36.5,8-36.5h10.62l-12.69,52.25H555.19l-10.41-39.06-10.37,39.06Z"/><path class="cls-5" d="M584.45,212.62V160.37H623.2v8.84H595v11.58h26.24v8.81H595v14.22h29.2v8.8Z"/><path class="cls-5" d="M633.18,212.62V160.37h22.21q8.37,0,12.17,1.41a12,12,0,0,1,6.08,5,15.08,15.08,0,0,1,2.28,8.24,13.91,13.91,0,0,1-3.46,9.71c-2.31,2.56-5.75,4.16-10.34,4.83a24.56,24.56,0,0,1,5.65,4.38,59.44,59.44,0,0,1,6,8.49l6.38,10.19H667.54l-7.63-11.37a74.27,74.27,0,0,0-5.56-7.68,8,8,0,0,0-3.17-2.17,17.15,17.15,0,0,0-5.31-.59h-2.14v21.81Zm10.55-30.15h7.81c5.06,0,8.22-.22,9.48-.64a5.75,5.75,0,0,0,3-2.21,6.86,6.86,0,0,0,1.07-3.93,6.29,6.29,0,0,0-1.41-4.26,6.51,6.51,0,0,0-4-2.05q-1.27-.16-7.7-.17h-8.23Z"/><path class="cls-5" d="M398.94,264.58l10.27-1c.61,3.45,1.87,6,3.76,7.59a11.35,11.35,0,0,0,7.64,2.43q5.1,0,7.69-2.16a6.42,6.42,0,0,0,2.58-5,4.74,4.74,0,0,0-1.09-3.16A8.63,8.63,0,0,0,426,261q-1.86-.64-8.45-2.28-8.49-2.11-11.91-5.17a13.72,13.72,0,0,1-2.55-18,14.18,14.18,0,0,1,6.53-5.3,26.15,26.15,0,0,1,10.28-1.82q9.84,0,14.81,4.32a15.17,15.17,0,0,1,5.22,11.51l-10.55.46q-.67-4-2.9-5.79t-6.69-1.76a12.07,12.07,0,0,0-7.2,1.89,3.82,3.82,0,0,0-1.67,3.24,4,4,0,0,0,1.57,3.17q2,1.68,9.69,3.5a50.89,50.89,0,0,1,11.39,3.76,14.68,14.68,0,0,1,5.78,5.31,15.61,15.61,0,0,1,2.08,8.32,15.33,15.33,0,0,1-2.5,8.41,14.89,14.89,0,0,1-7.05,5.83,29.6,29.6,0,0,1-11.37,1.91q-9.92,0-15.22-4.58T398.94,264.58Z"/><path class="cls-5" d="M464,281.58v-22l-19.14-30.26h12.37L469.55,250l12.05-20.67h12.16l-19.22,30.33v21.92Z"/><path class="cls-5" d="M496.32,264.58l10.27-1q.93,5.18,3.76,7.59A11.35,11.35,0,0,0,518,273.6q5.1,0,7.69-2.16a6.42,6.42,0,0,0,2.58-5,4.74,4.74,0,0,0-1.09-3.16,8.63,8.63,0,0,0-3.79-2.26q-1.86-.64-8.45-2.28c-5.66-1.41-9.62-3.13-11.91-5.17A13.63,13.63,0,0,1,498.21,243a13.46,13.46,0,0,1,2.26-7.46,14.18,14.18,0,0,1,6.53-5.3,26.18,26.18,0,0,1,10.28-1.82q9.84,0,14.81,4.32a15.17,15.17,0,0,1,5.22,11.51l-10.55.46q-.68-4-2.9-5.79t-6.68-1.76a12.09,12.09,0,0,0-7.21,1.89,3.82,3.82,0,0,0-1.67,3.24,4,4,0,0,0,1.57,3.17q2,1.68,9.69,3.5A50.71,50.71,0,0,1,531,252.73a14.62,14.62,0,0,1,5.78,5.31,16.47,16.47,0,0,1-.41,16.73,15,15,0,0,1-7.06,5.83,29.6,29.6,0,0,1-11.37,1.91q-9.92,0-15.22-4.58T496.32,264.58Z"/><path class="cls-5" d="M559.45,281.58V238.17H543.94v-8.84h41.53v8.84H570v43.41Z"/><path class="cls-5" d="M592.28,281.58V229.33H631v8.84H602.83v11.58h26.23v8.8H602.83v14.23H632v8.8Z"/><path class="cls-5" d="M640.83,281.58V229.33h15.79L666.1,265l9.37-35.64H691.3v52.25h-9.8V240.45l-10.38,41.13H661l-10.34-41.13v41.13Z"/></svg>