<svg id="Layer_1" data-name="Layer 1" xmlns="http://www.w3.org/2000/svg" viewBox="0 0 1080 1080"><defs><style>.cls-1,.cls-2{fill:none;}.cls-2{stroke:#231f20;stroke-miterlimit:10;stroke-width:0.5px;}.cls-3{fill:#fdfefe;}.cls-4{fill:#fff;}</style></defs><title>correction plateform asset</title><rect class="cls-1" x="4.99" width="1080" height="1080"/><rect x="281.86" y="80.19" width="526.26" height="212.63"/><rect x="281.77" y="786.21" width="526.26" height="212.63"/><polygon class="cls-2" points="808.12 787 281.86 787.18 281.86 292.82 808.12 292.82 808.12 787"/><path class="cls-3" d="M358.73,875.61V825.67h16.18c6.13,0,10.13.26,12,.75a13.11,13.11,0,0,1,7.19,4.89A15.51,15.51,0,0,1,397,841a16.33,16.33,0,0,1-1.67,7.73,13.77,13.77,0,0,1-4.24,4.92,14.44,14.44,0,0,1-5.23,2.37,57.28,57.28,0,0,1-10.46.72h-6.58v18.83Zm10.08-41.49v14.17h5.52c4,0,6.63-.26,8-.78a6.54,6.54,0,0,0,4.3-6.34,6.48,6.48,0,0,0-1.6-4.49,7,7,0,0,0-4.06-2.22,49.42,49.42,0,0,0-7.25-.34Z"/><path class="cls-3" d="M405.54,875.61V826.08h10.08V867.2h25.07v8.41Z"/><path class="cls-3" d="M492.91,875.61H482l-4.36-11.34h-20l-4.12,11.34H442.8l19.46-49.94h10.66Zm-18.56-19.75-6.88-18.54-6.75,18.54Z"/><path class="cls-3" d="M504.33,875.61V834.12H489.51v-8.45h39.68v8.45H514.41v41.49Z"/><path class="cls-3" d="M535.77,875.61V825.67H570v8.45H545.85v11.82H566.7v8.45H545.85v21.22Z"/><path class="cls-3" d="M576.27,851a31.64,31.64,0,0,1,2.29-12.81,23.29,23.29,0,0,1,4.65-6.84,19.3,19.3,0,0,1,6.45-4.5,27.37,27.37,0,0,1,10.77-2q11,0,17.66,6.85t6.62,19q0,12.1-6.57,18.93t-17.58,6.83q-11.13,0-17.71-6.8T576.27,851Zm10.39-.34q0,8.49,3.92,12.86a12.76,12.76,0,0,0,9.95,4.38,12.62,12.62,0,0,0,9.89-4.35q3.87-4.34,3.87-13t-3.76-12.8a13.94,13.94,0,0,0-20,.05Q586.66,842,586.66,850.61Z"/><path class="cls-3" d="M632.62,875.61V825.67h21.22q8,0,11.63,1.35a11.45,11.45,0,0,1,5.81,4.79,14.39,14.39,0,0,1,2.18,7.87,13.34,13.34,0,0,1-3.3,9.28q-3.31,3.66-9.88,4.61a23.82,23.82,0,0,1,5.4,4.19,57.88,57.88,0,0,1,5.74,8.11l6.1,9.74H665.46l-7.29-10.86a68.57,68.57,0,0,0-5.32-7.34,7.65,7.65,0,0,0-3-2.08,16.49,16.49,0,0,0-5.08-.56h-2v20.84Zm10.08-28.82h7.46q7.26,0,9.06-.61a5.41,5.41,0,0,0,2.83-2.11,6.52,6.52,0,0,0,1-3.75,6,6,0,0,0-1.34-4.07,6.26,6.26,0,0,0-3.8-2q-1.23-.16-7.36-.17H642.7Z"/><path class="cls-3" d="M682.83,875.61V825.67h15.09L707,859.74l9-34.07h15.13v49.94H721.7V836.3l-9.91,39.31h-9.71L692.2,836.3v39.31Z"/><path class="cls-3" d="M479.43,959.33h-11L464.1,948h-20L440,959.33h-10.7l19.46-49.94h10.66Zm-18.57-19.75L454,921l-6.75,18.54Z"/><path class="cls-3" d="M482.22,943.08l9.81-1q.89,4.93,3.59,7.26a10.9,10.9,0,0,0,7.31,2.31c3.25,0,5.69-.68,7.34-2.06a6.11,6.11,0,0,0,2.47-4.82,4.55,4.55,0,0,0-1-3,8.33,8.33,0,0,0-3.63-2.17c-1.18-.41-3.87-1.13-8.07-2.18q-8.12-2-11.38-4.94a13,13,0,0,1-4.6-10,12.76,12.76,0,0,1,2.17-7.13,13.52,13.52,0,0,1,6.23-5.06,24.94,24.94,0,0,1,9.83-1.74q9.4,0,14.15,4.12a14.56,14.56,0,0,1,5,11l-10.08.44a8.57,8.57,0,0,0-2.78-5.54q-2.13-1.68-6.38-1.68a11.53,11.53,0,0,0-6.88,1.8,3.66,3.66,0,0,0-1.61,3.1,3.82,3.82,0,0,0,1.5,3q1.9,1.6,9.27,3.34a48.86,48.86,0,0,1,10.88,3.6,14.09,14.09,0,0,1,5.52,5.07,15.75,15.75,0,0,1-.39,16,14.31,14.31,0,0,1-6.75,5.57,28.31,28.31,0,0,1-10.86,1.82q-9.48,0-14.55-4.38T482.22,943.08Z"/><path class="cls-3" d="M528.75,943.08l9.81-1q.88,4.93,3.6,7.26a10.87,10.87,0,0,0,7.3,2.31c3.25,0,5.7-.68,7.34-2.06a6.11,6.11,0,0,0,2.47-4.82,4.54,4.54,0,0,0-1-3,8.45,8.45,0,0,0-3.63-2.17c-1.18-.41-3.88-1.13-8.08-2.18q-8.1-2-11.37-4.94a13,13,0,0,1-4.6-10,12.83,12.83,0,0,1,2.16-7.13,13.52,13.52,0,0,1,6.23-5.06,25,25,0,0,1,9.83-1.74q9.4,0,14.16,4.12a14.59,14.59,0,0,1,5,11l-10.09.44c-.43-2.57-1.35-4.41-2.77-5.54s-3.55-1.68-6.39-1.68a11.55,11.55,0,0,0-6.88,1.8,3.65,3.65,0,0,0-1.6,3.1,3.82,3.82,0,0,0,1.5,3q1.9,1.6,9.26,3.34a48.8,48.8,0,0,1,10.89,3.6,14,14,0,0,1,5.51,5.07,15.69,15.69,0,0,1-.39,16,14.33,14.33,0,0,1-6.74,5.57,28.4,28.4,0,0,1-10.87,1.82q-9.47,0-14.54-4.38T528.75,943.08Z"/><path class="cls-3" d="M577.84,959.33V909.39h37v8.45h-27v11.07H613v8.42H587.92v13.59h27.9v8.41Z"/><path class="cls-3" d="M635.61,959.33V917.84H620.8v-8.45h39.68v8.45H645.7v41.49Z"/><path class="cls-4" d="M308.93,159.89v-7.33h18.91v17.32a23.63,23.63,0,0,1-8,4.7,29,29,0,0,1-10.6,2,23.78,23.78,0,0,1-11.89-2.86,18.19,18.19,0,0,1-7.62-8.18A26.46,26.46,0,0,1,287.19,154,25,25,0,0,1,290,141.92a19.18,19.18,0,0,1,8.33-8.1,22.54,22.54,0,0,1,10.41-2.16q8.1,0,12.65,3.39a15.38,15.38,0,0,1,5.85,9.39l-8.72,1.63a9.23,9.23,0,0,0-3.45-5.06,10.48,10.48,0,0,0-6.33-1.85,11.89,11.89,0,0,0-9.15,3.65q-3.39,3.65-3.39,10.82,0,7.74,3.44,11.61a11.47,11.47,0,0,0,9,3.87,15.14,15.14,0,0,0,5.53-1.08A18.92,18.92,0,0,0,319,165.4v-5.51Z"/><path class="cls-4" d="M335.94,175.87V132.4h32.23v7.35H344.72v9.64h21.82v7.33H344.72v11.83H369v7.32Z"/><path class="cls-4" d="M374.67,154.4a27.78,27.78,0,0,1,2-11.15,20.56,20.56,0,0,1,4.05-6,16.87,16.87,0,0,1,5.62-3.91,23.8,23.8,0,0,1,9.37-1.72q9.6,0,15.37,6t5.77,16.58q0,10.52-5.72,16.47t-15.3,5.94q-9.71,0-15.42-5.91T374.67,154.4Zm9-.29q0,7.38,3.41,11.19a11.72,11.72,0,0,0,17.27,0q3.38-3.78,3.37-11.34t-3.28-11.15a12.14,12.14,0,0,0-17.45,0Q383.72,146.6,383.71,154.11Z"/><path class="cls-4" d="M421.46,161.73l8.54-.83a10.34,10.34,0,0,0,3.13,6.31,9.42,9.42,0,0,0,6.36,2q4.23,0,6.39-1.79a5.36,5.36,0,0,0,2.15-4.2,3.91,3.91,0,0,0-.91-2.62,7.16,7.16,0,0,0-3.16-1.89c-1-.35-3.37-1-7-1.9q-7.06-1.74-9.91-4.3a11.41,11.41,0,0,1-2.12-14.95,11.84,11.84,0,0,1,5.43-4.41,21.69,21.69,0,0,1,8.55-1.51q8.19,0,12.33,3.59a12.68,12.68,0,0,1,4.34,9.57l-8.78.39a7.43,7.43,0,0,0-2.42-4.82,8.8,8.8,0,0,0-5.55-1.47,10,10,0,0,0-6,1.58,3.16,3.16,0,0,0-1.4,2.69,3.34,3.34,0,0,0,1.31,2.64q1.65,1.39,8.06,2.91a42.65,42.65,0,0,1,9.48,3.13,12.27,12.27,0,0,1,4.8,4.42,13.71,13.71,0,0,1-.34,13.92,12.51,12.51,0,0,1-5.87,4.85,24.8,24.8,0,0,1-9.46,1.58q-8.25,0-12.66-3.81T421.46,161.73Z"/><path class="cls-4" d="M474,175.87V139.75h-12.9V132.4h34.55v7.35H482.75v36.12Z"/><path class="cls-4" d="M536,175.87h-9.55l-3.8-9.87H505.26l-3.59,9.87h-9.31l16.93-43.47h9.28Zm-16.16-17.2-6-16.13L508,158.67Z"/><path class="cls-4" d="M545.91,175.87V139.75H533V132.4h34.55v7.35H554.69v36.12Z"/><path class="cls-4" d="M573,175.87V132.4h8.78v43.47Z"/><path class="cls-4" d="M588.31,154.4a27.77,27.77,0,0,1,2-11.15,20.56,20.56,0,0,1,4.05-6,16.87,16.87,0,0,1,5.62-3.91,23.8,23.8,0,0,1,9.37-1.72q9.6,0,15.37,6t5.77,16.58q0,10.52-5.72,16.47t-15.3,5.94q-9.71,0-15.42-5.91T588.31,154.4Zm9.05-.29q0,7.38,3.41,11.19a11.72,11.72,0,0,0,17.27,0q3.36-3.78,3.37-11.34t-3.28-11.15a12.14,12.14,0,0,0-17.45,0Q597.35,146.6,597.36,154.11Z"/><path class="cls-4" d="M637.42,175.87V132.4H646l17.79,29v-29h8.16v43.47H663.1l-17.53-28.35v28.35Z"/><path class="cls-4" d="M720.39,175.87h-9.55L707,166H689.67l-3.59,9.87h-9.31L693.7,132.4H703Zm-16.16-17.2-6-16.13-5.88,16.13Z"/><path class="cls-4" d="M725.07,175.87V132.4h18.47q7,0,10.13,1.17a10,10,0,0,1,5.06,4.17,12.57,12.57,0,0,1,1.89,6.85,11.6,11.6,0,0,1-2.87,8.08q-2.88,3.18-8.6,4a20.44,20.44,0,0,1,4.7,3.64,50.77,50.77,0,0,1,5,7.06l5.3,8.48H753.66l-6.35-9.46a61.19,61.19,0,0,0-4.62-6.39,6.92,6.92,0,0,0-2.64-1.81,14.71,14.71,0,0,0-4.42-.49h-1.78v18.15Zm8.78-25.08h6.49q6.31,0,7.89-.54a4.68,4.68,0,0,0,2.46-1.84,5.67,5.67,0,0,0,.89-3.26,5.21,5.21,0,0,0-1.17-3.54,5.38,5.38,0,0,0-3.31-1.71q-1.07-.15-6.4-.15h-6.85Z"/><path class="cls-4" d="M778.06,175.87V157.58L762.14,132.4h10.29l10.23,17.2,10-17.2h10.11l-16,25.23v18.24Z"/><path class="cls-4" d="M452.48,219.14a27.71,27.71,0,0,1,2-11.15,20.43,20.43,0,0,1,4.05-6,16.9,16.9,0,0,1,5.62-3.92,24,24,0,0,1,9.37-1.72q9.6,0,15.37,6t5.77,16.58q0,10.53-5.72,16.47t-15.3,5.95q-9.71,0-15.42-5.92T452.48,219.14Zm9-.3q0,7.38,3.41,11.2a11.11,11.11,0,0,0,8.66,3.81,11,11,0,0,0,8.61-3.79q3.38-3.78,3.37-11.34t-3.28-11.15a12.15,12.15,0,0,0-17.45.05Q461.53,211.34,461.52,218.84Z"/><path class="cls-4" d="M501.52,240.61V197.14H520q7,0,10.13,1.17a10,10,0,0,1,5.06,4.16,12.57,12.57,0,0,1,1.89,6.85,11.57,11.57,0,0,1-2.87,8.08q-2.88,3.19-8.6,4a20.46,20.46,0,0,1,4.7,3.65,50.15,50.15,0,0,1,5,7.06l5.3,8.48H530.11l-6.35-9.46a61.19,61.19,0,0,0-4.62-6.39A6.81,6.81,0,0,0,516.5,223a14.39,14.39,0,0,0-4.42-.49H510.3v18.15Zm8.78-25.09h6.49q6.32,0,7.89-.53a4.73,4.73,0,0,0,2.46-1.84,5.69,5.69,0,0,0,.89-3.26,5.22,5.22,0,0,0-1.17-3.55,5.37,5.37,0,0,0-3.31-1.7q-1.06-.15-6.4-.15H510.3Z"/><path class="cls-4" d="M545.38,197.14h17.37a49.84,49.84,0,0,1,7.7.43,10.92,10.92,0,0,1,7.87,5.42,9.85,9.85,0,0,1,1.34,5.09,10.11,10.11,0,0,1-1.65,5.6,10.26,10.26,0,0,1-4.46,3.83,11.45,11.45,0,0,1,6.11,3.94,10.48,10.48,0,0,1,2.13,6.55,12.92,12.92,0,0,1-1.38,5.77,11.64,11.64,0,0,1-3.76,4.48,12.5,12.5,0,0,1-5.89,2.06q-2.19.24-10.59.3H545.38Zm8.77,7.23v10h5.76q5.13,0,6.37-.14a5.84,5.84,0,0,0,3.55-1.56,4.59,4.59,0,0,0,1.29-3.4,4.72,4.72,0,0,0-1.12-3.27,5,5,0,0,0-3.3-1.53q-1.31-.15-7.5-.15Zm0,17.29v11.62h8.13a41.28,41.28,0,0,0,6-.26,5.48,5.48,0,0,0,3.19-1.74,5.34,5.34,0,0,0,1.23-3.69,5.68,5.68,0,0,0-1-3.32,5.4,5.4,0,0,0-2.74-2q-1.8-.61-7.79-.62Z"/><path class="cls-4" d="M588.94,240.61V197.14h8.77v43.47Z"/><path class="cls-4" d="M615.86,240.61V204.49H603v-7.35h34.55v7.35H624.64v36.12Z"/><path d="M352.81,558.05V535h59.52v54.48q-8.68,8.4-25.14,14.79a91.56,91.56,0,0,1-33.36,6.39q-21.45,0-37.41-9a57.23,57.23,0,0,1-24-25.75,83.22,83.22,0,0,1-8-36.43q0-21.36,9-38a60.35,60.35,0,0,1,26.21-25.47q13.16-6.81,32.75-6.81,25.47,0,39.79,10.68t18.43,29.53l-27.43,5.13a29,29,0,0,0-10.87-15.91q-8-5.84-19.92-5.83-18.1,0-28.78,11.48t-10.68,34.05q0,24.35,10.82,36.52t28.36,12.18a47.6,47.6,0,0,0,17.4-3.41,59.56,59.56,0,0,0,15-8.26V558.05Z"/><path d="M430.8,563.84l26.87-2.62q2.43,13.53,9.84,19.88t20,6.34q13.35,0,20.11-5.64t6.76-13.21a12.47,12.47,0,0,0-2.84-8.25q-2.85-3.4-9.94-5.93-4.86-1.68-22.11-6-22.2-5.51-31.16-13.52-12.6-11.29-12.6-27.53a35.15,35.15,0,0,1,5.93-19.54A37.12,37.12,0,0,1,458.74,474q11.14-4.75,26.92-4.75,25.74,0,38.76,11.29t13.67,30.13l-27.62,1.21q-1.77-10.55-7.6-15.16t-17.49-4.62q-12,0-18.85,5a10,10,0,0,0-4.38,8.49,10.49,10.49,0,0,0,4.1,8.3q5.22,4.39,25.38,9.14t29.8,9.85a38.41,38.41,0,0,1,15.12,13.9Q542,555.54,542,568.5a40.3,40.3,0,0,1-6.53,22A39.15,39.15,0,0,1,517,605.77q-11.94,5-29.76,5-25.94,0-39.83-12T430.8,563.84Z"/><path d="M596,608.34V494.71H555.44V471.57H664.13v23.14H623.64V608.34Z"/><path d="M672.9,540.79q0-20.89,6.25-35.08A64.49,64.49,0,0,1,691.88,487a53.31,53.31,0,0,1,17.68-12.31q12.78-5.41,29.48-5.41,30.23,0,48.38,18.75t18.14,52.15q0,33.12-18,51.83t-48.13,18.7q-30.51,0-48.52-18.61T672.9,540.79Zm28.45-.93q0,23.24,10.73,35.22t27.24,12q16.51,0,27.1-11.9T777,539.49q0-23.52-10.31-35.08t-27.38-11.57q-17.07,0-27.52,11.71T701.35,539.86Z"/></svg>