<svg id="Layer_1" data-name="Layer 1" xmlns="http://www.w3.org/2000/svg" viewBox="0 0 1080 1080"><defs><style>.cls-1,.cls-2{fill:none;}.cls-2{stroke:#231f20;stroke-miterlimit:10;stroke-width:0.5px;}.cls-3{fill:#fdfefe;}.cls-4{fill:#fff;}.cls-5{fill:#231f20;}</style></defs><title>PLATFORM ASSET</title><rect class="cls-1" x="9.2" width="1080" height="1080"/><rect x="286.07" y="80.19" width="526.26" height="212.63"/><rect x="286.07" y="787.18" width="526.26" height="212.63"/><polygon class="cls-2" points="812.33 787 286.07 787.18 286.07 292.82 812.33 292.82 812.33 787"/><path class="cls-3" d="M363,876.59V826.65h16.18q9.21,0,12,.75a13.07,13.07,0,0,1,7.19,4.89,15.5,15.5,0,0,1,2.9,9.72,16.35,16.35,0,0,1-1.67,7.74,13.67,13.67,0,0,1-4.24,4.92,14.79,14.79,0,0,1-5.23,2.37,58.3,58.3,0,0,1-10.46.71h-6.57v18.84Zm10.09-41.49v14.17h5.51c4,0,6.63-.26,8-.78a6.57,6.57,0,0,0,4.29-6.34,6.49,6.49,0,0,0-1.6-4.5,7,7,0,0,0-4.06-2.21,48,48,0,0,0-7.25-.34Z"/><path class="cls-3" d="M409.84,876.59V827.06h10.08v41.12H445v8.41Z"/><path class="cls-3" d="M497.22,876.59h-11l-4.36-11.34h-20l-4.12,11.34H447.11l19.45-49.94h10.66Zm-18.57-19.76-6.88-18.53L465,856.83Z"/><path class="cls-3" d="M508.63,876.59V835.1H493.81v-8.45H533.5v8.45H518.71v41.49Z"/><path class="cls-3" d="M540.07,876.59V826.65h34.24v8.45H550.15v11.82H571v8.45H550.15v21.22Z"/><path class="cls-3" d="M580.57,851.93a31.6,31.6,0,0,1,2.29-12.81,23.33,23.33,0,0,1,4.65-6.85,19.45,19.45,0,0,1,6.45-4.5,27.55,27.55,0,0,1,10.77-2q11,0,17.66,6.85t6.63,19q0,12.09-6.58,18.92t-17.58,6.83q-11.13,0-17.71-6.79T580.57,851.93Zm10.39-.34q0,8.48,3.92,12.86a12.79,12.79,0,0,0,10,4.37,12.61,12.61,0,0,0,9.89-4.34q3.87-4.35,3.87-13t-3.76-12.81a14,14,0,0,0-20.05.05Q591,843,591,851.59Z"/><path class="cls-3" d="M636.92,876.59V826.65h21.22q8,0,11.63,1.35a11.43,11.43,0,0,1,5.81,4.78,14.35,14.35,0,0,1,2.18,7.87,13.33,13.33,0,0,1-3.3,9.28q-3.3,3.68-9.88,4.62a23.54,23.54,0,0,1,5.4,4.19,56.66,56.66,0,0,1,5.74,8.11l6.1,9.74H669.76l-7.29-10.87a69.7,69.7,0,0,0-5.32-7.34,7.76,7.76,0,0,0-3-2.08,16.78,16.78,0,0,0-5.07-.56h-2v20.85ZM647,847.77h7.46q7.26,0,9.06-.61a5.41,5.41,0,0,0,2.83-2.11,6.52,6.52,0,0,0,1-3.75,6,6,0,0,0-1.34-4.07,6.16,6.16,0,0,0-3.8-2q-1.23-.16-7.36-.17H647Z"/><path class="cls-3" d="M687.13,876.59V826.65h15.09l9.06,34.07,9-34.07h15.13v49.94H726V837.28l-9.91,39.31h-9.71l-9.88-39.31v39.31Z"/><path class="cls-3" d="M483.73,960.31h-11L468.4,949h-20l-4.12,11.34H433.62l19.45-49.94h10.66Zm-18.57-19.76L458.28,922l-6.75,18.53Z"/><path class="cls-3" d="M486.52,944.06l9.81-.95q.89,4.93,3.59,7.25a10.86,10.86,0,0,0,7.31,2.32q4.88,0,7.34-2.06A6.13,6.13,0,0,0,517,945.8a4.53,4.53,0,0,0-1-3,8.25,8.25,0,0,0-3.62-2.16q-1.78-.61-8.08-2.18-8.1-2-11.38-4.94a13.13,13.13,0,0,1-2.43-17.19,13.58,13.58,0,0,1,6.23-5.06,25.17,25.17,0,0,1,9.83-1.73q9.41,0,14.15,4.12a14.52,14.52,0,0,1,5,11l-10.08.45a8.59,8.59,0,0,0-2.77-5.54c-1.42-1.12-3.55-1.69-6.39-1.69a11.53,11.53,0,0,0-6.88,1.81,3.62,3.62,0,0,0-1.6,3.1,3.82,3.82,0,0,0,1.49,3c1.28,1.07,4.36,2.18,9.27,3.34a49.29,49.29,0,0,1,10.88,3.59,14,14,0,0,1,5.52,5.08,15.68,15.68,0,0,1-.39,16,14.27,14.27,0,0,1-6.74,5.57,28.21,28.21,0,0,1-10.87,1.82q-9.48,0-14.55-4.37T486.52,944.06Z"/><path class="cls-3" d="M533.05,944.06l9.81-.95q.89,4.93,3.6,7.25a10.82,10.82,0,0,0,7.3,2.32q4.88,0,7.35-2.06a6.16,6.16,0,0,0,2.47-4.82,4.58,4.58,0,0,0-1-3,8.35,8.35,0,0,0-3.63-2.16q-1.77-.61-8.07-2.18-8.12-2-11.38-4.94A13.12,13.12,0,0,1,537,916.31a13.56,13.56,0,0,1,6.24-5.06,25.08,25.08,0,0,1,9.82-1.73q9.4,0,14.16,4.12a14.55,14.55,0,0,1,5,11l-10.09.45q-.64-3.86-2.77-5.54c-1.42-1.12-3.55-1.69-6.39-1.69a11.55,11.55,0,0,0-6.88,1.81,3.62,3.62,0,0,0-1.6,3.1,3.83,3.83,0,0,0,1.5,3q1.9,1.61,9.26,3.34a49.41,49.41,0,0,1,10.89,3.59,14,14,0,0,1,5.52,5.08,14.91,14.91,0,0,1,2,8,14.72,14.72,0,0,1-2.39,8,14.23,14.23,0,0,1-6.74,5.57,28.21,28.21,0,0,1-10.87,1.82q-9.46,0-14.54-4.37T533.05,944.06Z"/><path class="cls-3" d="M582.14,960.31V910.37h37v8.45H592.22v11.07H617.3v8.41H592.22v13.59h27.9v8.42Z"/><path class="cls-3" d="M639.92,960.31V918.82H625.1v-8.45h39.68v8.45H650v41.49Z"/><path class="cls-4" d="M416.67,121.73v-8.8h22.74v20.81a28.39,28.39,0,0,1-9.6,5.65,34.89,34.89,0,0,1-12.74,2.44,28.56,28.56,0,0,1-14.3-3.44,21.92,21.92,0,0,1-9.16-9.83,31.87,31.87,0,0,1-3.06-13.92A30.11,30.11,0,0,1,394,100.13a23,23,0,0,1,10-9.73,27.05,27.05,0,0,1,12.51-2.6q9.72,0,15.2,4.08a18.43,18.43,0,0,1,7,11.28l-10.48,2A11.1,11.1,0,0,0,424.11,99a12.6,12.6,0,0,0-7.61-2.22q-6.92,0-11,4.38t-4.08,13q0,9.3,4.13,14a13.82,13.82,0,0,0,10.84,4.65,18.37,18.37,0,0,0,6.65-1.3,22.9,22.9,0,0,0,5.72-3.16v-6.63Z"/><path class="cls-4" d="M449.18,140.94V88.69h22.21q8.37,0,12.17,1.41a12,12,0,0,1,6.08,5,15.1,15.1,0,0,1,2.28,8.24,13.91,13.91,0,0,1-3.46,9.71q-3.45,3.84-10.33,4.83a24.53,24.53,0,0,1,5.65,4.39,60.16,60.16,0,0,1,6,8.48l6.38,10.19H483.54l-7.62-11.37a75.89,75.89,0,0,0-5.56-7.68,8,8,0,0,0-3.18-2.17,17.38,17.38,0,0,0-5.31-.59h-2.14v21.81Zm10.55-30.15h7.81c5.06,0,8.22-.22,9.48-.64a5.71,5.71,0,0,0,3-2.21,6.85,6.85,0,0,0,1.07-3.92,6.26,6.26,0,0,0-1.41-4.26,6.44,6.44,0,0,0-4-2.05q-1.29-.18-7.7-.18h-8.24Z"/><path class="cls-4" d="M499.73,115.14a33.32,33.32,0,0,1,2.38-13.41A24.62,24.62,0,0,1,507,94.57a20.56,20.56,0,0,1,6.75-4.71A28.86,28.86,0,0,1,525,87.8q11.55,0,18.48,7.16t6.93,19.93q0,12.64-6.88,19.8t-18.39,7.14q-11.65,0-18.53-7.11T499.73,115.14Zm10.87-.36q0,8.88,4.1,13.46a14.08,14.08,0,0,0,20.76,0q4-4.55,4-13.63t-3.93-13.4a14.6,14.6,0,0,0-21,.05Q510.6,105.76,510.6,114.78Z"/><path class="cls-4" d="M558.58,88.69h10.55V117a59,59,0,0,0,.39,8.73,8.42,8.42,0,0,0,3.22,5.15,11.23,11.23,0,0,0,7,1.95c3,0,5.25-.61,6.78-1.84a7.25,7.25,0,0,0,2.74-4.51,58.7,58.7,0,0,0,.46-8.87V88.69h10.55v27.45q0,9.4-.85,13.29a14.64,14.64,0,0,1-3.16,6.56,16,16,0,0,1-6.14,4.26A26.75,26.75,0,0,1,580,141.83q-7.49,0-11.35-1.72a16.16,16.16,0,0,1-6.11-4.5,14.28,14.28,0,0,1-3-5.79,63.4,63.4,0,0,1-1-13.26Z"/><path class="cls-4" d="M611.47,140.94V88.69h10.27l21.38,34.89V88.69h9.81v52.25H642.34l-21.07-34.07v34.07Z"/><path class="cls-4" d="M664.05,88.69h19.28a37.53,37.53,0,0,1,9.95,1,17.37,17.37,0,0,1,7.87,4.81,22.78,22.78,0,0,1,5,8.46,38.61,38.61,0,0,1,1.71,12.35,34.38,34.38,0,0,1-1.6,11.13,23,23,0,0,1-5.6,9.23,18.6,18.6,0,0,1-7.41,4.17,31.83,31.83,0,0,1-9.34,1.1H664.05Zm10.55,8.84v34.61h7.87a29,29,0,0,0,6.39-.5,9.79,9.79,0,0,0,4.26-2.17,11.29,11.29,0,0,0,2.76-5,34.18,34.18,0,0,0,1.07-9.57,31.27,31.27,0,0,0-1.07-9.3,12,12,0,0,0-3-5.06A10,10,0,0,0,688,98a47.08,47.08,0,0,0-8.66-.5Z"/><path class="cls-4" d="M301.26,195.6l10.26-1q.93,5.18,3.76,7.6a11.41,11.41,0,0,0,7.65,2.42q5.1,0,7.68-2.16a6.41,6.41,0,0,0,2.58-5,4.74,4.74,0,0,0-1.08-3.15,8.68,8.68,0,0,0-3.8-2.27c-1.24-.43-4.05-1.19-8.45-2.28q-8.48-2.1-11.9-5.17A13.58,13.58,0,0,1,303.15,174a13.44,13.44,0,0,1,2.26-7.47,14.13,14.13,0,0,1,6.52-5.29,26,26,0,0,1,10.29-1.82q9.82,0,14.81,4.31a15.25,15.25,0,0,1,5.22,11.51l-10.55.47c-.46-2.69-1.42-4.62-2.91-5.79s-3.71-1.77-6.68-1.77a12,12,0,0,0-7.2,1.89,3.81,3.81,0,0,0-1.68,3.24,4,4,0,0,0,1.57,3.18q2,1.67,9.7,3.49a50.89,50.89,0,0,1,11.39,3.76,14.8,14.8,0,0,1,5.77,5.31,16.49,16.49,0,0,1-.41,16.74,15,15,0,0,1-7.06,5.82,29.6,29.6,0,0,1-11.37,1.91q-9.92,0-15.22-4.58T301.26,195.6Z"/><path class="cls-4" d="M364.38,212.6V169.19h-15.5v-8.84H390.4v8.84H374.93V212.6Z"/><path class="cls-4" d="M438.92,212.6H427.44l-4.56-11.87H402l-4.31,11.87h-11.2l20.36-52.25H418Zm-19.43-20.67-7.2-19.39-7.06,19.39Z"/><path class="cls-4" d="M450.86,212.6V169.19H435.35v-8.84h41.53v8.84H461.41V212.6Z"/><path class="cls-4" d="M483.36,212.6V160.35h10.56V212.6Z"/><path class="cls-4" d="M501.83,186.8a33.06,33.06,0,0,1,2.39-13.4,24.5,24.5,0,0,1,4.86-7.17,20.41,20.41,0,0,1,6.76-4.7,28.63,28.63,0,0,1,11.26-2.07q11.55,0,18.48,7.16t6.93,19.93q0,12.64-6.87,19.8t-18.4,7.14q-11.65,0-18.53-7.11T501.83,186.8Zm10.87-.36q0,8.88,4.1,13.46a14.08,14.08,0,0,0,20.76,0q4.05-4.55,4.05-13.63t-3.94-13.4a14.6,14.6,0,0,0-21,0Q512.7,177.42,512.7,186.44Z"/><path class="cls-4" d="M560.86,212.6V160.35h10.26l21.39,34.89V160.35h9.8V212.6H591.72l-21.06-34.07V212.6Z"/><path class="cls-4" d="M678.16,212.6H666.68l-4.56-11.87H641.23l-4.31,11.87H625.73l20.35-52.25h11.16Zm-19.42-20.67-7.2-19.39-7.06,19.39Z"/><path class="cls-4" d="M681.08,195.6l10.27-1q.93,5.18,3.76,7.6a11.41,11.41,0,0,0,7.65,2.42q5.09,0,7.68-2.16a6.41,6.41,0,0,0,2.58-5,4.7,4.7,0,0,0-1.09-3.15,8.63,8.63,0,0,0-3.79-2.27c-1.24-.43-4-1.19-8.45-2.28q-8.49-2.1-11.9-5.17A13.59,13.59,0,0,1,683,174a13.45,13.45,0,0,1,2.27-7.47,14.13,14.13,0,0,1,6.52-5.29A26,26,0,0,1,702,159.46q9.84,0,14.81,4.31a15.23,15.23,0,0,1,5.23,11.51l-10.56.47q-.67-4-2.9-5.79c-1.49-1.18-3.71-1.77-6.68-1.77a12,12,0,0,0-7.2,1.89,3.81,3.81,0,0,0-1.68,3.24,4,4,0,0,0,1.57,3.18q2,1.67,9.69,3.49a50.71,50.71,0,0,1,11.39,3.76,14.76,14.76,0,0,1,5.78,5.31,16.49,16.49,0,0,1-.41,16.74,15,15,0,0,1-7.06,5.82,29.6,29.6,0,0,1-11.37,1.91q-9.92,0-15.22-4.58T681.08,195.6Z"/><path class="cls-4" d="M797.14,212.6H785.67l-4.57-11.87H760.22L755.9,212.6H744.71l20.35-52.25h11.16Zm-19.42-20.67-7.2-19.39-7.06,19.39Z"/><path class="cls-4" d="M392.76,267.28l10.26-1q.93,5.18,3.76,7.59a11.36,11.36,0,0,0,7.65,2.43q5.1,0,7.68-2.16a6.42,6.42,0,0,0,2.58-5,4.79,4.79,0,0,0-1.08-3.16,8.77,8.77,0,0,0-3.8-2.26c-1.24-.43-4.05-1.19-8.45-2.28q-8.48-2.1-11.9-5.17a13.59,13.59,0,0,1-4.81-10.51,13.39,13.39,0,0,1,2.26-7.47,14.21,14.21,0,0,1,6.52-5.3,26.2,26.2,0,0,1,10.29-1.81q9.82,0,14.81,4.31A15.24,15.24,0,0,1,433.75,247l-10.55.47c-.46-2.69-1.42-4.62-2.91-5.8s-3.71-1.76-6.68-1.76a12,12,0,0,0-7.2,1.89,3.81,3.81,0,0,0-1.68,3.24,4,4,0,0,0,1.57,3.17q2,1.68,9.7,3.5a50.89,50.89,0,0,1,11.39,3.76,14.66,14.66,0,0,1,5.77,5.31,16.47,16.47,0,0,1-.41,16.73,14.91,14.91,0,0,1-7.06,5.83,29.6,29.6,0,0,1-11.37,1.91q-9.92,0-15.22-4.58T392.76,267.28Z"/><path class="cls-4" d="M444.12,284.28V232h38.75v8.84h-28.2v11.58H480.9v8.81H454.67v14.22h29.19v8.8Z"/><path class="cls-4" d="M492.85,284.28V232h22.2q8.38,0,12.17,1.41a11.92,11.92,0,0,1,6.08,5,15.08,15.08,0,0,1,2.28,8.24,14,14,0,0,1-3.45,9.71q-3.46,3.84-10.34,4.83a24.78,24.78,0,0,1,5.65,4.38,59.58,59.58,0,0,1,6,8.49l6.39,10.19H527.21l-7.63-11.37a74.27,74.27,0,0,0-5.56-7.68,8.09,8.09,0,0,0-3.17-2.17,17.15,17.15,0,0,0-5.31-.59H503.4v21.81Zm10.55-30.15h7.8c5.06,0,8.22-.22,9.48-.64a5.71,5.71,0,0,0,3-2.21,6.79,6.79,0,0,0,1.07-3.93,6.25,6.25,0,0,0-1.41-4.25,6.36,6.36,0,0,0-4-2c-.86-.12-3.42-.18-7.7-.18H503.4Z"/><path class="cls-4" d="M557.54,284.28,538.86,232H550.3l13.23,38.67L576.33,232h11.19L568.8,284.28Z"/><path class="cls-4" d="M592.58,284.28V232h10.55v52.25Z"/><path class="cls-4" d="M646.62,265.07l10.23,3.24Q654.49,276.88,649,281t-13.88,4.15A22.48,22.48,0,0,1,618,278.06q-6.71-7.11-6.7-19.44,0-13.05,6.73-20.27t17.72-7.21q9.59,0,15.58,5.66a20.74,20.74,0,0,1,5.34,9.63l-10.44,2.49a10.82,10.82,0,0,0-11-8.77,11.88,11.88,0,0,0-9.43,4.17q-3.62,4.17-3.62,13.51,0,9.92,3.56,14.12a11.6,11.6,0,0,0,9.27,4.21,10.58,10.58,0,0,0,7.24-2.68Q645.3,270.81,646.62,265.07Z"/><path class="cls-4" d="M665.9,284.28V232h38.75v8.84h-28.2v11.58h26.23v8.81H676.45v14.22h29.19v8.8Z"/><path class="cls-5" d="M342.58,554.6V536.18h47.58v43.55q-6.93,6.72-20.1,11.82a73,73,0,0,1-26.66,5.11q-17.14,0-29.9-7.19a45.8,45.8,0,0,1-19.17-20.59,66.57,66.57,0,0,1-6.41-29.12q0-17.07,7.16-30.35A48.27,48.27,0,0,1,316,489.05q10.52-5.43,26.18-5.44,20.35,0,31.8,8.54t14.73,23.6l-21.92,4.1a23.15,23.15,0,0,0-8.69-12.71q-6.37-4.67-15.92-4.66-14.47,0-23,9.17t-8.53,27.22q0,19.46,8.65,29.19T342,577.8a37.89,37.89,0,0,0,13.9-2.73,47.33,47.33,0,0,0,12-6.6V554.6Z"/><path class="cls-5" d="M399.51,558.85,421,556.77q1.93,10.82,7.87,15.88t16,5.07q10.66,0,16.08-4.51t5.4-10.55a10,10,0,0,0-2.27-6.6c-1.52-1.82-4.17-3.39-7.95-4.74q-3.87-1.34-17.67-4.77-17.74-4.39-24.91-10.81-10.06-9-10.06-22a28.1,28.1,0,0,1,4.73-15.63A29.74,29.74,0,0,1,421.85,487q8.91-3.8,21.51-3.8,20.58,0,31,9t10.92,24.09l-22.07,1q-1.43-8.43-6.08-12.12t-14-3.69q-9.61,0-15.07,3.95a8,8,0,0,0-3.5,6.79,8.38,8.38,0,0,0,3.28,6.63q4.17,3.51,20.29,7.31T472,534.06A30.67,30.67,0,0,1,484,545.17q4.36,7.05,4.37,17.41a32.2,32.2,0,0,1-5.23,17.6,31.22,31.22,0,0,1-14.76,12.19q-9.54,4-23.79,4-20.73,0-31.84-9.59T399.51,558.85Z"/><path class="cls-5" d="M721.59,559.25l21.48-2.09Q745,568,750.93,573.05t16,5.07q10.67,0,16.07-4.51t5.41-10.55a9.92,9.92,0,0,0-2.28-6.6q-2.28-2.73-7.94-4.74-3.88-1.34-17.67-4.77-17.76-4.41-24.91-10.82-10.07-9-10.07-22a28.11,28.11,0,0,1,4.74-15.63,29.6,29.6,0,0,1,13.64-11.07q8.91-3.81,21.52-3.81,20.58,0,31,9t10.93,24.09l-22.08,1q-1.41-8.42-6.07-12.11t-14-3.69q-9.62,0-15.06,3.95a8,8,0,0,0-3.5,6.78,8.39,8.39,0,0,0,3.28,6.64q4.17,3.51,20.28,7.31T794,534.46a30.74,30.74,0,0,1,12.08,11.11q4.36,7,4.36,17.41a32.21,32.21,0,0,1-5.22,17.6,31.25,31.25,0,0,1-14.77,12.19q-9.54,4-23.78,4-20.75,0-31.85-9.58T721.59,559.25Z"/><path class="cls-5" d="M602.4,596.46H577.73l-9.8-25.5H523l-9.27,25.5h-24l43.74-112.28h24ZM560.65,552l-15.47-41.67L530,552Z"/><path class="cls-5" d="M721.59,596.56H696.93l-9.81-25.5H642.24L633,596.56H608.92l43.73-112.28h24Zm-41.75-44.42-15.47-41.67-15.16,41.67Z"/></svg>