<svg id="Layer_1" data-name="Layer 1" xmlns="http://www.w3.org/2000/svg" viewBox="0 0 1080 1080"><defs><style>.cls-1,.cls-2{fill:none;}.cls-2{stroke:#231f20;stroke-miterlimit:10;stroke-width:0.5px;}.cls-3{fill:#fdfefe;}.cls-4{fill:#231f20;}.cls-5{fill:#fff;}</style></defs><title>PLATFORM ASSET</title><rect class="cls-1" x="6.16" width="1080" height="1080"/><rect x="283.03" y="80.19" width="526.26" height="212.63"/><rect x="283.03" y="787.18" width="526.26" height="212.63"/><polygon class="cls-2" points="809.29 787 283.03 787.18 283.03 292.82 809.29 292.82 809.29 787"/><path class="cls-3" d="M360,876.59V826.65h16.18q9.21,0,12,.75a13.07,13.07,0,0,1,7.19,4.89,15.5,15.5,0,0,1,2.9,9.72,16.35,16.35,0,0,1-1.67,7.74,13.67,13.67,0,0,1-4.24,4.92,14.79,14.79,0,0,1-5.23,2.37,58.3,58.3,0,0,1-10.46.71h-6.57v18.84Zm10.09-41.49v14.17h5.51c4,0,6.63-.26,8-.78a6.57,6.57,0,0,0,4.29-6.34,6.49,6.49,0,0,0-1.6-4.5,7,7,0,0,0-4.06-2.21,48,48,0,0,0-7.25-.34Z"/><path class="cls-3" d="M406.8,876.59V827.06h10.08v41.12H442v8.41Z"/><path class="cls-3" d="M494.18,876.59h-11l-4.36-11.34h-20l-4.12,11.34H444.07l19.45-49.94h10.66Zm-18.57-19.76-6.88-18.53L462,856.83Z"/><path class="cls-3" d="M505.59,876.59V835.1H490.77v-8.45h39.69v8.45H515.67v41.49Z"/><path class="cls-3" d="M537,876.59V826.65h34.24v8.45H547.11v11.82H568v8.45H547.11v21.22Z"/><path class="cls-3" d="M577.53,851.93a31.6,31.6,0,0,1,2.29-12.81,23.33,23.33,0,0,1,4.65-6.85,19.45,19.45,0,0,1,6.45-4.5,27.55,27.55,0,0,1,10.77-2q11,0,17.66,6.85t6.63,19q0,12.09-6.58,18.92t-17.58,6.83q-11.13,0-17.71-6.79T577.53,851.93Zm10.39-.34q0,8.48,3.92,12.86a12.79,12.79,0,0,0,9.95,4.37,12.61,12.61,0,0,0,9.89-4.34q3.87-4.35,3.87-13t-3.76-12.81a14,14,0,0,0-20,.05Q587.93,843,587.92,851.59Z"/><path class="cls-3" d="M633.88,876.59V826.65H655.1q8,0,11.63,1.35a11.43,11.43,0,0,1,5.81,4.78,14.35,14.35,0,0,1,2.18,7.87,13.33,13.33,0,0,1-3.3,9.28q-3.3,3.68-9.88,4.62a23.54,23.54,0,0,1,5.4,4.19,56.66,56.66,0,0,1,5.74,8.11l6.1,9.74H666.72l-7.29-10.87a69.7,69.7,0,0,0-5.32-7.34,7.76,7.76,0,0,0-3-2.08,16.78,16.78,0,0,0-5.07-.56h-2v20.85ZM644,847.77h7.46q7.26,0,9.06-.61a5.41,5.41,0,0,0,2.83-2.11,6.52,6.52,0,0,0,1-3.75,6,6,0,0,0-1.34-4.07,6.16,6.16,0,0,0-3.8-2q-1.23-.16-7.36-.17H644Z"/><path class="cls-3" d="M684.09,876.59V826.65h15.09l9.06,34.07,9-34.07h15.13v49.94H723V837.28l-9.91,39.31h-9.71l-9.88-39.31v39.31Z"/><path class="cls-3" d="M480.69,960.31h-11L465.36,949h-20l-4.12,11.34H430.58L450,910.37h10.66Zm-18.57-19.76L455.24,922l-6.75,18.53Z"/><path class="cls-3" d="M483.48,944.06l9.81-.95q.88,4.93,3.59,7.25a10.86,10.86,0,0,0,7.31,2.32q4.88,0,7.34-2.06A6.13,6.13,0,0,0,514,945.8a4.53,4.53,0,0,0-1-3,8.25,8.25,0,0,0-3.62-2.16q-1.79-.61-8.08-2.18-8.1-2-11.38-4.94a13.13,13.13,0,0,1-2.43-17.19,13.58,13.58,0,0,1,6.23-5.06,25.17,25.17,0,0,1,9.83-1.73q9.4,0,14.15,4.12a14.52,14.52,0,0,1,5,11l-10.08.45a8.59,8.59,0,0,0-2.77-5.54c-1.42-1.12-3.55-1.69-6.39-1.69a11.53,11.53,0,0,0-6.88,1.81,3.62,3.62,0,0,0-1.6,3.1,3.82,3.82,0,0,0,1.49,3c1.28,1.07,4.36,2.18,9.27,3.34a49.29,49.29,0,0,1,10.88,3.59,14,14,0,0,1,5.52,5.08,15.68,15.68,0,0,1-.39,16,14.27,14.27,0,0,1-6.74,5.57,28.21,28.21,0,0,1-10.87,1.82q-9.48,0-14.55-4.37T483.48,944.06Z"/><path class="cls-3" d="M530,944.06l9.81-.95q.88,4.93,3.6,7.25a10.82,10.82,0,0,0,7.3,2.32q4.88,0,7.35-2.06a6.16,6.16,0,0,0,2.47-4.82,4.58,4.58,0,0,0-1-3,8.35,8.35,0,0,0-3.63-2.16q-1.77-.61-8.07-2.18-8.12-2-11.38-4.94A13.12,13.12,0,0,1,534,916.31a13.56,13.56,0,0,1,6.24-5.06,25.08,25.08,0,0,1,9.82-1.73q9.4,0,14.16,4.12a14.55,14.55,0,0,1,5,11l-10.09.45q-.65-3.86-2.77-5.54c-1.42-1.12-3.55-1.69-6.39-1.69a11.55,11.55,0,0,0-6.88,1.81,3.62,3.62,0,0,0-1.6,3.1,3.83,3.83,0,0,0,1.5,3q1.9,1.61,9.26,3.34a49.41,49.41,0,0,1,10.89,3.59,14,14,0,0,1,5.52,5.08,14.91,14.91,0,0,1,2,8,14.72,14.72,0,0,1-2.39,8,14.23,14.23,0,0,1-6.74,5.57,28.21,28.21,0,0,1-10.87,1.82q-9.47,0-14.54-4.37T530,944.06Z"/><path class="cls-3" d="M579.1,960.31V910.37h37v8.45h-27v11.07h25.08v8.41H589.18v13.59h27.9v8.42Z"/><path class="cls-3" d="M636.88,960.31V918.82H622.06v-8.45h39.68v8.45H647v41.49Z"/><path class="cls-4" d="M429.49,575.66V530H547.57V638q-17.21,16.65-49.87,29.33A181.63,181.63,0,0,1,431.53,680q-42.57,0-74.21-17.86a113.56,113.56,0,0,1-47.57-51.08q-15.92-33.23-15.91-72.27,0-42.38,17.76-75.33t52-50.52q26.1-13.51,65-13.51,50.52,0,78.93,21.19t36.56,58.57l-54.42,10.18q-5.73-20-21.56-31.55t-39.51-11.57q-35.91,0-57.1,22.76t-21.19,67.56q0,48.3,21.47,72.45T428,633.22a94.22,94.22,0,0,0,34.52-6.76,118.08,118.08,0,0,0,29.71-16.38V575.66Z"/><path class="cls-4" d="M577.87,587.44l53.31-5.18q4.8,26.84,19.52,39.42t39.7,12.58q26.46,0,39.88-11.19t13.42-26.19a24.7,24.7,0,0,0-5.64-16.38q-5.65-6.75-19.71-11.75-9.63-3.33-43.87-11.85-44-10.92-61.81-26.83-25-22.4-25-54.6a69.7,69.7,0,0,1,11.76-38.77q11.74-18,33.86-27.49t53.4-9.44q51.07,0,76.9,22.4T790.71,482l-54.78,2.4q-3.52-20.91-15.08-30.07t-34.71-9.16q-23.86,0-37.38,9.81a19.76,19.76,0,0,0-8.7,16.84q0,9.62,8.14,16.47,10.37,8.7,50.34,18.14t59.13,19.52a76.29,76.29,0,0,1,30,27.58q10.83,17.49,10.82,43.21a80,80,0,0,1-13,43.68q-13,20.37-36.65,30.26t-59,9.9q-51.47,0-79-23.78T577.87,587.44Z"/><path class="cls-5" d="M413.63,161.81V153h22.74v20.82a28.55,28.55,0,0,1-9.6,5.65A34.93,34.93,0,0,1,414,181.91a28.66,28.66,0,0,1-14.3-3.44,21.84,21.84,0,0,1-9.16-9.84,31.81,31.81,0,0,1-3.06-13.92,30.07,30.07,0,0,1,3.42-14.5,23,23,0,0,1,10-9.73,27,27,0,0,1,12.52-2.61q9.72,0,15.2,4.09a18.43,18.43,0,0,1,7,11.28l-10.48,2a11.06,11.06,0,0,0-4.15-6.08,12.54,12.54,0,0,0-7.61-2.23q-6.91,0-11,4.39t-4.08,13q0,9.3,4.13,14a13.82,13.82,0,0,0,10.84,4.65,18.16,18.16,0,0,0,6.65-1.3,23.21,23.21,0,0,0,5.72-3.15v-6.63Z"/><path class="cls-5" d="M446.14,181V128.76h22.21q8.37,0,12.17,1.41a12,12,0,0,1,6.08,5,15.07,15.07,0,0,1,2.28,8.23,13.94,13.94,0,0,1-3.46,9.72Q482,157,475.08,158a24.35,24.35,0,0,1,5.65,4.38,58.85,58.85,0,0,1,6,8.49L493.12,181H480.5l-7.63-11.37a72.72,72.72,0,0,0-5.56-7.68,8.08,8.08,0,0,0-3.17-2.18,17.54,17.54,0,0,0-5.31-.58h-2.14V181Zm10.55-30.16h7.81q7.59,0,9.48-.64a5.7,5.7,0,0,0,3-2.21,6.81,6.81,0,0,0,1.07-3.92,6.26,6.26,0,0,0-1.41-4.26,6.49,6.49,0,0,0-4-2.05c-.85-.12-3.42-.18-7.69-.18h-8.24Z"/><path class="cls-5" d="M496.68,155.21a33.26,33.26,0,0,1,2.39-13.4,24.49,24.49,0,0,1,4.87-7.16,20.26,20.26,0,0,1,6.75-4.71A28.68,28.68,0,0,1,522,127.87q11.55,0,18.48,7.17T547.37,155q0,12.66-6.88,19.8t-18.39,7.15q-11.65,0-18.54-7.11T496.68,155.21Zm10.88-.35q0,8.87,4.1,13.45a14.09,14.09,0,0,0,20.76,0q4.05-4.54,4-13.64t-3.93-13.4a14.59,14.59,0,0,0-21,.06Q507.56,145.84,507.56,154.86Z"/><path class="cls-5" d="M555.53,128.76h10.56v28.31a59,59,0,0,0,.39,8.73A8.42,8.42,0,0,0,569.7,171a11.21,11.21,0,0,0,7,1.94c3,0,5.25-.61,6.77-1.83a7.29,7.29,0,0,0,2.75-4.51,58.76,58.76,0,0,0,.46-8.88V128.76H597.2v27.45q0,9.4-.85,13.3a14.7,14.7,0,0,1-3.16,6.55,15.74,15.74,0,0,1-6.15,4.26,26.64,26.64,0,0,1-10,1.59q-7.49,0-11.35-1.73a16.14,16.14,0,0,1-6.11-4.49,14.28,14.28,0,0,1-3-5.79,63.4,63.4,0,0,1-1-13.26Z"/><path class="cls-5" d="M608.43,181V128.76H618.7l21.38,34.9v-34.9h9.81V181H639.3l-21.07-34.08V181Z"/><path class="cls-5" d="M661,128.76h19.28a38,38,0,0,1,10,1,17.55,17.55,0,0,1,7.87,4.81,22.82,22.82,0,0,1,5,8.47,38.61,38.61,0,0,1,1.71,12.35,34.32,34.32,0,0,1-1.6,11.12,23,23,0,0,1-5.6,9.23,18.37,18.37,0,0,1-7.41,4.17,31.79,31.79,0,0,1-9.34,1.11H661Zm10.55,8.84v34.61h7.87a29.15,29.15,0,0,0,6.39-.49,9.8,9.8,0,0,0,4.26-2.18,11.19,11.19,0,0,0,2.76-5,34.18,34.18,0,0,0,1.07-9.57,31.39,31.39,0,0,0-1.07-9.31,12,12,0,0,0-3-5.06A10.06,10.06,0,0,0,685,138.1a48,48,0,0,0-8.66-.5Z"/><path class="cls-5" d="M395.63,227.2l10.27-1q.93,5.16,3.76,7.59a11.41,11.41,0,0,0,7.65,2.42q5.08,0,7.68-2.15a6.43,6.43,0,0,0,2.58-5,4.74,4.74,0,0,0-1.09-3.15,8.73,8.73,0,0,0-3.79-2.27c-1.24-.42-4.05-1.18-8.45-2.28-5.66-1.4-9.62-3.12-11.91-5.17a13.61,13.61,0,0,1-4.81-10.51,13.45,13.45,0,0,1,2.27-7.47,14.14,14.14,0,0,1,6.52-5.29,26.18,26.18,0,0,1,10.28-1.82q9.84,0,14.81,4.31a15.2,15.2,0,0,1,5.22,11.52l-10.55.46q-.68-4-2.9-5.79c-1.49-1.18-3.71-1.77-6.68-1.77a12.09,12.09,0,0,0-7.21,1.89,3.83,3.83,0,0,0-1.67,3.25,4,4,0,0,0,1.57,3.17q2,1.68,9.69,3.49a51.23,51.23,0,0,1,11.39,3.76,14.76,14.76,0,0,1,5.78,5.31,16.49,16.49,0,0,1-.41,16.74,15,15,0,0,1-7.06,5.83,29.62,29.62,0,0,1-11.37,1.9q-9.92,0-15.22-4.58T395.63,227.2Z"/><path class="cls-5" d="M458.76,244.21V200.79H443.25V192h41.53v8.84H469.31v43.42Z"/><path class="cls-5" d="M533.29,244.21H521.81l-4.56-11.87H496.36l-4.31,11.87H480.86L501.21,192h11.16Zm-19.42-20.68-7.2-19.39-7.06,19.39Z"/><path class="cls-5" d="M545.23,244.21V200.79h-15.5V192h41.52v8.84H555.78v43.42Z"/><path class="cls-5" d="M577.74,244.21V192h10.55v52.26Z"/><path class="cls-5" d="M596.2,218.4a33.26,33.26,0,0,1,2.39-13.4,24.67,24.67,0,0,1,4.87-7.17,20.28,20.28,0,0,1,6.75-4.7,28.68,28.68,0,0,1,11.27-2.07q11.55,0,18.48,7.17t6.93,19.92q0,12.66-6.88,19.8t-18.39,7.15q-11.65,0-18.54-7.11T596.2,218.4Zm10.88-.36q0,8.88,4.1,13.46a13.35,13.35,0,0,0,10.4,4.58,13.22,13.22,0,0,0,10.36-4.55q4-4.53,4-13.63t-3.93-13.4a14.6,14.6,0,0,0-21,.05Q607.08,209,607.08,218Z"/><path class="cls-5" d="M655.23,244.21V192H665.5l21.38,34.9V192h9.81v52.26H686.1L665,210.13v34.08Z"/></svg>