<svg id="Layer_1" data-name="Layer 1" xmlns="http://www.w3.org/2000/svg" viewBox="0 0 1080 1080"><defs><style>.cls-1,.cls-2{fill:none;}.cls-2{stroke:#231f20;stroke-miterlimit:10;stroke-width:0.5px;}.cls-3{fill:#fdfefe;}.cls-4{fill:#fff;}.cls-5{fill:#231f20;}</style></defs><title>correction plateform asset</title><rect class="cls-1" x="-3.09" y="-1.98" width="1080" height="1080"/><rect x="273.78" y="78.21" width="526.26" height="212.63"/><rect x="273.78" y="785.21" width="526.26" height="212.63"/><polygon class="cls-2" points="800.03 785.02 273.78 785.21 273.78 290.84 800.03 290.84 800.03 785.02"/><path class="cls-3" d="M350.74,874.61V824.67h16.18c6.13,0,10.13.26,12,.75a13.11,13.11,0,0,1,7.19,4.89A15.51,15.51,0,0,1,389,840a16.21,16.21,0,0,1-1.67,7.73,13.58,13.58,0,0,1-4.24,4.92,14.29,14.29,0,0,1-5.23,2.37,57.08,57.08,0,0,1-10.45.72h-6.58v18.83Zm10.08-41.49v14.17h5.52q6,0,8-.78a6.61,6.61,0,0,0,3.15-2.45,6.72,6.72,0,0,0,1.14-3.89,6.43,6.43,0,0,0-1.6-4.49,7,7,0,0,0-4.05-2.22,49.59,49.59,0,0,0-7.26-.34Z"/><path class="cls-3" d="M397.54,874.61V825.08h10.09V866.2H432.7v8.41Z"/><path class="cls-3" d="M484.92,874.61H474l-4.36-11.34h-20l-4.12,11.34h-10.7l19.45-49.94h10.67Zm-18.56-19.75-6.88-18.54-6.75,18.54Z"/><path class="cls-3" d="M496.33,874.61V833.12H481.52v-8.45H521.2v8.45H506.42v41.49Z"/><path class="cls-3" d="M527.78,874.61V824.67H562v8.45H537.86v11.82h20.85v8.45H537.86v21.22Z"/><path class="cls-3" d="M568.28,850a31.82,31.82,0,0,1,2.28-12.81,23.68,23.68,0,0,1,4.65-6.84,19.44,19.44,0,0,1,6.46-4.5,27.36,27.36,0,0,1,10.76-2q11,0,17.67,6.85t6.62,19q0,12.1-6.57,18.93t-17.58,6.83q-11.15,0-17.72-6.8T568.28,850Zm10.39-.34q0,8.49,3.92,12.86a13.45,13.45,0,0,0,19.84,0q3.87-4.34,3.87-13t-3.77-12.8a13.93,13.93,0,0,0-20,.05Q578.67,841,578.67,849.61Z"/><path class="cls-3" d="M624.62,874.61V824.67h21.23q8,0,11.63,1.35a11.49,11.49,0,0,1,5.81,4.79,14.39,14.39,0,0,1,2.18,7.87,13.31,13.31,0,0,1-3.31,9.28q-3.3,3.66-9.87,4.61a23.75,23.75,0,0,1,5.39,4.19,57,57,0,0,1,5.74,8.11l6.1,9.74H657.46l-7.29-10.86a70.55,70.55,0,0,0-5.31-7.34,7.72,7.72,0,0,0-3-2.08,16.49,16.49,0,0,0-5.08-.56h-2v20.84Zm10.09-28.82h7.46q7.25,0,9.06-.61a5.45,5.45,0,0,0,2.83-2.11,6.52,6.52,0,0,0,1-3.75,6,6,0,0,0-1.35-4.07,6.23,6.23,0,0,0-3.8-2c-.81-.11-3.27-.17-7.35-.17h-7.87Z"/><path class="cls-3" d="M674.84,874.61V824.67h15.09L699,858.74l9-34.07h15.12v49.94h-9.36V835.3l-9.92,39.31h-9.71L684.2,835.3v39.31Z"/><path class="cls-3" d="M471.43,958.33h-11L456.1,947h-20L432,958.33h-10.7l19.45-49.94h10.67Zm-18.56-19.75L446,920l-6.75,18.54Z"/><path class="cls-3" d="M474.23,942.08l9.81-1c.59,3.29,1.78,5.71,3.59,7.26a10.9,10.9,0,0,0,7.31,2.31c3.24,0,5.69-.68,7.34-2.06a6.14,6.14,0,0,0,2.47-4.82,4.55,4.55,0,0,0-1-3,8.33,8.33,0,0,0-3.63-2.17c-1.18-.41-3.87-1.13-8.07-2.18q-8.11-2-11.38-4.94a13,13,0,0,1-4.6-10,12.83,12.83,0,0,1,2.16-7.13,13.55,13.55,0,0,1,6.24-5.06,24.94,24.94,0,0,1,9.83-1.74q9.39,0,14.15,4.12a14.56,14.56,0,0,1,5,11l-10.08.44a8.57,8.57,0,0,0-2.78-5.54q-2.13-1.68-6.39-1.68a11.55,11.55,0,0,0-6.88,1.8,3.65,3.65,0,0,0-1.6,3.1,3.82,3.82,0,0,0,1.5,3q1.9,1.6,9.27,3.34a48.86,48.86,0,0,1,10.88,3.6,14.09,14.09,0,0,1,5.52,5.07,15.75,15.75,0,0,1-.39,16,14.31,14.31,0,0,1-6.75,5.57,28.4,28.4,0,0,1-10.87,1.82q-9.46,0-14.54-4.38T474.23,942.08Z"/><path class="cls-3" d="M520.76,942.08l9.81-1q.88,4.93,3.59,7.26a10.9,10.9,0,0,0,7.31,2.31c3.25,0,5.69-.68,7.34-2.06a6.11,6.11,0,0,0,2.47-4.82,4.55,4.55,0,0,0-1-3,8.33,8.33,0,0,0-3.63-2.17c-1.18-.41-3.87-1.13-8.07-2.18q-8.1-2-11.38-4.94a13,13,0,0,1-4.6-10,12.76,12.76,0,0,1,2.17-7.13,13.52,13.52,0,0,1,6.23-5.06,24.94,24.94,0,0,1,9.83-1.74q9.4,0,14.15,4.12a14.56,14.56,0,0,1,5,11l-10.08.44a8.57,8.57,0,0,0-2.78-5.54c-1.42-1.12-3.54-1.68-6.38-1.68a11.53,11.53,0,0,0-6.88,1.8,3.66,3.66,0,0,0-1.61,3.1,3.82,3.82,0,0,0,1.5,3q1.9,1.6,9.27,3.34a48.86,48.86,0,0,1,10.88,3.6,14.09,14.09,0,0,1,5.52,5.07,15.75,15.75,0,0,1-.39,16,14.33,14.33,0,0,1-6.74,5.57,28.4,28.4,0,0,1-10.87,1.82q-9.48,0-14.55-4.38T520.76,942.08Z"/><path class="cls-3" d="M569.85,958.33V908.39h37v8.45h-27v11.07H605v8.42H579.93v13.59h27.9v8.41Z"/><path class="cls-3" d="M627.62,958.33V916.84H612.8v-8.45h39.69v8.45H637.71v41.49Z"/><path class="cls-4" d="M296,162.75v-6.24h16.14v14.77a20.36,20.36,0,0,1-6.82,4,24.88,24.88,0,0,1-9,1.73,20.24,20.24,0,0,1-10.14-2.44,15.5,15.5,0,0,1-6.51-7,22.58,22.58,0,0,1-2.17-9.88,21.38,21.38,0,0,1,2.43-10.3,16.35,16.35,0,0,1,7.11-6.9,19.15,19.15,0,0,1,8.88-1.85q6.9,0,10.78,2.9a13.07,13.07,0,0,1,5,8l-7.44,1.4a7.85,7.85,0,0,0-2.94-4.32,9,9,0,0,0-5.4-1.58,10.16,10.16,0,0,0-7.81,3.11q-2.9,3.12-2.89,9.24,0,6.6,2.93,9.9a9.81,9.81,0,0,0,7.69,3.3,13,13,0,0,0,4.72-.92,16.34,16.34,0,0,0,4.06-2.24v-4.71Z"/><path class="cls-4" d="M319.05,176.39V139.3h27.5v6.28h-20v8.22h18.62v6.25H326.53v10.09h20.72v6.25Z"/><path class="cls-4" d="M352.09,158.07a23.63,23.63,0,0,1,1.69-9.51,17.31,17.31,0,0,1,3.45-5.08,14.38,14.38,0,0,1,4.8-3.34,20.3,20.3,0,0,1,8-1.47q8.21,0,13.12,5.09t4.92,14.14q0,9-4.88,14T370.12,177Q361.86,177,357,172T352.09,158.07Zm7.71-.25q0,6.3,2.91,9.55a10,10,0,0,0,14.74,0q2.87-3.22,2.87-9.68t-2.8-9.51a10.35,10.35,0,0,0-14.89,0Q359.81,151.42,359.8,157.82Z"/><path class="cls-4" d="M392,164.32l7.29-.71A8.87,8.87,0,0,0,402,169a8,8,0,0,0,5.42,1.72,8.37,8.37,0,0,0,5.46-1.53,4.55,4.55,0,0,0,1.83-3.58,3.42,3.42,0,0,0-.77-2.24,6.18,6.18,0,0,0-2.7-1.6q-1.31-.47-6-1.62-6-1.5-8.45-3.67a9.63,9.63,0,0,1-3.41-7.46,9.52,9.52,0,0,1,1.6-5.3,10.05,10.05,0,0,1,4.63-3.76,18.58,18.58,0,0,1,7.3-1.29q7,0,10.51,3.06a10.83,10.83,0,0,1,3.71,8.17l-7.49.33a6.4,6.4,0,0,0-2.06-4.11,7.61,7.61,0,0,0-4.75-1.25,8.59,8.59,0,0,0-5.11,1.34,2.7,2.7,0,0,0-1.19,2.3,2.82,2.82,0,0,0,1.12,2.25c.94.8,3.24,1.62,6.88,2.48a36.36,36.36,0,0,1,8.08,2.67,10.45,10.45,0,0,1,4.1,3.77,11.07,11.07,0,0,1,1.48,5.91,11,11,0,0,1-1.77,6,10.61,10.61,0,0,1-5,4.13,20.86,20.86,0,0,1-8.07,1.36q-7,0-10.8-3.25T392,164.32Z"/><path class="cls-4" d="M438.2,176.39V160.78L424.61,139.3h8.78L442.12,154l8.55-14.68h8.62l-13.63,21.53v15.56Z"/><path class="cls-4" d="M463.09,176.39V139.3h7.28l15.18,24.77V139.3h7v37.09H485L470.05,152.2v24.19Z"/><path class="cls-4" d="M524.16,162.75l7.26,2.31q-1.68,6.06-5.56,9a17.45,17.45,0,0,1-22-2.1q-4.75-5-4.76-13.8,0-9.25,4.78-14.38a16.42,16.42,0,0,1,12.58-5.12,15.42,15.42,0,0,1,11,4,14.73,14.73,0,0,1,3.8,6.83l-7.42,1.77a7.65,7.65,0,0,0-7.81-6.22,8.44,8.44,0,0,0-6.69,3q-2.58,3-2.57,9.59,0,7,2.53,10a8.2,8.2,0,0,0,6.57,3,7.48,7.48,0,0,0,5.14-1.9A11.05,11.05,0,0,0,524.16,162.75Z"/><path class="cls-4" d="M537.87,176.39V139.3h7.48v14.6H560V139.3h7.49v37.09H560V160.17H545.35v16.22Z"/><path class="cls-4" d="M575.28,176.39V139.3H591a27.19,27.19,0,0,1,8.64,1,8.5,8.5,0,0,1,4.31,3.56,10.66,10.66,0,0,1,1.62,5.84,9.92,9.92,0,0,1-2.45,6.89c-1.64,1.82-4.08,3-7.34,3.43a17.51,17.51,0,0,1,4,3.11,41.42,41.42,0,0,1,4.26,6l4.53,7.24h-9l-5.42-8.07a52.29,52.29,0,0,0-3.94-5.45,5.82,5.82,0,0,0-2.25-1.55,12.7,12.7,0,0,0-3.77-.41h-1.52v15.48Zm7.49-21.4h5.54q5.38,0,6.73-.46a4,4,0,0,0,2.1-1.57,4.87,4.87,0,0,0,.76-2.78,4.47,4.47,0,0,0-1-3,4.64,4.64,0,0,0-2.82-1.46c-.61-.08-2.43-.12-5.47-.12h-5.84Z"/><path class="cls-4" d="M611.15,158.07a23.62,23.62,0,0,1,1.7-9.51,17.31,17.31,0,0,1,3.45-5.08,14.45,14.45,0,0,1,4.79-3.34,20.35,20.35,0,0,1,8-1.47q8.19,0,13.11,5.09t4.93,14.14q0,9-4.89,14t-13,5.07Q620.91,177,616,172T611.15,158.07Zm7.72-.25q0,6.3,2.91,9.55a10,10,0,0,0,14.73,0q2.88-3.22,2.87-9.68t-2.79-9.51a10.35,10.35,0,0,0-14.89,0Q618.86,151.42,618.87,157.82Z"/><path class="cls-4" d="M653,176.39V139.3h7.29l15.18,24.77V139.3h7v37.09H675L660,152.2v24.19Z"/><path class="cls-4" d="M688.86,158.07a23.62,23.62,0,0,1,1.7-9.51,17.31,17.31,0,0,1,3.45-5.08,14.38,14.38,0,0,1,4.8-3.34,20.3,20.3,0,0,1,8-1.47q8.19,0,13.12,5.09t4.92,14.14q0,9-4.89,14T706.9,177q-8.26,0-13.15-5.05T688.86,158.07Zm7.72-.25q0,6.3,2.91,9.55a10,10,0,0,0,14.74,0q2.87-3.22,2.87-9.68t-2.8-9.51a10.35,10.35,0,0,0-14.89,0Q696.58,151.42,696.58,157.82Z"/><path class="cls-4" d="M730.63,139.3h7.49v20.09a41,41,0,0,0,.28,6.2,6,6,0,0,0,2.29,3.65,7.94,7.94,0,0,0,4.94,1.38,7.54,7.54,0,0,0,4.81-1.3,5.17,5.17,0,0,0,1.95-3.2,43.45,43.45,0,0,0,.32-6.3V139.3h7.49v19.48a50.72,50.72,0,0,1-.6,9.44,10.53,10.53,0,0,1-2.24,4.65,11.32,11.32,0,0,1-4.37,3,19,19,0,0,1-7.13,1.12,20.51,20.51,0,0,1-8.06-1.23,11.56,11.56,0,0,1-4.34-3.18,10.32,10.32,0,0,1-2.1-4.11,45.11,45.11,0,0,1-.73-9.41Z"/><path class="cls-4" d="M766.2,164.32l7.28-.71a8.87,8.87,0,0,0,2.67,5.39,8.06,8.06,0,0,0,5.43,1.72,8.34,8.34,0,0,0,5.45-1.53,4.55,4.55,0,0,0,1.83-3.58,3.37,3.37,0,0,0-.77-2.24,6.13,6.13,0,0,0-2.69-1.6q-1.32-.47-6-1.62-6-1.5-8.45-3.67a9.67,9.67,0,0,1-3.41-7.46,9.52,9.52,0,0,1,1.6-5.3,10.1,10.1,0,0,1,4.63-3.76,18.58,18.58,0,0,1,7.3-1.29q7,0,10.51,3.06a10.8,10.8,0,0,1,3.71,8.17l-7.49.33a6.4,6.4,0,0,0-2.06-4.11,7.58,7.58,0,0,0-4.74-1.25,8.57,8.57,0,0,0-5.11,1.34,2.68,2.68,0,0,0-1.19,2.3,2.84,2.84,0,0,0,1.11,2.25c.94.8,3.24,1.62,6.88,2.48a36.17,36.17,0,0,1,8.08,2.67,10.38,10.38,0,0,1,4.1,3.77,11.68,11.68,0,0,1-.29,11.88,10.61,10.61,0,0,1-5,4.13,20.86,20.86,0,0,1-8.07,1.36q-7,0-10.8-3.25T766.2,164.32Z"/><path class="cls-4" d="M458,211.44a23.56,23.56,0,0,1,1.69-9.51,17.58,17.58,0,0,1,3.46-5.09,14.49,14.49,0,0,1,4.79-3.34,20.34,20.34,0,0,1,8-1.47q8.2,0,13.12,5.09T494,211.26q0,9-4.88,14.05T476,230.38q-8.28,0-13.16-5T458,211.44Zm7.71-.26q0,6.3,2.91,9.55A9.48,9.48,0,0,0,476,224a9.38,9.38,0,0,0,7.35-3.22q2.87-3.22,2.87-9.68t-2.79-9.51a10.35,10.35,0,0,0-14.89,0Q465.7,204.79,465.69,211.18Z"/><path class="cls-4" d="M499.82,229.75V192.67h15.76q5.94,0,8.64,1a8.48,8.48,0,0,1,4.31,3.55,10.66,10.66,0,0,1,1.62,5.84,9.94,9.94,0,0,1-2.45,6.9c-1.64,1.81-4.08,2.95-7.34,3.42a17.54,17.54,0,0,1,4,3.12,41.63,41.63,0,0,1,4.26,6l4.53,7.23h-8.95l-5.42-8.07a53.91,53.91,0,0,0-3.94-5.45,5.79,5.79,0,0,0-2.25-1.54,12.31,12.31,0,0,0-3.77-.42h-1.52v15.48Zm7.49-21.4h5.54a29,29,0,0,0,6.73-.45,4.11,4.11,0,0,0,2.1-1.57,4.88,4.88,0,0,0,.76-2.79,4.49,4.49,0,0,0-1-3,4.58,4.58,0,0,0-2.82-1.45c-.61-.09-2.43-.13-5.47-.13h-5.84Z"/><path class="cls-4" d="M537.23,192.67h14.83a43.58,43.58,0,0,1,6.56.36,9.71,9.71,0,0,1,3.87,1.53,9.57,9.57,0,0,1,2.85,3.1,8.4,8.4,0,0,1,1.14,4.34,8.6,8.6,0,0,1-1.41,4.78,8.71,8.71,0,0,1-3.8,3.27,9.76,9.76,0,0,1,5.21,3.36A9,9,0,0,1,568.3,219a10.93,10.93,0,0,1-1.18,4.92,9.86,9.86,0,0,1-3.21,3.82,10.66,10.66,0,0,1-5,1.76c-1.25.13-4.26.22-9,.25H537.23Zm7.49,6.17v8.57h4.91c2.92,0,4.73,0,5.44-.12a5,5,0,0,0,3-1.33,3.89,3.89,0,0,0,1.1-2.9,4,4,0,0,0-1-2.79,4.26,4.26,0,0,0-2.82-1.3q-1.11-.14-6.4-.13Zm0,14.75v9.91h6.93a34.66,34.66,0,0,0,5.14-.22,4.72,4.72,0,0,0,2.72-1.48,4.58,4.58,0,0,0,1-3.15,4.85,4.85,0,0,0-.81-2.84,4.58,4.58,0,0,0-2.34-1.69,25.22,25.22,0,0,0-6.64-.53Z"/><path class="cls-4" d="M574.4,229.75V192.67h7.48v37.08Z"/><path class="cls-4" d="M597.37,229.75V198.94h-11v-6.27h29.47v6.27h-11v30.81Z"/><path class="cls-5" d="M344.11,555.49V533.2H401.7v52.71q-8.4,8.12-24.33,14.3a88.6,88.6,0,0,1-32.27,6.19q-20.76,0-36.19-8.71a55.41,55.41,0,0,1-23.2-24.92A80.56,80.56,0,0,1,278,537.53q0-20.67,8.66-36.74A58.37,58.37,0,0,1,312,476.15q12.72-6.58,31.68-6.59,24.64,0,38.49,10.34T400,508.46l-26.54,5A28,28,0,0,0,362.93,498q-7.73-5.64-19.27-5.64-17.52,0-27.85,11.1t-10.33,32.94q0,23.56,10.47,35.34t27.44,11.78a46.15,46.15,0,0,0,16.83-3.29,57.7,57.7,0,0,0,14.49-8V555.49Z"/><path class="cls-5" d="M419.57,561.09l26-2.53q2.35,13.08,9.52,19.22t19.37,6.14q12.9,0,19.45-5.46t6.54-12.77a12.08,12.08,0,0,0-2.75-8q-2.76-3.3-9.62-5.73-4.69-1.62-21.39-5.78-21.48-5.33-30.14-13.09-12.19-10.92-12.19-26.62a34,34,0,0,1,5.73-18.91,35.89,35.89,0,0,1,16.52-13.41q10.78-4.59,26-4.6,24.92,0,37.5,10.92t13.23,29.16l-26.72,1.17q-1.71-10.2-7.36-14.67t-16.92-4.46q-11.64,0-18.23,4.78a9.64,9.64,0,0,0-4.25,8.21,10.18,10.18,0,0,0,4,8q5.06,4.24,24.55,8.84t28.83,9.52a37.23,37.23,0,0,1,14.63,13.45q5.28,8.54,5.28,21.08a39,39,0,0,1-6.32,21.3A37.86,37.86,0,0,1,503,601.66q-11.57,4.83-28.8,4.83-25.08,0-38.54-11.6T419.57,561.09Z"/><path class="cls-5" d="M584.38,604.14V548.45l-48.47-76.63h31.32l31.14,52.35,30.51-52.35h30.78L611,548.63v55.51Z"/><path class="cls-5" d="M667.51,538.79q0-20.22,6-33.94a62.24,62.24,0,0,1,12.32-18.14A51.48,51.48,0,0,1,703,474.8q12.38-5.24,28.53-5.24,29.24,0,46.8,18.14t17.55,50.46q0,32-17.42,50.14t-46.57,18.1q-29.52,0-46.94-18T667.51,538.79Zm27.53-.9q0,22.47,10.38,34.07t26.36,11.6q16,0,26.22-11.51t10.24-34.52q0-22.75-10-33.94T731.78,492.4q-16.51,0-26.63,11.32T695,537.89Z"/></svg>