<svg id="Layer_1" data-name="Layer 1" xmlns="http://www.w3.org/2000/svg" viewBox="0 0 1080 1080"><defs><style>.cls-1,.cls-2{fill:none;}.cls-2{stroke:#231f20;stroke-miterlimit:10;stroke-width:0.5px;}.cls-3{fill:#fdfefe;}.cls-4{fill:#231f20;}.cls-5{fill:#fff;}</style></defs><title>PLATFORM ASSET</title><rect class="cls-1" x="0.08" width="1080" height="1080"/><rect x="276.95" y="80.19" width="526.26" height="212.63"/><rect x="276.95" y="787.18" width="526.26" height="212.63"/><polygon class="cls-2" points="803.21 787 276.95 787.18 276.95 292.82 803.21 292.82 803.21 787"/><path class="cls-3" d="M353.91,876.59V826.65h16.18q9.21,0,12,.75a13.07,13.07,0,0,1,7.19,4.89,15.5,15.5,0,0,1,2.9,9.72,16.35,16.35,0,0,1-1.67,7.74,13.67,13.67,0,0,1-4.24,4.92A14.79,14.79,0,0,1,381,857a58.3,58.3,0,0,1-10.46.71H364v18.84ZM364,835.1v14.17h5.51c4,0,6.63-.26,8-.78a6.57,6.57,0,0,0,4.29-6.34,6.49,6.49,0,0,0-1.6-4.5,7,7,0,0,0-4.06-2.21,48,48,0,0,0-7.25-.34Z"/><path class="cls-3" d="M400.72,876.59V827.06H410.8v41.12h25.07v8.41Z"/><path class="cls-3" d="M488.1,876.59h-11l-4.36-11.34h-20l-4.12,11.34H438l19.45-49.94H468.1Zm-18.57-19.76-6.88-18.53-6.75,18.53Z"/><path class="cls-3" d="M499.51,876.59V835.1H484.69v-8.45h39.69v8.45H509.59v41.49Z"/><path class="cls-3" d="M531,876.59V826.65h34.24v8.45H541v11.82h20.85v8.45H541v21.22Z"/><path class="cls-3" d="M571.45,851.93a31.6,31.6,0,0,1,2.29-12.81,23.33,23.33,0,0,1,4.65-6.85,19.45,19.45,0,0,1,6.45-4.5,27.55,27.55,0,0,1,10.77-2q11,0,17.66,6.85t6.63,19q0,12.09-6.58,18.92t-17.58,6.83q-11.13,0-17.71-6.79T571.45,851.93Zm10.39-.34q0,8.48,3.92,12.86a12.79,12.79,0,0,0,10,4.37,12.61,12.61,0,0,0,9.89-4.34q3.87-4.35,3.87-13t-3.76-12.81a14,14,0,0,0-20.05.05Q581.85,843,581.84,851.59Z"/><path class="cls-3" d="M627.8,876.59V826.65H649q8,0,11.63,1.35a11.43,11.43,0,0,1,5.81,4.78,14.35,14.35,0,0,1,2.18,7.87,13.33,13.33,0,0,1-3.3,9.28q-3.3,3.68-9.88,4.62a23.54,23.54,0,0,1,5.4,4.19,56.66,56.66,0,0,1,5.74,8.11l6.1,9.74H660.64l-7.29-10.87a69.7,69.7,0,0,0-5.32-7.34,7.76,7.76,0,0,0-3-2.08,16.78,16.78,0,0,0-5.07-.56h-2v20.85Zm10.08-28.82h7.46q7.26,0,9.06-.61a5.41,5.41,0,0,0,2.83-2.11,6.52,6.52,0,0,0,1-3.75,6,6,0,0,0-1.34-4.07,6.16,6.16,0,0,0-3.8-2q-1.23-.16-7.36-.17h-7.87Z"/><path class="cls-3" d="M678,876.59V826.65H693.1l9.06,34.07,9-34.07h15.13v49.94h-9.37V837.28L707,876.59h-9.71l-9.88-39.31v39.31Z"/><path class="cls-3" d="M474.61,960.31h-11L459.28,949h-20l-4.12,11.34H424.5L444,910.37h10.66ZM456,940.55,449.16,922l-6.75,18.53Z"/><path class="cls-3" d="M477.4,944.06l9.81-.95q.89,4.93,3.59,7.25a10.86,10.86,0,0,0,7.31,2.32q4.88,0,7.34-2.06a6.13,6.13,0,0,0,2.47-4.82,4.53,4.53,0,0,0-1-3,8.25,8.25,0,0,0-3.62-2.16q-1.78-.61-8.08-2.18-8.1-2-11.38-4.94a13.13,13.13,0,0,1-2.43-17.19,13.58,13.58,0,0,1,6.23-5.06,25.17,25.17,0,0,1,9.83-1.73q9.4,0,14.15,4.12a14.52,14.52,0,0,1,5,11l-10.08.45a8.59,8.59,0,0,0-2.77-5.54c-1.42-1.12-3.55-1.69-6.39-1.69a11.53,11.53,0,0,0-6.88,1.81,3.62,3.62,0,0,0-1.6,3.1,3.82,3.82,0,0,0,1.49,3c1.28,1.07,4.36,2.18,9.27,3.34a49.29,49.29,0,0,1,10.88,3.59,14,14,0,0,1,5.52,5.08,15.68,15.68,0,0,1-.39,16,14.27,14.27,0,0,1-6.74,5.57A28.21,28.21,0,0,1,498,961.19q-9.48,0-14.55-4.37T477.4,944.06Z"/><path class="cls-3" d="M523.93,944.06l9.81-.95q.88,4.93,3.6,7.25a10.82,10.82,0,0,0,7.3,2.32q4.88,0,7.35-2.06a6.16,6.16,0,0,0,2.47-4.82,4.58,4.58,0,0,0-1-3,8.35,8.35,0,0,0-3.63-2.16q-1.77-.61-8.07-2.18-8.12-2-11.38-4.94a13.12,13.12,0,0,1-2.44-17.19,13.56,13.56,0,0,1,6.24-5.06,25.08,25.08,0,0,1,9.82-1.73q9.4,0,14.16,4.12a14.55,14.55,0,0,1,5,11l-10.09.45q-.64-3.86-2.77-5.54c-1.42-1.12-3.55-1.69-6.39-1.69a11.55,11.55,0,0,0-6.88,1.81,3.62,3.62,0,0,0-1.6,3.1,3.83,3.83,0,0,0,1.5,3q1.9,1.61,9.26,3.34A49.41,49.41,0,0,1,557,932.73a14,14,0,0,1,5.52,5.08,14.91,14.91,0,0,1,2,8,14.72,14.72,0,0,1-2.39,8,14.23,14.23,0,0,1-6.74,5.57,28.21,28.21,0,0,1-10.87,1.82q-9.46,0-14.54-4.37T523.93,944.06Z"/><path class="cls-3" d="M573,960.31V910.37h37v8.45H583.1v11.07h25.08v8.41H583.1v13.59H611v8.42Z"/><path class="cls-3" d="M630.8,960.31V918.82H616v-8.45h39.68v8.45H640.88v41.49Z"/><path class="cls-4" d="M285.28,634.74V452.15h36.87V524h72.23V452.15h36.87V634.74H394.38V554.9H322.15v79.84Z"/><path class="cls-4" d="M455.11,634.41V451.82H590.5v30.89H492v40.48h91.67V554H492v49.69H594v30.77Z"/><path class="cls-4" d="M617.77,540.79q0-27.9,8.35-46.83a85.92,85.92,0,0,1,17-25,71.07,71.07,0,0,1,23.6-16.44q17.07-7.23,39.36-7.23,40.35,0,64.58,25t24.22,69.62q0,44.22-24,69.19t-64.26,25q-40.74,0-64.77-24.85T617.77,540.79Zm38-1.24q0,31,14.32,47t36.37,16q22,0,36.18-15.88t14.14-47.64q0-31.39-13.76-46.83t-36.56-15.45q-22.79,0-36.74,15.63T655.76,539.55Z"/><path class="cls-5" d="M318.44,169.91V117.65H329v20.57h20.68V117.65h10.55v52.26H349.67V147.06H329v22.85Z"/><path class="cls-5" d="M370.8,169.91V117.65h10.55v52.26Z"/><path class="cls-5" d="M415.72,150.69v-8.8h22.74V162.7a28.54,28.54,0,0,1-9.61,5.65,34.9,34.9,0,0,1-12.74,2.45,28.66,28.66,0,0,1-14.3-3.44,22,22,0,0,1-9.16-9.84,31.87,31.87,0,0,1-3.06-13.92A30.11,30.11,0,0,1,393,129.09a23,23,0,0,1,10-9.73,27.08,27.08,0,0,1,12.51-2.6q9.73,0,15.2,4.08a18.43,18.43,0,0,1,7,11.28l-10.48,2a11.13,11.13,0,0,0-4.15-6.08,12.58,12.58,0,0,0-7.61-2.22q-6.92,0-11,4.38t-4.08,13q0,9.3,4.14,14a13.78,13.78,0,0,0,10.83,4.65,18.32,18.32,0,0,0,6.65-1.3,22.73,22.73,0,0,0,5.72-3.16v-6.63Z"/><path class="cls-5" d="M448.22,169.91V117.65h10.56v20.57h20.67V117.65H490v52.26H479.45V147.06H458.78v22.85Z"/><path class="cls-5" d="M521.19,169.91V117.65h38.74v8.84H531.74v11.59H558v8.8H531.74V161.1h29.19v8.81Z"/><path class="cls-5" d="M617,169.91H605.52L601,158H580.07l-4.31,11.87H564.57l20.35-52.26h11.16Zm-19.43-20.68-7.2-19.39-7,19.39Z"/><path class="cls-5" d="M622.63,169.91V117.65h22.21q8.37,0,12.17,1.41a12,12,0,0,1,6.08,5,15,15,0,0,1,2.28,8.23,13.91,13.91,0,0,1-3.46,9.71q-3.45,3.84-10.33,4.83a24.8,24.8,0,0,1,5.65,4.39,60.16,60.16,0,0,1,6,8.48l6.38,10.2H657l-7.62-11.38a75.89,75.89,0,0,0-5.56-7.68,8.15,8.15,0,0,0-3.18-2.17,17.38,17.38,0,0,0-5.31-.59h-2.14v21.82Zm10.55-30.16H641q7.59,0,9.48-.64a5.71,5.71,0,0,0,3-2.21A6.83,6.83,0,0,0,654.5,133a6.26,6.26,0,0,0-1.41-4.26,6.44,6.44,0,0,0-4-2q-1.29-.18-7.7-.18h-8.24Z"/><path class="cls-5" d="M687.08,169.91V126.49H671.57v-8.84H713.1v8.84H697.63v43.42Z"/><path class="cls-5" d="M719.94,169.91V117.65h10.55v20.57h20.68V117.65h10.55v52.26H751.17V147.06H730.49v22.85Z"/><path class="cls-5" d="M428.87,229.55a33.09,33.09,0,0,1,2.39-13.4,24.83,24.83,0,0,1,4.86-7.17,20.41,20.41,0,0,1,6.76-4.7,28.63,28.63,0,0,1,11.26-2.07q11.55,0,18.48,7.17t6.94,19.92q0,12.66-6.88,19.8t-18.4,7.15q-11.65,0-18.53-7.11T428.87,229.55Zm10.87-.36q0,8.88,4.1,13.46a13.36,13.36,0,0,0,10.41,4.58,13.22,13.22,0,0,0,10.35-4.54q4-4.55,4-13.64t-3.94-13.4a14.6,14.6,0,0,0-21,0Q439.74,220.19,439.74,229.19Z"/><path class="cls-5" d="M487.83,255.36V203.1H510q8.38,0,12.17,1.41a12,12,0,0,1,6.08,5,15,15,0,0,1,2.28,8.23,14,14,0,0,1-3.45,9.72q-3.47,3.83-10.34,4.82a25.09,25.09,0,0,1,5.65,4.39,59.34,59.34,0,0,1,6,8.48l6.39,10.2H522.19L514.56,244a72,72,0,0,0-5.56-7.68,8.12,8.12,0,0,0-3.17-2.18,17.47,17.47,0,0,0-5.31-.59h-2.14v21.82Zm10.55-30.16h7.8c5.07,0,8.22-.21,9.48-.64a5.66,5.66,0,0,0,3-2.21,6.73,6.73,0,0,0,1.07-3.92,6.26,6.26,0,0,0-1.41-4.26,6.46,6.46,0,0,0-4-2c-.86-.12-3.42-.18-7.7-.18h-8.23Z"/><path class="cls-5" d="M540.54,203.1h20.89a60.79,60.79,0,0,1,9.25.52,13.4,13.4,0,0,1,5.45,2.16,13.17,13.17,0,0,1,4,4.36,11.85,11.85,0,0,1,1.61,6.12,12.4,12.4,0,0,1-7.34,11.33,13.8,13.8,0,0,1,7.34,4.74,12.61,12.61,0,0,1,2.57,7.88,15.59,15.59,0,0,1-1.66,6.93,14,14,0,0,1-4.53,5.38,14.87,14.87,0,0,1-7.07,2.48q-2.64.28-12.73.36H540.54Zm10.55,8.7v12.08H558c4.11,0,6.67-.06,7.66-.18a6.9,6.9,0,0,0,4.26-1.87,5.48,5.48,0,0,0,1.55-4.08,5.75,5.75,0,0,0-1.33-3.94,6,6,0,0,0-4-1.83q-1.56-.18-9-.18Zm0,20.78v14h9.77a47,47,0,0,0,7.24-.32,6.16,6.16,0,0,0,5.31-6.52,6.8,6.8,0,0,0-1.14-4,6.41,6.41,0,0,0-3.3-2.39q-2.16-.75-9.36-.75Z"/><path class="cls-5" d="M592.91,255.36V203.1h10.55v52.26Z"/><path class="cls-5" d="M625.27,255.36V211.94h-15.5V203.1h41.52v8.84H635.82v43.42Z"/></svg>