<svg id="Layer_1" data-name="Layer 1" xmlns="http://www.w3.org/2000/svg" viewBox="0 0 1080 1080"><defs><style>.cls-1,.cls-2{fill:none;}.cls-2{stroke:#231f20;stroke-miterlimit:10;stroke-width:0.5px;}.cls-3{fill:#fdfefe;}.cls-4{fill:#231f20;}.cls-5{fill:#fff;}</style></defs><title>PLATFORM ASSET</title><rect class="cls-1" x="0.08" width="1080" height="1080"/><rect x="276.95" y="80.19" width="526.26" height="212.63"/><rect x="276.95" y="787.18" width="526.26" height="212.63"/><polygon class="cls-2" points="803.21 787 276.95 787.18 276.95 292.82 803.21 292.82 803.21 787"/><path class="cls-3" d="M353.91,876.59V826.65h16.18q9.21,0,12,.75a13.07,13.07,0,0,1,7.19,4.89,15.5,15.5,0,0,1,2.9,9.72,16.35,16.35,0,0,1-1.67,7.74,13.67,13.67,0,0,1-4.24,4.92A14.79,14.79,0,0,1,381,857a58.3,58.3,0,0,1-10.46.71H364v18.84ZM364,835.1v14.17h5.51c4,0,6.63-.26,8-.78a6.57,6.57,0,0,0,4.29-6.34,6.49,6.49,0,0,0-1.6-4.5,7,7,0,0,0-4.06-2.21,48,48,0,0,0-7.25-.34Z"/><path class="cls-3" d="M400.72,876.59V827.06H410.8v41.12h25.07v8.41Z"/><path class="cls-3" d="M488.1,876.59h-11l-4.36-11.34h-20l-4.12,11.34H438l19.45-49.94H468.1Zm-18.57-19.76-6.88-18.53-6.75,18.53Z"/><path class="cls-3" d="M499.51,876.59V835.1H484.69v-8.45h39.69v8.45H509.59v41.49Z"/><path class="cls-3" d="M531,876.59V826.65h34.24v8.45H541v11.82h20.85v8.45H541v21.22Z"/><path class="cls-3" d="M571.45,851.93a31.6,31.6,0,0,1,2.29-12.81,23.33,23.33,0,0,1,4.65-6.85,19.45,19.45,0,0,1,6.45-4.5,27.55,27.55,0,0,1,10.77-2q11,0,17.66,6.85t6.63,19q0,12.09-6.58,18.92t-17.58,6.83q-11.13,0-17.71-6.79T571.45,851.93Zm10.39-.34q0,8.48,3.92,12.86a12.79,12.79,0,0,0,10,4.37,12.61,12.61,0,0,0,9.89-4.34q3.87-4.35,3.87-13t-3.76-12.81a14,14,0,0,0-20.05.05Q581.85,843,581.84,851.59Z"/><path class="cls-3" d="M627.8,876.59V826.65H649q8,0,11.63,1.35a11.43,11.43,0,0,1,5.81,4.78,14.35,14.35,0,0,1,2.18,7.87,13.33,13.33,0,0,1-3.3,9.28q-3.3,3.68-9.88,4.62a23.54,23.54,0,0,1,5.4,4.19,56.66,56.66,0,0,1,5.74,8.11l6.1,9.74H660.64l-7.29-10.87a69.7,69.7,0,0,0-5.32-7.34,7.76,7.76,0,0,0-3-2.08,16.78,16.78,0,0,0-5.07-.56h-2v20.85Zm10.08-28.82h7.46q7.26,0,9.06-.61a5.41,5.41,0,0,0,2.83-2.11,6.52,6.52,0,0,0,1-3.75,6,6,0,0,0-1.34-4.07,6.16,6.16,0,0,0-3.8-2q-1.23-.16-7.36-.17h-7.87Z"/><path class="cls-3" d="M678,876.59V826.65H693.1l9.06,34.07,9-34.07h15.13v49.94h-9.37V837.28L707,876.59h-9.71l-9.88-39.31v39.31Z"/><path class="cls-3" d="M474.61,960.31h-11L459.28,949h-20l-4.12,11.34H424.5L444,910.37h10.66ZM456,940.55,449.16,922l-6.75,18.53Z"/><path class="cls-3" d="M477.4,944.06l9.81-.95q.89,4.93,3.59,7.25a10.86,10.86,0,0,0,7.31,2.32q4.88,0,7.34-2.06a6.13,6.13,0,0,0,2.47-4.82,4.53,4.53,0,0,0-1-3,8.25,8.25,0,0,0-3.62-2.16q-1.78-.61-8.08-2.18-8.1-2-11.38-4.94a13.13,13.13,0,0,1-2.43-17.19,13.58,13.58,0,0,1,6.23-5.06,25.17,25.17,0,0,1,9.83-1.73q9.4,0,14.15,4.12a14.52,14.52,0,0,1,5,11l-10.08.45a8.59,8.59,0,0,0-2.77-5.54c-1.42-1.12-3.55-1.69-6.39-1.69a11.53,11.53,0,0,0-6.88,1.81,3.62,3.62,0,0,0-1.6,3.1,3.82,3.82,0,0,0,1.49,3c1.28,1.07,4.36,2.18,9.27,3.34a49.29,49.29,0,0,1,10.88,3.59,14,14,0,0,1,5.52,5.08,15.68,15.68,0,0,1-.39,16,14.27,14.27,0,0,1-6.74,5.57A28.21,28.21,0,0,1,498,961.19q-9.48,0-14.55-4.37T477.4,944.06Z"/><path class="cls-3" d="M523.93,944.06l9.81-.95q.88,4.93,3.6,7.25a10.82,10.82,0,0,0,7.3,2.32q4.88,0,7.35-2.06a6.16,6.16,0,0,0,2.47-4.82,4.58,4.58,0,0,0-1-3,8.35,8.35,0,0,0-3.63-2.16q-1.77-.61-8.07-2.18-8.12-2-11.38-4.94a13.12,13.12,0,0,1-2.44-17.19,13.56,13.56,0,0,1,6.24-5.06,25.08,25.08,0,0,1,9.82-1.73q9.4,0,14.16,4.12a14.55,14.55,0,0,1,5,11l-10.09.45q-.64-3.86-2.77-5.54c-1.42-1.12-3.55-1.69-6.39-1.69a11.55,11.55,0,0,0-6.88,1.81,3.62,3.62,0,0,0-1.6,3.1,3.83,3.83,0,0,0,1.5,3q1.9,1.61,9.26,3.34A49.41,49.41,0,0,1,557,932.73a14,14,0,0,1,5.52,5.08,14.91,14.91,0,0,1,2,8,14.72,14.72,0,0,1-2.39,8,14.23,14.23,0,0,1-6.74,5.57,28.21,28.21,0,0,1-10.87,1.82q-9.46,0-14.54-4.37T523.93,944.06Z"/><path class="cls-3" d="M573,960.31V910.37h37v8.45H583.1v11.07h25.08v8.41H583.1v13.59H611v8.42Z"/><path class="cls-3" d="M630.8,960.31V918.82H616v-8.45h39.68v8.45H640.88v41.49Z"/><path class="cls-4" d="M282.76,676.79V412.87h53.29V676.79Z"/><path class="cls-4" d="M368.94,585.76l51.84-5q4.68,26.1,19,38.34t38.61,12.24q25.74,0,38.8-10.89t13-25.47A24,24,0,0,0,524.75,579q-5.49-6.57-19.17-11.43-9.36-3.26-42.67-11.53-42.86-10.6-60.13-26.1-24.3-21.78-24.3-53.11a67.83,67.83,0,0,1,11.43-37.71q11.43-17.55,32.95-26.74t51.93-9.18q49.69,0,74.8,21.78T576,483.14l-53.29,2.34q-3.42-20.34-14.67-29.25t-33.76-8.91q-23.22,0-36.36,9.54a19.2,19.2,0,0,0-8.46,16.38q0,9.36,7.92,16,10.08,8.46,49,17.63t57.52,19A74.15,74.15,0,0,1,573,552.72q10.53,17,10.53,42a77.71,77.71,0,0,1-12.6,42.48q-12.61,19.82-35.65,29.44t-57.43,9.63q-50,0-76.87-23.13T368.94,585.76Z"/><path class="cls-4" d="M611.61,675.83V414.07H664.9V631.36H797.4v44.47Z"/><path class="cls-5" d="M433.27,147V94.77h10.55V147Z"/><path class="cls-5" d="M454,147V94.77h10.27l21.38,34.9V94.77h9.81V147H484.85L463.78,113V147Z"/><path class="cls-5" d="M518.36,147V103.61H502.85V94.77h41.52v8.84H528.91V147Z"/><path class="cls-5" d="M551.18,147V94.77h38.75v8.84h-28.2V115.2H588V124H561.73v14.22h29.2V147Z"/><path class="cls-5" d="M599.91,147V94.77h22.21q8.37,0,12.17,1.41a12.07,12.07,0,0,1,6.08,5,15,15,0,0,1,2.28,8.23,14,14,0,0,1-3.46,9.72Q635.72,123,628.85,124a24.56,24.56,0,0,1,5.65,4.38,59.2,59.2,0,0,1,6,8.48l6.38,10.2H634.27l-7.63-11.37a72,72,0,0,0-5.56-7.68,8.05,8.05,0,0,0-3.17-2.18,17.47,17.47,0,0,0-5.31-.59h-2.14V147Zm10.55-30.16h7.81q7.59,0,9.48-.64a5.7,5.7,0,0,0,3-2.21,6.81,6.81,0,0,0,1.07-3.92,6.26,6.26,0,0,0-1.41-4.26,6.51,6.51,0,0,0-4-2q-1.27-.18-7.7-.18h-8.23Z"/><path class="cls-5" d="M347.21,195.61l10.26-1q.93,5.17,3.76,7.59a11.36,11.36,0,0,0,7.65,2.43q5.1,0,7.68-2.16a6.41,6.41,0,0,0,2.58-5,4.79,4.79,0,0,0-1.08-3.16,8.77,8.77,0,0,0-3.8-2.26q-1.85-.64-8.45-2.28-8.47-2.1-11.9-5.17a13.58,13.58,0,0,1-4.81-10.51,13.42,13.42,0,0,1,2.26-7.47,14.13,14.13,0,0,1,6.52-5.29,26,26,0,0,1,10.29-1.82q9.84,0,14.81,4.31a15.25,15.25,0,0,1,5.22,11.51l-10.55.47q-.67-4-2.91-5.8t-6.68-1.76a12,12,0,0,0-7.2,1.89,3.81,3.81,0,0,0-1.68,3.24,4,4,0,0,0,1.57,3.17q2,1.68,9.7,3.5a50.89,50.89,0,0,1,11.39,3.76,14.59,14.59,0,0,1,5.77,5.31,16.41,16.41,0,0,1-.41,16.73,14.91,14.91,0,0,1-7.06,5.83,29.6,29.6,0,0,1-11.37,1.91q-9.9,0-15.22-4.58T347.21,195.61Z"/><path class="cls-5" d="M445.69,212.61H434.22l-4.57-11.87H408.77l-4.32,11.87H393.26l20.35-52.25h11.16Zm-19.42-20.67-7.2-19.39L412,191.94Z"/><path class="cls-5" d="M457.64,212.61V169.2H442.13v-8.84h41.52v8.84H468.19v43.41Z"/><path class="cls-5" d="M490.46,212.61V160.36h38.75v8.84H501v11.58h26.24v8.81H501v14.22h29.2v8.8Z"/><path class="cls-5" d="M539.44,212.61V160.79H550v43h26.23v8.8Z"/><path class="cls-5" d="M584,212.61V160.79h10.55v43h26.23v8.8Z"/><path class="cls-5" d="M628,212.61V160.36h10.55v52.25Z"/><path class="cls-5" d="M660.38,212.61V169.2h-15.5v-8.84H686.4v8.84H670.93v43.41Z"/><path class="cls-5" d="M693.21,212.61V160.36H732v8.84H703.76v11.58H730v8.81H703.76v14.22H733v8.8Z"/><path class="cls-5" d="M457.79,278.23V226.41h10.55v43h26.24v8.8Z"/><path class="cls-5" d="M501.78,278.23V226h10.55v52.25Z"/><path class="cls-5" d="M522.49,278.23V226h10.26l21.39,34.89V226h9.8v52.25H553.36l-21.07-34.07v34.07Z"/><path class="cls-5" d="M575.24,278.23V226h10.55v23.2L607.11,226H621.3l-19.68,20.35,20.75,31.9H608.71l-14.36-24.52-8.56,8.73v15.79Z"/></svg>