<svg id="Layer_1" data-name="Layer 1" xmlns="http://www.w3.org/2000/svg" viewBox="0 0 1080 1080"><defs><style>.cls-1,.cls-2{fill:none;}.cls-2{stroke:#231f20;stroke-miterlimit:10;stroke-width:0.5px;}.cls-3{fill:#fdfefe;}.cls-4{fill:#231f20;}.cls-5{fill:#fff;}</style></defs><title>PLATFORM ASSET</title><rect class="cls-1" x="5.12" width="1080" height="1080"/><rect x="281.99" y="80.19" width="526.26" height="212.63"/><rect x="281.99" y="787.18" width="526.26" height="212.63"/><polygon class="cls-2" points="808.25 787 281.99 787.18 281.99 292.82 808.25 292.82 808.25 787"/><path class="cls-3" d="M359,876.59V826.65h16.18q9.21,0,12,.75a13.07,13.07,0,0,1,7.19,4.89,15.5,15.5,0,0,1,2.9,9.72,16.35,16.35,0,0,1-1.67,7.74,13.67,13.67,0,0,1-4.24,4.92,14.79,14.79,0,0,1-5.23,2.37,58.3,58.3,0,0,1-10.46.71H369v18.84ZM369,835.1v14.17h5.51c4,0,6.63-.26,8-.78a6.57,6.57,0,0,0,4.29-6.34,6.49,6.49,0,0,0-1.6-4.5,7,7,0,0,0-4.06-2.21,48,48,0,0,0-7.25-.34Z"/><path class="cls-3" d="M405.76,876.59V827.06h10.08v41.12h25.07v8.41Z"/><path class="cls-3" d="M493.14,876.59h-11l-4.36-11.34h-20l-4.12,11.34H443l19.45-49.94h10.66Zm-18.57-19.76-6.88-18.53-6.75,18.53Z"/><path class="cls-3" d="M504.55,876.59V835.1H489.73v-8.45h39.69v8.45H514.63v41.49Z"/><path class="cls-3" d="M536,876.59V826.65h34.24v8.45H546.07v11.82h20.85v8.45H546.07v21.22Z"/><path class="cls-3" d="M576.49,851.93a31.6,31.6,0,0,1,2.29-12.81,23.33,23.33,0,0,1,4.65-6.85,19.45,19.45,0,0,1,6.45-4.5,27.55,27.55,0,0,1,10.77-2q11,0,17.66,6.85t6.63,19q0,12.09-6.58,18.92t-17.58,6.83q-11.13,0-17.71-6.79T576.49,851.93Zm10.39-.34q0,8.48,3.92,12.86a12.79,12.79,0,0,0,10,4.37,12.61,12.61,0,0,0,9.89-4.34q3.87-4.35,3.87-13t-3.76-12.81a14,14,0,0,0-20,.05Q586.89,843,586.88,851.59Z"/><path class="cls-3" d="M632.84,876.59V826.65h21.22q8,0,11.63,1.35a11.43,11.43,0,0,1,5.81,4.78,14.35,14.35,0,0,1,2.18,7.87,13.33,13.33,0,0,1-3.3,9.28q-3.3,3.68-9.88,4.62a23.54,23.54,0,0,1,5.4,4.19,56.66,56.66,0,0,1,5.74,8.11l6.1,9.74H665.68l-7.29-10.87a69.7,69.7,0,0,0-5.32-7.34,7.76,7.76,0,0,0-3-2.08,16.78,16.78,0,0,0-5.07-.56h-2.05v20.85Zm10.08-28.82h7.46q7.26,0,9.06-.61a5.41,5.41,0,0,0,2.83-2.11,6.52,6.52,0,0,0,1-3.75,6,6,0,0,0-1.34-4.07,6.16,6.16,0,0,0-3.8-2q-1.23-.16-7.36-.17h-7.87Z"/><path class="cls-3" d="M683.05,876.59V826.65h15.09l9.06,34.07,9-34.07h15.13v49.94h-9.37V837.28L712,876.59H702.3l-9.88-39.31v39.31Z"/><path class="cls-3" d="M479.65,960.31h-11L464.32,949h-20l-4.12,11.34H429.54L449,910.37h10.66Zm-18.57-19.76L454.2,922l-6.75,18.53Z"/><path class="cls-3" d="M482.44,944.06l9.81-.95q.88,4.93,3.59,7.25a10.86,10.86,0,0,0,7.31,2.32q4.88,0,7.34-2.06A6.13,6.13,0,0,0,513,945.8a4.53,4.53,0,0,0-1-3,8.25,8.25,0,0,0-3.62-2.16q-1.79-.61-8.08-2.18-8.1-2-11.38-4.94a13.13,13.13,0,0,1-2.43-17.19,13.58,13.58,0,0,1,6.23-5.06,25.17,25.17,0,0,1,9.83-1.73q9.4,0,14.15,4.12a14.52,14.52,0,0,1,5,11l-10.08.45a8.59,8.59,0,0,0-2.77-5.54c-1.42-1.12-3.55-1.69-6.39-1.69a11.53,11.53,0,0,0-6.88,1.81,3.62,3.62,0,0,0-1.6,3.1,3.82,3.82,0,0,0,1.49,3c1.28,1.07,4.36,2.18,9.27,3.34a49.29,49.29,0,0,1,10.88,3.59,14,14,0,0,1,5.52,5.08,15.68,15.68,0,0,1-.39,16,14.27,14.27,0,0,1-6.74,5.57,28.21,28.21,0,0,1-10.87,1.82q-9.48,0-14.55-4.37T482.44,944.06Z"/><path class="cls-3" d="M529,944.06l9.81-.95q.88,4.93,3.6,7.25a10.82,10.82,0,0,0,7.3,2.32q4.88,0,7.35-2.06a6.16,6.16,0,0,0,2.47-4.82,4.58,4.58,0,0,0-1-3,8.35,8.35,0,0,0-3.63-2.16q-1.77-.61-8.07-2.18-8.12-2-11.38-4.94a13.12,13.12,0,0,1-2.44-17.19,13.56,13.56,0,0,1,6.24-5.06,25.08,25.08,0,0,1,9.82-1.73q9.4,0,14.16,4.12a14.55,14.55,0,0,1,5,11l-10.09.45q-.64-3.86-2.77-5.54c-1.42-1.12-3.55-1.69-6.39-1.69a11.55,11.55,0,0,0-6.88,1.81,3.62,3.62,0,0,0-1.6,3.1,3.83,3.83,0,0,0,1.5,3q1.91,1.61,9.26,3.34a49.41,49.41,0,0,1,10.89,3.59,14,14,0,0,1,5.52,5.08,14.91,14.91,0,0,1,2,8,14.72,14.72,0,0,1-2.39,8,14.23,14.23,0,0,1-6.74,5.57,28.21,28.21,0,0,1-10.87,1.82q-9.47,0-14.54-4.37T529,944.06Z"/><path class="cls-3" d="M578.06,960.31V910.37h37v8.45h-27v11.07h25.08v8.41H588.14v13.59H616v8.42Z"/><path class="cls-3" d="M635.84,960.31V918.82H621v-8.45H660.7v8.45H645.92v41.49Z"/><path class="cls-4" d="M284.2,642.4V446.67H324V609.15h99.08V642.4Z"/><path class="cls-4" d="M438.82,642V444.69H585.14v33.39H478.66v43.75h99.08v33.25H478.66v53.71H588.91V642Z"/><path class="cls-4" d="M614.62,540.85q0-30.15,9-50.61A92.87,92.87,0,0,1,642,463.18a76.72,76.72,0,0,1,25.51-17.77q18.44-7.8,42.53-7.81,43.62,0,69.8,27.06T806,539.91q0,47.79-26,74.78t-69.46,27q-44,0-70-26.86T614.62,540.85Zm41.06-1.34q0,33.51,15.48,50.81t39.31,17.3q23.82,0,39.1-17.16T764.85,539q0-33.93-14.87-50.62t-39.51-16.69q-24.63,0-39.71,16.89T655.68,539.51Z"/><path class="cls-5" d="M462.82,146V94.16h10.55v43H499.6V146Z"/><path class="cls-5" d="M505,120.18a33.31,33.31,0,0,1,2.39-13.41,24.62,24.62,0,0,1,4.87-7.16,20.28,20.28,0,0,1,6.75-4.7,28.68,28.68,0,0,1,11.27-2.07q11.54,0,18.48,7.16t6.93,19.93q0,12.65-6.88,19.8t-18.39,7.14q-11.65,0-18.54-7.11T505,120.18Zm10.88-.36q0,8.88,4.09,13.46a13.39,13.39,0,0,0,10.41,4.58,13.25,13.25,0,0,0,10.36-4.55q4-4.55,4-13.63t-3.94-13.4a14.59,14.59,0,0,0-21,0Q515.86,110.8,515.86,119.82Z"/><path class="cls-5" d="M571.32,146,558.84,93.73h10.8l7.88,35.89,9.55-35.89h12.55l9.16,36.5,8-36.5h10.62L614.73,146H603.54l-10.41-39.06L582.76,146Z"/><path class="cls-5" d="M424.85,212.63V160.38H463.6v8.84H435.41V180.8h26.23v8.8H435.41v14.23H464.6v8.8Z"/><path class="cls-5" d="M520.67,212.63H509.19l-4.56-11.87H483.74l-4.31,11.87h-11.2l20.36-52.25h11.15ZM501.24,192,494,172.57,487,192Z"/><path class="cls-5" d="M526.3,212.63V160.38h22.21q8.37,0,12.17,1.4a12.07,12.07,0,0,1,6.08,5A15.08,15.08,0,0,1,569,175a14,14,0,0,1-3.46,9.71q-3.47,3.82-10.34,4.83a24.56,24.56,0,0,1,5.65,4.38,59.44,59.44,0,0,1,6,8.49l6.38,10.19H560.66L553,201.26a74.27,74.27,0,0,0-5.56-7.68,8.16,8.16,0,0,0-3.17-2.18,17.54,17.54,0,0,0-5.31-.58h-2.14v21.81Zm10.55-30.15h7.81q7.59,0,9.48-.65a5.65,5.65,0,0,0,3-2.21,6.81,6.81,0,0,0,1.07-3.92,6.29,6.29,0,0,0-1.41-4.26,6.51,6.51,0,0,0-4-2.05q-1.28-.16-7.7-.17h-8.23Z"/><path class="cls-5" d="M590.75,212.63V169.22H575.24v-8.84h41.53v8.84H601.3v43.41Z"/><path class="cls-5" d="M623.61,212.63V160.38h10.55v20.56h20.67V160.38h10.56v52.25H654.83V189.78H634.16v22.85Z"/><path class="cls-5" d="M433.91,253.47a33.09,33.09,0,0,1,2.39-13.4,24.65,24.65,0,0,1,4.86-7.16,20.3,20.3,0,0,1,6.76-4.71,28.63,28.63,0,0,1,11.26-2.07q11.55,0,18.48,7.17t6.94,19.92q0,12.66-6.88,19.8t-18.4,7.15q-11.65,0-18.53-7.11T433.91,253.47Zm10.87-.35q0,8.86,4.1,13.45a14.09,14.09,0,0,0,20.76,0q4-4.55,4.05-13.64t-3.94-13.4a14.6,14.6,0,0,0-21,.05C446.11,242.61,444.78,247.1,444.78,253.12Z"/><path class="cls-5" d="M492.87,279.28V227h22.2q8.38,0,12.17,1.41a12,12,0,0,1,6.08,5,15.07,15.07,0,0,1,2.28,8.23,14,14,0,0,1-3.45,9.72q-3.46,3.83-10.34,4.83a24.78,24.78,0,0,1,5.65,4.38,59.34,59.34,0,0,1,6,8.48l6.38,10.2H527.23l-7.63-11.37a73.1,73.1,0,0,0-5.56-7.68,8.12,8.12,0,0,0-3.17-2.18,17.5,17.5,0,0,0-5.32-.59h-2.13v21.82Zm10.55-30.16h7.8q7.59,0,9.48-.64a5.66,5.66,0,0,0,3-2.21,6.81,6.81,0,0,0,1.07-3.92,6.26,6.26,0,0,0-1.41-4.26,6.49,6.49,0,0,0-4-2.05c-.86-.12-3.42-.18-7.7-.18h-8.23Z"/><path class="cls-5" d="M545.58,227h20.89a60.79,60.79,0,0,1,9.25.52,13.69,13.69,0,0,1,5.45,2.16,13.27,13.27,0,0,1,4,4.36,11.85,11.85,0,0,1,1.61,6.12,12.4,12.4,0,0,1-7.34,11.33,13.8,13.8,0,0,1,7.34,4.74,12.61,12.61,0,0,1,2.57,7.88,15.56,15.56,0,0,1-1.66,6.93,14,14,0,0,1-4.53,5.38,14.87,14.87,0,0,1-7.07,2.48q-2.64.29-12.73.36H545.58Zm10.55,8.7V247.8h6.92c4.11,0,6.67-.05,7.66-.17a7,7,0,0,0,4.26-1.87,5.52,5.52,0,0,0,1.55-4.09,5.72,5.72,0,0,0-1.33-3.93,6,6,0,0,0-4-1.84q-1.56-.18-9-.18Zm0,20.78v14h9.77a47,47,0,0,0,7.24-.32,6.16,6.16,0,0,0,5.31-6.52,6.8,6.8,0,0,0-1.14-4,6.47,6.47,0,0,0-3.3-2.39q-2.16-.75-9.36-.75Z"/><path class="cls-5" d="M598,279.28V227H608.5v52.26Z"/><path class="cls-5" d="M630.31,279.28V235.86h-15.5V227h41.52v8.84H640.86v43.42Z"/></svg>