<svg id="Layer_1" data-name="Layer 1" xmlns="http://www.w3.org/2000/svg" viewBox="0 0 1080 1080"><defs><style>.cls-1,.cls-2{fill:none;}.cls-2{stroke:#231f20;stroke-miterlimit:10;stroke-width:0.5px;}.cls-3{fill:#fdfefe;}.cls-4{fill:#231f20;}.cls-5{fill:#fff;}</style></defs><title>correction plateform asset</title><rect x="285.94" y="69.21" width="526.26" height="212.63"/><rect class="cls-1" x="7.51" y="-10.98" width="1080" height="1080"/><rect x="284.38" y="776.21" width="526.26" height="212.63"/><polygon class="cls-2" points="810.64 776.02 284.38 776.21 284.38 281.84 810.64 281.84 810.64 776.02"/><path class="cls-3" d="M361.35,865.61V815.67h16.18c6.13,0,10.13.26,12,.75a13.14,13.14,0,0,1,7.19,4.89A15.51,15.51,0,0,1,399.6,831a16.33,16.33,0,0,1-1.67,7.73,13.58,13.58,0,0,1-4.24,4.92,14.37,14.37,0,0,1-5.23,2.37,57.2,57.2,0,0,1-10.46.72h-6.57v18.83Zm10.08-41.49v14.17H377q6,0,8-.78a6.61,6.61,0,0,0,3.15-2.45,6.72,6.72,0,0,0,1.14-3.89,6.43,6.43,0,0,0-1.6-4.49,7,7,0,0,0-4.05-2.22,49.69,49.69,0,0,0-7.26-.34Z"/><path class="cls-3" d="M408.15,865.61V816.08h10.09V857.2h25.07v8.41Z"/><path class="cls-3" d="M495.53,865.61h-11l-4.36-11.34h-20l-4.12,11.34h-10.7l19.45-49.94h10.66ZM477,845.86l-6.88-18.54-6.74,18.54Z"/><path class="cls-3" d="M506.94,865.61V824.12H492.12v-8.45h39.69v8.45H517v41.49Z"/><path class="cls-3" d="M538.38,865.61V815.67h34.24v8.45H548.47v11.82h20.85v8.45H548.47v21.22Z"/><path class="cls-3" d="M578.89,841a31.82,31.82,0,0,1,2.28-12.81,23.29,23.29,0,0,1,4.65-6.84,19.34,19.34,0,0,1,6.46-4.5,27.32,27.32,0,0,1,10.76-2q11,0,17.66,6.85t6.63,19q0,12.1-6.58,18.93t-17.57,6.83q-11.14,0-17.72-6.8T578.89,841Zm10.39-.34q0,8.49,3.92,12.86a13.45,13.45,0,0,0,19.84,0q3.86-4.34,3.86-13t-3.76-12.8a13.94,13.94,0,0,0-20,.05Q589.28,832,589.28,840.61Z"/><path class="cls-3" d="M635.23,865.61V815.67h21.22q8,0,11.64,1.35a11.49,11.49,0,0,1,5.81,4.79,14.39,14.39,0,0,1,2.18,7.87,13.35,13.35,0,0,1-3.31,9.28q-3.3,3.66-9.88,4.61a23.82,23.82,0,0,1,5.4,4.19,57.88,57.88,0,0,1,5.74,8.11l6.1,9.74H668.07l-7.29-10.86a70.55,70.55,0,0,0-5.31-7.34,7.75,7.75,0,0,0-3-2.08,16.38,16.38,0,0,0-5.07-.56h-2v20.84Zm10.09-28.82h7.46q7.25,0,9.06-.61a5.42,5.42,0,0,0,2.82-2.11,6.45,6.45,0,0,0,1-3.75,6,6,0,0,0-1.35-4.07,6.23,6.23,0,0,0-3.8-2q-1.23-.16-7.36-.17h-7.86Z"/><path class="cls-3" d="M685.44,865.61V815.67h15.1l9.06,34.07,9-34.07h15.12v49.94h-9.37V826.3l-9.91,39.31h-9.71l-9.88-39.31v39.31Z"/><path class="cls-3" d="M482,949.33h-11L466.71,938h-20l-4.12,11.34h-10.7l19.45-49.94H462Zm-18.57-19.75L456.59,911l-6.74,18.54Z"/><path class="cls-3" d="M484.83,933.08l9.81-1q.89,4.93,3.6,7.26a10.87,10.87,0,0,0,7.3,2.31c3.25,0,5.7-.68,7.35-2.06a6.14,6.14,0,0,0,2.47-4.82,4.55,4.55,0,0,0-1-3,8.45,8.45,0,0,0-3.63-2.17c-1.18-.41-3.87-1.13-8.07-2.18q-8.12-2-11.38-4.94a13,13,0,0,1-4.6-10,12.83,12.83,0,0,1,2.16-7.13,13.5,13.5,0,0,1,6.24-5.06,24.89,24.89,0,0,1,9.82-1.74q9.4,0,14.16,4.12a14.56,14.56,0,0,1,5,11l-10.09.44c-.43-2.57-1.35-4.41-2.77-5.54s-3.55-1.68-6.39-1.68a11.55,11.55,0,0,0-6.88,1.8,3.65,3.65,0,0,0-1.6,3.1,3.82,3.82,0,0,0,1.5,3q1.91,1.6,9.26,3.34a48.8,48.8,0,0,1,10.89,3.6,14.09,14.09,0,0,1,5.52,5.07,14.94,14.94,0,0,1,2,8,14.72,14.72,0,0,1-2.39,8,14.28,14.28,0,0,1-6.74,5.57,28.4,28.4,0,0,1-10.87,1.82q-9.46,0-14.54-4.38T484.83,933.08Z"/><path class="cls-3" d="M531.37,933.08l9.81-1q.89,4.93,3.59,7.26a10.9,10.9,0,0,0,7.31,2.31c3.25,0,5.69-.68,7.34-2.06a6.11,6.11,0,0,0,2.47-4.82,4.55,4.55,0,0,0-1-3,8.33,8.33,0,0,0-3.63-2.17c-1.18-.41-3.87-1.13-8.07-2.18q-8.11-2-11.38-4.94a13,13,0,0,1-4.6-10,12.83,12.83,0,0,1,2.16-7.13,13.55,13.55,0,0,1,6.24-5.06,24.94,24.94,0,0,1,9.83-1.74q9.39,0,14.15,4.12a14.56,14.56,0,0,1,5,11l-10.08.44a8.57,8.57,0,0,0-2.78-5.54q-2.13-1.68-6.39-1.68a11.55,11.55,0,0,0-6.88,1.8,3.65,3.65,0,0,0-1.6,3.1,3.82,3.82,0,0,0,1.5,3q1.91,1.6,9.27,3.34a48.86,48.86,0,0,1,10.88,3.6,14.09,14.09,0,0,1,5.52,5.07,15.75,15.75,0,0,1-.39,16,14.31,14.31,0,0,1-6.75,5.57A28.38,28.38,0,0,1,552,950.22q-9.48,0-14.55-4.38T531.37,933.08Z"/><path class="cls-3" d="M580.45,949.33V899.39h37v8.45H590.54v11.07h25.07v8.42H590.54v13.59h27.9v8.41Z"/><path class="cls-3" d="M638.23,949.33V907.84H623.41v-8.45H663.1v8.45H648.31v41.49Z"/><path class="cls-4" d="M296.15,665.25V323h69.66V607.11H539v58.14Z"/><path class="cls-4" d="M600.94,665.25l-123.33-345h75.55l87.32,255.37L725,320.21h73.9l-123.56,345Z"/><path class="cls-5" d="M376.64,161.59V102h12.14v49.51H419v10.13Z"/><path class="cls-5" d="M481.84,161.59h-13.2l-5.25-13.66h-24l-5,13.66H421.51l23.42-60.13h12.84ZM459.49,137.8l-8.29-22.31-8.12,22.31Z"/><path class="cls-5" d="M488.2,101.46h12.14V134a67.72,67.72,0,0,0,.45,10.05,9.74,9.74,0,0,0,3.72,5.93q2.92,2.24,8,2.23t7.79-2.11a8.38,8.38,0,0,0,3.16-5.19,68.53,68.53,0,0,0,.53-10.21V101.46h12.14v31.59q0,10.81-1,15.29a17,17,0,0,1-3.63,7.55,18.36,18.36,0,0,1-7.08,4.9,30.71,30.71,0,0,1-11.57,1.83q-8.61,0-13.06-2a18.65,18.65,0,0,1-7-5.17,16.54,16.54,0,0,1-3.41-6.66q-1.18-5.18-1.19-15.26Z"/><path class="cls-5" d="M549.07,161.59V101.46h11.81l24.61,40.16V101.46h11.28v60.13H584.59l-24.24-39.21v39.21Z"/><path class="cls-5" d="M648.09,139.48l11.77,3.74q-2.72,9.84-9,14.62t-16,4.78q-12,0-19.69-8.18t-7.71-22.38q0-15,7.75-23.32t20.39-8.3q11,0,17.92,6.52,4.11,3.86,6.15,11.07l-12,2.87A12.43,12.43,0,0,0,635,110.81a13.7,13.7,0,0,0-10.85,4.8q-4.15,4.8-4.16,15.55,0,11.4,4.1,16.24a13.32,13.32,0,0,0,10.67,4.84,12.11,12.11,0,0,0,8.32-3.08C645.41,147.11,647.07,143.89,648.09,139.48Z"/><path class="cls-5" d="M670.32,161.59V101.46h12.14v23.67h23.79V101.46h12.14v60.13H706.25V135.3H682.46v26.29Z"/><path class="cls-5" d="M383.39,239.36l-22.26-62.27h13.64l15.76,46.09,15.25-46.09h13.34l-22.31,62.27Z"/><path class="cls-5" d="M425.53,239.36V177.09h46.18v10.53H438.1v13.81h31.27v10.49H438.1v17h34.8v10.49Z"/><path class="cls-5" d="M483.6,239.36V177.09h12.58V201.6h24.63V177.09h12.58v62.27H520.81V212.13H496.18v27.23Z"/><path class="cls-5" d="M546,239.36V177.09h12.57v62.27Z"/><path class="cls-5" d="M610.41,216.47l12.19,3.86q-2.8,10.2-9.33,15.15t-16.54,5q-12.4,0-20.39-8.48t-8-23.17q0-15.56,8-24.15t21.11-8.6q11.43,0,18.57,6.75,4.25,4,6.37,11.47l-12.45,3a12.88,12.88,0,0,0-13.13-10.45,14.17,14.17,0,0,0-11.23,5q-4.32,5-4.31,16.1,0,11.82,4.24,16.83a13.82,13.82,0,0,0,11.05,5,12.55,12.55,0,0,0,8.62-3.19Q608.84,223.31,610.41,216.47Z"/><path class="cls-5" d="M633.73,239.36V177.6H646.3v51.27h31.27v10.49Z"/><path class="cls-5" d="M686.53,239.36V177.09h46.18v10.53H699.1v13.81h31.27v10.49H699.1v17h34.8v10.49Z"/></svg>