<svg id="Layer_1" data-name="Layer 1" xmlns="http://www.w3.org/2000/svg" viewBox="0 0 1080 1080"><defs><style>.cls-1,.cls-2{fill:none;}.cls-2{stroke:#231f20;stroke-miterlimit:10;stroke-width:0.5px;}.cls-3{fill:#fdfefe;}.cls-4{fill:#231f20;}.cls-5{fill:#fff;}</style></defs><title>PLATFORM ASSET</title><rect class="cls-1" x="3.04" width="1080" height="1080"/><rect x="279.91" y="80.19" width="526.26" height="212.63"/><rect x="279.91" y="787.18" width="526.26" height="212.63"/><polygon class="cls-2" points="806.17 787 279.91 787.18 279.91 292.82 806.17 292.82 806.17 787"/><path class="cls-3" d="M356.87,876.59V826.65h16.18q9.21,0,12,.75a13.07,13.07,0,0,1,7.19,4.89,15.5,15.5,0,0,1,2.9,9.72,16.35,16.35,0,0,1-1.67,7.74,13.67,13.67,0,0,1-4.24,4.92A14.79,14.79,0,0,1,384,857a58.3,58.3,0,0,1-10.46.71H367v18.84ZM367,835.1v14.17h5.51c4,0,6.63-.26,8-.78a6.57,6.57,0,0,0,4.29-6.34,6.49,6.49,0,0,0-1.6-4.5,7,7,0,0,0-4.06-2.21,48,48,0,0,0-7.25-.34Z"/><path class="cls-3" d="M403.68,876.59V827.06h10.08v41.12h25.07v8.41Z"/><path class="cls-3" d="M491.06,876.59h-11l-4.36-11.34h-20l-4.12,11.34H441l19.45-49.94h10.66Zm-18.57-19.76-6.88-18.53-6.75,18.53Z"/><path class="cls-3" d="M502.47,876.59V835.1H487.65v-8.45h39.69v8.45H512.55v41.49Z"/><path class="cls-3" d="M533.91,876.59V826.65h34.24v8.45H544v11.82h20.85v8.45H544v21.22Z"/><path class="cls-3" d="M574.41,851.93a31.6,31.6,0,0,1,2.29-12.81,23.33,23.33,0,0,1,4.65-6.85,19.45,19.45,0,0,1,6.45-4.5,27.55,27.55,0,0,1,10.77-2q11,0,17.66,6.85t6.63,19q0,12.09-6.58,18.92t-17.58,6.83q-11.13,0-17.71-6.79T574.41,851.93Zm10.39-.34q0,8.48,3.92,12.86a12.79,12.79,0,0,0,9.95,4.37,12.61,12.61,0,0,0,9.89-4.34q3.87-4.35,3.87-13t-3.76-12.81a14,14,0,0,0-20,.05Q584.81,843,584.8,851.59Z"/><path class="cls-3" d="M630.76,876.59V826.65H652q8,0,11.63,1.35a11.43,11.43,0,0,1,5.81,4.78,14.35,14.35,0,0,1,2.18,7.87,13.33,13.33,0,0,1-3.3,9.28q-3.3,3.68-9.88,4.62a23.54,23.54,0,0,1,5.4,4.19,56.66,56.66,0,0,1,5.74,8.11l6.1,9.74H663.6l-7.29-10.87a69.7,69.7,0,0,0-5.32-7.34,7.76,7.76,0,0,0-3-2.08,16.78,16.78,0,0,0-5.07-.56h-2v20.85Zm10.08-28.82h7.46q7.26,0,9.06-.61a5.41,5.41,0,0,0,2.83-2.11,6.52,6.52,0,0,0,1-3.75,6,6,0,0,0-1.34-4.07,6.16,6.16,0,0,0-3.8-2q-1.23-.16-7.36-.17h-7.87Z"/><path class="cls-3" d="M681,876.59V826.65h15.09l9.06,34.07,9-34.07h15.13v49.94h-9.37V837.28l-9.91,39.31h-9.71l-9.88-39.31v39.31Z"/><path class="cls-3" d="M477.57,960.31h-11L462.24,949h-20l-4.12,11.34H427.46l19.45-49.94h10.66ZM459,940.55,452.12,922l-6.75,18.53Z"/><path class="cls-3" d="M480.36,944.06l9.81-.95q.88,4.93,3.59,7.25a10.86,10.86,0,0,0,7.31,2.32q4.88,0,7.34-2.06a6.13,6.13,0,0,0,2.47-4.82,4.53,4.53,0,0,0-1-3,8.25,8.25,0,0,0-3.62-2.16q-1.79-.61-8.08-2.18-8.1-2-11.38-4.94a13.13,13.13,0,0,1-2.43-17.19,13.58,13.58,0,0,1,6.23-5.06,25.17,25.17,0,0,1,9.83-1.73q9.41,0,14.15,4.12a14.52,14.52,0,0,1,5,11l-10.08.45a8.59,8.59,0,0,0-2.77-5.54c-1.42-1.12-3.55-1.69-6.39-1.69a11.53,11.53,0,0,0-6.88,1.81,3.62,3.62,0,0,0-1.6,3.1,3.82,3.82,0,0,0,1.49,3c1.28,1.07,4.36,2.18,9.27,3.34a49.29,49.29,0,0,1,10.88,3.59,14,14,0,0,1,5.52,5.08,15.68,15.68,0,0,1-.39,16,14.27,14.27,0,0,1-6.74,5.57A28.21,28.21,0,0,1,501,961.19q-9.48,0-14.55-4.37T480.36,944.06Z"/><path class="cls-3" d="M526.89,944.06l9.81-.95q.88,4.93,3.6,7.25a10.82,10.82,0,0,0,7.3,2.32q4.88,0,7.35-2.06a6.16,6.16,0,0,0,2.47-4.82,4.58,4.58,0,0,0-1-3,8.35,8.35,0,0,0-3.63-2.16q-1.77-.61-8.07-2.18-8.11-2-11.38-4.94a13.12,13.12,0,0,1-2.44-17.19,13.56,13.56,0,0,1,6.24-5.06,25.08,25.08,0,0,1,9.82-1.73q9.41,0,14.16,4.12a14.55,14.55,0,0,1,5,11l-10.09.45q-.65-3.86-2.77-5.54c-1.42-1.12-3.55-1.69-6.39-1.69a11.55,11.55,0,0,0-6.88,1.81,3.62,3.62,0,0,0-1.6,3.1,3.83,3.83,0,0,0,1.5,3q1.9,1.61,9.26,3.34A49.41,49.41,0,0,1,560,932.73a14,14,0,0,1,5.52,5.08,14.91,14.91,0,0,1,2,8,14.72,14.72,0,0,1-2.39,8,14.23,14.23,0,0,1-6.74,5.57,28.21,28.21,0,0,1-10.87,1.82q-9.46,0-14.54-4.37T526.89,944.06Z"/><path class="cls-3" d="M576,960.31V910.37h37v8.45h-27v11.07h25.08v8.41H586.06v13.59H614v8.42Z"/><path class="cls-3" d="M633.76,960.31V918.82H618.94v-8.45h39.68v8.45H643.84v41.49Z"/><path class="cls-4" d="M291.67,676.22V334h69.67V618.09H534.57v58.13Z"/><path class="cls-4" d="M596.47,676.22l-123.33-345h75.55L636,586.55,720.5,331.19h73.91l-123.57,345Z"/><path class="cls-5" d="M372.16,172.57V112.93H384.3v49.51h30.19v10.13Z"/><path class="cls-5" d="M477.37,172.57H464.16l-5.25-13.66h-24l-5,13.66H417l23.43-60.13h12.83ZM455,148.78l-8.29-22.31-8.12,22.31Z"/><path class="cls-5" d="M483.73,112.44h12.14V145a67.64,67.64,0,0,0,.45,10A9.74,9.74,0,0,0,500,161q2.94,2.24,8,2.24c3.45,0,6-.71,7.79-2.12a8.29,8.29,0,0,0,3.16-5.18,67,67,0,0,0,.54-10.22V112.44h12.14V144q0,10.83-1,15.3a16.81,16.81,0,0,1-3.63,7.55,18.36,18.36,0,0,1-7.07,4.9,30.76,30.76,0,0,1-11.57,1.82q-8.61,0-13.06-2a18.69,18.69,0,0,1-7-5.17,16.49,16.49,0,0,1-3.4-6.67q-1.2-5.16-1.19-15.26Z"/><path class="cls-5" d="M544.6,172.57V112.44h11.81L581,152.59V112.44H592.3v60.13H580.12l-24.24-39.21v39.21Z"/><path class="cls-5" d="M643.61,150.46l11.78,3.73q-2.71,9.85-9,14.63t-16,4.77q-12,0-19.69-8.18T603,143q0-15,7.75-23.32t20.38-8.31q11,0,17.93,6.52,4.09,3.85,6.15,11.08l-12,2.87a12.43,12.43,0,0,0-12.67-10.09,13.68,13.68,0,0,0-10.85,4.8q-4.17,4.8-4.16,15.54,0,11.42,4.1,16.25a13.33,13.33,0,0,0,10.66,4.84,12.16,12.16,0,0,0,8.33-3.08Q642.09,157.07,643.61,150.46Z"/><path class="cls-5" d="M665.85,172.57V112.44H678V136.1h23.79V112.44h12.14v60.13H701.78V146.28H678v26.29Z"/><path class="cls-5" d="M422.9,260.57l-21.49-60.13h13.16l15.22,44.5,14.73-44.5H457.4l-21.54,60.13Z"/><path class="cls-5" d="M463.59,260.57V200.44h44.58v10.17H475.73v13.33h30.19v10.13H475.73v16.37h33.59v10.13Z"/><path class="cls-5" d="M519.66,260.57V200.44H531.8V224.1h23.79V200.44h12.14v60.13H555.59V234.28H531.8v26.29Z"/><path class="cls-5" d="M579.91,260.57V200.44h12.14v60.13Z"/><path class="cls-5" d="M642.1,238.46l11.77,3.73q-2.72,9.85-9,14.63t-16,4.77q-12,0-19.69-8.18T601.49,231q0-15,7.75-23.32t20.39-8.31q11,0,17.92,6.52,4.11,3.85,6.15,11.08l-12,2.87A12.43,12.43,0,0,0,629,209.79a13.68,13.68,0,0,0-10.85,4.8q-4.15,4.8-4.16,15.54,0,11.42,4.1,16.25a13.34,13.34,0,0,0,10.67,4.84,12.16,12.16,0,0,0,8.32-3.08C639.42,246.09,641.08,242.86,642.1,238.46Z"/><path class="cls-5" d="M664.62,260.57V200.93h12.14v49.51h30.18v10.13Z"/></svg>