<svg id="Layer_1" data-name="Layer 1" xmlns="http://www.w3.org/2000/svg" viewBox="0 0 1080 1080"><defs><style>.cls-1,.cls-2{fill:none;}.cls-2{stroke:#231f20;stroke-miterlimit:10;stroke-width:0.5px;}.cls-3{fill:#fdfefe;}.cls-4{fill:#231f20;}.cls-5{fill:#fff;}</style></defs><title>PLATFORM ASSET</title><rect class="cls-1" x="5.12" width="1080" height="1080"/><rect x="281.99" y="80.19" width="526.26" height="212.63"/><rect x="281.99" y="787.18" width="526.26" height="212.63"/><polygon class="cls-2" points="808.25 787 281.99 787.18 281.99 292.82 808.25 292.82 808.25 787"/><path class="cls-3" d="M359,876.59V826.65h16.18q9.21,0,12,.75a13.07,13.07,0,0,1,7.19,4.89,15.5,15.5,0,0,1,2.9,9.72,16.35,16.35,0,0,1-1.67,7.74,13.67,13.67,0,0,1-4.24,4.92,14.79,14.79,0,0,1-5.23,2.37,58.3,58.3,0,0,1-10.46.71H369v18.84ZM369,835.1v14.17h5.51c4,0,6.63-.26,8-.78a6.57,6.57,0,0,0,4.29-6.34,6.49,6.49,0,0,0-1.6-4.5,7,7,0,0,0-4.06-2.21,48,48,0,0,0-7.25-.34Z"/><path class="cls-3" d="M405.76,876.59V827.06h10.08v41.12h25.07v8.41Z"/><path class="cls-3" d="M493.14,876.59h-11l-4.36-11.34h-20l-4.12,11.34H443l19.45-49.94h10.66Zm-18.57-19.76-6.88-18.53-6.75,18.53Z"/><path class="cls-3" d="M504.55,876.59V835.1H489.73v-8.45h39.69v8.45H514.63v41.49Z"/><path class="cls-3" d="M536,876.59V826.65h34.24v8.45H546.07v11.82h20.85v8.45H546.07v21.22Z"/><path class="cls-3" d="M576.49,851.93a31.6,31.6,0,0,1,2.29-12.81,23.33,23.33,0,0,1,4.65-6.85,19.45,19.45,0,0,1,6.45-4.5,27.55,27.55,0,0,1,10.77-2q11,0,17.66,6.85t6.63,19q0,12.09-6.58,18.92t-17.58,6.83q-11.13,0-17.71-6.79T576.49,851.93Zm10.39-.34q0,8.48,3.92,12.86a12.79,12.79,0,0,0,10,4.37,12.61,12.61,0,0,0,9.89-4.34q3.87-4.35,3.87-13t-3.76-12.81a14,14,0,0,0-20,.05Q586.89,843,586.88,851.59Z"/><path class="cls-3" d="M632.84,876.59V826.65h21.22q8,0,11.63,1.35a11.43,11.43,0,0,1,5.81,4.78,14.35,14.35,0,0,1,2.18,7.87,13.33,13.33,0,0,1-3.3,9.28q-3.3,3.68-9.88,4.62a23.54,23.54,0,0,1,5.4,4.19,56.66,56.66,0,0,1,5.74,8.11l6.1,9.74H665.68l-7.29-10.87a69.7,69.7,0,0,0-5.32-7.34,7.76,7.76,0,0,0-3-2.08,16.78,16.78,0,0,0-5.07-.56h-2.05v20.85Zm10.08-28.82h7.46q7.26,0,9.06-.61a5.41,5.41,0,0,0,2.83-2.11,6.52,6.52,0,0,0,1-3.75,6,6,0,0,0-1.34-4.07,6.16,6.16,0,0,0-3.8-2q-1.23-.16-7.36-.17h-7.87Z"/><path class="cls-3" d="M683.05,876.59V826.65h15.09l9.06,34.07,9-34.07h15.13v49.94h-9.37V837.28L712,876.59H702.3l-9.88-39.31v39.31Z"/><path class="cls-3" d="M479.65,960.31h-11L464.32,949h-20l-4.12,11.34H429.54L449,910.37h10.66Zm-18.57-19.76L454.2,922l-6.75,18.53Z"/><path class="cls-3" d="M482.44,944.06l9.81-.95q.88,4.93,3.59,7.25a10.86,10.86,0,0,0,7.31,2.32q4.88,0,7.34-2.06A6.13,6.13,0,0,0,513,945.8a4.53,4.53,0,0,0-1-3,8.25,8.25,0,0,0-3.62-2.16q-1.79-.61-8.08-2.18-8.1-2-11.38-4.94a13.13,13.13,0,0,1-2.43-17.19,13.58,13.58,0,0,1,6.23-5.06,25.17,25.17,0,0,1,9.83-1.73q9.4,0,14.15,4.12a14.52,14.52,0,0,1,5,11l-10.08.45a8.59,8.59,0,0,0-2.77-5.54c-1.42-1.12-3.55-1.69-6.39-1.69a11.53,11.53,0,0,0-6.88,1.81,3.62,3.62,0,0,0-1.6,3.1,3.82,3.82,0,0,0,1.49,3c1.28,1.07,4.36,2.18,9.27,3.34a49.29,49.29,0,0,1,10.88,3.59,14,14,0,0,1,5.52,5.08,15.68,15.68,0,0,1-.39,16,14.27,14.27,0,0,1-6.74,5.57,28.21,28.21,0,0,1-10.87,1.82q-9.48,0-14.55-4.37T482.44,944.06Z"/><path class="cls-3" d="M529,944.06l9.81-.95q.88,4.93,3.6,7.25a10.82,10.82,0,0,0,7.3,2.32q4.88,0,7.35-2.06a6.16,6.16,0,0,0,2.47-4.82,4.58,4.58,0,0,0-1-3,8.35,8.35,0,0,0-3.63-2.16q-1.77-.61-8.07-2.18-8.12-2-11.38-4.94a13.12,13.12,0,0,1-2.44-17.19,13.56,13.56,0,0,1,6.24-5.06,25.08,25.08,0,0,1,9.82-1.73q9.4,0,14.16,4.12a14.55,14.55,0,0,1,5,11l-10.09.45q-.64-3.86-2.77-5.54c-1.42-1.12-3.55-1.69-6.39-1.69a11.55,11.55,0,0,0-6.88,1.81,3.62,3.62,0,0,0-1.6,3.1,3.83,3.83,0,0,0,1.5,3q1.91,1.61,9.26,3.34a49.41,49.41,0,0,1,10.89,3.59,14,14,0,0,1,5.52,5.08,14.91,14.91,0,0,1,2,8,14.72,14.72,0,0,1-2.39,8,14.23,14.23,0,0,1-6.74,5.57,28.21,28.21,0,0,1-10.87,1.82q-9.47,0-14.54-4.37T529,944.06Z"/><path class="cls-3" d="M578.06,960.31V910.37h37v8.45h-27v11.07h25.08v8.41H588.14v13.59H616v8.42Z"/><path class="cls-3" d="M635.84,960.31V918.82H621v-8.45H660.7v8.45H645.92v41.49Z"/><path class="cls-4" d="M297.72,679.23V403.05h56.22V632.31h139.8v46.92Z"/><path class="cls-4" d="M522.42,541.71q0-42.54,12.73-71.42a131.24,131.24,0,0,1,25.92-38.18q16.44-16.91,36-25.07,26-11,60-11,61.54,0,98.48,38.18t36.95,106.18q0,67.43-36.66,105.51t-98,38.09q-62.11,0-98.77-37.9T522.42,541.71Zm57.93-1.9q0,47.3,21.85,71.7t55.46,24.41q33.62,0,55.18-24.22t21.56-72.65q0-47.86-21-71.42t-55.75-23.55q-34.75,0-56,23.84T580.35,539.81Z"/><path class="cls-5" d="M297.25,212.63V160.8H307.8v43H334v8.8Z"/><path class="cls-5" d="M341.48,160.38H352v28.3a57.06,57.06,0,0,0,.4,8.73,8.42,8.42,0,0,0,3.22,5.15,11.21,11.21,0,0,0,7,1.94q4.49,0,6.77-1.83a7.29,7.29,0,0,0,2.75-4.51,58.76,58.76,0,0,0,.46-8.88v-28.9h10.55v27.44q0,9.42-.85,13.3a14.79,14.79,0,0,1-3.16,6.56,16,16,0,0,1-6.15,4.26,26.86,26.86,0,0,1-10.05,1.58q-7.49,0-11.35-1.73a16.14,16.14,0,0,1-6.11-4.49,14.28,14.28,0,0,1-3-5.79,63.26,63.26,0,0,1-1-13.26Z"/><path class="cls-5" d="M394.38,212.63V160.38h10.27L426,195.27V160.38h9.8v52.25H425.25l-21.07-34.07v34.07Z"/><path class="cls-5" d="M494.11,212.63H482.64l-4.57-11.87H457.19l-4.32,11.87H441.68L462,160.38h11.16ZM474.69,192l-7.2-19.39L460.43,192Z"/><path class="cls-5" d="M499.74,212.63V160.38H522q8.38,0,12.17,1.4a12,12,0,0,1,6.08,5,15.08,15.08,0,0,1,2.28,8.24,14,14,0,0,1-3.45,9.71q-3.46,3.82-10.34,4.83a24.78,24.78,0,0,1,5.65,4.38,59.58,59.58,0,0,1,6,8.49l6.38,10.19H534.11l-7.63-11.37a74.27,74.27,0,0,0-5.56-7.68,8.23,8.23,0,0,0-3.17-2.18,17.57,17.57,0,0,0-5.32-.58H510.3v21.81Zm10.56-30.15h7.8q7.59,0,9.48-.65a5.61,5.61,0,0,0,3-2.21,6.81,6.81,0,0,0,1.07-3.92,6.29,6.29,0,0,0-1.41-4.26,6.49,6.49,0,0,0-4-2.05c-.86-.11-3.42-.17-7.7-.17H510.3Z"/><path class="cls-5" d="M570.57,186.82a33.26,33.26,0,0,1,2.39-13.4,24.65,24.65,0,0,1,4.86-7.16,20.3,20.3,0,0,1,6.76-4.71,28.81,28.81,0,0,1,11.26-2.07q11.55,0,18.48,7.17t6.94,19.92q0,12.66-6.88,19.81T596,213.52q-11.67,0-18.54-7.11T570.57,186.82Zm10.87-.35q0,8.88,4.1,13.45a14.09,14.09,0,0,0,20.76,0q4.05-4.54,4.05-13.63t-3.94-13.41a14.59,14.59,0,0,0-21,.06Q581.44,177.45,581.44,186.47Z"/><path class="cls-5" d="M629.53,212.63V160.38h22.2q8.38,0,12.18,1.4a12,12,0,0,1,6.07,5,15.08,15.08,0,0,1,2.28,8.24,14,14,0,0,1-3.45,9.71q-3.46,3.82-10.34,4.83a24.78,24.78,0,0,1,5.65,4.38,59.44,59.44,0,0,1,6,8.49l6.38,10.19H663.89l-7.63-11.37a74.27,74.27,0,0,0-5.56-7.68,8.23,8.23,0,0,0-3.17-2.18,17.54,17.54,0,0,0-5.31-.58h-2.14v21.81Zm10.55-30.15h7.8q7.61,0,9.49-.65a5.62,5.62,0,0,0,3-2.21,6.73,6.73,0,0,0,1.07-3.92,6.34,6.34,0,0,0-1.4-4.26,6.51,6.51,0,0,0-4-2.05q-1.28-.16-7.7-.17h-8.23Z"/><path class="cls-5" d="M682.24,160.38h20.89a61.08,61.08,0,0,1,9.25.51,13.79,13.79,0,0,1,5.46,2.16,13.42,13.42,0,0,1,4,4.37,11.78,11.78,0,0,1,1.6,6.11,12.38,12.38,0,0,1-7.34,11.33,13.8,13.8,0,0,1,7.34,4.74,12.63,12.63,0,0,1,2.57,7.88,15.63,15.63,0,0,1-1.66,6.94,14.06,14.06,0,0,1-4.53,5.38,14.86,14.86,0,0,1-7.07,2.47c-1.76.2-6,.31-12.73.36H682.24Zm10.56,8.69v12.09h6.91c4.11,0,6.67-.06,7.66-.18a7,7,0,0,0,4.26-1.87,5.51,5.51,0,0,0,1.55-4.08,5.73,5.73,0,0,0-1.33-3.94,6.09,6.09,0,0,0-4-1.84c-1-.12-4-.18-9-.18Zm0,20.78v14h9.76a48.4,48.4,0,0,0,7.24-.32,6.55,6.55,0,0,0,3.83-2.09,6.39,6.39,0,0,0,1.48-4.44,6.8,6.8,0,0,0-1.14-4,6.47,6.47,0,0,0-3.3-2.39q-2.16-.75-9.36-.75Z"/><path class="cls-5" d="M734.61,212.63V160.38h10.55v52.25Z"/><path class="cls-5" d="M767,212.63V169.22h-15.5v-8.84H793v8.84H777.52v43.41Z"/></svg>