<svg id="Layer_1" data-name="Layer 1" xmlns="http://www.w3.org/2000/svg" viewBox="0 0 1080 1080"><defs><style>.cls-1,.cls-2{fill:none;}.cls-2{stroke:#231f20;stroke-miterlimit:10;stroke-width:0.5px;}.cls-3{fill:#fdfefe;}.cls-4{fill:#231f20;}.cls-5{fill:#fff;}</style></defs><title>PLATFORM ASSET</title><rect class="cls-1" x="5.12" width="1080" height="1080"/><rect x="281.99" y="80.19" width="526.26" height="212.63"/><rect x="281.99" y="787.18" width="526.26" height="212.63"/><polygon class="cls-2" points="808.25 787 281.99 787.18 281.99 292.82 808.25 292.82 808.25 787"/><path class="cls-3" d="M359,876.59V826.65h16.18q9.21,0,12,.75a13.07,13.07,0,0,1,7.19,4.89,15.5,15.5,0,0,1,2.9,9.72,16.35,16.35,0,0,1-1.67,7.74,13.67,13.67,0,0,1-4.24,4.92,14.79,14.79,0,0,1-5.23,2.37,58.3,58.3,0,0,1-10.46.71H369v18.84ZM369,835.1v14.17h5.51c4,0,6.63-.26,8-.78a6.57,6.57,0,0,0,4.29-6.34,6.49,6.49,0,0,0-1.6-4.5,7,7,0,0,0-4.06-2.21,48,48,0,0,0-7.25-.34Z"/><path class="cls-3" d="M405.76,876.59V827.06h10.08v41.12h25.07v8.41Z"/><path class="cls-3" d="M493.14,876.59h-11l-4.36-11.34h-20l-4.12,11.34H443l19.45-49.94h10.66Zm-18.57-19.76-6.88-18.53-6.75,18.53Z"/><path class="cls-3" d="M504.55,876.59V835.1H489.73v-8.45h39.69v8.45H514.63v41.49Z"/><path class="cls-3" d="M536,876.59V826.65h34.24v8.45H546.07v11.82h20.85v8.45H546.07v21.22Z"/><path class="cls-3" d="M576.49,851.93a31.6,31.6,0,0,1,2.29-12.81,23.33,23.33,0,0,1,4.65-6.85,19.45,19.45,0,0,1,6.45-4.5,27.55,27.55,0,0,1,10.77-2q11,0,17.66,6.85t6.63,19q0,12.09-6.58,18.92t-17.58,6.83q-11.13,0-17.71-6.79T576.49,851.93Zm10.39-.34q0,8.48,3.92,12.86a12.79,12.79,0,0,0,10,4.37,12.61,12.61,0,0,0,9.89-4.34q3.87-4.35,3.87-13t-3.76-12.81a14,14,0,0,0-20,.05Q586.89,843,586.88,851.59Z"/><path class="cls-3" d="M632.84,876.59V826.65h21.22q8,0,11.63,1.35a11.43,11.43,0,0,1,5.81,4.78,14.35,14.35,0,0,1,2.18,7.87,13.33,13.33,0,0,1-3.3,9.28q-3.3,3.68-9.88,4.62a23.54,23.54,0,0,1,5.4,4.19,56.66,56.66,0,0,1,5.74,8.11l6.1,9.74H665.68l-7.29-10.87a69.7,69.7,0,0,0-5.32-7.34,7.76,7.76,0,0,0-3-2.08,16.78,16.78,0,0,0-5.07-.56h-2.05v20.85Zm10.08-28.82h7.46q7.26,0,9.06-.61a5.41,5.41,0,0,0,2.83-2.11,6.52,6.52,0,0,0,1-3.75,6,6,0,0,0-1.34-4.07,6.16,6.16,0,0,0-3.8-2q-1.23-.16-7.36-.17h-7.87Z"/><path class="cls-3" d="M683.05,876.59V826.65h15.09l9.06,34.07,9-34.07h15.13v49.94h-9.37V837.28L712,876.59H702.3l-9.88-39.31v39.31Z"/><path class="cls-3" d="M479.65,960.31h-11L464.32,949h-20l-4.12,11.34H429.54L449,910.37h10.66Zm-18.57-19.76L454.2,922l-6.75,18.53Z"/><path class="cls-3" d="M482.44,944.06l9.81-.95q.88,4.93,3.59,7.25a10.86,10.86,0,0,0,7.31,2.32q4.88,0,7.34-2.06A6.13,6.13,0,0,0,513,945.8a4.53,4.53,0,0,0-1-3,8.25,8.25,0,0,0-3.62-2.16q-1.79-.61-8.08-2.18-8.1-2-11.38-4.94a13.13,13.13,0,0,1-2.43-17.19,13.58,13.58,0,0,1,6.23-5.06,25.17,25.17,0,0,1,9.83-1.73q9.4,0,14.15,4.12a14.52,14.52,0,0,1,5,11l-10.08.45a8.59,8.59,0,0,0-2.77-5.54c-1.42-1.12-3.55-1.69-6.39-1.69a11.53,11.53,0,0,0-6.88,1.81,3.62,3.62,0,0,0-1.6,3.1,3.82,3.82,0,0,0,1.49,3c1.28,1.07,4.36,2.18,9.27,3.34a49.29,49.29,0,0,1,10.88,3.59,14,14,0,0,1,5.52,5.08,15.68,15.68,0,0,1-.39,16,14.27,14.27,0,0,1-6.74,5.57,28.21,28.21,0,0,1-10.87,1.82q-9.48,0-14.55-4.37T482.44,944.06Z"/><path class="cls-3" d="M529,944.06l9.81-.95q.88,4.93,3.6,7.25a10.82,10.82,0,0,0,7.3,2.32q4.88,0,7.35-2.06a6.16,6.16,0,0,0,2.47-4.82,4.58,4.58,0,0,0-1-3,8.35,8.35,0,0,0-3.63-2.16q-1.77-.61-8.07-2.18-8.12-2-11.38-4.94a13.12,13.12,0,0,1-2.44-17.19,13.56,13.56,0,0,1,6.24-5.06,25.08,25.08,0,0,1,9.82-1.73q9.4,0,14.16,4.12a14.55,14.55,0,0,1,5,11l-10.09.45q-.64-3.86-2.77-5.54c-1.42-1.12-3.55-1.69-6.39-1.69a11.55,11.55,0,0,0-6.88,1.81,3.62,3.62,0,0,0-1.6,3.1,3.83,3.83,0,0,0,1.5,3q1.91,1.61,9.26,3.34a49.41,49.41,0,0,1,10.89,3.59,14,14,0,0,1,5.52,5.08,14.91,14.91,0,0,1,2,8,14.72,14.72,0,0,1-2.39,8,14.23,14.23,0,0,1-6.74,5.57,28.21,28.21,0,0,1-10.87,1.82q-9.47,0-14.54-4.37T529,944.06Z"/><path class="cls-3" d="M578.06,960.31V910.37h37v8.45h-27v11.07h25.08v8.41H588.14v13.59H616v8.42Z"/><path class="cls-3" d="M635.84,960.31V918.82H621v-8.45H660.7v8.45H645.92v41.49Z"/><path class="cls-4" d="M285.68,618.75V468.06h30.68V593.15h76.27v25.6Z"/><path class="cls-4" d="M433,619V492.81H387.87v-25.7H508.61v25.7h-45V619Z"/><path class="cls-4" d="M517.48,540.84q0-23.22,6.95-39A71.5,71.5,0,0,1,538.57,481a59.23,59.23,0,0,1,19.64-13.68q14.2-6,32.75-6,33.59,0,53.74,20.83t20.16,57.94q0,36.78-20,57.57t-53.47,20.78q-33.9,0-53.9-20.68T517.48,540.84Zm31.61-1q0,25.82,11.92,39.13t30.26,13.31q18.35,0,30.11-13.21t11.76-39.64q0-26.11-11.45-39t-30.42-12.85q-19,0-30.57,13T549.09,539.8Z"/><path class="cls-4" d="M681,566.05l29.85-2.9q2.7,15,10.93,22.07t22.24,7q14.82,0,22.33-6.27t7.51-14.67a13.81,13.81,0,0,0-3.16-9.17q-3.16-3.78-11-6.58-5.4-1.86-24.57-6.63-24.66-6.12-34.61-15-14-12.54-14-30.57a39.06,39.06,0,0,1,6.58-21.72q6.57-10.1,19-15.39T742,461q28.6,0,43.06,12.54T800.21,507l-30.68,1.35q-2-11.71-8.45-16.84t-19.43-5.13q-13.36,0-20.93,5.49a11.07,11.07,0,0,0-4.87,9.43,11.65,11.65,0,0,0,4.56,9.23q5.79,4.88,28.19,10.15t33.11,10.94A42.62,42.62,0,0,1,798.5,547q6.06,9.79,6.06,24.2a44.79,44.79,0,0,1-7.25,24.46,43.47,43.47,0,0,1-20.52,16.94q-13.27,5.55-33.07,5.55-28.8,0-44.25-13.32T681,566.05Z"/><path class="cls-5" d="M353.58,146.62V94.37h22.21q8.37,0,12.17,1.41a12.05,12.05,0,0,1,6.08,5,15.1,15.1,0,0,1,2.28,8.24,13.91,13.91,0,0,1-3.46,9.71q-3.45,3.84-10.33,4.83a24.53,24.53,0,0,1,5.65,4.39,60.16,60.16,0,0,1,6,8.48l6.38,10.19H388l-7.63-11.37a75.89,75.89,0,0,0-5.56-7.68,8,8,0,0,0-3.18-2.17,17.38,17.38,0,0,0-5.31-.59h-2.14v21.81Zm10.55-30.15h7.81c5.06,0,8.22-.22,9.48-.64a5.71,5.71,0,0,0,3-2.21,6.85,6.85,0,0,0,1.07-3.92,6.26,6.26,0,0,0-1.41-4.26,6.44,6.44,0,0,0-4-2c-.86-.12-3.42-.18-7.7-.18h-8.24Z"/><path class="cls-5" d="M406.27,146.62V94.37H445v8.84H416.82v11.58h26.23v8.81H416.82v14.22H446v8.8Z"/><path class="cls-5" d="M502.08,146.62H490.6L486,134.75H465.15l-4.31,11.87H449.65L470,94.37h11.16ZM482.65,126l-7.2-19.39L468.4,126Z"/><path class="cls-5" d="M508,146.62V94.8h10.55v43h26.23v8.8Z"/><path class="cls-5" d="M583,146.62V103.21h-15.5V94.37H609v8.84H593.54v43.41Z"/><path class="cls-5" d="M615.5,146.62V94.37h10.55v52.25Z"/><path class="cls-5" d="M636,146.62V94.37h15.79L661.23,130l9.38-35.64h15.82v52.25h-9.8V105.49l-10.37,41.13H656.1l-10.34-41.13v41.13Z"/><path class="cls-5" d="M696.91,146.62V94.37h38.75v8.84h-28.2v11.58H733.7v8.81H707.46v14.22h29.2v8.8Z"/><path class="cls-5" d="M334.64,186.37A33.09,33.09,0,0,1,337,173a24.83,24.83,0,0,1,4.86-7.17,20.41,20.41,0,0,1,6.76-4.7A28.63,28.63,0,0,1,359.91,159q11.55,0,18.48,7.17t6.94,19.92q0,12.66-6.88,19.8t-18.4,7.15q-11.66,0-18.53-7.11T334.64,186.37Zm10.87-.36q0,8.88,4.1,13.46A13.36,13.36,0,0,0,360,204.05a13.2,13.2,0,0,0,10.35-4.55q4-4.53,4.05-13.63t-3.94-13.4a14.6,14.6,0,0,0-21,.05Q345.51,177,345.51,186Z"/><path class="cls-5" d="M393.56,212.18V159.92h16.93q9.63,0,12.55.79a13.71,13.71,0,0,1,7.52,5.11,16.24,16.24,0,0,1,3,10.18,17,17,0,0,1-1.75,8.09,14.22,14.22,0,0,1-4.44,5.15,15.27,15.27,0,0,1-5.47,2.48,60.06,60.06,0,0,1-10.94.75h-6.88v19.71Zm10.55-43.42v14.83h5.78q6.23,0,8.34-.82a6.88,6.88,0,0,0,3.29-2.57,7,7,0,0,0,1.2-4.06,6.76,6.76,0,0,0-1.68-4.71,7.3,7.3,0,0,0-4.24-2.31,50.2,50.2,0,0,0-7.59-.36Z"/><path class="cls-5" d="M442.25,212.18V159.92H481v8.84H452.8v11.59H479v8.8H452.8v14.22H482v8.81Z"/><path class="cls-5" d="M491,212.18V159.92h22.2q8.39,0,12.18,1.41a12,12,0,0,1,6.07,5,15,15,0,0,1,2.28,8.23,14,14,0,0,1-3.45,9.72q-3.46,3.83-10.34,4.82a25.09,25.09,0,0,1,5.65,4.39,59.2,59.2,0,0,1,6,8.48l6.38,10.2H525.34l-7.63-11.37a73.64,73.64,0,0,0-5.56-7.69A8.2,8.2,0,0,0,509,191a17.47,17.47,0,0,0-5.31-.59h-2.14v21.82ZM501.53,182h7.8q7.6,0,9.49-.64a5.68,5.68,0,0,0,2.95-2.21,6.75,6.75,0,0,0,1.07-3.92,6.26,6.26,0,0,0-1.41-4.26,6.46,6.46,0,0,0-4-2.05c-.86-.12-3.42-.18-7.7-.18h-8.23Z"/><path class="cls-5" d="M590.78,212.18H579.3l-4.56-11.87H553.85l-4.31,11.87H538.35l20.35-52.26h11.16ZM571.35,191.5l-7.2-19.39-7,19.39Z"/><path class="cls-5" d="M602.72,212.18V168.76h-15.5v-8.84h41.52v8.84H613.27v43.42Z"/><path class="cls-5" d="M635.23,212.18V159.92h10.55v52.26Z"/><path class="cls-5" d="M655.94,212.18V159.92H666.2l21.39,34.9v-34.9h9.8v52.26H686.81L665.74,178.1v34.08Z"/><path class="cls-5" d="M732.86,193v-8.8H755.6V205a28.65,28.65,0,0,1-9.6,5.65,35.19,35.19,0,0,1-12.75,2.44A28.63,28.63,0,0,1,719,209.63a21.89,21.89,0,0,1-9.16-9.84,31.67,31.67,0,0,1-3.07-13.92,30.11,30.11,0,0,1,3.42-14.51,23.09,23.09,0,0,1,10-9.73,27.08,27.08,0,0,1,12.51-2.6q9.74,0,15.2,4.08a18.39,18.39,0,0,1,7,11.28l-10.48,2a11,11,0,0,0-4.15-6.07,12.52,12.52,0,0,0-7.61-2.23q-6.91,0-11,4.38t-4.09,13q0,9.31,4.14,14a13.82,13.82,0,0,0,10.84,4.65,18.11,18.11,0,0,0,6.64-1.3,22.73,22.73,0,0,0,5.72-3.16V193Z"/><path class="cls-5" d="M398.94,260.71l10.27-1q.93,5.18,3.76,7.59a11.35,11.35,0,0,0,7.64,2.43q5.1,0,7.69-2.16a6.42,6.42,0,0,0,2.58-5,4.74,4.74,0,0,0-1.09-3.16,8.63,8.63,0,0,0-3.79-2.26q-1.86-.64-8.45-2.28-8.49-2.1-11.91-5.17a13.63,13.63,0,0,1-4.81-10.52,13.46,13.46,0,0,1,2.26-7.46,14.18,14.18,0,0,1,6.53-5.3,26.15,26.15,0,0,1,10.28-1.82q9.84,0,14.81,4.32a15.17,15.17,0,0,1,5.22,11.51l-10.55.46q-.67-4-2.9-5.79t-6.69-1.76a12.07,12.07,0,0,0-7.2,1.89,3.82,3.82,0,0,0-1.67,3.24,4,4,0,0,0,1.57,3.17q2,1.68,9.69,3.5a50.71,50.71,0,0,1,11.39,3.76,14.68,14.68,0,0,1,5.78,5.31,16.47,16.47,0,0,1-.41,16.73,15,15,0,0,1-7.06,5.83,29.6,29.6,0,0,1-11.37,1.91q-9.92,0-15.22-4.58T398.94,260.71Z"/><path class="cls-5" d="M464,277.71v-22l-19.14-30.26h12.37l12.29,20.67,12.05-20.67h12.16l-19.22,30.33v21.92Z"/><path class="cls-5" d="M496.32,260.71l10.27-1q.93,5.18,3.76,7.59a11.35,11.35,0,0,0,7.64,2.43q5.1,0,7.69-2.16a6.42,6.42,0,0,0,2.58-5,4.74,4.74,0,0,0-1.09-3.16,8.63,8.63,0,0,0-3.79-2.26c-1.24-.43-4-1.19-8.45-2.28-5.66-1.4-9.62-3.13-11.91-5.17a13.63,13.63,0,0,1-4.81-10.52,13.39,13.39,0,0,1,2.27-7.46,14.1,14.1,0,0,1,6.52-5.3,26.18,26.18,0,0,1,10.28-1.82q9.84,0,14.81,4.32a15.17,15.17,0,0,1,5.22,11.51l-10.55.46q-.68-4-2.9-5.79c-1.49-1.17-3.71-1.76-6.68-1.76a12.09,12.09,0,0,0-7.21,1.89,3.82,3.82,0,0,0-1.67,3.24,4,4,0,0,0,1.57,3.17q2,1.68,9.69,3.5A50.71,50.71,0,0,1,531,248.86a14.62,14.62,0,0,1,5.78,5.31,16.47,16.47,0,0,1-.41,16.73,15,15,0,0,1-7.06,5.83,29.6,29.6,0,0,1-11.37,1.91q-9.92,0-15.22-4.58T496.32,260.71Z"/><path class="cls-5" d="M559.45,277.71V234.3H543.94v-8.84h41.53v8.84H570v43.41Z"/><path class="cls-5" d="M592.28,277.71V225.46H631v8.84H602.83v11.58h26.23v8.8H602.83v14.23H632v8.8Z"/><path class="cls-5" d="M640.83,277.71V225.46h15.79l9.48,35.64,9.37-35.64H691.3v52.25h-9.8V236.58l-10.38,41.13H661l-10.33-41.13v41.13Z"/></svg>