<svg id="Layer_1" data-name="Layer 1" xmlns="http://www.w3.org/2000/svg" viewBox="0 0 1080 1080"><defs><style>.cls-1,.cls-2{fill:none;}.cls-2{stroke:#231f20;stroke-miterlimit:10;stroke-width:0.5px;}.cls-3{fill:#fdfefe;}.cls-4{fill:#231f20;}.cls-5{fill:#fff;}</style></defs><title>PLATFORM ASSET</title><rect class="cls-1" x="5.12" width="1080" height="1080"/><rect x="281.99" y="80.19" width="526.26" height="212.63"/><rect x="281.99" y="787.18" width="526.26" height="212.63"/><polygon class="cls-2" points="808.25 787 281.99 787.18 281.99 292.82 808.25 292.82 808.25 787"/><path class="cls-3" d="M359,876.59V826.65h16.18q9.21,0,12,.75a13.07,13.07,0,0,1,7.19,4.89,15.5,15.5,0,0,1,2.9,9.72,16.35,16.35,0,0,1-1.67,7.74,13.67,13.67,0,0,1-4.24,4.92,14.79,14.79,0,0,1-5.23,2.37,58.3,58.3,0,0,1-10.46.71H369v18.84ZM369,835.1v14.17h5.51c4,0,6.63-.26,8-.78a6.57,6.57,0,0,0,4.29-6.34,6.49,6.49,0,0,0-1.6-4.5,7,7,0,0,0-4.06-2.21,48,48,0,0,0-7.25-.34Z"/><path class="cls-3" d="M405.76,876.59V827.06h10.08v41.12h25.07v8.41Z"/><path class="cls-3" d="M493.14,876.59h-11l-4.36-11.34h-20l-4.12,11.34H443l19.45-49.94h10.66Zm-18.57-19.76-6.88-18.53-6.75,18.53Z"/><path class="cls-3" d="M504.55,876.59V835.1H489.73v-8.45h39.69v8.45H514.63v41.49Z"/><path class="cls-3" d="M536,876.59V826.65h34.24v8.45H546.07v11.82h20.85v8.45H546.07v21.22Z"/><path class="cls-3" d="M576.49,851.93a31.6,31.6,0,0,1,2.29-12.81,23.33,23.33,0,0,1,4.65-6.85,19.45,19.45,0,0,1,6.45-4.5,27.55,27.55,0,0,1,10.77-2q11,0,17.66,6.85t6.63,19q0,12.09-6.58,18.92t-17.58,6.83q-11.13,0-17.71-6.79T576.49,851.93Zm10.39-.34q0,8.48,3.92,12.86a12.79,12.79,0,0,0,10,4.37,12.61,12.61,0,0,0,9.89-4.34q3.87-4.35,3.87-13t-3.76-12.81a14,14,0,0,0-20,.05Q586.89,843,586.88,851.59Z"/><path class="cls-3" d="M632.84,876.59V826.65h21.22q8,0,11.63,1.35a11.43,11.43,0,0,1,5.81,4.78,14.35,14.35,0,0,1,2.18,7.87,13.33,13.33,0,0,1-3.3,9.28q-3.3,3.68-9.88,4.62a23.54,23.54,0,0,1,5.4,4.19,56.66,56.66,0,0,1,5.74,8.11l6.1,9.74H665.68l-7.29-10.87a69.7,69.7,0,0,0-5.32-7.34,7.76,7.76,0,0,0-3-2.08,16.78,16.78,0,0,0-5.07-.56h-2.05v20.85Zm10.08-28.82h7.46q7.26,0,9.06-.61a5.41,5.41,0,0,0,2.83-2.11,6.52,6.52,0,0,0,1-3.75,6,6,0,0,0-1.34-4.07,6.16,6.16,0,0,0-3.8-2q-1.23-.16-7.36-.17h-7.87Z"/><path class="cls-3" d="M683.05,876.59V826.65h15.09l9.06,34.07,9-34.07h15.13v49.94h-9.37V837.28L712,876.59H702.3l-9.88-39.31v39.31Z"/><path class="cls-3" d="M479.65,960.31h-11L464.32,949h-20l-4.12,11.34H429.54L449,910.37h10.66Zm-18.57-19.76L454.2,922l-6.75,18.53Z"/><path class="cls-3" d="M482.44,944.06l9.81-.95q.88,4.93,3.59,7.25a10.86,10.86,0,0,0,7.31,2.32q4.88,0,7.34-2.06A6.13,6.13,0,0,0,513,945.8a4.53,4.53,0,0,0-1-3,8.25,8.25,0,0,0-3.62-2.16q-1.79-.61-8.08-2.18-8.1-2-11.38-4.94a13.13,13.13,0,0,1-2.43-17.19,13.58,13.58,0,0,1,6.23-5.06,25.17,25.17,0,0,1,9.83-1.73q9.4,0,14.15,4.12a14.52,14.52,0,0,1,5,11l-10.08.45a8.59,8.59,0,0,0-2.77-5.54c-1.42-1.12-3.55-1.69-6.39-1.69a11.53,11.53,0,0,0-6.88,1.81,3.62,3.62,0,0,0-1.6,3.1,3.82,3.82,0,0,0,1.49,3c1.28,1.07,4.36,2.18,9.27,3.34a49.29,49.29,0,0,1,10.88,3.59,14,14,0,0,1,5.52,5.08,15.68,15.68,0,0,1-.39,16,14.27,14.27,0,0,1-6.74,5.57,28.21,28.21,0,0,1-10.87,1.82q-9.48,0-14.55-4.37T482.44,944.06Z"/><path class="cls-3" d="M529,944.06l9.81-.95q.88,4.93,3.6,7.25a10.82,10.82,0,0,0,7.3,2.32q4.88,0,7.35-2.06a6.16,6.16,0,0,0,2.47-4.82,4.58,4.58,0,0,0-1-3,8.35,8.35,0,0,0-3.63-2.16q-1.77-.61-8.07-2.18-8.12-2-11.38-4.94a13.12,13.12,0,0,1-2.44-17.19,13.56,13.56,0,0,1,6.24-5.06,25.08,25.08,0,0,1,9.82-1.73q9.4,0,14.16,4.12a14.55,14.55,0,0,1,5,11l-10.09.45q-.64-3.86-2.77-5.54c-1.42-1.12-3.55-1.69-6.39-1.69a11.55,11.55,0,0,0-6.88,1.81,3.62,3.62,0,0,0-1.6,3.1,3.83,3.83,0,0,0,1.5,3q1.91,1.61,9.26,3.34a49.41,49.41,0,0,1,10.89,3.59,14,14,0,0,1,5.52,5.08,14.91,14.91,0,0,1,2,8,14.72,14.72,0,0,1-2.39,8,14.23,14.23,0,0,1-6.74,5.57,28.21,28.21,0,0,1-10.87,1.82q-9.47,0-14.54-4.37T529,944.06Z"/><path class="cls-3" d="M578.06,960.31V910.37h37v8.45h-27v11.07h25.08v8.41H588.14v13.59H616v8.42Z"/><path class="cls-3" d="M635.84,960.31V918.82H621v-8.45H660.7v8.45H645.92v41.49Z"/><path class="cls-4" d="M287.93,634.72V452.17h55.16l33.12,124.52L409,452.17h55.29V634.72H430V491l-36.24,143.7H358.28L322.17,491v143.7Z"/><path class="cls-4" d="M475.12,634.39V451.84H610.47v30.88H512v40.47h91.64V554H512v49.68H614v30.76Z"/><path class="cls-4" d="M625.24,540.79q0-27.9,8.35-46.82a85.89,85.89,0,0,1,17-25,71.07,71.07,0,0,1,23.6-16.44q17.05-7.22,39.35-7.22,40.34,0,64.56,25t24.22,69.61q0,44.21-24,69.17t-64.25,25q-40.72,0-64.76-24.84T625.24,540.79Zm38-1.25q0,31,14.32,47t36.36,16q22,0,36.17-15.88T764.21,539q0-31.38-13.76-46.82T713.9,476.78q-22.78,0-36.73,15.63T663.22,539.54Z"/><path class="cls-5" d="M402.27,140.53V88.27h15.8l9.48,35.65,9.37-35.65h15.83v52.26H443V99.39l-10.38,41.14H422.41L412.08,99.39v41.14Z"/><path class="cls-5" d="M463.23,140.53V88.27H502v8.84H473.78V108.7H500v8.8H473.78v14.22H503v8.81Z"/><path class="cls-5" d="M511.88,88.27h19.29a37.39,37.39,0,0,1,9.94,1A17.49,17.49,0,0,1,549,94.08a23,23,0,0,1,5,8.47,38.56,38.56,0,0,1,1.71,12.35,34.59,34.59,0,0,1-1.6,11.12,23.11,23.11,0,0,1-5.6,9.23,18.6,18.6,0,0,1-7.41,4.17,31.83,31.83,0,0,1-9.34,1.11H511.88Zm10.55,8.84v34.61h7.88a28.28,28.28,0,0,0,6.38-.5,9.68,9.68,0,0,0,4.26-2.17,11,11,0,0,0,2.76-5.05,33.81,33.81,0,0,0,1.07-9.57,30.94,30.94,0,0,0-1.07-9.3,12,12,0,0,0-3-5.06,10.11,10.11,0,0,0-4.88-2.46,48.24,48.24,0,0,0-8.67-.5Z"/><path class="cls-5" d="M564.31,140.53V88.27h10.56v52.26Z"/><path class="cls-5" d="M584.85,88.27H595.4v28.3a59,59,0,0,0,.39,8.73,8.49,8.49,0,0,0,3.23,5.16,11.24,11.24,0,0,0,7,1.94c3,0,5.25-.61,6.78-1.84a7.23,7.23,0,0,0,2.74-4.51,58.7,58.7,0,0,0,.46-8.87V88.27h10.56v27.45q0,9.41-.86,13.29a14.73,14.73,0,0,1-3.15,6.56,16.1,16.1,0,0,1-6.15,4.26,26.73,26.73,0,0,1-10.06,1.59q-7.49,0-11.35-1.73a16.22,16.22,0,0,1-6.11-4.49,14.25,14.25,0,0,1-3-5.8,63.4,63.4,0,0,1-1-13.26Z"/><path class="cls-5" d="M637.49,140.53V88.27h15.79l9.49,35.65,9.37-35.65H688v52.26h-9.81V99.39l-10.37,41.14H657.63L647.3,99.39v41.14Z"/><path class="cls-5" d="M424.85,212.41V160.15H463.6V169H435.41v11.59h26.23v8.8H435.41V203.6H464.6v8.81Z"/><path class="cls-5" d="M520.67,212.41H509.19l-4.56-11.87H483.74l-4.31,11.87h-11.2l20.36-52.26h11.15Zm-19.43-20.68L494,172.34,487,191.73Z"/><path class="cls-5" d="M526.3,212.41V160.15h22.21q8.37,0,12.17,1.41a12.07,12.07,0,0,1,6.08,5A15,15,0,0,1,569,174.8a14,14,0,0,1-3.46,9.72q-3.47,3.82-10.34,4.83a24.56,24.56,0,0,1,5.65,4.38,59.2,59.2,0,0,1,6,8.48l6.38,10.2H560.66L553,201a72,72,0,0,0-5.56-7.68,8.05,8.05,0,0,0-3.17-2.18,17.47,17.47,0,0,0-5.31-.59h-2.14v21.82Zm10.55-30.16h7.81q7.59,0,9.48-.64a5.7,5.7,0,0,0,3-2.21,6.81,6.81,0,0,0,1.07-3.92,6.26,6.26,0,0,0-1.41-4.26,6.51,6.51,0,0,0-4-2.05q-1.28-.18-7.7-.18h-8.23Z"/><path class="cls-5" d="M590.75,212.41V169H575.24v-8.84h41.53V169H601.3v43.42Z"/><path class="cls-5" d="M623.61,212.41V160.15h10.55v20.57h20.67V160.15h10.56v52.26H654.83V189.56H634.16v22.85Z"/><path class="cls-5" d="M433.91,258a33.09,33.09,0,0,1,2.39-13.4,24.83,24.83,0,0,1,4.86-7.17,20.41,20.41,0,0,1,6.76-4.7,28.63,28.63,0,0,1,11.26-2.07q11.55,0,18.48,7.16t6.94,19.93q0,12.66-6.88,19.8t-18.4,7.15q-11.65,0-18.53-7.11T433.91,258Zm10.87-.36q0,8.88,4.1,13.46a14.08,14.08,0,0,0,20.76,0q4-4.55,4.05-13.63t-3.94-13.4a14.6,14.6,0,0,0-21,.05Q444.78,248.66,444.78,257.68Z"/><path class="cls-5" d="M492.87,283.85V231.59h22.2q8.38,0,12.17,1.41a12,12,0,0,1,6.08,5,15,15,0,0,1,2.28,8.23,14,14,0,0,1-3.45,9.71q-3.46,3.84-10.34,4.83a24.8,24.8,0,0,1,5.65,4.39,59.34,59.34,0,0,1,6,8.48l6.38,10.2H527.23l-7.63-11.38a74.27,74.27,0,0,0-5.56-7.68,8.2,8.2,0,0,0-3.17-2.17,17.5,17.5,0,0,0-5.32-.59h-2.13v21.82Zm10.55-30.16h7.8q7.59,0,9.48-.64a5.71,5.71,0,0,0,3-2.21,6.83,6.83,0,0,0,1.07-3.92,6.26,6.26,0,0,0-1.41-4.26,6.44,6.44,0,0,0-4-2c-.86-.12-3.42-.18-7.7-.18h-8.23Z"/><path class="cls-5" d="M545.58,231.59h20.89a59.5,59.5,0,0,1,9.25.52,13.53,13.53,0,0,1,5.45,2.15,13.31,13.31,0,0,1,4,4.37,11.84,11.84,0,0,1,1.61,6.11,12.16,12.16,0,0,1-2,6.74,12.31,12.31,0,0,1-5.36,4.6,13.8,13.8,0,0,1,7.34,4.74,12.59,12.59,0,0,1,2.57,7.88,15.62,15.62,0,0,1-1.66,6.93,14.06,14.06,0,0,1-4.53,5.38,15,15,0,0,1-7.07,2.48q-2.64.28-12.73.36H545.58Zm10.55,8.7v12.08h6.92c4.11,0,6.67-.06,7.66-.18a7,7,0,0,0,4.26-1.87,5.48,5.48,0,0,0,1.55-4.08,5.73,5.73,0,0,0-1.33-3.94,6,6,0,0,0-4-1.83q-1.56-.18-9-.18Zm0,20.78v14h9.77a48.4,48.4,0,0,0,7.24-.32,6.16,6.16,0,0,0,5.31-6.52,6.86,6.86,0,0,0-1.14-4,6.45,6.45,0,0,0-3.3-2.38q-2.16-.75-9.36-.75Z"/><path class="cls-5" d="M598,283.85V231.59H608.5v52.26Z"/><path class="cls-5" d="M630.31,283.85V240.43h-15.5v-8.84h41.52v8.84H640.86v43.42Z"/></svg>