<svg id="Layer_1" data-name="Layer 1" xmlns="http://www.w3.org/2000/svg" viewBox="0 0 1080 1080"><defs><style>.cls-1,.cls-2{fill:none;}.cls-2{stroke:#231f20;stroke-miterlimit:10;stroke-width:0.5px;}.cls-3{fill:#fdfefe;}.cls-4{fill:#fff;}</style></defs><title>correction plateform asset</title><rect class="cls-1" x="-0.49" width="1080" height="1080"/><rect x="276.38" y="80.19" width="526.26" height="212.63"/><rect x="276.38" y="787.18" width="526.26" height="212.63"/><polygon class="cls-2" points="802.64 787 276.38 787.18 276.38 292.82 802.64 292.82 802.64 787"/><path class="cls-3" d="M353.35,876.59V826.65h16.18q9.2,0,12,.75a13.14,13.14,0,0,1,7.19,4.89A15.49,15.49,0,0,1,391.6,842a16.35,16.35,0,0,1-1.67,7.74,13.58,13.58,0,0,1-4.24,4.92,14.71,14.71,0,0,1-5.23,2.37,58.3,58.3,0,0,1-10.46.71h-6.57v18.84Zm10.08-41.49v14.17H369q6,0,8-.78a6.57,6.57,0,0,0,4.29-6.34,6.44,6.44,0,0,0-1.6-4.5,7,7,0,0,0-4.05-2.21,48.25,48.25,0,0,0-7.26-.34Z"/><path class="cls-3" d="M400.15,876.59V827.06h10.09v41.12h25.07v8.41Z"/><path class="cls-3" d="M487.53,876.59h-11l-4.36-11.34h-20l-4.12,11.34h-10.7l19.45-49.94h10.66ZM469,856.83l-6.88-18.53-6.74,18.53Z"/><path class="cls-3" d="M498.94,876.59V835.1H484.12v-8.45h39.69v8.45H509v41.49Z"/><path class="cls-3" d="M530.38,876.59V826.65h34.24v8.45H540.47v11.82h20.85v8.45H540.47v21.22Z"/><path class="cls-3" d="M570.89,851.93a31.78,31.78,0,0,1,2.28-12.81,23.33,23.33,0,0,1,4.65-6.85,19.49,19.49,0,0,1,6.46-4.5,27.5,27.5,0,0,1,10.76-2q11,0,17.66,6.85t6.63,19q0,12.09-6.58,18.92t-17.57,6.83q-11.14,0-17.72-6.79T570.89,851.93Zm10.39-.34q0,8.48,3.92,12.86a13.48,13.48,0,0,0,19.84,0q3.86-4.35,3.86-13t-3.76-12.81a14,14,0,0,0-20,.05Q581.28,843,581.28,851.59Z"/><path class="cls-3" d="M627.23,876.59V826.65h21.22q8,0,11.64,1.35a11.47,11.47,0,0,1,5.81,4.78,14.44,14.44,0,0,1,2.18,7.87,13.33,13.33,0,0,1-3.31,9.28q-3.3,3.68-9.88,4.62a23.54,23.54,0,0,1,5.4,4.19,56.66,56.66,0,0,1,5.74,8.11l6.1,9.74H660.07l-7.29-10.87a71.75,71.75,0,0,0-5.31-7.34,7.86,7.86,0,0,0-3-2.08,16.69,16.69,0,0,0-5.07-.56h-2v20.85Zm10.09-28.82h7.46q7.25,0,9.06-.61a5.42,5.42,0,0,0,2.82-2.11,6.45,6.45,0,0,0,1-3.75,6,6,0,0,0-1.35-4.07,6.13,6.13,0,0,0-3.8-2q-1.23-.16-7.36-.17h-7.86Z"/><path class="cls-3" d="M677.44,876.59V826.65h15.1l9.06,34.07,9-34.07h15.12v49.94h-9.37V837.28l-9.91,39.31h-9.71l-9.88-39.31v39.31Z"/><path class="cls-3" d="M474,960.31h-11L458.71,949h-20l-4.12,11.34h-10.7l19.45-49.94H454Zm-18.57-19.76L448.59,922l-6.74,18.53Z"/><path class="cls-3" d="M476.83,944.06l9.81-.95q.89,4.93,3.6,7.25a10.82,10.82,0,0,0,7.3,2.32q4.88,0,7.35-2.06a6.16,6.16,0,0,0,2.47-4.82,4.58,4.58,0,0,0-1-3,8.35,8.35,0,0,0-3.63-2.16q-1.77-.61-8.07-2.18-8.12-2-11.38-4.94a13.12,13.12,0,0,1-2.44-17.19,13.56,13.56,0,0,1,6.24-5.06,25.08,25.08,0,0,1,9.82-1.73q9.4,0,14.16,4.12a14.55,14.55,0,0,1,5,11l-10.09.45q-.65-3.86-2.77-5.54c-1.42-1.12-3.55-1.69-6.39-1.69a11.55,11.55,0,0,0-6.88,1.81,3.62,3.62,0,0,0-1.6,3.1,3.83,3.83,0,0,0,1.5,3q1.91,1.61,9.26,3.34a49.41,49.41,0,0,1,10.89,3.59,14,14,0,0,1,5.52,5.08,14.91,14.91,0,0,1,2,8,14.72,14.72,0,0,1-2.39,8,14.23,14.23,0,0,1-6.74,5.57,28.21,28.21,0,0,1-10.87,1.82q-9.46,0-14.54-4.37T476.83,944.06Z"/><path class="cls-3" d="M523.37,944.06l9.81-.95q.89,4.93,3.59,7.25a10.85,10.85,0,0,0,7.31,2.32c3.25,0,5.69-.69,7.34-2.06a6.13,6.13,0,0,0,2.47-4.82,4.58,4.58,0,0,0-1-3,8.23,8.23,0,0,0-3.63-2.16q-1.77-.61-8.07-2.18-8.11-2-11.38-4.94a13.12,13.12,0,0,1-2.44-17.19,13.61,13.61,0,0,1,6.24-5.06,25.13,25.13,0,0,1,9.83-1.73q9.39,0,14.15,4.12a14.55,14.55,0,0,1,5,11l-10.08.45q-.65-3.86-2.78-5.54c-1.42-1.12-3.55-1.69-6.39-1.69a11.55,11.55,0,0,0-6.88,1.81,3.62,3.62,0,0,0-1.6,3.1,3.83,3.83,0,0,0,1.5,3q1.91,1.61,9.27,3.34a49.48,49.48,0,0,1,10.88,3.59,14,14,0,0,1,5.52,5.08,15.74,15.74,0,0,1-.39,16,14.25,14.25,0,0,1-6.75,5.57A28.19,28.19,0,0,1,544,961.19q-9.48,0-14.55-4.37T523.37,944.06Z"/><path class="cls-3" d="M572.45,960.31V910.37h37v8.45H582.54v11.07h25.07v8.41H582.54v13.59h27.9v8.42Z"/><path class="cls-3" d="M630.23,960.31V918.82H615.41v-8.45H655.1v8.45H640.31v41.49Z"/><path class="cls-4" d="M428.3,227a33.26,33.26,0,0,1,2.39-13.4,24.49,24.49,0,0,1,4.87-7.16,20.16,20.16,0,0,1,6.75-4.71,28.67,28.67,0,0,1,11.26-2.07q11.55,0,18.49,7.17T479,226.76q0,12.66-6.88,19.8t-18.39,7.15q-11.66,0-18.54-7.11T428.3,227Zm10.87-.35q0,8.86,4.1,13.45a14.11,14.11,0,0,0,20.77,0q4-4.54,4-13.64t-3.94-13.4a14.58,14.58,0,0,0-21,.06Q439.17,217.64,439.17,226.66Z"/><path class="cls-4" d="M487.26,252.82V200.57h22.21q8.37,0,12.17,1.4a12.07,12.07,0,0,1,6.08,5,15.07,15.07,0,0,1,2.28,8.23,14,14,0,0,1-3.46,9.72q-3.46,3.82-10.34,4.83a24.56,24.56,0,0,1,5.65,4.38,59.44,59.44,0,0,1,6,8.49l6.38,10.19H521.62L514,241.45a74.27,74.27,0,0,0-5.56-7.68,8.16,8.16,0,0,0-3.17-2.18A17.54,17.54,0,0,0,500,231h-2.14v21.81Zm10.55-30.15h7.81q7.59,0,9.48-.65a5.65,5.65,0,0,0,3-2.21,6.81,6.81,0,0,0,1.07-3.92,6.26,6.26,0,0,0-1.41-4.26,6.51,6.51,0,0,0-4-2c-.85-.12-3.42-.17-7.7-.17h-8.23Z"/><path class="cls-4" d="M540,200.57h20.88a61.08,61.08,0,0,1,9.25.51,13.73,13.73,0,0,1,5.46,2.16,13.42,13.42,0,0,1,4,4.37,11.78,11.78,0,0,1,1.6,6.11,12.38,12.38,0,0,1-7.34,11.33,13.8,13.8,0,0,1,7.34,4.74,12.61,12.61,0,0,1,2.57,7.88,15.43,15.43,0,0,1-1.66,6.93,13.92,13.92,0,0,1-4.53,5.39,14.86,14.86,0,0,1-7.07,2.47q-2.64.28-12.73.36H540Zm10.55,8.69v12.09h6.91q6.16,0,7.67-.18a7.06,7.06,0,0,0,4.26-1.87,5.56,5.56,0,0,0,1.55-4.09,5.73,5.73,0,0,0-1.34-3.93,6,6,0,0,0-4-1.84q-1.58-.18-9-.18Zm0,20.78v14h9.76a48.3,48.3,0,0,0,7.24-.32,6.57,6.57,0,0,0,3.83-2.09,6.39,6.39,0,0,0,1.48-4.44,6.8,6.8,0,0,0-1.14-4,6.47,6.47,0,0,0-3.3-2.39q-2.14-.75-9.35-.75Z"/><path class="cls-4" d="M592.34,252.82V200.57h10.55v52.25Z"/><path class="cls-4" d="M624.7,252.82V209.41H609.2v-8.84h41.52v8.84H635.26v43.41Z"/><path class="cls-4" d="M377.29,172.44V120.19h15.8l9.48,35.64,9.37-35.64h15.83v52.25H418V131.31l-10.38,41.13H397.43L387.1,131.31v41.13Z"/><path class="cls-4" d="M436.11,146.64a33.14,33.14,0,0,1,2.39-13.41,24.46,24.46,0,0,1,4.86-7.16,20.45,20.45,0,0,1,6.76-4.71,28.81,28.81,0,0,1,11.26-2.06q11.55,0,18.48,7.16t6.94,19.93q0,12.65-6.88,19.8t-18.4,7.14q-11.65,0-18.53-7.11T436.11,146.64Zm10.87-.36q0,8.88,4.1,13.45a14.07,14.07,0,0,0,20.76,0q4.05-4.54,4.05-13.63T472,132.73a14.59,14.59,0,0,0-21,.06Q447,137.26,447,146.28Z"/><path class="cls-4" d="M495.31,172.44V120.61h10.55v43H532.1v8.8Z"/><path class="cls-4" d="M539.73,172.44V120.19H550l21.39,34.89V120.19h9.8v52.25H570.6l-21.07-34.07v34.07Z"/><path class="cls-4" d="M592,172.44V120.19h10.55v52.25Z"/><path class="cls-4" d="M626.34,172.44v-22L607.2,120.19h12.37l12.3,20.67,12-20.67h12.15l-19.21,30.33v21.92Z"/><path class="cls-4" d="M701.73,172.44H690.25l-4.56-11.87H664.8l-4.31,11.87H649.3l20.35-52.25h11.16Zm-19.42-20.67-7.2-19.39-7.06,19.39Z"/><path d="M288.08,625.26V454.74h51.53l30.95,116.32,30.59-116.32h51.64V625.26h-32V491L387,625.26H353.81L320.07,491V625.26Z"/><path d="M487.92,625.26V456.13h34.44v140.4H608v28.73Z"/><path d="M625.53,541.05q0-26.06,7.8-43.74a80.12,80.12,0,0,1,15.88-23.38,66.4,66.4,0,0,1,22-15.36q15.93-6.74,36.76-6.74,37.68,0,60.31,23.38t22.62,65q0,41.29-22.45,64.62t-60,23.32q-38,0-60.49-23.2T625.53,541.05ZM661,539.88q0,29,13.38,43.91t34,15q20.58,0,33.79-14.83t13.2-44.49q0-29.31-12.85-43.74t-34.14-14.42q-21.3,0-34.32,14.6T661,539.88Z"/></svg>