<svg id="Layer_1" data-name="Layer 1" xmlns="http://www.w3.org/2000/svg" viewBox="0 0 1080 1080"><defs><style>.cls-1,.cls-2{fill:none;}.cls-2{stroke:#231f20;stroke-miterlimit:10;stroke-width:0.5px;}.cls-3{fill:#fdfefe;}.cls-4{fill:#231f20;}.cls-5{fill:#fff;}</style></defs><title>PLATFORM ASSET</title><rect class="cls-1" x="3.04" width="1080" height="1080"/><rect x="279.91" y="80.19" width="526.26" height="212.63"/><rect x="279.91" y="787.18" width="526.26" height="212.63"/><polygon class="cls-2" points="806.17 787 279.91 787.18 279.91 292.82 806.17 292.82 806.17 787"/><path class="cls-3" d="M356.87,876.59V826.65h16.18q9.21,0,12,.75a13.07,13.07,0,0,1,7.19,4.89,15.5,15.5,0,0,1,2.9,9.72,16.35,16.35,0,0,1-1.67,7.74,13.67,13.67,0,0,1-4.24,4.92A14.79,14.79,0,0,1,384,857a58.3,58.3,0,0,1-10.46.71H367v18.84ZM367,835.1v14.17h5.51c4,0,6.63-.26,8-.78a6.57,6.57,0,0,0,4.29-6.34,6.49,6.49,0,0,0-1.6-4.5,7,7,0,0,0-4.06-2.21,48,48,0,0,0-7.25-.34Z"/><path class="cls-3" d="M403.68,876.59V827.06h10.08v41.12h25.07v8.41Z"/><path class="cls-3" d="M491.06,876.59h-11l-4.36-11.34h-20l-4.12,11.34H441l19.45-49.94h10.66Zm-18.57-19.76-6.88-18.53-6.75,18.53Z"/><path class="cls-3" d="M502.47,876.59V835.1H487.65v-8.45h39.69v8.45H512.55v41.49Z"/><path class="cls-3" d="M533.91,876.59V826.65h34.24v8.45H544v11.82h20.85v8.45H544v21.22Z"/><path class="cls-3" d="M574.41,851.93a31.6,31.6,0,0,1,2.29-12.81,23.33,23.33,0,0,1,4.65-6.85,19.45,19.45,0,0,1,6.45-4.5,27.55,27.55,0,0,1,10.77-2q11,0,17.66,6.85t6.63,19q0,12.09-6.58,18.92t-17.58,6.83q-11.13,0-17.71-6.79T574.41,851.93Zm10.39-.34q0,8.48,3.92,12.86a12.79,12.79,0,0,0,9.95,4.37,12.61,12.61,0,0,0,9.89-4.34q3.87-4.35,3.87-13t-3.76-12.81a14,14,0,0,0-20,.05Q584.81,843,584.8,851.59Z"/><path class="cls-3" d="M630.76,876.59V826.65H652q8,0,11.63,1.35a11.43,11.43,0,0,1,5.81,4.78,14.35,14.35,0,0,1,2.18,7.87,13.33,13.33,0,0,1-3.3,9.28q-3.3,3.68-9.88,4.62a23.54,23.54,0,0,1,5.4,4.19,56.66,56.66,0,0,1,5.74,8.11l6.1,9.74H663.6l-7.29-10.87a69.7,69.7,0,0,0-5.32-7.34,7.76,7.76,0,0,0-3-2.08,16.78,16.78,0,0,0-5.07-.56h-2v20.85Zm10.08-28.82h7.46q7.26,0,9.06-.61a5.41,5.41,0,0,0,2.83-2.11,6.52,6.52,0,0,0,1-3.75,6,6,0,0,0-1.34-4.07,6.16,6.16,0,0,0-3.8-2q-1.23-.16-7.36-.17h-7.87Z"/><path class="cls-3" d="M681,876.59V826.65h15.09l9.06,34.07,9-34.07h15.13v49.94h-9.37V837.28l-9.91,39.31h-9.71l-9.88-39.31v39.31Z"/><path class="cls-3" d="M477.57,960.31h-11L462.24,949h-20l-4.12,11.34H427.46l19.45-49.94h10.66ZM459,940.55,452.12,922l-6.75,18.53Z"/><path class="cls-3" d="M480.36,944.06l9.81-.95q.88,4.93,3.59,7.25a10.86,10.86,0,0,0,7.31,2.32q4.88,0,7.34-2.06a6.13,6.13,0,0,0,2.47-4.82,4.53,4.53,0,0,0-1-3,8.25,8.25,0,0,0-3.62-2.16q-1.79-.61-8.08-2.18-8.1-2-11.38-4.94a13.13,13.13,0,0,1-2.43-17.19,13.58,13.58,0,0,1,6.23-5.06,25.17,25.17,0,0,1,9.83-1.73q9.41,0,14.15,4.12a14.52,14.52,0,0,1,5,11l-10.08.45a8.59,8.59,0,0,0-2.77-5.54c-1.42-1.12-3.55-1.69-6.39-1.69a11.53,11.53,0,0,0-6.88,1.81,3.62,3.62,0,0,0-1.6,3.1,3.82,3.82,0,0,0,1.49,3c1.28,1.07,4.36,2.18,9.27,3.34a49.29,49.29,0,0,1,10.88,3.59,14,14,0,0,1,5.52,5.08,15.68,15.68,0,0,1-.39,16,14.27,14.27,0,0,1-6.74,5.57A28.21,28.21,0,0,1,501,961.19q-9.48,0-14.55-4.37T480.36,944.06Z"/><path class="cls-3" d="M526.89,944.06l9.81-.95q.88,4.93,3.6,7.25a10.82,10.82,0,0,0,7.3,2.32q4.88,0,7.35-2.06a6.16,6.16,0,0,0,2.47-4.82,4.58,4.58,0,0,0-1-3,8.35,8.35,0,0,0-3.63-2.16q-1.77-.61-8.07-2.18-8.11-2-11.38-4.94a13.12,13.12,0,0,1-2.44-17.19,13.56,13.56,0,0,1,6.24-5.06,25.08,25.08,0,0,1,9.82-1.73q9.41,0,14.16,4.12a14.55,14.55,0,0,1,5,11l-10.09.45q-.65-3.86-2.77-5.54c-1.42-1.12-3.55-1.69-6.39-1.69a11.55,11.55,0,0,0-6.88,1.81,3.62,3.62,0,0,0-1.6,3.1,3.83,3.83,0,0,0,1.5,3q1.9,1.61,9.26,3.34A49.41,49.41,0,0,1,560,932.73a14,14,0,0,1,5.52,5.08,14.91,14.91,0,0,1,2,8,14.72,14.72,0,0,1-2.39,8,14.23,14.23,0,0,1-6.74,5.57,28.21,28.21,0,0,1-10.87,1.82q-9.46,0-14.54-4.37T526.89,944.06Z"/><path class="cls-3" d="M576,960.31V910.37h37v8.45h-27v11.07h25.08v8.41H586.06v13.59H614v8.42Z"/><path class="cls-3" d="M633.76,960.31V918.82H618.94v-8.45h39.68v8.45H643.84v41.49Z"/><path class="cls-4" d="M288.29,661.57V418.43h73.47l44.12,165.85L449.5,418.43h73.64V661.57H477.53V470.18L429.27,661.57H382L333.9,470.18V661.57Z"/><path class="cls-4" d="M562,541.49q0-37.14,11.11-62.36A114.36,114.36,0,0,1,595.7,445.8a94.72,94.72,0,0,1,31.43-21.9q22.71-9.61,52.41-9.62,53.73,0,86,33.34t32.26,92.71q0,58.88-32,92.13T680.2,665.72q-54.24,0-86.24-33.09T562,541.49Zm50.58-1.66q0,41.31,19.07,62.61T680,623.75q29.36,0,48.18-21.14T747,539.17q0-41.79-18.33-62.36T680,456.24q-30.35,0-48.92,20.82T612.53,539.83Z"/><path class="cls-5" d="M431.83,227a33.09,33.09,0,0,1,2.39-13.4,24.65,24.65,0,0,1,4.86-7.16,20.3,20.3,0,0,1,6.76-4.71,28.63,28.63,0,0,1,11.26-2.07q11.55,0,18.48,7.17t6.94,19.92q0,12.66-6.88,19.8t-18.4,7.15q-11.65,0-18.53-7.11T431.83,227Zm10.87-.35q0,8.86,4.1,13.45a14.09,14.09,0,0,0,20.76,0q4.05-4.54,4.05-13.64t-3.94-13.4a14.59,14.59,0,0,0-21,.06Q442.7,217.64,442.7,226.66Z"/><path class="cls-5" d="M490.79,252.82V200.57H513q8.38,0,12.17,1.4a12,12,0,0,1,6.08,5,15.07,15.07,0,0,1,2.28,8.23,14,14,0,0,1-3.45,9.72q-3.47,3.82-10.34,4.83a24.78,24.78,0,0,1,5.65,4.38,59.58,59.58,0,0,1,6,8.49l6.39,10.19H525.15l-7.63-11.37a74.27,74.27,0,0,0-5.56-7.68,8.23,8.23,0,0,0-3.17-2.18,17.54,17.54,0,0,0-5.31-.58h-2.14v21.81Zm10.55-30.15h7.8c5.07,0,8.22-.22,9.48-.65a5.61,5.61,0,0,0,3-2.21,6.73,6.73,0,0,0,1.07-3.92,6.26,6.26,0,0,0-1.41-4.26,6.46,6.46,0,0,0-4-2c-.86-.12-3.42-.17-7.7-.17h-8.23Z"/><path class="cls-5" d="M543.5,200.57h20.89a61.08,61.08,0,0,1,9.25.51,13.69,13.69,0,0,1,5.45,2.16,13.21,13.21,0,0,1,4,4.37,11.79,11.79,0,0,1,1.61,6.11,12.38,12.38,0,0,1-7.34,11.33,13.8,13.8,0,0,1,7.34,4.74,12.61,12.61,0,0,1,2.57,7.88,15.56,15.56,0,0,1-1.66,6.93,14.09,14.09,0,0,1-4.53,5.39,14.86,14.86,0,0,1-7.07,2.47q-2.64.28-12.73.36H543.5Zm10.55,8.69v12.09H561c4.11,0,6.67-.06,7.66-.18a7,7,0,0,0,4.26-1.87,5.52,5.52,0,0,0,1.55-4.09,5.72,5.72,0,0,0-1.33-3.93,6,6,0,0,0-4-1.84q-1.56-.18-9-.18Zm0,20.78v14h9.77a48.4,48.4,0,0,0,7.24-.32,6.6,6.6,0,0,0,3.83-2.09,6.43,6.43,0,0,0,1.48-4.44,6.8,6.8,0,0,0-1.14-4,6.47,6.47,0,0,0-3.3-2.39q-2.16-.75-9.36-.75Z"/><path class="cls-5" d="M595.87,252.82V200.57h10.55v52.25Z"/><path class="cls-5" d="M628.23,252.82V209.41h-15.5v-8.84h41.52v8.84H638.78v43.41Z"/><path class="cls-5" d="M380.82,172.44V120.19h15.79l9.48,35.64,9.38-35.64h15.82v52.25h-9.8V131.31l-10.37,41.13H401l-10.34-41.13v41.13Z"/><path class="cls-5" d="M439.63,146.64A33.31,33.31,0,0,1,442,133.23a24.49,24.49,0,0,1,4.87-7.16,20.41,20.41,0,0,1,6.75-4.71,28.86,28.86,0,0,1,11.27-2.06q11.55,0,18.48,7.16t6.93,19.93q0,12.65-6.88,19.8t-18.39,7.14q-11.66,0-18.54-7.11T439.63,146.64Zm10.88-.36q0,8.88,4.1,13.45a14.07,14.07,0,0,0,20.76,0q4-4.54,4-13.63t-3.93-13.41a14.59,14.59,0,0,0-21,.06Q450.51,137.26,450.51,146.28Z"/><path class="cls-5" d="M498.84,172.44V120.61h10.55v43h26.23v8.8Z"/><path class="cls-5" d="M543.25,172.44V120.19h10.27l21.39,34.89V120.19h9.8v52.25H574.12l-21.06-34.07v34.07Z"/><path class="cls-5" d="M595.54,172.44V120.19H606.1v52.25Z"/><path class="cls-5" d="M629.87,172.44v-22l-19.14-30.26H623.1l12.29,20.67,12.05-20.67H659.6l-19.22,30.33v21.92Z"/><path class="cls-5" d="M705.26,172.44H693.78l-4.56-11.87H668.33L664,172.44H652.83l20.35-52.25h11.15Zm-19.43-20.67-7.2-19.39-7.06,19.39Z"/></svg>