<svg id="Layer_1" data-name="Layer 1" xmlns="http://www.w3.org/2000/svg" viewBox="0 0 1080 1080"><defs><style>.cls-1,.cls-2{fill:none;}.cls-2{stroke:#231f20;stroke-miterlimit:10;stroke-width:0.5px;}.cls-3{fill:#fdfefe;}.cls-4{fill:#231f20;}.cls-5{fill:#fff;}</style></defs><title>PLATFORM ASSET</title><rect class="cls-1" x="5.12" width="1080" height="1080"/><rect x="281.99" y="80.19" width="526.26" height="212.63"/><rect x="281.99" y="787.18" width="526.26" height="212.63"/><polygon class="cls-2" points="808.25 787 281.99 787.18 281.99 292.82 808.25 292.82 808.25 787"/><path class="cls-3" d="M359,876.59V826.65h16.18q9.21,0,12,.75a13.07,13.07,0,0,1,7.19,4.89,15.5,15.5,0,0,1,2.9,9.72,16.35,16.35,0,0,1-1.67,7.74,13.67,13.67,0,0,1-4.24,4.92,14.79,14.79,0,0,1-5.23,2.37,58.3,58.3,0,0,1-10.46.71H369v18.84ZM369,835.1v14.17h5.51c4,0,6.63-.26,8-.78a6.57,6.57,0,0,0,4.29-6.34,6.49,6.49,0,0,0-1.6-4.5,7,7,0,0,0-4.06-2.21,48,48,0,0,0-7.25-.34Z"/><path class="cls-3" d="M405.76,876.59V827.06h10.08v41.12h25.07v8.41Z"/><path class="cls-3" d="M493.14,876.59h-11l-4.36-11.34h-20l-4.12,11.34H443l19.45-49.94h10.66Zm-18.57-19.76-6.88-18.53-6.75,18.53Z"/><path class="cls-3" d="M504.55,876.59V835.1H489.73v-8.45h39.69v8.45H514.63v41.49Z"/><path class="cls-3" d="M536,876.59V826.65h34.24v8.45H546.07v11.82h20.85v8.45H546.07v21.22Z"/><path class="cls-3" d="M576.49,851.93a31.6,31.6,0,0,1,2.29-12.81,23.33,23.33,0,0,1,4.65-6.85,19.45,19.45,0,0,1,6.45-4.5,27.55,27.55,0,0,1,10.77-2q11,0,17.66,6.85t6.63,19q0,12.09-6.58,18.92t-17.58,6.83q-11.13,0-17.71-6.79T576.49,851.93Zm10.39-.34q0,8.48,3.92,12.86a12.79,12.79,0,0,0,10,4.37,12.61,12.61,0,0,0,9.89-4.34q3.87-4.35,3.87-13t-3.76-12.81a14,14,0,0,0-20,.05Q586.89,843,586.88,851.59Z"/><path class="cls-3" d="M632.84,876.59V826.65h21.22q8,0,11.63,1.35a11.43,11.43,0,0,1,5.81,4.78,14.35,14.35,0,0,1,2.18,7.87,13.33,13.33,0,0,1-3.3,9.28q-3.3,3.68-9.88,4.62a23.54,23.54,0,0,1,5.4,4.19,56.66,56.66,0,0,1,5.74,8.11l6.1,9.74H665.68l-7.29-10.87a69.7,69.7,0,0,0-5.32-7.34,7.76,7.76,0,0,0-3-2.08,16.78,16.78,0,0,0-5.07-.56h-2.05v20.85Zm10.08-28.82h7.46q7.26,0,9.06-.61a5.41,5.41,0,0,0,2.83-2.11,6.52,6.52,0,0,0,1-3.75,6,6,0,0,0-1.34-4.07,6.16,6.16,0,0,0-3.8-2q-1.23-.16-7.36-.17h-7.87Z"/><path class="cls-3" d="M683.05,876.59V826.65h15.09l9.06,34.07,9-34.07h15.13v49.94h-9.37V837.28L712,876.59H702.3l-9.88-39.31v39.31Z"/><path class="cls-3" d="M479.65,960.31h-11L464.32,949h-20l-4.12,11.34H429.54L449,910.37h10.66Zm-18.57-19.76L454.2,922l-6.75,18.53Z"/><path class="cls-3" d="M482.44,944.06l9.81-.95q.88,4.93,3.59,7.25a10.86,10.86,0,0,0,7.31,2.32q4.88,0,7.34-2.06A6.13,6.13,0,0,0,513,945.8a4.53,4.53,0,0,0-1-3,8.25,8.25,0,0,0-3.62-2.16q-1.79-.61-8.08-2.18-8.1-2-11.38-4.94a13.13,13.13,0,0,1-2.43-17.19,13.58,13.58,0,0,1,6.23-5.06,25.17,25.17,0,0,1,9.83-1.73q9.4,0,14.15,4.12a14.52,14.52,0,0,1,5,11l-10.08.45a8.59,8.59,0,0,0-2.77-5.54c-1.42-1.12-3.55-1.69-6.39-1.69a11.53,11.53,0,0,0-6.88,1.81,3.62,3.62,0,0,0-1.6,3.1,3.82,3.82,0,0,0,1.49,3c1.28,1.07,4.36,2.18,9.27,3.34a49.29,49.29,0,0,1,10.88,3.59,14,14,0,0,1,5.52,5.08,15.68,15.68,0,0,1-.39,16,14.27,14.27,0,0,1-6.74,5.57,28.21,28.21,0,0,1-10.87,1.82q-9.48,0-14.55-4.37T482.44,944.06Z"/><path class="cls-3" d="M529,944.06l9.81-.95q.88,4.93,3.6,7.25a10.82,10.82,0,0,0,7.3,2.32q4.88,0,7.35-2.06a6.16,6.16,0,0,0,2.47-4.82,4.58,4.58,0,0,0-1-3,8.35,8.35,0,0,0-3.63-2.16q-1.77-.61-8.07-2.18-8.12-2-11.38-4.94a13.12,13.12,0,0,1-2.44-17.19,13.56,13.56,0,0,1,6.24-5.06,25.08,25.08,0,0,1,9.82-1.73q9.4,0,14.16,4.12a14.55,14.55,0,0,1,5,11l-10.09.45q-.64-3.86-2.77-5.54c-1.42-1.12-3.55-1.69-6.39-1.69a11.55,11.55,0,0,0-6.88,1.81,3.62,3.62,0,0,0-1.6,3.1,3.83,3.83,0,0,0,1.5,3q1.91,1.61,9.26,3.34a49.41,49.41,0,0,1,10.89,3.59,14,14,0,0,1,5.52,5.08,14.91,14.91,0,0,1,2,8,14.72,14.72,0,0,1-2.39,8,14.23,14.23,0,0,1-6.74,5.57,28.21,28.21,0,0,1-10.87,1.82q-9.47,0-14.54-4.37T529,944.06Z"/><path class="cls-3" d="M578.06,960.31V910.37h37v8.45h-27v11.07h25.08v8.41H588.14v13.59H616v8.42Z"/><path class="cls-3" d="M635.84,960.31V918.82H621v-8.45H660.7v8.45H645.92v41.49Z"/><path class="cls-4" d="M290.52,689.16V401.27h56.55L464.9,593.53V401.27h54V689.16H460.58L344.52,501.42V689.16Z"/><path class="cls-4" d="M565.64,590l56.56-5.5q5.1,28.49,20.71,41.83T685,639.65q28.08,0,42.32-11.88T741.59,600a26.24,26.24,0,0,0-6-17.38q-6-7.17-20.91-12.47-10.22-3.52-46.54-12.57Q621.41,546,602.56,529.09q-26.5-23.76-26.51-57.93A74,74,0,0,1,588.52,430q12.47-19.15,35.94-29.16t56.65-10q54.2,0,81.59,23.76T791.47,478l-58.13,2.55q-3.72-22.18-16-31.91T680.52,439q-25.34,0-39.67,10.41a21,21,0,0,0-9.23,17.87q0,10.22,8.64,17.48,11,9.23,53.42,19.24t62.74,20.72a80.91,80.91,0,0,1,31.81,29.26q11.49,18.55,11.49,45.85A84.74,84.74,0,0,1,786,646.13q-13.74,21.6-38.88,32.11t-62.64,10.5q-54.6,0-83.86-25.23T565.64,590Z"/><path class="cls-5" d="M441.82,160.55V108.29h10.27l21.38,34.9v-34.9h9.81v52.26H472.69l-21.07-34.08v34.08Z"/><path class="cls-5" d="M541.56,160.55H530.08l-4.56-11.87H504.63l-4.31,11.87h-11.2l20.36-52.26h11.15Zm-19.43-20.68-7.2-19.39-7.06,19.39Z"/><path class="cls-5" d="M547.26,160.55V108.29h10.26l21.39,34.9v-34.9h9.8v52.26H578.13l-21.07-34.08v34.08Z"/><path class="cls-5" d="M597.73,134.74a33.26,33.26,0,0,1,2.39-13.4,24.83,24.83,0,0,1,4.86-7.17,20.41,20.41,0,0,1,6.76-4.7A28.63,28.63,0,0,1,623,107.4q11.55,0,18.48,7.16t6.94,19.93q0,12.66-6.88,19.8t-18.39,7.15q-11.67,0-18.54-7.11T597.73,134.74Zm10.87-.36q0,8.88,4.1,13.46a13.36,13.36,0,0,0,10.41,4.58,13.22,13.22,0,0,0,10.35-4.55q4-4.55,4-13.63t-3.94-13.4a13.3,13.3,0,0,0-10.46-4.42,13.44,13.44,0,0,0-10.52,4.47Q608.6,125.36,608.6,134.38Z"/><path class="cls-5" d="M352.25,216.9l10.26-1q.93,5.16,3.76,7.59a11.41,11.41,0,0,0,7.65,2.42q5.1,0,7.68-2.15a6.43,6.43,0,0,0,2.58-5.05,4.76,4.76,0,0,0-1.08-3.15,8.77,8.77,0,0,0-3.8-2.27q-1.85-.63-8.45-2.28-8.48-2.1-11.9-5.17a13.58,13.58,0,0,1-4.81-10.51,13.44,13.44,0,0,1,2.26-7.47,14.19,14.19,0,0,1,6.52-5.29,26.2,26.2,0,0,1,10.29-1.82q9.84,0,14.81,4.31a15.27,15.27,0,0,1,5.22,11.52l-10.55.46q-.68-4-2.91-5.79t-6.68-1.77a12,12,0,0,0-7.2,1.89,3.81,3.81,0,0,0-1.68,3.25,4,4,0,0,0,1.57,3.17q2,1.68,9.7,3.49a51.41,51.41,0,0,1,11.39,3.76,14.73,14.73,0,0,1,5.77,5.31,16.43,16.43,0,0,1-.41,16.74,15,15,0,0,1-7.06,5.83,29.62,29.62,0,0,1-11.37,1.9q-9.9,0-15.22-4.58T352.25,216.9Z"/><path class="cls-5" d="M450.73,233.91H439.25L434.69,222H413.81l-4.32,11.87H398.3l20.35-52.26h11.16Zm-19.42-20.68-7.2-19.39-7.06,19.39Z"/><path class="cls-5" d="M462.67,233.91V190.49h-15.5v-8.84h41.52v8.84H473.22v43.42Z"/><path class="cls-5" d="M495.5,233.91V181.65h38.75v8.84h-28.2v11.59h26.24v8.8H506.05V225.1h29.2v8.81Z"/><path class="cls-5" d="M544.48,233.91V182.08H555v43h26.23v8.81Z"/><path class="cls-5" d="M589.07,233.91V182.08h10.55v43h26.23v8.81Z"/><path class="cls-5" d="M633.06,233.91V181.65h10.55v52.26Z"/><path class="cls-5" d="M665.42,233.91V190.49H649.91v-8.84h41.53v8.84H676v43.42Z"/><path class="cls-5" d="M698.25,233.91V181.65H737v8.84H708.8v11.59H735v8.8H708.8V225.1H738v8.81Z"/></svg>