<svg id="Layer_1" data-name="Layer 1" xmlns="http://www.w3.org/2000/svg" viewBox="0 0 1080 1080"><defs><style>.cls-1,.cls-2{fill:none;}.cls-2{stroke:#231f20;stroke-miterlimit:10;stroke-width:0.5px;}.cls-3{fill:#fdfefe;}.cls-4{fill:#231f20;}.cls-5{fill:#fff;}</style></defs><title>PLATFORM ASSET</title><rect class="cls-1" width="1080" height="1080"/><rect x="276.87" y="80.19" width="526.26" height="212.63"/><rect x="276.87" y="787.18" width="526.26" height="212.63"/><polygon class="cls-2" points="803.13 787 276.87 787.18 276.87 292.82 803.13 292.82 803.13 787"/><path class="cls-3" d="M353.83,876.59V826.65H370q9.21,0,12,.75a13.07,13.07,0,0,1,7.19,4.89,15.5,15.5,0,0,1,2.9,9.72,16.35,16.35,0,0,1-1.67,7.74,13.67,13.67,0,0,1-4.24,4.92A14.79,14.79,0,0,1,381,857a58.3,58.3,0,0,1-10.46.71h-6.57v18.84Zm10.09-41.49v14.17h5.51c4,0,6.63-.26,8-.78a6.57,6.57,0,0,0,4.29-6.34,6.49,6.49,0,0,0-1.6-4.5,7,7,0,0,0-4.06-2.21,48,48,0,0,0-7.25-.34Z"/><path class="cls-3" d="M400.64,876.59V827.06h10.08v41.12h25.07v8.41Z"/><path class="cls-3" d="M488,876.59h-11l-4.36-11.34h-20l-4.12,11.34H437.91l19.45-49.94H468Zm-18.57-19.76-6.88-18.53-6.75,18.53Z"/><path class="cls-3" d="M499.43,876.59V835.1H484.61v-8.45H524.3v8.45H509.51v41.49Z"/><path class="cls-3" d="M530.87,876.59V826.65h34.24v8.45H541v11.82H561.8v8.45H541v21.22Z"/><path class="cls-3" d="M571.37,851.93a31.6,31.6,0,0,1,2.29-12.81,23.33,23.33,0,0,1,4.65-6.85,19.45,19.45,0,0,1,6.45-4.5,27.55,27.55,0,0,1,10.77-2q11,0,17.66,6.85t6.63,19q0,12.09-6.58,18.92t-17.58,6.83q-11.13,0-17.71-6.79T571.37,851.93Zm10.39-.34q0,8.48,3.92,12.86a12.79,12.79,0,0,0,10,4.37,12.61,12.61,0,0,0,9.89-4.34q3.87-4.35,3.87-13t-3.76-12.81a14,14,0,0,0-20,.05Q581.77,843,581.76,851.59Z"/><path class="cls-3" d="M627.72,876.59V826.65h21.22q8,0,11.63,1.35a11.43,11.43,0,0,1,5.81,4.78,14.35,14.35,0,0,1,2.18,7.87,13.33,13.33,0,0,1-3.3,9.28q-3.3,3.68-9.88,4.62a23.54,23.54,0,0,1,5.4,4.19,56.66,56.66,0,0,1,5.74,8.11l6.1,9.74H660.56l-7.29-10.87a69.7,69.7,0,0,0-5.32-7.34,7.76,7.76,0,0,0-3-2.08,16.78,16.78,0,0,0-5.07-.56H637.8v20.85Zm10.08-28.82h7.46q7.26,0,9.06-.61a5.41,5.41,0,0,0,2.83-2.11,6.52,6.52,0,0,0,1-3.75,6,6,0,0,0-1.34-4.07,6.16,6.16,0,0,0-3.8-2q-1.23-.16-7.36-.17H637.8Z"/><path class="cls-3" d="M677.93,876.59V826.65H693l9.06,34.07,9-34.07h15.13v49.94H716.8V837.28l-9.91,39.31h-9.71l-9.88-39.31v39.31Z"/><path class="cls-3" d="M474.53,960.31h-11L459.2,949h-20l-4.12,11.34H424.42l19.45-49.94h10.66ZM456,940.55,449.08,922l-6.75,18.53Z"/><path class="cls-3" d="M477.32,944.06l9.81-.95q.89,4.93,3.59,7.25a10.86,10.86,0,0,0,7.31,2.32q4.88,0,7.34-2.06a6.13,6.13,0,0,0,2.47-4.82,4.53,4.53,0,0,0-1-3,8.25,8.25,0,0,0-3.62-2.16q-1.79-.61-8.08-2.18-8.1-2-11.38-4.94a13.13,13.13,0,0,1-2.43-17.19,13.58,13.58,0,0,1,6.23-5.06,25.17,25.17,0,0,1,9.83-1.73q9.4,0,14.15,4.12a14.52,14.52,0,0,1,5,11l-10.08.45a8.59,8.59,0,0,0-2.77-5.54c-1.42-1.12-3.55-1.69-6.39-1.69a11.53,11.53,0,0,0-6.88,1.81,3.62,3.62,0,0,0-1.6,3.1,3.82,3.82,0,0,0,1.49,3c1.28,1.07,4.36,2.18,9.27,3.34a49.29,49.29,0,0,1,10.88,3.59,14,14,0,0,1,5.52,5.08,15.68,15.68,0,0,1-.39,16,14.27,14.27,0,0,1-6.74,5.57,28.21,28.21,0,0,1-10.87,1.82q-9.48,0-14.55-4.37T477.32,944.06Z"/><path class="cls-3" d="M523.85,944.06l9.81-.95q.89,4.93,3.6,7.25a10.82,10.82,0,0,0,7.3,2.32q4.88,0,7.35-2.06a6.16,6.16,0,0,0,2.47-4.82,4.58,4.58,0,0,0-1-3,8.35,8.35,0,0,0-3.63-2.16q-1.77-.61-8.07-2.18-8.11-2-11.38-4.94a13.12,13.12,0,0,1-2.44-17.19,13.56,13.56,0,0,1,6.24-5.06,25.08,25.08,0,0,1,9.82-1.73q9.4,0,14.16,4.12a14.55,14.55,0,0,1,5,11l-10.09.45q-.65-3.86-2.77-5.54c-1.42-1.12-3.55-1.69-6.39-1.69a11.55,11.55,0,0,0-6.88,1.81,3.62,3.62,0,0,0-1.6,3.1,3.83,3.83,0,0,0,1.5,3q1.91,1.61,9.26,3.34A49.41,49.41,0,0,1,557,932.73a14,14,0,0,1,5.52,5.08,14.91,14.91,0,0,1,2,8,14.72,14.72,0,0,1-2.39,8,14.23,14.23,0,0,1-6.74,5.57,28.21,28.21,0,0,1-10.87,1.82q-9.47,0-14.54-4.37T523.85,944.06Z"/><path class="cls-3" d="M572.94,960.31V910.37h37v8.45H583v11.07H608.1v8.41H583v13.59h27.9v8.42Z"/><path class="cls-3" d="M630.72,960.31V918.82H615.9v-8.45h39.68v8.45H640.8v41.49Z"/><path class="cls-4" d="M281.06,638.92V448.25h61.78q35.12,0,45.78,2.87,16.38,4.29,27.44,18.66t11.06,37.13q0,17.55-6.38,29.53a52.28,52.28,0,0,1-16.19,18.79,56,56,0,0,1-20,9Q370.79,567,344.66,567h-25.1v71.92Zm38.5-158.41v54.1h21.07q22.75,0,30.43-3a25.19,25.19,0,0,0,12-9.36,25.6,25.6,0,0,0,4.36-14.83q0-10.4-6.11-17.17a26.66,26.66,0,0,0-15.48-8.45q-6.9-1.31-27.7-1.3Z"/><path class="cls-4" d="M564.66,564.89,602,576.73q-8.58,31.21-28.55,46.37t-50.66,15.15q-38,0-62.42-26T435.9,541.35q0-47.6,24.59-73.93t64.64-26.34q35,0,56.83,20.68,13,12.23,19.51,35.11L563.36,506q-3.37-14.84-14.11-23.41T523.17,474q-21.19,0-34.4,15.22t-13.2,49.29q0,36.16,13,51.51t33.81,15.34a38.61,38.61,0,0,0,26.41-9.75Q559.84,585.84,564.66,564.89Z"/><path class="cls-4" d="M614.78,638.58V447.92h57.61L707,578l34.2-130.06h57.75V638.58H763.17V488.5L725.33,638.58H688.26L650.54,488.5V638.58Z"/><path class="cls-5" d="M406.22,144.59V103h13.49q7.67,0,10,.62a10.93,10.93,0,0,1,6,4.08,12.9,12.9,0,0,1,2.41,8.1,13.55,13.55,0,0,1-1.39,6.45,11.41,11.41,0,0,1-3.54,4.1,12.05,12.05,0,0,1-4.36,2,48.69,48.69,0,0,1-8.71.59h-5.48v15.71ZM414.63,110v11.81h4.6q5,0,6.64-.65a5.47,5.47,0,0,0,3.58-5.28,5.37,5.37,0,0,0-1.34-3.75,5.79,5.79,0,0,0-3.37-1.85,40.56,40.56,0,0,0-6.05-.28Z"/><path class="cls-5" d="M478.24,144.59h-9.15l-3.63-9.46H448.82l-3.44,9.46h-8.92L452.68,103h8.89Zm-15.48-16.47L457,112.67l-5.62,15.45Z"/><path class="cls-5" d="M488.29,144.59V127.07L473,103h9.85l9.8,16.47,9.6-16.47H512l-15.3,24.16v17.47Z"/><path class="cls-5" d="M516.37,144.59V103.3h8.41v34.27h20.9v7Z"/><path class="cls-5" d="M550,124a26.48,26.48,0,0,1,1.9-10.68,19.71,19.71,0,0,1,3.88-5.71,16.29,16.29,0,0,1,5.38-3.75,23,23,0,0,1,9-1.64q9.21,0,14.73,5.7t5.52,15.88q0,10.08-5.48,15.77t-14.65,5.7q-9.3,0-14.77-5.67T550,124Zm8.66-.29q0,7.08,3.26,10.72a10.64,10.64,0,0,0,8.3,3.65,10.53,10.53,0,0,0,8.25-3.62q3.21-3.62,3.22-10.86T578.52,113a11.62,11.62,0,0,0-16.71,0Q558.63,116.56,558.63,123.74Z"/><path class="cls-5" d="M634.45,144.59h-9.14l-3.64-9.46H605l-3.44,9.46h-8.91L608.89,103h8.89ZM619,128.12l-5.73-15.45-5.63,15.45Z"/><path class="cls-5" d="M638.88,103h15.36a30.09,30.09,0,0,1,7.93.79,13.89,13.89,0,0,1,6.27,3.84,18.17,18.17,0,0,1,4,6.74,30.7,30.7,0,0,1,1.36,9.84A27.39,27.39,0,0,1,672.5,133a18.19,18.19,0,0,1-4.46,7.35,14.76,14.76,0,0,1-5.9,3.33,25.71,25.71,0,0,1-7.44.88H638.88Zm8.41,7v27.57h6.27a23.28,23.28,0,0,0,5.08-.39,7.79,7.79,0,0,0,3.4-1.74,8.8,8.8,0,0,0,2.2-4,27.15,27.15,0,0,0,.85-7.63,24.78,24.78,0,0,0-.85-7.41,9.45,9.45,0,0,0-2.39-4,8,8,0,0,0-3.89-2,37.51,37.51,0,0,0-6.9-.4Z"/><path class="cls-5" d="M320.38,192l8.15,2.59q-1.87,6.81-6.24,10.12a19.6,19.6,0,0,1-24.69-2.36q-5.34-5.66-5.34-15.49,0-10.4,5.37-16.14T311.74,165q7.63,0,12.41,4.51a16.5,16.5,0,0,1,4.26,7.67l-8.32,2a8.61,8.61,0,0,0-8.77-7,9.45,9.45,0,0,0-7.51,3.33q-2.9,3.31-2.89,10.76,0,7.89,2.84,11.24a9.22,9.22,0,0,0,7.39,3.35,8.42,8.42,0,0,0,5.76-2.13C318.52,197.29,319.67,195.06,320.38,192Z"/><path class="cls-5" d="M334,186.76a26.47,26.47,0,0,1,1.91-10.68,19.48,19.48,0,0,1,3.87-5.71,16.21,16.21,0,0,1,5.38-3.74,22.87,22.87,0,0,1,9-1.65q9.19,0,14.72,5.71t5.53,15.87q0,10.08-5.49,15.77T354.28,208q-9.28,0-14.77-5.67T334,186.76Zm8.67-.28q0,7.07,3.26,10.72a10.64,10.64,0,0,0,8.29,3.64,10.53,10.53,0,0,0,8.25-3.62q3.22-3.61,3.22-10.86t-3.13-10.68a11.62,11.62,0,0,0-16.71,0C343.75,178.1,342.7,181.69,342.7,186.48Z"/><path class="cls-5" d="M380.86,207.32V165.69h12.58l7.56,28.4,7.46-28.4h12.61v41.63h-7.81V174.55L405,207.32h-8.09l-8.24-32.77v32.77Z"/><path class="cls-5" d="M429.31,207.32V165.69h12.58l7.55,28.4,7.47-28.4h12.61v41.63h-7.81V174.55l-8.26,32.77h-8.1l-8.23-32.77v32.77Z"/><path class="cls-5" d="M477.81,165.69h8.41v22.55a46.59,46.59,0,0,0,.31,6.95,6.71,6.71,0,0,0,2.57,4.11,9,9,0,0,0,5.55,1.54,8.43,8.43,0,0,0,5.39-1.46,5.7,5.7,0,0,0,2.19-3.59,46.31,46.31,0,0,0,.37-7.07v-23H511v21.86a55.64,55.64,0,0,1-.69,10.6,11.68,11.68,0,0,1-2.51,5.22,12.62,12.62,0,0,1-4.9,3.39,21.12,21.12,0,0,1-8,1.27c-4,0-7-.46-9-1.38a12.94,12.94,0,0,1-4.87-3.58,11.46,11.46,0,0,1-2.36-4.61,50.58,50.58,0,0,1-.82-10.56Z"/><path class="cls-5" d="M520,207.32V165.69h8.18l17,27.8v-27.8H553v41.63h-8.44l-16.78-27.15v27.15Z"/><path class="cls-5" d="M561.61,207.32V165.69H570v41.63Z"/><path class="cls-5" d="M604.66,192l8.15,2.59q-1.87,6.81-6.23,10.12a19.6,19.6,0,0,1-24.69-2.36q-5.34-5.66-5.34-15.49,0-10.4,5.36-16.14T596,165q7.63,0,12.41,4.51a16.5,16.5,0,0,1,4.26,7.67l-8.32,2a8.61,8.61,0,0,0-8.78-7,9.47,9.47,0,0,0-7.51,3.33q-2.88,3.31-2.88,10.76,0,7.89,2.84,11.24a9.19,9.19,0,0,0,7.38,3.35,8.44,8.44,0,0,0,5.77-2.13A12.41,12.41,0,0,0,604.66,192Z"/><path class="cls-5" d="M657.57,207.32h-9.15l-3.63-9.46H628.15l-3.44,9.46h-8.92L632,165.69h8.89Zm-15.48-16.47-5.74-15.45-5.62,15.45Z"/><path class="cls-5" d="M667.08,207.32V172.73H654.73v-7h33.08v7H675.48v34.59Z"/><path class="cls-5" d="M693,207.32V165.69h8.4v41.63Z"/><path class="cls-5" d="M707.69,186.76a26.48,26.48,0,0,1,1.9-10.68,19.71,19.71,0,0,1,3.88-5.71,16.11,16.11,0,0,1,5.38-3.74,22.78,22.78,0,0,1,9-1.65q9.2,0,14.72,5.71t5.53,15.87q0,10.08-5.48,15.77T727.93,208q-9.28,0-14.76-5.67T707.69,186.76Zm8.66-.28q0,7.07,3.26,10.72a10.64,10.64,0,0,0,8.29,3.64,10.5,10.5,0,0,0,8.25-3.62q3.23-3.61,3.23-10.86t-3.14-10.68a11.62,11.62,0,0,0-16.71,0Q716.35,179.29,716.35,186.48Z"/><path class="cls-5" d="M754.71,207.32V165.69h8.18l17,27.8v-27.8h7.81v41.63H779.3l-16.78-27.15v27.15Z"/><path class="cls-5" d="M417.51,270.05V228.42h12.58l7.55,28.4,7.47-28.4h12.61v41.63h-7.81V237.28l-8.26,32.77h-8.1l-8.23-32.77v32.77Z"/><path class="cls-5" d="M464.36,249.49a26.47,26.47,0,0,1,1.91-10.68,19.3,19.3,0,0,1,3.87-5.7,16.1,16.1,0,0,1,5.38-3.75,22.87,22.87,0,0,1,9-1.65q9.19,0,14.72,5.71t5.53,15.87q0,10.08-5.49,15.78t-14.65,5.69q-9.28,0-14.77-5.66T464.36,249.49Zm8.67-.28q0,7.06,3.26,10.72a11.23,11.23,0,0,0,16.54,0q3.23-3.63,3.22-10.87t-3.13-10.67a11.61,11.61,0,0,0-16.71,0C474.08,240.83,473,244.42,473,249.21Z"/><path class="cls-5" d="M511.28,228.42h15.36a29.93,29.93,0,0,1,7.92.8,13.82,13.82,0,0,1,6.28,3.83,18.23,18.23,0,0,1,4,6.74,30.67,30.67,0,0,1,1.37,9.84,27.39,27.39,0,0,1-1.28,8.86,18.41,18.41,0,0,1-4.46,7.36,14.86,14.86,0,0,1-5.91,3.32,25.28,25.28,0,0,1-7.44.88H511.28Zm8.4,7V263H526a23.19,23.19,0,0,0,5.08-.4,7.74,7.74,0,0,0,3.39-1.73,8.9,8.9,0,0,0,2.21-4,27.53,27.53,0,0,0,.85-7.63,25.16,25.16,0,0,0-.85-7.41,9.55,9.55,0,0,0-2.39-4,8,8,0,0,0-3.89-2,37.51,37.51,0,0,0-6.9-.4Z"/><path class="cls-5" d="M553.25,228.42h8.4V251a46,46,0,0,0,.32,7,6.66,6.66,0,0,0,2.57,4.11,9,9,0,0,0,5.55,1.55,8.43,8.43,0,0,0,5.39-1.47,5.79,5.79,0,0,0,2.19-3.59,47.67,47.67,0,0,0,.37-7.07v-23h8.4v21.87a55.81,55.81,0,0,1-.68,10.59,11.68,11.68,0,0,1-2.51,5.22,12.75,12.75,0,0,1-4.9,3.4,21.34,21.34,0,0,1-8,1.26c-4,0-7-.46-9-1.38a12.86,12.86,0,0,1-4.87-3.58,11.34,11.34,0,0,1-2.36-4.61,50.51,50.51,0,0,1-.82-10.56Z"/><path class="cls-5" d="M595.53,270.05V228.76h8.41V263h20.9v7Z"/><path class="cls-5" d="M630.83,270.05V228.42H661.7v7H639.23v9.23h20.9v7h-20.9V263h23.26v7Z"/></svg>