<svg id="Layer_1" data-name="Layer 1" xmlns="http://www.w3.org/2000/svg" viewBox="0 0 1080 1080"><defs><style>.cls-1,.cls-2{fill:none;}.cls-2{stroke:#231f20;stroke-miterlimit:10;stroke-width:0.5px;}.cls-3{fill:#fdfefe;}.cls-4{fill:#231f20;}.cls-5{fill:#fff;}</style></defs><title>PLATFORM ASSET</title><rect class="cls-1" x="6.16" width="1080" height="1080"/><rect x="283.03" y="80.19" width="526.26" height="212.63"/><rect x="283.03" y="787.18" width="526.26" height="212.63"/><polygon class="cls-2" points="809.29 787 283.03 787.18 283.03 292.82 809.29 292.82 809.29 787"/><path class="cls-3" d="M360,876.59V826.65h16.18q9.21,0,12,.75a13.07,13.07,0,0,1,7.19,4.89,15.5,15.5,0,0,1,2.9,9.72,16.35,16.35,0,0,1-1.67,7.74,13.67,13.67,0,0,1-4.24,4.92,14.79,14.79,0,0,1-5.23,2.37,58.3,58.3,0,0,1-10.46.71h-6.57v18.84Zm10.09-41.49v14.17h5.51c4,0,6.63-.26,8-.78a6.57,6.57,0,0,0,4.29-6.34,6.49,6.49,0,0,0-1.6-4.5,7,7,0,0,0-4.06-2.21,48,48,0,0,0-7.25-.34Z"/><path class="cls-3" d="M406.8,876.59V827.06h10.08v41.12H442v8.41Z"/><path class="cls-3" d="M494.18,876.59h-11l-4.36-11.34h-20l-4.12,11.34H444.07l19.45-49.94h10.66Zm-18.57-19.76-6.88-18.53L462,856.83Z"/><path class="cls-3" d="M505.59,876.59V835.1H490.77v-8.45h39.69v8.45H515.67v41.49Z"/><path class="cls-3" d="M537,876.59V826.65h34.24v8.45H547.11v11.82H568v8.45H547.11v21.22Z"/><path class="cls-3" d="M577.53,851.93a31.6,31.6,0,0,1,2.29-12.81,23.33,23.33,0,0,1,4.65-6.85,19.45,19.45,0,0,1,6.45-4.5,27.55,27.55,0,0,1,10.77-2q11,0,17.66,6.85t6.63,19q0,12.09-6.58,18.92t-17.58,6.83q-11.13,0-17.71-6.79T577.53,851.93Zm10.39-.34q0,8.48,3.92,12.86a12.79,12.79,0,0,0,9.95,4.37,12.61,12.61,0,0,0,9.89-4.34q3.87-4.35,3.87-13t-3.76-12.81a14,14,0,0,0-20,.05Q587.93,843,587.92,851.59Z"/><path class="cls-3" d="M633.88,876.59V826.65H655.1q8,0,11.63,1.35a11.43,11.43,0,0,1,5.81,4.78,14.35,14.35,0,0,1,2.18,7.87,13.33,13.33,0,0,1-3.3,9.28q-3.3,3.68-9.88,4.62a23.54,23.54,0,0,1,5.4,4.19,56.66,56.66,0,0,1,5.74,8.11l6.1,9.74H666.72l-7.29-10.87a69.7,69.7,0,0,0-5.32-7.34,7.76,7.76,0,0,0-3-2.08,16.78,16.78,0,0,0-5.07-.56h-2v20.85ZM644,847.77h7.46q7.26,0,9.06-.61a5.41,5.41,0,0,0,2.83-2.11,6.52,6.52,0,0,0,1-3.75,6,6,0,0,0-1.34-4.07,6.16,6.16,0,0,0-3.8-2q-1.23-.16-7.36-.17H644Z"/><path class="cls-3" d="M684.09,876.59V826.65h15.09l9.06,34.07,9-34.07h15.13v49.94H723V837.28l-9.91,39.31h-9.71l-9.88-39.31v39.31Z"/><path class="cls-3" d="M480.69,960.31h-11L465.36,949h-20l-4.12,11.34H430.58L450,910.37h10.66Zm-18.57-19.76L455.24,922l-6.75,18.53Z"/><path class="cls-3" d="M483.48,944.06l9.81-.95q.88,4.93,3.59,7.25a10.86,10.86,0,0,0,7.31,2.32q4.88,0,7.34-2.06A6.13,6.13,0,0,0,514,945.8a4.53,4.53,0,0,0-1-3,8.25,8.25,0,0,0-3.62-2.16q-1.79-.61-8.08-2.18-8.1-2-11.38-4.94a13.13,13.13,0,0,1-2.43-17.19,13.58,13.58,0,0,1,6.23-5.06,25.17,25.17,0,0,1,9.83-1.73q9.4,0,14.15,4.12a14.52,14.52,0,0,1,5,11l-10.08.45a8.59,8.59,0,0,0-2.77-5.54c-1.42-1.12-3.55-1.69-6.39-1.69a11.53,11.53,0,0,0-6.88,1.81,3.62,3.62,0,0,0-1.6,3.1,3.82,3.82,0,0,0,1.49,3c1.28,1.07,4.36,2.18,9.27,3.34a49.29,49.29,0,0,1,10.88,3.59,14,14,0,0,1,5.52,5.08,15.68,15.68,0,0,1-.39,16,14.27,14.27,0,0,1-6.74,5.57,28.21,28.21,0,0,1-10.87,1.82q-9.48,0-14.55-4.37T483.48,944.06Z"/><path class="cls-3" d="M530,944.06l9.81-.95q.88,4.93,3.6,7.25a10.82,10.82,0,0,0,7.3,2.32q4.88,0,7.35-2.06a6.16,6.16,0,0,0,2.47-4.82,4.58,4.58,0,0,0-1-3,8.35,8.35,0,0,0-3.63-2.16q-1.77-.61-8.07-2.18-8.12-2-11.38-4.94A13.12,13.12,0,0,1,534,916.31a13.56,13.56,0,0,1,6.24-5.06,25.08,25.08,0,0,1,9.82-1.73q9.4,0,14.16,4.12a14.55,14.55,0,0,1,5,11l-10.09.45q-.65-3.86-2.77-5.54c-1.42-1.12-3.55-1.69-6.39-1.69a11.55,11.55,0,0,0-6.88,1.81,3.62,3.62,0,0,0-1.6,3.1,3.83,3.83,0,0,0,1.5,3q1.9,1.61,9.26,3.34a49.41,49.41,0,0,1,10.89,3.59,14,14,0,0,1,5.52,5.08,14.91,14.91,0,0,1,2,8,14.72,14.72,0,0,1-2.39,8,14.23,14.23,0,0,1-6.74,5.57,28.21,28.21,0,0,1-10.87,1.82q-9.47,0-14.54-4.37T530,944.06Z"/><path class="cls-3" d="M579.1,960.31V910.37h37v8.45h-27v11.07h25.08v8.41H589.18v13.59h27.9v8.42Z"/><path class="cls-3" d="M636.88,960.31V918.82H622.06v-8.45h39.68v8.45H647v41.49Z"/><path class="cls-4" d="M285,613.25V467.79H332.1q26.79,0,34.93,2.19A38.1,38.1,0,0,1,388,484.21q8.44,11,8.44,28.33,0,13.4-4.86,22.53a39.93,39.93,0,0,1-12.36,14.33A42.34,42.34,0,0,1,364,556.3q-10.51,2.09-30.46,2.08H314.34v54.87ZM314.34,492.4v41.28h16.07q17.37,0,23.22-2.29a19.31,19.31,0,0,0,9.18-7.14,19.51,19.51,0,0,0,3.32-11.31,18.79,18.79,0,0,0-4.66-13.1,20.3,20.3,0,0,0-11.81-6.45q-5.25-1-21.13-1Z"/><path class="cls-4" d="M420.41,468.05h53.68q18.17,0,27.68,2.78a48.67,48.67,0,0,1,21.93,13.4,63.38,63.38,0,0,1,13.89,23.56q4.77,13.95,4.77,34.38,0,18-4.47,31-5.46,15.89-15.58,25.7-7.63,7.44-20.64,11.61-9.72,3.07-26,3.08H420.41Zm29.37,24.61V589h21.93q12.3,0,17.76-1.39a27.16,27.16,0,0,0,11.86-6Q506,577.3,509,567.52t3-26.64Q512,524,509,515t-8.34-14.09a27.87,27.87,0,0,0-13.59-6.85q-6.15-1.4-24.11-1.39Z"/><path class="cls-4" d="M549.09,613V467.53h29.37v57.25H636V467.53h29.37V613H636v-63.6H578.46V613Z"/><path class="cls-4" d="M689.08,565.35l28.57-2.78q2.58,14.4,10.47,21.14t21.28,6.75q14.19,0,21.39-6t7.19-14a13.24,13.24,0,0,0-3-8.78c-2-2.41-5.54-4.51-10.56-6.3q-5.16-1.79-23.52-6.35-23.61-5.85-33.14-14.39-13.4-12-13.4-29.27a37.4,37.4,0,0,1,6.3-20.79,39.55,39.55,0,0,1,18.16-14.73q11.87-5.06,28.63-5.06,27.39,0,41.23,12t14.53,32l-29.37,1.29q-1.89-11.2-8.09-16.12t-18.6-4.91q-12.79,0-20,5.26a10.6,10.6,0,0,0-4.67,9,11.18,11.18,0,0,0,4.37,8.83q5.55,4.67,27,9.72t31.7,10.47a40.9,40.9,0,0,1,16.08,14.79q5.79,9.36,5.8,23.16a42.85,42.85,0,0,1-7,23.42A41.62,41.62,0,0,1,780.76,610q-12.71,5.31-31.65,5.31-27.58,0-42.37-12.75T689.08,565.35Z"/><path class="cls-5" d="M298.37,144.14v-47h15.22q8.64,0,11.27.7a12.33,12.33,0,0,1,6.76,4.6,14.55,14.55,0,0,1,2.73,9.14,15.43,15.43,0,0,1-1.57,7.28,13.06,13.06,0,0,1-4,4.63,13.65,13.65,0,0,1-4.92,2.22,54,54,0,0,1-9.84.67h-6.18v17.72Zm9.48-39v13.33H313q5.61,0,7.5-.74a6.17,6.17,0,0,0,3-2.31,6.26,6.26,0,0,0,1.08-3.65,6.09,6.09,0,0,0-1.51-4.23,6.58,6.58,0,0,0-3.81-2.08,46.26,46.26,0,0,0-6.83-.32Z"/><path class="cls-5" d="M379.62,144.14H369.3l-4.1-10.67H346.42l-3.87,10.67H332.49l18.29-47h10Zm-17.47-18.58-6.47-17.43-6.34,17.43Z"/><path class="cls-5" d="M391,144.14V124.37L373.75,97.18h11.12l11.05,18.58,10.83-18.58h10.92l-17.26,27.26v19.7Z"/><path class="cls-5" d="M422.64,144.14V97.56h9.48v38.67H455.7v7.91Z"/><path class="cls-5" d="M460.54,121a29.9,29.9,0,0,1,2.15-12,21.91,21.91,0,0,1,4.37-6.44,18.35,18.35,0,0,1,6.07-4.23,25.77,25.77,0,0,1,10.12-1.86q10.38,0,16.62,6.44t6.23,17.91q0,11.39-6.19,17.8t-16.53,6.42q-10.47,0-16.66-6.39T460.54,121Zm9.77-.32c0,5.31,1.23,9.35,3.69,12.09a12.66,12.66,0,0,0,18.66,0q3.63-4.08,3.63-12.25t-3.54-12a13.12,13.12,0,0,0-18.85,0Q470.32,112.52,470.31,120.63Z"/><path class="cls-5" d="M555.85,144.14H545.54l-4.11-10.67H522.66l-3.88,10.67H508.72l18.3-47h10Zm-17.46-18.58-6.47-17.43-6.34,17.43Z"/><path class="cls-5" d="M560.85,97.18h17.33a33.82,33.82,0,0,1,8.94.89,15.77,15.77,0,0,1,7.08,4.33,20.5,20.5,0,0,1,4.48,7.61,34.51,34.51,0,0,1,1.54,11.1,30.86,30.86,0,0,1-1.44,10,20.6,20.6,0,0,1-5,8.3,16.74,16.74,0,0,1-6.66,3.75,28.82,28.82,0,0,1-8.4,1H560.85Zm9.48,7.94v31.11h7.08a25.83,25.83,0,0,0,5.74-.45,8.87,8.87,0,0,0,3.83-1.95,10,10,0,0,0,2.48-4.54,30.64,30.64,0,0,0,1-8.6,28.06,28.06,0,0,0-1-8.36,10.8,10.8,0,0,0-2.69-4.55,9,9,0,0,0-4.39-2.21,42.93,42.93,0,0,0-7.79-.45Z"/><path class="cls-5" d="M626.46,97.18h17.33a33.82,33.82,0,0,1,8.94.89,15.66,15.66,0,0,1,7.08,4.33A20.52,20.52,0,0,1,664.3,110a34.81,34.81,0,0,1,1.53,11.1,30.86,30.86,0,0,1-1.44,10,20.6,20.6,0,0,1-5,8.3,16.67,16.67,0,0,1-6.66,3.75,28.75,28.75,0,0,1-8.39,1H626.46Zm9.48,7.94v31.11H643a25.83,25.83,0,0,0,5.74-.45,8.81,8.81,0,0,0,3.83-1.95,10,10,0,0,0,2.48-4.54,30.64,30.64,0,0,0,1-8.6,28.06,28.06,0,0,0-1-8.36,10.8,10.8,0,0,0-2.69-4.55,9,9,0,0,0-4.39-2.21,42.86,42.86,0,0,0-7.79-.45Z"/><path class="cls-5" d="M716.23,144.14H705.91l-4.1-10.67H683l-3.88,10.67H669.1l18.3-47h10Zm-17.46-18.58-6.47-17.43L686,125.56Z"/><path class="cls-5" d="M727,144.14v-39H713V97.18h37.32v7.94H736.44v39Z"/><path class="cls-5" d="M794,144.14H783.63l-4.1-10.67H760.76l-3.88,10.67H746.82l18.3-47h10Zm-17.46-18.58L770,108.13l-6.34,17.43Z"/><path class="cls-5" d="M356.84,210V163h9.48V181.5H384.9V163h9.48v47H384.9V189.44H366.32V210Z"/><path class="cls-5" d="M446.54,210H436.22l-4.1-10.67H413.35L409.47,210H399.41l18.3-47h10ZM429.08,191.4,422.61,174l-6.34,17.43Z"/><path class="cls-5" d="M451.67,210V163h9.22l19.23,31.37V163h8.81v47h-9.52l-18.93-30.63V210Z"/><path class="cls-5" d="M498.92,163h17.33a33.74,33.74,0,0,1,8.94.9,15.65,15.65,0,0,1,7.08,4.32,20.6,20.6,0,0,1,4.49,7.61,34.81,34.81,0,0,1,1.53,11.1,30.92,30.92,0,0,1-1.44,10,20.67,20.67,0,0,1-5,8.3,16.67,16.67,0,0,1-6.66,3.75,28.75,28.75,0,0,1-8.39,1H498.92Zm9.48,8v31.11h7.08a25.83,25.83,0,0,0,5.74-.45,8.83,8.83,0,0,0,3.83-2,10,10,0,0,0,2.48-4.53,30.64,30.64,0,0,0,1-8.6,28.06,28.06,0,0,0-1-8.36,10.74,10.74,0,0,0-2.69-4.55,9,9,0,0,0-4.39-2.21,42.86,42.86,0,0,0-7.79-.45Z"/><path class="cls-5" d="M546.59,210V163.4h9.49v38.67h23.58V210Z"/><path class="cls-5" d="M586.13,210V163h9.48v47Z"/><path class="cls-5" d="M604.74,210V163H614l19.22,31.37V163H642v47h-9.52l-18.93-30.63V210Z"/><path class="cls-5" d="M673.88,192.71V184.8h20.44v18.71a25.78,25.78,0,0,1-8.64,5.07,31.29,31.29,0,0,1-11.45,2.2,25.73,25.73,0,0,1-12.85-3.09,19.63,19.63,0,0,1-8.23-8.84,28.57,28.57,0,0,1-2.76-12.51,27,27,0,0,1,3.08-13,20.68,20.68,0,0,1,9-8.75,24.28,24.28,0,0,1,11.25-2.34q8.74,0,13.66,3.67A16.59,16.59,0,0,1,693.71,176l-9.42,1.76a9.93,9.93,0,0,0-3.73-5.46,11.26,11.26,0,0,0-6.84-2,12.85,12.85,0,0,0-9.89,3.94q-3.66,3.93-3.67,11.69,0,8.37,3.72,12.54a12.4,12.4,0,0,0,9.74,4.18,16.45,16.45,0,0,0,6-1.16,20.5,20.5,0,0,0,5.15-2.84v-6Z"/><path class="cls-5" d="M422,260.52l9.22-.9c.56,3.1,1.68,5.37,3.38,6.82a10.18,10.18,0,0,0,6.87,2.18q4.59,0,6.91-1.93a5.78,5.78,0,0,0,2.32-4.54,4.22,4.22,0,0,0-1-2.83,7.84,7.84,0,0,0-3.41-2c-1.11-.38-3.64-1.07-7.59-2q-7.62-1.89-10.7-4.64a12.25,12.25,0,0,1-4.33-9.45,12.08,12.08,0,0,1,2-6.72,12.71,12.71,0,0,1,5.86-4.75,23.46,23.46,0,0,1,9.24-1.64q8.85,0,13.32,3.88a13.7,13.7,0,0,1,4.69,10.35l-9.48.41a8,8,0,0,0-2.62-5.2q-2-1.59-6-1.59a10.82,10.82,0,0,0-6.47,1.7,3.42,3.42,0,0,0-1.51,2.91,3.62,3.62,0,0,0,1.41,2.86q1.8,1.5,8.71,3.14a45.12,45.12,0,0,1,10.24,3.38,13.15,13.15,0,0,1,5.19,4.77,14,14,0,0,1,1.87,7.48,13.79,13.79,0,0,1-2.24,7.56,13.41,13.41,0,0,1-6.34,5.24,26.68,26.68,0,0,1-10.22,1.71q-8.91,0-13.68-4.11C424.48,269.77,422.57,265.77,422,260.52Z"/><path class="cls-5" d="M480.46,275.8V256l-17.21-27.2h11.12l11.05,18.58,10.83-18.58h10.92L489.91,256.1v19.7Z"/><path class="cls-5" d="M509.48,260.52l9.23-.9q.82,4.65,3.38,6.82a10.18,10.18,0,0,0,6.87,2.18q4.57,0,6.9-1.93a5.79,5.79,0,0,0,2.33-4.54,4.27,4.27,0,0,0-1-2.83,7.84,7.84,0,0,0-3.41-2c-1.11-.38-3.64-1.07-7.6-2q-7.62-1.89-10.7-4.64a12.35,12.35,0,0,1-2.29-16.17,12.74,12.74,0,0,1,5.87-4.75,23.46,23.46,0,0,1,9.24-1.64q8.83,0,13.31,3.88a13.67,13.67,0,0,1,4.69,10.35l-9.48.41a8.07,8.07,0,0,0-2.61-5.2q-2-1.59-6-1.59a10.86,10.86,0,0,0-6.47,1.7,3.43,3.43,0,0,0-1.5,2.91,3.62,3.62,0,0,0,1.41,2.86c1.19,1,4.1,2.05,8.71,3.14a45.48,45.48,0,0,1,10.24,3.38,13.15,13.15,0,0,1,5.19,4.77,14,14,0,0,1,1.87,7.48,13.87,13.87,0,0,1-2.24,7.56,13.44,13.44,0,0,1-6.35,5.24,26.64,26.64,0,0,1-10.22,1.71q-8.9,0-13.68-4.11T509.48,260.52Z"/><path class="cls-5" d="M566.22,275.8v-39H552.28v-7.95h37.33v7.95H575.7v39Z"/><path class="cls-5" d="M595.72,275.8v-47h34.83v7.95H605.21v10.41h23.58v7.91H605.21v12.79h26.24v7.91Z"/><path class="cls-5" d="M639.36,275.8v-47h14.19l8.52,32,8.43-32h14.22v47h-8.81v-37l-9.32,37h-9.13l-9.29-37v37Z"/></svg>