<svg id="Layer_1" data-name="Layer 1" xmlns="http://www.w3.org/2000/svg" viewBox="0 0 1080 1080"><defs><style>.cls-1,.cls-2{fill:none;}.cls-2{stroke:#231f20;stroke-miterlimit:10;stroke-width:0.5px;}.cls-3{fill:#fdfefe;}.cls-4{fill:#fff;}</style></defs><title>correction plateform asset</title><rect class="cls-1" x="-1.15" width="1080" height="1080"/><rect x="275.72" y="80.19" width="526.26" height="212.63"/><rect x="275.72" y="787.18" width="526.26" height="212.63"/><polygon class="cls-2" points="801.98 787 275.72 787.18 275.72 292.82 801.98 292.82 801.98 787"/><path class="cls-3" d="M352.68,876.59V826.65h16.18q9.19,0,12,.75a13.11,13.11,0,0,1,7.19,4.89,15.5,15.5,0,0,1,2.9,9.72,16.35,16.35,0,0,1-1.67,7.74,13.77,13.77,0,0,1-4.24,4.92A14.79,14.79,0,0,1,379.8,857a58.38,58.38,0,0,1-10.46.71h-6.58v18.84Zm10.08-41.49v14.17h5.52c4,0,6.63-.26,8-.78a6.56,6.56,0,0,0,4.3-6.34,6.49,6.49,0,0,0-1.6-4.5,7,7,0,0,0-4.06-2.21,48,48,0,0,0-7.25-.34Z"/><path class="cls-3" d="M399.49,876.59V827.06h10.08v41.12h25.07v8.41Z"/><path class="cls-3" d="M486.86,876.59h-11l-4.36-11.34h-20l-4.12,11.34h-10.7l19.46-49.94h10.66ZM468.3,856.83l-6.88-18.53-6.75,18.53Z"/><path class="cls-3" d="M498.28,876.59V835.1H483.46v-8.45h39.68v8.45H508.36v41.49Z"/><path class="cls-3" d="M529.72,876.59V826.65H564v8.45H539.8v11.82h20.85v8.45H539.8v21.22Z"/><path class="cls-3" d="M570.22,851.93a31.6,31.6,0,0,1,2.29-12.81,23.33,23.33,0,0,1,4.65-6.85,19.45,19.45,0,0,1,6.45-4.5,27.55,27.55,0,0,1,10.77-2q11,0,17.66,6.85t6.62,19q0,12.09-6.57,18.92t-17.58,6.83q-11.13,0-17.71-6.79T570.22,851.93Zm10.39-.34q0,8.48,3.92,12.86a12.79,12.79,0,0,0,10,4.37,12.61,12.61,0,0,0,9.89-4.34q3.87-4.35,3.87-13t-3.76-12.81a14,14,0,0,0-20.05.05Q580.61,843,580.61,851.59Z"/><path class="cls-3" d="M626.57,876.59V826.65h21.22q8,0,11.63,1.35a11.43,11.43,0,0,1,5.81,4.78,14.44,14.44,0,0,1,2.18,7.87,13.33,13.33,0,0,1-3.3,9.28q-3.32,3.68-9.88,4.62a23.54,23.54,0,0,1,5.4,4.19,56.66,56.66,0,0,1,5.74,8.11l6.1,9.74H659.41l-7.29-10.87a69.7,69.7,0,0,0-5.32-7.34,7.76,7.76,0,0,0-3-2.08,16.81,16.81,0,0,0-5.08-.56h-2v20.85Zm10.08-28.82h7.46q7.26,0,9.06-.61a5.41,5.41,0,0,0,2.83-2.11,6.52,6.52,0,0,0,1-3.75,6,6,0,0,0-1.34-4.07,6.16,6.16,0,0,0-3.8-2q-1.23-.16-7.36-.17h-7.87Z"/><path class="cls-3" d="M676.78,876.59V826.65h15.09l9.06,34.07,9-34.07H725v49.94h-9.37V837.28l-9.92,39.31H696l-9.88-39.31v39.31Z"/><path class="cls-3" d="M473.37,960.31h-11L458.05,949h-20L434,960.31h-10.7l19.46-49.94h10.66Zm-18.56-19.76L447.93,922l-6.75,18.53Z"/><path class="cls-3" d="M476.17,944.06l9.81-.95q.88,4.93,3.59,7.25a10.85,10.85,0,0,0,7.31,2.32c3.25,0,5.69-.69,7.34-2.06a6.13,6.13,0,0,0,2.47-4.82,4.58,4.58,0,0,0-1-3,8.23,8.23,0,0,0-3.63-2.16q-1.77-.61-8.07-2.18-8.11-2-11.38-4.94a13,13,0,0,1-4.6-10,12.82,12.82,0,0,1,2.17-7.14,13.58,13.58,0,0,1,6.23-5.06,25.13,25.13,0,0,1,9.83-1.73q9.41,0,14.15,4.12a14.55,14.55,0,0,1,5,11l-10.08.45q-.64-3.86-2.78-5.54c-1.42-1.12-3.55-1.69-6.38-1.69a11.53,11.53,0,0,0-6.88,1.81,3.63,3.63,0,0,0-1.61,3.1,3.83,3.83,0,0,0,1.5,3q1.9,1.61,9.27,3.34a49.48,49.48,0,0,1,10.88,3.59,14,14,0,0,1,5.52,5.08,15.74,15.74,0,0,1-.39,16,14.25,14.25,0,0,1-6.75,5.57,28.12,28.12,0,0,1-10.86,1.82q-9.48,0-14.55-4.37T476.17,944.06Z"/><path class="cls-3" d="M522.7,944.06l9.81-.95q.88,4.93,3.6,7.25a10.82,10.82,0,0,0,7.3,2.32q4.88,0,7.34-2.06a6.13,6.13,0,0,0,2.47-4.82,4.57,4.57,0,0,0-1-3,8.35,8.35,0,0,0-3.63-2.16c-1.18-.41-3.88-1.14-8.08-2.18q-8.1-2-11.37-4.94a13.12,13.12,0,0,1-2.44-17.19,13.58,13.58,0,0,1,6.23-5.06,25.17,25.17,0,0,1,9.83-1.73q9.4,0,14.16,4.12a14.59,14.59,0,0,1,5,11l-10.09.45q-.64-3.86-2.77-5.54c-1.42-1.12-3.55-1.69-6.39-1.69a11.55,11.55,0,0,0-6.88,1.81,3.62,3.62,0,0,0-1.6,3.1,3.83,3.83,0,0,0,1.5,3q1.9,1.61,9.26,3.34a49.41,49.41,0,0,1,10.89,3.59,14,14,0,0,1,5.51,5.08,15.68,15.68,0,0,1-.39,16,14.27,14.27,0,0,1-6.74,5.57,28.21,28.21,0,0,1-10.87,1.82q-9.46,0-14.54-4.37T522.7,944.06Z"/><path class="cls-3" d="M571.79,960.31V910.37h37v8.45h-27v11.07H607v8.41H581.87v13.59h27.9v8.42Z"/><path class="cls-3" d="M629.56,960.31V918.82H614.75v-8.45h39.68v8.45H639.65v41.49Z"/><path class="cls-4" d="M347.31,146.62V94.37h22.21q8.37,0,12.17,1.41a12.05,12.05,0,0,1,6.08,5,15.1,15.1,0,0,1,2.28,8.24,13.91,13.91,0,0,1-3.46,9.71q-3.45,3.84-10.33,4.83a24.53,24.53,0,0,1,5.65,4.39,60.16,60.16,0,0,1,6,8.48l6.38,10.19H381.67l-7.62-11.37a75.89,75.89,0,0,0-5.56-7.68,8,8,0,0,0-3.18-2.17,17.38,17.38,0,0,0-5.31-.59h-2.14v21.81Zm10.55-30.15h7.81c5.06,0,8.22-.22,9.48-.64a5.71,5.71,0,0,0,3-2.21,6.85,6.85,0,0,0,1.07-3.92,6.26,6.26,0,0,0-1.41-4.26,6.44,6.44,0,0,0-4-2q-1.29-.18-7.7-.18h-8.24Z"/><path class="cls-4" d="M400,146.62V94.37h38.75v8.84h-28.2v11.58h26.24v8.81H410.54v14.22h29.2v8.8Z"/><path class="cls-4" d="M495.81,146.62H484.33l-4.56-11.87H458.88l-4.31,11.87h-11.2l20.36-52.25h11.15ZM476.38,126l-7.2-19.39L462.12,126Z"/><path class="cls-4" d="M501.69,146.62V94.8h10.55v43h26.23v8.8Z"/><path class="cls-4" d="M576.72,146.62V103.21H561.21V94.37h41.53v8.84H587.27v43.41Z"/><path class="cls-4" d="M609.23,146.62V94.37h10.55v52.25Z"/><path class="cls-4" d="M629.69,146.62V94.37h15.79L655,130l9.37-35.64h15.83v52.25h-9.8V105.49L660,146.62H649.83l-10.34-41.13v41.13Z"/><path class="cls-4" d="M690.64,146.62V94.37h38.75v8.84h-28.2v11.58h26.24v8.81H701.19v14.22h29.19v8.8Z"/><path class="cls-4" d="M328.37,186.37a33.09,33.09,0,0,1,2.39-13.4,24.64,24.64,0,0,1,4.86-7.17,20.41,20.41,0,0,1,6.76-4.7A28.63,28.63,0,0,1,353.64,159q11.55,0,18.48,7.17t6.94,19.92q0,12.66-6.88,19.8t-18.4,7.15q-11.65,0-18.53-7.11T328.37,186.37Zm10.87-.36q0,8.88,4.1,13.46a13.36,13.36,0,0,0,10.41,4.58,13.22,13.22,0,0,0,10.35-4.55q4-4.53,4-13.63t-3.94-13.4a14.6,14.6,0,0,0-21,.05Q339.24,177,339.24,186Z"/><path class="cls-4" d="M387.29,212.18V159.92h16.93q9.63,0,12.55.79a13.71,13.71,0,0,1,7.52,5.11,16.24,16.24,0,0,1,3,10.18,17.1,17.1,0,0,1-1.75,8.09,14.22,14.22,0,0,1-4.44,5.15,15.27,15.27,0,0,1-5.47,2.48,60.06,60.06,0,0,1-10.94.75h-6.88v19.71Zm10.55-43.42v14.83h5.77q6.24,0,8.34-.82a6.86,6.86,0,0,0,3.3-2.57,7,7,0,0,0,1.2-4.06,6.76,6.76,0,0,0-1.68-4.71,7.33,7.33,0,0,0-4.24-2.31,50.2,50.2,0,0,0-7.59-.36Z"/><path class="cls-4" d="M436,212.18V159.92h38.74v8.84H446.53v11.59h26.23v8.8H446.53v14.22h29.19v8.81Z"/><path class="cls-4" d="M484.71,212.18V159.92h22.2q8.38,0,12.17,1.41a12,12,0,0,1,6.08,5,15,15,0,0,1,2.28,8.23,14,14,0,0,1-3.45,9.72q-3.47,3.83-10.34,4.82a25.09,25.09,0,0,1,5.65,4.39,59.34,59.34,0,0,1,6,8.48l6.39,10.2H519.07l-7.63-11.37a73.64,73.64,0,0,0-5.56-7.69,8.2,8.2,0,0,0-3.17-2.17,17.47,17.47,0,0,0-5.31-.59h-2.14v21.82ZM495.26,182h7.8q7.59,0,9.48-.64a5.66,5.66,0,0,0,3-2.21,6.75,6.75,0,0,0,1.07-3.92,6.26,6.26,0,0,0-1.41-4.26,6.46,6.46,0,0,0-4-2.05c-.86-.12-3.42-.18-7.7-.18h-8.23Z"/><path class="cls-4" d="M584.51,212.18H573l-4.56-11.87H547.58l-4.31,11.87H532.08l20.35-52.26h11.16ZM565.08,191.5l-7.2-19.39-7,19.39Z"/><path class="cls-4" d="M596.45,212.18V168.76H580.94v-8.84h41.53v8.84H607v43.42Z"/><path class="cls-4" d="M629,212.18V159.92h10.55v52.26Z"/><path class="cls-4" d="M649.67,212.18V159.92h10.26l21.39,34.9v-34.9h9.8v52.26H680.54L659.47,178.1v34.08Z"/><path class="cls-4" d="M726.59,193v-8.8h22.74V205a28.61,28.61,0,0,1-9.61,5.65A35.1,35.1,0,0,1,727,213.07a28.63,28.63,0,0,1-14.29-3.44,21.83,21.83,0,0,1-9.16-9.84,31.67,31.67,0,0,1-3.07-13.92,30.11,30.11,0,0,1,3.42-14.51,23,23,0,0,1,10-9.73,27.08,27.08,0,0,1,12.51-2.6q9.74,0,15.2,4.08a18.39,18.39,0,0,1,7,11.28l-10.48,2a11,11,0,0,0-4.15-6.07,12.52,12.52,0,0,0-7.61-2.23q-6.92,0-11,4.38t-4.08,13q0,9.31,4.14,14a13.8,13.8,0,0,0,10.83,4.65,18.12,18.12,0,0,0,6.65-1.3,22.73,22.73,0,0,0,5.72-3.16V193Z"/><path class="cls-4" d="M392.67,260.71l10.27-1c.61,3.45,1.87,6,3.76,7.59a11.33,11.33,0,0,0,7.64,2.43q5.1,0,7.68-2.16a6.4,6.4,0,0,0,2.59-5,4.74,4.74,0,0,0-1.09-3.16,8.61,8.61,0,0,0-3.8-2.26c-1.23-.43-4.05-1.19-8.44-2.28q-8.49-2.1-11.91-5.17a13.6,13.6,0,0,1-4.81-10.52,13.38,13.38,0,0,1,2.26-7.46,14.18,14.18,0,0,1,6.53-5.3,26.15,26.15,0,0,1,10.28-1.82q9.84,0,14.81,4.32a15.2,15.2,0,0,1,5.22,11.51l-10.55.46q-.67-4-2.9-5.79t-6.69-1.76a12.07,12.07,0,0,0-7.2,1.89,3.82,3.82,0,0,0-1.67,3.24,4,4,0,0,0,1.57,3.17q2,1.68,9.69,3.5a50.89,50.89,0,0,1,11.39,3.76,14.59,14.59,0,0,1,5.77,5.31,15.52,15.52,0,0,1,2.09,8.32,15.33,15.33,0,0,1-2.5,8.41,14.89,14.89,0,0,1-7.05,5.83,29.67,29.67,0,0,1-11.37,1.91q-9.92,0-15.22-4.58T392.67,260.71Z"/><path class="cls-4" d="M457.76,277.71v-22l-19.14-30.26H451l12.29,20.67,12.05-20.67h12.16l-19.22,30.33v21.92Z"/><path class="cls-4" d="M490.05,260.71l10.27-1c.61,3.45,1.87,6,3.76,7.59a11.35,11.35,0,0,0,7.64,2.43q5.1,0,7.69-2.16a6.42,6.42,0,0,0,2.58-5,4.74,4.74,0,0,0-1.09-3.16,8.63,8.63,0,0,0-3.79-2.26q-1.86-.64-8.45-2.28-8.49-2.1-11.91-5.17a13.72,13.72,0,0,1-2.55-18,14.18,14.18,0,0,1,6.53-5.3A26.15,26.15,0,0,1,511,224.56q9.84,0,14.81,4.32A15.17,15.17,0,0,1,531,240.39l-10.55.46q-.68-4-2.9-5.79t-6.69-1.76a12.07,12.07,0,0,0-7.2,1.89,3.82,3.82,0,0,0-1.67,3.24,4,4,0,0,0,1.57,3.17q2,1.68,9.69,3.5a50.89,50.89,0,0,1,11.39,3.76,14.68,14.68,0,0,1,5.78,5.31,15.61,15.61,0,0,1,2.08,8.32,15.33,15.33,0,0,1-2.5,8.41,14.89,14.89,0,0,1-7,5.83,29.6,29.6,0,0,1-11.37,1.91q-9.92,0-15.22-4.58T490.05,260.71Z"/><path class="cls-4" d="M553.18,277.71V234.3H537.67v-8.84H579.2v8.84H563.73v43.41Z"/><path class="cls-4" d="M586,277.71V225.46h38.74v8.84H596.56v11.58h26.23v8.8H596.56v14.23h29.19v8.8Z"/><path class="cls-4" d="M634.55,277.71V225.46h15.79l9.49,35.64,9.37-35.64H685v52.25h-9.81V236.58l-10.37,41.13H654.69l-10.33-41.13v41.13Z"/><path d="M280.49,610.07V469.84h59.59q22.47,0,32.66,3.78a32.15,32.15,0,0,1,16.31,13.44,40.39,40.39,0,0,1,6.13,22.09q0,15.78-9.28,26.07t-27.74,13a66.21,66.21,0,0,1,15.16,11.76q6,6.42,16.12,22.77l17.12,27.36H372.7l-20.47-30.52q-10.91-16.35-14.92-20.61a21.68,21.68,0,0,0-8.52-5.83q-4.5-1.59-14.25-1.58H308.8v58.54Zm28.31-80.93h20.95q20.37,0,25.44-1.72a15.23,15.23,0,0,0,7.94-5.93A18.18,18.18,0,0,0,366,511q0-7.08-3.78-11.43T351.56,494q-3.45-.48-20.66-.48H308.8Z"/><path d="M453.43,610.07V493.56H411.82V469.84H523.26v23.72H481.74V610.07Z"/><path d="M532.25,540.81q0-21.42,6.41-36a66.23,66.23,0,0,1,13.05-19.23A54.84,54.84,0,0,1,569.84,473q13.11-5.53,30.23-5.54,31,0,49.59,19.22t18.61,53.47q0,34-18.46,53.14t-49.36,19.18q-31.28,0-49.74-19.09T532.25,540.81Zm29.17-.95q0,23.82,11,36.11t27.93,12.29q16.93,0,27.79-12.2T639,539.47q0-24.11-10.57-36t-28.08-11.86q-17.51,0-28.21,12T561.42,539.86Z"/><path d="M683.19,564.44l27.55-2.68q2.49,13.88,10.09,20.38t20.52,6.5q13.68,0,20.61-5.79t6.94-13.53a12.8,12.8,0,0,0-2.92-8.47q-2.93-3.48-10.19-6.07-5-1.72-22.67-6.12-22.77-5.65-32-13.87-12.92-11.58-12.91-28.22a36.05,36.05,0,0,1,6.07-20,38.09,38.09,0,0,1,17.51-14.21q11.43-4.87,27.6-4.87,26.4,0,39.74,11.57t14,30.9l-28.31,1.24q-1.82-10.82-7.8-15.54t-17.93-4.74q-12.35,0-19.32,5.07a10.22,10.22,0,0,0-4.5,8.71,10.76,10.76,0,0,0,4.21,8.51q5.36,4.5,26,9.37t30.56,10.1a39.39,39.39,0,0,1,15.5,14.25q5.58,9,5.59,22.33a41.27,41.27,0,0,1-6.7,22.58,40.11,40.11,0,0,1-18.93,15.64q-12.26,5.12-30.52,5.11-26.59,0-40.84-12.29T683.19,564.44Z"/></svg>