<svg id="Layer_1" data-name="Layer 1" xmlns="http://www.w3.org/2000/svg" viewBox="0 0 1080 1080"><defs><style>.cls-1,.cls-2{fill:none;}.cls-2{stroke:#231f20;stroke-miterlimit:10;stroke-width:0.5px;}.cls-3{fill:#fdfefe;}.cls-4{fill:#231f20;}.cls-5{fill:#fff;}</style></defs><title>PLATFORM ASSET</title><rect class="cls-1" width="1080" height="1080"/><rect x="276.87" y="80.19" width="526.26" height="212.63"/><rect x="276.87" y="787.18" width="526.26" height="212.63"/><polygon class="cls-2" points="803.13 787 276.87 787.18 276.87 292.82 803.13 292.82 803.13 787"/><path class="cls-3" d="M353.83,876.59V826.65H370q9.21,0,12,.75a13.07,13.07,0,0,1,7.19,4.89,15.5,15.5,0,0,1,2.9,9.72,16.35,16.35,0,0,1-1.67,7.74,13.67,13.67,0,0,1-4.24,4.92A14.79,14.79,0,0,1,381,857a58.3,58.3,0,0,1-10.46.71h-6.57v18.84Zm10.09-41.49v14.17h5.51c4,0,6.63-.26,8-.78a6.57,6.57,0,0,0,4.29-6.34,6.49,6.49,0,0,0-1.6-4.5,7,7,0,0,0-4.06-2.21,48,48,0,0,0-7.25-.34Z"/><path class="cls-3" d="M400.64,876.59V827.06h10.08v41.12h25.07v8.41Z"/><path class="cls-3" d="M488,876.59h-11l-4.36-11.34h-20l-4.12,11.34H437.91l19.45-49.94H468Zm-18.57-19.76-6.88-18.53-6.75,18.53Z"/><path class="cls-3" d="M499.43,876.59V835.1H484.61v-8.45H524.3v8.45H509.51v41.49Z"/><path class="cls-3" d="M530.87,876.59V826.65h34.24v8.45H541v11.82H561.8v8.45H541v21.22Z"/><path class="cls-3" d="M571.37,851.93a31.6,31.6,0,0,1,2.29-12.81,23.33,23.33,0,0,1,4.65-6.85,19.45,19.45,0,0,1,6.45-4.5,27.55,27.55,0,0,1,10.77-2q11,0,17.66,6.85t6.63,19q0,12.09-6.58,18.92t-17.58,6.83q-11.13,0-17.71-6.79T571.37,851.93Zm10.39-.34q0,8.48,3.92,12.86a12.79,12.79,0,0,0,10,4.37,12.61,12.61,0,0,0,9.89-4.34q3.87-4.35,3.87-13t-3.76-12.81a14,14,0,0,0-20,.05Q581.77,843,581.76,851.59Z"/><path class="cls-3" d="M627.72,876.59V826.65h21.22q8,0,11.63,1.35a11.43,11.43,0,0,1,5.81,4.78,14.35,14.35,0,0,1,2.18,7.87,13.33,13.33,0,0,1-3.3,9.28q-3.3,3.68-9.88,4.62a23.54,23.54,0,0,1,5.4,4.19,56.66,56.66,0,0,1,5.74,8.11l6.1,9.74H660.56l-7.29-10.87a69.7,69.7,0,0,0-5.32-7.34,7.76,7.76,0,0,0-3-2.08,16.78,16.78,0,0,0-5.07-.56H637.8v20.85Zm10.08-28.82h7.46q7.26,0,9.06-.61a5.41,5.41,0,0,0,2.83-2.11,6.52,6.52,0,0,0,1-3.75,6,6,0,0,0-1.34-4.07,6.16,6.16,0,0,0-3.8-2q-1.23-.16-7.36-.17H637.8Z"/><path class="cls-3" d="M677.93,876.59V826.65H693l9.06,34.07,9-34.07h15.13v49.94H716.8V837.28l-9.91,39.31h-9.71l-9.88-39.31v39.31Z"/><path class="cls-3" d="M474.53,960.31h-11L459.2,949h-20l-4.12,11.34H424.42l19.45-49.94h10.66ZM456,940.55,449.08,922l-6.75,18.53Z"/><path class="cls-3" d="M477.32,944.06l9.81-.95q.89,4.93,3.59,7.25a10.86,10.86,0,0,0,7.31,2.32q4.88,0,7.34-2.06a6.13,6.13,0,0,0,2.47-4.82,4.53,4.53,0,0,0-1-3,8.25,8.25,0,0,0-3.62-2.16q-1.79-.61-8.08-2.18-8.1-2-11.38-4.94a13.13,13.13,0,0,1-2.43-17.19,13.58,13.58,0,0,1,6.23-5.06,25.17,25.17,0,0,1,9.83-1.73q9.4,0,14.15,4.12a14.52,14.52,0,0,1,5,11l-10.08.45a8.59,8.59,0,0,0-2.77-5.54c-1.42-1.12-3.55-1.69-6.39-1.69a11.53,11.53,0,0,0-6.88,1.81,3.62,3.62,0,0,0-1.6,3.1,3.82,3.82,0,0,0,1.49,3c1.28,1.07,4.36,2.18,9.27,3.34a49.29,49.29,0,0,1,10.88,3.59,14,14,0,0,1,5.52,5.08,15.68,15.68,0,0,1-.39,16,14.27,14.27,0,0,1-6.74,5.57,28.21,28.21,0,0,1-10.87,1.82q-9.48,0-14.55-4.37T477.32,944.06Z"/><path class="cls-3" d="M523.85,944.06l9.81-.95q.89,4.93,3.6,7.25a10.82,10.82,0,0,0,7.3,2.32q4.88,0,7.35-2.06a6.16,6.16,0,0,0,2.47-4.82,4.58,4.58,0,0,0-1-3,8.35,8.35,0,0,0-3.63-2.16q-1.77-.61-8.07-2.18-8.11-2-11.38-4.94a13.12,13.12,0,0,1-2.44-17.19,13.56,13.56,0,0,1,6.24-5.06,25.08,25.08,0,0,1,9.82-1.73q9.4,0,14.16,4.12a14.55,14.55,0,0,1,5,11l-10.09.45q-.65-3.86-2.77-5.54c-1.42-1.12-3.55-1.69-6.39-1.69a11.55,11.55,0,0,0-6.88,1.81,3.62,3.62,0,0,0-1.6,3.1,3.83,3.83,0,0,0,1.5,3q1.91,1.61,9.26,3.34A49.41,49.41,0,0,1,557,932.73a14,14,0,0,1,5.52,5.08,14.91,14.91,0,0,1,2,8,14.72,14.72,0,0,1-2.39,8,14.23,14.23,0,0,1-6.74,5.57,28.21,28.21,0,0,1-10.87,1.82q-9.47,0-14.54-4.37T523.85,944.06Z"/><path class="cls-3" d="M572.94,960.31V910.37h37v8.45H583v11.07H608.1v8.41H583v13.59h27.9v8.42Z"/><path class="cls-3" d="M630.72,960.31V918.82H615.9v-8.45h39.68v8.45H640.8v41.49Z"/><path class="cls-4" d="M283.69,638.45V441.55h83.68q31.56,0,45.86,5.31a45.26,45.26,0,0,1,22.9,18.87q8.6,13.56,8.6,31,0,22.17-13,36.6t-38.95,18.2A92.89,92.89,0,0,1,414,568.07q8.38,9,22.63,32l24,38.41H413.17L384.42,595.6q-15.3-23-20.95-28.94a30.55,30.55,0,0,0-12-8.19q-6.31-2.22-20-2.22h-8.06v82.2Zm39.76-113.63h29.41q28.61,0,35.73-2.41a21.44,21.44,0,0,0,11.14-8.33q4-5.91,4-14.77,0-9.94-5.3-16.06t-15-7.72q-4.83-.66-29-.67h-31Z"/><path class="cls-4" d="M459.49,574.32l38.68-3.76q3.48,19.47,14.17,28.6t28.81,9.13q19.2,0,28.94-8.12t9.74-19a17.93,17.93,0,0,0-4.1-11.88q-4.1-4.9-14.31-8.53-7-2.41-31.82-8.6-32-7.92-44.86-19.47-18.14-16.24-18.13-39.62a50.65,50.65,0,0,1,8.52-28.14q8.53-13.1,24.58-19.94t38.75-6.85q37.06,0,55.8,16.25t19.68,43.38l-39.76,1.75q-2.55-15.18-10.94-21.83T538.06,471q-17.34,0-27.13,7.12a14.35,14.35,0,0,0-6.32,12.22q0,7,5.91,12,7.53,6.32,36.53,13.16T590,529.66a55.35,55.35,0,0,1,21.75,20q7.86,12.69,7.86,31.36a57.92,57.92,0,0,1-9.4,31.69,56.23,56.23,0,0,1-26.59,22q-17.21,7.2-42.85,7.19-37.33,0-57.35-17.26T459.49,574.32Z"/><path class="cls-4" d="M636.21,574.32l38.68-3.76q3.5,19.47,14.17,28.6t28.81,9.13q19.2,0,28.94-8.12t9.74-19a17.92,17.92,0,0,0-4.09-11.88q-4.11-4.9-14.31-8.53-7-2.41-31.83-8.6-32-7.92-44.86-19.47-18.13-16.24-18.13-39.62a50.59,50.59,0,0,1,8.53-28.14q8.52-13.1,24.58-19.94t38.74-6.85q37.08,0,55.81,16.25t19.68,43.38l-39.76,1.75q-2.55-15.18-10.95-21.83T714.78,471q-17.32,0-27.13,7.12a14.35,14.35,0,0,0-6.31,12.22q0,7,5.91,12,7.51,6.32,36.53,13.16t42.91,14.17a55.31,55.31,0,0,1,21.76,20q7.86,12.69,7.86,31.36a57.93,57.93,0,0,1-9.41,31.69,56.18,56.18,0,0,1-26.59,22q-17.19,7.2-42.84,7.19-37.35,0-57.35-17.26T636.21,574.32Z"/><path class="cls-5" d="M394.8,211.52v-50h21.26q8,0,11.66,1.35a11.46,11.46,0,0,1,5.82,4.79,14.47,14.47,0,0,1,2.18,7.88,13.32,13.32,0,0,1-3.31,9.3c-2.21,2.45-5.5,4-9.9,4.63a23.15,23.15,0,0,1,5.41,4.2,56,56,0,0,1,5.75,8.12l6.11,9.76H427.7l-7.3-10.89a68.65,68.65,0,0,0-5.33-7.35,7.65,7.65,0,0,0-3-2.08,16.5,16.5,0,0,0-5.09-.57H404.9v20.89Zm10.1-28.87h7.48c4.85,0,7.87-.21,9.08-.62a5.45,5.45,0,0,0,2.83-2.11,6.55,6.55,0,0,0,1-3.76,6.06,6.06,0,0,0-1.34-4.08,6.21,6.21,0,0,0-3.81-2q-1.23-.17-7.37-.17H404.9Z"/><path class="cls-5" d="M445.24,211.52v-50h37.1V170h-27V181h25.12v8.43H455.34v13.62h28v8.43Z"/><path class="cls-5" d="M491.73,211.52v-50h15.12l9.07,34.13,9-34.13h15.15v50h-9.38V172.14l-9.93,39.38H511l-9.9-39.38v39.38Z"/><path class="cls-5" d="M548,186.81A31.88,31.88,0,0,1,550.32,174a23.47,23.47,0,0,1,4.66-6.86,19.51,19.51,0,0,1,6.47-4.51,27.46,27.46,0,0,1,10.78-2q11.07,0,17.7,6.86t6.64,19.08q0,12.12-6.59,19t-17.61,6.84q-11.16,0-17.75-6.81T548,186.81Zm10.41-.34q0,8.49,3.92,12.88a13.49,13.49,0,0,0,19.88,0q3.87-4.35,3.87-13.06t-3.77-12.83a14,14,0,0,0-20.08.05Q558.45,177.84,558.45,186.47Z"/><path class="cls-5" d="M615.71,211.52V170H600.87v-8.46h39.76V170H625.82v41.57Z"/><path class="cls-5" d="M647.14,211.52v-50h37.1V170h-27V181h25.11v8.43H657.25v13.62h28v8.43Z"/><path class="cls-5" d="M386.08,256.29l9.83-1q.88,4.95,3.6,7.27a10.87,10.87,0,0,0,7.32,2.32q4.89,0,7.36-2.06a6.15,6.15,0,0,0,2.47-4.83,4.51,4.51,0,0,0-1-3,8.24,8.24,0,0,0-3.63-2.17c-1.19-.41-3.88-1.14-8.09-2.18q-8.13-2-11.4-4.95a13,13,0,0,1-4.61-10.07,12.82,12.82,0,0,1,2.17-7.15,13.54,13.54,0,0,1,6.25-5.07,25,25,0,0,1,9.84-1.74q9.42,0,14.18,4.13a14.59,14.59,0,0,1,5,11l-10.1.45a8.6,8.6,0,0,0-2.78-5.55q-2.15-1.69-6.4-1.69a11.52,11.52,0,0,0-6.9,1.81,3.64,3.64,0,0,0-1.6,3.11,3.83,3.83,0,0,0,1.5,3q1.92,1.6,9.28,3.35a49,49,0,0,1,10.91,3.6,14.07,14.07,0,0,1,5.53,5.08,15.81,15.81,0,0,1-.39,16,14.4,14.4,0,0,1-6.76,5.58,28.48,28.48,0,0,1-10.89,1.82q-9.48,0-14.57-4.38T386.08,256.29Z"/><path class="cls-5" d="M435.26,272.57v-50h37.1V231h-27v11.09h25.12v8.43H445.36v13.62h27.95v8.43Z"/><path class="cls-5" d="M482,272.57v-50h9.83l20.48,33.41V222.53h9.38v50H511.54l-20.17-32.63v32.63Z"/><path class="cls-5" d="M529.8,256.29l9.83-1q.89,4.95,3.6,7.27a10.84,10.84,0,0,0,7.32,2.32q4.88,0,7.35-2.06a6.16,6.16,0,0,0,2.48-4.83,4.52,4.52,0,0,0-1-3,8.24,8.24,0,0,0-3.63-2.17q-1.77-.61-8.09-2.18-8.11-2-11.4-4.95a13,13,0,0,1-4.6-10.07,12.89,12.89,0,0,1,2.16-7.15,13.59,13.59,0,0,1,6.25-5.07,25,25,0,0,1,9.84-1.74q9.42,0,14.18,4.13a14.55,14.55,0,0,1,5,11l-10.1.45a8.6,8.6,0,0,0-2.78-5.55Q554,230,549.76,230a11.51,11.51,0,0,0-6.89,1.81,3.65,3.65,0,0,0-1.61,3.11,3.81,3.81,0,0,0,1.51,3q1.9,1.6,9.28,3.35a48.92,48.92,0,0,1,10.9,3.6,14,14,0,0,1,5.53,5.08,15.75,15.75,0,0,1-.39,16,14.4,14.4,0,0,1-6.76,5.58,28.48,28.48,0,0,1-10.89,1.82q-9.48,0-14.57-4.38T529.8,256.29Z"/><path class="cls-5" d="M578.67,272.57v-50h10.1v50Z"/><path class="cls-5" d="M598.5,272.57v-50h9.82l20.48,33.41V222.53h9.39v50H628.05l-20.17-32.63v32.63Z"/><path class="cls-5" d="M672.14,254.17v-8.43h21.78v19.93a27.51,27.51,0,0,1-9.2,5.41,33.45,33.45,0,0,1-12.2,2.34,27.36,27.36,0,0,1-13.69-3.3,20.93,20.93,0,0,1-8.77-9.41,30.56,30.56,0,0,1-2.93-13.33,28.84,28.84,0,0,1,3.27-13.89,22.09,22.09,0,0,1,9.59-9.32,25.89,25.89,0,0,1,12-2.49q9.31,0,14.56,3.91a17.62,17.62,0,0,1,6.74,10.8l-10,1.88a10.57,10.57,0,0,0-4-5.82,12.06,12.06,0,0,0-7.29-2.14q-6.62,0-10.53,4.2T657.54,247q0,8.91,4,13.36a13.19,13.19,0,0,0,10.37,4.45,17.42,17.42,0,0,0,6.37-1.24,21.89,21.89,0,0,0,5.47-3v-6.35Z"/><path class="cls-5" d="M376,134.16l9.83-1c.59,3.3,1.79,5.73,3.6,7.27a10.87,10.87,0,0,0,7.32,2.32c3.26,0,5.71-.68,7.36-2.06a6.15,6.15,0,0,0,2.47-4.83,4.53,4.53,0,0,0-1-3,8.33,8.33,0,0,0-3.63-2.17c-1.19-.41-3.88-1.13-8.09-2.18q-8.13-2-11.4-5a13.13,13.13,0,0,1-2.44-17.22,13.59,13.59,0,0,1,6.25-5.06A24.81,24.81,0,0,1,396,99.55q9.42,0,14.18,4.13a14.58,14.58,0,0,1,5,11l-10.1.44q-.64-3.86-2.78-5.54c-1.42-1.13-3.56-1.69-6.4-1.69a11.61,11.61,0,0,0-6.9,1.8,3.68,3.68,0,0,0-1.6,3.11,3.85,3.85,0,0,0,1.5,3q1.92,1.6,9.29,3.34a49.1,49.1,0,0,1,10.9,3.6,14.09,14.09,0,0,1,5.53,5.09,15.79,15.79,0,0,1-.39,16,14.4,14.4,0,0,1-6.76,5.58,28.27,28.27,0,0,1-10.89,1.83q-9.48,0-14.57-4.39T376,134.16Z"/><path class="cls-5" d="M438.28,150.44V129.38l-18.33-29H431.8l11.77,19.79,11.54-19.79h11.63l-18.39,29v21Z"/><path class="cls-5" d="M469.2,134.16l9.83-1c.59,3.3,1.79,5.73,3.6,7.27a10.87,10.87,0,0,0,7.32,2.32c3.25,0,5.71-.68,7.36-2.06a6.15,6.15,0,0,0,2.47-4.83,4.58,4.58,0,0,0-1-3,8.37,8.37,0,0,0-3.64-2.17c-1.18-.41-3.87-1.13-8.08-2.18q-8.13-2-11.4-5A13,13,0,0,1,471,113.51a12.85,12.85,0,0,1,2.17-7.15,13.56,13.56,0,0,1,6.24-5.06,24.86,24.86,0,0,1,9.85-1.75q9.42,0,14.18,4.13a14.61,14.61,0,0,1,5,11l-10.1.44c-.44-2.57-1.36-4.42-2.78-5.54s-3.56-1.69-6.4-1.69a11.59,11.59,0,0,0-6.9,1.8,3.65,3.65,0,0,0-1.6,3.11,3.85,3.85,0,0,0,1.5,3q1.9,1.6,9.28,3.34a49,49,0,0,1,10.91,3.6,14.16,14.16,0,0,1,5.53,5.09,14.87,14.87,0,0,1,2,8,14.67,14.67,0,0,1-2.39,8,14.33,14.33,0,0,1-6.75,5.58,28.34,28.34,0,0,1-10.89,1.83q-9.5,0-14.57-4.39T469.2,134.16Z"/><path class="cls-5" d="M529.64,150.44V108.87H514.8v-8.46h39.75v8.46H539.74v41.57Z"/><path class="cls-5" d="M561.07,150.44v-50h37.1v8.46h-27V120h25.11v8.43H571.18V142h28v8.43Z"/><path class="cls-5" d="M607.56,150.44v-50h15.11l9.08,34.13,9-34.13h15.15v50H646.5V111.06l-9.93,39.38h-9.73l-9.9-39.38v39.38Z"/><path class="cls-5" d="M663.36,134.16l9.82-1c.59,3.3,1.8,5.73,3.6,7.27a10.87,10.87,0,0,0,7.32,2.32c3.26,0,5.71-.68,7.36-2.06a6.15,6.15,0,0,0,2.47-4.83,4.53,4.53,0,0,0-1-3,8.33,8.33,0,0,0-3.63-2.17c-1.19-.41-3.88-1.13-8.09-2.18-5.42-1.34-9.21-3-11.4-5a13.13,13.13,0,0,1-2.44-17.22,13.64,13.64,0,0,1,6.25-5.06,24.81,24.81,0,0,1,9.84-1.75q9.42,0,14.18,4.13a14.58,14.58,0,0,1,5,11l-10.1.44q-.64-3.86-2.78-5.54c-1.42-1.13-3.56-1.69-6.4-1.69a11.56,11.56,0,0,0-6.89,1.8,3.66,3.66,0,0,0-1.61,3.11,3.85,3.85,0,0,0,1.5,3q1.92,1.6,9.29,3.34a48.92,48.92,0,0,1,10.9,3.6A14.09,14.09,0,0,1,702,127.9a15.73,15.73,0,0,1-.39,16,14.4,14.4,0,0,1-6.76,5.58A28.27,28.27,0,0,1,684,151.33q-9.48,0-14.57-4.39T663.36,134.16Z"/></svg>