<svg id="Layer_1" data-name="Layer 1" xmlns="http://www.w3.org/2000/svg" viewBox="0 0 1080 1080"><defs><style>.cls-1,.cls-2{fill:none;}.cls-2{stroke:#231f20;stroke-miterlimit:10;stroke-width:0.5px;}.cls-3{fill:#fdfefe;}.cls-4{fill:#231f20;}.cls-5{fill:#fff;}</style></defs><title>PLATFORM ASSET</title><rect class="cls-1" x="3.04" width="1080" height="1080"/><rect x="279.91" y="80.19" width="526.26" height="212.63"/><rect x="279.91" y="787.18" width="526.26" height="212.63"/><polygon class="cls-2" points="806.17 787 279.91 787.18 279.91 292.82 806.17 292.82 806.17 787"/><path class="cls-3" d="M356.87,876.59V826.65h16.18q9.21,0,12,.75a13.07,13.07,0,0,1,7.19,4.89,15.5,15.5,0,0,1,2.9,9.72,16.35,16.35,0,0,1-1.67,7.74,13.67,13.67,0,0,1-4.24,4.92A14.79,14.79,0,0,1,384,857a58.3,58.3,0,0,1-10.46.71H367v18.84ZM367,835.1v14.17h5.51c4,0,6.63-.26,8-.78a6.57,6.57,0,0,0,4.29-6.34,6.49,6.49,0,0,0-1.6-4.5,7,7,0,0,0-4.06-2.21,48,48,0,0,0-7.25-.34Z"/><path class="cls-3" d="M403.68,876.59V827.06h10.08v41.12h25.07v8.41Z"/><path class="cls-3" d="M491.06,876.59h-11l-4.36-11.34h-20l-4.12,11.34H441l19.45-49.94h10.66Zm-18.57-19.76-6.88-18.53-6.75,18.53Z"/><path class="cls-3" d="M502.47,876.59V835.1H487.65v-8.45h39.69v8.45H512.55v41.49Z"/><path class="cls-3" d="M533.91,876.59V826.65h34.24v8.45H544v11.82h20.85v8.45H544v21.22Z"/><path class="cls-3" d="M574.41,851.93a31.6,31.6,0,0,1,2.29-12.81,23.33,23.33,0,0,1,4.65-6.85,19.45,19.45,0,0,1,6.45-4.5,27.55,27.55,0,0,1,10.77-2q11,0,17.66,6.85t6.63,19q0,12.09-6.58,18.92t-17.58,6.83q-11.13,0-17.71-6.79T574.41,851.93Zm10.39-.34q0,8.48,3.92,12.86a12.79,12.79,0,0,0,9.95,4.37,12.61,12.61,0,0,0,9.89-4.34q3.87-4.35,3.87-13t-3.76-12.81a14,14,0,0,0-20,.05Q584.81,843,584.8,851.59Z"/><path class="cls-3" d="M630.76,876.59V826.65H652q8,0,11.63,1.35a11.43,11.43,0,0,1,5.81,4.78,14.35,14.35,0,0,1,2.18,7.87,13.33,13.33,0,0,1-3.3,9.28q-3.3,3.68-9.88,4.62a23.54,23.54,0,0,1,5.4,4.19,56.66,56.66,0,0,1,5.74,8.11l6.1,9.74H663.6l-7.29-10.87a69.7,69.7,0,0,0-5.32-7.34,7.76,7.76,0,0,0-3-2.08,16.78,16.78,0,0,0-5.07-.56h-2v20.85Zm10.08-28.82h7.46q7.26,0,9.06-.61a5.41,5.41,0,0,0,2.83-2.11,6.52,6.52,0,0,0,1-3.75,6,6,0,0,0-1.34-4.07,6.16,6.16,0,0,0-3.8-2q-1.23-.16-7.36-.17h-7.87Z"/><path class="cls-3" d="M681,876.59V826.65h15.09l9.06,34.07,9-34.07h15.13v49.94h-9.37V837.28l-9.91,39.31h-9.71l-9.88-39.31v39.31Z"/><path class="cls-3" d="M477.57,960.31h-11L462.24,949h-20l-4.12,11.34H427.46l19.45-49.94h10.66ZM459,940.55,452.12,922l-6.75,18.53Z"/><path class="cls-3" d="M480.36,944.06l9.81-.95q.88,4.93,3.59,7.25a10.86,10.86,0,0,0,7.31,2.32q4.88,0,7.34-2.06a6.13,6.13,0,0,0,2.47-4.82,4.53,4.53,0,0,0-1-3,8.25,8.25,0,0,0-3.62-2.16q-1.79-.61-8.08-2.18-8.1-2-11.38-4.94a13.13,13.13,0,0,1-2.43-17.19,13.58,13.58,0,0,1,6.23-5.06,25.17,25.17,0,0,1,9.83-1.73q9.41,0,14.15,4.12a14.52,14.52,0,0,1,5,11l-10.08.45a8.59,8.59,0,0,0-2.77-5.54c-1.42-1.12-3.55-1.69-6.39-1.69a11.53,11.53,0,0,0-6.88,1.81,3.62,3.62,0,0,0-1.6,3.1,3.82,3.82,0,0,0,1.49,3c1.28,1.07,4.36,2.18,9.27,3.34a49.29,49.29,0,0,1,10.88,3.59,14,14,0,0,1,5.52,5.08,15.68,15.68,0,0,1-.39,16,14.27,14.27,0,0,1-6.74,5.57A28.21,28.21,0,0,1,501,961.19q-9.48,0-14.55-4.37T480.36,944.06Z"/><path class="cls-3" d="M526.89,944.06l9.81-.95q.88,4.93,3.6,7.25a10.82,10.82,0,0,0,7.3,2.32q4.88,0,7.35-2.06a6.16,6.16,0,0,0,2.47-4.82,4.58,4.58,0,0,0-1-3,8.35,8.35,0,0,0-3.63-2.16q-1.77-.61-8.07-2.18-8.11-2-11.38-4.94a13.12,13.12,0,0,1-2.44-17.19,13.56,13.56,0,0,1,6.24-5.06,25.08,25.08,0,0,1,9.82-1.73q9.41,0,14.16,4.12a14.55,14.55,0,0,1,5,11l-10.09.45q-.65-3.86-2.77-5.54c-1.42-1.12-3.55-1.69-6.39-1.69a11.55,11.55,0,0,0-6.88,1.81,3.62,3.62,0,0,0-1.6,3.1,3.83,3.83,0,0,0,1.5,3q1.9,1.61,9.26,3.34A49.41,49.41,0,0,1,560,932.73a14,14,0,0,1,5.52,5.08,14.91,14.91,0,0,1,2,8,14.72,14.72,0,0,1-2.39,8,14.23,14.23,0,0,1-6.74,5.57,28.21,28.21,0,0,1-10.87,1.82q-9.46,0-14.54-4.37T526.89,944.06Z"/><path class="cls-3" d="M576,960.31V910.37h37v8.45h-27v11.07h25.08v8.41H586.06v13.59H614v8.42Z"/><path class="cls-3" d="M633.76,960.31V918.82H618.94v-8.45h39.68v8.45H643.84v41.49Z"/><path class="cls-4" d="M285,576l40.57-4q3.66,20.43,14.86,30t30.21,9.58q20.14,0,30.36-8.52t10.21-19.94a18.75,18.75,0,0,0-4.3-12.46q-4.29-5.15-15-9-7.32-2.53-33.38-9Q325,544.44,311.5,532.32q-19-17-19-41.55a53.13,53.13,0,0,1,8.94-29.51q8.94-13.72,25.78-20.92t40.63-7.18q38.88,0,58.53,17T447,495.7l-41.7,1.83q-2.67-15.91-11.48-22.89t-26.41-7q-18.17,0-28.45,7.47A15,15,0,0,0,332.35,488q0,7.33,6.2,12.54,7.88,6.63,38.31,13.8t45,14.86a58,58,0,0,1,22.82,21q8.24,13.3,8.24,32.89a60.81,60.81,0,0,1-9.86,33.24q-9.85,15.51-27.89,23t-44.93,7.54q-39.17,0-60.15-18.1T285,576Z"/><path class="cls-4" d="M642.88,646.47V440h66.9q38,0,49.59,3.1,17.75,4.65,29.72,20.22t12,40.21q0,19-6.9,32a56.63,56.63,0,0,1-17.54,20.36A60.52,60.52,0,0,1,755,565.62q-14.94,3-43.24,3H684.57v77.9ZM684.57,474.9v58.6h22.82q24.65,0,33-3.24a27.41,27.41,0,0,0,13-10.14,27.72,27.72,0,0,0,4.72-16.06q0-11.26-6.62-18.59a28.92,28.92,0,0,0-16.76-9.16q-7.47-1.4-30-1.41Z"/><path class="cls-4" d="M469.56,646.1V439.6h66.91q38,0,49.58,3.1,17.75,4.65,29.72,20.21t12,40.22q0,19-6.91,32a56.49,56.49,0,0,1-17.53,20.35,60.38,60.38,0,0,1-21.62,9.8q-14.94,3-43.25,3H511.26v77.9Zm41.7-171.57v58.6h22.82q24.64,0,33-3.24a27.41,27.41,0,0,0,13-10.14,27.79,27.79,0,0,0,4.71-16.06q0-11.26-6.62-18.59a28.84,28.84,0,0,0-16.76-9.16q-7.47-1.4-30-1.41Z"/><path class="cls-5" d="M423.13,124l10.27-1c.61,3.45,1.87,6,3.76,7.59a11.35,11.35,0,0,0,7.64,2.43q5.1,0,7.69-2.16a6.42,6.42,0,0,0,2.58-5,4.74,4.74,0,0,0-1.09-3.16,8.63,8.63,0,0,0-3.79-2.26q-1.86-.65-8.45-2.28Q433.25,116,429.83,113a13.72,13.72,0,0,1-2.55-18,14.18,14.18,0,0,1,6.53-5.3,26.15,26.15,0,0,1,10.28-1.82q9.84,0,14.81,4.32a15.17,15.17,0,0,1,5.22,11.51l-10.55.46q-.68-4-2.9-5.79T444,96.62a12.07,12.07,0,0,0-7.2,1.89,3.81,3.81,0,0,0-1.67,3.24,4,4,0,0,0,1.57,3.17q2,1.68,9.69,3.5a50.89,50.89,0,0,1,11.39,3.76,14.68,14.68,0,0,1,5.78,5.31,15.61,15.61,0,0,1,2.08,8.32,15.33,15.33,0,0,1-2.5,8.41,14.89,14.89,0,0,1-7.05,5.83A29.6,29.6,0,0,1,444.7,142q-9.92,0-15.22-4.58T423.13,124Z"/><path class="cls-5" d="M474.5,141V88.78h16.93q9.61,0,12.54.78a13.7,13.7,0,0,1,7.53,5.12,16.24,16.24,0,0,1,3,10.17,17.07,17.07,0,0,1-1.74,8.09,14.33,14.33,0,0,1-4.44,5.15,15.18,15.18,0,0,1-5.47,2.48,60.13,60.13,0,0,1-10.94.75h-6.88V141Zm10.55-43.41v14.82h5.77q6.24,0,8.34-.82a6.94,6.94,0,0,0,3.3-2.56,7.09,7.09,0,0,0,1.19-4.07,6.76,6.76,0,0,0-1.67-4.7A7.29,7.29,0,0,0,497.74,98a50.73,50.73,0,0,0-7.6-.35Z"/><path class="cls-5" d="M564.89,141H553.41l-4.56-11.87H528L523.65,141H512.46l20.35-52.25H544Zm-19.43-20.67L538.26,101l-7,19.39Z"/><path class="cls-5" d="M603.92,121.82l10.23,3.24q-2.35,8.56-7.82,12.71t-13.89,4.15a22.48,22.48,0,0,1-17.11-7.11q-6.69-7.11-6.7-19.44,0-13.05,6.74-20.27t17.71-7.22q9.6,0,15.58,5.67a20.61,20.61,0,0,1,5.35,9.63l-10.45,2.49a10.8,10.8,0,0,0-11-8.77,11.9,11.9,0,0,0-9.43,4.17q-3.61,4.17-3.62,13.51,0,9.92,3.57,14.12a11.57,11.57,0,0,0,9.27,4.2,10.57,10.57,0,0,0,7.23-2.67Q602.6,127.56,603.92,121.82Z"/><path class="cls-5" d="M623.2,141V88.78H662v8.84h-28.2V109.2H660V118H633.75v14.23H663V141Z"/><path class="cls-5" d="M399.09,212.64V160.39H416q9.63,0,12.55.78a13.71,13.71,0,0,1,7.52,5.11,16.24,16.24,0,0,1,3,10.18,17,17,0,0,1-1.75,8.09,14.14,14.14,0,0,1-4.44,5.15,15.1,15.1,0,0,1-5.47,2.48,60.06,60.06,0,0,1-10.94.75h-6.88v19.71Zm10.55-43.41v14.82h5.78q6.22,0,8.34-.82a6.86,6.86,0,0,0,3.29-2.56,7,7,0,0,0,1.2-4.07,6.72,6.72,0,0,0-1.68-4.7,7.26,7.26,0,0,0-4.24-2.32,50.66,50.66,0,0,0-7.59-.35Z"/><path class="cls-5" d="M489.48,212.64H478l-4.57-11.87H452.56l-4.32,11.87H437.05l20.35-52.25h11.16ZM470.06,192l-7.2-19.39L455.8,192Z"/><path class="cls-5" d="M528.52,193.43l10.23,3.24q-2.36,8.55-7.83,12.71T517,213.53a22.48,22.48,0,0,1-17.11-7.11q-6.71-7.11-6.7-19.44,0-13,6.73-20.27t17.72-7.22q9.59,0,15.58,5.67a20.69,20.69,0,0,1,5.34,9.63l-10.44,2.49a10.79,10.79,0,0,0-11-8.77,11.88,11.88,0,0,0-9.42,4.17q-3.63,4.17-3.62,13.51,0,9.92,3.56,14.12a11.59,11.59,0,0,0,9.27,4.2,10.59,10.59,0,0,0,7.24-2.67Q527.2,199.17,528.52,193.43Z"/><path class="cls-5" d="M547.94,212.64V160.39h10.55v23.2l21.32-23.2H594l-19.67,20.35,20.74,31.9H581.41l-14.36-24.52-8.56,8.73v15.79Z"/><path class="cls-5" d="M600.52,212.64V160.39h38.74v8.84H611.07v11.58H637.3v8.8H611.07v14.23h29.19v8.8Z"/><path class="cls-5" d="M661,212.64V169.23H645.46v-8.84H687v8.84H671.52v43.41Z"/><path class="cls-5" d="M340.63,284.23V232h16.93q9.63,0,12.55.78a13.7,13.7,0,0,1,7.52,5.12,16.19,16.19,0,0,1,3,10.17,17.07,17.07,0,0,1-1.74,8.09,14.33,14.33,0,0,1-4.44,5.15,15.26,15.26,0,0,1-5.47,2.48,60.18,60.18,0,0,1-10.95.75h-6.88v19.71Zm10.55-43.41v14.82H357q6.24,0,8.34-.82a6.94,6.94,0,0,0,3.3-2.56,7.09,7.09,0,0,0,1.19-4.07,6.77,6.77,0,0,0-1.67-4.7,7.32,7.32,0,0,0-4.25-2.32,52.12,52.12,0,0,0-7.59-.35Z"/><path class="cls-5" d="M389.36,284.23V232h22.21q8.37,0,12.17,1.41a12,12,0,0,1,6.08,5,15.08,15.08,0,0,1,2.28,8.24,14,14,0,0,1-3.46,9.71q-3.47,3.82-10.34,4.83a24.56,24.56,0,0,1,5.65,4.38,59.44,59.44,0,0,1,6,8.49l6.38,10.19H423.72l-7.63-11.37a74.27,74.27,0,0,0-5.56-7.68,8,8,0,0,0-3.17-2.17,17.15,17.15,0,0,0-5.31-.59h-2.14v21.81Zm10.55-30.15h7.81q7.59,0,9.48-.65a5.65,5.65,0,0,0,3-2.21,6.81,6.81,0,0,0,1.07-3.92,6.29,6.29,0,0,0-1.41-4.26,6.51,6.51,0,0,0-4-2q-1.27-.17-7.7-.17h-8.23Z"/><path class="cls-5" d="M439.9,258.43A33.31,33.31,0,0,1,442.29,245a24.49,24.49,0,0,1,4.87-7.16,20.31,20.31,0,0,1,6.75-4.71,28.67,28.67,0,0,1,11.26-2.06q11.55,0,18.49,7.16t6.93,19.93q0,12.65-6.88,19.8t-18.39,7.14q-11.65,0-18.54-7.11T439.9,258.43Zm10.87-.36q0,8.88,4.1,13.45a14.11,14.11,0,0,0,20.77,0q4-4.55,4-13.63t-3.94-13.41a14.58,14.58,0,0,0-21,.06Q450.77,249.05,450.77,258.07Z"/><path class="cls-5" d="M510.59,284.23V240.82H495.08V232h41.53v8.84H521.14v43.41Z"/><path class="cls-5" d="M540,258.43A33.14,33.14,0,0,1,542.35,245a24.46,24.46,0,0,1,4.86-7.16,20.45,20.45,0,0,1,6.76-4.71,28.63,28.63,0,0,1,11.26-2.06q11.55,0,18.48,7.16t6.93,19.93q0,12.65-6.88,19.8t-18.39,7.14q-11.65,0-18.53-7.11T540,258.43Zm10.87-.36q0,8.88,4.1,13.45a14.09,14.09,0,0,0,20.76,0q4-4.55,4-13.63t-3.94-13.41a14.59,14.59,0,0,0-21,.06Q550.83,249.05,550.83,258.07Z"/><path class="cls-5" d="M632.31,265l10.23,3.24q-2.35,8.57-7.82,12.71t-13.89,4.15A22.5,22.5,0,0,1,603.72,278Q597,270.9,597,258.57q0-13,6.74-20.27t17.72-7.21q9.59,0,15.57,5.66a20.61,20.61,0,0,1,5.35,9.63L632,248.87a10.82,10.82,0,0,0-11-8.77,11.9,11.9,0,0,0-9.43,4.17q-3.62,4.17-3.61,13.51,0,9.92,3.56,14.12a11.58,11.58,0,0,0,9.27,4.2,10.57,10.57,0,0,0,7.23-2.67Q631,270.76,632.31,265Z"/><path class="cls-5" d="M649.46,258.43A33.14,33.14,0,0,1,651.85,245a24.46,24.46,0,0,1,4.86-7.16,20.45,20.45,0,0,1,6.76-4.71,28.63,28.63,0,0,1,11.26-2.06q11.55,0,18.48,7.16t6.93,19.93q0,12.65-6.88,19.8t-18.39,7.14q-11.65,0-18.53-7.11T649.46,258.43Zm10.87-.36q0,8.88,4.1,13.45a14.09,14.09,0,0,0,20.76,0q4-4.55,4-13.63t-3.94-13.41a14.59,14.59,0,0,0-21,.06Q660.33,249.05,660.33,258.07Z"/><path class="cls-5" d="M708.66,284.23V232.4h10.55v43h26.24v8.8Z"/></svg>