<svg id="Layer_1" data-name="Layer 1" xmlns="http://www.w3.org/2000/svg" viewBox="0 0 1080 1080"><defs><style>.cls-1,.cls-2{fill:none;}.cls-2{stroke:#231f20;stroke-miterlimit:10;stroke-width:0.5px;}.cls-3{fill:#fdfefe;}.cls-4{fill:#231f20;}.cls-5{fill:#fff;}</style></defs><title>PLATFORM ASSET</title><rect class="cls-1" x="5.12" width="1080" height="1080"/><rect x="283.22" y="77.72" width="526.26" height="212.63"/><rect x="283.22" y="784.72" width="526.26" height="212.63"/><polygon class="cls-2" points="809.48 784.53 283.22 784.72 283.22 290.35 809.48 290.35 809.48 784.53"/><path class="cls-3" d="M360.18,874.12V824.19h16.18q9.19,0,12,.74a13.11,13.11,0,0,1,7.19,4.89,15.52,15.52,0,0,1,2.89,9.73,16.34,16.34,0,0,1-1.66,7.73,13.7,13.7,0,0,1-4.25,4.92,14.33,14.33,0,0,1-5.22,2.37,57.28,57.28,0,0,1-10.46.72h-6.58v18.83Zm10.08-41.49V846.8h5.52q6,0,8-.78a6.61,6.61,0,0,0,3.15-2.45,6.72,6.72,0,0,0,1.14-3.89,6.43,6.43,0,0,0-1.6-4.49,7,7,0,0,0-4.05-2.22,49.59,49.59,0,0,0-7.26-.34Z"/><path class="cls-3" d="M407,874.12V824.59h10.09v41.12h25.07v8.41Z"/><path class="cls-3" d="M494.36,874.12h-11L479,862.78h-20L455,874.12h-10.7l19.45-49.93h10.67ZM475.8,854.37l-6.88-18.53-6.75,18.53Z"/><path class="cls-3" d="M505.77,874.12V832.63H491v-8.44h39.68v8.44H515.86v41.49Z"/><path class="cls-3" d="M537.22,874.12V824.19h34.23v8.44H547.3v11.82h20.85v8.45H547.3v21.22Z"/><path class="cls-3" d="M577.72,849.46A31.85,31.85,0,0,1,580,836.65a23.68,23.68,0,0,1,4.65-6.84,19.59,19.59,0,0,1,6.46-4.5,27.36,27.36,0,0,1,10.76-2q11,0,17.67,6.85t6.62,19q0,12.1-6.57,18.93T602,875q-11.14,0-17.71-6.8T577.72,849.46Zm10.39-.34q0,8.49,3.92,12.86a13.45,13.45,0,0,0,19.84,0q3.87-4.34,3.87-13T612,836.18a13.93,13.93,0,0,0-20,.05Q588.11,840.51,588.11,849.12Z"/><path class="cls-3" d="M634.06,874.12V824.19h21.23q8,0,11.63,1.34a11.49,11.49,0,0,1,5.81,4.79,14.39,14.39,0,0,1,2.18,7.87,13.31,13.31,0,0,1-3.31,9.28q-3.3,3.66-9.87,4.61a23.82,23.82,0,0,1,5.4,4.19,58.73,58.73,0,0,1,5.74,8.11l6.09,9.74H666.9l-7.29-10.86a70.55,70.55,0,0,0-5.31-7.34,7.72,7.72,0,0,0-3-2.08,16.49,16.49,0,0,0-5.08-.56h-2v20.84Zm10.09-28.81h7.46q7.26,0,9.06-.62a5.45,5.45,0,0,0,2.83-2.11,6.52,6.52,0,0,0,1-3.75,6,6,0,0,0-1.35-4.07,6.2,6.2,0,0,0-3.79-2q-1.23-.16-7.36-.17h-7.87Z"/><path class="cls-3" d="M684.28,874.12V824.19h15.09l9.06,34.06,9-34.06h15.12v49.93h-9.36V834.81l-9.92,39.31h-9.71l-9.87-39.31v39.31Z"/><path class="cls-3" d="M480.87,957.84h-11l-4.36-11.34h-20l-4.12,11.34h-10.7l19.45-49.94h10.67Zm-18.56-19.75-6.88-18.54-6.75,18.54Z"/><path class="cls-3" d="M483.67,941.59l9.81-1q.88,4.93,3.59,7.26a10.9,10.9,0,0,0,7.31,2.31c3.24,0,5.69-.68,7.34-2.06a6.14,6.14,0,0,0,2.47-4.82,4.55,4.55,0,0,0-1-3,8.33,8.33,0,0,0-3.63-2.17q-1.77-.6-8.07-2.18-8.11-2-11.38-4.94a13.11,13.11,0,0,1-2.44-17.18,13.55,13.55,0,0,1,6.24-5.06,24.94,24.94,0,0,1,9.83-1.74q9.39,0,14.15,4.12a14.56,14.56,0,0,1,5,11l-10.08.44a8.57,8.57,0,0,0-2.78-5.54q-2.13-1.68-6.39-1.68a11.55,11.55,0,0,0-6.88,1.8,3.65,3.65,0,0,0-1.6,3.1,3.84,3.84,0,0,0,1.5,3c1.27,1.06,4.36,2.18,9.27,3.33a48.86,48.86,0,0,1,10.88,3.6,14.09,14.09,0,0,1,5.52,5.07,15.75,15.75,0,0,1-.39,16,14.31,14.31,0,0,1-6.75,5.57,28.38,28.38,0,0,1-10.86,1.82q-9.48,0-14.55-4.38T483.67,941.59Z"/><path class="cls-3" d="M530.2,941.59l9.81-1q.88,4.93,3.59,7.26a10.91,10.91,0,0,0,7.31,2.31c3.25,0,5.69-.68,7.34-2.06a6.11,6.11,0,0,0,2.47-4.82,4.5,4.5,0,0,0-1-3,8.33,8.33,0,0,0-3.63-2.17q-1.77-.6-8.07-2.18-8.1-2-11.38-4.94a13,13,0,0,1-4.6-10,12.77,12.77,0,0,1,2.17-7.14,13.52,13.52,0,0,1,6.23-5.06,24.94,24.94,0,0,1,9.83-1.74q9.4,0,14.15,4.12a14.52,14.52,0,0,1,5,11l-10.08.44a8.57,8.57,0,0,0-2.78-5.54c-1.42-1.12-3.54-1.68-6.38-1.68a11.53,11.53,0,0,0-6.88,1.8,3.65,3.65,0,0,0-1.6,3.1,3.83,3.83,0,0,0,1.49,3c1.28,1.06,4.36,2.18,9.27,3.33a48.68,48.68,0,0,1,10.88,3.6,14.09,14.09,0,0,1,5.52,5.07,15.69,15.69,0,0,1-.39,16,14.33,14.33,0,0,1-6.74,5.57,28.4,28.4,0,0,1-10.87,1.82q-9.48,0-14.55-4.38T530.2,941.59Z"/><path class="cls-3" d="M579.29,957.84V907.9h37v8.45h-27v11.07h25.07v8.42H589.37v13.59h27.9v8.41Z"/><path class="cls-3" d="M637.06,957.84V916.35H622.24V907.9h39.69v8.45H647.15v41.49Z"/><path class="cls-4" d="M289.89,571.24l38-3.69q3.44,19.13,13.92,28.09t28.3,9q18.86,0,28.43-8T408.09,578a17.57,17.57,0,0,0-4-11.68q-4-4.81-14-8.37-6.87-2.38-31.27-8.45-31.39-7.79-44.06-19.12-17.81-16-17.8-38.92a49.77,49.77,0,0,1,8.37-27.64q8.39-12.85,24.14-19.58t38.06-6.73q36.41,0,54.81,16t19.32,42.61l-39,1.71Q400,482.87,391.8,476.33t-24.74-6.53q-17,0-26.64,7a14.07,14.07,0,0,0-6.2,12q0,6.87,5.8,11.74,7.38,6.21,35.88,12.93t42.15,13.92A54.34,54.34,0,0,1,439.42,547q7.71,12.47,7.71,30.8A56.93,56.93,0,0,1,437.9,609a55.32,55.32,0,0,1-26.12,21.56q-16.89,7.07-42.08,7.06-36.68,0-56.33-17T289.89,571.24Z"/><path class="cls-4" d="M512.43,633.88V473.21H455.05V440.49H608.73v32.72H551.48V633.88Z"/><path class="cls-4" d="M691.86,633.53,622.73,440.14h42.35L714,583.27l47.36-143.13H802.8L733.54,633.53Z"/><path class="cls-5" d="M431.71,123.15l9.14-.89c.55,3.07,1.66,5.32,3.35,6.76a10.11,10.11,0,0,0,6.81,2.16q4.53,0,6.83-1.92a5.71,5.71,0,0,0,2.31-4.49,4.26,4.26,0,0,0-1-2.81,7.67,7.67,0,0,0-3.38-2q-1.65-.57-7.52-2-7.56-1.87-10.61-4.6a12.12,12.12,0,0,1-4.28-9.36,11.91,11.91,0,0,1,2-6.65,12.55,12.55,0,0,1,5.8-4.72A23.27,23.27,0,0,1,450.37,91q8.76,0,13.19,3.84a13.59,13.59,0,0,1,4.65,10.26l-9.4.41a8,8,0,0,0-2.58-5.16c-1.33-1-3.31-1.57-6-1.57a10.77,10.77,0,0,0-6.41,1.68,3.4,3.4,0,0,0-1.49,2.89,3.6,3.6,0,0,0,1.4,2.83q1.77,1.48,8.63,3.11a45.32,45.32,0,0,1,10.14,3.34,13.06,13.06,0,0,1,5.14,4.73,14.64,14.64,0,0,1-.36,14.9,13.29,13.29,0,0,1-6.29,5.19,26.15,26.15,0,0,1-10.12,1.7q-8.82,0-13.55-4.08T431.71,123.15Z"/><path class="cls-5" d="M477.44,138.29V91.76h15.08c5.71,0,9.44.23,11.17.7a12.14,12.14,0,0,1,6.7,4.55,14.44,14.44,0,0,1,2.7,9.06,15.16,15.16,0,0,1-1.56,7.21,12.79,12.79,0,0,1-3.95,4.58,13.66,13.66,0,0,1-4.87,2.21,54,54,0,0,1-9.75.67h-6.12v17.55Zm9.4-38.66v13.2H492q5.55,0,7.43-.73a6.19,6.19,0,0,0,2.93-2.28,6.27,6.27,0,0,0,1.06-3.62,6,6,0,0,0-1.49-4.19,6.45,6.45,0,0,0-3.77-2.06,45.39,45.39,0,0,0-6.76-.32Z"/><path class="cls-5" d="M557.93,138.29H547.71l-4.06-10.57h-18.6l-3.84,10.57h-10l18.13-46.53h9.93Zm-17.3-18.41-6.41-17.27-6.28,17.27Z"/><path class="cls-5" d="M592.68,121.18l9.11,2.89q-2.09,7.62-7,11.31t-12.36,3.7a20,20,0,0,1-15.24-6.33q-6-6.33-6-17.32,0-11.61,6-18T583,91q8.54,0,13.87,5.05a18.45,18.45,0,0,1,4.76,8.57l-9.3,2.22A9.64,9.64,0,0,0,582.56,99a10.56,10.56,0,0,0-8.39,3.72q-3.23,3.71-3.23,12,0,8.82,3.18,12.56a10.28,10.28,0,0,0,8.25,3.75,9.39,9.39,0,0,0,6.44-2.38C590.61,127.08,591.9,124.59,592.68,121.18Z"/><path class="cls-5" d="M609.85,138.29V91.76h34.5v7.87h-25.1v10.31h23.36v7.84H619.25v12.67h26v7.84Z"/><path class="cls-5" d="M404.86,207.29V168.63H391.05v-7.87h37v7.87H414.25v38.66Z"/><path class="cls-5" d="M431,184.31a29.59,29.59,0,0,1,2.13-11.94,21.83,21.83,0,0,1,4.33-6.38,18.11,18.11,0,0,1,6-4.18,25.49,25.49,0,0,1,10-1.85q10.29,0,16.46,6.38t6.17,17.75q0,11.26-6.12,17.63t-16.38,6.36q-10.38,0-16.51-6.33T431,184.31Zm9.68-.32q0,7.9,3.65,12a12.55,12.55,0,0,0,18.49,0q3.6-4,3.6-12.14t-3.51-11.93a13,13,0,0,0-18.68,0Q440.69,176,440.69,184Z"/><path class="cls-5" d="M483.41,160.76h9.39V186a52.47,52.47,0,0,0,.35,7.77,7.52,7.52,0,0,0,2.87,4.59,10.06,10.06,0,0,0,6.21,1.73q4,0,6-1.63a6.45,6.45,0,0,0,2.44-4,51.43,51.43,0,0,0,.42-7.9V160.76h9.39V185.2a62.54,62.54,0,0,1-.76,11.83,13.12,13.12,0,0,1-2.81,5.84,14.14,14.14,0,0,1-5.47,3.8,23.87,23.87,0,0,1-9,1.41q-6.67,0-10.11-1.54a14.54,14.54,0,0,1-5.45-4,12.81,12.81,0,0,1-2.63-5.16,56.69,56.69,0,0,1-.92-11.8Z"/><path class="cls-5" d="M530.45,207.29V160.76h19.77q7.46,0,10.84,1.25a10.73,10.73,0,0,1,5.41,4.46,13.44,13.44,0,0,1,2,7.33,12.43,12.43,0,0,1-3.08,8.65q-3.07,3.42-9.2,4.3a22.2,22.2,0,0,1,5,3.91,52.45,52.45,0,0,1,5.34,7.55l5.69,9.08H561l-6.79-10.13a64.83,64.83,0,0,0-5-6.84,7.2,7.2,0,0,0-2.83-1.93,15.39,15.39,0,0,0-4.73-.53h-1.9v19.43Zm9.39-26.85h6.95q6.76,0,8.44-.58a5.09,5.09,0,0,0,2.64-2,6.1,6.1,0,0,0,1-3.49,5.63,5.63,0,0,0-1.25-3.8,5.77,5.77,0,0,0-3.54-1.82c-.77-.11-3-.16-6.86-.16h-7.33Z"/><path class="cls-5" d="M577.07,207.29V160.76h9.39v46.53Z"/><path class="cls-5" d="M593,192.15l9.14-.89q.83,4.61,3.35,6.76a10.11,10.11,0,0,0,6.81,2.16c3,0,5.3-.64,6.84-1.92a5.73,5.73,0,0,0,2.3-4.49,4.21,4.21,0,0,0-1-2.81,7.61,7.61,0,0,0-3.38-2q-1.65-.57-7.52-2Q602,185,599,182.31a12.23,12.23,0,0,1-2.27-16,12.57,12.57,0,0,1,5.81-4.72A23.27,23.27,0,0,1,611.7,160q8.76,0,13.18,3.84a13.59,13.59,0,0,1,4.65,10.26l-9.39.41a8,8,0,0,0-2.59-5.16c-1.32-1.05-3.31-1.57-5.95-1.57a10.73,10.73,0,0,0-6.41,1.68,3.37,3.37,0,0,0-1.49,2.89,3.59,3.59,0,0,0,1.39,2.83q1.78,1.49,8.64,3.11a45.32,45.32,0,0,1,10.14,3.34,13.13,13.13,0,0,1,5.14,4.73,14.61,14.61,0,0,1-.37,14.9,13.27,13.27,0,0,1-6.28,5.19,26.2,26.2,0,0,1-10.13,1.7q-8.82,0-13.55-4.08T593,192.15Z"/><path class="cls-5" d="M638.64,207.29V160.76H652.7l8.44,31.74,8.35-31.74h14.09v46.53h-8.73V170.66l-9.23,36.63h-9l-9.2-36.63v36.63Z"/><path class="cls-5" d="M402,276.29l-16.63-46.53h10.18l11.78,34.43,11.39-34.43h10l-16.66,46.53Z"/><path class="cls-5" d="M433.5,276.29V229.76H468v7.87H442.9v10.31h23.36v7.84H442.9v12.67h26v7.84Z"/><path class="cls-5" d="M476.89,276.29V229.76h9.39v18.31h18.41V229.76h9.39v46.53h-9.39V255.94H486.28v20.35Z"/><path class="cls-5" d="M523.51,276.29V229.76h9.4v46.53Z"/><path class="cls-5" d="M571.63,259.18l9.1,2.89q-2.09,7.62-7,11.31t-12.36,3.7a20,20,0,0,1-15.24-6.33q-6-6.33-6-17.32,0-11.61,6-18T562,229q8.53,0,13.87,5a18.45,18.45,0,0,1,4.76,8.57l-9.3,2.22A9.64,9.64,0,0,0,561.5,237a10.56,10.56,0,0,0-8.39,3.72q-3.23,3.71-3.23,12,0,8.82,3.18,12.56a10.28,10.28,0,0,0,8.25,3.75,9.37,9.37,0,0,0,6.44-2.38C569.55,265.08,570.84,262.59,571.63,259.18Z"/><path class="cls-5" d="M589.05,276.29V230.14h9.39v38.31H621.8v7.84Z"/><path class="cls-5" d="M628.5,276.29V229.76H663v7.87H637.9v10.31h23.36v7.84H637.9v12.67h26v7.84Z"/><path class="cls-5" d="M669.47,261.15l9.15-.89q.82,4.61,3.34,6.76a10.15,10.15,0,0,0,6.81,2.16q4.54,0,6.84-1.92a5.7,5.7,0,0,0,2.3-4.49,4.21,4.21,0,0,0-1-2.81,7.61,7.61,0,0,0-3.38-2c-1.1-.38-3.6-1.06-7.52-2q-7.54-1.87-10.6-4.6a12.12,12.12,0,0,1-4.28-9.36,12,12,0,0,1,2-6.65,12.62,12.62,0,0,1,5.81-4.72,23.27,23.27,0,0,1,9.16-1.62q8.76,0,13.18,3.84A13.52,13.52,0,0,1,706,243.06l-9.39.41a8,8,0,0,0-2.59-5.16q-2-1.58-6-1.57a10.73,10.73,0,0,0-6.41,1.68,3.4,3.4,0,0,0-1.49,2.89,3.57,3.57,0,0,0,1.4,2.83q1.77,1.49,8.63,3.11a45.32,45.32,0,0,1,10.14,3.34,13.13,13.13,0,0,1,5.14,4.73,14.64,14.64,0,0,1-.36,14.9,13.34,13.34,0,0,1-6.29,5.19,26.19,26.19,0,0,1-10.12,1.7c-5.89,0-10.4-1.36-13.56-4.08S670.09,266.35,669.47,261.15Z"/></svg>