<svg id="Layer_1" data-name="Layer 1" xmlns="http://www.w3.org/2000/svg" viewBox="0 0 1080 1080"><defs><style>.cls-1,.cls-2{fill:none;}.cls-2{stroke:#231f20;stroke-miterlimit:10;stroke-width:0.5px;}.cls-3{fill:#fdfefe;}.cls-4{fill:#231f20;}.cls-5{fill:#fff;}</style></defs><title>PLATFORM ASSET</title><rect class="cls-1" x="3.04" width="1080" height="1080"/><rect x="279.91" y="80.19" width="526.26" height="212.63"/><rect x="279.91" y="787.18" width="526.26" height="212.63"/><polygon class="cls-2" points="806.17 787 279.91 787.18 279.91 292.82 806.17 292.82 806.17 787"/><path class="cls-3" d="M356.87,876.59V826.65h16.18q9.21,0,12,.75a13.07,13.07,0,0,1,7.19,4.89,15.5,15.5,0,0,1,2.9,9.72,16.35,16.35,0,0,1-1.67,7.74,13.67,13.67,0,0,1-4.24,4.92A14.79,14.79,0,0,1,384,857a58.3,58.3,0,0,1-10.46.71H367v18.84ZM367,835.1v14.17h5.51c4,0,6.63-.26,8-.78a6.57,6.57,0,0,0,4.29-6.34,6.49,6.49,0,0,0-1.6-4.5,7,7,0,0,0-4.06-2.21,48,48,0,0,0-7.25-.34Z"/><path class="cls-3" d="M403.68,876.59V827.06h10.08v41.12h25.07v8.41Z"/><path class="cls-3" d="M491.06,876.59h-11l-4.36-11.34h-20l-4.12,11.34H441l19.45-49.94h10.66Zm-18.57-19.76-6.88-18.53-6.75,18.53Z"/><path class="cls-3" d="M502.47,876.59V835.1H487.65v-8.45h39.69v8.45H512.55v41.49Z"/><path class="cls-3" d="M533.91,876.59V826.65h34.24v8.45H544v11.82h20.85v8.45H544v21.22Z"/><path class="cls-3" d="M574.41,851.93a31.6,31.6,0,0,1,2.29-12.81,23.33,23.33,0,0,1,4.65-6.85,19.45,19.45,0,0,1,6.45-4.5,27.55,27.55,0,0,1,10.77-2q11,0,17.66,6.85t6.63,19q0,12.09-6.58,18.92t-17.58,6.83q-11.13,0-17.71-6.79T574.41,851.93Zm10.39-.34q0,8.48,3.92,12.86a12.79,12.79,0,0,0,9.95,4.37,12.61,12.61,0,0,0,9.89-4.34q3.87-4.35,3.87-13t-3.76-12.81a14,14,0,0,0-20,.05Q584.81,843,584.8,851.59Z"/><path class="cls-3" d="M630.76,876.59V826.65H652q8,0,11.63,1.35a11.43,11.43,0,0,1,5.81,4.78,14.35,14.35,0,0,1,2.18,7.87,13.33,13.33,0,0,1-3.3,9.28q-3.3,3.68-9.88,4.62a23.54,23.54,0,0,1,5.4,4.19,56.66,56.66,0,0,1,5.74,8.11l6.1,9.74H663.6l-7.29-10.87a69.7,69.7,0,0,0-5.32-7.34,7.76,7.76,0,0,0-3-2.08,16.78,16.78,0,0,0-5.07-.56h-2v20.85Zm10.08-28.82h7.46q7.26,0,9.06-.61a5.41,5.41,0,0,0,2.83-2.11,6.52,6.52,0,0,0,1-3.75,6,6,0,0,0-1.34-4.07,6.16,6.16,0,0,0-3.8-2q-1.23-.16-7.36-.17h-7.87Z"/><path class="cls-3" d="M681,876.59V826.65h15.09l9.06,34.07,9-34.07h15.13v49.94h-9.37V837.28l-9.91,39.31h-9.71l-9.88-39.31v39.31Z"/><path class="cls-3" d="M477.57,960.31h-11L462.24,949h-20l-4.12,11.34H427.46l19.45-49.94h10.66ZM459,940.55,452.12,922l-6.75,18.53Z"/><path class="cls-3" d="M480.36,944.06l9.81-.95q.88,4.93,3.59,7.25a10.86,10.86,0,0,0,7.31,2.32q4.88,0,7.34-2.06a6.13,6.13,0,0,0,2.47-4.82,4.53,4.53,0,0,0-1-3,8.25,8.25,0,0,0-3.62-2.16q-1.79-.61-8.08-2.18-8.1-2-11.38-4.94a13.13,13.13,0,0,1-2.43-17.19,13.58,13.58,0,0,1,6.23-5.06,25.17,25.17,0,0,1,9.83-1.73q9.41,0,14.15,4.12a14.52,14.52,0,0,1,5,11l-10.08.45a8.59,8.59,0,0,0-2.77-5.54c-1.42-1.12-3.55-1.69-6.39-1.69a11.53,11.53,0,0,0-6.88,1.81,3.62,3.62,0,0,0-1.6,3.1,3.82,3.82,0,0,0,1.49,3c1.28,1.07,4.36,2.18,9.27,3.34a49.29,49.29,0,0,1,10.88,3.59,14,14,0,0,1,5.52,5.08,15.68,15.68,0,0,1-.39,16,14.27,14.27,0,0,1-6.74,5.57A28.21,28.21,0,0,1,501,961.19q-9.48,0-14.55-4.37T480.36,944.06Z"/><path class="cls-3" d="M526.89,944.06l9.81-.95q.88,4.93,3.6,7.25a10.82,10.82,0,0,0,7.3,2.32q4.88,0,7.35-2.06a6.16,6.16,0,0,0,2.47-4.82,4.58,4.58,0,0,0-1-3,8.35,8.35,0,0,0-3.63-2.16q-1.77-.61-8.07-2.18-8.11-2-11.38-4.94a13.12,13.12,0,0,1-2.44-17.19,13.56,13.56,0,0,1,6.24-5.06,25.08,25.08,0,0,1,9.82-1.73q9.41,0,14.16,4.12a14.55,14.55,0,0,1,5,11l-10.09.45q-.65-3.86-2.77-5.54c-1.42-1.12-3.55-1.69-6.39-1.69a11.55,11.55,0,0,0-6.88,1.81,3.62,3.62,0,0,0-1.6,3.1,3.83,3.83,0,0,0,1.5,3q1.9,1.61,9.26,3.34A49.41,49.41,0,0,1,560,932.73a14,14,0,0,1,5.52,5.08,14.91,14.91,0,0,1,2,8,14.72,14.72,0,0,1-2.39,8,14.23,14.23,0,0,1-6.74,5.57,28.21,28.21,0,0,1-10.87,1.82q-9.46,0-14.54-4.37T526.89,944.06Z"/><path class="cls-3" d="M576,960.31V910.37h37v8.45h-27v11.07h25.08v8.41H586.06v13.59H614v8.42Z"/><path class="cls-3" d="M633.76,960.31V918.82H618.94v-8.45h39.68v8.45H643.84v41.49Z"/><path class="cls-4" d="M282.6,566.16l29.65-2.88q2.67,14.93,10.85,21.92t22.08,7q14.73,0,22.19-6.23t7.46-14.56a13.76,13.76,0,0,0-3.14-9.11q-3.13-3.75-11-6.54-5.36-1.85-24.4-6.58-24.49-6.07-34.38-14.93-13.89-12.45-13.9-30.37a38.77,38.77,0,0,1,6.54-21.56q6.54-10,18.84-15.29t29.7-5.25q28.41,0,42.77,12.46T401,507.49l-30.47,1.33q-2-11.62-8.39-16.72t-19.3-5.1q-13.27,0-20.79,5.46a11,11,0,0,0-4.84,9.37,11.57,11.57,0,0,0,4.53,9.16q5.76,4.83,28,10.08t32.89,10.86a42.43,42.43,0,0,1,16.68,15.34q6,9.74,6,24a44.4,44.4,0,0,1-7.21,24.29,43.12,43.12,0,0,1-20.38,16.83q-13.17,5.51-32.83,5.51-28.62,0-44-13.23T282.6,566.16Z"/><path class="cls-4" d="M424.29,464.36H480q18.84,0,28.72,2.88a50.51,50.51,0,0,1,22.75,13.9,65.85,65.85,0,0,1,14.41,24.44q4.93,14.46,4.94,35.67,0,18.63-4.63,32.12Q540.5,589.84,530,600q-7.93,7.71-21.42,12-10.08,3.2-27,3.19H424.29Zm30.47,25.52v100h22.75q12.76,0,18.42-1.45a28.05,28.05,0,0,0,12.31-6.27c3.25-3,5.92-7.81,8-14.57s3.09-16,3.09-27.64-1-20.62-3.09-26.86-4.94-11.12-8.64-14.62a29,29,0,0,0-14.11-7.1q-6.37-1.44-25-1.45Z"/><path class="cls-4" d="M600.23,615.54V490.16H555.45V464.64H675.38v25.52H630.7V615.54Z"/><path class="cls-4" d="M680.78,566.44l29.65-2.88q2.67,14.93,10.86,21.92t22.08,7q14.71,0,22.18-6.23T773,571.69a13.76,13.76,0,0,0-3.14-9.11q-3.14-3.75-11-6.54-5.35-1.85-24.4-6.58-24.5-6.08-34.38-14.93-13.89-12.45-13.89-30.37a38.76,38.76,0,0,1,6.53-21.56q6.54-10,18.84-15.29t29.7-5.25q28.41,0,42.77,12.46t15.08,33.25l-30.47,1.33q-2-11.62-8.39-16.72t-19.3-5.1q-13.28,0-20.79,5.46a11,11,0,0,0-4.84,9.37,11.6,11.6,0,0,0,4.53,9.16q5.76,4.83,28,10.08t32.89,10.86a42.43,42.43,0,0,1,16.68,15.34q6,9.74,6,24a44.4,44.4,0,0,1-7.21,24.29,43.12,43.12,0,0,1-20.38,16.83q-13.17,5.5-32.83,5.51-28.62,0-44-13.23T680.78,566.44Z"/><path class="cls-5" d="M454.34,116.18l7.6-.74a9.23,9.23,0,0,0,2.78,5.62,8.41,8.41,0,0,0,5.65,1.79,8.74,8.74,0,0,0,5.69-1.59,4.77,4.77,0,0,0,1.91-3.73,3.51,3.51,0,0,0-.81-2.34,6.35,6.35,0,0,0-2.81-1.67q-1.37-.48-6.24-1.69-6.28-1.56-8.81-3.82a10.07,10.07,0,0,1-3.56-7.78,10,10,0,0,1,1.67-5.52,10.51,10.51,0,0,1,4.83-3.92,19.25,19.25,0,0,1,7.61-1.35q7.27,0,10.95,3.2a11.23,11.23,0,0,1,3.86,8.51l-7.8.34a6.65,6.65,0,0,0-2.15-4.28,7.87,7.87,0,0,0-4.94-1.31,8.93,8.93,0,0,0-5.33,1.4,2.81,2.81,0,0,0-1.24,2.4,3,3,0,0,0,1.16,2.35c1,.82,3.38,1.69,7.17,2.58a38.5,38.5,0,0,1,8.43,2.78,10.89,10.89,0,0,1,4.27,3.93,11.49,11.49,0,0,1,1.54,6.16,11.38,11.38,0,0,1-1.84,6.22,11.11,11.11,0,0,1-5.22,4.31,22,22,0,0,1-8.42,1.41c-4.88,0-8.64-1.13-11.25-3.38S454.85,120.5,454.34,116.18Z"/><path class="cls-5" d="M492.34,128.76V90.1h12.52c4.75,0,7.84.2,9.28.58a10.18,10.18,0,0,1,5.57,3.79A12,12,0,0,1,522,102a12.5,12.5,0,0,1-1.3,6,10.51,10.51,0,0,1-3.28,3.81,11.34,11.34,0,0,1-4,1.83,44.3,44.3,0,0,1-8.09.56h-5.09v14.58Zm7.8-32.12v11h4.27a20,20,0,0,0,6.17-.61,5.09,5.09,0,0,0,2.44-1.89,5.21,5.21,0,0,0,.89-3,5,5,0,0,0-1.24-3.48,5.46,5.46,0,0,0-3.14-1.71,36.71,36.71,0,0,0-5.62-.27Z"/><path class="cls-5" d="M559.2,128.76h-8.49L547.34,120H531.89l-3.19,8.78h-8.28L535.47,90.1h8.26Zm-14.37-15.29-5.32-14.35-5.22,14.35Z"/><path class="cls-5" d="M588.07,114.55l7.57,2.4q-1.74,6.31-5.79,9.4a18.21,18.21,0,0,1-22.92-2.19q-5-5.26-5-14.39,0-9.64,5-15t13.11-5.34q7.1,0,11.52,4.2a15.2,15.2,0,0,1,4,7.12l-7.73,1.84a8,8,0,0,0-8.15-6.48,8.77,8.77,0,0,0-7,3.08q-2.69,3.09-2.68,10,0,7.34,2.64,10.44a8.55,8.55,0,0,0,6.85,3.12,7.83,7.83,0,0,0,5.36-2A11.51,11.51,0,0,0,588.07,114.55Z"/><path class="cls-5" d="M602.34,128.76V90.1H631v6.54H610.14v8.57h19.41v6.51H610.14v10.52h21.6v6.52Z"/><path class="cls-5" d="M444.3,141.48h14.26a27.54,27.54,0,0,1,7.36.74,12.86,12.86,0,0,1,5.82,3.55,17,17,0,0,1,3.7,6.27,28.61,28.61,0,0,1,1.26,9.13,25.17,25.17,0,0,1-1.19,8.23,17,17,0,0,1-4.13,6.83,13.8,13.8,0,0,1-5.49,3.08,23.4,23.4,0,0,1-6.91.82H444.3Zm7.8,6.54v25.6h5.83a21.66,21.66,0,0,0,4.72-.37,7.26,7.26,0,0,0,3.15-1.61,8.23,8.23,0,0,0,2-3.73,25.11,25.11,0,0,0,.79-7.08,23,23,0,0,0-.79-6.88,8.9,8.9,0,0,0-2.21-3.75,7.44,7.44,0,0,0-3.62-1.81,34.91,34.91,0,0,0-6.4-.37Z"/><path class="cls-5" d="M483.32,180.13V141.48H512V148H491.12v8.56h19.41v6.52H491.12v10.52h21.6v6.51Z"/><path class="cls-5" d="M519.36,141.48h15.45a44.21,44.21,0,0,1,6.85.38,10.12,10.12,0,0,1,4,1.59,9.94,9.94,0,0,1,3,3.23,8.8,8.8,0,0,1,1.18,4.53,9.15,9.15,0,0,1-5.43,8.38,10.17,10.17,0,0,1,5.43,3.51,9.26,9.26,0,0,1,1.9,5.82,11.45,11.45,0,0,1-1.23,5.13,10.27,10.27,0,0,1-3.34,4,11,11,0,0,1-5.24,1.84q-1.95.21-9.41.26H519.36Zm7.81,6.43v8.94h5.11c3,0,4.93,0,5.67-.13a5.12,5.12,0,0,0,3.15-1.39,4.05,4.05,0,0,0,1.15-3,4.24,4.24,0,0,0-1-2.91,4.48,4.48,0,0,0-2.94-1.36c-.77-.09-3-.13-6.67-.13Zm0,15.37v10.34h7.22a34.84,34.84,0,0,0,5.35-.24,4.83,4.83,0,0,0,2.84-1.54,4.74,4.74,0,0,0,1.09-3.28,5.08,5.08,0,0,0-.84-3,4.76,4.76,0,0,0-2.44-1.76,26.35,26.35,0,0,0-6.92-.56Z"/><path class="cls-5" d="M558.36,180.13V141.48h16.43c4.13,0,7.13.34,9,1a8.92,8.92,0,0,1,4.5,3.7,11.19,11.19,0,0,1,1.68,6.09,10.35,10.35,0,0,1-2.55,7.19q-2.56,2.83-7.65,3.57a18.56,18.56,0,0,1,4.18,3.24,43.72,43.72,0,0,1,4.44,6.28l4.72,7.54h-9.33l-5.65-8.41A53,53,0,0,0,574,166a6,6,0,0,0-2.35-1.61,12.75,12.75,0,0,0-3.92-.44h-1.59v16.14Zm7.8-22.31h5.78c3.74,0,6.08-.15,7-.47a4.25,4.25,0,0,0,2.19-1.63,5.06,5.06,0,0,0,.79-2.91,4.66,4.66,0,0,0-1-3.15,4.77,4.77,0,0,0-2.94-1.51c-.63-.09-2.53-.13-5.7-.13h-6.09Z"/><path class="cls-5" d="M597.09,180.13V141.48h7.81v38.65Z"/><path class="cls-5" d="M610.35,167.55l7.6-.73a9.2,9.2,0,0,0,2.78,5.61,8.39,8.39,0,0,0,5.66,1.79,8.72,8.72,0,0,0,5.68-1.59A4.76,4.76,0,0,0,634,168.9a3.48,3.48,0,0,0-.81-2.33,6.36,6.36,0,0,0-2.8-1.68q-1.38-.48-6.25-1.69-6.29-1.55-8.81-3.82a10.07,10.07,0,0,1-3.56-7.78,9.89,9.89,0,0,1,1.68-5.52,10.43,10.43,0,0,1,4.82-3.92,19.48,19.48,0,0,1,7.61-1.34q7.27,0,10.95,3.19a11.24,11.24,0,0,1,3.87,8.51l-7.81.35a6.61,6.61,0,0,0-2.15-4.29,7.85,7.85,0,0,0-4.94-1.3,9,9,0,0,0-5.33,1.39,2.84,2.84,0,0,0-1.24,2.4,3,3,0,0,0,1.16,2.35q1.49,1.25,7.18,2.58a38,38,0,0,1,8.42,2.79,10.81,10.81,0,0,1,4.27,3.93,12.18,12.18,0,0,1-.3,12.37,11,11,0,0,1-5.22,4.32,21.92,21.92,0,0,1-8.41,1.41q-7.34,0-11.26-3.39T610.35,167.55Z"/><path class="cls-5" d="M414.24,231.52V199.4H402.77v-6.54h30.72v6.54H422v32.12Z"/><path class="cls-5" d="M438.55,231.52V192.86H455q6.21,0,9,1a8.87,8.87,0,0,1,4.49,3.71,11.07,11.07,0,0,1,1.69,6.09,10.31,10.31,0,0,1-2.56,7.19c-1.7,1.88-4.25,3.08-7.64,3.57a18,18,0,0,1,4.18,3.24,43.72,43.72,0,0,1,4.44,6.28l4.72,7.54H464l-5.65-8.41a54.7,54.7,0,0,0-4.11-5.69,6,6,0,0,0-2.35-1.6,12.75,12.75,0,0,0-3.92-.44h-1.59v16.14Zm7.8-22.31h5.78q5.61,0,7-.47a4.27,4.27,0,0,0,2.19-1.64,5,5,0,0,0,.79-2.9,4.66,4.66,0,0,0-1-3.15,4.81,4.81,0,0,0-2.94-1.52c-.63-.08-2.53-.13-5.7-.13h-6.09Z"/><path class="cls-5" d="M512.38,231.52h-8.49l-3.38-8.78H485.06l-3.19,8.78h-8.28l15.06-38.66h8.25ZM498,216.22l-5.33-14.34-5.22,14.34Z"/><path class="cls-5" d="M541.25,217.3l7.57,2.4c-1.17,4.22-3.09,7.36-5.79,9.4a18.2,18.2,0,0,1-22.93-2.18q-5-5.26-5-14.39,0-9.65,5-15t13.1-5.34q7.1,0,11.52,4.2a15.2,15.2,0,0,1,4,7.12L541,205.36a8,8,0,0,0-8.14-6.49,8.8,8.8,0,0,0-7,3.09q-2.67,3.09-2.67,10,0,7.34,2.63,10.44a8.57,8.57,0,0,0,6.86,3.12,7.81,7.81,0,0,0,5.35-2A11.51,11.51,0,0,0,541.25,217.3Z"/><path class="cls-5" d="M555.62,231.52V192.86h7.8V210l15.77-17.17h10.49l-14.55,15.06,15.34,23.6H580.38l-10.63-18.14-6.33,6.46v11.68Z"/><path class="cls-5" d="M594.27,231.52V192.86h7.81v38.66Z"/><path class="cls-5" d="M609.59,231.52V192.86h7.59L633,218.68V192.86h7.26v38.66h-7.84l-15.58-25.21v25.21Z"/><path class="cls-5" d="M666.49,217.3v-6.51h16.82v15.4a21.09,21.09,0,0,1-7.1,4.18,26,26,0,0,1-9.43,1.81,21.1,21.1,0,0,1-10.57-2.55,16.11,16.11,0,0,1-6.78-7.28,23.5,23.5,0,0,1-2.27-10.29,22.32,22.32,0,0,1,2.53-10.73,17.07,17.07,0,0,1,7.41-7.2,20.06,20.06,0,0,1,9.26-1.93q7.2,0,11.24,3a13.65,13.65,0,0,1,5.21,8.35L675.06,205a8.23,8.23,0,0,0-3.07-4.5,9.29,9.29,0,0,0-5.63-1.65,10.61,10.61,0,0,0-8.14,3.25q-3,3.24-3,9.62,0,6.88,3.06,10.32a10.2,10.2,0,0,0,8,3.45,13.54,13.54,0,0,0,4.92-1,17,17,0,0,0,4.23-2.33V217.3Z"/><path class="cls-5" d="M416.31,270.3l7.59-.74a9.34,9.34,0,0,0,2.78,5.62,8.46,8.46,0,0,0,5.66,1.79,8.7,8.7,0,0,0,5.68-1.59,4.74,4.74,0,0,0,1.91-3.74,3.54,3.54,0,0,0-.8-2.33,6.41,6.41,0,0,0-2.81-1.67c-.91-.32-3-.88-6.25-1.69q-6.27-1.56-8.8-3.82a10,10,0,0,1-3.56-7.78,9.93,9.93,0,0,1,1.67-5.53,10.44,10.44,0,0,1,4.83-3.91,19.24,19.24,0,0,1,7.6-1.35q7.28,0,11,3.19a11.27,11.27,0,0,1,3.86,8.52l-7.8.34a6.65,6.65,0,0,0-2.15-4.28,7.88,7.88,0,0,0-4.95-1.31,8.9,8.9,0,0,0-5.32,1.4,2.81,2.81,0,0,0-1.24,2.4,3,3,0,0,0,1.16,2.35q1.47,1.23,7.17,2.58a37.84,37.84,0,0,1,8.42,2.78,10.91,10.91,0,0,1,4.28,3.93,11.56,11.56,0,0,1,1.54,6.16,11.39,11.39,0,0,1-1.85,6.22,11.07,11.07,0,0,1-5.22,4.31,21.89,21.89,0,0,1-8.41,1.41q-7.33,0-11.26-3.39C418.38,277.92,416.82,274.62,416.31,270.3Z"/><path class="cls-5" d="M464.45,282.88V266.61l-14.16-22.39h9.15l9.1,15.3,8.91-15.3h9l-14.21,22.44v16.22Z"/><path class="cls-5" d="M488.34,270.3l7.6-.74a9.23,9.23,0,0,0,2.78,5.62,8.41,8.41,0,0,0,5.65,1.79,8.74,8.74,0,0,0,5.69-1.59,4.77,4.77,0,0,0,1.91-3.74,3.5,3.5,0,0,0-.81-2.33,6.35,6.35,0,0,0-2.81-1.67q-1.37-.48-6.24-1.69-6.28-1.56-8.81-3.82a10.17,10.17,0,0,1-1.89-13.31,10.49,10.49,0,0,1,4.83-3.91,19.25,19.25,0,0,1,7.61-1.35q7.27,0,10.95,3.19a11.27,11.27,0,0,1,3.86,8.52l-7.8.34a6.61,6.61,0,0,0-2.15-4.28,7.87,7.87,0,0,0-4.94-1.31,8.93,8.93,0,0,0-5.33,1.4,2.81,2.81,0,0,0-1.24,2.4,3,3,0,0,0,1.16,2.35q1.49,1.23,7.17,2.58a38,38,0,0,1,8.43,2.78,10.89,10.89,0,0,1,4.27,3.93,12.19,12.19,0,0,1-.3,12.38,11.17,11.17,0,0,1-5.22,4.31,21.94,21.94,0,0,1-8.42,1.41c-4.88,0-8.64-1.13-11.25-3.39S488.85,274.62,488.34,270.3Z"/><path class="cls-5" d="M535,282.88V250.76H523.57v-6.54h30.71v6.54H542.84v32.12Z"/><path class="cls-5" d="M559.32,282.88V244.22H588v6.54H567.13v8.57h19.4v6.51h-19.4v10.52h21.59v6.52Z"/><path class="cls-5" d="M595.23,282.88V244.22h11.68l7,26.37,6.93-26.37h11.71v38.66h-7.25V252.45l-7.68,30.43h-7.51l-7.65-30.43v30.43Z"/><path class="cls-5" d="M638.34,270.3l7.6-.74a9.23,9.23,0,0,0,2.78,5.62,8.43,8.43,0,0,0,5.65,1.79,8.74,8.74,0,0,0,5.69-1.59,4.77,4.77,0,0,0,1.91-3.74,3.5,3.5,0,0,0-.81-2.33,6.35,6.35,0,0,0-2.81-1.67q-1.36-.48-6.24-1.69-6.29-1.56-8.81-3.82a10.17,10.17,0,0,1-1.89-13.31,10.49,10.49,0,0,1,4.83-3.91,19.29,19.29,0,0,1,7.61-1.35q7.27,0,10.95,3.19a11.27,11.27,0,0,1,3.86,8.52l-7.8.34a6.61,6.61,0,0,0-2.15-4.28,7.87,7.87,0,0,0-4.94-1.31,8.93,8.93,0,0,0-5.33,1.4,2.81,2.81,0,0,0-1.24,2.4,3,3,0,0,0,1.16,2.35q1.49,1.23,7.17,2.58a38,38,0,0,1,8.43,2.78,10.89,10.89,0,0,1,4.27,3.93,12.19,12.19,0,0,1-.3,12.38,11.12,11.12,0,0,1-5.22,4.31,21.94,21.94,0,0,1-8.42,1.41c-4.88,0-8.64-1.13-11.25-3.39S638.85,274.62,638.34,270.3Z"/></svg>