<svg id="Layer_1" data-name="Layer 1" xmlns="http://www.w3.org/2000/svg" viewBox="0 0 1080 1080"><defs><style>.cls-1,.cls-2{fill:none;}.cls-2{stroke:#231f20;stroke-miterlimit:10;stroke-width:0.5px;}.cls-3{fill:#fdfefe;}.cls-4{fill:#231f20;}.cls-5{font-size:84px;fill:#fff;font-family:Arial-BoldMT, Arial;font-weight:700;}.cls-6{letter-spacing:-0.07em;}</style></defs><title>PLATFORM ASSET</title><rect class="cls-1" width="1080" height="1080"/><rect x="276.87" y="80.19" width="526.26" height="212.63"/><rect x="276.87" y="787.18" width="526.26" height="212.63"/><polygon class="cls-2" points="803.13 787 276.87 787.18 276.87 292.82 803.13 292.82 803.13 787"/><path class="cls-3" d="M353.83,876.59V826.65H370q9.21,0,12,.75a13.07,13.07,0,0,1,7.19,4.89,15.5,15.5,0,0,1,2.9,9.72,16.35,16.35,0,0,1-1.67,7.74,13.67,13.67,0,0,1-4.24,4.92A14.79,14.79,0,0,1,381,857a58.3,58.3,0,0,1-10.46.71h-6.57v18.84Zm10.09-41.49v14.17h5.51c4,0,6.63-.26,8-.78a6.57,6.57,0,0,0,4.29-6.34,6.49,6.49,0,0,0-1.6-4.5,7,7,0,0,0-4.06-2.21,48,48,0,0,0-7.25-.34Z"/><path class="cls-3" d="M400.64,876.59V827.06h10.08v41.12h25.07v8.41Z"/><path class="cls-3" d="M488,876.59h-11l-4.36-11.34h-20l-4.12,11.34H437.91l19.45-49.94H468Zm-18.57-19.76-6.88-18.53-6.75,18.53Z"/><path class="cls-3" d="M499.43,876.59V835.1H484.61v-8.45H524.3v8.45H509.51v41.49Z"/><path class="cls-3" d="M530.87,876.59V826.65h34.24v8.45H541v11.82H561.8v8.45H541v21.22Z"/><path class="cls-3" d="M571.37,851.93a31.6,31.6,0,0,1,2.29-12.81,23.33,23.33,0,0,1,4.65-6.85,19.45,19.45,0,0,1,6.45-4.5,27.55,27.55,0,0,1,10.77-2q11,0,17.66,6.85t6.63,19q0,12.09-6.58,18.92t-17.58,6.83q-11.13,0-17.71-6.79T571.37,851.93Zm10.39-.34q0,8.48,3.92,12.86a12.79,12.79,0,0,0,10,4.37,12.61,12.61,0,0,0,9.89-4.34q3.87-4.35,3.87-13t-3.76-12.81a14,14,0,0,0-20,.05Q581.77,843,581.76,851.59Z"/><path class="cls-3" d="M627.72,876.59V826.65h21.22q8,0,11.63,1.35a11.43,11.43,0,0,1,5.81,4.78,14.35,14.35,0,0,1,2.18,7.87,13.33,13.33,0,0,1-3.3,9.28q-3.3,3.68-9.88,4.62a23.54,23.54,0,0,1,5.4,4.19,56.66,56.66,0,0,1,5.74,8.11l6.1,9.74H660.56l-7.29-10.87a69.7,69.7,0,0,0-5.32-7.34,7.76,7.76,0,0,0-3-2.08,16.78,16.78,0,0,0-5.07-.56H637.8v20.85Zm10.08-28.82h7.46q7.26,0,9.06-.61a5.41,5.41,0,0,0,2.83-2.11,6.52,6.52,0,0,0,1-3.75,6,6,0,0,0-1.34-4.07,6.16,6.16,0,0,0-3.8-2q-1.23-.16-7.36-.17H637.8Z"/><path class="cls-3" d="M677.93,876.59V826.65H693l9.06,34.07,9-34.07h15.13v49.94H716.8V837.28l-9.91,39.31h-9.71l-9.88-39.31v39.31Z"/><path class="cls-3" d="M474.53,960.31h-11L459.2,949h-20l-4.12,11.34H424.42l19.45-49.94h10.66ZM456,940.55,449.08,922l-6.75,18.53Z"/><path class="cls-3" d="M477.32,944.06l9.81-.95q.89,4.93,3.59,7.25a10.86,10.86,0,0,0,7.31,2.32q4.88,0,7.34-2.06a6.13,6.13,0,0,0,2.47-4.82,4.53,4.53,0,0,0-1-3,8.25,8.25,0,0,0-3.62-2.16q-1.79-.61-8.08-2.18-8.1-2-11.38-4.94a13.13,13.13,0,0,1-2.43-17.19,13.58,13.58,0,0,1,6.23-5.06,25.17,25.17,0,0,1,9.83-1.73q9.4,0,14.15,4.12a14.52,14.52,0,0,1,5,11l-10.08.45a8.59,8.59,0,0,0-2.77-5.54c-1.42-1.12-3.55-1.69-6.39-1.69a11.53,11.53,0,0,0-6.88,1.81,3.62,3.62,0,0,0-1.6,3.1,3.82,3.82,0,0,0,1.49,3c1.28,1.07,4.36,2.18,9.27,3.34a49.29,49.29,0,0,1,10.88,3.59,14,14,0,0,1,5.52,5.08,15.68,15.68,0,0,1-.39,16,14.27,14.27,0,0,1-6.74,5.57,28.21,28.21,0,0,1-10.87,1.82q-9.48,0-14.55-4.37T477.32,944.06Z"/><path class="cls-3" d="M523.85,944.06l9.81-.95q.89,4.93,3.6,7.25a10.82,10.82,0,0,0,7.3,2.32q4.88,0,7.35-2.06a6.16,6.16,0,0,0,2.47-4.82,4.58,4.58,0,0,0-1-3,8.35,8.35,0,0,0-3.63-2.16q-1.77-.61-8.07-2.18-8.11-2-11.38-4.94a13.12,13.12,0,0,1-2.44-17.19,13.56,13.56,0,0,1,6.24-5.06,25.08,25.08,0,0,1,9.82-1.73q9.4,0,14.16,4.12a14.55,14.55,0,0,1,5,11l-10.09.45q-.65-3.86-2.77-5.54c-1.42-1.12-3.55-1.69-6.39-1.69a11.55,11.55,0,0,0-6.88,1.81,3.62,3.62,0,0,0-1.6,3.1,3.83,3.83,0,0,0,1.5,3q1.91,1.61,9.26,3.34A49.41,49.41,0,0,1,557,932.73a14,14,0,0,1,5.52,5.08,14.91,14.91,0,0,1,2,8,14.72,14.72,0,0,1-2.39,8,14.23,14.23,0,0,1-6.74,5.57,28.21,28.21,0,0,1-10.87,1.82q-9.47,0-14.54-4.37T523.85,944.06Z"/><path class="cls-3" d="M572.94,960.31V910.37h37v8.45H583v11.07H608.1v8.41H583v13.59h27.9v8.42Z"/><path class="cls-3" d="M630.72,960.31V918.82H615.9v-8.45h39.68v8.45H640.8v41.49Z"/><path class="cls-4" d="M357.67,618.16l88.11-8.56q8,44.35,32.27,65.16t65.62,20.8q43.74,0,65.93-18.51t22.18-43.28q0-15.91-9.33-27.08t-32.58-19.43q-15.92-5.5-72.51-19.57-72.81-18.06-102.18-44.36-41.3-37-41.3-90.25,0-34.26,19.43-64.09t56-45.43Q485.85,308,537.55,308q84.44,0,127.11,37t44.82,98.82l-90.55,4Q613.11,413.2,594,398.05t-57.37-15.14q-39.45,0-61.79,16.21Q460.46,409.53,460.46,427q0,15.92,13.46,27.23,17.13,14.38,83.21,30t97.74,32.27q31.67,16.68,49.56,45.59t17.9,71.43q0,38.55-21.41,72.2t-60.58,50Q601.17,772,542.75,772q-85,0-130.63-39.31T357.67,618.16Z"/><text class="cls-5" transform="translate(314.45 206.72)">S<tspan class="cls-6" x="56.03" y="0">A</tspan><tspan x="110.46" y="0">TELLITE</tspan></text></svg>