<svg id="Layer_1" data-name="Layer 1" xmlns="http://www.w3.org/2000/svg" viewBox="0 0 1080 1080"><defs><style>.cls-1,.cls-2{fill:none;}.cls-2{stroke:#231f20;stroke-miterlimit:10;stroke-width:0.5px;}.cls-3{fill:#fdfefe;}.cls-4{fill:#fff;}.cls-5{fill:#231f20;}</style></defs><title>PLATFORM ASSET</title><rect class="cls-1" x="0.08" width="1080" height="1080"/><rect x="276.95" y="80.19" width="526.26" height="212.63"/><rect x="276.95" y="787.18" width="526.26" height="212.63"/><polygon class="cls-2" points="803.21 787 276.95 787.18 276.95 292.82 803.21 292.82 803.21 787"/><path class="cls-3" d="M353.91,876.59V826.65h16.18q9.21,0,12,.75a13.07,13.07,0,0,1,7.19,4.89,15.5,15.5,0,0,1,2.9,9.72,16.35,16.35,0,0,1-1.67,7.74,13.67,13.67,0,0,1-4.24,4.92A14.79,14.79,0,0,1,381,857a58.3,58.3,0,0,1-10.46.71H364v18.84ZM364,835.1v14.17h5.51c4,0,6.63-.26,8-.78a6.57,6.57,0,0,0,4.29-6.34,6.49,6.49,0,0,0-1.6-4.5,7,7,0,0,0-4.06-2.21,48,48,0,0,0-7.25-.34Z"/><path class="cls-3" d="M400.72,876.59V827.06H410.8v41.12h25.07v8.41Z"/><path class="cls-3" d="M488.1,876.59h-11l-4.36-11.34h-20l-4.12,11.34H438l19.45-49.94H468.1Zm-18.57-19.76-6.88-18.53-6.75,18.53Z"/><path class="cls-3" d="M499.51,876.59V835.1H484.69v-8.45h39.69v8.45H509.59v41.49Z"/><path class="cls-3" d="M531,876.59V826.65h34.24v8.45H541v11.82h20.85v8.45H541v21.22Z"/><path class="cls-3" d="M571.45,851.93a31.6,31.6,0,0,1,2.29-12.81,23.33,23.33,0,0,1,4.65-6.85,19.45,19.45,0,0,1,6.45-4.5,27.55,27.55,0,0,1,10.77-2q11,0,17.66,6.85t6.63,19q0,12.09-6.58,18.92t-17.58,6.83q-11.13,0-17.71-6.79T571.45,851.93Zm10.39-.34q0,8.48,3.92,12.86a12.79,12.79,0,0,0,10,4.37,12.61,12.61,0,0,0,9.89-4.34q3.87-4.35,3.87-13t-3.76-12.81a14,14,0,0,0-20.05.05Q581.85,843,581.84,851.59Z"/><path class="cls-3" d="M627.8,876.59V826.65H649q8,0,11.63,1.35a11.43,11.43,0,0,1,5.81,4.78,14.35,14.35,0,0,1,2.18,7.87,13.33,13.33,0,0,1-3.3,9.28q-3.3,3.68-9.88,4.62a23.54,23.54,0,0,1,5.4,4.19,56.66,56.66,0,0,1,5.74,8.11l6.1,9.74H660.64l-7.29-10.87a69.7,69.7,0,0,0-5.32-7.34,7.76,7.76,0,0,0-3-2.08,16.78,16.78,0,0,0-5.07-.56h-2v20.85Zm10.08-28.82h7.46q7.26,0,9.06-.61a5.41,5.41,0,0,0,2.83-2.11,6.52,6.52,0,0,0,1-3.75,6,6,0,0,0-1.34-4.07,6.16,6.16,0,0,0-3.8-2q-1.23-.16-7.36-.17h-7.87Z"/><path class="cls-3" d="M678,876.59V826.65H693.1l9.06,34.07,9-34.07h15.13v49.94h-9.37V837.28L707,876.59h-9.71l-9.88-39.31v39.31Z"/><path class="cls-3" d="M474.61,960.31h-11L459.28,949h-20l-4.12,11.34H424.5L444,910.37h10.66ZM456,940.55,449.16,922l-6.75,18.53Z"/><path class="cls-3" d="M477.4,944.06l9.81-.95q.89,4.93,3.59,7.25a10.86,10.86,0,0,0,7.31,2.32q4.88,0,7.34-2.06a6.13,6.13,0,0,0,2.47-4.82,4.53,4.53,0,0,0-1-3,8.25,8.25,0,0,0-3.62-2.16q-1.78-.61-8.08-2.18-8.1-2-11.38-4.94a13.13,13.13,0,0,1-2.43-17.19,13.58,13.58,0,0,1,6.23-5.06,25.17,25.17,0,0,1,9.83-1.73q9.4,0,14.15,4.12a14.52,14.52,0,0,1,5,11l-10.08.45a8.59,8.59,0,0,0-2.77-5.54c-1.42-1.12-3.55-1.69-6.39-1.69a11.53,11.53,0,0,0-6.88,1.81,3.62,3.62,0,0,0-1.6,3.1,3.82,3.82,0,0,0,1.49,3c1.28,1.07,4.36,2.18,9.27,3.34a49.29,49.29,0,0,1,10.88,3.59,14,14,0,0,1,5.52,5.08,15.68,15.68,0,0,1-.39,16,14.27,14.27,0,0,1-6.74,5.57A28.21,28.21,0,0,1,498,961.19q-9.48,0-14.55-4.37T477.4,944.06Z"/><path class="cls-3" d="M523.93,944.06l9.81-.95q.88,4.93,3.6,7.25a10.82,10.82,0,0,0,7.3,2.32q4.88,0,7.35-2.06a6.16,6.16,0,0,0,2.47-4.82,4.58,4.58,0,0,0-1-3,8.35,8.35,0,0,0-3.63-2.16q-1.77-.61-8.07-2.18-8.12-2-11.38-4.94a13.12,13.12,0,0,1-2.44-17.19,13.56,13.56,0,0,1,6.24-5.06,25.08,25.08,0,0,1,9.82-1.73q9.4,0,14.16,4.12a14.55,14.55,0,0,1,5,11l-10.09.45q-.64-3.86-2.77-5.54c-1.42-1.12-3.55-1.69-6.39-1.69a11.55,11.55,0,0,0-6.88,1.81,3.62,3.62,0,0,0-1.6,3.1,3.83,3.83,0,0,0,1.5,3q1.9,1.61,9.26,3.34A49.41,49.41,0,0,1,557,932.73a14,14,0,0,1,5.52,5.08,14.91,14.91,0,0,1,2,8,14.72,14.72,0,0,1-2.39,8,14.23,14.23,0,0,1-6.74,5.57,28.21,28.21,0,0,1-10.87,1.82q-9.46,0-14.54-4.37T523.93,944.06Z"/><path class="cls-3" d="M573,960.31V910.37h37v8.45H583.1v11.07h25.08v8.41H583.1v13.59H611v8.42Z"/><path class="cls-3" d="M630.8,960.31V918.82H616v-8.45h39.68v8.45H640.88v41.49Z"/><path class="cls-4" d="M295.43,195.61l10.27-1q.93,5.17,3.76,7.59a11.36,11.36,0,0,0,7.65,2.43q5.08,0,7.68-2.16a6.42,6.42,0,0,0,2.58-5,4.74,4.74,0,0,0-1.09-3.16,8.72,8.72,0,0,0-3.79-2.26c-1.24-.43-4.05-1.19-8.45-2.28-5.66-1.4-9.62-3.13-11.91-5.17a13.61,13.61,0,0,1-4.81-10.51,13.43,13.43,0,0,1,2.27-7.47,14.16,14.16,0,0,1,6.52-5.3,26.19,26.19,0,0,1,10.28-1.81q9.84,0,14.81,4.31a15.18,15.18,0,0,1,5.22,11.51l-10.55.47q-.67-4-2.9-5.8c-1.49-1.17-3.71-1.76-6.68-1.76a12,12,0,0,0-7.2,1.89,3.81,3.81,0,0,0-1.68,3.24,4,4,0,0,0,1.57,3.18q2,1.67,9.69,3.49a50.71,50.71,0,0,1,11.39,3.76,14.62,14.62,0,0,1,5.78,5.31,15.54,15.54,0,0,1,2.08,8.32,15.38,15.38,0,0,1-2.49,8.41,15,15,0,0,1-7.06,5.83A29.6,29.6,0,0,1,317,213.54q-9.92,0-15.22-4.58T295.43,195.61Z"/><path class="cls-4" d="M346.8,212.61V160.36h16.93q9.61,0,12.55.78a13.73,13.73,0,0,1,7.52,5.12,16.21,16.21,0,0,1,3,10.17,17.14,17.14,0,0,1-1.75,8.1,14.4,14.4,0,0,1-4.44,5.15,15.32,15.32,0,0,1-5.47,2.47,60.13,60.13,0,0,1-10.94.75h-6.88v19.71Zm10.55-43.41V184h5.77c4.16,0,6.94-.28,8.34-.82a6.85,6.85,0,0,0,4.49-6.63,6.75,6.75,0,0,0-1.67-4.71,7.35,7.35,0,0,0-4.24-2.32,52.12,52.12,0,0,0-7.59-.35Z"/><path class="cls-4" d="M437.19,212.61H425.71l-4.56-11.87H400.26L396,212.61H384.76l20.35-52.25h11.16Zm-19.42-20.67-7.2-19.39-7.06,19.39Z"/><path class="cls-4" d="M476.22,193.4l10.23,3.24q-2.35,8.56-7.82,12.71t-13.88,4.15a22.47,22.47,0,0,1-17.11-7.11q-6.7-7.11-6.71-19.44,0-13,6.74-20.26t17.72-7.22q9.58,0,15.57,5.66a20.66,20.66,0,0,1,5.35,9.63l-10.44,2.49a10.82,10.82,0,0,0-11-8.77,11.92,11.92,0,0,0-9.43,4.18q-3.62,4.17-3.61,13.5,0,9.92,3.56,14.12a11.6,11.6,0,0,0,9.27,4.21,10.58,10.58,0,0,0,7.23-2.68Q474.9,199.14,476.22,193.4Z"/><path class="cls-4" d="M495.51,212.61V160.36h38.74v8.84H506.06v11.58h26.23v8.81H506.06v14.22h29.19v8.8Z"/><path class="cls-4" d="M577.63,193.4l10.23,3.24q-2.36,8.56-7.82,12.71t-13.89,4.15A22.48,22.48,0,0,1,549,206.39q-6.69-7.11-6.7-19.44,0-13,6.74-20.26t17.72-7.22q9.59,0,15.57,5.66a20.66,20.66,0,0,1,5.35,9.63l-10.44,2.49a10.82,10.82,0,0,0-11-8.77,11.9,11.9,0,0,0-9.43,4.18q-3.62,4.17-3.62,13.5,0,9.92,3.57,14.12a11.6,11.6,0,0,0,9.27,4.21,10.58,10.58,0,0,0,7.23-2.68Q576.31,199.14,577.63,193.4Z"/><path class="cls-4" d="M597,212.61V160.36h22.21q8.37,0,12.17,1.41a12,12,0,0,1,6.08,5,15.08,15.08,0,0,1,2.28,8.24,13.91,13.91,0,0,1-3.46,9.71q-3.45,3.84-10.34,4.83a24.1,24.1,0,0,1,5.65,4.39,59.2,59.2,0,0,1,6,8.48l6.38,10.19H631.31l-7.63-11.37a72.72,72.72,0,0,0-5.56-7.68,8,8,0,0,0-3.17-2.17,17.15,17.15,0,0,0-5.31-.59H607.5v21.81Zm10.55-30.15h7.81c5.06,0,8.22-.22,9.48-.64a5.71,5.71,0,0,0,3-2.21,6.85,6.85,0,0,0,1.07-3.92,6.26,6.26,0,0,0-1.41-4.26,6.39,6.39,0,0,0-4-2.05c-.85-.12-3.42-.18-7.69-.18H607.5Z"/><path class="cls-4" d="M696.76,212.61H685.28l-4.56-11.87H659.83l-4.32,11.87H644.32l20.36-52.25h11.15Zm-19.43-20.67-7.2-19.39-7.06,19.39Z"/><path class="cls-4" d="M702.42,212.61V160.36h35.83v8.84H713v12.37h21.82v8.84H713v22.2Z"/><path class="cls-4" d="M758.71,212.61V169.2H743.2v-8.84h41.53v8.84H769.26v43.41Z"/><path class="cls-5" d="M287.54,588.41l54.56-5.31q4.92,27.48,20,40.35t40.64,12.89q27.09,0,40.82-11.46t13.74-26.81a25.3,25.3,0,0,0-5.78-16.77q-5.77-6.91-20.18-12-9.84-3.4-44.9-12.12Q341.34,546,323.16,529.67q-25.57-22.92-25.58-55.88a71.38,71.38,0,0,1,12-39.69q12-18.48,34.67-28.14t54.66-9.66q52.29,0,78.72,22.92t27.75,61.2l-56.08,2.46q-3.6-21.4-15.44-30.79t-35.52-9.37q-24.44,0-38.27,10A20.21,20.21,0,0,0,351.2,470q0,9.86,8.33,16.86,10.61,8.91,51.53,18.56t60.53,20a78.06,78.06,0,0,1,30.69,28.23q11.09,17.91,11.09,44.24a81.88,81.88,0,0,1-13.26,44.71q-13.28,20.83-37.52,31T402.16,683.7q-52.68,0-80.9-24.34T287.54,588.41Z"/><path class="cls-5" d="M738.25,576.66l54.37,17.24q-12.5,45.47-41.58,67.54t-73.8,22.07q-55.32,0-90.93-37.8T550.69,542.37q0-69.35,35.81-107.71t94.15-38.36q51,0,82.8,30.12,18.93,17.82,28.41,51.16l-55.51,13.26q-4.92-21.6-20.55-34.1t-38-12.51q-30.88,0-50.11,22.17t-19.23,71.8q0,52.66,18.95,75t49.26,22.36q22.35,0,38.45-14.21T738.25,576.66Z"/></svg>