<svg id="Layer_1" data-name="Layer 1" xmlns="http://www.w3.org/2000/svg" viewBox="0 0 1080 1080"><defs><style>.cls-1,.cls-2{fill:none;}.cls-2{stroke:#231f20;stroke-miterlimit:10;stroke-width:0.5px;}.cls-3{fill:#fdfefe;}.cls-4{fill:#231f20;}.cls-5{fill:#fff;}</style></defs><title>PLATFORM ASSET</title><rect class="cls-1" x="0.08" width="1080" height="1080"/><rect x="276.95" y="80.19" width="526.26" height="212.63"/><rect x="276.95" y="787.18" width="526.26" height="212.63"/><polygon class="cls-2" points="803.21 787 276.95 787.18 276.95 292.82 803.21 292.82 803.21 787"/><path class="cls-3" d="M353.91,876.59V826.65h16.18q9.21,0,12,.75a13.07,13.07,0,0,1,7.19,4.89,15.5,15.5,0,0,1,2.9,9.72,16.35,16.35,0,0,1-1.67,7.74,13.67,13.67,0,0,1-4.24,4.92A14.79,14.79,0,0,1,381,857a58.3,58.3,0,0,1-10.46.71H364v18.84ZM364,835.1v14.17h5.51c4,0,6.63-.26,8-.78a6.57,6.57,0,0,0,4.29-6.34,6.49,6.49,0,0,0-1.6-4.5,7,7,0,0,0-4.06-2.21,48,48,0,0,0-7.25-.34Z"/><path class="cls-3" d="M400.72,876.59V827.06H410.8v41.12h25.07v8.41Z"/><path class="cls-3" d="M488.1,876.59h-11l-4.36-11.34h-20l-4.12,11.34H438l19.45-49.94H468.1Zm-18.57-19.76-6.88-18.53-6.75,18.53Z"/><path class="cls-3" d="M499.51,876.59V835.1H484.69v-8.45h39.69v8.45H509.59v41.49Z"/><path class="cls-3" d="M531,876.59V826.65h34.24v8.45H541v11.82h20.85v8.45H541v21.22Z"/><path class="cls-3" d="M571.45,851.93a31.6,31.6,0,0,1,2.29-12.81,23.33,23.33,0,0,1,4.65-6.85,19.45,19.45,0,0,1,6.45-4.5,27.55,27.55,0,0,1,10.77-2q11,0,17.66,6.85t6.63,19q0,12.09-6.58,18.92t-17.58,6.83q-11.13,0-17.71-6.79T571.45,851.93Zm10.39-.34q0,8.48,3.92,12.86a12.79,12.79,0,0,0,10,4.37,12.61,12.61,0,0,0,9.89-4.34q3.87-4.35,3.87-13t-3.76-12.81a14,14,0,0,0-20.05.05Q581.85,843,581.84,851.59Z"/><path class="cls-3" d="M627.8,876.59V826.65H649q8,0,11.63,1.35a11.43,11.43,0,0,1,5.81,4.78,14.35,14.35,0,0,1,2.18,7.87,13.33,13.33,0,0,1-3.3,9.28q-3.3,3.68-9.88,4.62a23.54,23.54,0,0,1,5.4,4.19,56.66,56.66,0,0,1,5.74,8.11l6.1,9.74H660.64l-7.29-10.87a69.7,69.7,0,0,0-5.32-7.34,7.76,7.76,0,0,0-3-2.08,16.78,16.78,0,0,0-5.07-.56h-2v20.85Zm10.08-28.82h7.46q7.26,0,9.06-.61a5.41,5.41,0,0,0,2.83-2.11,6.52,6.52,0,0,0,1-3.75,6,6,0,0,0-1.34-4.07,6.16,6.16,0,0,0-3.8-2q-1.23-.16-7.36-.17h-7.87Z"/><path class="cls-3" d="M678,876.59V826.65H693.1l9.06,34.07,9-34.07h15.13v49.94h-9.37V837.28L707,876.59h-9.71l-9.88-39.31v39.31Z"/><path class="cls-3" d="M474.61,960.31h-11L459.28,949h-20l-4.12,11.34H424.5L444,910.37h10.66ZM456,940.55,449.16,922l-6.75,18.53Z"/><path class="cls-3" d="M477.4,944.06l9.81-.95q.89,4.93,3.59,7.25a10.86,10.86,0,0,0,7.31,2.32q4.88,0,7.34-2.06a6.13,6.13,0,0,0,2.47-4.82,4.53,4.53,0,0,0-1-3,8.25,8.25,0,0,0-3.62-2.16q-1.78-.61-8.08-2.18-8.1-2-11.38-4.94a13.13,13.13,0,0,1-2.43-17.19,13.58,13.58,0,0,1,6.23-5.06,25.17,25.17,0,0,1,9.83-1.73q9.4,0,14.15,4.12a14.52,14.52,0,0,1,5,11l-10.08.45a8.59,8.59,0,0,0-2.77-5.54c-1.42-1.12-3.55-1.69-6.39-1.69a11.53,11.53,0,0,0-6.88,1.81,3.62,3.62,0,0,0-1.6,3.1,3.82,3.82,0,0,0,1.49,3c1.28,1.07,4.36,2.18,9.27,3.34a49.29,49.29,0,0,1,10.88,3.59,14,14,0,0,1,5.52,5.08,15.68,15.68,0,0,1-.39,16,14.27,14.27,0,0,1-6.74,5.57A28.21,28.21,0,0,1,498,961.19q-9.48,0-14.55-4.37T477.4,944.06Z"/><path class="cls-3" d="M523.93,944.06l9.81-.95q.88,4.93,3.6,7.25a10.82,10.82,0,0,0,7.3,2.32q4.88,0,7.35-2.06a6.16,6.16,0,0,0,2.47-4.82,4.58,4.58,0,0,0-1-3,8.35,8.35,0,0,0-3.63-2.16q-1.77-.61-8.07-2.18-8.12-2-11.38-4.94a13.12,13.12,0,0,1-2.44-17.19,13.56,13.56,0,0,1,6.24-5.06,25.08,25.08,0,0,1,9.82-1.73q9.4,0,14.16,4.12a14.55,14.55,0,0,1,5,11l-10.09.45q-.64-3.86-2.77-5.54c-1.42-1.12-3.55-1.69-6.39-1.69a11.55,11.55,0,0,0-6.88,1.81,3.62,3.62,0,0,0-1.6,3.1,3.83,3.83,0,0,0,1.5,3q1.9,1.61,9.26,3.34A49.41,49.41,0,0,1,557,932.73a14,14,0,0,1,5.52,5.08,14.91,14.91,0,0,1,2,8,14.72,14.72,0,0,1-2.39,8,14.23,14.23,0,0,1-6.74,5.57,28.21,28.21,0,0,1-10.87,1.82q-9.46,0-14.54-4.37T523.93,944.06Z"/><path class="cls-3" d="M573,960.31V910.37h37v8.45H583.1v11.07h25.08v8.41H583.1v13.59H611v8.42Z"/><path class="cls-3" d="M630.8,960.31V918.82H616v-8.45h39.68v8.45H640.88v41.49Z"/><path class="cls-4" d="M287.54,581.55l47.33-4.6q4.26,23.84,17.33,35t35.25,11.17q23.51,0,35.41-9.94t11.92-23.26a21.94,21.94,0,0,0-5-14.54q-5-6-17.5-10.43-8.55-3-38.95-10.52-39.1-9.69-54.89-23.83-22.18-19.87-22.18-48.48a61.87,61.87,0,0,1,10.43-34.42q10.44-16,30.07-24.41t47.42-8.38q45.34,0,68.27,19.88t24.08,53.08L427.88,490q-3.12-18.57-13.4-26.7t-30.81-8.14q-21.19,0-33.19,8.71a17.56,17.56,0,0,0-7.73,15q0,8.53,7.24,14.62,9.19,7.72,44.69,16.11t52.51,17.33a67.76,67.76,0,0,1,26.62,24.49q9.62,15.52,9.61,38.37a70.93,70.93,0,0,1-11.5,38.78q-11.51,18.09-32.54,26.87T387,664.21q-45.69,0-70.17-21.11T287.54,581.55Z"/><path class="cls-4" d="M515.76,660.46V419.54H564.4V660.46Z"/><path class="cls-4" d="M596.74,582.42l47.32-4.6q4.28,23.82,17.34,35T696.65,624q23.51,0,35.41-9.94T744,590.8a21.88,21.88,0,0,0-5-14.54q-5-6-17.49-10.44-8.55-3-39-10.52-39.12-9.69-54.89-23.82Q605.45,511.59,605.45,483a61.9,61.9,0,0,1,10.43-34.43q10.44-16,30.07-24.4t47.41-8.38q45.36,0,68.28,19.88t24.08,53.08l-48.64,2.14q-3.14-18.57-13.4-26.71t-30.81-8.13q-21.2,0-33.19,8.71A17.52,17.52,0,0,0,652,479.71q0,8.55,7.23,14.63,9.21,7.73,44.7,16.1t52.5,17.34A67.69,67.69,0,0,1,783,552.26q9.6,15.54,9.61,38.38a71,71,0,0,1-11.5,38.78q-11.5,18.08-32.54,26.87t-52.42,8.79q-45.69,0-70.17-21.12T596.74,582.42Z"/><path class="cls-5" d="M354.81,127l9.86-1c.6,3.31,1.8,5.74,3.62,7.29a10.92,10.92,0,0,0,7.34,2.33q4.89,0,7.38-2.07a6.18,6.18,0,0,0,2.48-4.85,4.61,4.61,0,0,0-1-3,8.38,8.38,0,0,0-3.65-2.17q-1.79-.61-8.11-2.19-8.16-2-11.44-5a13.06,13.06,0,0,1-4.62-10.1,12.86,12.86,0,0,1,2.17-7.17A13.63,13.63,0,0,1,365.07,94,25.17,25.17,0,0,1,375,92.29q9.45,0,14.22,4.14a14.61,14.61,0,0,1,5,11.06l-10.14.44q-.65-3.87-2.79-5.56t-6.42-1.69a11.55,11.55,0,0,0-6.91,1.81,3.65,3.65,0,0,0-1.61,3.12,3.85,3.85,0,0,0,1.5,3c1.28,1.08,4.39,2.19,9.32,3.36a49.31,49.31,0,0,1,10.94,3.61,14.15,14.15,0,0,1,5.54,5.1,15.78,15.78,0,0,1-.39,16.08,14.39,14.39,0,0,1-6.78,5.6,28.44,28.44,0,0,1-10.92,1.83q-9.52,0-14.62-4.4T354.81,127Z"/><path class="cls-5" d="M449.42,143.34h-11L434,131.94H413.94l-4.14,11.4H399.05l19.55-50.2h10.72Zm-18.67-19.86-6.91-18.63-6.78,18.63Z"/><path class="cls-5" d="M460.89,143.34V101.63H446V93.14h39.89v8.49H471v41.71Z"/><path class="cls-5" d="M492.42,143.34V93.14h37.22v8.49H502.55v11.13h25.2v8.46h-25.2v13.66H530.6v8.46Z"/><path class="cls-5" d="M539.46,143.34V93.55H549.6v41.33h25.2v8.46Z"/><path class="cls-5" d="M582.3,143.34V93.55h10.13v41.33h25.2v8.46Z"/><path class="cls-5" d="M624.55,143.34V93.14h10.13v50.2Z"/><path class="cls-5" d="M655.64,143.34V101.63h-14.9V93.14h39.89v8.49H665.77v41.71Z"/><path class="cls-5" d="M687.17,143.34V93.14h37.22v8.49H697.3v11.13h25.2v8.46H697.3v13.66h28.05v8.46Z"/><path class="cls-5" d="M380.12,211.6V161.41h10.13V211.6Z"/><path class="cls-5" d="M399.77,211.6V161.41h15.17l9.1,34.24,9-34.24h15.2V211.6h-9.42V172.09l-10,39.51h-9.76l-9.93-39.51V211.6Z"/><path class="cls-5" d="M503.58,211.6h-11l-4.39-11.4H468.11L464,211.6H453.22l19.55-50.19h10.71Zm-18.66-19.86L478,173.12l-6.78,18.62Z"/><path class="cls-5" d="M532.31,193.15v-8.46h21.84v20a27.32,27.32,0,0,1-9.23,5.43,33.63,33.63,0,0,1-12.24,2.35A27.42,27.42,0,0,1,519,209.15a21,21,0,0,1-8.8-9.45,30.54,30.54,0,0,1-2.94-13.37,28.9,28.9,0,0,1,3.29-13.93,22.07,22.07,0,0,1,9.62-9.35,25.91,25.91,0,0,1,12-2.5q9.35,0,14.6,3.92a17.7,17.7,0,0,1,6.76,10.84l-10.07,1.88a10.62,10.62,0,0,0-4-5.84,12.12,12.12,0,0,0-7.31-2.14q-6.64,0-10.57,4.21t-3.92,12.5q0,8.94,4,13.41A13.29,13.29,0,0,0,532,203.79a17.33,17.33,0,0,0,6.39-1.25,21.74,21.74,0,0,0,5.49-3v-6.36Z"/><path class="cls-5" d="M563.5,211.6V161.41h37.22v8.49H573.63V181h25.2v8.45h-25.2v13.66h28v8.46Z"/><path class="cls-5" d="M610.3,211.6V161.41h21.33q8.05,0,11.7,1.35a11.49,11.49,0,0,1,5.83,4.81,14.4,14.4,0,0,1,2.2,7.91,13.42,13.42,0,0,1-3.32,9.33q-3.33,3.67-9.93,4.64a23.51,23.51,0,0,1,5.42,4.21,57.22,57.22,0,0,1,5.77,8.15l6.13,9.79H643.31L636,200.68a71.33,71.33,0,0,0-5.34-7.38,7.74,7.74,0,0,0-3-2.09,16.92,16.92,0,0,0-5.1-.56h-2V211.6Zm10.14-29h7.5q7.29,0,9.1-.61a5.51,5.51,0,0,0,2.85-2.12,6.59,6.59,0,0,0,1-3.77,6,6,0,0,0-1.35-4.09,6.17,6.17,0,0,0-3.82-2q-1.23-.16-7.39-.17h-7.91Z"/><path class="cls-5" d="M671.49,211.6V190.48L653.1,161.41H665l11.82,19.86,11.57-19.86H700l-18.45,29.13V211.6Z"/><path class="cls-5" d="M366.39,263.5l9.86-1q.88,5,3.61,7.29a10.92,10.92,0,0,0,7.34,2.33q4.91,0,7.38-2.07a6.15,6.15,0,0,0,2.48-4.85,4.57,4.57,0,0,0-1-3,8.42,8.42,0,0,0-3.65-2.17c-1.18-.41-3.89-1.14-8.11-2.19q-8.16-2-11.44-5a13.06,13.06,0,0,1-4.62-10.1,12.91,12.91,0,0,1,2.17-7.17,13.55,13.55,0,0,1,6.27-5.08,25,25,0,0,1,9.88-1.75q9.45,0,14.22,4.14a14.61,14.61,0,0,1,5,11.06l-10.13.45q-.66-3.87-2.8-5.57t-6.41-1.69A11.57,11.57,0,0,0,379.5,239a3.68,3.68,0,0,0-1.61,3.12,3.87,3.87,0,0,0,1.51,3.05q1.91,1.6,9.31,3.35a49.13,49.13,0,0,1,10.94,3.61,14.2,14.2,0,0,1,5.55,5.11,14.94,14.94,0,0,1,2,8,14.75,14.75,0,0,1-2.4,8.08,14.39,14.39,0,0,1-6.78,5.6,28.44,28.44,0,0,1-10.92,1.83q-9.53,0-14.62-4.4T366.39,263.5Z"/><path class="cls-5" d="M415.72,279.83V229.64h37.22v8.49H425.86v11.12h25.2v8.46h-25.2v13.66h28v8.46Z"/><path class="cls-5" d="M462.53,279.83V229.64h21.33q8,0,11.69,1.35a11.51,11.51,0,0,1,5.84,4.81,14.45,14.45,0,0,1,2.19,7.91,13.44,13.44,0,0,1-3.32,9.33c-2.22,2.45-5.52,4-9.93,4.64a23.79,23.79,0,0,1,5.43,4.21,57.44,57.44,0,0,1,5.77,8.15l6.13,9.79H495.53l-7.32-10.92a71.73,71.73,0,0,0-5.34-7.38,7.81,7.81,0,0,0-3.05-2.09,16.6,16.6,0,0,0-5.1-.56h-2.06v20.95Zm10.13-29h7.5q7.29,0,9.11-.61a5.41,5.41,0,0,0,2.84-2.13,6.48,6.48,0,0,0,1-3.76,6,6,0,0,0-1.35-4.09,6.22,6.22,0,0,0-3.82-2c-.82-.12-3.29-.17-7.4-.17h-7.91Z"/><path class="cls-5" d="M524.67,279.83l-17.94-50.19h11l12.71,37.14,12.29-37.14h10.75l-18,50.19Z"/><path class="cls-5" d="M558.33,279.83V229.64h10.13v50.19Z"/><path class="cls-5" d="M610.24,261.37l9.82,3.12q-2.25,8.22-7.51,12.21t-13.34,4a21.6,21.6,0,0,1-16.43-6.83q-6.45-6.84-6.44-18.68,0-12.54,6.47-19.47t17-6.93q9.21,0,15,5.44a19.93,19.93,0,0,1,5.14,9.25l-10,2.39a10.36,10.36,0,0,0-10.58-8.42,11.4,11.4,0,0,0-9,4q-3.48,4-3.48,13,0,9.53,3.43,13.56a11.09,11.09,0,0,0,8.9,4,10.12,10.12,0,0,0,6.95-2.57Q609,266.89,610.24,261.37Z"/><path class="cls-5" d="M628.76,279.83V229.64H666v8.49H638.89v11.12h25.2v8.46h-25.2v13.66h28v8.46Z"/><path class="cls-5" d="M673,263.5l9.86-1c.6,3.31,1.8,5.74,3.62,7.29a10.92,10.92,0,0,0,7.34,2.33q4.89,0,7.38-2.07a6.18,6.18,0,0,0,2.48-4.85,4.62,4.62,0,0,0-1-3A8.48,8.48,0,0,0,699,260c-1.19-.41-3.89-1.14-8.12-2.19q-8.15-2-11.43-5a13.06,13.06,0,0,1-4.62-10.1,12.91,12.91,0,0,1,2.17-7.17,13.55,13.55,0,0,1,6.27-5.08,25,25,0,0,1,9.87-1.75q9.45,0,14.23,4.14a14.64,14.64,0,0,1,5,11.06l-10.14.45q-.65-3.87-2.79-5.57T693,237.17a11.55,11.55,0,0,0-6.91,1.81,3.65,3.65,0,0,0-1.61,3.12,3.88,3.88,0,0,0,1.5,3.05q1.92,1.6,9.32,3.35a49.31,49.31,0,0,1,10.94,3.61,14.1,14.1,0,0,1,5.54,5.11,15.82,15.82,0,0,1-.39,16.07,14.39,14.39,0,0,1-6.78,5.6,28.44,28.44,0,0,1-10.92,1.83q-9.52,0-14.62-4.4T673,263.5Z"/></svg>