<svg id="Layer_1" data-name="Layer 1" xmlns="http://www.w3.org/2000/svg" viewBox="0 0 1080 1080"><defs><style>.cls-1,.cls-2{fill:none;}.cls-2{stroke:#231f20;stroke-miterlimit:10;stroke-width:0.5px;}.cls-3{fill:#fdfefe;}.cls-4{fill:#231f20;}.cls-5{fill:#fff;}</style></defs><title>PLATFORM ASSET</title><rect class="cls-1" x="9.2" width="1080" height="1080"/><rect x="286.07" y="80.19" width="526.26" height="212.63"/><rect x="286.07" y="787.18" width="526.26" height="212.63"/><polygon class="cls-2" points="812.33 787 286.07 787.18 286.07 292.82 812.33 292.82 812.33 787"/><path class="cls-3" d="M363,876.59V826.65h16.18q9.21,0,12,.75a13.07,13.07,0,0,1,7.19,4.89,15.5,15.5,0,0,1,2.9,9.72,16.35,16.35,0,0,1-1.67,7.74,13.67,13.67,0,0,1-4.24,4.92,14.79,14.79,0,0,1-5.23,2.37,58.3,58.3,0,0,1-10.46.71h-6.57v18.84Zm10.09-41.49v14.17h5.51c4,0,6.63-.26,8-.78a6.57,6.57,0,0,0,4.29-6.34,6.49,6.49,0,0,0-1.6-4.5,7,7,0,0,0-4.06-2.21,48,48,0,0,0-7.25-.34Z"/><path class="cls-3" d="M409.84,876.59V827.06h10.08v41.12H445v8.41Z"/><path class="cls-3" d="M497.22,876.59h-11l-4.36-11.34h-20l-4.12,11.34H447.11l19.45-49.94h10.66Zm-18.57-19.76-6.88-18.53L465,856.83Z"/><path class="cls-3" d="M508.63,876.59V835.1H493.81v-8.45H533.5v8.45H518.71v41.49Z"/><path class="cls-3" d="M540.07,876.59V826.65h34.24v8.45H550.15v11.82H571v8.45H550.15v21.22Z"/><path class="cls-3" d="M580.57,851.93a31.6,31.6,0,0,1,2.29-12.81,23.33,23.33,0,0,1,4.65-6.85,19.45,19.45,0,0,1,6.45-4.5,27.55,27.55,0,0,1,10.77-2q11,0,17.66,6.85t6.63,19q0,12.09-6.58,18.92t-17.58,6.83q-11.13,0-17.71-6.79T580.57,851.93Zm10.39-.34q0,8.48,3.92,12.86a12.79,12.79,0,0,0,10,4.37,12.61,12.61,0,0,0,9.89-4.34q3.87-4.35,3.87-13t-3.76-12.81a14,14,0,0,0-20.05.05Q591,843,591,851.59Z"/><path class="cls-3" d="M636.92,876.59V826.65h21.22q8,0,11.63,1.35a11.43,11.43,0,0,1,5.81,4.78,14.35,14.35,0,0,1,2.18,7.87,13.33,13.33,0,0,1-3.3,9.28q-3.3,3.68-9.88,4.62a23.54,23.54,0,0,1,5.4,4.19,56.66,56.66,0,0,1,5.74,8.11l6.1,9.74H669.76l-7.29-10.87a69.7,69.7,0,0,0-5.32-7.34,7.76,7.76,0,0,0-3-2.08,16.78,16.78,0,0,0-5.07-.56h-2v20.85ZM647,847.77h7.46q7.26,0,9.06-.61a5.41,5.41,0,0,0,2.83-2.11,6.52,6.52,0,0,0,1-3.75,6,6,0,0,0-1.34-4.07,6.16,6.16,0,0,0-3.8-2q-1.23-.16-7.36-.17H647Z"/><path class="cls-3" d="M687.13,876.59V826.65h15.09l9.06,34.07,9-34.07h15.13v49.94H726V837.28l-9.91,39.31h-9.71l-9.88-39.31v39.31Z"/><path class="cls-3" d="M483.73,960.31h-11L468.4,949h-20l-4.12,11.34H433.62l19.45-49.94h10.66Zm-18.57-19.76L458.28,922l-6.75,18.53Z"/><path class="cls-3" d="M486.52,944.06l9.81-.95q.89,4.93,3.59,7.25a10.86,10.86,0,0,0,7.31,2.32q4.88,0,7.34-2.06A6.13,6.13,0,0,0,517,945.8a4.53,4.53,0,0,0-1-3,8.25,8.25,0,0,0-3.62-2.16q-1.78-.61-8.08-2.18-8.1-2-11.38-4.94a13.13,13.13,0,0,1-2.43-17.19,13.58,13.58,0,0,1,6.23-5.06,25.17,25.17,0,0,1,9.83-1.73q9.41,0,14.15,4.12a14.52,14.52,0,0,1,5,11l-10.08.45a8.59,8.59,0,0,0-2.77-5.54c-1.42-1.12-3.55-1.69-6.39-1.69a11.53,11.53,0,0,0-6.88,1.81,3.62,3.62,0,0,0-1.6,3.1,3.82,3.82,0,0,0,1.49,3c1.28,1.07,4.36,2.18,9.27,3.34a49.29,49.29,0,0,1,10.88,3.59,14,14,0,0,1,5.52,5.08,15.68,15.68,0,0,1-.39,16,14.27,14.27,0,0,1-6.74,5.57,28.21,28.21,0,0,1-10.87,1.82q-9.48,0-14.55-4.37T486.52,944.06Z"/><path class="cls-3" d="M533.05,944.06l9.81-.95q.89,4.93,3.6,7.25a10.82,10.82,0,0,0,7.3,2.32q4.88,0,7.35-2.06a6.16,6.16,0,0,0,2.47-4.82,4.58,4.58,0,0,0-1-3,8.35,8.35,0,0,0-3.63-2.16q-1.77-.61-8.07-2.18-8.12-2-11.38-4.94A13.12,13.12,0,0,1,537,916.31a13.56,13.56,0,0,1,6.24-5.06,25.08,25.08,0,0,1,9.82-1.73q9.4,0,14.16,4.12a14.55,14.55,0,0,1,5,11l-10.09.45q-.64-3.86-2.77-5.54c-1.42-1.12-3.55-1.69-6.39-1.69a11.55,11.55,0,0,0-6.88,1.81,3.62,3.62,0,0,0-1.6,3.1,3.83,3.83,0,0,0,1.5,3q1.9,1.61,9.26,3.34a49.41,49.41,0,0,1,10.89,3.59,14,14,0,0,1,5.52,5.08,14.91,14.91,0,0,1,2,8,14.72,14.72,0,0,1-2.39,8,14.23,14.23,0,0,1-6.74,5.57,28.21,28.21,0,0,1-10.87,1.82q-9.46,0-14.54-4.37T533.05,944.06Z"/><path class="cls-3" d="M582.14,960.31V910.37h37v8.45H592.22v11.07H617.3v8.41H592.22v13.59h27.9v8.42Z"/><path class="cls-3" d="M639.92,960.31V918.82H625.1v-8.45h39.68v8.45H650v41.49Z"/><path class="cls-4" d="M431.93,468.72h54.51q18.44,0,28.11,2.82a49.42,49.42,0,0,1,22.27,13.6,64.53,64.53,0,0,1,14.1,23.93q4.83,14.16,4.84,34.91,0,18.24-4.54,31.44-5.54,16.11-15.82,26.09-7.75,7.56-20.95,11.79-9.89,3.12-26.4,3.12H431.93Zm29.82,25v97.84H484q12.5,0,18-1.41A27.59,27.59,0,0,0,514.1,584q4.77-4.34,7.8-14.26t3-27.05q0-17.13-3-26.3t-8.46-14.3a28.38,28.38,0,0,0-13.8-7q-6.25-1.41-24.49-1.41Z"/><path class="cls-4" d="M290.16,566l29-2.82q2.63,14.61,10.64,21.46t21.61,6.85q14.4,0,21.71-6.1t7.3-14.25a13.45,13.45,0,0,0-3.07-8.92q-3.08-3.68-10.73-6.4-5.24-1.82-23.88-6.45-24-5.94-33.65-14.61-13.61-12.18-13.6-29.72a38,38,0,0,1,6.39-21.11,40.2,40.2,0,0,1,18.44-15q12-5.13,29.07-5.14,27.81,0,41.87,12.19T406,508.58l-29.83,1.31q-1.9-11.38-8.21-16.37t-18.89-5q-13,0-20.35,5.34A10.75,10.75,0,0,0,324,503a11.34,11.34,0,0,0,4.43,9q5.64,4.74,27.41,9.88T388,532.51a41.47,41.47,0,0,1,16.32,15q5.89,9.53,5.9,23.53a43.48,43.48,0,0,1-7.06,23.77,42.29,42.29,0,0,1-19.95,16.48q-12.88,5.38-32.14,5.39-28,0-43-13T290.16,566Z"/><path class="cls-4" d="M570.46,613.54V467h29.82V588.65h74.16v24.89Z"/><path class="cls-4" d="M688.14,565.48l29-2.82q2.63,14.61,10.63,21.46T749.4,591q14.42,0,21.72-6.1t7.3-14.25a13.43,13.43,0,0,0-3.07-8.92q-3.08-3.68-10.73-6.4-5.25-1.81-23.88-6.45-24-5.94-33.66-14.61-13.59-12.18-13.6-29.72a38,38,0,0,1,6.4-21.11q6.4-9.82,18.44-15t29.07-5.14q27.81,0,41.86,12.19T804,508.05l-29.82,1.31Q772.27,498,766,493t-18.9-5q-13,0-20.35,5.34a10.74,10.74,0,0,0-4.73,9.17,11.31,11.31,0,0,0,4.43,9q5.64,4.74,27.41,9.88T786,532a41.47,41.47,0,0,1,16.32,15q5.89,9.53,5.89,23.53a43.47,43.47,0,0,1-7,23.77,42.29,42.29,0,0,1-20,16.48q-12.9,5.38-32.14,5.39-28,0-43-12.95T688.14,565.48Z"/><path class="cls-5" d="M335.68,121.9l9.62-.93q.87,4.84,3.53,7.12a10.68,10.68,0,0,0,7.17,2.27q4.78,0,7.21-2a6,6,0,0,0,2.42-4.73,4.46,4.46,0,0,0-1-3,8.19,8.19,0,0,0-3.56-2.12c-1.16-.4-3.8-1.12-7.92-2.14q-8-2-11.17-4.85a12.74,12.74,0,0,1-4.51-9.86,12.61,12.61,0,0,1,2.12-7,13.33,13.33,0,0,1,6.12-5,24.63,24.63,0,0,1,9.64-1.7q9.23,0,13.89,4a14.3,14.3,0,0,1,4.9,10.8l-9.9.43a8.4,8.4,0,0,0-2.72-5.43q-2.08-1.65-6.27-1.65A11.32,11.32,0,0,0,348.48,98a3.56,3.56,0,0,0-1.57,3,3.78,3.78,0,0,0,1.47,3q1.88,1.56,9.09,3.27a47.61,47.61,0,0,1,10.68,3.53,13.73,13.73,0,0,1,5.42,5,14.58,14.58,0,0,1,1.95,7.8,14.43,14.43,0,0,1-2.34,7.89,13.94,13.94,0,0,1-6.62,5.47,27.76,27.76,0,0,1-10.66,1.79q-9.3,0-14.27-4.3T335.68,121.9Z"/><path class="cls-5" d="M383.85,137.85v-49h15.88q9,0,11.76.74a12.82,12.82,0,0,1,7.06,4.8,15.22,15.22,0,0,1,2.84,9.54,16,16,0,0,1-1.64,7.59,13.44,13.44,0,0,1-4.16,4.83,14.47,14.47,0,0,1-5.13,2.32,56.48,56.48,0,0,1-10.27.7h-6.45v18.49Zm9.89-40.72V111h5.42c3.9,0,6.5-.26,7.82-.77a6.47,6.47,0,0,0,3.09-2.41,6.55,6.55,0,0,0,1.12-3.81,6.32,6.32,0,0,0-1.57-4.41,6.83,6.83,0,0,0-4-2.17,46.26,46.26,0,0,0-7.12-.34Z"/><path class="cls-5" d="M468.62,137.85H457.86l-4.28-11.13H434l-4.05,11.13H419.45l19.09-49H449ZM450.4,118.46l-6.75-18.18L437,118.46Z"/><path class="cls-5" d="M505.22,119.83l9.6,3q-2.21,8-7.34,11.92t-13,3.89a21.1,21.1,0,0,1-16-6.66q-6.29-6.68-6.28-18.24,0-12.24,6.32-19T495.06,88q9,0,14.61,5.31a19.33,19.33,0,0,1,5,9l-9.79,2.34a10.14,10.14,0,0,0-10.33-8.23,11.15,11.15,0,0,0-8.84,3.92c-2.26,2.6-3.39,6.83-3.39,12.66q0,9.3,3.34,13.24a10.85,10.85,0,0,0,8.69,3.95,9.94,9.94,0,0,0,6.79-2.51Q504,125.22,505.22,119.83Z"/><path class="cls-5" d="M523.31,137.85v-49h36.34v8.29H533.2V108h24.61v8.25H533.2v13.34h27.38v8.26Z"/><path class="cls-5" d="M588,88.84H606a35.48,35.48,0,0,1,9.33.94,16.4,16.4,0,0,1,7.39,4.51,21.42,21.42,0,0,1,4.68,7.94,36.15,36.15,0,0,1,1.6,11.58,32.27,32.27,0,0,1-1.5,10.43,21.7,21.7,0,0,1-5.25,8.66,17.35,17.35,0,0,1-6.95,3.91,30,30,0,0,1-8.76,1H588Zm9.9,8.29v32.46h7.38a26.5,26.5,0,0,0,6-.47,9.12,9.12,0,0,0,4-2,10.3,10.3,0,0,0,2.59-4.73,31.8,31.8,0,0,0,1-9,29.23,29.23,0,0,0-1-8.73A11.15,11.15,0,0,0,615,99.91a9.37,9.37,0,0,0-4.58-2.31,45,45,0,0,0-8.12-.47Z"/><path class="cls-5" d="M681.63,137.85H670.86l-4.28-11.13H647l-4,11.13h-10.5l19.09-49H662Zm-18.22-19.39-6.76-18.18L650,118.46Z"/><path class="cls-5" d="M692.82,137.85V97.13H678.28V88.84h39v8.29H702.72v40.72Z"/><path class="cls-5" d="M762.72,137.85H752l-4.28-11.13H728.09l-4,11.13h-10.5l19.09-49H743.1ZM744.5,118.46l-6.75-18.18-6.62,18.18Z"/><path class="cls-5" d="M472,211V162.4h9.89v40.35h24.61V211Z"/><path class="cls-5" d="M513.28,211V162h9.9v49Z"/><path class="cls-5" d="M532.7,211V162h9.63l20.06,32.73V162h9.19v49h-9.93l-19.75-32v32Z"/><path class="cls-5" d="M582.18,211V162h9.89v21.76l20-21.76h13.31l-18.46,19.09L626.37,211h-12.8l-13.48-23-8,8.19V211Z"/><path class="cls-5" d="M377.33,268.19l9.63-.94c.57,3.23,1.75,5.6,3.52,7.12a10.63,10.63,0,0,0,7.17,2.27q4.78,0,7.21-2a6,6,0,0,0,2.42-4.73,4.47,4.47,0,0,0-1-3,8.19,8.19,0,0,0-3.56-2.12c-1.16-.4-3.8-1.12-7.92-2.14q-8-2-11.17-4.85A12.87,12.87,0,0,1,381.22,241a13.39,13.39,0,0,1,6.12-5,24.63,24.63,0,0,1,9.64-1.7q9.24,0,13.89,4a14.3,14.3,0,0,1,4.9,10.8l-9.89.44a8.48,8.48,0,0,0-2.73-5.44q-2.08-1.65-6.27-1.65a11.32,11.32,0,0,0-6.75,1.77,3.56,3.56,0,0,0-1.57,3,3.78,3.78,0,0,0,1.47,3q1.88,1.57,9.09,3.27a48.13,48.13,0,0,1,10.68,3.53,13.81,13.81,0,0,1,5.42,5,15.42,15.42,0,0,1-.38,15.7,14.07,14.07,0,0,1-6.62,5.46A27.85,27.85,0,0,1,397.55,285q-9.29,0-14.27-4.3T377.33,268.19Z"/><path class="cls-5" d="M425.5,284.13v-49h36.33v8.29H435.39v10.86H460v8.26H435.39v13.33h27.38v8.26Z"/><path class="cls-5" d="M502.52,266.11l9.59,3.05q-2.21,8-7.34,11.91t-13,3.9a21.1,21.1,0,0,1-16-6.67q-6.29-6.68-6.29-18.24,0-12.23,6.32-19t16.62-6.77q9,0,14.6,5.31a19.43,19.43,0,0,1,5,9l-9.8,2.34a10.1,10.1,0,0,0-10.33-8.22,11.14,11.14,0,0,0-8.84,3.91q-3.39,3.9-3.39,12.67c0,6.19,1.11,10.61,3.34,13.23a10.87,10.87,0,0,0,8.69,3.95,9.94,9.94,0,0,0,6.79-2.51Q501.28,271.5,502.52,266.11Z"/><path class="cls-5" d="M520.54,235.13h9.89v26.54a54.28,54.28,0,0,0,.37,8.19,8,8,0,0,0,3,4.83,10.58,10.58,0,0,0,6.54,1.82c2.81,0,4.92-.57,6.35-1.72a6.79,6.79,0,0,0,2.57-4.23,55,55,0,0,0,.44-8.33v-27.1h9.89v25.73q0,8.83-.8,12.47a13.71,13.71,0,0,1-3,6.15,14.89,14.89,0,0,1-5.76,4,25.13,25.13,0,0,1-9.43,1.49q-7,0-10.65-1.62a15.25,15.25,0,0,1-5.73-4.22,13.41,13.41,0,0,1-2.78-5.43,60.06,60.06,0,0,1-1-12.43Z"/><path class="cls-5" d="M570.08,284.13v-49H590.9q7.86,0,11.42,1.32a11.28,11.28,0,0,1,5.7,4.69,14.18,14.18,0,0,1,2.14,7.72,13.08,13.08,0,0,1-3.25,9.11q-3.24,3.6-9.69,4.53a23.38,23.38,0,0,1,5.3,4.11,56.5,56.5,0,0,1,5.63,8l6,9.56H602.3l-7.15-10.66a69.63,69.63,0,0,0-5.22-7.21,7.63,7.63,0,0,0-3-2,16.59,16.59,0,0,0-5-.55h-2v20.46ZM580,255.85h7.32q7.13,0,8.89-.6a5.35,5.35,0,0,0,2.78-2.07,6.38,6.38,0,0,0,1-3.68,5.9,5.9,0,0,0-1.32-4,6.08,6.08,0,0,0-3.73-1.92q-1.2-.17-7.22-.16H580Z"/><path class="cls-5" d="M619.18,284.13v-49h9.9v49Z"/><path class="cls-5" d="M649.53,284.13V243.42H635v-8.29h39v8.29H659.43v40.71Z"/><path class="cls-5" d="M693.19,284.13V263.51l-18-28.38h11.6l11.53,19.38,11.3-19.38h11.4l-18,28.44v20.56Z"/></svg>