<svg id="Layer_1" data-name="Layer 1" xmlns="http://www.w3.org/2000/svg" viewBox="0 0 1080 1080"><defs><style>.cls-1,.cls-2{fill:none;}.cls-2{stroke:#231f20;stroke-miterlimit:10;stroke-width:0.5px;}.cls-3{fill:#fdfefe;}.cls-4{fill:#fff;}.cls-5{fill:#231f20;}</style></defs><title>PLATFORM ASSET</title><rect class="cls-1" x="6.16" width="1080" height="1080"/><rect x="283.03" y="80.19" width="526.26" height="212.63"/><rect x="283.03" y="787.18" width="526.26" height="212.63"/><polygon class="cls-2" points="809.29 787 283.03 787.18 283.03 292.82 809.29 292.82 809.29 787"/><path class="cls-3" d="M360,876.59V826.65h16.18q9.21,0,12,.75a13.07,13.07,0,0,1,7.19,4.89,15.5,15.5,0,0,1,2.9,9.72,16.35,16.35,0,0,1-1.67,7.74,13.67,13.67,0,0,1-4.24,4.92,14.79,14.79,0,0,1-5.23,2.37,58.3,58.3,0,0,1-10.46.71h-6.57v18.84Zm10.09-41.49v14.17h5.51c4,0,6.63-.26,8-.78a6.57,6.57,0,0,0,4.29-6.34,6.49,6.49,0,0,0-1.6-4.5,7,7,0,0,0-4.06-2.21,48,48,0,0,0-7.25-.34Z"/><path class="cls-3" d="M406.8,876.59V827.06h10.08v41.12H442v8.41Z"/><path class="cls-3" d="M494.18,876.59h-11l-4.36-11.34h-20l-4.12,11.34H444.07l19.45-49.94h10.66Zm-18.57-19.76-6.88-18.53L462,856.83Z"/><path class="cls-3" d="M505.59,876.59V835.1H490.77v-8.45h39.69v8.45H515.67v41.49Z"/><path class="cls-3" d="M537,876.59V826.65h34.24v8.45H547.11v11.82H568v8.45H547.11v21.22Z"/><path class="cls-3" d="M577.53,851.93a31.6,31.6,0,0,1,2.29-12.81,23.33,23.33,0,0,1,4.65-6.85,19.45,19.45,0,0,1,6.45-4.5,27.55,27.55,0,0,1,10.77-2q11,0,17.66,6.85t6.63,19q0,12.09-6.58,18.92t-17.58,6.83q-11.13,0-17.71-6.79T577.53,851.93Zm10.39-.34q0,8.48,3.92,12.86a12.79,12.79,0,0,0,9.95,4.37,12.61,12.61,0,0,0,9.89-4.34q3.87-4.35,3.87-13t-3.76-12.81a14,14,0,0,0-20,.05Q587.93,843,587.92,851.59Z"/><path class="cls-3" d="M633.88,876.59V826.65H655.1q8,0,11.63,1.35a11.43,11.43,0,0,1,5.81,4.78,14.35,14.35,0,0,1,2.18,7.87,13.33,13.33,0,0,1-3.3,9.28q-3.3,3.68-9.88,4.62a23.54,23.54,0,0,1,5.4,4.19,56.66,56.66,0,0,1,5.74,8.11l6.1,9.74H666.72l-7.29-10.87a69.7,69.7,0,0,0-5.32-7.34,7.76,7.76,0,0,0-3-2.08,16.78,16.78,0,0,0-5.07-.56h-2v20.85ZM644,847.77h7.46q7.26,0,9.06-.61a5.41,5.41,0,0,0,2.83-2.11,6.52,6.52,0,0,0,1-3.75,6,6,0,0,0-1.34-4.07,6.16,6.16,0,0,0-3.8-2q-1.23-.16-7.36-.17H644Z"/><path class="cls-3" d="M684.09,876.59V826.65h15.09l9.06,34.07,9-34.07h15.13v49.94H723V837.28l-9.91,39.31h-9.71l-9.88-39.31v39.31Z"/><path class="cls-3" d="M480.69,960.31h-11L465.36,949h-20l-4.12,11.34H430.58L450,910.37h10.66Zm-18.57-19.76L455.24,922l-6.75,18.53Z"/><path class="cls-3" d="M483.48,944.06l9.81-.95q.88,4.93,3.59,7.25a10.86,10.86,0,0,0,7.31,2.32q4.88,0,7.34-2.06A6.13,6.13,0,0,0,514,945.8a4.53,4.53,0,0,0-1-3,8.25,8.25,0,0,0-3.62-2.16q-1.79-.61-8.08-2.18-8.1-2-11.38-4.94a13.13,13.13,0,0,1-2.43-17.19,13.58,13.58,0,0,1,6.23-5.06,25.17,25.17,0,0,1,9.83-1.73q9.4,0,14.15,4.12a14.52,14.52,0,0,1,5,11l-10.08.45a8.59,8.59,0,0,0-2.77-5.54c-1.42-1.12-3.55-1.69-6.39-1.69a11.53,11.53,0,0,0-6.88,1.81,3.62,3.62,0,0,0-1.6,3.1,3.82,3.82,0,0,0,1.49,3c1.28,1.07,4.36,2.18,9.27,3.34a49.29,49.29,0,0,1,10.88,3.59,14,14,0,0,1,5.52,5.08,15.68,15.68,0,0,1-.39,16,14.27,14.27,0,0,1-6.74,5.57,28.21,28.21,0,0,1-10.87,1.82q-9.48,0-14.55-4.37T483.48,944.06Z"/><path class="cls-3" d="M530,944.06l9.81-.95q.88,4.93,3.6,7.25a10.82,10.82,0,0,0,7.3,2.32q4.88,0,7.35-2.06a6.16,6.16,0,0,0,2.47-4.82,4.58,4.58,0,0,0-1-3,8.35,8.35,0,0,0-3.63-2.16q-1.77-.61-8.07-2.18-8.12-2-11.38-4.94A13.12,13.12,0,0,1,534,916.31a13.56,13.56,0,0,1,6.24-5.06,25.08,25.08,0,0,1,9.82-1.73q9.4,0,14.16,4.12a14.55,14.55,0,0,1,5,11l-10.09.45q-.65-3.86-2.77-5.54c-1.42-1.12-3.55-1.69-6.39-1.69a11.55,11.55,0,0,0-6.88,1.81,3.62,3.62,0,0,0-1.6,3.1,3.83,3.83,0,0,0,1.5,3q1.9,1.61,9.26,3.34a49.41,49.41,0,0,1,10.89,3.59,14,14,0,0,1,5.52,5.08,14.91,14.91,0,0,1,2,8,14.72,14.72,0,0,1-2.39,8,14.23,14.23,0,0,1-6.74,5.57,28.21,28.21,0,0,1-10.87,1.82q-9.47,0-14.54-4.37T530,944.06Z"/><path class="cls-3" d="M579.1,960.31V910.37h37v8.45h-27v11.07h25.08v8.41H589.18v13.59h27.9v8.42Z"/><path class="cls-3" d="M636.88,960.31V918.82H622.06v-8.45h39.68v8.45H647v41.49Z"/><path class="cls-4" d="M300.48,195.61l10.27-1c.61,3.45,1.87,6,3.76,7.59a11.32,11.32,0,0,0,7.64,2.43q5.1,0,7.68-2.16a6.39,6.39,0,0,0,2.59-5,4.74,4.74,0,0,0-1.09-3.16,8.77,8.77,0,0,0-3.8-2.26c-1.23-.43-4-1.19-8.44-2.28q-8.49-2.1-11.91-5.17a13.58,13.58,0,0,1-4.81-10.51,13.42,13.42,0,0,1,2.26-7.47,14.16,14.16,0,0,1,6.53-5.29,25.93,25.93,0,0,1,10.28-1.82q9.84,0,14.81,4.31a15.25,15.25,0,0,1,5.22,11.51l-10.55.47q-.68-4-2.91-5.8t-6.68-1.76a12.07,12.07,0,0,0-7.2,1.89,3.8,3.8,0,0,0-1.67,3.24A4,4,0,0,0,314,176.5q2,1.68,9.7,3.5a50.89,50.89,0,0,1,11.39,3.76,14.59,14.59,0,0,1,5.77,5.31,15.54,15.54,0,0,1,2.09,8.32,15.31,15.31,0,0,1-2.5,8.41,14.89,14.89,0,0,1-7.05,5.83,29.67,29.67,0,0,1-11.37,1.91q-9.92,0-15.23-4.58T300.48,195.61Z"/><path class="cls-4" d="M351.84,212.61V160.36h16.93q9.63,0,12.55.78a13.7,13.7,0,0,1,7.52,5.12,16.21,16.21,0,0,1,3,10.17,17.14,17.14,0,0,1-1.74,8.1,14.5,14.5,0,0,1-4.44,5.15,15.4,15.4,0,0,1-5.47,2.47,60.18,60.18,0,0,1-11,.75h-6.88v19.71Zm10.55-43.41V184h5.78c4.16,0,6.94-.28,8.34-.82a6.85,6.85,0,0,0,4.49-6.63,6.8,6.8,0,0,0-1.67-4.71,7.37,7.37,0,0,0-4.25-2.32,52.12,52.12,0,0,0-7.59-.35Z"/><path class="cls-4" d="M442.24,212.61H430.76l-4.56-11.87H405.31L401,212.61H389.81l20.35-52.25h11.15Zm-19.43-20.67-7.2-19.39-7.06,19.39Z"/><path class="cls-4" d="M481.27,193.4l10.23,3.24q-2.36,8.56-7.83,12.71t-13.88,4.15a22.48,22.48,0,0,1-17.11-7.11Q446,199.28,446,187q0-13,6.74-20.26t17.71-7.22q9.58,0,15.58,5.66a20.66,20.66,0,0,1,5.35,9.63l-10.45,2.49a10.8,10.8,0,0,0-11-8.76,11.85,11.85,0,0,0-9.43,4.17q-3.62,4.17-3.62,13.5,0,9.92,3.57,14.12a11.57,11.57,0,0,0,9.26,4.21,10.58,10.58,0,0,0,7.24-2.68Q480,199.14,481.27,193.4Z"/><path class="cls-4" d="M500.55,212.61V160.36H539.3v8.84H511.1v11.58h26.24v8.81H511.1v14.22h29.2v8.8Z"/><path class="cls-4" d="M549.24,212.61V160.36h16.93q9.63,0,12.55.78a13.7,13.7,0,0,1,7.52,5.12,16.21,16.21,0,0,1,3,10.17,17.14,17.14,0,0,1-1.74,8.1,14.5,14.5,0,0,1-4.44,5.15,15.4,15.4,0,0,1-5.47,2.47,60.18,60.18,0,0,1-11,.75h-6.88v19.71Zm10.55-43.41V184h5.78c4.16,0,6.94-.28,8.34-.82a6.85,6.85,0,0,0,4.49-6.63,6.76,6.76,0,0,0-1.68-4.71,7.31,7.31,0,0,0-4.24-2.32,52.12,52.12,0,0,0-7.59-.35Z"/><path class="cls-4" d="M595.79,186.81a33.31,33.31,0,0,1,2.39-13.41,24.49,24.49,0,0,1,4.87-7.16,20.31,20.31,0,0,1,6.75-4.71,28.86,28.86,0,0,1,11.27-2.06q11.55,0,18.48,7.16t6.93,19.93q0,12.65-6.88,19.8t-18.39,7.14q-11.65,0-18.54-7.11T595.79,186.81Zm10.88-.36q0,8.88,4.09,13.46a13.39,13.39,0,0,0,10.41,4.58,13.25,13.25,0,0,0,10.36-4.55q4-4.55,4-13.63t-3.93-13.4a14.6,14.6,0,0,0-21,.05Q606.67,177.43,606.67,186.45Z"/><path class="cls-4" d="M654.75,212.61V160.36H677q8.37,0,12.17,1.41a12,12,0,0,1,6.08,5,15.08,15.08,0,0,1,2.28,8.24,13.91,13.91,0,0,1-3.46,9.71q-3.46,3.84-10.34,4.83a24.31,24.31,0,0,1,5.65,4.39,59.2,59.2,0,0,1,6,8.48l6.38,10.19H689.11l-7.63-11.37a74.27,74.27,0,0,0-5.56-7.68,8,8,0,0,0-3.17-2.17,17.47,17.47,0,0,0-5.31-.59H665.3v21.81Zm10.55-30.15h7.81c5.06,0,8.22-.22,9.48-.64a5.75,5.75,0,0,0,3-2.21,6.85,6.85,0,0,0,1.07-3.92,6.26,6.26,0,0,0-1.41-4.26,6.41,6.41,0,0,0-4-2.05q-1.28-.18-7.7-.18H665.3Z"/><path class="cls-4" d="M719.2,212.61V169.2H703.69v-8.84h41.53v8.84H729.75v43.41Z"/><path class="cls-4" d="M749.35,195.61l10.27-1c.61,3.45,1.87,6,3.76,7.59a11.35,11.35,0,0,0,7.64,2.43q5.1,0,7.69-2.16a6.41,6.41,0,0,0,2.58-5,4.74,4.74,0,0,0-1.09-3.16,8.72,8.72,0,0,0-3.79-2.26q-1.86-.64-8.45-2.28-8.49-2.1-11.91-5.17a13.72,13.72,0,0,1-2.55-18,14.16,14.16,0,0,1,6.53-5.29,26,26,0,0,1,10.28-1.82q9.84,0,14.81,4.31a15.18,15.18,0,0,1,5.22,11.51l-10.55.47q-.67-4-2.9-5.8t-6.69-1.76a12.07,12.07,0,0,0-7.2,1.89,3.82,3.82,0,0,0-1.67,3.24,4,4,0,0,0,1.57,3.17q2,1.68,9.69,3.5A50.89,50.89,0,0,1,784,183.76a14.68,14.68,0,0,1,5.78,5.31,15.63,15.63,0,0,1,2.08,8.32,15.38,15.38,0,0,1-2.49,8.41,15,15,0,0,1-7.06,5.83,29.6,29.6,0,0,1-11.37,1.91q-9.92,0-15.22-4.58T749.35,195.61Z"/><path class="cls-5" d="M289.91,591.07l57.56-5.6q5.2,29,21.09,42.58t42.88,13.59q28.57,0,43.07-12.09T469,601.26a26.72,26.72,0,0,0-6.09-17.69q-6.11-7.29-21.29-12.69-10.39-3.6-47.37-12.79-47.58-11.79-66.77-29-27-24.19-27-59a75.38,75.38,0,0,1,12.69-41.88q12.69-19.49,36.58-29.68t57.67-10.19q55.17,0,83.05,24.18t29.28,64.57l-59.16,2.59q-3.8-22.58-16.29-32.48t-37.48-9.89q-25.79,0-40.38,10.59a21.36,21.36,0,0,0-9.39,18.19q0,10.39,8.79,17.79,11.19,9.4,54.37,19.59t63.87,21.09a82.34,82.34,0,0,1,32.38,29.78q11.68,18.89,11.69,46.68a86.36,86.36,0,0,1-14,47.17q-14,22-39.58,32.68t-63.76,10.69q-55.57,0-85.36-25.68T289.91,591.07Z"/><path class="cls-5" d="M577.94,686.42v-293h94.95q54,0,70.36,4.4,25.18,6.6,42.17,28.68t17,57.07q0,27-9.79,45.38t-24.89,28.88q-15.09,10.5-30.68,13.89-21.18,4.2-61.36,4.2H637.11V686.42ZM637.11,443v83.16h32.38q35,0,46.77-4.6a38.81,38.81,0,0,0,18.49-14.39,39.34,39.34,0,0,0,6.7-22.79q0-16-9.4-26.38a41,41,0,0,0-23.78-13q-10.6-2-42.58-2Z"/></svg>