<svg id="Layer_1" data-name="Layer 1" xmlns="http://www.w3.org/2000/svg" viewBox="0 0 1080 1080"><defs><style>.cls-1,.cls-2{fill:none;}.cls-2{stroke:#231f20;stroke-miterlimit:10;stroke-width:0.5px;}.cls-3{fill:#fdfefe;}.cls-4{fill:#231f20;}.cls-5{fill:#fff;}</style></defs><title>PLATFORM ASSET</title><rect class="cls-1" x="5.12" width="1080" height="1080"/><rect x="281.99" y="80.19" width="526.26" height="212.63"/><rect x="281.99" y="787.18" width="526.26" height="212.63"/><polygon class="cls-2" points="808.25 787 281.99 787.18 281.99 292.82 808.25 292.82 808.25 787"/><path class="cls-3" d="M359,876.59V826.65h16.18q9.21,0,12,.75a13.07,13.07,0,0,1,7.19,4.89,15.5,15.5,0,0,1,2.9,9.72,16.35,16.35,0,0,1-1.67,7.74,13.67,13.67,0,0,1-4.24,4.92,14.79,14.79,0,0,1-5.23,2.37,58.3,58.3,0,0,1-10.46.71H369v18.84ZM369,835.1v14.17h5.51c4,0,6.63-.26,8-.78a6.57,6.57,0,0,0,4.29-6.34,6.49,6.49,0,0,0-1.6-4.5,7,7,0,0,0-4.06-2.21,48,48,0,0,0-7.25-.34Z"/><path class="cls-3" d="M405.76,876.59V827.06h10.08v41.12h25.07v8.41Z"/><path class="cls-3" d="M493.14,876.59h-11l-4.36-11.34h-20l-4.12,11.34H443l19.45-49.94h10.66Zm-18.57-19.76-6.88-18.53-6.75,18.53Z"/><path class="cls-3" d="M504.55,876.59V835.1H489.73v-8.45h39.69v8.45H514.63v41.49Z"/><path class="cls-3" d="M536,876.59V826.65h34.24v8.45H546.07v11.82h20.85v8.45H546.07v21.22Z"/><path class="cls-3" d="M576.49,851.93a31.6,31.6,0,0,1,2.29-12.81,23.33,23.33,0,0,1,4.65-6.85,19.45,19.45,0,0,1,6.45-4.5,27.55,27.55,0,0,1,10.77-2q11,0,17.66,6.85t6.63,19q0,12.09-6.58,18.92t-17.58,6.83q-11.13,0-17.71-6.79T576.49,851.93Zm10.39-.34q0,8.48,3.92,12.86a12.79,12.79,0,0,0,10,4.37,12.61,12.61,0,0,0,9.89-4.34q3.87-4.35,3.87-13t-3.76-12.81a14,14,0,0,0-20,.05Q586.89,843,586.88,851.59Z"/><path class="cls-3" d="M632.84,876.59V826.65h21.22q8,0,11.63,1.35a11.43,11.43,0,0,1,5.81,4.78,14.35,14.35,0,0,1,2.18,7.87,13.33,13.33,0,0,1-3.3,9.28q-3.3,3.68-9.88,4.62a23.54,23.54,0,0,1,5.4,4.19,56.66,56.66,0,0,1,5.74,8.11l6.1,9.74H665.68l-7.29-10.87a69.7,69.7,0,0,0-5.32-7.34,7.76,7.76,0,0,0-3-2.08,16.78,16.78,0,0,0-5.07-.56h-2.05v20.85Zm10.08-28.82h7.46q7.26,0,9.06-.61a5.41,5.41,0,0,0,2.83-2.11,6.52,6.52,0,0,0,1-3.75,6,6,0,0,0-1.34-4.07,6.16,6.16,0,0,0-3.8-2q-1.23-.16-7.36-.17h-7.87Z"/><path class="cls-3" d="M683.05,876.59V826.65h15.09l9.06,34.07,9-34.07h15.13v49.94h-9.37V837.28L712,876.59H702.3l-9.88-39.31v39.31Z"/><path class="cls-3" d="M479.65,960.31h-11L464.32,949h-20l-4.12,11.34H429.54L449,910.37h10.66Zm-18.57-19.76L454.2,922l-6.75,18.53Z"/><path class="cls-3" d="M482.44,944.06l9.81-.95q.88,4.93,3.59,7.25a10.86,10.86,0,0,0,7.31,2.32q4.88,0,7.34-2.06A6.13,6.13,0,0,0,513,945.8a4.53,4.53,0,0,0-1-3,8.25,8.25,0,0,0-3.62-2.16q-1.79-.61-8.08-2.18-8.1-2-11.38-4.94a13.13,13.13,0,0,1-2.43-17.19,13.58,13.58,0,0,1,6.23-5.06,25.17,25.17,0,0,1,9.83-1.73q9.4,0,14.15,4.12a14.52,14.52,0,0,1,5,11l-10.08.45a8.59,8.59,0,0,0-2.77-5.54c-1.42-1.12-3.55-1.69-6.39-1.69a11.53,11.53,0,0,0-6.88,1.81,3.62,3.62,0,0,0-1.6,3.1,3.82,3.82,0,0,0,1.49,3c1.28,1.07,4.36,2.18,9.27,3.34a49.29,49.29,0,0,1,10.88,3.59,14,14,0,0,1,5.52,5.08,15.68,15.68,0,0,1-.39,16,14.27,14.27,0,0,1-6.74,5.57,28.21,28.21,0,0,1-10.87,1.82q-9.48,0-14.55-4.37T482.44,944.06Z"/><path class="cls-3" d="M529,944.06l9.81-.95q.88,4.93,3.6,7.25a10.82,10.82,0,0,0,7.3,2.32q4.88,0,7.35-2.06a6.16,6.16,0,0,0,2.47-4.82,4.58,4.58,0,0,0-1-3,8.35,8.35,0,0,0-3.63-2.16q-1.77-.61-8.07-2.18-8.12-2-11.38-4.94a13.12,13.12,0,0,1-2.44-17.19,13.56,13.56,0,0,1,6.24-5.06,25.08,25.08,0,0,1,9.82-1.73q9.4,0,14.16,4.12a14.55,14.55,0,0,1,5,11l-10.09.45q-.64-3.86-2.77-5.54c-1.42-1.12-3.55-1.69-6.39-1.69a11.55,11.55,0,0,0-6.88,1.81,3.62,3.62,0,0,0-1.6,3.1,3.83,3.83,0,0,0,1.5,3q1.91,1.61,9.26,3.34a49.41,49.41,0,0,1,10.89,3.59,14,14,0,0,1,5.52,5.08,14.91,14.91,0,0,1,2,8,14.72,14.72,0,0,1-2.39,8,14.23,14.23,0,0,1-6.74,5.57,28.21,28.21,0,0,1-10.87,1.82q-9.47,0-14.54-4.37T529,944.06Z"/><path class="cls-3" d="M578.06,960.31V910.37h37v8.45h-27v11.07h25.08v8.41H588.14v13.59H616v8.42Z"/><path class="cls-3" d="M635.84,960.31V918.82H621v-8.45H660.7v8.45H645.92v41.49Z"/><path class="cls-4" d="M287.76,574.52l39.33-3.82q3.56,19.8,14.41,29.09t29.29,9.28q19.53,0,29.43-8.26t9.91-19.32A18.22,18.22,0,0,0,406,569.4q-4.17-5-14.54-8.67-7.11-2.46-32.37-8.74-32.51-8.06-45.62-19.8Q295,515.66,295,491.9a51.38,51.38,0,0,1,8.68-28.61q8.67-13.32,25-20.28t39.4-7q37.69,0,56.75,16.53t20,44.11l-40.42,1.77Q401.8,483,393.26,476.26t-25.61-6.76q-17.61,0-27.58,7.24a14.56,14.56,0,0,0-6.42,12.43q0,7.09,6,12.15,7.65,6.42,37.15,13.38t43.64,14.41a56.36,56.36,0,0,1,22.12,20.35q8,12.91,8,31.89A59,59,0,0,1,441,613.58q-9.56,15-27,22.33t-43.57,7.31q-38,0-58.31-17.55T287.76,574.52Z"/><path class="cls-4" d="M464,574.89l39.33-3.82q3.56,19.8,14.41,29.09t29.29,9.29q19.53,0,29.43-8.27t9.91-19.32a18.24,18.24,0,0,0-4.17-12.09q-4.17-5-14.54-8.67-7.11-2.46-32.37-8.74-32.51-8.05-45.62-19.8Q471.27,516,471.27,492.27a51.45,51.45,0,0,1,8.67-28.61q8.67-13.32,25-20.28t39.4-7q37.7,0,56.75,16.53t20,44.11l-40.42,1.77q-2.6-15.42-11.13-22.19t-25.61-6.76q-17.61,0-27.58,7.24a14.59,14.59,0,0,0-6.42,12.43q0,7.09,6,12.15,7.64,6.42,37.14,13.39t43.64,14.4a56.29,56.29,0,0,1,22.12,20.35q8,12.92,8,31.89A59,59,0,0,1,617.26,614q-9.56,15-27,22.33t-43.57,7.31q-38,0-58.31-17.55T464,574.89Z"/><path class="cls-4" d="M639.69,575.27,679,571.44q3.56,19.8,14.41,29.09t29.29,9.29q19.53,0,29.44-8.27t9.9-19.32a18.24,18.24,0,0,0-4.17-12.09q-4.17-5-14.54-8.67Q736.24,559,711,552.73q-32.51-8.06-45.61-19.8-18.45-16.53-18.44-40.29A51.45,51.45,0,0,1,655.6,464q8.67-13.32,25-20.28t39.4-7q37.69,0,56.75,16.53t20,44.11l-40.43,1.78q-2.6-15.43-11.13-22.2t-25.61-6.76q-17.61,0-27.58,7.24a14.59,14.59,0,0,0-6.42,12.43q0,7.09,6,12.15,7.63,6.42,37.14,13.39t43.64,14.41a56.2,56.2,0,0,1,22.12,20.34q8,12.91,8,31.89a59,59,0,0,1-9.56,32.23q-9.55,15-27,22.33T722.31,644q-38,0-58.31-17.55T639.69,575.27Z"/><path class="cls-5" d="M432.93,125l9.34-.91q.84,4.71,3.42,6.91a10.36,10.36,0,0,0,7,2.21c3.09,0,5.42-.66,7-2a5.84,5.84,0,0,0,2.35-4.59,4.3,4.3,0,0,0-1-2.87,8,8,0,0,0-3.45-2.07c-1.13-.38-3.69-1.08-7.69-2.07q-7.73-1.92-10.83-4.71a12.35,12.35,0,0,1-4.38-9.56,12.17,12.17,0,0,1,2.06-6.8,12.86,12.86,0,0,1,5.93-4.82A23.89,23.89,0,0,1,452,92.06q9,0,13.48,3.92a13.84,13.84,0,0,1,4.75,10.48l-9.6.42a8.16,8.16,0,0,0-2.64-5.27q-2-1.6-6.08-1.6a11,11,0,0,0-6.56,1.71,3.46,3.46,0,0,0-1.52,3,3.64,3.64,0,0,0,1.42,2.88c1.21,1,4.16,2.08,8.83,3.18a47.42,47.42,0,0,1,10.36,3.42A13.37,13.37,0,0,1,469.7,119a14.17,14.17,0,0,1,1.9,7.57,14,14,0,0,1-2.28,7.66,13.52,13.52,0,0,1-6.42,5.3,26.89,26.89,0,0,1-10.35,1.74q-9,0-13.85-4.17T432.93,125Z"/><path class="cls-5" d="M479.54,140.43V92.87h14.37l8.63,32.44,8.53-32.44h14.41v47.56h-8.92V103l-9.44,37.44h-9.25L488.46,103v37.44Z"/><path class="cls-5" d="M577.9,140.43H567.45l-4.15-10.81h-19l-3.92,10.81H530.18l18.53-47.56h10.15Zm-17.68-18.82L553.67,104l-6.42,17.65Z"/><path class="cls-5" d="M583.25,140.43V93.26h9.61v39.15h23.87v8Z"/><path class="cls-5" d="M623.83,140.43V93.26h9.61v39.15h23.87v8Z"/><path class="cls-5" d="M369.59,194.79l9.34-.91q.84,4.71,3.42,6.91a10.36,10.36,0,0,0,7,2.21q4.63,0,7-2a5.84,5.84,0,0,0,2.35-4.59,4.34,4.34,0,0,0-1-2.87,8,8,0,0,0-3.46-2.06c-1.12-.39-3.69-1.09-7.69-2.08q-7.72-1.92-10.83-4.7a12.38,12.38,0,0,1-4.38-9.57,12.17,12.17,0,0,1,2.06-6.8,12.92,12.92,0,0,1,5.93-4.82,23.89,23.89,0,0,1,9.36-1.65q9,0,13.48,3.92a13.84,13.84,0,0,1,4.75,10.48l-9.6.42a8.16,8.16,0,0,0-2.64-5.27q-2-1.6-6.08-1.6a11,11,0,0,0-6.56,1.71,3.49,3.49,0,0,0-1.52,3,3.62,3.62,0,0,0,1.43,2.88q1.81,1.53,8.82,3.18A46.62,46.62,0,0,1,401.1,184a13.35,13.35,0,0,1,5.26,4.83,15,15,0,0,1-.37,15.23,13.59,13.59,0,0,1-6.43,5.3,26.86,26.86,0,0,1-10.35,1.74q-9,0-13.85-4.17T369.59,194.79Z"/><path class="cls-5" d="M459.22,210.27H448.77l-4.15-10.81h-19l-3.92,10.81H411.5L430,162.71h10.15Zm-17.68-18.82L435,173.8l-6.43,17.65Z"/><path class="cls-5" d="M470.09,210.27V170.75H456v-8h37.79v8H479.69v39.52Z"/><path class="cls-5" d="M500,210.27V162.71h35.27v8H509.57V181.3h23.87v8H509.57v12.94h26.56v8Z"/><path class="cls-5" d="M544.54,210.27V163.1h9.6v39.15H578v8Z"/><path class="cls-5" d="M585.12,210.27V163.1h9.6v39.15H618.6v8Z"/><path class="cls-5" d="M625.15,210.27V162.71h9.6v47.56Z"/><path class="cls-5" d="M654.61,210.27V170.75H640.49v-8h37.8v8H664.21v39.52Z"/><path class="cls-5" d="M684.48,210.27V162.71h35.26v8H694.08V181.3H718v8H694.08v12.94h26.57v8Z"/><path class="cls-5" d="M389.2,264.63l9.34-.91q.84,4.71,3.42,6.91a10.36,10.36,0,0,0,7,2.21q4.63,0,7-2a5.84,5.84,0,0,0,2.35-4.59,4.36,4.36,0,0,0-1-2.87,7.91,7.91,0,0,0-3.46-2.06c-1.12-.39-3.69-1.09-7.69-2.08q-7.72-1.92-10.83-4.7a12.38,12.38,0,0,1-4.38-9.57,12.17,12.17,0,0,1,2.06-6.8,12.92,12.92,0,0,1,5.93-4.82,23.89,23.89,0,0,1,9.36-1.65q9,0,13.48,3.92a13.84,13.84,0,0,1,4.75,10.48l-9.6.42a8.16,8.16,0,0,0-2.64-5.27q-2-1.6-6.08-1.6a11,11,0,0,0-6.56,1.72,3.46,3.46,0,0,0-1.52,3,3.62,3.62,0,0,0,1.43,2.88q1.82,1.53,8.82,3.18a46.62,46.62,0,0,1,10.36,3.43,13.42,13.42,0,0,1,5.26,4.83,15,15,0,0,1-.37,15.23,13.59,13.59,0,0,1-6.43,5.3A26.84,26.84,0,0,1,408.83,281q-9,0-13.86-4.17T389.2,264.63Z"/><path class="cls-5" d="M448.43,280.11v-20L431,232.55h11.26l11.19,18.81,11-18.81h11.06L458,260.16v19.95Z"/><path class="cls-5" d="M477.82,264.63l9.35-.91q.84,4.71,3.42,6.91a10.36,10.36,0,0,0,7,2.21q4.63,0,7-2a5.84,5.84,0,0,0,2.35-4.59,4.32,4.32,0,0,0-1-2.87,7.87,7.87,0,0,0-3.45-2.06c-1.13-.39-3.69-1.09-7.69-2.08q-7.72-1.92-10.84-4.7a12.38,12.38,0,0,1-4.38-9.57,12.25,12.25,0,0,1,2.06-6.8,13,13,0,0,1,5.94-4.82,23.82,23.82,0,0,1,9.36-1.65q9,0,13.48,3.92a13.88,13.88,0,0,1,4.75,10.48l-9.6.42a8.12,8.12,0,0,0-2.65-5.27q-2-1.6-6.08-1.6a10.94,10.94,0,0,0-6.55,1.72,3.44,3.44,0,0,0-1.53,3,3.65,3.65,0,0,0,1.43,2.88q1.82,1.53,8.82,3.18a46.74,46.74,0,0,1,10.37,3.43,13.33,13.33,0,0,1,5.25,4.83,15,15,0,0,1-.37,15.23,13.52,13.52,0,0,1-6.42,5.3A26.89,26.89,0,0,1,497.45,281q-9,0-13.85-4.17T477.82,264.63Z"/><path class="cls-5" d="M535.28,280.11V240.59H521.16v-8H559v8H544.88v39.52Z"/><path class="cls-5" d="M565.15,280.11V232.55h35.26v8H574.75v10.55h23.88v8H574.75v12.94h26.57v8Z"/><path class="cls-5" d="M609.33,280.11V232.55h14.38L632.33,265l8.54-32.44h14.4v47.56h-8.92V242.67l-9.44,37.44h-9.25l-9.4-37.44v37.44Z"/><path class="cls-5" d="M662.37,264.63l9.35-.91q.84,4.71,3.42,6.91a10.36,10.36,0,0,0,7,2.21q4.64,0,7-2a5.84,5.84,0,0,0,2.35-4.59,4.32,4.32,0,0,0-1-2.87,7.85,7.85,0,0,0-3.46-2.06c-1.12-.39-3.68-1.09-7.68-2.08q-7.72-1.92-10.84-4.7a12.38,12.38,0,0,1-4.38-9.57,12.25,12.25,0,0,1,2.06-6.8,13,13,0,0,1,5.94-4.82,23.82,23.82,0,0,1,9.36-1.65q9,0,13.48,3.92a13.88,13.88,0,0,1,4.75,10.48l-9.6.42a8.17,8.17,0,0,0-2.65-5.27q-2-1.6-6.08-1.6a10.94,10.94,0,0,0-6.55,1.72,3.44,3.44,0,0,0-1.53,3,3.65,3.65,0,0,0,1.43,2.88q1.81,1.53,8.82,3.18a46.74,46.74,0,0,1,10.37,3.43,13.33,13.33,0,0,1,5.25,4.83,15,15,0,0,1-.37,15.23,13.52,13.52,0,0,1-6.42,5.3A26.89,26.89,0,0,1,682,281q-9,0-13.85-4.17T662.37,264.63Z"/></svg>