<svg id="Layer_1" data-name="Layer 1" xmlns="http://www.w3.org/2000/svg" viewBox="0 0 1080 1080"><defs><style>.cls-1,.cls-2{fill:none;}.cls-2{stroke:#231f20;stroke-miterlimit:10;stroke-width:0.5px;}.cls-3{fill:#fdfefe;}.cls-4{fill:#231f20;}.cls-5{fill:#fff;}</style></defs><title>PLATFORM ASSET</title><rect class="cls-1" x="5.12" width="1080" height="1080"/><rect x="281.99" y="80.19" width="526.26" height="212.63"/><rect x="281.99" y="787.18" width="526.26" height="212.63"/><polygon class="cls-2" points="808.25 787 281.99 787.18 281.99 292.82 808.25 292.82 808.25 787"/><path class="cls-3" d="M359,876.59V826.65h16.18q9.21,0,12,.75a13.07,13.07,0,0,1,7.19,4.89,15.5,15.5,0,0,1,2.9,9.72,16.35,16.35,0,0,1-1.67,7.74,13.67,13.67,0,0,1-4.24,4.92,14.79,14.79,0,0,1-5.23,2.37,58.3,58.3,0,0,1-10.46.71H369v18.84ZM369,835.1v14.17h5.51c4,0,6.63-.26,8-.78a6.57,6.57,0,0,0,4.29-6.34,6.49,6.49,0,0,0-1.6-4.5,7,7,0,0,0-4.06-2.21,48,48,0,0,0-7.25-.34Z"/><path class="cls-3" d="M405.76,876.59V827.06h10.08v41.12h25.07v8.41Z"/><path class="cls-3" d="M493.14,876.59h-11l-4.36-11.34h-20l-4.12,11.34H443l19.45-49.94h10.66Zm-18.57-19.76-6.88-18.53-6.75,18.53Z"/><path class="cls-3" d="M504.55,876.59V835.1H489.73v-8.45h39.69v8.45H514.63v41.49Z"/><path class="cls-3" d="M536,876.59V826.65h34.24v8.45H546.07v11.82h20.85v8.45H546.07v21.22Z"/><path class="cls-3" d="M576.49,851.93a31.6,31.6,0,0,1,2.29-12.81,23.33,23.33,0,0,1,4.65-6.85,19.45,19.45,0,0,1,6.45-4.5,27.55,27.55,0,0,1,10.77-2q11,0,17.66,6.85t6.63,19q0,12.09-6.58,18.92t-17.58,6.83q-11.13,0-17.71-6.79T576.49,851.93Zm10.39-.34q0,8.48,3.92,12.86a12.79,12.79,0,0,0,10,4.37,12.61,12.61,0,0,0,9.89-4.34q3.87-4.35,3.87-13t-3.76-12.81a14,14,0,0,0-20,.05Q586.89,843,586.88,851.59Z"/><path class="cls-3" d="M632.84,876.59V826.65h21.22q8,0,11.63,1.35a11.43,11.43,0,0,1,5.81,4.78,14.35,14.35,0,0,1,2.18,7.87,13.33,13.33,0,0,1-3.3,9.28q-3.3,3.68-9.88,4.62a23.54,23.54,0,0,1,5.4,4.19,56.66,56.66,0,0,1,5.74,8.11l6.1,9.74H665.68l-7.29-10.87a69.7,69.7,0,0,0-5.32-7.34,7.76,7.76,0,0,0-3-2.08,16.78,16.78,0,0,0-5.07-.56h-2.05v20.85Zm10.08-28.82h7.46q7.26,0,9.06-.61a5.41,5.41,0,0,0,2.83-2.11,6.52,6.52,0,0,0,1-3.75,6,6,0,0,0-1.34-4.07,6.16,6.16,0,0,0-3.8-2q-1.23-.16-7.36-.17h-7.87Z"/><path class="cls-3" d="M683.05,876.59V826.65h15.09l9.06,34.07,9-34.07h15.13v49.94h-9.37V837.28L712,876.59H702.3l-9.88-39.31v39.31Z"/><path class="cls-3" d="M479.65,960.31h-11L464.32,949h-20l-4.12,11.34H429.54L449,910.37h10.66Zm-18.57-19.76L454.2,922l-6.75,18.53Z"/><path class="cls-3" d="M482.44,944.06l9.81-.95q.88,4.93,3.59,7.25a10.86,10.86,0,0,0,7.31,2.32q4.88,0,7.34-2.06A6.13,6.13,0,0,0,513,945.8a4.53,4.53,0,0,0-1-3,8.25,8.25,0,0,0-3.62-2.16q-1.79-.61-8.08-2.18-8.1-2-11.38-4.94a13.13,13.13,0,0,1-2.43-17.19,13.58,13.58,0,0,1,6.23-5.06,25.17,25.17,0,0,1,9.83-1.73q9.4,0,14.15,4.12a14.52,14.52,0,0,1,5,11l-10.08.45a8.59,8.59,0,0,0-2.77-5.54c-1.42-1.12-3.55-1.69-6.39-1.69a11.53,11.53,0,0,0-6.88,1.81,3.62,3.62,0,0,0-1.6,3.1,3.82,3.82,0,0,0,1.49,3c1.28,1.07,4.36,2.18,9.27,3.34a49.29,49.29,0,0,1,10.88,3.59,14,14,0,0,1,5.52,5.08,15.68,15.68,0,0,1-.39,16,14.27,14.27,0,0,1-6.74,5.57,28.21,28.21,0,0,1-10.87,1.82q-9.48,0-14.55-4.37T482.44,944.06Z"/><path class="cls-3" d="M529,944.06l9.81-.95q.88,4.93,3.6,7.25a10.82,10.82,0,0,0,7.3,2.32q4.88,0,7.35-2.06a6.16,6.16,0,0,0,2.47-4.82,4.58,4.58,0,0,0-1-3,8.35,8.35,0,0,0-3.63-2.16q-1.77-.61-8.07-2.18-8.12-2-11.38-4.94a13.12,13.12,0,0,1-2.44-17.19,13.56,13.56,0,0,1,6.24-5.06,25.08,25.08,0,0,1,9.82-1.73q9.4,0,14.16,4.12a14.55,14.55,0,0,1,5,11l-10.09.45q-.64-3.86-2.77-5.54c-1.42-1.12-3.55-1.69-6.39-1.69a11.55,11.55,0,0,0-6.88,1.81,3.62,3.62,0,0,0-1.6,3.1,3.83,3.83,0,0,0,1.5,3q1.91,1.61,9.26,3.34a49.41,49.41,0,0,1,10.89,3.59,14,14,0,0,1,5.52,5.08,14.91,14.91,0,0,1,2,8,14.72,14.72,0,0,1-2.39,8,14.23,14.23,0,0,1-6.74,5.57,28.21,28.21,0,0,1-10.87,1.82q-9.47,0-14.54-4.37T529,944.06Z"/><path class="cls-3" d="M578.06,960.31V910.37h37v8.45h-27v11.07h25.08v8.41H588.14v13.59H616v8.42Z"/><path class="cls-3" d="M635.84,960.31V918.82H621v-8.45H660.7v8.45H645.92v41.49Z"/><path class="cls-4" d="M381.62,695.35V437.54H289.55V385.05H536.14v52.49H444.28V695.35Z"/><path class="cls-4" d="M646.18,695V437.14H554.1V384.65H800.69v52.49H708.83V695Z"/><path class="cls-5" d="M323.39,175.45V139.77H310.64V132.5h34.13v7.27H332.06v35.68Z"/><path class="cls-5" d="M350.36,175.45V132.5h31.85v7.27H359v9.52h21.56v7.23H359v11.69h24v7.24Z"/><path class="cls-5" d="M390.61,175.45V132.86h8.67v35.35h21.56v7.24Z"/><path class="cls-5" d="M427,175.45V132.5h31.85v7.27H435.7v9.52h21.55v7.23H435.7v11.69h24v7.24Z"/><path class="cls-5" d="M494.52,159.66l8.4,2.66q-1.94,7-6.43,10.45A20.24,20.24,0,0,1,471,170.34q-5.5-5.85-5.5-16,0-10.73,5.53-16.66t14.56-5.93q7.88,0,12.8,4.66a17,17,0,0,1,4.4,7.91l-8.59,2a8.89,8.89,0,0,0-9.05-7.21,9.78,9.78,0,0,0-7.75,3.43c-2,2.28-3,6-3,11.1q0,8.14,2.93,11.6a9.49,9.49,0,0,0,7.62,3.46,8.65,8.65,0,0,0,5.94-2.2C492.6,165.11,493.79,162.8,494.52,159.66Z"/><path class="cls-5" d="M508.61,154.24a27.22,27.22,0,0,1,2-11,20.27,20.27,0,0,1,4-5.89,16.72,16.72,0,0,1,5.55-3.87,23.61,23.61,0,0,1,9.26-1.7q9.48,0,15.18,5.89t5.7,16.37q0,10.41-5.65,16.28t-15.12,5.87q-9.57,0-15.23-5.84T508.61,154.24Zm8.93-.29q0,7.29,3.37,11.06a11,11,0,0,0,8.55,3.76A10.87,10.87,0,0,0,538,165q3.33-3.74,3.33-11.2t-3.24-11a12,12,0,0,0-17.24,0Q517.54,146.54,517.54,154Z"/><path class="cls-5" d="M556.91,175.45V132.5h13l7.79,29.3,7.7-29.3h13v42.95h-8.06V141.64l-8.52,33.81h-8.35L565,141.64v33.81Z"/><path class="cls-5" d="M606.88,175.45V132.5h13l7.79,29.3,7.71-29.3h13v42.95h-8.05V141.64l-8.53,33.81h-8.34l-8.5-33.81v33.81Z"/><path class="cls-5" d="M695.7,175.45h-9.43l-3.75-9.76H665.35l-3.54,9.76h-9.2l16.73-42.95h9.17Zm-16-17-5.92-15.94L668,158.46Z"/><path class="cls-5" d="M700.39,175.45V132.5h8.44l17.57,28.68V132.5h8.06v42.95h-8.7l-17.31-28v28Z"/><path class="cls-5" d="M743.6,132.5h15.84a31.3,31.3,0,0,1,8.18.82,14.39,14.39,0,0,1,6.47,4,18.68,18.68,0,0,1,4.1,7,31.56,31.56,0,0,1,1.41,10.15,28.22,28.22,0,0,1-1.32,9.14,19,19,0,0,1-4.6,7.58,15.13,15.13,0,0,1-6.09,3.43,26.1,26.1,0,0,1-7.68.91H743.6Zm8.67,7.27v28.44h6.47a23.17,23.17,0,0,0,5.24-.41,8.11,8.11,0,0,0,3.51-1.78,9.15,9.15,0,0,0,2.26-4.15,27.8,27.8,0,0,0,.88-7.86,25.56,25.56,0,0,0-.88-7.65,9.72,9.72,0,0,0-2.46-4.16,8.18,8.18,0,0,0-4-2,39.62,39.62,0,0,0-7.12-.41Z"/><path class="cls-5" d="M334.33,241.24h-9.44l-3.75-9.76H304l-3.55,9.76h-9.19l16.72-43h9.17Zm-16-17-5.92-15.94-5.8,15.94Z"/><path class="cls-5" d="M339,241.24v-43h8.44L365,227V198.29h8.05v43h-8.7l-17.31-28v28Z"/><path class="cls-5" d="M382.22,198.29h15.85a31.21,31.21,0,0,1,8.17.82,14.25,14.25,0,0,1,6.47,4,18.73,18.73,0,0,1,4.11,7,32,32,0,0,1,1.4,10.15,28.18,28.18,0,0,1-1.32,9.14,18.85,18.85,0,0,1-4.59,7.59,15.36,15.36,0,0,1-6.1,3.43,26.37,26.37,0,0,1-7.67.91H382.22Zm8.67,7.27V234h6.47a23.89,23.89,0,0,0,5.25-.41,8,8,0,0,0,3.5-1.79,9.11,9.11,0,0,0,2.27-4.14,28.3,28.3,0,0,0,.88-7.87,25.77,25.77,0,0,0-.88-7.64,9.86,9.86,0,0,0-2.46-4.16,8.22,8.22,0,0,0-4-2,38.82,38.82,0,0,0-7.12-.41Z"/><path class="cls-5" d="M451.91,241.24V205.56H439.17v-7.27h34.12v7.27H460.58v35.68Z"/><path class="cls-5" d="M478.89,241.24v-43h31.84v7.27H487.56v9.52h21.56v7.23H487.56V234h24v7.24Z"/><path class="cls-5" d="M519.14,241.24v-42.6h8.67V234h21.56v7.24Z"/><path class="cls-5" d="M555.55,241.24v-43h31.84v7.27H564.22v9.52h21.56v7.23H564.22V234h24v7.24Z"/><path class="cls-5" d="M595.45,241.24v-43h13l7.79,29.29,7.71-29.29h13v43h-8V207.43l-8.52,33.81H612l-8.5-33.81v33.81Z"/><path class="cls-5" d="M645.54,241.24v-43h31.84v7.27H654.21v9.52h21.56v7.23H654.21V234h24v7.24Z"/><path class="cls-5" d="M695.22,241.24V205.56H682.48v-7.27H716.6v7.27H703.89v35.68Z"/><path class="cls-5" d="M722.23,241.24v-43h18.25c4.58,0,7.92.39,10,1.16a9.85,9.85,0,0,1,5,4.11,12.4,12.4,0,0,1,1.88,6.77,11.48,11.48,0,0,1-2.84,8q-2.85,3.15-8.5,4a20.52,20.52,0,0,1,4.65,3.61,48.49,48.49,0,0,1,4.93,7l5.24,8.38H750.46l-6.26-9.35a61.12,61.12,0,0,0-4.57-6.31,6.62,6.62,0,0,0-2.61-1.79,14.4,14.4,0,0,0-4.37-.48H730.9v17.93Zm8.67-24.79h6.41q6.24,0,7.79-.52a4.74,4.74,0,0,0,2.44-1.82,5.63,5.63,0,0,0,.87-3.22,5.15,5.15,0,0,0-1.15-3.5A5.33,5.33,0,0,0,744,205.7q-1.05-.13-6.33-.14H730.9Z"/><path class="cls-5" d="M774.57,241.24V223.16l-15.73-24.87H769l10.1,17,9.91-17h10l-15.79,24.93v18Z"/></svg>