<svg id="Layer_1" data-name="Layer 1" xmlns="http://www.w3.org/2000/svg" viewBox="0 0 1080 1080"><defs><style>.cls-1,.cls-2{fill:none;}.cls-2{stroke:#231f20;stroke-miterlimit:10;stroke-width:0.5px;}.cls-3{fill:#fdfefe;}.cls-4{fill:#231f20;}.cls-5{fill:#fff;}</style></defs><title>PLATFORM ASSET</title><rect class="cls-1" x="9.2" width="1080" height="1080"/><rect x="286.07" y="80.19" width="526.26" height="212.63"/><rect x="286.07" y="787.18" width="526.26" height="212.63"/><polygon class="cls-2" points="812.33 787 286.07 787.18 286.07 292.82 812.33 292.82 812.33 787"/><path class="cls-3" d="M363,876.59V826.65h16.18q9.21,0,12,.75a13.07,13.07,0,0,1,7.19,4.89,15.5,15.5,0,0,1,2.9,9.72,16.35,16.35,0,0,1-1.67,7.74,13.67,13.67,0,0,1-4.24,4.92,14.79,14.79,0,0,1-5.23,2.37,58.3,58.3,0,0,1-10.46.71h-6.57v18.84Zm10.09-41.49v14.17h5.51c4,0,6.63-.26,8-.78a6.57,6.57,0,0,0,4.29-6.34,6.49,6.49,0,0,0-1.6-4.5,7,7,0,0,0-4.06-2.21,48,48,0,0,0-7.25-.34Z"/><path class="cls-3" d="M409.84,876.59V827.06h10.08v41.12H445v8.41Z"/><path class="cls-3" d="M497.22,876.59h-11l-4.36-11.34h-20l-4.12,11.34H447.11l19.45-49.94h10.66Zm-18.57-19.76-6.88-18.53L465,856.83Z"/><path class="cls-3" d="M508.63,876.59V835.1H493.81v-8.45H533.5v8.45H518.71v41.49Z"/><path class="cls-3" d="M540.07,876.59V826.65h34.24v8.45H550.15v11.82H571v8.45H550.15v21.22Z"/><path class="cls-3" d="M580.57,851.93a31.6,31.6,0,0,1,2.29-12.81,23.33,23.33,0,0,1,4.65-6.85,19.45,19.45,0,0,1,6.45-4.5,27.55,27.55,0,0,1,10.77-2q11,0,17.66,6.85t6.63,19q0,12.09-6.58,18.92t-17.58,6.83q-11.13,0-17.71-6.79T580.57,851.93Zm10.39-.34q0,8.48,3.92,12.86a12.79,12.79,0,0,0,10,4.37,12.61,12.61,0,0,0,9.89-4.34q3.87-4.35,3.87-13t-3.76-12.81a14,14,0,0,0-20.05.05Q591,843,591,851.59Z"/><path class="cls-3" d="M636.92,876.59V826.65h21.22q8,0,11.63,1.35a11.43,11.43,0,0,1,5.81,4.78,14.35,14.35,0,0,1,2.18,7.87,13.33,13.33,0,0,1-3.3,9.28q-3.3,3.68-9.88,4.62a23.54,23.54,0,0,1,5.4,4.19,56.66,56.66,0,0,1,5.74,8.11l6.1,9.74H669.76l-7.29-10.87a69.7,69.7,0,0,0-5.32-7.34,7.76,7.76,0,0,0-3-2.08,16.78,16.78,0,0,0-5.07-.56h-2v20.85ZM647,847.77h7.46q7.26,0,9.06-.61a5.41,5.41,0,0,0,2.83-2.11,6.52,6.52,0,0,0,1-3.75,6,6,0,0,0-1.34-4.07,6.16,6.16,0,0,0-3.8-2q-1.23-.16-7.36-.17H647Z"/><path class="cls-3" d="M687.13,876.59V826.65h15.09l9.06,34.07,9-34.07h15.13v49.94H726V837.28l-9.91,39.31h-9.71l-9.88-39.31v39.31Z"/><path class="cls-3" d="M483.73,960.31h-11L468.4,949h-20l-4.12,11.34H433.62l19.45-49.94h10.66Zm-18.57-19.76L458.28,922l-6.75,18.53Z"/><path class="cls-3" d="M486.52,944.06l9.81-.95q.89,4.93,3.59,7.25a10.86,10.86,0,0,0,7.31,2.32q4.88,0,7.34-2.06A6.13,6.13,0,0,0,517,945.8a4.53,4.53,0,0,0-1-3,8.25,8.25,0,0,0-3.62-2.16q-1.78-.61-8.08-2.18-8.1-2-11.38-4.94a13.13,13.13,0,0,1-2.43-17.19,13.58,13.58,0,0,1,6.23-5.06,25.17,25.17,0,0,1,9.83-1.73q9.41,0,14.15,4.12a14.52,14.52,0,0,1,5,11l-10.08.45a8.59,8.59,0,0,0-2.77-5.54c-1.42-1.12-3.55-1.69-6.39-1.69a11.53,11.53,0,0,0-6.88,1.81,3.62,3.62,0,0,0-1.6,3.1,3.82,3.82,0,0,0,1.49,3c1.28,1.07,4.36,2.18,9.27,3.34a49.29,49.29,0,0,1,10.88,3.59,14,14,0,0,1,5.52,5.08,15.68,15.68,0,0,1-.39,16,14.27,14.27,0,0,1-6.74,5.57,28.21,28.21,0,0,1-10.87,1.82q-9.48,0-14.55-4.37T486.52,944.06Z"/><path class="cls-3" d="M533.05,944.06l9.81-.95q.89,4.93,3.6,7.25a10.82,10.82,0,0,0,7.3,2.32q4.88,0,7.35-2.06a6.16,6.16,0,0,0,2.47-4.82,4.58,4.58,0,0,0-1-3,8.35,8.35,0,0,0-3.63-2.16q-1.77-.61-8.07-2.18-8.12-2-11.38-4.94A13.12,13.12,0,0,1,537,916.31a13.56,13.56,0,0,1,6.24-5.06,25.08,25.08,0,0,1,9.82-1.73q9.4,0,14.16,4.12a14.55,14.55,0,0,1,5,11l-10.09.45q-.64-3.86-2.77-5.54c-1.42-1.12-3.55-1.69-6.39-1.69a11.55,11.55,0,0,0-6.88,1.81,3.62,3.62,0,0,0-1.6,3.1,3.83,3.83,0,0,0,1.5,3q1.9,1.61,9.26,3.34a49.41,49.41,0,0,1,10.89,3.59,14,14,0,0,1,5.52,5.08,14.91,14.91,0,0,1,2,8,14.72,14.72,0,0,1-2.39,8,14.23,14.23,0,0,1-6.74,5.57,28.21,28.21,0,0,1-10.87,1.82q-9.46,0-14.54-4.37T533.05,944.06Z"/><path class="cls-3" d="M582.14,960.31V910.37h37v8.45H592.22v11.07H617.3v8.41H592.22v13.59h27.9v8.42Z"/><path class="cls-3" d="M639.92,960.31V918.82H625.1v-8.45h39.68v8.45H650v41.49Z"/><path class="cls-4" d="M720.87,620.39h-34l-13.49-35.11H611.65l-12.76,35.11h-33.1L626,465.84h33Zm-57.46-61.15-21.3-57.35-20.87,57.35Z"/><path class="cls-4" d="M346.4,620.11,291.16,465.55H325l39.11,114.39L402,465.55h33.1L379.72,620.11Z"/><path class="cls-4" d="M443.08,566.51l30.36-3q2.74,15.29,11.12,22.45t22.61,7.17q15.07,0,22.72-6.38t7.65-14.91a14.07,14.07,0,0,0-3.22-9.33q-3.21-3.85-11.23-6.7-5.48-1.89-25-6.74Q473,542.9,462.9,533.83q-14.23-12.76-14.24-31.1a39.71,39.71,0,0,1,6.7-22.09q6.69-10.27,19.29-15.65t30.41-5.38q29.1,0,43.81,12.76t15.44,34.05l-31.2,1.37q-2-11.91-8.59-17.13t-19.77-5.22q-13.61,0-21.3,5.59a11.25,11.25,0,0,0-4.95,9.59,11.84,11.84,0,0,0,4.64,9.38q5.89,5,28.67,10.33t33.68,11.13a43.36,43.36,0,0,1,17.08,15.7q6.18,10,6.17,24.62a45.5,45.5,0,0,1-7.38,24.88,44.26,44.26,0,0,1-20.87,17.24q-13.5,5.64-33.63,5.64-29.31,0-45-13.55T443.08,566.51Z"/><path class="cls-4" d="M730.28,619.82V491.42H684.42V465.27H807.24v26.15H761.49v128.4Z"/><path class="cls-5" d="M335,138.52,316.28,86.26h11.44L341,124.93l12.79-38.67h11.19l-18.71,52.26Z"/><path class="cls-5" d="M370.32,138.52V86.26h38.74V95.1H380.87v11.58H407.1v8.81H380.87v14.22h29.19v8.81Z"/><path class="cls-5" d="M419,138.52V86.26h22.21q8.37,0,12.17,1.41a12,12,0,0,1,6.08,5,15,15,0,0,1,2.28,8.23,13.91,13.91,0,0,1-3.46,9.71q-3.45,3.84-10.33,4.83a24.8,24.8,0,0,1,5.65,4.39,60.16,60.16,0,0,1,6,8.48l6.38,10.2H453.4l-7.62-11.38a75.89,75.89,0,0,0-5.56-7.68,8.15,8.15,0,0,0-3.18-2.17,17.38,17.38,0,0,0-5.31-.59h-2.14v21.82Zm10.55-30.16h7.81q7.59,0,9.48-.64a5.71,5.71,0,0,0,3-2.21,6.83,6.83,0,0,0,1.07-3.92,6.26,6.26,0,0,0-1.41-4.26,6.44,6.44,0,0,0-4-2q-1.29-.18-7.7-.18h-8.24Z"/><path class="cls-5" d="M482.74,138.52v-22L463.6,86.26H476l12.29,20.67,12.05-20.67h12.16l-19.22,30.33v21.93Z"/><path class="cls-5" d="M535.57,121.49l10.26-1q.93,5.16,3.76,7.59a11.36,11.36,0,0,0,7.65,2.42q5.1,0,7.68-2.15a6.44,6.44,0,0,0,2.59-5.05,4.79,4.79,0,0,0-1.09-3.15,8.67,8.67,0,0,0-3.8-2.26q-1.85-.65-8.45-2.29-8.48-2.1-11.9-5.17a13.58,13.58,0,0,1-4.81-10.51,13.44,13.44,0,0,1,2.26-7.47,14.19,14.19,0,0,1,6.52-5.29,26.2,26.2,0,0,1,10.29-1.82q9.84,0,14.81,4.31a15.27,15.27,0,0,1,5.22,11.52l-10.55.46c-.45-2.68-1.42-4.62-2.91-5.79s-3.71-1.77-6.68-1.77a12,12,0,0,0-7.2,1.89,3.81,3.81,0,0,0-1.68,3.25,4,4,0,0,0,1.57,3.17q2,1.68,9.7,3.49a51.41,51.41,0,0,1,11.39,3.76A14.73,14.73,0,0,1,576,115a16.43,16.43,0,0,1-.41,16.74,15,15,0,0,1-7.06,5.83,29.62,29.62,0,0,1-11.37,1.9q-9.9,0-15.22-4.58T535.57,121.49Z"/><path class="cls-5" d="M586.79,138.5V86.24h15.79l9.48,35.65,9.37-35.65h15.83V138.5h-9.8V97.36L617.09,138.5H606.93L596.59,97.36V138.5Z"/><path class="cls-5" d="M694.86,138.5H683.39l-4.57-11.87H657.94l-4.32,11.87H642.43l20.35-52.26h11.16Zm-19.42-20.68-7.2-19.39-7.06,19.39Z"/><path class="cls-5" d="M700.74,138.5V86.67h10.55v43h26.24v8.81Z"/><path class="cls-5" d="M745.33,138.5V86.67h10.56v43h26.23v8.81Z"/><path class="cls-5" d="M402.68,212.64H391.2l-4.56-11.87H365.76l-4.32,11.87H350.25l20.35-52.25h11.16ZM383.26,192l-7.2-19.39L369,192Z"/><path class="cls-5" d="M408.28,212.64V160.39h16.93q9.63,0,12.55.78a13.71,13.71,0,0,1,7.52,5.11,16.24,16.24,0,0,1,3,10.18,17,17,0,0,1-1.75,8.09,14.14,14.14,0,0,1-4.44,5.15,15.1,15.1,0,0,1-5.47,2.48,60.06,60.06,0,0,1-10.94.75h-6.88v19.71Zm10.55-43.42v14.83h5.78q6.22,0,8.34-.82a6.86,6.86,0,0,0,3.29-2.56,7,7,0,0,0,1.2-4.07,6.72,6.72,0,0,0-1.68-4.7,7.29,7.29,0,0,0-4.24-2.32,50.2,50.2,0,0,0-7.59-.36Z"/><path class="cls-5" d="M457,212.64V160.39h38.74v8.83H467.52v11.59h26.23v8.8H467.52v14.23h29.19v8.8Z"/><path class="cls-5" d="M505.7,212.64V160.39h22.2c5.59,0,9.64.46,12.18,1.4a12,12,0,0,1,6.07,5,15.07,15.07,0,0,1,2.28,8.23,14,14,0,0,1-3.45,9.72q-3.47,3.83-10.34,4.83a24.78,24.78,0,0,1,5.65,4.38,59,59,0,0,1,6,8.49l6.39,10.19H540.06l-7.63-11.37a74.27,74.27,0,0,0-5.56-7.68,8.23,8.23,0,0,0-3.17-2.18,17.54,17.54,0,0,0-5.31-.58h-2.14v21.81Zm10.55-30.16h7.8c5.07,0,8.22-.21,9.48-.64a5.61,5.61,0,0,0,3-2.21,6.73,6.73,0,0,0,1.07-3.92,6.26,6.26,0,0,0-1.41-4.26,6.46,6.46,0,0,0-4-2c-.86-.12-3.42-.18-7.7-.18h-8.23Z"/><path class="cls-5" d="M570.14,212.64V169.22h-15.5v-8.83h41.52v8.83H580.69v43.42Z"/><path class="cls-5" d="M602.9,160.39h10.55v28.3a59,59,0,0,0,.39,8.73,8.44,8.44,0,0,0,3.23,5.15,11.19,11.19,0,0,0,7,1.94q4.5,0,6.78-1.83a7.28,7.28,0,0,0,2.74-4.51,58.41,58.41,0,0,0,.47-8.88v-28.9h10.55v27.44q0,9.4-.86,13.3a14.69,14.69,0,0,1-3.15,6.55,15.89,15.89,0,0,1-6.15,4.26,26.71,26.71,0,0,1-10,1.59q-7.49,0-11.36-1.73a16.22,16.22,0,0,1-6.11-4.49,14.4,14.4,0,0,1-3-5.79,63.53,63.53,0,0,1-1-13.26Z"/><path class="cls-5" d="M655.72,212.64V160.39h22.21q8.37,0,12.17,1.4a12,12,0,0,1,6.08,5,15.07,15.07,0,0,1,2.28,8.23,13.94,13.94,0,0,1-3.46,9.72q-3.45,3.83-10.33,4.83a24.78,24.78,0,0,1,5.65,4.38,59.8,59.8,0,0,1,6,8.49l6.38,10.19H690.08l-7.62-11.37a75.89,75.89,0,0,0-5.56-7.68,8.19,8.19,0,0,0-3.18-2.18,17.45,17.45,0,0,0-5.31-.58h-2.14v21.81Zm10.55-30.16h7.81q7.59,0,9.48-.64a5.61,5.61,0,0,0,3-2.21,6.81,6.81,0,0,0,1.07-3.92,6.26,6.26,0,0,0-1.41-4.26,6.49,6.49,0,0,0-4-2q-1.29-.18-7.7-.18h-8.24Z"/><path class="cls-5" d="M708.41,212.64V160.39h38.74v8.83H719v11.59h26.23v8.8H719v14.23h29.19v8.8Z"/><path class="cls-5" d="M378,287.66V244.24H362.53V235.4h41.52v8.84H388.59v43.42Z"/><path class="cls-5" d="M410.86,287.66V235.4h38.75v8.84h-28.2v11.58h26.24v8.81H421.41v14.22h29.2v8.81Z"/><path class="cls-5" d="M459.59,287.66V235.4H481.8q8.37,0,12.17,1.41a12,12,0,0,1,6.08,5,15,15,0,0,1,2.28,8.23,13.91,13.91,0,0,1-3.46,9.71q-3.47,3.84-10.34,4.83a24.58,24.58,0,0,1,5.65,4.39,59.2,59.2,0,0,1,6,8.48l6.38,10.2H494l-7.63-11.38a74.27,74.27,0,0,0-5.56-7.68,8.13,8.13,0,0,0-3.17-2.17,17.47,17.47,0,0,0-5.31-.59h-2.14v21.82Zm10.55-30.16H478q7.59,0,9.48-.64a5.75,5.75,0,0,0,3-2.21,6.83,6.83,0,0,0,1.07-3.92,6.26,6.26,0,0,0-1.41-4.26,6.46,6.46,0,0,0-4-2.05q-1.27-.18-7.7-.18h-8.23Z"/><path class="cls-5" d="M512.13,287.66V235.4h15.79l9.48,35.65,9.38-35.65H562.6v52.26h-9.8V246.52l-10.37,41.14H532.27l-10.34-41.14v41.14Z"/><path class="cls-5" d="M572.76,287.66V235.4h10.55v52.26Z"/><path class="cls-5" d="M593.47,287.66V235.4h10.27l21.38,34.9V235.4h9.81v52.26H624.34l-21.07-34.08v34.08Z"/><path class="cls-5" d="M693.2,287.66H681.73l-4.57-11.87H656.28L652,287.66H640.77l20.35-52.26h11.16ZM673.78,267l-7.2-19.39L659.52,267Z"/><path class="cls-5" d="M699.09,287.66V235.83h10.55v43h26.23v8.81Z"/></svg>