<svg id="Layer_1" data-name="Layer 1" xmlns="http://www.w3.org/2000/svg" viewBox="0 0 1080 1080"><defs><style>.cls-1{fill:#0c8140;}.cls-2,.cls-5{fill:none;}.cls-2{stroke:#231f20;stroke-miterlimit:10;stroke-width:0.5px;}.cls-3{fill:#fff;}.cls-4{fill:#231f20;}</style></defs><title>15 NEW</title><rect class="cls-1" x="234.64" y="72.22" width="526.26" height="212.63"/><rect class="cls-1" x="234.64" y="779.22" width="526.26" height="212.63"/><polygon class="cls-2" points="760.9 779.03 234.64 779.22 234.64 284.85 760.9 284.85 760.9 779.03"/><path class="cls-3" d="M311,848.82V798.71h16.24q9.22,0,12,.75a13.19,13.19,0,0,1,7.21,4.91,15.54,15.54,0,0,1,2.91,9.76,16.34,16.34,0,0,1-1.68,7.76,13.85,13.85,0,0,1-4.25,4.94,14.87,14.87,0,0,1-5.25,2.37,57.57,57.57,0,0,1-10.49.72h-6.6v18.9Zm10.12-41.63v14.22h5.54c4,0,6.65-.26,8-.79a6.55,6.55,0,0,0,3.16-2.46,6.69,6.69,0,0,0,1.15-3.9,6.49,6.49,0,0,0-1.61-4.51,7,7,0,0,0-4.06-2.22,48.48,48.48,0,0,0-7.28-.34Z"/><path class="cls-3" d="M357.94,848.82v-49.7h10.12v41.26h25.16v8.44Z"/><path class="cls-3" d="M445.62,848.82h-11l-4.38-11.38h-20l-4.13,11.38H395.34l19.51-50.11h10.7ZM427,829l-6.91-18.6L413.32,829Z"/><path class="cls-3" d="M457.07,848.82V807.19H442.2v-8.48H482v8.48H467.18v41.63Z"/><path class="cls-3" d="M488.61,848.82V798.71H523v8.48H498.73v11.86h20.92v8.48H498.73v21.29Z"/><path class="cls-3" d="M529.25,824.07a32,32,0,0,1,2.29-12.85,23.68,23.68,0,0,1,4.67-6.87,19.45,19.45,0,0,1,6.48-4.51,27.52,27.52,0,0,1,10.8-2q11.07,0,17.72,6.87t6.65,19.1q0,12.13-6.6,19t-17.64,6.85q-11.18,0-17.77-6.82T529.25,824.07Zm10.43-.34q0,8.52,3.93,12.9a13.5,13.5,0,0,0,19.91,0c2.58-2.91,3.88-7.26,3.88-13.08s-1.26-10-3.78-12.85a14,14,0,0,0-20.11,0Q539.67,815.08,539.68,823.73Z"/><path class="cls-3" d="M585.79,848.82V798.71h21.29c5.35,0,9.25.45,11.67,1.35a11.52,11.52,0,0,1,5.83,4.8,14.46,14.46,0,0,1,2.19,7.9,13.35,13.35,0,0,1-3.32,9.31q-3.32,3.67-9.91,4.64a23.43,23.43,0,0,1,5.42,4.2,58.31,58.31,0,0,1,5.76,8.13l6.11,9.78H618.74l-7.32-10.9a70.09,70.09,0,0,0-5.33-7.37,7.75,7.75,0,0,0-3-2.08,16.53,16.53,0,0,0-5.1-.57H595.9v20.92ZM595.9,819.9h7.49q7.27,0,9.09-.61a5.49,5.49,0,0,0,2.84-2.12,6.55,6.55,0,0,0,1-3.76,6,6,0,0,0-1.35-4.08,6.17,6.17,0,0,0-3.81-2q-1.23-.17-7.38-.17h-7.9Z"/><path class="cls-3" d="M636.17,848.82V798.71h15.14l9.09,34.18,9-34.18h15.18v50.11h-9.4V809.38l-9.95,39.44h-9.74l-9.91-39.44v39.44Z"/><path class="cls-3" d="M299.74,892.59l9.81,3.11q-2.26,8.2-7.51,12.19t-13.31,4a21.6,21.6,0,0,1-16.41-6.82q-6.42-6.82-6.42-18.65,0-12.51,6.46-19.43t17-6.92q9.18,0,14.93,5.43a19.81,19.81,0,0,1,5.13,9.23l-10,2.4a10.32,10.32,0,0,0-10.56-8.41,11.39,11.39,0,0,0-9,4q-3.46,4-3.47,12.95,0,9.51,3.42,13.54a11.1,11.1,0,0,0,8.89,4,10.18,10.18,0,0,0,6.94-2.56Q298.47,898.1,299.74,892.59Z"/><path class="cls-3" d="M316.18,886.27a31.86,31.86,0,0,1,2.29-12.86,23.65,23.65,0,0,1,4.66-6.87,19.59,19.59,0,0,1,6.48-4.51,27.52,27.52,0,0,1,10.8-2q11.07,0,17.72,6.87T364.78,886q0,12.13-6.6,19t-17.63,6.86q-11.18,0-17.78-6.82T316.18,886.27Zm10.42-.35q0,8.52,3.93,12.91a12.8,12.8,0,0,0,10,4.39,12.67,12.67,0,0,0,9.93-4.36q3.88-4.35,3.88-13.07t-3.78-12.85a14,14,0,0,0-20.11,0Q326.61,877.28,326.6,885.92Z"/><path class="cls-3" d="M372.54,911V860.9h15.14l9.09,34.18,9-34.18h15.18V911h-9.4V871.57l-10,39.44h-9.74l-9.91-39.44V911Z"/><path class="cls-3" d="M431,911V860.9h16.23q9.22,0,12,.76a13.08,13.08,0,0,1,7.21,4.9,15.54,15.54,0,0,1,2.91,9.76,16.43,16.43,0,0,1-1.67,7.76,13.79,13.79,0,0,1-4.26,4.94,14.62,14.62,0,0,1-5.25,2.37,57.5,57.5,0,0,1-10.49.72h-6.6V911Zm10.11-41.63V883.6h5.54c4,0,6.65-.26,8-.79a6.6,6.6,0,0,0,3.16-2.46,6.73,6.73,0,0,0,1.15-3.89,6.5,6.5,0,0,0-1.61-4.52,7,7,0,0,0-4.07-2.22,49.83,49.83,0,0,0-7.28-.34Z"/><path class="cls-3" d="M478,911V861.32h10.12v41.25h25.15V911Z"/><path class="cls-3" d="M520.13,911V860.9h10.11V911Z"/><path class="cls-3" d="M585.07,911h-11l-4.37-11.38h-20L545.52,911H534.79l19.52-50.11H565Zm-18.63-19.82-6.9-18.6-6.77,18.6Z"/><path class="cls-3" d="M590.54,911V860.9h9.84l20.51,33.47V860.9h9.4V911H620.14l-20.2-32.67V911Z"/><path class="cls-3" d="M673.05,892.59l9.81,3.11q-2.26,8.2-7.51,12.19t-13.31,4a21.6,21.6,0,0,1-16.41-6.82q-6.42-6.82-6.42-18.65,0-12.51,6.46-19.43t17-6.92q9.2,0,14.93,5.43a19.81,19.81,0,0,1,5.13,9.23l-10,2.4a10.32,10.32,0,0,0-10.56-8.41,11.39,11.39,0,0,0-9,4q-3.47,4-3.47,12.95,0,9.51,3.42,13.54a11.1,11.1,0,0,0,8.89,4,10.18,10.18,0,0,0,6.94-2.56Q671.77,898.1,673.05,892.59Z"/><path class="cls-3" d="M691.54,911V860.9h37.15v8.48h-27v11.11h25.15v8.44H701.66v13.64h28V911Z"/><path class="cls-3" d="M333.81,973.21V923.1H371v8.47h-27v11.11h25.16v8.45H343.93v13.63h28v8.45Z"/><path class="cls-3" d="M380.78,973.21v-49.7h10.11v41.25h25.16v8.45Z"/><path class="cls-3" d="M423.26,973.21V923.1h37.15v8.47h-27v11.11h25.16v8.45H433.38v13.63h28v8.45Z"/><path class="cls-3" d="M469.81,973.21V923.1H485l9.09,34.18,9-34.18h15.17v50.11h-9.4V933.76l-9.94,39.45h-9.74l-9.92-39.45v39.45Z"/><path class="cls-3" d="M528.26,973.21V923.1h37.15v8.47h-27v11.11h25.16v8.45H538.38v13.63h28v8.45Z"/><path class="cls-3" d="M575.05,973.21V923.1h9.85l20.51,33.46V923.1h9.39v50.11H604.65l-20.2-32.68v32.68Z"/><path class="cls-3" d="M636.78,973.21V931.57H621.91V923.1h39.82v8.47H646.9v41.64Z"/><path class="cls-3" d="M350.51,203.57V153.88h10.12v41.25h25.15v8.44Z"/><path class="cls-3" d="M392.69,203.57v-50.1h10.12v50.1Z"/><path class="cls-3" d="M444.5,185.15l9.81,3.11q-2.25,8.2-7.5,12.19t-13.31,4a21.55,21.55,0,0,1-16.41-6.82q-6.42-6.83-6.42-18.64,0-12.51,6.46-19.44t17-6.92q9.19,0,14.94,5.44a19.76,19.76,0,0,1,5.13,9.23l-10,2.39a10.36,10.36,0,0,0-10.56-8.41,11.39,11.39,0,0,0-9,4q-3.46,4-3.47,13,0,9.51,3.42,13.54a11.1,11.1,0,0,0,8.89,4,10.11,10.11,0,0,0,6.93-2.56Q443.24,190.65,444.5,185.15Z"/><path class="cls-3" d="M463,203.57v-50.1h37.15v8.47h-27v11.11h25.16v8.44H473.11v13.64h28v8.44Z"/><path class="cls-3" d="M509.79,203.57v-50.1h9.84l20.51,33.46V153.47h9.4v50.1H539.39l-20.2-32.67v32.67Z"/><path class="cls-3" d="M557.67,187.27l9.85-1c.59,3.31,1.79,5.73,3.6,7.28a10.91,10.91,0,0,0,7.33,2.33q4.89,0,7.37-2.07A6.16,6.16,0,0,0,588.3,189a4.58,4.58,0,0,0-1-3,8.34,8.34,0,0,0-3.64-2.17q-1.79-.62-8.1-2.19-8.14-2-11.42-4.95a13,13,0,0,1-4.62-10.09,12.87,12.87,0,0,1,2.18-7.16,13.54,13.54,0,0,1,6.25-5.07,24.91,24.91,0,0,1,9.86-1.75q9.43,0,14.2,4.14a14.61,14.61,0,0,1,5,11l-10.12.44a8.6,8.6,0,0,0-2.78-5.55c-1.43-1.13-3.56-1.69-6.41-1.69a11.58,11.58,0,0,0-6.91,1.81,3.64,3.64,0,0,0-1.6,3.11,3.85,3.85,0,0,0,1.5,3q1.92,1.61,9.3,3.35a48.56,48.56,0,0,1,10.92,3.61,14.12,14.12,0,0,1,5.54,5.09,14.9,14.9,0,0,1,2,8,14.75,14.75,0,0,1-2.4,8.07,14.3,14.3,0,0,1-6.76,5.58,28.42,28.42,0,0,1-10.91,1.83q-9.5,0-14.59-4.39T557.67,187.27Z"/><path class="cls-3" d="M606.93,203.57v-50.1h37.15v8.47H617v11.11H642.2v8.44H617v13.64h28v8.44Z"/><path class="cls-4" d="M327,749.8V300.58h91.45V673.49H645.79V749.8Z"/><rect class="cls-5" x="6.7" width="1080" height="1080"/></svg>