<svg id="Layer_1" data-name="Layer 1" xmlns="http://www.w3.org/2000/svg" viewBox="0 0 1080 1080"><defs><style>.cls-1{fill:#0c8140;}.cls-2,.cls-5{fill:none;}.cls-2{stroke:#231f20;stroke-miterlimit:10;stroke-width:0.5px;}.cls-3{fill:#fff;}.cls-4{fill:#231f20;}</style></defs><title>15 NEW</title><rect class="cls-1" x="288.19" y="72.22" width="526.26" height="212.63"/><rect class="cls-1" x="288.19" y="779.22" width="526.26" height="212.63"/><polygon class="cls-2" points="814.45 779.03 288.19 779.22 288.19 284.85 814.45 284.85 814.45 779.03"/><path class="cls-3" d="M364.53,848.82V798.71h16.23q9.23,0,12,.75a13.15,13.15,0,0,1,7.21,4.91,15.54,15.54,0,0,1,2.91,9.76,16.46,16.46,0,0,1-1.67,7.76,13.88,13.88,0,0,1-4.26,4.94,14.79,14.79,0,0,1-5.25,2.37,57.5,57.5,0,0,1-10.49.72h-6.6v18.9Zm10.11-41.63v14.22h5.54c4,0,6.65-.26,8-.79a6.6,6.6,0,0,0,3.16-2.46,6.76,6.76,0,0,0,1.15-3.9,6.49,6.49,0,0,0-1.61-4.51,7,7,0,0,0-4.07-2.22,48.39,48.39,0,0,0-7.28-.34Z"/><path class="cls-3" d="M411.49,848.82v-49.7h10.12v41.26h25.15v8.44Z"/><path class="cls-3" d="M499.16,848.82h-11l-4.37-11.38h-20l-4.14,11.38H448.88l19.52-50.11h10.7ZM480.53,829l-6.9-18.6L466.86,829Z"/><path class="cls-3" d="M510.61,848.82V807.19H495.74v-8.48h39.82v8.48H520.73v41.63Z"/><path class="cls-3" d="M542.16,848.82V798.71h34.35v8.48H552.28v11.86h20.91v8.48H552.28v21.29Z"/><path class="cls-3" d="M582.8,824.07a31.84,31.84,0,0,1,2.29-12.85,23.65,23.65,0,0,1,4.66-6.87,19.45,19.45,0,0,1,6.48-4.51,27.52,27.52,0,0,1,10.8-2q11.07,0,17.72,6.87t6.65,19.1q0,12.13-6.6,19t-17.63,6.85q-11.17,0-17.78-6.82T582.8,824.07Zm10.42-.34q0,8.52,3.93,12.9a13.5,13.5,0,0,0,19.91,0c2.59-2.91,3.88-7.26,3.88-13.08s-1.26-10-3.77-12.85a14,14,0,0,0-20.12,0Q593.23,815.08,593.22,823.73Z"/><path class="cls-3" d="M639.33,848.82V798.71h21.29q8,0,11.68,1.35a11.49,11.49,0,0,1,5.82,4.8,14.46,14.46,0,0,1,2.19,7.9,13.35,13.35,0,0,1-3.31,9.31q-3.32,3.67-9.92,4.64a23.22,23.22,0,0,1,5.42,4.2,56.65,56.65,0,0,1,5.76,8.13l6.12,9.78h-12.1L665,837.92a69.62,69.62,0,0,0-5.34-7.37,7.68,7.68,0,0,0-3-2.08,16.5,16.5,0,0,0-5.09-.57h-2v20.92Zm10.12-28.92h7.48q7.29,0,9.1-.61a5.46,5.46,0,0,0,2.83-2.12,6.48,6.48,0,0,0,1-3.76,6,6,0,0,0-1.35-4.08,6.17,6.17,0,0,0-3.81-2q-1.23-.17-7.39-.17h-7.89Z"/><path class="cls-3" d="M689.71,848.82V798.71h15.14l9.1,34.18,9-34.18h15.18v50.11h-9.4V809.38l-10,39.44H709l-9.91-39.44v39.44Z"/><path class="cls-3" d="M353.28,892.59l9.81,3.11q-2.25,8.2-7.5,12.19t-13.31,4a21.57,21.57,0,0,1-16.41-6.82q-6.44-6.82-6.43-18.65,0-12.51,6.46-19.43t17-6.92q9.19,0,14.94,5.43a19.8,19.8,0,0,1,5.12,9.23l-10,2.4a10.34,10.34,0,0,0-10.56-8.41,11.38,11.38,0,0,0-9,4q-3.48,4-3.47,12.95,0,9.51,3.42,13.54a11.08,11.08,0,0,0,8.88,4,10.18,10.18,0,0,0,6.94-2.56Q352,898.1,353.28,892.59Z"/><path class="cls-3" d="M369.72,886.27A31.86,31.86,0,0,1,372,873.41a23.68,23.68,0,0,1,4.67-6.87,19.66,19.66,0,0,1,6.47-4.51,27.59,27.59,0,0,1,10.8-2q11.08,0,17.73,6.87T418.33,886q0,12.13-6.6,19t-17.64,6.86q-11.18,0-17.77-6.82T369.72,886.27Zm10.43-.35q0,8.52,3.93,12.91a13.51,13.51,0,0,0,19.91,0q3.87-4.35,3.88-13.07t-3.78-12.85A14,14,0,0,0,384,873Q380.15,877.28,380.15,885.92Z"/><path class="cls-3" d="M426.08,911V860.9h15.15l9.09,34.18,9-34.18h15.17V911h-9.4V871.57L455.14,911H445.4l-9.92-39.44V911Z"/><path class="cls-3" d="M484.53,911V860.9h16.24q9.23,0,12,.76a13.12,13.12,0,0,1,7.21,4.9,15.54,15.54,0,0,1,2.9,9.76,16.31,16.31,0,0,1-1.67,7.76A13.87,13.87,0,0,1,517,889a14.7,14.7,0,0,1-5.25,2.37,57.57,57.57,0,0,1-10.49.72h-6.6V911Zm10.12-41.63V883.6h5.54c4,0,6.65-.26,8-.79a6.55,6.55,0,0,0,3.16-2.46,6.66,6.66,0,0,0,1.15-3.89,6.5,6.5,0,0,0-1.61-4.52,7,7,0,0,0-4.06-2.22,49.93,49.93,0,0,0-7.28-.34Z"/><path class="cls-3" d="M531.49,911V861.32h10.12v41.25h25.16V911Z"/><path class="cls-3" d="M573.67,911V860.9h10.12V911Z"/><path class="cls-3" d="M638.61,911h-11l-4.38-11.38h-20L599.07,911H588.33l19.52-50.11h10.7ZM620,891.19l-6.91-18.6-6.77,18.6Z"/><path class="cls-3" d="M644.08,911V860.9h9.85l20.5,33.47V860.9h9.4V911H673.68l-20.2-32.67V911Z"/><path class="cls-3" d="M726.59,892.59l9.81,3.11q-2.25,8.2-7.5,12.19t-13.31,4a21.57,21.57,0,0,1-16.41-6.82q-6.42-6.82-6.43-18.65,0-12.51,6.46-19.43t17-6.92q9.19,0,14.94,5.43a19.8,19.8,0,0,1,5.12,9.23l-10,2.4a10.34,10.34,0,0,0-10.56-8.41,11.38,11.38,0,0,0-9,4q-3.48,4-3.47,12.95,0,9.51,3.42,13.54a11.08,11.08,0,0,0,8.88,4,10.18,10.18,0,0,0,6.94-2.56Q725.33,898.1,726.59,892.59Z"/><path class="cls-3" d="M745.08,911V860.9h37.16v8.48h-27v11.11h25.16v8.44H755.2v13.64h28V911Z"/><path class="cls-3" d="M387.36,973.21V923.1h37.15v8.47h-27v11.11h25.15v8.45H397.48v13.63h28v8.45Z"/><path class="cls-3" d="M434.32,973.21v-49.7h10.12v41.25h25.15v8.45Z"/><path class="cls-3" d="M476.81,973.21V923.1H514v8.47h-27v11.11h25.16v8.45H486.92v13.63h28v8.45Z"/><path class="cls-3" d="M523.36,973.21V923.1H538.5l9.09,34.18,9-34.18h15.18v50.11h-9.4V933.76l-10,39.45h-9.74l-9.91-39.45v39.45Z"/><path class="cls-3" d="M581.81,973.21V923.1H619v8.47h-27v11.11h25.16v8.45H591.92v13.63h28v8.45Z"/><path class="cls-3" d="M628.6,973.21V923.1h9.84L659,956.56V923.1h9.4v50.11H658.2L638,940.53v32.68Z"/><path class="cls-3" d="M690.33,973.21V931.57H675.46V923.1h39.82v8.47H700.44v41.64Z"/><path class="cls-3" d="M375.58,115.78l9.85-1q.88,5,3.6,7.28a10.9,10.9,0,0,0,7.33,2.32q4.89,0,7.37-2.07a6.14,6.14,0,0,0,2.48-4.83,4.61,4.61,0,0,0-1-3,8.44,8.44,0,0,0-3.64-2.17q-1.78-.61-8.1-2.18-8.15-2-11.42-5a13,13,0,0,1-4.62-10.08,12.84,12.84,0,0,1,2.18-7.16,13.5,13.5,0,0,1,6.25-5.08,25.1,25.1,0,0,1,9.86-1.74q9.44,0,14.2,4.13a14.61,14.61,0,0,1,5,11l-10.12.45A8.6,8.6,0,0,0,402,91.18c-1.43-1.13-3.56-1.69-6.41-1.69a11.58,11.58,0,0,0-6.91,1.81,3.65,3.65,0,0,0-1.6,3.11,3.84,3.84,0,0,0,1.5,3q1.92,1.62,9.3,3.35a49.6,49.6,0,0,1,10.92,3.61,14.12,14.12,0,0,1,5.54,5.09,15,15,0,0,1,2,8,14.72,14.72,0,0,1-2.4,8.07,14.32,14.32,0,0,1-6.76,5.59A28.42,28.42,0,0,1,396.26,133q-9.5,0-14.59-4.39T375.58,115.78Z"/><path class="cls-3" d="M424.84,132.08V82H462v8.48H435v11.11h25.16V110H435v13.64h28v8.44Z"/><path class="cls-3" d="M503.59,113.66l9.81,3.11Q511.14,125,505.89,129t-13.31,4a21.56,21.56,0,0,1-16.41-6.82q-6.42-6.81-6.42-18.64,0-12.51,6.46-19.43t17-6.92q9.19,0,14.93,5.43a19.76,19.76,0,0,1,5.13,9.23l-10,2.39a10.34,10.34,0,0,0-10.56-8.41,11.42,11.42,0,0,0-9,4q-3.47,4-3.47,13,0,9.5,3.42,13.53a11.1,11.1,0,0,0,8.89,4,10.14,10.14,0,0,0,6.94-2.57Q502.32,119.16,503.59,113.66Z"/><path class="cls-3" d="M522,82h10.12v27.14a56.54,56.54,0,0,0,.37,8.37,8.11,8.11,0,0,0,3.1,4.94,10.69,10.69,0,0,0,6.68,1.87q4.31,0,6.49-1.76a7,7,0,0,0,2.63-4.33,55.62,55.62,0,0,0,.45-8.51V82H562v26.32q0,9-.83,12.75a14.06,14.06,0,0,1-3,6.29,15.25,15.25,0,0,1-5.9,4.08,25.5,25.5,0,0,1-9.63,1.52q-7.19,0-10.89-1.65a15.66,15.66,0,0,1-5.86-4.31,13.84,13.84,0,0,1-2.84-5.56,60.84,60.84,0,0,1-1-12.71Z"/><path class="cls-3" d="M572.66,132.08V82H594q8,0,11.67,1.35a11.52,11.52,0,0,1,5.83,4.8,14.46,14.46,0,0,1,2.18,7.9,13.36,13.36,0,0,1-3.31,9.31Q607,109,600.42,110a23.66,23.66,0,0,1,5.41,4.21,56.65,56.65,0,0,1,5.76,8.13l6.12,9.78h-12.1l-7.31-10.9a71.65,71.65,0,0,0-5.33-7.37,7.85,7.85,0,0,0-3.05-2.09,16.84,16.84,0,0,0-5.09-.56h-2.05v20.92Zm10.12-28.92h7.49q7.28,0,9.09-.61a5.42,5.42,0,0,0,2.83-2.12,6.48,6.48,0,0,0,1-3.76,6,6,0,0,0-1.35-4.09,6.21,6.21,0,0,0-3.81-2q-1.23-.16-7.38-.17h-7.9Z"/><path class="cls-3" d="M622.87,132.08V82H633v50.11Z"/><path class="cls-3" d="M653.91,132.08V90.45H639V82h39.82v8.48H664v41.63Z"/><path class="cls-3" d="M698.55,132.08V111L680.19,82h11.86l11.8,19.83L715.4,82h11.65l-18.42,29.09v21Z"/><path class="cls-3" d="M379.65,203.57h-11l-4.37-11.38h-20l-4.14,11.38H329.37l19.52-50.1h10.7ZM361,183.75l-6.9-18.59-6.77,18.59Z"/><path class="cls-3" d="M388.26,203.57l-12-50.1h10.36l7.55,34.42,9.16-34.42h12l8.79,35,7.69-35h10.18l-12.17,50.1H419.16l-10-37.46-9.94,37.46Z"/><path class="cls-3" d="M488.55,203.57h-11l-4.37-11.38h-20L449,203.57H438.27l19.52-50.1h10.69Zm-18.63-19.82L463,165.16l-6.77,18.59Z"/><path class="cls-3" d="M494,203.57v-50.1h21.29q8,0,11.67,1.35a11.52,11.52,0,0,1,5.83,4.8,14.42,14.42,0,0,1,2.19,7.9,13.39,13.39,0,0,1-3.32,9.31q-3.32,3.67-9.91,4.63a24,24,0,0,1,5.42,4.2,57.94,57.94,0,0,1,5.76,8.14l6.12,9.77H526.9l-7.32-10.9a69.55,69.55,0,0,0-5.33-7.36,7.78,7.78,0,0,0-3-2.09,16.57,16.57,0,0,0-5.09-.56h-2.06v20.91Zm10.11-28.91h7.49q7.27,0,9.09-.62a5.4,5.4,0,0,0,2.84-2.12,6.53,6.53,0,0,0,1-3.76,6,6,0,0,0-1.35-4.08,6.22,6.22,0,0,0-3.81-2q-1.23-.17-7.38-.17h-7.9Z"/><path class="cls-3" d="M544.47,203.57v-50.1h37.15v8.47h-27v11.11h25.16v8.44H554.58v13.64h28v8.44Z"/><path class="cls-3" d="M591.26,203.57v-50.1h9.84l20.51,33.46V153.47H631v50.1H620.86l-20.2-32.67v32.67Z"/><path class="cls-3" d="M641.71,203.57v-50.1h37.15v8.47h-27v11.11H677v8.44H651.82v13.64h28v8.44Z"/><path class="cls-3" d="M685.83,187.27l9.85-1c.59,3.31,1.79,5.73,3.6,7.28a10.91,10.91,0,0,0,7.33,2.33q4.89,0,7.37-2.07a6.16,6.16,0,0,0,2.48-4.84,4.53,4.53,0,0,0-1.05-3,8.22,8.22,0,0,0-3.64-2.17q-1.77-.62-8.1-2.19-8.13-2-11.41-4.95a13.16,13.16,0,0,1-2.45-17.25,13.62,13.62,0,0,1,6.26-5.07,24.91,24.91,0,0,1,9.86-1.75q9.44,0,14.2,4.14a14.61,14.61,0,0,1,5,11l-10.12.44a8.6,8.6,0,0,0-2.78-5.55c-1.43-1.13-3.56-1.69-6.41-1.69a11.58,11.58,0,0,0-6.91,1.81,3.64,3.64,0,0,0-1.6,3.11,3.85,3.85,0,0,0,1.5,3q1.92,1.61,9.3,3.35A48.56,48.56,0,0,1,719,175.91a14.12,14.12,0,0,1,5.54,5.09,14.9,14.9,0,0,1,2,8,14.74,14.74,0,0,1-2.39,8.07,14.27,14.27,0,0,1-6.77,5.58,28.33,28.33,0,0,1-10.9,1.83q-9.5,0-14.59-4.39T685.83,187.27Z"/><path class="cls-3" d="M732.52,187.27l9.85-1c.59,3.31,1.79,5.73,3.6,7.28a10.91,10.91,0,0,0,7.33,2.33q4.89,0,7.37-2.07a6.16,6.16,0,0,0,2.48-4.84,4.53,4.53,0,0,0-1-3,8.22,8.22,0,0,0-3.64-2.17q-1.77-.62-8.1-2.19-8.13-2-11.41-4.95a13.16,13.16,0,0,1-2.45-17.25,13.62,13.62,0,0,1,6.26-5.07,24.91,24.91,0,0,1,9.86-1.75q9.43,0,14.2,4.14a14.61,14.61,0,0,1,5,11l-10.12.44a8.6,8.6,0,0,0-2.78-5.55c-1.43-1.13-3.56-1.69-6.41-1.69a11.58,11.58,0,0,0-6.91,1.81,3.64,3.64,0,0,0-1.6,3.11,3.85,3.85,0,0,0,1.5,3q1.92,1.61,9.3,3.35a48.56,48.56,0,0,1,10.92,3.61,14,14,0,0,1,5.53,5.09,15.78,15.78,0,0,1-.39,16.05,14.27,14.27,0,0,1-6.77,5.58,28.33,28.33,0,0,1-10.9,1.83q-9.5,0-14.59-4.39T732.52,187.27Z"/><path class="cls-3" d="M399.9,275.1V233.47H385V225h39.82v8.47H410V275.1Z"/><path class="cls-3" d="M431.42,275.1V225h21.29c5.35,0,9.25.45,11.67,1.35a11.52,11.52,0,0,1,5.83,4.8,14.42,14.42,0,0,1,2.19,7.9,13.39,13.39,0,0,1-3.32,9.31q-3.31,3.67-9.91,4.63a24,24,0,0,1,5.42,4.2,57.94,57.94,0,0,1,5.76,8.14l6.11,9.77H464.37l-7.32-10.9a69.55,69.55,0,0,0-5.33-7.36,7.78,7.78,0,0,0-3-2.09,16.6,16.6,0,0,0-5.1-.56h-2.05V275.1Zm10.11-28.91H449q7.28,0,9.09-.62a5.43,5.43,0,0,0,2.84-2.12,6.53,6.53,0,0,0,1-3.76,6,6,0,0,0-1.35-4.08,6.22,6.22,0,0,0-3.81-2q-1.23-.16-7.38-.17h-7.9Z"/><path class="cls-3" d="M527.12,275.1h-11l-4.37-11.38h-20l-4.14,11.38H476.84L496.36,225h10.7Zm-18.63-19.82-6.9-18.59-6.77,18.59Z"/><path class="cls-3" d="M532.18,275.1V225h10.11v50.1Z"/><path class="cls-3" d="M552,275.1V225h9.84l20.51,33.46V225h9.4v50.1H581.64l-20.2-32.67V275.1Z"/><path class="cls-3" d="M602.18,275.1V225h10.11v50.1Z"/><path class="cls-3" d="M622,275.1V225h9.84l20.51,33.46V225h9.4v50.1H651.64l-20.2-32.67V275.1Z"/><path class="cls-3" d="M695.8,256.68v-8.44h21.8v20a27.47,27.47,0,0,1-9.21,5.42A33.52,33.52,0,0,1,696.17,276a27.38,27.38,0,0,1-13.7-3.3,21,21,0,0,1-8.79-9.43,30.49,30.49,0,0,1-2.94-13.35A28.93,28.93,0,0,1,674,236a22.05,22.05,0,0,1,9.61-9.33,25.81,25.81,0,0,1,12-2.5q9.35,0,14.58,3.92A17.64,17.64,0,0,1,717,238.87l-10.05,1.88a10.54,10.54,0,0,0-4-5.82,12,12,0,0,0-7.3-2.14q-6.63,0-10.54,4.2t-3.91,12.48q0,8.92,4,13.38a13.25,13.25,0,0,0,10.39,4.46,17.28,17.28,0,0,0,6.38-1.25,21.79,21.79,0,0,0,5.48-3v-6.36Z"/><path class="cls-4" d="M296.14,566.1l38.4-3.73q3.46,19.32,14.06,28.39t28.6,9.07q19.07,0,28.73-8.07t9.67-18.86a17.8,17.8,0,0,0-4.07-11.8q-4.06-4.86-14.2-8.47-6.93-2.4-31.6-8.53Q334,536.24,321.2,524.77q-18-16.12-18-39.33a50.25,50.25,0,0,1,8.47-27.93q8.46-13,24.4-19.8t38.46-6.8q36.8,0,55.4,16.13t19.53,43.06L410,491.84q-2.53-15.07-10.87-21.67t-25-6.6q-17.19,0-26.93,7.07a14.24,14.24,0,0,0-6.27,12.13q0,6.93,5.87,11.87,7.47,6.27,36.26,13.06t42.6,14.07a54.85,54.85,0,0,1,21.6,19.86q7.8,12.6,7.8,31.13a57.59,57.59,0,0,1-9.33,31.47,56,56,0,0,1-26.4,21.8q-17.07,7.13-42.53,7.13-37.07,0-56.93-17.13T296.14,566.1Z"/><path class="cls-4" d="M664.51,629.69H621.58L604.51,585.3H526.39l-16.14,44.39H468.39l76.13-195.45h41.73Zm-72.66-77.32-26.93-72.53-26.4,72.53Z"/><path class="cls-4" d="M709.17,629.69V467.31h-58V434.24H806.5v33.07H748.64V629.69Z"/><rect class="cls-5" width="1080" height="1080"/></svg>