<svg id="Layer_1" data-name="Layer 1" xmlns="http://www.w3.org/2000/svg" viewBox="0 0 1080 1080"><defs><style>.cls-1{fill:#ed2024;}.cls-2,.cls-5{fill:none;}.cls-2{stroke:#231f20;stroke-miterlimit:10;stroke-width:0.5px;}.cls-3{fill:#231f20;}.cls-4{fill:#fff;}</style></defs><title>Untitled-2</title><rect class="cls-1" x="271.9" y="71.51" width="536.2" height="216.64"/><rect class="cls-1" x="271.9" y="791.85" width="536.2" height="216.64"/><polygon class="cls-2" points="808.1 791.66 271.9 791.85 271.9 288.15 808.1 288.15 808.1 791.66"/><path class="cls-3" d="M442.05,625.34H405.88l-14.37-37.4H325.69l-13.58,37.4H276.84L341,460.69h35.15ZM380.84,560.2l-22.69-61.1-22.24,61.1Z"/><path class="cls-3" d="M441.42,568.54l32.34-3.14q2.92,16.29,11.85,23.92T509.7,597q16.06,0,24.2-6.8t8.15-15.89a15,15,0,0,0-3.43-9.94q-3.42-4.1-12-7.13-5.83-2-26.62-7.19-26.73-6.62-37.51-16.28-15.16-13.59-15.16-33.13a42.35,42.35,0,0,1,7.13-23.53q7.14-10.95,20.55-16.68t32.41-5.73q31,0,46.66,13.59t16.45,36.28L537.33,506q-2.13-12.69-9.15-18.25t-21.06-5.56q-14.49,0-22.69,5.95a12,12,0,0,0-5.28,10.22,12.64,12.64,0,0,0,5,10q6.28,5.28,30.54,11t35.89,11.85a46.21,46.21,0,0,1,18.19,16.74q6.57,10.6,6.57,26.22a48.51,48.51,0,0,1-7.86,26.51A47.19,47.19,0,0,1,545.19,619q-14.37,6-35.83,6-31.22,0-47.95-14.44T441.42,568.54Z"/><path class="cls-3" d="M626.39,622.12,587.08,457.47h34l24.82,113.1L676,457.47h39.53l28.86,115,25.27-115h33.47l-40,164.65H727.91L695.12,499,662.44,622.12Z"/><path class="cls-4" d="M352.9,888.12V837.86h16.28q9.26,0,12.07.75a13.22,13.22,0,0,1,7.23,4.92,15.63,15.63,0,0,1,2.91,9.79,16.49,16.49,0,0,1-1.67,7.78,13.8,13.8,0,0,1-4.27,5,14.73,14.73,0,0,1-5.27,2.38,57.87,57.87,0,0,1-10.52.72H363v19ZM363,846.36v14.26h5.56q6,0,8-.79a6.62,6.62,0,0,0,3.17-2.46,6.74,6.74,0,0,0,1.15-3.91,6.52,6.52,0,0,0-1.61-4.53,7.12,7.12,0,0,0-4.08-2.23,50.17,50.17,0,0,0-7.3-.34Z"/><path class="cls-4" d="M399.93,888.12V838.27h10.15v41.38h25.23v8.47Z"/><path class="cls-4" d="M487.79,888.12h-11l-4.38-11.42H452.28l-4.15,11.42H437.36l19.58-50.26h10.73Zm-18.68-19.89-6.93-18.65-6.78,18.65Z"/><path class="cls-4" d="M499.21,888.12V846.36H484.29v-8.5h39.94v8.5H509.35v41.76Z"/><path class="cls-4" d="M530.78,888.12V837.86h34.45v8.5H540.92v11.9h21v8.5h-21v21.36Z"/><path class="cls-4" d="M571.47,863.3a32,32,0,0,1,2.3-12.89,23.48,23.48,0,0,1,4.68-6.89,19.4,19.4,0,0,1,6.49-4.53,27.69,27.69,0,0,1,10.84-2q11.1,0,17.77,6.89t6.67,19.17q0,12.16-6.62,19T595.91,889q-11.2,0-17.82-6.84T571.47,863.3Zm10.46-.35q0,8.53,3.94,12.95a13.56,13.56,0,0,0,20,0c2.59-2.91,3.89-7.29,3.89-13.11s-1.27-10.06-3.79-12.89a14,14,0,0,0-20.18.05Q581.94,854.29,581.93,863Z"/><path class="cls-4" d="M628.1,888.12V837.86h21.36q8.06,0,11.71,1.35A11.58,11.58,0,0,1,667,844,14.51,14.51,0,0,1,669.2,852a13.43,13.43,0,0,1-3.32,9.34q-3.33,3.69-9.94,4.65a23.79,23.79,0,0,1,5.43,4.21,56.73,56.73,0,0,1,5.78,8.16l6.13,9.81H661.15l-7.34-10.94a70.24,70.24,0,0,0-5.35-7.39,7.85,7.85,0,0,0-3.05-2.09,17,17,0,0,0-5.11-.56h-2v21Zm10.15-29h7.51q7.29,0,9.11-.61a5.44,5.44,0,0,0,2.85-2.13,6.49,6.49,0,0,0,1-3.77,6,6,0,0,0-1.36-4.1,6.22,6.22,0,0,0-3.82-2q-1.23-.16-7.4-.17h-7.92Z"/><path class="cls-4" d="M678.56,888.12V837.86h15.19l9.12,34.28,9-34.28H727.1v50.26h-9.42V848.56l-10,39.56h-9.77L688,848.56v39.56Z"/><path class="cls-4" d="M416.81,963.34V921.59H401.9v-8.51h39.94v8.51H427v41.75Z"/><path class="cls-4" d="M448.35,963.34V913.08H458.5v19.78h19.88V913.08h10.15v50.26H478.38v-22H458.5v22Z"/><path class="cls-4" d="M499,963.34V913.08h21.36q8.05,0,11.71,1.36a11.56,11.56,0,0,1,5.84,4.81,14.51,14.51,0,0,1,2.2,7.92,13.43,13.43,0,0,1-3.33,9.35q-3.32,3.68-9.94,4.64a23.6,23.6,0,0,1,5.43,4.22,56.73,56.73,0,0,1,5.78,8.16l6.14,9.8H532l-7.34-10.94a70.16,70.16,0,0,0-5.34-7.38,7.7,7.7,0,0,0-3.05-2.09,16.65,16.65,0,0,0-5.11-.57h-2.06v21Zm10.15-29h7.51q7.3,0,9.12-.62a5.45,5.45,0,0,0,2.84-2.12,6.55,6.55,0,0,0,1-3.78,6,6,0,0,0-1.35-4.09,6.22,6.22,0,0,0-3.83-2c-.82-.12-3.29-.17-7.4-.17h-7.92Z"/><path class="cls-4" d="M549.58,963.34V913.08h37.26v8.51H559.73v11.14H585v8.46H559.73v13.68H587.8v8.47Z"/><path class="cls-4" d="M641.66,963.34h-11l-4.39-11.42H606.14L602,963.34H591.23l19.58-50.26h10.73ZM623,943.46l-6.93-18.65-6.79,18.65Z"/><path class="cls-4" d="M653.07,963.34V921.59H638.16v-8.51H678.1v8.51H663.22v41.75Z"/><rect class="cls-5" width="1080" height="1080"/><path class="cls-4" d="M510.9,140.45h-11l-4.37-11.39h-20l-4.14,11.39H460.62l19.51-50.11h10.7Zm-18.63-19.83L485.36,102l-6.76,18.59Z"/><path class="cls-4" d="M516.36,140.45V90.34h9.85l20.51,33.46V90.34h9.4v50.11H546l-20.2-32.68v32.68Z"/><path class="cls-4" d="M578.09,140.45V98.81H563.23V90.34H603v8.47H588.21v41.64Z"/><path class="cls-4" d="M609.27,140.45V90.34h10.11v50.11Z"/><path class="cls-4" d="M355.05,188.13l9.85-.95q.89,4.95,3.6,7.28a10.92,10.92,0,0,0,7.33,2.32q4.89,0,7.37-2.07a6.16,6.16,0,0,0,2.48-4.83,4.59,4.59,0,0,0-1-3,8.44,8.44,0,0,0-3.64-2.17q-1.78-.62-8.1-2.19-8.14-2-11.42-5a13,13,0,0,1-4.61-10.08,12.89,12.89,0,0,1,2.17-7.17,13.54,13.54,0,0,1,6.25-5.07,25.1,25.1,0,0,1,9.86-1.74q9.44,0,14.2,4.13a14.61,14.61,0,0,1,5,11l-10.12.45a8.6,8.6,0,0,0-2.78-5.56c-1.43-1.13-3.56-1.69-6.41-1.69a11.58,11.58,0,0,0-6.91,1.81,3.65,3.65,0,0,0-1.6,3.11,3.84,3.84,0,0,0,1.5,3q1.92,1.6,9.3,3.35a49.6,49.6,0,0,1,10.92,3.61,14.12,14.12,0,0,1,5.54,5.09,15,15,0,0,1,2,8,14.75,14.75,0,0,1-2.4,8.07,14.32,14.32,0,0,1-6.76,5.59,28.42,28.42,0,0,1-10.91,1.83q-9.5,0-14.59-4.4T355.05,188.13Z"/><path class="cls-4" d="M449.49,204.44h-11l-4.38-11.38h-20L410,204.44H399.21l19.52-50.11h10.7Zm-18.63-19.83L424,166l-6.77,18.59Z"/><path class="cls-4" d="M460.94,204.44V162.81H446.07v-8.48h39.82v8.48H471.06v41.63Z"/><path class="cls-4" d="M492.42,204.44V154.33h37.16v8.48h-27v11.11H527.7v8.44H502.54V196h28v8.44Z"/><path class="cls-4" d="M539.38,204.44v-49.7H549.5V196h25.16v8.44Z"/><path class="cls-4" d="M582.14,204.44v-49.7h10.12V196h25.16v8.44Z"/><path class="cls-4" d="M624.32,204.44V154.33h10.12v50.11Z"/><path class="cls-4" d="M655.36,204.44V162.81H640.49v-8.48h39.82v8.48H665.47v41.63Z"/><path class="cls-4" d="M686.84,204.44V154.33H724v8.48H697v11.11h25.16v8.44H697V196h28v8.44Z"/><path class="cls-4" d="M397.39,268.46l-12-50.1h10.36l7.55,34.42,9.16-34.42h12l8.79,35,7.69-35h10.18L439,268.46H428.28L418.3,231l-9.94,37.46Z"/><path class="cls-4" d="M456.35,268.46v-50.1H493.5v8.47h-27v11.11h25.16v8.44H466.46V260h28v8.44Z"/><path class="cls-4" d="M548.22,268.46h-11l-4.37-11.38h-20l-4.14,11.38H497.94l19.52-50.1h10.7Zm-18.63-19.82-6.9-18.59-6.77,18.59Z"/><path class="cls-4" d="M553.59,268.46v-50.1h16.23q9.23,0,12,.75a13.14,13.14,0,0,1,7.21,4.9,15.54,15.54,0,0,1,2.91,9.76,16.43,16.43,0,0,1-1.67,7.76,13.79,13.79,0,0,1-4.26,4.94,14.45,14.45,0,0,1-5.25,2.37,57.5,57.5,0,0,1-10.49.72h-6.6v18.9Zm10.11-41.63v14.22h5.54c4,0,6.65-.26,8-.78a6.61,6.61,0,0,0,4.31-6.36,6.47,6.47,0,0,0-1.61-4.51,7,7,0,0,0-4.07-2.23,49.83,49.83,0,0,0-7.28-.34Z"/><path class="cls-4" d="M598.23,243.72a31.77,31.77,0,0,1,2.29-12.85,23.2,23.2,0,0,1,4.66-6.87,19.48,19.48,0,0,1,6.48-4.52,27.52,27.52,0,0,1,10.8-2q11.07,0,17.72,6.87t6.65,19.11q0,12.14-6.6,19t-17.63,6.86q-11.19,0-17.78-6.82T598.23,243.72Zm10.42-.34q0,8.51,3.93,12.9a13.51,13.51,0,0,0,19.91,0q3.88-4.35,3.88-13.07t-3.78-12.85a14,14,0,0,0-20.11.05Q608.66,234.73,608.65,243.38Z"/><path class="cls-4" d="M654.83,268.46v-50.1h9.84l20.51,33.46V218.36h9.4v50.1H684.43l-20.2-32.67v32.67Z"/></svg>