<svg id="Layer_1" data-name="Layer 1" xmlns="http://www.w3.org/2000/svg" viewBox="0 0 1080 1080"><defs><style>.cls-1{fill:#ed2024;}.cls-2,.cls-5{fill:none;}.cls-2{stroke:#231f20;stroke-miterlimit:10;stroke-width:0.5px;}.cls-3{fill:#231f20;}.cls-4{fill:#fff;}</style></defs><title>Untitled-2</title><rect class="cls-1" x="271.9" y="71.51" width="536.2" height="216.64"/><rect class="cls-1" x="271.9" y="791.85" width="536.2" height="216.64"/><polygon class="cls-2" points="808.1 791.66 271.9 791.85 271.9 288.15 808.1 288.15 808.1 791.66"/><path class="cls-3" d="M571.8,596.17l83.09,26.35Q635.78,692,591.34,725.74T478.57,759.47q-84.54,0-139-57.76t-54.43-158q0-106,54.72-164.6t143.9-58.63q77.88,0,126.53,46,29,27.21,43.43,78.17L568.9,465q-7.53-33-31.41-52.12t-58.05-19.1q-47.2,0-76.58,33.87T373.47,537.39q0,80.51,28.95,114.66t75.28,34.16q34.16,0,58.78-21.71T571.8,596.17Z"/><path class="cls-3" d="M709.14,759V334.58h85.7V759Z"/><path class="cls-4" d="M352.9,888.12V837.86h16.28q9.26,0,12.07.75a13.22,13.22,0,0,1,7.23,4.92,15.63,15.63,0,0,1,2.91,9.79,16.49,16.49,0,0,1-1.67,7.78,13.8,13.8,0,0,1-4.27,5,14.73,14.73,0,0,1-5.27,2.38,57.87,57.87,0,0,1-10.52.72H363v19ZM363,846.36v14.26h5.56q6,0,8-.79a6.62,6.62,0,0,0,3.17-2.46,6.74,6.74,0,0,0,1.15-3.91,6.52,6.52,0,0,0-1.61-4.53,7.12,7.12,0,0,0-4.08-2.23,50.17,50.17,0,0,0-7.3-.34Z"/><path class="cls-4" d="M399.93,888.12V838.27h10.15v41.38h25.23v8.47Z"/><path class="cls-4" d="M487.79,888.12h-11l-4.38-11.42H452.28l-4.15,11.42H437.36l19.58-50.26h10.73Zm-18.68-19.89-6.93-18.65-6.78,18.65Z"/><path class="cls-4" d="M499.21,888.12V846.36H484.29v-8.5h39.94v8.5H509.35v41.76Z"/><path class="cls-4" d="M530.78,888.12V837.86h34.45v8.5H540.92v11.9h21v8.5h-21v21.36Z"/><path class="cls-4" d="M571.47,863.3a32,32,0,0,1,2.3-12.89,23.48,23.48,0,0,1,4.68-6.89,19.4,19.4,0,0,1,6.49-4.53,27.69,27.69,0,0,1,10.84-2q11.1,0,17.77,6.89t6.67,19.17q0,12.16-6.62,19T595.91,889q-11.2,0-17.82-6.84T571.47,863.3Zm10.46-.35q0,8.53,3.94,12.95a13.56,13.56,0,0,0,20,0c2.59-2.91,3.89-7.29,3.89-13.11s-1.27-10.06-3.79-12.89a14,14,0,0,0-20.18.05Q581.94,854.29,581.93,863Z"/><path class="cls-4" d="M628.1,888.12V837.86h21.36q8.06,0,11.71,1.35A11.58,11.58,0,0,1,667,844,14.51,14.51,0,0,1,669.2,852a13.43,13.43,0,0,1-3.32,9.34q-3.33,3.69-9.94,4.65a23.79,23.79,0,0,1,5.43,4.21,56.73,56.73,0,0,1,5.78,8.16l6.13,9.81H661.15l-7.34-10.94a70.24,70.24,0,0,0-5.35-7.39,7.85,7.85,0,0,0-3.05-2.09,17,17,0,0,0-5.11-.56h-2v21Zm10.15-29h7.51q7.29,0,9.11-.61a5.44,5.44,0,0,0,2.85-2.13,6.49,6.49,0,0,0,1-3.77,6,6,0,0,0-1.36-4.1,6.22,6.22,0,0,0-3.82-2q-1.23-.16-7.4-.17h-7.92Z"/><path class="cls-4" d="M678.56,888.12V837.86h15.19l9.12,34.28,9-34.28H727.1v50.26h-9.42V848.56l-10,39.56h-9.77L688,848.56v39.56Z"/><path class="cls-4" d="M416.81,963.34V921.59H401.9v-8.51h39.94v8.51H427v41.75Z"/><path class="cls-4" d="M448.35,963.34V913.08H458.5v19.78h19.88V913.08h10.15v50.26H478.38v-22H458.5v22Z"/><path class="cls-4" d="M499,963.34V913.08h21.36q8.05,0,11.71,1.36a11.56,11.56,0,0,1,5.84,4.81,14.51,14.51,0,0,1,2.2,7.92,13.43,13.43,0,0,1-3.33,9.35q-3.32,3.68-9.94,4.64a23.6,23.6,0,0,1,5.43,4.22,56.73,56.73,0,0,1,5.78,8.16l6.14,9.8H532l-7.34-10.94a70.16,70.16,0,0,0-5.34-7.38,7.7,7.7,0,0,0-3.05-2.09,16.65,16.65,0,0,0-5.11-.57h-2.06v21Zm10.15-29h7.51q7.3,0,9.12-.62a5.45,5.45,0,0,0,2.84-2.12,6.55,6.55,0,0,0,1-3.78,6,6,0,0,0-1.35-4.09,6.22,6.22,0,0,0-3.83-2c-.82-.12-3.29-.17-7.4-.17h-7.92Z"/><path class="cls-4" d="M549.58,963.34V913.08h37.26v8.51H559.73v11.14H585v8.46H559.73v13.68H587.8v8.47Z"/><path class="cls-4" d="M641.66,963.34h-11l-4.39-11.42H606.14L602,963.34H591.23l19.58-50.26h10.73ZM623,943.46l-6.93-18.65-6.79,18.65Z"/><path class="cls-4" d="M653.07,963.34V921.59H638.16v-8.51H678.1v8.51H663.22v41.75Z"/><rect class="cls-5" width="1080" height="1080"/><path class="cls-4" d="M393.71,155.41l9.61,3.05q-2.2,8-7.35,11.93t-13,3.9a21.12,21.12,0,0,1-16.07-6.68q-6.28-6.68-6.29-18.26,0-12.24,6.33-19t16.63-6.78q9,0,14.62,5.32a19.24,19.24,0,0,1,5,9l-9.8,2.34A10.11,10.11,0,0,0,383,132a11.18,11.18,0,0,0-8.86,3.91q-3.39,3.91-3.39,12.69,0,9.3,3.34,13.25a10.91,10.91,0,0,0,8.71,3.95,9.94,9.94,0,0,0,6.79-2.51Q392.48,160.79,393.71,155.41Z"/><path class="cls-4" d="M409.81,149.22a31.34,31.34,0,0,1,2.24-12.59,23.19,23.19,0,0,1,4.57-6.72,19,19,0,0,1,6.34-4.42,27.06,27.06,0,0,1,10.58-1.94q10.84,0,17.35,6.73T457.4,149q0,11.88-6.46,18.59t-17.27,6.72q-10.94,0-17.4-6.68T409.81,149.22Zm10.21-.34q0,8.34,3.85,12.64a12.55,12.55,0,0,0,9.77,4.3,12.41,12.41,0,0,0,9.72-4.27q3.79-4.26,3.8-12.8t-3.7-12.58a13.7,13.7,0,0,0-19.69.05Q420,140.42,420,148.88Z"/><path class="cls-4" d="M465,173.45V124.39h14.83l8.9,33.46,8.8-33.46h14.86v49.06h-9.2V134.83l-9.74,38.62h-9.54l-9.71-38.62v38.62Z"/><path class="cls-4" d="M522.09,173.45V124.39h14.83l8.9,33.46,8.81-33.46h14.85v49.06h-9.2V134.83l-9.74,38.62H541l-9.7-38.62v38.62Z"/><path class="cls-4" d="M623.57,173.45H612.79l-4.28-11.15H588.9l-4,11.15H574.34l19.11-49.06h10.47ZM605.33,154l-6.76-18.21L591.94,154Z"/><path class="cls-4" d="M628.92,173.45V124.39h9.64l20.08,32.76V124.39h9.21v49.06h-9.94l-19.78-32v32Z"/><path class="cls-4" d="M678.29,124.39h18.1a35.59,35.59,0,0,1,9.34.93,16.51,16.51,0,0,1,7.4,4.52,21.38,21.38,0,0,1,4.68,7.95,36.21,36.21,0,0,1,1.61,11.6,32.13,32.13,0,0,1-1.51,10.44,21.51,21.51,0,0,1-5.25,8.67,17.51,17.51,0,0,1-7,3.91,30,30,0,0,1-8.77,1H678.29Zm9.9,8.29v32.5h7.4a26.5,26.5,0,0,0,6-.47,9.1,9.1,0,0,0,4-2,10.32,10.32,0,0,0,2.59-4.73,32,32,0,0,0,1-9,29.23,29.23,0,0,0-1-8.73,11.12,11.12,0,0,0-2.81-4.76,9.45,9.45,0,0,0-4.58-2.31,45.18,45.18,0,0,0-8.13-.47Z"/><path class="cls-4" d="M277.48,235.27V186.21h9.91v49.06Z"/><path class="cls-4" d="M296.92,235.27V186.21h9.64L326.64,219V186.21h9.21v49.06h-9.94l-19.78-32v32Z"/><path class="cls-4" d="M357.37,235.27V194.51H342.81v-8.3h39v8.3H367.27v40.76Z"/><path class="cls-4" d="M388.19,235.27V186.21h36.38v8.3H398.1v10.87h24.63v8.27H398.1V227h27.41v8.27Z"/><path class="cls-4" d="M433.94,235.27V186.21h20.85q7.86,0,11.43,1.32a11.28,11.28,0,0,1,5.71,4.7,14.21,14.21,0,0,1,2.14,7.73,13.08,13.08,0,0,1-3.25,9.12q-3.24,3.6-9.7,4.54a23.16,23.16,0,0,1,5.3,4.11,55.19,55.19,0,0,1,5.64,8l6,9.57H466.2L459,224.6a69,69,0,0,0-5.22-7.22,7.66,7.66,0,0,0-3-2,16.27,16.27,0,0,0-5-.55h-2v20.48ZM443.85,207h7.33q7.13,0,8.9-.6a5.42,5.42,0,0,0,2.78-2.08,6.38,6.38,0,0,0,1-3.68,5.88,5.88,0,0,0-1.32-4,6,6,0,0,0-3.73-1.92c-.81-.12-3.22-.17-7.23-.17h-7.73Z"/><path class="cls-4" d="M483.47,235.27V186.21h33.64v8.3H493.38v11.61h20.48v8.3H493.38v20.85Z"/><path class="cls-4" d="M525.27,235.27V186.21h36.38v8.3H535.18v10.87h24.63v8.27H535.18V227h27.41v8.27Z"/><path class="cls-4" d="M571,235.27V186.21h20.85q7.88,0,11.43,1.32a11.28,11.28,0,0,1,5.71,4.7,14.13,14.13,0,0,1,2.14,7.73,13.12,13.12,0,0,1-3.24,9.12q-3.25,3.6-9.71,4.54a23.45,23.45,0,0,1,5.31,4.11,56.14,56.14,0,0,1,5.63,8l6,9.57H603.29l-7.16-10.67a70.1,70.1,0,0,0-5.23-7.22,7.63,7.63,0,0,0-3-2,16.34,16.34,0,0,0-5-.55h-2v20.48ZM580.93,207h7.33q7.13,0,8.9-.6a5.42,5.42,0,0,0,2.78-2.08,6.38,6.38,0,0,0,1-3.68,5.88,5.88,0,0,0-1.32-4,6,6,0,0,0-3.73-1.92c-.8-.12-3.21-.17-7.23-.17h-7.73Z"/><path class="cls-4" d="M620.49,235.27V186.21h36.38v8.3H630.4v10.87H655v8.27H630.4V227h27.41v8.27Z"/><path class="cls-4" d="M666.31,235.27V186.21H676L696,219V186.21h9.2v49.06h-9.94l-19.78-32v32Z"/><path class="cls-4" d="M747.1,217.23l9.6,3.05q-2.21,8-7.34,11.93t-13,3.9a21.1,21.1,0,0,1-16.06-6.68q-6.3-6.68-6.3-18.26,0-12.24,6.33-19t16.63-6.78q9,0,14.63,5.32a19.41,19.41,0,0,1,5,9l-9.81,2.34a10.14,10.14,0,0,0-10.34-8.23,11.14,11.14,0,0,0-8.85,3.91q-3.41,3.92-3.4,12.69,0,9.3,3.35,13.25a10.87,10.87,0,0,0,8.7,3.95,9.92,9.92,0,0,0,6.79-2.51C744.91,223.46,746.27,220.82,747.1,217.23Z"/><path class="cls-4" d="M765.2,235.27V186.21h36.38v8.3H775.11v10.87h24.63v8.27H775.11V227h27.41v8.27Z"/></svg>