<svg id="Layer_1" data-name="Layer 1" xmlns="http://www.w3.org/2000/svg" viewBox="0 0 1080 1080"><defs><style>.cls-1{fill:#ed2024;}.cls-2,.cls-5{fill:none;}.cls-2{stroke:#231f20;stroke-miterlimit:10;stroke-width:0.5px;}.cls-3{fill:#231f20;}.cls-4{fill:#fff;}</style></defs><title>Untitled-2</title><rect class="cls-1" x="271.9" y="71.51" width="536.2" height="216.64"/><rect class="cls-1" x="271.9" y="791.85" width="536.2" height="216.64"/><polygon class="cls-2" points="808.1 791.66 271.9 791.85 271.9 288.15 808.1 288.15 808.1 791.66"/><path class="cls-3" d="M280.46,464h62.67q21.19,0,32.32,2.9a58.33,58.33,0,0,1,25.6,14,65.59,65.59,0,0,1,16.22,24.67q5.57,14.6,5.56,36,0,18.81-5.21,32.41-6.37,16.62-18.19,26.91-8.93,7.79-24.1,12.15Q364,616.29,345,616.28H280.46Zm34.29,25.76V590.62h25.6q14.36,0,20.73-1.45a33.14,33.14,0,0,0,13.85-6.34q5.49-4.46,9-14.7t3.47-27.89q0-17.65-3.47-27.11t-9.74-14.75a34.18,34.18,0,0,0-15.87-7.17q-7.19-1.45-28.15-1.45Z"/><path class="cls-3" d="M435.1,616V463.72H561v25.76H469.39v33.76h85.26V548.9H469.39v41.45h94.88V616Z"/><path class="cls-3" d="M617.21,616,576.66,463.72h35.1l25.6,104.61,31-104.61h40.78L739,570.09,765,463.72h34.52L758.3,616H721.93L688.1,502.15,654.39,616Z"/><path class="cls-4" d="M352.9,888.12V837.86h16.28q9.26,0,12.07.75a13.22,13.22,0,0,1,7.23,4.92,15.63,15.63,0,0,1,2.91,9.79,16.49,16.49,0,0,1-1.67,7.78,13.8,13.8,0,0,1-4.27,5,14.73,14.73,0,0,1-5.27,2.38,57.87,57.87,0,0,1-10.52.72H363v19ZM363,846.36v14.26h5.56q6,0,8-.79a6.62,6.62,0,0,0,3.17-2.46,6.74,6.74,0,0,0,1.15-3.91,6.52,6.52,0,0,0-1.61-4.53,7.12,7.12,0,0,0-4.08-2.23,50.17,50.17,0,0,0-7.3-.34Z"/><path class="cls-4" d="M399.93,888.12V838.27h10.15v41.38h25.23v8.47Z"/><path class="cls-4" d="M487.79,888.12h-11l-4.38-11.42H452.28l-4.15,11.42H437.36l19.58-50.26h10.73Zm-18.68-19.89-6.93-18.65-6.78,18.65Z"/><path class="cls-4" d="M499.21,888.12V846.36H484.29v-8.5h39.94v8.5H509.35v41.76Z"/><path class="cls-4" d="M530.78,888.12V837.86h34.45v8.5H540.92v11.9h21v8.5h-21v21.36Z"/><path class="cls-4" d="M571.47,863.3a32,32,0,0,1,2.3-12.89,23.48,23.48,0,0,1,4.68-6.89,19.4,19.4,0,0,1,6.49-4.53,27.69,27.69,0,0,1,10.84-2q11.1,0,17.77,6.89t6.67,19.17q0,12.16-6.62,19T595.91,889q-11.2,0-17.82-6.84T571.47,863.3Zm10.46-.35q0,8.53,3.94,12.95a13.56,13.56,0,0,0,20,0c2.59-2.91,3.89-7.29,3.89-13.11s-1.27-10.06-3.79-12.89a14,14,0,0,0-20.18.05Q581.94,854.29,581.93,863Z"/><path class="cls-4" d="M628.1,888.12V837.86h21.36q8.06,0,11.71,1.35A11.58,11.58,0,0,1,667,844,14.51,14.51,0,0,1,669.2,852a13.43,13.43,0,0,1-3.32,9.34q-3.33,3.69-9.94,4.65a23.79,23.79,0,0,1,5.43,4.21,56.73,56.73,0,0,1,5.78,8.16l6.13,9.81H661.15l-7.34-10.94a70.24,70.24,0,0,0-5.35-7.39,7.85,7.85,0,0,0-3.05-2.09,17,17,0,0,0-5.11-.56h-2v21Zm10.15-29h7.51q7.29,0,9.11-.61a5.44,5.44,0,0,0,2.85-2.13,6.49,6.49,0,0,0,1-3.77,6,6,0,0,0-1.36-4.1,6.22,6.22,0,0,0-3.82-2q-1.23-.16-7.4-.17h-7.92Z"/><path class="cls-4" d="M678.56,888.12V837.86h15.19l9.12,34.28,9-34.28H727.1v50.26h-9.42V848.56l-10,39.56h-9.77L688,848.56v39.56Z"/><path class="cls-4" d="M416.81,963.34V921.59H401.9v-8.51h39.94v8.51H427v41.75Z"/><path class="cls-4" d="M448.35,963.34V913.08H458.5v19.78h19.88V913.08h10.15v50.26H478.38v-22H458.5v22Z"/><path class="cls-4" d="M499,963.34V913.08h21.36q8.05,0,11.71,1.36a11.56,11.56,0,0,1,5.84,4.81,14.51,14.51,0,0,1,2.2,7.92,13.43,13.43,0,0,1-3.33,9.35q-3.32,3.68-9.94,4.64a23.6,23.6,0,0,1,5.43,4.22,56.73,56.73,0,0,1,5.78,8.16l6.14,9.8H532l-7.34-10.94a70.16,70.16,0,0,0-5.34-7.38,7.7,7.7,0,0,0-3.05-2.09,16.65,16.65,0,0,0-5.11-.57h-2.06v21Zm10.15-29h7.51q7.3,0,9.12-.62a5.45,5.45,0,0,0,2.84-2.12,6.55,6.55,0,0,0,1-3.78,6,6,0,0,0-1.35-4.09,6.22,6.22,0,0,0-3.83-2c-.82-.12-3.29-.17-7.4-.17h-7.92Z"/><path class="cls-4" d="M549.58,963.34V913.08h37.26v8.51H559.73v11.14H585v8.46H559.73v13.68H587.8v8.47Z"/><path class="cls-4" d="M641.66,963.34h-11l-4.39-11.42H606.14L602,963.34H591.23l19.58-50.26h10.73ZM623,943.46l-6.93-18.65-6.79,18.65Z"/><path class="cls-4" d="M653.07,963.34V921.59H638.16v-8.51H678.1v8.51H663.22v41.75Z"/><rect class="cls-5" width="1080" height="1080"/><path class="cls-4" d="M365.38,90.76h18.49a36.42,36.42,0,0,1,9.53.95A16.84,16.84,0,0,1,401,96.33a21.86,21.86,0,0,1,4.78,8.12,36.8,36.8,0,0,1,1.64,11.84A32.77,32.77,0,0,1,405.84,127a22.12,22.12,0,0,1-5.36,8.86,17.87,17.87,0,0,1-7.11,4,30.49,30.49,0,0,1-9,1.06h-19Zm10.11,8.47v33.19h7.56a27.58,27.58,0,0,0,6.12-.48,9.3,9.3,0,0,0,4.08-2.08A10.68,10.68,0,0,0,395.9,125a32.82,32.82,0,0,0,1-9.18,30.12,30.12,0,0,0-1-8.92,11.53,11.53,0,0,0-2.87-4.85,9.63,9.63,0,0,0-4.69-2.36,45.67,45.67,0,0,0-8.3-.48Z"/><path class="cls-4" d="M415.65,140.86V90.76h10.12v50.1Z"/><path class="cls-4" d="M435.44,140.86V90.76h21.3q8,0,11.67,1.35a11.52,11.52,0,0,1,5.83,4.8,14.41,14.41,0,0,1,2.19,7.89,13.4,13.4,0,0,1-3.32,9.32q-3.32,3.67-9.91,4.63a24,24,0,0,1,5.42,4.2,57.94,57.94,0,0,1,5.76,8.14l6.11,9.77h-12.1L461.08,130a71.09,71.09,0,0,0-5.33-7.36,7.78,7.78,0,0,0-3-2.09,16.64,16.64,0,0,0-5.1-.56h-2.05v20.91ZM445.56,112h7.49q7.27,0,9.09-.62a5.43,5.43,0,0,0,2.84-2.12,6.53,6.53,0,0,0,1-3.76,6,6,0,0,0-1.35-4.08,6.22,6.22,0,0,0-3.81-2q-1.23-.16-7.38-.17h-7.9Z"/><path class="cls-4" d="M486,140.86V90.76h37.16v8.47h-27v11.11h25.16v8.44H496.08v13.64h28v8.44Z"/><path class="cls-4" d="M564.71,122.44l9.81,3.11q-2.25,8.21-7.5,12.19t-13.31,4a21.53,21.53,0,0,1-16.41-6.82q-6.42-6.83-6.43-18.64,0-12.51,6.46-19.44t17-6.92q9.2,0,14.94,5.44a19.66,19.66,0,0,1,5.12,9.23l-10,2.39a10.36,10.36,0,0,0-10.56-8.41,11.38,11.38,0,0,0-9,4q-3.46,4-3.47,13,0,9.51,3.42,13.54a11.09,11.09,0,0,0,8.88,4,10.13,10.13,0,0,0,6.94-2.56Q563.45,127.95,564.71,122.44Z"/><path class="cls-4" d="M594.48,140.86V99.23H579.61V90.76h39.82v8.47H604.6v41.63Z"/><path class="cls-4" d="M626,140.86V90.76h37.16v8.47h-27v11.11h25.16v8.44H636.08v13.64h28v8.44Z"/><path class="cls-4" d="M672.62,90.76h18.49a36.42,36.42,0,0,1,9.53.95,16.84,16.84,0,0,1,7.56,4.62,21.86,21.86,0,0,1,4.78,8.12,36.8,36.8,0,0,1,1.64,11.84A33.06,33.06,0,0,1,713.09,127a22.25,22.25,0,0,1-5.37,8.86,17.87,17.87,0,0,1-7.11,4,30.46,30.46,0,0,1-9,1.06h-19Zm10.11,8.47v33.19h7.56a27.58,27.58,0,0,0,6.12-.48,9.3,9.3,0,0,0,4.08-2.08,10.58,10.58,0,0,0,2.65-4.84,32.77,32.77,0,0,0,1-9.18,30.07,30.07,0,0,0-1-8.92,11.43,11.43,0,0,0-2.87-4.85,9.64,9.64,0,0,0-4.68-2.36,45.88,45.88,0,0,0-8.31-.48Z"/><path class="cls-4" d="M394.7,204.87v-50.1h37.16v8.47h-27v11.11H430v8.44H404.82v13.64h28v8.44Z"/><path class="cls-4" d="M441.49,204.87v-50.1h9.85l20.51,33.46V154.77h9.4v50.1H471.09l-20.2-32.67v32.67Z"/><path class="cls-4" d="M491.94,204.87v-50.1H529.1v8.47h-27v11.11h25.16v8.44H502.06v13.64h28v8.44Z"/><path class="cls-4" d="M538.67,204.87v-50.1H560q8,0,11.67,1.35a11.52,11.52,0,0,1,5.83,4.8,14.41,14.41,0,0,1,2.19,7.89,13.4,13.4,0,0,1-3.32,9.32q-3.32,3.68-9.91,4.63a24,24,0,0,1,5.42,4.2,57.94,57.94,0,0,1,5.76,8.14l6.12,9.77h-12.1L564.3,194A71.26,71.26,0,0,0,559,186.6a7.86,7.86,0,0,0-3-2.08,16.6,16.6,0,0,0-5.1-.56h-2.05v20.91ZM548.78,176h7.49q7.28,0,9.09-.62a5.43,5.43,0,0,0,2.84-2.12,6.53,6.53,0,0,0,1-3.76,6,6,0,0,0-1.35-4.08,6.22,6.22,0,0,0-3.81-2q-1.23-.16-7.38-.17h-7.9Z"/><path class="cls-4" d="M612.5,186.45V178h21.8v20a27.47,27.47,0,0,1-9.21,5.42,33.52,33.52,0,0,1-12.22,2.34,27.38,27.38,0,0,1-13.7-3.3,21,21,0,0,1-8.79-9.43,30.49,30.49,0,0,1-2.94-13.35,28.9,28.9,0,0,1,3.28-13.91,22.05,22.05,0,0,1,9.61-9.33,25.81,25.81,0,0,1,12-2.5q9.33,0,14.58,3.91a17.67,17.67,0,0,1,6.75,10.82l-10,1.88a10.54,10.54,0,0,0-4-5.82,12,12,0,0,0-7.3-2.14q-6.63,0-10.54,4.2c-2.61,2.81-3.91,7-3.91,12.48q0,8.92,4,13.38a13.25,13.25,0,0,0,10.39,4.46,17.52,17.52,0,0,0,6.38-1.25,22,22,0,0,0,5.48-3v-6.36Z"/><path class="cls-4" d="M656.79,204.87V183.78l-18.35-29H650.3l11.79,19.82,11.55-19.82H685.3l-18.42,29.08v21Z"/><path class="cls-4" d="M373,268.87l-12-50.11h10.36l7.55,34.42,9.16-34.42h12l8.78,35,7.69-35h10.19l-12.17,50.11H403.85l-10-37.47-9.94,37.47Z"/><path class="cls-4" d="M431.91,268.87V218.76h37.15v8.47H442v11.11h25.16v8.45H442v13.63h28v8.45Z"/><path class="cls-4" d="M523.78,268.87h-11l-4.38-11.39h-20l-4.13,11.39H473.5L493,218.76h10.7ZM505.15,249l-6.9-18.59L491.48,249Z"/><path class="cls-4" d="M529.15,268.87V218.76h16.23q9.24,0,12,.75a13.16,13.16,0,0,1,7.22,4.9,15.62,15.62,0,0,1,2.9,9.76,16.4,16.4,0,0,1-1.67,7.76,13.79,13.79,0,0,1-4.26,4.94,14.65,14.65,0,0,1-5.25,2.38,58.6,58.6,0,0,1-10.49.71h-6.59v18.91Zm10.12-41.64v14.22h5.53q6,0,8-.78a6.59,6.59,0,0,0,4.31-6.36,6.47,6.47,0,0,0-1.61-4.51,6.94,6.94,0,0,0-4.07-2.22,47.84,47.84,0,0,0-7.28-.35Z"/><path class="cls-4" d="M573.79,244.12a31.81,31.81,0,0,1,2.29-12.85,23.65,23.65,0,0,1,4.66-6.87,19.45,19.45,0,0,1,6.48-4.51,27.34,27.34,0,0,1,10.8-2q11.07,0,17.72,6.87t6.65,19.11q0,12.13-6.6,19t-17.63,6.85q-11.17,0-17.78-6.82T573.79,244.12Zm10.42-.34q0,8.5,3.93,12.9a12.8,12.8,0,0,0,10,4.39,12.67,12.67,0,0,0,9.93-4.36q3.88-4.35,3.88-13.07t-3.78-12.85a14,14,0,0,0-20.11.05Q584.22,235.13,584.21,243.78Z"/><path class="cls-4" d="M630.39,268.87V218.76h9.84l20.51,33.46V218.76h9.4v50.11H660l-20.2-32.68v32.68Z"/><path class="cls-4" d="M678.27,252.56l9.85-1q.89,5,3.6,7.28a10.93,10.93,0,0,0,7.34,2.33c3.25,0,5.71-.69,7.36-2.07a6.16,6.16,0,0,0,2.48-4.84,4.58,4.58,0,0,0-1-3,8.34,8.34,0,0,0-3.64-2.17q-1.79-.62-8.1-2.19-8.14-2-11.42-4.95a13,13,0,0,1-4.61-10.09,12.85,12.85,0,0,1,2.17-7.16,13.54,13.54,0,0,1,6.25-5.07,24.91,24.91,0,0,1,9.86-1.75q9.43,0,14.2,4.14a14.61,14.61,0,0,1,5,11l-10.12.44a8.6,8.6,0,0,0-2.78-5.55c-1.43-1.13-3.56-1.69-6.41-1.69a11.58,11.58,0,0,0-6.91,1.81,3.64,3.64,0,0,0-1.6,3.11,3.85,3.85,0,0,0,1.5,3q1.92,1.6,9.3,3.35a48.56,48.56,0,0,1,10.92,3.61,14.12,14.12,0,0,1,5.54,5.09,14.9,14.9,0,0,1,2,8,14.75,14.75,0,0,1-2.4,8.07,14.37,14.37,0,0,1-6.76,5.59A28.62,28.62,0,0,1,699,269.75q-9.5,0-14.59-4.39T678.27,252.56Z"/></svg>