<svg id="Layer_1" data-name="Layer 1" xmlns="http://www.w3.org/2000/svg" viewBox="0 0 1080 1080"><defs><style>.cls-1{fill:#ed2024;}.cls-2,.cls-5{fill:none;}.cls-2{stroke:#231f20;stroke-miterlimit:10;stroke-width:0.5px;}.cls-3{fill:#231f20;}.cls-4{fill:#fff;}</style></defs><title>Untitled-2</title><rect class="cls-1" x="271.9" y="71.51" width="536.2" height="216.64"/><rect class="cls-1" x="271.9" y="791.85" width="536.2" height="216.64"/><polygon class="cls-2" points="808.1 791.66 271.9 791.85 271.9 288.15 808.1 288.15 808.1 791.66"/><path class="cls-3" d="M286.92,771.13V309.37H618.18v78.11H377.12V489.85H601.41v77.8H377.12V693.33H626.71v77.8Z"/><path class="cls-3" d="M702.88,770.63V308.87h90.2V770.63Z"/><path class="cls-4" d="M352.9,888.12V837.86h16.28q9.26,0,12.07.75a13.22,13.22,0,0,1,7.23,4.92,15.63,15.63,0,0,1,2.91,9.79,16.49,16.49,0,0,1-1.67,7.78,13.8,13.8,0,0,1-4.27,5,14.73,14.73,0,0,1-5.27,2.38,57.87,57.87,0,0,1-10.52.72H363v19ZM363,846.36v14.26h5.56q6,0,8-.79a6.62,6.62,0,0,0,3.17-2.46,6.74,6.74,0,0,0,1.15-3.91,6.52,6.52,0,0,0-1.61-4.53,7.12,7.12,0,0,0-4.08-2.23,50.17,50.17,0,0,0-7.3-.34Z"/><path class="cls-4" d="M399.93,888.12V838.27h10.15v41.38h25.23v8.47Z"/><path class="cls-4" d="M487.79,888.12h-11l-4.38-11.42H452.28l-4.15,11.42H437.36l19.58-50.26h10.73Zm-18.68-19.89-6.93-18.65-6.78,18.65Z"/><path class="cls-4" d="M499.21,888.12V846.36H484.29v-8.5h39.94v8.5H509.35v41.76Z"/><path class="cls-4" d="M530.78,888.12V837.86h34.45v8.5H540.92v11.9h21v8.5h-21v21.36Z"/><path class="cls-4" d="M571.47,863.3a32,32,0,0,1,2.3-12.89,23.48,23.48,0,0,1,4.68-6.89,19.4,19.4,0,0,1,6.49-4.53,27.69,27.69,0,0,1,10.84-2q11.1,0,17.77,6.89t6.67,19.17q0,12.16-6.62,19T595.91,889q-11.2,0-17.82-6.84T571.47,863.3Zm10.46-.35q0,8.53,3.94,12.95a13.56,13.56,0,0,0,20,0c2.59-2.91,3.89-7.29,3.89-13.11s-1.27-10.06-3.79-12.89a14,14,0,0,0-20.18.05Q581.94,854.29,581.93,863Z"/><path class="cls-4" d="M628.1,888.12V837.86h21.36q8.06,0,11.71,1.35A11.58,11.58,0,0,1,667,844,14.51,14.51,0,0,1,669.2,852a13.43,13.43,0,0,1-3.32,9.34q-3.33,3.69-9.94,4.65a23.79,23.79,0,0,1,5.43,4.21,56.73,56.73,0,0,1,5.78,8.16l6.13,9.81H661.15l-7.34-10.94a70.24,70.24,0,0,0-5.35-7.39,7.85,7.85,0,0,0-3.05-2.09,17,17,0,0,0-5.11-.56h-2v21Zm10.15-29h7.51q7.29,0,9.11-.61a5.44,5.44,0,0,0,2.85-2.13,6.49,6.49,0,0,0,1-3.77,6,6,0,0,0-1.36-4.1,6.22,6.22,0,0,0-3.82-2q-1.23-.16-7.4-.17h-7.92Z"/><path class="cls-4" d="M678.56,888.12V837.86h15.19l9.12,34.28,9-34.28H727.1v50.26h-9.42V848.56l-10,39.56h-9.77L688,848.56v39.56Z"/><path class="cls-4" d="M416.81,963.34V921.59H401.9v-8.51h39.94v8.51H427v41.75Z"/><path class="cls-4" d="M448.35,963.34V913.08H458.5v19.78h19.88V913.08h10.15v50.26H478.38v-22H458.5v22Z"/><path class="cls-4" d="M499,963.34V913.08h21.36q8.05,0,11.71,1.36a11.56,11.56,0,0,1,5.84,4.81,14.51,14.51,0,0,1,2.2,7.92,13.43,13.43,0,0,1-3.33,9.35q-3.32,3.68-9.94,4.64a23.6,23.6,0,0,1,5.43,4.22,56.73,56.73,0,0,1,5.78,8.16l6.14,9.8H532l-7.34-10.94a70.16,70.16,0,0,0-5.34-7.38,7.7,7.7,0,0,0-3.05-2.09,16.65,16.65,0,0,0-5.11-.57h-2.06v21Zm10.15-29h7.51q7.3,0,9.12-.62a5.45,5.45,0,0,0,2.84-2.12,6.55,6.55,0,0,0,1-3.78,6,6,0,0,0-1.35-4.09,6.22,6.22,0,0,0-3.83-2c-.82-.12-3.29-.17-7.4-.17h-7.92Z"/><path class="cls-4" d="M549.58,963.34V913.08h37.26v8.51H559.73v11.14H585v8.46H559.73v13.68H587.8v8.47Z"/><path class="cls-4" d="M641.66,963.34h-11l-4.39-11.42H606.14L602,963.34H591.23l19.58-50.26h10.73ZM623,943.46l-6.93-18.65-6.79,18.65Z"/><path class="cls-4" d="M653.07,963.34V921.59H638.16v-8.51H678.1v8.51H663.22v41.75Z"/><rect class="cls-5" width="1080" height="1080"/><path class="cls-4" d="M305.23,166.72v-49H341.6V126H315.13v10.87h24.63v8.27H315.13v13.35h27.4v8.26Z"/><path class="cls-4" d="M351.2,166.72V118.07h9.9v40.39h24.63v8.26Z"/><path class="cls-4" d="M392.79,166.72v-49h36.37V126H402.69v10.87h24.63v8.27H402.69v13.35h27.4v8.26Z"/><path class="cls-4" d="M469.87,148.69l9.61,3q-2.22,8-7.35,11.93t-13,3.9A21.1,21.1,0,0,1,443,160.88q-6.29-6.67-6.29-18.25,0-12.24,6.32-19t16.63-6.78q9,0,14.62,5.32a19.33,19.33,0,0,1,5,9l-9.8,2.34a10.14,10.14,0,0,0-10.34-8.23,11.14,11.14,0,0,0-8.85,3.91q-3.39,3.91-3.4,12.68,0,9.31,3.35,13.25a10.84,10.84,0,0,0,8.7,4,9.94,9.94,0,0,0,6.79-2.51Q468.64,154.07,469.87,148.69Z"/><path class="cls-4" d="M499,166.72V126H484.46v-8.3h39V126H508.92v40.75Z"/><path class="cls-4" d="M529.86,166.72v-49h20.85q7.86,0,11.42,1.32a11.28,11.28,0,0,1,5.71,4.7,14.21,14.21,0,0,1,2.14,7.73,13.08,13.08,0,0,1-3.25,9.12q-3.24,3.6-9.7,4.53a22.91,22.91,0,0,1,5.3,4.12,55,55,0,0,1,5.64,8l6,9.57H562.12L555,156.05a70.42,70.42,0,0,0-5.22-7.21,7.45,7.45,0,0,0-3-2,16.23,16.23,0,0,0-5-.56h-2v20.48Zm9.91-28.31h7.32q7.13,0,8.9-.6a5.35,5.35,0,0,0,2.78-2.07,6.38,6.38,0,0,0,1-3.68,5.88,5.88,0,0,0-1.32-4,6,6,0,0,0-3.73-1.92c-.8-.12-3.21-.17-7.23-.17h-7.72Z"/><path class="cls-4" d="M577.31,142.5a31.09,31.09,0,0,1,2.24-12.58,23,23,0,0,1,4.56-6.73,19.1,19.1,0,0,1,6.34-4.41,26.84,26.84,0,0,1,10.58-2q10.83,0,17.34,6.73t6.51,18.7q0,11.88-6.46,18.59t-17.26,6.71q-10.93,0-17.4-6.68T577.31,142.5Zm10.2-.34q0,8.34,3.85,12.63a13.23,13.23,0,0,0,19.49,0q3.79-4.28,3.79-12.8T611,129.45a13.7,13.7,0,0,0-19.69.05Q587.51,133.7,587.51,142.16Z"/><path class="cls-4" d="M632.71,166.72v-49h9.64l20.07,32.76V117.67h9.2v49.05h-9.94l-19.77-32v32Z"/><path class="cls-4" d="M681.79,166.72v-49h9.91v49.05Z"/><path class="cls-4" d="M732.51,148.69l9.61,3q-2.22,8-7.35,11.93t-13,3.9a21.1,21.1,0,0,1-16.06-6.68q-6.28-6.67-6.29-18.25,0-12.24,6.32-19t16.63-6.78q9,0,14.62,5.32a19.33,19.33,0,0,1,5,9l-9.8,2.34a10.14,10.14,0,0,0-10.34-8.23,11.14,11.14,0,0,0-8.85,3.91q-3.39,3.91-3.39,12.68,0,9.31,3.34,13.25a10.84,10.84,0,0,0,8.7,4,9.92,9.92,0,0,0,6.79-2.51Q731.28,154.07,732.51,148.69Z"/><path class="cls-4" d="M277.56,242V192.94h9.9V242Z"/><path class="cls-4" d="M297,242V192.94h9.63l20.08,32.75V192.94h9.2V242H326L306.2,210v32Z"/><path class="cls-4" d="M357.42,242V201.23H342.87v-8.29h39v8.29H367.33V242Z"/><path class="cls-4" d="M388.24,242V192.94h36.37v8.29H398.14v10.88h24.63v8.26H398.14v13.35h27.4V242Z"/><path class="cls-4" d="M434,242V192.94h20.85q7.86,0,11.42,1.32A11.28,11.28,0,0,1,472,199a14.19,14.19,0,0,1,2.14,7.73,13,13,0,0,1-3.25,9.11q-3.24,3.6-9.7,4.54a23.16,23.16,0,0,1,5.3,4.11,55.19,55.19,0,0,1,5.64,8l6,9.57H466.23l-7.16-10.68a72.94,72.94,0,0,0-5.22-7.21,7.66,7.66,0,0,0-3-2,16.3,16.3,0,0,0-5-.55h-2V242Zm9.91-28.31h7.32q7.13,0,8.9-.6a5.27,5.27,0,0,0,2.78-2.08,6.36,6.36,0,0,0,1-3.68,5.86,5.86,0,0,0-1.32-4,6,6,0,0,0-3.73-1.93q-1.2-.17-7.22-.17h-7.73Z"/><path class="cls-4" d="M483.49,242V192.94h33.63v8.29H493.39v11.61h20.48v8.3H493.39V242Z"/><path class="cls-4" d="M525.28,242V192.94h36.37v8.29H535.18v10.88h24.63v8.26H535.18v13.35h27.4V242Z"/><path class="cls-4" d="M571,242V192.94h20.84q7.86,0,11.43,1.32A11.3,11.3,0,0,1,609,199a14.1,14.1,0,0,1,2.14,7.73,13.08,13.08,0,0,1-3.24,9.11q-3.25,3.6-9.71,4.54a23.45,23.45,0,0,1,5.31,4.11,56.14,56.14,0,0,1,5.63,8l6,9.57H603.27l-7.16-10.68a69.63,69.63,0,0,0-5.22-7.21,7.66,7.66,0,0,0-3-2,16.27,16.27,0,0,0-5-.55h-2V242Zm9.9-28.31h7.33c4.75,0,7.71-.2,8.9-.6a5.29,5.29,0,0,0,2.77-2.08,6.36,6.36,0,0,0,1-3.68,5.81,5.81,0,0,0-1.33-4,6,6,0,0,0-3.73-1.93q-1.2-.17-7.22-.17h-7.73Z"/><path class="cls-4" d="M620.47,242V192.94h36.36v8.29H630.37v10.88H655v8.26H630.37v13.35h27.4V242Z"/><path class="cls-4" d="M666.27,242V192.94h9.63L696,225.69V192.94h9.2V242h-9.94l-19.77-32v32Z"/><path class="cls-4" d="M747,224l9.61,3.05q-2.22,8-7.35,11.92t-13,3.9a21.09,21.09,0,0,1-16.06-6.67q-6.29-6.68-6.29-18.25,0-12.26,6.33-19t16.62-6.78q9,0,14.62,5.32a19.34,19.34,0,0,1,5,9l-9.8,2.35a10.11,10.11,0,0,0-10.34-8.23,11.17,11.17,0,0,0-8.85,3.91q-3.39,3.92-3.39,12.68,0,9.3,3.34,13.25a10.87,10.87,0,0,0,8.7,4,9.92,9.92,0,0,0,6.79-2.51Q745.8,229.33,747,224Z"/><path class="cls-4" d="M765.13,242V192.94H801.5v8.29H775v10.88h24.62v8.26H775v13.35h27.4V242Z"/></svg>