<svg id="Layer_1" data-name="Layer 1" xmlns="http://www.w3.org/2000/svg" viewBox="0 0 1080 1080"><defs><style>.cls-1{fill:#ed2024;}.cls-2,.cls-5{fill:none;}.cls-2{stroke:#231f20;stroke-miterlimit:10;stroke-width:0.5px;}.cls-3{fill:#231f20;}.cls-4{fill:#fff;}</style></defs><title>Untitled-2</title><rect class="cls-1" x="271.9" y="71.51" width="536.2" height="216.64"/><rect class="cls-1" x="271.9" y="791.85" width="536.2" height="216.64"/><polygon class="cls-2" points="808.1 791.66 271.9 791.85 271.9 288.15 808.1 288.15 808.1 791.66"/><path class="cls-3" d="M298.6,762.4V321.68h89.72V687.54H611.41V762.4Z"/><path class="cls-3" d="M691.68,762V317.6H781.4V762Z"/><path class="cls-4" d="M352.9,888.12V837.86h16.28q9.26,0,12.07.75a13.22,13.22,0,0,1,7.23,4.92,15.63,15.63,0,0,1,2.91,9.79,16.49,16.49,0,0,1-1.67,7.78,13.8,13.8,0,0,1-4.27,5,14.73,14.73,0,0,1-5.27,2.38,57.87,57.87,0,0,1-10.52.72H363v19ZM363,846.36v14.26h5.56q6,0,8-.79a6.62,6.62,0,0,0,3.17-2.46,6.74,6.74,0,0,0,1.15-3.91,6.52,6.52,0,0,0-1.61-4.53,7.12,7.12,0,0,0-4.08-2.23,50.17,50.17,0,0,0-7.3-.34Z"/><path class="cls-4" d="M399.93,888.12V838.27h10.15v41.38h25.23v8.47Z"/><path class="cls-4" d="M487.79,888.12h-11l-4.38-11.42H452.28l-4.15,11.42H437.36l19.58-50.26h10.73Zm-18.68-19.89-6.93-18.65-6.78,18.65Z"/><path class="cls-4" d="M499.21,888.12V846.36H484.29v-8.5h39.94v8.5H509.35v41.76Z"/><path class="cls-4" d="M530.78,888.12V837.86h34.45v8.5H540.92v11.9h21v8.5h-21v21.36Z"/><path class="cls-4" d="M571.47,863.3a32,32,0,0,1,2.3-12.89,23.48,23.48,0,0,1,4.68-6.89,19.4,19.4,0,0,1,6.49-4.53,27.69,27.69,0,0,1,10.84-2q11.1,0,17.77,6.89t6.67,19.17q0,12.16-6.62,19T595.91,889q-11.2,0-17.82-6.84T571.47,863.3Zm10.46-.35q0,8.53,3.94,12.95a13.56,13.56,0,0,0,20,0c2.59-2.91,3.89-7.29,3.89-13.11s-1.27-10.06-3.79-12.89a14,14,0,0,0-20.18.05Q581.94,854.29,581.93,863Z"/><path class="cls-4" d="M628.1,888.12V837.86h21.36q8.06,0,11.71,1.35A11.58,11.58,0,0,1,667,844,14.51,14.51,0,0,1,669.2,852a13.43,13.43,0,0,1-3.32,9.34q-3.33,3.69-9.94,4.65a23.79,23.79,0,0,1,5.43,4.21,56.73,56.73,0,0,1,5.78,8.16l6.13,9.81H661.15l-7.34-10.94a70.24,70.24,0,0,0-5.35-7.39,7.85,7.85,0,0,0-3.05-2.09,17,17,0,0,0-5.11-.56h-2v21Zm10.15-29h7.51q7.29,0,9.11-.61a5.44,5.44,0,0,0,2.85-2.13,6.49,6.49,0,0,0,1-3.77,6,6,0,0,0-1.36-4.1,6.22,6.22,0,0,0-3.82-2q-1.23-.16-7.4-.17h-7.92Z"/><path class="cls-4" d="M678.56,888.12V837.86h15.19l9.12,34.28,9-34.28H727.1v50.26h-9.42V848.56l-10,39.56h-9.77L688,848.56v39.56Z"/><path class="cls-4" d="M416.81,963.34V921.59H401.9v-8.51h39.94v8.51H427v41.75Z"/><path class="cls-4" d="M448.35,963.34V913.08H458.5v19.78h19.88V913.08h10.15v50.26H478.38v-22H458.5v22Z"/><path class="cls-4" d="M499,963.34V913.08h21.36q8.05,0,11.71,1.36a11.56,11.56,0,0,1,5.84,4.81,14.51,14.51,0,0,1,2.2,7.92,13.43,13.43,0,0,1-3.33,9.35q-3.32,3.68-9.94,4.64a23.6,23.6,0,0,1,5.43,4.22,56.73,56.73,0,0,1,5.78,8.16l6.14,9.8H532l-7.34-10.94a70.16,70.16,0,0,0-5.34-7.38,7.7,7.7,0,0,0-3.05-2.09,16.65,16.65,0,0,0-5.11-.57h-2.06v21Zm10.15-29h7.51q7.3,0,9.12-.62a5.45,5.45,0,0,0,2.84-2.12,6.55,6.55,0,0,0,1-3.78,6,6,0,0,0-1.35-4.09,6.22,6.22,0,0,0-3.83-2c-.82-.12-3.29-.17-7.4-.17h-7.92Z"/><path class="cls-4" d="M549.58,963.34V913.08h37.26v8.51H559.73v11.14H585v8.46H559.73v13.68H587.8v8.47Z"/><path class="cls-4" d="M641.66,963.34h-11l-4.39-11.42H606.14L602,963.34H591.23l19.58-50.26h10.73ZM623,943.46l-6.93-18.65-6.79,18.65Z"/><path class="cls-4" d="M653.07,963.34V921.59H638.16v-8.51H678.1v8.51H663.22v41.75Z"/><rect class="cls-5" width="1080" height="1080"/><path class="cls-4" d="M426.92,169.91V121.36h9.88v40.3h24.58v8.25Z"/><path class="cls-4" d="M512.57,169.91H501.82l-4.28-11.12H478l-4,11.12H463.45L482.52,121H493Zm-18.2-19.37-6.74-18.16L481,150.54Z"/><path class="cls-4" d="M515.31,154l9.61-.94q.87,4.85,3.53,7.12a10.66,10.66,0,0,0,7.16,2.27c3.18,0,5.58-.68,7.19-2a6,6,0,0,0,2.43-4.73,4.43,4.43,0,0,0-1-3,8.09,8.09,0,0,0-3.56-2.12c-1.16-.4-3.79-1.12-7.91-2.14q-7.95-2-11.16-4.84a12.76,12.76,0,0,1-4.5-9.85,12.53,12.53,0,0,1,2.12-7,13.29,13.29,0,0,1,6.11-5,24.58,24.58,0,0,1,9.63-1.7q9.22,0,13.87,4a14.26,14.26,0,0,1,4.9,10.79l-9.89.43A8.4,8.4,0,0,0,541.1,130q-2.08-1.65-6.26-1.65a11.27,11.27,0,0,0-6.74,1.77,3.56,3.56,0,0,0-1.57,3,3.75,3.75,0,0,0,1.47,3q1.86,1.57,9.08,3.27a47.86,47.86,0,0,1,10.67,3.53,13.82,13.82,0,0,1,5.41,5,14.58,14.58,0,0,1,2,7.8,14.42,14.42,0,0,1-2.34,7.88,14,14,0,0,1-6.61,5.46,27.75,27.75,0,0,1-10.65,1.78q-9.28,0-14.26-4.29T515.31,154Z"/><path class="cls-4" d="M563.42,169.91V121h36.3v8.28H573.31v10.85h24.57v8.25H573.31v13.32h27.34v8.25Z"/><path class="cls-4" d="M609.07,169.91V121h20.8q7.85,0,11.41,1.31A11.28,11.28,0,0,1,647,127a14.12,14.12,0,0,1,2.14,7.71,13.07,13.07,0,0,1-3.24,9.1q-3.24,3.58-9.69,4.52a23.38,23.38,0,0,1,5.3,4.11,55.79,55.79,0,0,1,5.62,8l6,9.55H641.26l-7.15-10.66a67.48,67.48,0,0,0-5.21-7.19,7.56,7.56,0,0,0-3-2,16.15,16.15,0,0,0-5-.55h-2v20.44ZM619,141.66h7.32q7.11,0,8.88-.6a5.32,5.32,0,0,0,2.77-2.07,6.38,6.38,0,0,0,1-3.68,5.89,5.89,0,0,0-1.32-4,6.08,6.08,0,0,0-3.72-1.92c-.8-.11-3.21-.16-7.21-.16H619Z"/><path class="cls-4" d="M278.08,238.7V189.75H288V238.7Z"/><path class="cls-4" d="M297.48,238.7V189.75h9.62l20,32.69V189.75h9.18V238.7H326.4l-19.74-31.92V238.7Z"/><path class="cls-4" d="M357.78,238.7V198H343.26v-8.28h38.9V198H367.67V238.7Z"/><path class="cls-4" d="M388.54,238.7V189.75h36.29V198H398.42v10.85H423v8.25H398.42v13.32h27.35v8.25Z"/><path class="cls-4" d="M434.18,238.7V189.75H455q7.85,0,11.4,1.32a11.22,11.22,0,0,1,5.69,4.69,14.06,14.06,0,0,1,2.14,7.71,13.05,13.05,0,0,1-3.24,9.1c-2.16,2.4-5.39,3.9-9.68,4.53a23,23,0,0,1,5.29,4.1,56.26,56.26,0,0,1,5.63,8l6,9.55H466.37l-7.14-10.65a70,70,0,0,0-5.21-7.2,7.57,7.57,0,0,0-3-2,16.27,16.27,0,0,0-5-.55h-2V238.7Zm9.89-28.25h7.31q7.11,0,8.88-.6a5.28,5.28,0,0,0,2.77-2.07,6.35,6.35,0,0,0,1-3.67,5.86,5.86,0,0,0-1.32-4A6,6,0,0,0,459,198.2q-1.2-.16-7.21-.17h-7.71Z"/><path class="cls-4" d="M483.6,238.7V189.75h33.56V198H493.49v11.59h20.43v8.28H493.49v20.8Z"/><path class="cls-4" d="M525.31,238.7V189.75H561.6V198H535.19v10.85h24.58v8.25H535.19v13.32h27.35v8.25Z"/><path class="cls-4" d="M571,238.7V189.75h20.81q7.85,0,11.4,1.32a11.22,11.22,0,0,1,5.69,4.69,14.06,14.06,0,0,1,2.14,7.71,13.05,13.05,0,0,1-3.24,9.1c-2.16,2.4-5.39,3.9-9.68,4.53a23,23,0,0,1,5.29,4.1,56.26,56.26,0,0,1,5.63,8l6,9.55H603.14L596,228.05a70,70,0,0,0-5.21-7.2,7.57,7.57,0,0,0-3-2,16.27,16.27,0,0,0-5-.55h-2V238.7Zm9.89-28.25h7.31q7.11,0,8.88-.6a5.28,5.28,0,0,0,2.77-2.07,6.35,6.35,0,0,0,1-3.67,5.86,5.86,0,0,0-1.32-4,6,6,0,0,0-3.73-1.92q-1.2-.16-7.21-.17h-7.71Z"/><path class="cls-4" d="M620.31,238.7V189.75H656.6V198H630.19v10.85h24.58v8.25H630.19v13.32h27.35v8.25Z"/><path class="cls-4" d="M666,238.7V189.75h9.61l20,32.69V189.75h9.18V238.7h-9.92L675.2,206.78V238.7Z"/><path class="cls-4" d="M746.62,220.7l9.59,3q-2.21,8-7.33,11.91t-13,3.89a21,21,0,0,1-16-6.67q-6.27-6.66-6.27-18.21,0-12.22,6.31-19t16.59-6.77q9,0,14.6,5.31a19.37,19.37,0,0,1,5,9l-9.78,2.34A10.12,10.12,0,0,0,736,197.36a11.15,11.15,0,0,0-8.83,3.91q-3.39,3.9-3.39,12.65,0,9.29,3.34,13.23a10.87,10.87,0,0,0,8.68,3.94,9.9,9.9,0,0,0,6.78-2.51C744.44,226.91,745.8,224.29,746.62,220.7Z"/><path class="cls-4" d="M764.69,238.7V189.75H801V198H774.57v10.85h24.58v8.25H774.57v13.32h27.35v8.25Z"/></svg>