<svg id="Layer_1" data-name="Layer 1" xmlns="http://www.w3.org/2000/svg" viewBox="0 0 1080 1080"><defs><style>.cls-1{fill:#ed2024;}.cls-2,.cls-5{fill:none;}.cls-2{stroke:#231f20;stroke-miterlimit:10;stroke-width:0.5px;}.cls-3{fill:#231f20;}.cls-4{fill:#fff;}</style></defs><title>Untitled-2</title><rect class="cls-1" x="271.9" y="71.51" width="536.2" height="216.64"/><rect class="cls-1" x="271.9" y="791.85" width="536.2" height="216.64"/><polygon class="cls-2" points="808.1 791.66 271.9 791.85 271.9 288.15 808.1 288.15 808.1 791.66"/><path class="cls-3" d="M348.43,738.34V341.66H468.3l72,270.59,71.16-270.59H731.57V738.34H657.16V426.09L578.42,738.34H501.31L422.84,426.09V738.34Z"/><path class="cls-4" d="M352.9,888.12V837.86h16.28q9.26,0,12.07.75a13.22,13.22,0,0,1,7.23,4.92,15.63,15.63,0,0,1,2.91,9.79,16.49,16.49,0,0,1-1.67,7.78,13.8,13.8,0,0,1-4.27,5,14.73,14.73,0,0,1-5.27,2.38,57.87,57.87,0,0,1-10.52.72H363v19ZM363,846.36v14.26h5.56q6,0,8-.79a6.62,6.62,0,0,0,3.17-2.46,6.74,6.74,0,0,0,1.15-3.91,6.52,6.52,0,0,0-1.61-4.53,7.12,7.12,0,0,0-4.08-2.23,50.17,50.17,0,0,0-7.3-.34Z"/><path class="cls-4" d="M399.93,888.12V838.27h10.15v41.38h25.23v8.47Z"/><path class="cls-4" d="M487.79,888.12h-11l-4.38-11.42H452.28l-4.15,11.42H437.36l19.58-50.26h10.73Zm-18.68-19.89-6.93-18.65-6.78,18.65Z"/><path class="cls-4" d="M499.21,888.12V846.36H484.29v-8.5h39.94v8.5H509.35v41.76Z"/><path class="cls-4" d="M530.78,888.12V837.86h34.45v8.5H540.92v11.9h21v8.5h-21v21.36Z"/><path class="cls-4" d="M571.47,863.3a32,32,0,0,1,2.3-12.89,23.48,23.48,0,0,1,4.68-6.89,19.4,19.4,0,0,1,6.49-4.53,27.69,27.69,0,0,1,10.84-2q11.1,0,17.77,6.89t6.67,19.17q0,12.16-6.62,19T595.91,889q-11.2,0-17.82-6.84T571.47,863.3Zm10.46-.35q0,8.53,3.94,12.95a13.56,13.56,0,0,0,20,0c2.59-2.91,3.89-7.29,3.89-13.11s-1.27-10.06-3.79-12.89a14,14,0,0,0-20.18.05Q581.94,854.29,581.93,863Z"/><path class="cls-4" d="M628.1,888.12V837.86h21.36q8.06,0,11.71,1.35A11.58,11.58,0,0,1,667,844,14.51,14.51,0,0,1,669.2,852a13.43,13.43,0,0,1-3.32,9.34q-3.33,3.69-9.94,4.65a23.79,23.79,0,0,1,5.43,4.21,56.73,56.73,0,0,1,5.78,8.16l6.13,9.81H661.15l-7.34-10.94a70.24,70.24,0,0,0-5.35-7.39,7.85,7.85,0,0,0-3.05-2.09,17,17,0,0,0-5.11-.56h-2v21Zm10.15-29h7.51q7.29,0,9.11-.61a5.44,5.44,0,0,0,2.85-2.13,6.49,6.49,0,0,0,1-3.77,6,6,0,0,0-1.36-4.1,6.22,6.22,0,0,0-3.82-2q-1.23-.16-7.4-.17h-7.92Z"/><path class="cls-4" d="M678.56,888.12V837.86h15.19l9.12,34.28,9-34.28H727.1v50.26h-9.42V848.56l-10,39.56h-9.77L688,848.56v39.56Z"/><path class="cls-4" d="M416.81,963.34V921.59H401.9v-8.51h39.94v8.51H427v41.75Z"/><path class="cls-4" d="M448.35,963.34V913.08H458.5v19.78h19.88V913.08h10.15v50.26H478.38v-22H458.5v22Z"/><path class="cls-4" d="M499,963.34V913.08h21.36q8.05,0,11.71,1.36a11.56,11.56,0,0,1,5.84,4.81,14.51,14.51,0,0,1,2.2,7.92,13.43,13.43,0,0,1-3.33,9.35q-3.32,3.68-9.94,4.64a23.6,23.6,0,0,1,5.43,4.22,56.73,56.73,0,0,1,5.78,8.16l6.14,9.8H532l-7.34-10.94a70.16,70.16,0,0,0-5.34-7.38,7.7,7.7,0,0,0-3.05-2.09,16.65,16.65,0,0,0-5.11-.57h-2.06v21Zm10.15-29h7.51q7.3,0,9.12-.62a5.45,5.45,0,0,0,2.84-2.12,6.55,6.55,0,0,0,1-3.78,6,6,0,0,0-1.35-4.09,6.22,6.22,0,0,0-3.83-2c-.82-.12-3.29-.17-7.4-.17h-7.92Z"/><path class="cls-4" d="M549.58,963.34V913.08h37.26v8.51H559.73v11.14H585v8.46H559.73v13.68H587.8v8.47Z"/><path class="cls-4" d="M641.66,963.34h-11l-4.39-11.42H606.14L602,963.34H591.23l19.58-50.26h10.73ZM623,943.46l-6.93-18.65-6.79,18.65Z"/><path class="cls-4" d="M653.07,963.34V921.59H638.16v-8.51H678.1v8.51H663.22v41.75Z"/><rect class="cls-5" width="1080" height="1080"/><path class="cls-4" d="M365.34,204.88V154.77h15.14l9.1,34.18,9-34.18h15.18v50.11h-9.4V165.44l-9.95,39.44h-9.74l-9.91-39.44v39.44Z"/><path class="cls-4" d="M469,204.88H458l-4.38-11.38h-20l-4.13,11.38H418.7l19.51-50.11h10.7Zm-18.62-19.82-6.91-18.6-6.77,18.6Z"/><path class="cls-4" d="M474.61,204.88v-49.7h10.12v41.26h25.16v8.44Z"/><path class="cls-4" d="M520.35,204.88l-12-50.11h10.36l7.55,34.42,9.16-34.42h12l8.78,35,7.69-35h10.19L562,204.88H551.25l-10-37.46-9.94,37.46Z"/><path class="cls-4" d="M620.63,204.88h-11l-4.37-11.38h-20l-4.14,11.38H570.35l19.52-50.11h10.7ZM602,185.06l-6.9-18.6-6.77,18.6Z"/><path class="cls-4" d="M626,204.88V154.77h21.29q8,0,11.68,1.35a11.51,11.51,0,0,1,5.82,4.81,14.41,14.41,0,0,1,2.19,7.89,13.39,13.39,0,0,1-3.31,9.32q-3.32,3.68-9.92,4.63a23.49,23.49,0,0,1,5.42,4.2,57.11,57.11,0,0,1,5.76,8.14l6.12,9.77H659L651.67,194a70.78,70.78,0,0,0-5.34-7.37,7.68,7.68,0,0,0-3-2.08,16.5,16.5,0,0,0-5.09-.57h-2.05v20.92ZM636.15,176h7.48q7.29,0,9.09-.62a5.45,5.45,0,0,0,2.84-2.12,6.46,6.46,0,0,0,1-3.76,6,6,0,0,0-1.35-4.08,6.22,6.22,0,0,0-3.81-2c-.82-.11-3.29-.17-7.39-.17h-7.89Z"/><path class="cls-4" d="M676.55,204.88V154.77H713.7v8.48h-27v11.11h25.15v8.44H686.67v13.64h28v8.44Z"/></svg>