<svg id="Layer_1" data-name="Layer 1" xmlns="http://www.w3.org/2000/svg" viewBox="0 0 1080 1080"><defs><style>.cls-1{fill:#ed2024;}.cls-2,.cls-5{fill:none;}.cls-2{stroke:#231f20;stroke-miterlimit:10;stroke-width:0.5px;}.cls-3{fill:#231f20;}.cls-4{fill:#fff;}</style></defs><title>Untitled-2</title><rect class="cls-1" x="271.9" y="71.51" width="536.2" height="216.64"/><rect class="cls-1" x="271.9" y="791.85" width="536.2" height="216.64"/><polygon class="cls-2" points="808.1 791.66 271.9 791.85 271.9 288.15 808.1 288.15 808.1 791.66"/><path class="cls-3" d="M279.66,593.18l59.94-5.83q5.41,30.18,22,44.34t44.65,14.15q29.76,0,44.85-12.59t15.09-29.46a27.8,27.8,0,0,0-6.34-18.42q-6.36-7.59-22.17-13.21-10.83-3.75-49.33-13.32-49.55-12.29-69.52-30.18-28.1-25.18-28.1-61.4a78.47,78.47,0,0,1,13.22-43.61q13.21-20.29,38.09-30.91t60.05-10.61q57.43,0,86.48,25.18T519,474.54l-61.61,2.71q-4-23.52-17-33.83t-39-10.3q-26.85,0-42,11a22.21,22.21,0,0,0-9.78,18.94q0,10.83,9.15,18.53,11.65,9.78,56.62,20.39t66.5,22a85.76,85.76,0,0,1,33.72,31q12.17,19.66,12.17,48.6a89.91,89.91,0,0,1-14.57,49.12q-14.57,22.89-41.21,34t-66.39,11.13q-57.87,0-88.88-26.74T279.66,593.18Z"/><path class="cls-3" d="M544.74,392.34h122q36.22,0,54,3A79.39,79.39,0,0,1,752.57,408,78.38,78.38,0,0,1,776,433.45a69.09,69.09,0,0,1,9.36,35.69,72.33,72.33,0,0,1-42.87,66.19q27.88,8.11,42.87,27.69t15,46a90.76,90.76,0,0,1-9.68,40.49,81.54,81.54,0,0,1-26.43,31.43q-16.76,11.76-41.32,14.46-15.4,1.67-74.3,2.08H544.74Zm61.61,50.79v70.56h40.38q36,0,44.75-1,15.82-1.87,24.87-10.93t9.06-23.83q0-14.16-7.81-23t-23.2-10.72q-9.17-1-52.66-1Zm0,121.34v81.59h57q33.3,0,42.26-1.87A38.19,38.19,0,0,0,728,632q8.64-9.68,8.64-25.91,0-13.74-6.66-23.31t-19.25-13.95q-12.6-4.37-54.64-4.37Z"/><path class="cls-4" d="M352.9,888.12V837.86h16.28q9.26,0,12.07.75a13.22,13.22,0,0,1,7.23,4.92,15.63,15.63,0,0,1,2.91,9.79,16.49,16.49,0,0,1-1.67,7.78,13.8,13.8,0,0,1-4.27,5,14.73,14.73,0,0,1-5.27,2.38,57.87,57.87,0,0,1-10.52.72H363v19ZM363,846.36v14.26h5.56q6,0,8-.79a6.62,6.62,0,0,0,3.17-2.46,6.74,6.74,0,0,0,1.15-3.91,6.52,6.52,0,0,0-1.61-4.53,7.12,7.12,0,0,0-4.08-2.23,50.17,50.17,0,0,0-7.3-.34Z"/><path class="cls-4" d="M399.93,888.12V838.27h10.15v41.38h25.23v8.47Z"/><path class="cls-4" d="M487.79,888.12h-11l-4.38-11.42H452.28l-4.15,11.42H437.36l19.58-50.26h10.73Zm-18.68-19.89-6.93-18.65-6.78,18.65Z"/><path class="cls-4" d="M499.21,888.12V846.36H484.29v-8.5h39.94v8.5H509.35v41.76Z"/><path class="cls-4" d="M530.78,888.12V837.86h34.45v8.5H540.92v11.9h21v8.5h-21v21.36Z"/><path class="cls-4" d="M571.47,863.3a32,32,0,0,1,2.3-12.89,23.48,23.48,0,0,1,4.68-6.89,19.4,19.4,0,0,1,6.49-4.53,27.69,27.69,0,0,1,10.84-2q11.1,0,17.77,6.89t6.67,19.17q0,12.16-6.62,19T595.91,889q-11.2,0-17.82-6.84T571.47,863.3Zm10.46-.35q0,8.53,3.94,12.95a13.56,13.56,0,0,0,20,0c2.59-2.91,3.89-7.29,3.89-13.11s-1.27-10.06-3.79-12.89a14,14,0,0,0-20.18.05Q581.94,854.29,581.93,863Z"/><path class="cls-4" d="M628.1,888.12V837.86h21.36q8.06,0,11.71,1.35A11.58,11.58,0,0,1,667,844,14.51,14.51,0,0,1,669.2,852a13.43,13.43,0,0,1-3.32,9.34q-3.33,3.69-9.94,4.65a23.79,23.79,0,0,1,5.43,4.21,56.73,56.73,0,0,1,5.78,8.16l6.13,9.81H661.15l-7.34-10.94a70.24,70.24,0,0,0-5.35-7.39,7.85,7.85,0,0,0-3.05-2.09,17,17,0,0,0-5.11-.56h-2v21Zm10.15-29h7.51q7.29,0,9.11-.61a5.44,5.44,0,0,0,2.85-2.13,6.49,6.49,0,0,0,1-3.77,6,6,0,0,0-1.36-4.1,6.22,6.22,0,0,0-3.82-2q-1.23-.16-7.4-.17h-7.92Z"/><path class="cls-4" d="M678.56,888.12V837.86h15.19l9.12,34.28,9-34.28H727.1v50.26h-9.42V848.56l-10,39.56h-9.77L688,848.56v39.56Z"/><path class="cls-4" d="M416.81,963.34V921.59H401.9v-8.51h39.94v8.51H427v41.75Z"/><path class="cls-4" d="M448.35,963.34V913.08H458.5v19.78h19.88V913.08h10.15v50.26H478.38v-22H458.5v22Z"/><path class="cls-4" d="M499,963.34V913.08h21.36q8.05,0,11.71,1.36a11.56,11.56,0,0,1,5.84,4.81,14.51,14.51,0,0,1,2.2,7.92,13.43,13.43,0,0,1-3.33,9.35q-3.32,3.68-9.94,4.64a23.6,23.6,0,0,1,5.43,4.22,56.73,56.73,0,0,1,5.78,8.16l6.14,9.8H532l-7.34-10.94a70.16,70.16,0,0,0-5.34-7.38,7.7,7.7,0,0,0-3.05-2.09,16.65,16.65,0,0,0-5.11-.57h-2.06v21Zm10.15-29h7.51q7.3,0,9.12-.62a5.45,5.45,0,0,0,2.84-2.12,6.55,6.55,0,0,0,1-3.78,6,6,0,0,0-1.35-4.09,6.22,6.22,0,0,0-3.83-2c-.82-.12-3.29-.17-7.4-.17h-7.92Z"/><path class="cls-4" d="M549.58,963.34V913.08h37.26v8.51H559.73v11.14H585v8.46H559.73v13.68H587.8v8.47Z"/><path class="cls-4" d="M641.66,963.34h-11l-4.39-11.42H606.14L602,963.34H591.23l19.58-50.26h10.73ZM623,943.46l-6.93-18.65-6.79,18.65Z"/><path class="cls-4" d="M653.07,963.34V921.59H638.16v-8.51H678.1v8.51H663.22v41.75Z"/><rect class="cls-5" width="1080" height="1080"/><path class="cls-4" d="M355.05,150.52l9.85-1q.89,5,3.6,7.28a10.92,10.92,0,0,0,7.33,2.32q4.89,0,7.37-2.06a6.18,6.18,0,0,0,2.48-4.84,4.61,4.61,0,0,0-1-3,8.44,8.44,0,0,0-3.64-2.17q-1.78-.62-8.1-2.18-8.14-2-11.42-5a13,13,0,0,1-4.61-10.08,12.85,12.85,0,0,1,2.17-7.16,13.5,13.5,0,0,1,6.25-5.08,25.1,25.1,0,0,1,9.86-1.74q9.44,0,14.2,4.13a14.61,14.61,0,0,1,5,11l-10.12.45a8.6,8.6,0,0,0-2.78-5.56c-1.43-1.12-3.56-1.69-6.41-1.69a11.65,11.65,0,0,0-6.91,1.81,3.65,3.65,0,0,0-1.6,3.11,3.87,3.87,0,0,0,1.5,3q1.92,1.61,9.3,3.34a49.6,49.6,0,0,1,10.92,3.61,14.12,14.12,0,0,1,5.54,5.09,15,15,0,0,1,2,8,14.72,14.72,0,0,1-2.4,8.07,14.32,14.32,0,0,1-6.76,5.59,28.42,28.42,0,0,1-10.91,1.83q-9.5,0-14.59-4.39T355.05,150.52Z"/><path class="cls-4" d="M449.49,166.82h-11l-4.38-11.38h-20L410,166.82H399.21l19.52-50.11h10.7ZM430.86,147,424,128.4,417.19,147Z"/><path class="cls-4" d="M460.94,166.82V125.19H446.07v-8.48h39.82v8.48H471.06v41.63Z"/><path class="cls-4" d="M492.42,166.82V116.71h37.16v8.48h-27V136.3H527.7v8.44H502.54v13.64h28v8.44Z"/><path class="cls-4" d="M539.38,166.82v-49.7H549.5v41.26h25.16v8.44Z"/><path class="cls-4" d="M582.14,166.82v-49.7h10.12v41.26h25.16v8.44Z"/><path class="cls-4" d="M624.32,166.82V116.71h10.12v50.11Z"/><path class="cls-4" d="M655.36,166.82V125.19H640.49v-8.48h39.82v8.48H665.47v41.63Z"/><path class="cls-4" d="M686.84,166.82V116.71H724v8.48H697V136.3h25.16v8.44H697v13.64h28v8.44Z"/><path class="cls-4" d="M375.53,192.84h20a58.14,58.14,0,0,1,8.87.49,13,13,0,0,1,5.23,2.07,12.84,12.84,0,0,1,3.84,4.19,11.27,11.27,0,0,1,1.54,5.86,11.63,11.63,0,0,1-1.9,6.46,11.75,11.75,0,0,1-5.14,4.41,13.2,13.2,0,0,1,7,4.54,12.09,12.09,0,0,1,2.46,7.56,14.91,14.91,0,0,1-1.59,6.65,13.47,13.47,0,0,1-4.34,5.16,14.35,14.35,0,0,1-6.78,2.37q-2.54.28-12.21.34H375.53Zm10.11,8.34v11.58h6.64c3.94,0,6.39,0,7.34-.17a6.65,6.65,0,0,0,4.09-1.79,5.31,5.31,0,0,0,1.49-3.92,5.48,5.48,0,0,0-1.29-3.77,5.75,5.75,0,0,0-3.81-1.76c-1-.12-3.88-.17-8.64-.17Zm0,19.92v13.4H395a45,45,0,0,0,6.94-.31,6.23,6.23,0,0,0,3.67-2,6.1,6.1,0,0,0,1.42-4.25,6.55,6.55,0,0,0-1.09-3.83,6.21,6.21,0,0,0-3.16-2.29q-2.07-.72-9-.72Z"/><path class="cls-4" d="M426.32,242.94V193.25h10.12V234.5h25.15v8.44Z"/><path class="cls-4" d="M468.5,242.94v-50.1h10.11v50.1Z"/><path class="cls-4" d="M488.35,242.94v-50.1h9.85l20.51,33.46V192.84h9.4v50.1H518l-20.2-32.67v32.67Z"/><path class="cls-4" d="M538.77,192.84h18.49a36.55,36.55,0,0,1,9.54.95,16.81,16.81,0,0,1,7.55,4.62,21.87,21.87,0,0,1,4.79,8.12,37.07,37.07,0,0,1,1.64,11.84A33,33,0,0,1,579.24,229a22.14,22.14,0,0,1-5.37,8.86,17.74,17.74,0,0,1-7.11,4,30.46,30.46,0,0,1-9,1.06h-19Zm10.12,8.47V234.5h7.55a27.52,27.52,0,0,0,6.12-.48,9.3,9.3,0,0,0,4.08-2.08,10.58,10.58,0,0,0,2.65-4.84,32.4,32.4,0,0,0,1-9.18,29.74,29.74,0,0,0-1-8.92,11.43,11.43,0,0,0-2.87-4.85,9.64,9.64,0,0,0-4.68-2.36,45.72,45.72,0,0,0-8.31-.48Z"/><path class="cls-4" d="M589.05,242.94v-50.1h10.12v50.1Z"/><path class="cls-4" d="M608.91,242.94v-50.1h9.84l20.51,33.46V192.84h9.4v50.1H638.51l-20.2-32.67v32.67Z"/><path class="cls-4" d="M682.67,224.52v-8.44h21.8v20a27.47,27.47,0,0,1-9.21,5.42A33.52,33.52,0,0,1,683,243.8a27.38,27.38,0,0,1-13.7-3.3,21,21,0,0,1-8.79-9.43,30.49,30.49,0,0,1-2.94-13.35,28.9,28.9,0,0,1,3.28-13.91,22.05,22.05,0,0,1,9.61-9.33,25.82,25.82,0,0,1,12-2.5q9.33,0,14.57,3.92a17.64,17.64,0,0,1,6.75,10.81l-10.05,1.88a10.54,10.54,0,0,0-4-5.82,12,12,0,0,0-7.29-2.14q-6.64,0-10.55,4.2T668,217.31q0,8.92,4,13.38a13.25,13.25,0,0,0,10.39,4.46,17.28,17.28,0,0,0,6.38-1.25,21.79,21.79,0,0,0,5.48-3v-6.36Z"/></svg>