<svg id="Layer_1" data-name="Layer 1" xmlns="http://www.w3.org/2000/svg" viewBox="0 0 1080 1080"><defs><style>.cls-1{fill:#ed2024;}.cls-2,.cls-5{fill:none;}.cls-2{stroke:#231f20;stroke-miterlimit:10;stroke-width:0.5px;}.cls-3{fill:#231f20;}.cls-4{fill:#fff;}</style></defs><title>Untitled-2</title><rect class="cls-1" x="271.9" y="71.51" width="536.2" height="216.64"/><rect class="cls-1" x="271.9" y="791.85" width="536.2" height="216.64"/><polygon class="cls-2" points="808.1 791.66 271.9 791.85 271.9 288.15 808.1 288.15 808.1 791.66"/><path class="cls-3" d="M276.51,593.18l59.95-5.83q5.4,30.18,22,44.34t44.65,14.15q29.76,0,44.85-12.59T463,603.79a27.8,27.8,0,0,0-6.34-18.42q-6.36-7.59-22.17-13.21-10.83-3.75-49.33-13.32-49.55-12.29-69.52-30.18-28.09-25.18-28.1-61.4a78.47,78.47,0,0,1,13.22-43.61q13.22-20.29,38.09-30.91t60-10.61q57.44,0,86.48,25.18t30.49,67.23l-61.61,2.71q-4-23.52-17-33.83t-39-10.3q-26.85,0-42,11a22.23,22.23,0,0,0-9.78,18.94q0,10.83,9.15,18.53,11.65,9.78,56.62,20.39t66.5,22a85.76,85.76,0,0,1,33.72,31q12.16,19.66,12.17,48.6A89.91,89.91,0,0,1,510,652.71q-14.57,22.89-41.21,34t-66.39,11.13q-57.87,0-88.88-26.74T276.51,593.18Z"/><path class="cls-3" d="M547.69,392.34h112.6q38.09,0,58.07,5.83a102,102,0,0,1,46,28.1q19.14,20.19,29.14,49.43t10,72.12q0,37.68-9.37,64.94-11.45,33.3-32.68,53.91-16,15.62-43.29,24.35-20.4,6.45-54.53,6.45H547.69ZM609.3,444v202.1h46q25.82,0,37.26-2.91,15-3.75,24.87-12.7T733.55,601q6.26-20.5,6.25-55.88t-6.25-54.33q-6.24-18.93-17.48-29.55t-28.51-14.37Q674.65,444,637,444Z"/><path class="cls-4" d="M352.9,888.12V837.86h16.28q9.26,0,12.07.75a13.22,13.22,0,0,1,7.23,4.92,15.63,15.63,0,0,1,2.91,9.79,16.49,16.49,0,0,1-1.67,7.78,13.8,13.8,0,0,1-4.27,5,14.73,14.73,0,0,1-5.27,2.38,57.87,57.87,0,0,1-10.52.72H363v19ZM363,846.36v14.26h5.56q6,0,8-.79a6.62,6.62,0,0,0,3.17-2.46,6.74,6.74,0,0,0,1.15-3.91,6.52,6.52,0,0,0-1.61-4.53,7.12,7.12,0,0,0-4.08-2.23,50.17,50.17,0,0,0-7.3-.34Z"/><path class="cls-4" d="M399.93,888.12V838.27h10.15v41.38h25.23v8.47Z"/><path class="cls-4" d="M487.79,888.12h-11l-4.38-11.42H452.28l-4.15,11.42H437.36l19.58-50.26h10.73Zm-18.68-19.89-6.93-18.65-6.78,18.65Z"/><path class="cls-4" d="M499.21,888.12V846.36H484.29v-8.5h39.94v8.5H509.35v41.76Z"/><path class="cls-4" d="M530.78,888.12V837.86h34.45v8.5H540.92v11.9h21v8.5h-21v21.36Z"/><path class="cls-4" d="M571.47,863.3a32,32,0,0,1,2.3-12.89,23.48,23.48,0,0,1,4.68-6.89,19.4,19.4,0,0,1,6.49-4.53,27.69,27.69,0,0,1,10.84-2q11.1,0,17.77,6.89t6.67,19.17q0,12.16-6.62,19T595.91,889q-11.2,0-17.82-6.84T571.47,863.3Zm10.46-.35q0,8.53,3.94,12.95a13.56,13.56,0,0,0,20,0c2.59-2.91,3.89-7.29,3.89-13.11s-1.27-10.06-3.79-12.89a14,14,0,0,0-20.18.05Q581.94,854.29,581.93,863Z"/><path class="cls-4" d="M628.1,888.12V837.86h21.36q8.06,0,11.71,1.35A11.58,11.58,0,0,1,667,844,14.51,14.51,0,0,1,669.2,852a13.43,13.43,0,0,1-3.32,9.34q-3.33,3.69-9.94,4.65a23.79,23.79,0,0,1,5.43,4.21,56.73,56.73,0,0,1,5.78,8.16l6.13,9.81H661.15l-7.34-10.94a70.24,70.24,0,0,0-5.35-7.39,7.85,7.85,0,0,0-3.05-2.09,17,17,0,0,0-5.11-.56h-2v21Zm10.15-29h7.51q7.29,0,9.11-.61a5.44,5.44,0,0,0,2.85-2.13,6.49,6.49,0,0,0,1-3.77,6,6,0,0,0-1.36-4.1,6.22,6.22,0,0,0-3.82-2q-1.23-.16-7.4-.17h-7.92Z"/><path class="cls-4" d="M678.56,888.12V837.86h15.19l9.12,34.28,9-34.28H727.1v50.26h-9.42V848.56l-10,39.56h-9.77L688,848.56v39.56Z"/><path class="cls-4" d="M416.81,963.34V921.59H401.9v-8.51h39.94v8.51H427v41.75Z"/><path class="cls-4" d="M448.35,963.34V913.08H458.5v19.78h19.88V913.08h10.15v50.26H478.38v-22H458.5v22Z"/><path class="cls-4" d="M499,963.34V913.08h21.36q8.05,0,11.71,1.36a11.56,11.56,0,0,1,5.84,4.81,14.51,14.51,0,0,1,2.2,7.92,13.43,13.43,0,0,1-3.33,9.35q-3.32,3.68-9.94,4.64a23.6,23.6,0,0,1,5.43,4.22,56.73,56.73,0,0,1,5.78,8.16l6.14,9.8H532l-7.34-10.94a70.16,70.16,0,0,0-5.34-7.38,7.7,7.7,0,0,0-3.05-2.09,16.65,16.65,0,0,0-5.11-.57h-2.06v21Zm10.15-29h7.51q7.3,0,9.12-.62a5.45,5.45,0,0,0,2.84-2.12,6.55,6.55,0,0,0,1-3.78,6,6,0,0,0-1.35-4.09,6.22,6.22,0,0,0-3.83-2c-.82-.12-3.29-.17-7.4-.17h-7.92Z"/><path class="cls-4" d="M549.58,963.34V913.08h37.26v8.51H559.73v11.14H585v8.46H559.73v13.68H587.8v8.47Z"/><path class="cls-4" d="M641.66,963.34h-11l-4.39-11.42H606.14L602,963.34H591.23l19.58-50.26h10.73ZM623,943.46l-6.93-18.65-6.79,18.65Z"/><path class="cls-4" d="M653.07,963.34V921.59H638.16v-8.51H678.1v8.51H663.22v41.75Z"/><rect class="cls-5" width="1080" height="1080"/><path class="cls-4" d="M283,188.56l9.84-1c.6,3.31,1.8,5.73,3.61,7.28a10.91,10.91,0,0,0,7.33,2.33c3.26,0,5.71-.69,7.37-2.07a6.16,6.16,0,0,0,2.48-4.84,4.53,4.53,0,0,0-1-3,8.28,8.28,0,0,0-3.64-2.17q-1.77-.62-8.1-2.19-8.13-2-11.41-4.95a13,13,0,0,1-4.62-10.09,12.85,12.85,0,0,1,2.17-7.16,13.57,13.57,0,0,1,6.26-5.07,24.91,24.91,0,0,1,9.86-1.75q9.44,0,14.2,4.14a14.61,14.61,0,0,1,5,11l-10.12.44a8.56,8.56,0,0,0-2.79-5.55c-1.42-1.13-3.56-1.69-6.4-1.69a11.55,11.55,0,0,0-6.91,1.81,3.65,3.65,0,0,0-1.61,3.11,3.86,3.86,0,0,0,1.51,3q1.9,1.6,9.3,3.35a48.56,48.56,0,0,1,10.92,3.61,14.09,14.09,0,0,1,5.53,5.09,15.78,15.78,0,0,1-.39,16.05,14.32,14.32,0,0,1-6.77,5.58,28.33,28.33,0,0,1-10.9,1.83q-9.51,0-14.6-4.39T283,188.56Z"/><path class="cls-4" d="M332.27,204.86v-50.1h16.24q9.23,0,12,.75a13.17,13.17,0,0,1,7.21,4.9,15.56,15.56,0,0,1,2.91,9.76,16.31,16.31,0,0,1-1.68,7.76,13.77,13.77,0,0,1-4.25,4.94,14.65,14.65,0,0,1-5.25,2.38A58.68,58.68,0,0,1,349,186h-6.6v18.9Zm10.12-41.63v14.22h5.54q6,0,8-.78a6.56,6.56,0,0,0,4.3-6.36,6.47,6.47,0,0,0-1.6-4.51,7,7,0,0,0-4.07-2.22,48,48,0,0,0-7.28-.35Z"/><path class="cls-4" d="M419,204.86H408l-4.38-11.38h-20l-4.13,11.38H368.67l19.52-50.1h10.7ZM400.32,185l-6.9-18.59L386.65,185Z"/><path class="cls-4" d="M456.38,186.44l9.81,3.11q-2.25,8.2-7.5,12.19t-13.32,4A21.53,21.53,0,0,1,429,198.9q-6.44-6.83-6.43-18.64,0-12.51,6.46-19.44t17-6.92q9.19,0,14.94,5.44a19.84,19.84,0,0,1,5.12,9.23L456,171a10.36,10.36,0,0,0-10.56-8.41,11.38,11.38,0,0,0-9,4q-3.48,4-3.47,12.95,0,9.51,3.41,13.54a11.1,11.1,0,0,0,8.89,4,10.13,10.13,0,0,0,6.94-2.56Q455.12,191.95,456.38,186.44Z"/><path class="cls-4" d="M474.87,204.86v-50.1H512v8.47H485v11.11h25.15v8.44H485v13.64h28v8.44Z"/><path class="cls-4" d="M541,154.76h18.5a36.47,36.47,0,0,1,9.53,1,16.84,16.84,0,0,1,7.56,4.62,21.94,21.94,0,0,1,4.78,8.12A37.07,37.07,0,0,1,583,180.29,32.77,32.77,0,0,1,581.44,191a22.12,22.12,0,0,1-5.36,8.86,17.89,17.89,0,0,1-7.11,4,30.93,30.93,0,0,1-9,1.05H541Zm10.12,8.47v33.19h7.56a27.41,27.41,0,0,0,6.11-.48,9.34,9.34,0,0,0,4.09-2.08A10.68,10.68,0,0,0,571.5,189a32.79,32.79,0,0,0,1-9.17,30.15,30.15,0,0,0-1-8.93,11.53,11.53,0,0,0-2.87-4.85,9.68,9.68,0,0,0-4.69-2.36,45.67,45.67,0,0,0-8.3-.48Z"/><path class="cls-4" d="M591.56,204.86v-50.1h37.15v8.47h-27v11.11h25.15v8.44H601.68v13.64h28v8.44Z"/><path class="cls-4" d="M638.28,154.76h20a58,58,0,0,1,8.87.49,13,13,0,0,1,5.23,2.07,12.86,12.86,0,0,1,3.85,4.19,11.39,11.39,0,0,1,1.54,5.86,11.88,11.88,0,0,1-7,10.87,13.23,13.23,0,0,1,7,4.54,12.09,12.09,0,0,1,2.46,7.56,14.91,14.91,0,0,1-1.59,6.65,13.47,13.47,0,0,1-4.34,5.16,14.28,14.28,0,0,1-6.79,2.37q-2.53.28-12.2.34H638.28Zm10.12,8.34v11.58H655c3.94,0,6.39-.05,7.35-.17a6.71,6.71,0,0,0,4.09-1.79,5.29,5.29,0,0,0,1.48-3.91,5.53,5.53,0,0,0-1.28-3.78,5.8,5.8,0,0,0-3.81-1.76c-1-.12-3.89-.17-8.65-.17Zm0,19.92v13.4h9.37a44.88,44.88,0,0,0,6.93-.31,6.3,6.3,0,0,0,3.68-2,6.19,6.19,0,0,0,1.42-4.26,6.55,6.55,0,0,0-1.1-3.83,6.17,6.17,0,0,0-3.16-2.29q-2.07-.72-9-.72Z"/><path class="cls-4" d="M688.84,204.86v-50.1h21.29q8,0,11.67,1.35a11.52,11.52,0,0,1,5.83,4.8,14.42,14.42,0,0,1,2.19,7.9,13.39,13.39,0,0,1-3.32,9.31q-3.32,3.67-9.91,4.63A24,24,0,0,1,722,187a57.94,57.94,0,0,1,5.76,8.14l6.11,9.77h-12.1L714.47,194a69.55,69.55,0,0,0-5.33-7.36,7.78,7.78,0,0,0-3-2.09A16.64,16.64,0,0,0,701,184h-2v20.91ZM699,176h7.49q7.27,0,9.09-.62a5.43,5.43,0,0,0,2.84-2.12,6.53,6.53,0,0,0,1-3.76,6,6,0,0,0-1.35-4.08,6.22,6.22,0,0,0-3.81-2q-1.23-.17-7.38-.17H699Z"/><path class="cls-4" d="M739.05,204.86v-50.1h10.11v50.1Z"/><path class="cls-4" d="M756.24,188.56l9.84-1c.59,3.31,1.8,5.73,3.61,7.28a10.89,10.89,0,0,0,7.33,2.33q4.89,0,7.36-2.07a6.13,6.13,0,0,0,2.48-4.84,4.53,4.53,0,0,0-1-3,8.34,8.34,0,0,0-3.64-2.17q-1.78-.62-8.1-2.19-8.13-2-11.42-4.95a13.06,13.06,0,0,1-4.61-10.09,12.85,12.85,0,0,1,2.17-7.16,13.59,13.59,0,0,1,6.25-5.07,25,25,0,0,1,9.87-1.75q9.42,0,14.2,4.14a14.6,14.6,0,0,1,5,11l-10.11.44a8.65,8.65,0,0,0-2.79-5.55q-2.13-1.69-6.41-1.69a11.52,11.52,0,0,0-6.9,1.81,3.65,3.65,0,0,0-1.61,3.11,3.83,3.83,0,0,0,1.51,3q1.9,1.6,9.29,3.35a48.38,48.38,0,0,1,10.92,3.61,14.06,14.06,0,0,1,5.54,5.09,15.78,15.78,0,0,1-.39,16.05,14.32,14.32,0,0,1-6.77,5.58,28.36,28.36,0,0,1-10.9,1.83q-9.51,0-14.6-4.39T756.24,188.56Z"/></svg>