<svg id="Layer_1" data-name="Layer 1" xmlns="http://www.w3.org/2000/svg" viewBox="0 0 1080 1080"><defs><style>.cls-1{fill:#ed2024;}.cls-2,.cls-5{fill:none;}.cls-2{stroke:#231f20;stroke-miterlimit:10;stroke-width:0.5px;}.cls-3{fill:#231f20;}.cls-4{fill:#fff;}</style></defs><title>Untitled-2</title><rect class="cls-1" x="271.9" y="71.51" width="536.2" height="216.64"/><rect class="cls-1" x="271.9" y="791.85" width="536.2" height="216.64"/><polygon class="cls-2" points="808.1 791.66 271.9 791.85 271.9 288.15 808.1 288.15 808.1 791.66"/><path class="cls-3" d="M277.88,595.25l62.05-6q5.61,31.24,22.74,45.9t46.22,14.65q30.81,0,46.44-13T471,606.24a28.77,28.77,0,0,0-6.57-19.07q-6.58-7.86-22.95-13.68-11.21-3.88-51.07-13.79-51.28-12.72-72-31.25-29.1-26.07-29.09-63.57A81.16,81.16,0,0,1,303,419.74q13.68-21,39.43-32t62.17-11q59.48,0,89.53,26.07t31.57,69.61l-63.78,2.8q-4.09-24.35-17.56-35t-40.41-10.67q-27.8,0-43.52,11.43-10.14,7.32-10.13,19.6,0,11.22,9.48,19.18,12.06,10.14,58.61,21.12t68.85,22.73a88.74,88.74,0,0,1,34.91,32.11q12.6,20.37,12.6,50.32a93.06,93.06,0,0,1-15.08,50.85q-15.09,23.7-42.67,35.23t-68.74,11.53q-59.91,0-92-27.69T277.88,595.25Z"/><path class="cls-3" d="M545.27,594.86l62.06-6q5.59,31.24,22.73,45.9t46.22,14.65q30.81,0,46.44-13t15.62-30.49a28.77,28.77,0,0,0-6.57-19.07q-6.57-7.86-22.95-13.68-11.21-3.89-51.07-13.79-51.29-12.72-72-31.25Q556.69,502,556.69,464.49a81.24,81.24,0,0,1,13.68-45.14q13.68-21,39.44-32t62.16-11q59.47,0,89.54,26.07T793.07,472l-63.78,2.81q-4.1-24.36-17.56-35t-40.4-10.67q-27.81,0-43.53,11.42-10.14,7.33-10.13,19.61,0,11.2,9.48,19.18,12.08,10.14,58.61,21.12t68.85,22.73a88.74,88.74,0,0,1,34.91,32.11q12.6,20.35,12.6,50.31A93.07,93.07,0,0,1,787,656.49q-15.09,23.7-42.67,35.23t-68.73,11.53q-59.91,0-92-27.69T545.27,594.86Z"/><path class="cls-4" d="M352.9,888.12V837.86h16.28q9.26,0,12.07.75a13.22,13.22,0,0,1,7.23,4.92,15.63,15.63,0,0,1,2.91,9.79,16.49,16.49,0,0,1-1.67,7.78,13.8,13.8,0,0,1-4.27,5,14.73,14.73,0,0,1-5.27,2.38,57.87,57.87,0,0,1-10.52.72H363v19ZM363,846.36v14.26h5.56q6,0,8-.79a6.62,6.62,0,0,0,3.17-2.46,6.74,6.74,0,0,0,1.15-3.91,6.52,6.52,0,0,0-1.61-4.53,7.12,7.12,0,0,0-4.08-2.23,50.17,50.17,0,0,0-7.3-.34Z"/><path class="cls-4" d="M399.93,888.12V838.27h10.15v41.38h25.23v8.47Z"/><path class="cls-4" d="M487.79,888.12h-11l-4.38-11.42H452.28l-4.15,11.42H437.36l19.58-50.26h10.73Zm-18.68-19.89-6.93-18.65-6.78,18.65Z"/><path class="cls-4" d="M499.21,888.12V846.36H484.29v-8.5h39.94v8.5H509.35v41.76Z"/><path class="cls-4" d="M530.78,888.12V837.86h34.45v8.5H540.92v11.9h21v8.5h-21v21.36Z"/><path class="cls-4" d="M571.47,863.3a32,32,0,0,1,2.3-12.89,23.48,23.48,0,0,1,4.68-6.89,19.4,19.4,0,0,1,6.49-4.53,27.69,27.69,0,0,1,10.84-2q11.1,0,17.77,6.89t6.67,19.17q0,12.16-6.62,19T595.91,889q-11.2,0-17.82-6.84T571.47,863.3Zm10.46-.35q0,8.53,3.94,12.95a13.56,13.56,0,0,0,20,0c2.59-2.91,3.89-7.29,3.89-13.11s-1.27-10.06-3.79-12.89a14,14,0,0,0-20.18.05Q581.94,854.29,581.93,863Z"/><path class="cls-4" d="M628.1,888.12V837.86h21.36q8.06,0,11.71,1.35A11.58,11.58,0,0,1,667,844,14.51,14.51,0,0,1,669.2,852a13.43,13.43,0,0,1-3.32,9.34q-3.33,3.69-9.94,4.65a23.79,23.79,0,0,1,5.43,4.21,56.73,56.73,0,0,1,5.78,8.16l6.13,9.81H661.15l-7.34-10.94a70.24,70.24,0,0,0-5.35-7.39,7.85,7.85,0,0,0-3.05-2.09,17,17,0,0,0-5.11-.56h-2v21Zm10.15-29h7.51q7.29,0,9.11-.61a5.44,5.44,0,0,0,2.85-2.13,6.49,6.49,0,0,0,1-3.77,6,6,0,0,0-1.36-4.1,6.22,6.22,0,0,0-3.82-2q-1.23-.16-7.4-.17h-7.92Z"/><path class="cls-4" d="M678.56,888.12V837.86h15.19l9.12,34.28,9-34.28H727.1v50.26h-9.42V848.56l-10,39.56h-9.77L688,848.56v39.56Z"/><path class="cls-4" d="M416.81,963.34V921.59H401.9v-8.51h39.94v8.51H427v41.75Z"/><path class="cls-4" d="M448.35,963.34V913.08H458.5v19.78h19.88V913.08h10.15v50.26H478.38v-22H458.5v22Z"/><path class="cls-4" d="M499,963.34V913.08h21.36q8.05,0,11.71,1.36a11.56,11.56,0,0,1,5.84,4.81,14.51,14.51,0,0,1,2.2,7.92,13.43,13.43,0,0,1-3.33,9.35q-3.32,3.68-9.94,4.64a23.6,23.6,0,0,1,5.43,4.22,56.73,56.73,0,0,1,5.78,8.16l6.14,9.8H532l-7.34-10.94a70.16,70.16,0,0,0-5.34-7.38,7.7,7.7,0,0,0-3.05-2.09,16.65,16.65,0,0,0-5.11-.57h-2.06v21Zm10.15-29h7.51q7.3,0,9.12-.62a5.45,5.45,0,0,0,2.84-2.12,6.55,6.55,0,0,0,1-3.78,6,6,0,0,0-1.35-4.09,6.22,6.22,0,0,0-3.83-2c-.82-.12-3.29-.17-7.4-.17h-7.92Z"/><path class="cls-4" d="M549.58,963.34V913.08h37.26v8.51H559.73v11.14H585v8.46H559.73v13.68H587.8v8.47Z"/><path class="cls-4" d="M641.66,963.34h-11l-4.39-11.42H606.14L602,963.34H591.23l19.58-50.26h10.73ZM623,943.46l-6.93-18.65-6.79,18.65Z"/><path class="cls-4" d="M653.07,963.34V921.59H638.16v-8.51H678.1v8.51H663.22v41.75Z"/><rect class="cls-5" width="1080" height="1080"/><path class="cls-4" d="M410.1,151.4l9.84-1c.6,3.31,1.8,5.73,3.61,7.28a10.91,10.91,0,0,0,7.33,2.33c3.26,0,5.71-.69,7.37-2.07a6.16,6.16,0,0,0,2.48-4.84,4.53,4.53,0,0,0-1.05-3A8.28,8.28,0,0,0,436,148q-1.77-.62-8.1-2.19-8.13-2-11.41-5a13,13,0,0,1-4.62-10.08,12.85,12.85,0,0,1,2.17-7.16,13.65,13.65,0,0,1,6.26-5.08,25.1,25.1,0,0,1,9.86-1.74q9.44,0,14.2,4.14a14.57,14.57,0,0,1,5,11l-10.12.44c-.43-2.57-1.36-4.43-2.79-5.55s-3.56-1.7-6.4-1.7a11.55,11.55,0,0,0-6.91,1.82,3.65,3.65,0,0,0-1.61,3.11,3.86,3.86,0,0,0,1.51,3q1.91,1.6,9.3,3.35a49.16,49.16,0,0,1,10.92,3.6,14.12,14.12,0,0,1,5.53,5.1,15.77,15.77,0,0,1-.39,16,14.34,14.34,0,0,1-6.77,5.59,28.33,28.33,0,0,1-10.9,1.83q-9.51,0-14.6-4.39T410.1,151.4Z"/><path class="cls-4" d="M459.05,167.7V117.59h10.11V167.7Z"/><path class="cls-4" d="M502.11,149.28v-8.44h21.81v20a27.64,27.64,0,0,1-9.21,5.42,33.56,33.56,0,0,1-12.22,2.34,27.44,27.44,0,0,1-13.71-3.3,21,21,0,0,1-8.78-9.44,30.44,30.44,0,0,1-2.94-13.34,28.79,28.79,0,0,1,3.28-13.91,22.08,22.08,0,0,1,9.6-9.33,25.88,25.88,0,0,1,12-2.5q9.33,0,14.58,3.91a17.67,17.67,0,0,1,6.75,10.82l-10,1.88a10.65,10.65,0,0,0-4-5.83,12.07,12.07,0,0,0-7.3-2.13q-6.63,0-10.54,4.2t-3.92,12.48c0,5.94,1.32,10.41,4,13.38a13.24,13.24,0,0,0,10.39,4.46,17.43,17.43,0,0,0,6.37-1.25,22,22,0,0,0,5.49-3v-6.36Z"/><path class="cls-4" d="M533.35,167.7V117.59h9.85l20.5,33.47V117.59h9.4V167.7H563L542.75,135V167.7Z"/><path class="cls-4" d="M629,167.7H618l-4.37-11.38h-20l-4.14,11.38H578.71l19.52-50.11h10.69Zm-18.63-19.82-6.91-18.6-6.76,18.6Z"/><path class="cls-4" d="M634.63,167.7V118h10.11v41.26H669.9v8.44Z"/><path class="cls-4" d="M358.64,225.72l9.85-.95q.88,4.95,3.6,7.28a10.9,10.9,0,0,0,7.33,2.32q4.89,0,7.37-2.07a6.16,6.16,0,0,0,2.48-4.83,4.54,4.54,0,0,0-1-3,8.31,8.31,0,0,0-3.64-2.17q-1.77-.61-8.1-2.19-8.13-2-11.41-5a13,13,0,0,1-4.62-10.08,12.9,12.9,0,0,1,2.18-7.17,13.54,13.54,0,0,1,6.25-5.07,25.1,25.1,0,0,1,9.86-1.74q9.43,0,14.2,4.13a14.61,14.61,0,0,1,5,11l-10.12.45a8.6,8.6,0,0,0-2.78-5.56c-1.43-1.13-3.56-1.69-6.41-1.69a11.58,11.58,0,0,0-6.91,1.81,3.65,3.65,0,0,0-1.6,3.11,3.84,3.84,0,0,0,1.5,3q1.92,1.6,9.3,3.35a49.6,49.6,0,0,1,10.92,3.61,14,14,0,0,1,5.53,5.09A15.78,15.78,0,0,1,397,235.5a14.29,14.29,0,0,1-6.77,5.59,28.33,28.33,0,0,1-10.9,1.83q-9.49,0-14.59-4.4T358.64,225.72Z"/><path class="cls-4" d="M407.9,242V191.92h16.23q9.22,0,12,.75a13.1,13.1,0,0,1,7.21,4.91,15.52,15.52,0,0,1,2.91,9.76,16.27,16.27,0,0,1-1.68,7.75,13.59,13.59,0,0,1-4.25,4.94,14.65,14.65,0,0,1-5.25,2.38,57.5,57.5,0,0,1-10.49.72H418V242ZM418,200.4v14.22h5.54c4,0,6.65-.27,8-.79a6.66,6.66,0,0,0,3.16-2.46,6.78,6.78,0,0,0,1.14-3.9,6.48,6.48,0,0,0-1.6-4.51,7,7,0,0,0-4.07-2.22,48.39,48.39,0,0,0-7.28-.34Z"/><path class="cls-4" d="M452.53,217.28a32,32,0,0,1,2.29-12.85,23.68,23.68,0,0,1,4.67-6.87,19.45,19.45,0,0,1,6.48-4.51,27.52,27.52,0,0,1,10.8-2q11.07,0,17.72,6.87t6.65,19.1q0,12.14-6.6,19t-17.64,6.85q-11.17,0-17.77-6.82T452.53,217.28Zm10.43-.34q0,8.51,3.93,12.9a13.52,13.52,0,0,0,19.91,0q3.87-4.37,3.88-13.08T486.9,204a14,14,0,0,0-20.11.05Q463,208.29,463,216.94Z"/><path class="cls-4" d="M507,217.28a32,32,0,0,1,2.29-12.85,23.68,23.68,0,0,1,4.67-6.87,19.45,19.45,0,0,1,6.48-4.51,27.52,27.52,0,0,1,10.8-2q11.07,0,17.72,6.87t6.65,19.1q0,12.14-6.6,19t-17.64,6.85q-11.18,0-17.77-6.82T507,217.28Zm10.43-.34q0,8.51,3.93,12.9a13.52,13.52,0,0,0,19.91,0q3.87-4.37,3.88-13.08T541.35,204a14,14,0,0,0-20.11.05Q517.4,208.29,517.41,216.94Z"/><path class="cls-4" d="M563.55,242V191.92H597.9v8.48H573.67v11.86h20.91v8.47H573.67V242Z"/><path class="cls-4" d="M605.93,242V191.92h10.12V242Z"/><path class="cls-4" d="M625.79,242V191.92h9.84l20.51,33.46V191.92h9.4V242H655.39l-20.2-32.68V242Z"/><path class="cls-4" d="M699.55,223.6v-8.44h21.81v20a27.47,27.47,0,0,1-9.21,5.42,33.6,33.6,0,0,1-12.22,2.34,27.44,27.44,0,0,1-13.71-3.3,20.94,20.94,0,0,1-8.78-9.43,30.49,30.49,0,0,1-2.94-13.35,28.84,28.84,0,0,1,3.28-13.91,22.19,22.19,0,0,1,9.6-9.33,26,26,0,0,1,12-2.49q9.33,0,14.58,3.91a17.64,17.64,0,0,1,6.75,10.82l-10.05,1.88a10.61,10.61,0,0,0-4-5.83,12.07,12.07,0,0,0-7.3-2.14q-6.63,0-10.55,4.21t-3.91,12.47q0,8.93,4,13.38a13.2,13.2,0,0,0,10.39,4.46,17.42,17.42,0,0,0,6.37-1.24,21.74,21.74,0,0,0,5.49-3V223.6Z"/></svg>