<svg id="Layer_1" data-name="Layer 1" xmlns="http://www.w3.org/2000/svg" viewBox="0 0 1080 1080"><defs><style>.cls-1{fill:#ed2024;}.cls-2,.cls-5{fill:none;}.cls-2{stroke:#231f20;stroke-miterlimit:10;stroke-width:0.5px;}.cls-3{fill:#231f20;}.cls-4{fill:#fff;}</style></defs><title>Untitled-2</title><rect class="cls-1" x="271.75" y="71.51" width="536.2" height="216.64"/><rect class="cls-1" x="272.05" y="791.85" width="536.2" height="216.64"/><polygon class="cls-2" points="808.25 791.66 272.05 791.85 272.05 288.15 808.25 288.15 808.25 791.66"/><path class="cls-3" d="M277.89,583.79,327.26,579q4.46,24.86,18.08,36.51t36.77,11.65q24.51,0,36.94-10.37t12.42-24.25a22.9,22.9,0,0,0-5.22-15.17Q421,571.12,408,566.48q-8.91-3.08-40.62-11-40.8-10.11-57.25-24.85Q287,509.92,287,480.09a64.58,64.58,0,0,1,10.88-35.91q10.89-16.71,31.37-25.45T378.68,410q47.31,0,71.22,20.74T475,486.09l-50.73,2.23q-3.27-19.36-14-27.85T378.17,452q-22.11,0-34.63,9.09a18.29,18.29,0,0,0-8.05,15.59q0,8.93,7.54,15.26,9.6,8.06,46.62,16.8t54.77,18.08a70.58,70.58,0,0,1,27.76,25.54q10,16.2,10,40a74,74,0,0,1-12,40.45q-12,18.85-33.94,28T381.59,670Q334,670,308.4,648T277.89,583.79Z"/><path class="cls-3" d="M532.61,669.61l-60-251.28h51.94l37.88,172.61,45.93-172.61h60.34l44,175.52,38.57-175.52h51.08l-61,251.28H687.57L637.51,481.75,587.63,669.61Z"/><path class="cls-4" d="M353.05,888.12V837.86h16.28q9.26,0,12.07.75a13.22,13.22,0,0,1,7.23,4.92,15.63,15.63,0,0,1,2.92,9.79,16.37,16.37,0,0,1-1.68,7.78,13.8,13.8,0,0,1-4.27,5,14.77,14.77,0,0,1-5.26,2.38,58,58,0,0,1-10.53.72h-6.62v19Zm10.14-41.76v14.26h5.56q6,0,8-.79a6.58,6.58,0,0,0,3.17-2.46,6.74,6.74,0,0,0,1.15-3.91,6.52,6.52,0,0,0-1.61-4.53,7.12,7.12,0,0,0-4.08-2.23,50.17,50.17,0,0,0-7.3-.34Z"/><path class="cls-4" d="M400.08,888.12V838.27h10.15v41.38h25.23v8.47Z"/><path class="cls-4" d="M487.94,888.12h-11l-4.38-11.42H452.43l-4.15,11.42H437.52l19.57-50.26h10.73Zm-18.68-19.89-6.92-18.65-6.79,18.65Z"/><path class="cls-4" d="M499.36,888.12V846.36H484.44v-8.5h39.94v8.5H509.5v41.76Z"/><path class="cls-4" d="M530.93,888.12V837.86h34.45v8.5h-24.3v11.9h21v8.5h-21v21.36Z"/><path class="cls-4" d="M571.62,863.3a32,32,0,0,1,2.3-12.89,23.48,23.48,0,0,1,4.68-6.89,19.4,19.4,0,0,1,6.49-4.53,27.69,27.69,0,0,1,10.84-2q11.1,0,17.77,6.89t6.67,19.17q0,12.16-6.62,19T596.06,889q-11.2,0-17.82-6.84T571.62,863.3Zm10.46-.35q0,8.53,3.94,12.95a13.56,13.56,0,0,0,20,0c2.59-2.91,3.89-7.29,3.89-13.11s-1.26-10.06-3.79-12.89a14,14,0,0,0-20.17.05Q582.08,854.29,582.08,863Z"/><path class="cls-4" d="M628.25,888.12V837.86h21.36q8.05,0,11.71,1.35a11.58,11.58,0,0,1,5.84,4.82,14.51,14.51,0,0,1,2.2,7.92,13.39,13.39,0,0,1-3.33,9.34q-3.33,3.69-9.94,4.65a23.79,23.79,0,0,1,5.43,4.21,56.73,56.73,0,0,1,5.78,8.16l6.13,9.81H661.3L654,877.18a70.24,70.24,0,0,0-5.35-7.39,7.85,7.85,0,0,0-3.05-2.09,16.92,16.92,0,0,0-5.1-.56H638.4v21Zm10.15-29h7.51q7.29,0,9.12-.61a5.41,5.41,0,0,0,2.84-2.13,6.49,6.49,0,0,0,1-3.77,6,6,0,0,0-1.36-4.1,6.22,6.22,0,0,0-3.82-2q-1.23-.16-7.4-.17H638.4Z"/><path class="cls-4" d="M678.71,888.12V837.86H693.9L703,872.14l9-34.28h15.22v50.26h-9.42V848.56l-10,39.56h-9.77l-9.94-39.56v39.56Z"/><path class="cls-4" d="M417,963.34V921.59H402.05v-8.51H442v8.51H427.11v41.75Z"/><path class="cls-4" d="M448.5,963.34V913.08h10.15v19.78h19.88V913.08h10.15v50.26H478.53v-22H458.65v22Z"/><path class="cls-4" d="M499.13,963.34V913.08h21.36q8.06,0,11.71,1.36a11.56,11.56,0,0,1,5.84,4.81,14.43,14.43,0,0,1,2.2,7.92,13.43,13.43,0,0,1-3.33,9.35q-3.31,3.68-9.94,4.64a23.6,23.6,0,0,1,5.43,4.22,56.73,56.73,0,0,1,5.78,8.16l6.14,9.8H532.18l-7.33-10.94A71.24,71.24,0,0,0,519.5,945a7.7,7.7,0,0,0-3-2.09,16.65,16.65,0,0,0-5.11-.57h-2.06v21Zm10.15-29h7.51q7.31,0,9.12-.62a5.45,5.45,0,0,0,2.84-2.12,6.55,6.55,0,0,0,1-3.78,6,6,0,0,0-1.35-4.09,6.22,6.22,0,0,0-3.82-2c-.83-.12-3.3-.17-7.41-.17h-7.92Z"/><path class="cls-4" d="M549.73,963.34V913.08H587v8.51H559.88v11.14h25.23v8.46H559.88v13.68H588v8.47Z"/><path class="cls-4" d="M641.81,963.34h-11l-4.39-11.42H606.29l-4.14,11.42H591.38L611,913.08h10.73Zm-18.68-19.88-6.93-18.65-6.79,18.65Z"/><path class="cls-4" d="M653.23,963.34V921.59H638.31v-8.51h39.94v8.51H663.37v41.75Z"/><rect class="cls-5" width="1080" height="1080"/><path class="cls-4" d="M418.8,151.83l9.85-1q.89,5,3.6,7.29a11,11,0,0,0,7.33,2.32q4.89,0,7.37-2.07a6.16,6.16,0,0,0,2.48-4.84,4.53,4.53,0,0,0-1.05-3,8.22,8.22,0,0,0-3.64-2.17q-1.77-.62-8.1-2.19-8.13-2-11.41-4.95A13.16,13.16,0,0,1,422.78,124a13.62,13.62,0,0,1,6.26-5.07,24.91,24.91,0,0,1,9.86-1.75q9.44,0,14.2,4.14a14.61,14.61,0,0,1,5,11l-10.12.44a8.6,8.6,0,0,0-2.78-5.55q-2.15-1.69-6.41-1.69a11.58,11.58,0,0,0-6.91,1.81,3.64,3.64,0,0,0-1.6,3.11,3.85,3.85,0,0,0,1.5,3c1.28,1.07,4.37,2.19,9.3,3.35A49.07,49.07,0,0,1,452,140.47a14,14,0,0,1,5.53,5.09,15.78,15.78,0,0,1-.39,16.05,14.35,14.35,0,0,1-6.77,5.59,28.53,28.53,0,0,1-10.9,1.82q-9.5,0-14.59-4.39T418.8,151.83Z"/><path class="cls-4" d="M466,143.39a32,32,0,0,1,2.29-12.85,23.68,23.68,0,0,1,4.67-6.87,19.45,19.45,0,0,1,6.48-4.51,27.34,27.34,0,0,1,10.8-2q11.07,0,17.72,6.87t6.65,19.11q0,12.14-6.6,19T490.37,169q-11.17,0-17.77-6.82T466,143.39Zm10.43-.34q0,8.5,3.93,12.9a13.51,13.51,0,0,0,19.91,0q3.87-4.35,3.88-13.07t-3.78-12.85a14,14,0,0,0-20.11.05Q476.42,134.4,476.43,143.05Z"/><path class="cls-4" d="M522.78,168.14v-49.7h10.11v41.25h25.16v8.45Z"/><path class="cls-4" d="M610.45,168.14h-11l-4.37-11.39H575l-4.14,11.39H560.17L579.69,118h10.69Zm-18.63-19.83-6.91-18.59-6.76,18.59Z"/><path class="cls-4" d="M615.85,168.14V118h21.29q8,0,11.67,1.35a11.52,11.52,0,0,1,5.83,4.8,14.42,14.42,0,0,1,2.19,7.9,13.37,13.37,0,0,1-3.32,9.31q-3.32,3.68-9.91,4.63a23.73,23.73,0,0,1,5.42,4.21,57.09,57.09,0,0,1,5.76,8.13l6.12,9.78H648.8l-7.32-10.91a70.7,70.7,0,0,0-5.33-7.36,7.78,7.78,0,0,0-3-2.09,16.89,16.89,0,0,0-5.09-.56H626v20.92ZM626,139.22h7.49q7.27,0,9.09-.62a5.43,5.43,0,0,0,2.84-2.11,6.58,6.58,0,0,0,1-3.76,6,6,0,0,0-1.35-4.09,6.16,6.16,0,0,0-3.81-2q-1.23-.18-7.38-.18H626Z"/><path class="cls-4" d="M377.79,242.48l-12-50.1h10.36l7.55,34.41,9.16-34.41h12l8.79,35,7.69-35h10.18l-12.16,50.1H408.68L398.7,205l-9.94,37.46Z"/><path class="cls-4" d="M436.75,242.48v-50.1H473.9v8.47h-27V212H472v8.44H446.86V234h28v8.44Z"/><path class="cls-4" d="M528.62,242.48h-11l-4.38-11.38h-20l-4.13,11.38H478.34l19.52-50.1h10.7ZM510,222.66l-6.9-18.6-6.77,18.6Z"/><path class="cls-4" d="M540.07,242.48V200.85H525.2v-8.47H565v8.47H550.19v41.63Z"/><path class="cls-4" d="M571.58,242.48v-50.1H581.7V212.1h19.83V192.38h10.11v50.1H601.53V220.57H581.7v21.91Z"/><path class="cls-4" d="M622.1,242.48v-50.1h37.16v8.47h-27V212h25.16v8.44H632.22V234h28v8.44Z"/><path class="cls-4" d="M668.83,242.48v-50.1h21.29c5.35,0,9.25.45,11.67,1.35a11.52,11.52,0,0,1,5.83,4.8,14.41,14.41,0,0,1,2.19,7.89,13.4,13.4,0,0,1-3.32,9.32q-3.32,3.67-9.91,4.63a23.7,23.7,0,0,1,5.42,4.2,57.94,57.94,0,0,1,5.76,8.14l6.11,9.77H701.78l-7.32-10.9a71.26,71.26,0,0,0-5.33-7.37,7.75,7.75,0,0,0-3-2.08,16.53,16.53,0,0,0-5.1-.57h-2v20.92Zm10.11-28.91h7.49q7.27,0,9.09-.62a5.43,5.43,0,0,0,2.84-2.12,6.53,6.53,0,0,0,1-3.76A6,6,0,0,0,698,203a6.22,6.22,0,0,0-3.81-2q-1.23-.17-7.38-.17h-7.9Z"/></svg>