<svg id="Layer_1" data-name="Layer 1" xmlns="http://www.w3.org/2000/svg" viewBox="0 0 1080 1080"><defs><style>.cls-1{fill:#ed2024;}.cls-2,.cls-5{fill:none;}.cls-2{stroke:#231f20;stroke-miterlimit:10;stroke-width:0.5px;}.cls-3{fill:#231f20;}.cls-4{fill:#fff;}</style></defs><title>Untitled-2</title><rect class="cls-1" x="271.9" y="71.51" width="536.2" height="216.64"/><rect class="cls-1" x="271.9" y="791.85" width="536.2" height="216.64"/><polygon class="cls-2" points="808.1 791.66 271.9 791.85 271.9 288.15 808.1 288.15 808.1 791.66"/><path class="cls-3" d="M374.27,696.08v-259H281.76V384.31H529.52v52.74h-92.3v259Z"/><path class="cls-3" d="M549,695.69V383.92h63V506.63H735.29V383.92h63V695.69h-63V559.37H611.94V695.69Z"/><path class="cls-4" d="M352.9,888.12V837.86h16.28q9.26,0,12.07.75a13.22,13.22,0,0,1,7.23,4.92,15.63,15.63,0,0,1,2.91,9.79,16.49,16.49,0,0,1-1.67,7.78,13.8,13.8,0,0,1-4.27,5,14.73,14.73,0,0,1-5.27,2.38,57.87,57.87,0,0,1-10.52.72H363v19ZM363,846.36v14.26h5.56q6,0,8-.79a6.62,6.62,0,0,0,3.17-2.46,6.74,6.74,0,0,0,1.15-3.91,6.52,6.52,0,0,0-1.61-4.53,7.12,7.12,0,0,0-4.08-2.23,50.17,50.17,0,0,0-7.3-.34Z"/><path class="cls-4" d="M399.93,888.12V838.27h10.15v41.38h25.23v8.47Z"/><path class="cls-4" d="M487.79,888.12h-11l-4.38-11.42H452.28l-4.15,11.42H437.36l19.58-50.26h10.73Zm-18.68-19.89-6.93-18.65-6.78,18.65Z"/><path class="cls-4" d="M499.21,888.12V846.36H484.29v-8.5h39.94v8.5H509.35v41.76Z"/><path class="cls-4" d="M530.78,888.12V837.86h34.45v8.5H540.92v11.9h21v8.5h-21v21.36Z"/><path class="cls-4" d="M571.47,863.3a32,32,0,0,1,2.3-12.89,23.48,23.48,0,0,1,4.68-6.89,19.4,19.4,0,0,1,6.49-4.53,27.69,27.69,0,0,1,10.84-2q11.1,0,17.77,6.89t6.67,19.17q0,12.16-6.62,19T595.91,889q-11.2,0-17.82-6.84T571.47,863.3Zm10.46-.35q0,8.53,3.94,12.95a13.56,13.56,0,0,0,20,0c2.59-2.91,3.89-7.29,3.89-13.11s-1.27-10.06-3.79-12.89a14,14,0,0,0-20.18.05Q581.94,854.29,581.93,863Z"/><path class="cls-4" d="M628.1,888.12V837.86h21.36q8.06,0,11.71,1.35A11.58,11.58,0,0,1,667,844,14.51,14.51,0,0,1,669.2,852a13.43,13.43,0,0,1-3.32,9.34q-3.33,3.69-9.94,4.65a23.79,23.79,0,0,1,5.43,4.21,56.73,56.73,0,0,1,5.78,8.16l6.13,9.81H661.15l-7.34-10.94a70.24,70.24,0,0,0-5.35-7.39,7.85,7.85,0,0,0-3.05-2.09,17,17,0,0,0-5.11-.56h-2v21Zm10.15-29h7.51q7.29,0,9.11-.61a5.44,5.44,0,0,0,2.85-2.13,6.49,6.49,0,0,0,1-3.77,6,6,0,0,0-1.36-4.1,6.22,6.22,0,0,0-3.82-2q-1.23-.16-7.4-.17h-7.92Z"/><path class="cls-4" d="M678.56,888.12V837.86h15.19l9.12,34.28,9-34.28H727.1v50.26h-9.42V848.56l-10,39.56h-9.77L688,848.56v39.56Z"/><path class="cls-4" d="M416.81,963.34V921.59H401.9v-8.51h39.94v8.51H427v41.75Z"/><path class="cls-4" d="M448.35,963.34V913.08H458.5v19.78h19.88V913.08h10.15v50.26H478.38v-22H458.5v22Z"/><path class="cls-4" d="M499,963.34V913.08h21.36q8.05,0,11.71,1.36a11.56,11.56,0,0,1,5.84,4.81,14.51,14.51,0,0,1,2.2,7.92,13.43,13.43,0,0,1-3.33,9.35q-3.32,3.68-9.94,4.64a23.6,23.6,0,0,1,5.43,4.22,56.73,56.73,0,0,1,5.78,8.16l6.14,9.8H532l-7.34-10.94a70.16,70.16,0,0,0-5.34-7.38,7.7,7.7,0,0,0-3.05-2.09,16.65,16.65,0,0,0-5.11-.57h-2.06v21Zm10.15-29h7.51q7.3,0,9.12-.62a5.45,5.45,0,0,0,2.84-2.12,6.55,6.55,0,0,0,1-3.78,6,6,0,0,0-1.35-4.09,6.22,6.22,0,0,0-3.83-2c-.82-.12-3.29-.17-7.4-.17h-7.92Z"/><path class="cls-4" d="M549.58,963.34V913.08h37.26v8.51H559.73v11.14H585v8.46H559.73v13.68H587.8v8.47Z"/><path class="cls-4" d="M641.66,963.34h-11l-4.39-11.42H606.14L602,963.34H591.23l19.58-50.26h10.73ZM623,943.46l-6.93-18.65-6.79,18.65Z"/><path class="cls-4" d="M653.07,963.34V921.59H638.16v-8.51H678.1v8.51H663.22v41.75Z"/><rect class="cls-5" width="1080" height="1080"/><path class="cls-4" d="M366.28,164.66V123H351.41v-8.47h39.82V123H376.4v41.63Z"/><path class="cls-4" d="M397.76,164.66v-50.1h37.15V123h-27v11.11H433v8.44H407.88v13.64h28v8.44Z"/><path class="cls-4" d="M444.48,164.66v-50.1h21.3q8,0,11.67,1.35a11.52,11.52,0,0,1,5.83,4.8,14.41,14.41,0,0,1,2.19,7.89,13.4,13.4,0,0,1-3.32,9.32q-3.31,3.68-9.91,4.63a23.7,23.7,0,0,1,5.42,4.2,57.94,57.94,0,0,1,5.76,8.14l6.11,9.77h-12.1l-7.31-10.9a72.88,72.88,0,0,0-5.33-7.37,7.75,7.75,0,0,0-3-2.08,16.58,16.58,0,0,0-5.1-.57h-2v20.92Zm10.12-28.91h7.49q7.28,0,9.09-.62A5.43,5.43,0,0,0,474,133a6.53,6.53,0,0,0,1-3.76,6,6,0,0,0-1.35-4.08,6.22,6.22,0,0,0-3.81-2q-1.23-.17-7.38-.17h-7.9Z"/><path class="cls-4" d="M494.87,164.66v-50.1H510l9.09,34.17,9-34.17h15.17v50.1h-9.4V125.22l-9.94,39.44h-9.74l-9.92-39.44v39.44Z"/><path class="cls-4" d="M553,164.66v-50.1h10.11v50.1Z"/><path class="cls-4" d="M572.86,164.66v-50.1h9.85L603.22,148V114.56h9.39v50.1H602.46L582.26,132v32.67Z"/><path class="cls-4" d="M668.5,164.66h-11l-4.37-11.38h-20L629,164.66H618.22l19.52-50.1h10.69Zm-18.63-19.82-6.9-18.6-6.77,18.6Z"/><path class="cls-4" d="M674.14,164.66V115h10.12v41.25h25.15v8.44Z"/><path class="cls-4" d="M352.92,244.25V194.14H363v19.72h19.83V194.14H393v50.11H382.86V222.34H363v21.91Z"/><path class="cls-4" d="M403.13,244.25V194.14h10.11v50.11Z"/><path class="cls-4" d="M441,194.14h10.09v31.72a32.27,32.27,0,0,1-1.1,9.57,13.48,13.48,0,0,1-5.33,7q-3.86,2.66-10.18,2.65Q427,245.1,423,241t-4-12.19l9.53-1.09q.18,4.31,1.27,6.08a5.43,5.43,0,0,0,5,2.7c2.25,0,3.85-.64,4.78-1.93s1.4-4,1.4-8Z"/><path class="cls-4" d="M507,244.25H496l-4.37-11.39h-20l-4.14,11.39H456.72l19.52-50.11h10.7Zm-18.63-19.83-6.9-18.59-6.77,18.59Z"/><path class="cls-4" d="M544.43,225.82l9.81,3.11q-2.26,8.2-7.51,12.19t-13.31,4A21.56,21.56,0,0,1,517,238.28q-6.42-6.81-6.42-18.64,0-12.51,6.46-19.43t17-6.93q9.18,0,14.93,5.44A19.76,19.76,0,0,1,554.1,208l-10,2.39a10.34,10.34,0,0,0-10.56-8.41,11.42,11.42,0,0,0-9,4q-3.47,4-3.47,13,0,9.5,3.42,13.53a11.1,11.1,0,0,0,8.89,4,10.13,10.13,0,0,0,6.94-2.56Q543.16,231.33,544.43,225.82Z"/><path class="cls-4" d="M563.05,244.25V194.14h10.12v22.25l20.44-22.25h13.6l-18.86,19.52,19.89,30.59H595.15l-13.78-23.52-8.2,8.38v15.14Z"/><path class="cls-4" d="M613.16,244.25V194.14h10.12v50.11Z"/><path class="cls-4" d="M633,244.25V194.14h9.84l20.51,33.46V194.14h9.4v50.11H662.62l-20.2-32.68v32.68Z"/><path class="cls-4" d="M706.78,225.82v-8.44h21.81v20a27.43,27.43,0,0,1-9.22,5.42,33.5,33.5,0,0,1-12.21,2.34,27.42,27.42,0,0,1-13.71-3.3,20.89,20.89,0,0,1-8.78-9.43A30.49,30.49,0,0,1,681.73,219,28.81,28.81,0,0,1,685,205.11a22.14,22.14,0,0,1,9.6-9.33,26,26,0,0,1,12-2.5q9.33,0,14.58,3.92A17.73,17.73,0,0,1,727.94,208l-10.05,1.88a10.61,10.61,0,0,0-4-5.83,12,12,0,0,0-7.3-2.14q-6.63,0-10.55,4.21t-3.91,12.47q0,8.92,4,13.38a13.2,13.2,0,0,0,10.39,4.46,17.42,17.42,0,0,0,6.37-1.24,22.05,22.05,0,0,0,5.49-3v-6.36Z"/></svg>