<svg id="Layer_1" data-name="Layer 1" xmlns="http://www.w3.org/2000/svg" viewBox="0 0 1080 1080"><defs><style>.cls-1{fill:#ed2024;}.cls-2,.cls-5{fill:none;}.cls-2{stroke:#231f20;stroke-miterlimit:10;stroke-width:0.5px;}.cls-3{fill:#231f20;}.cls-4{fill:#fff;}</style></defs><title>Untitled-2</title><rect class="cls-1" x="271.9" y="71.51" width="536.2" height="216.64"/><rect class="cls-1" x="271.9" y="791.85" width="536.2" height="216.64"/><polygon class="cls-2" points="808.1 791.66 271.9 791.85 271.9 288.15 808.1 288.15 808.1 791.66"/><path class="cls-3" d="M372.54,706.28V439.4H277.23V385.06H532.5V439.4H437.4V706.28Z"/><path class="cls-3" d="M739.89,582.32l62.88,19.93q-14.46,52.59-48.09,78.12T669.33,705.9q-64,0-105.17-43.72T523,542.66q0-80.2,41.42-124.57t108.9-44.37q58.94,0,95.75,34.84,21.9,20.6,32.87,59.16l-64.21,15.34q-5.69-25-23.77-39.44T670,429.15q-35.72,0-58,25.64t-22.24,83.05q0,60.92,21.91,86.76t57,25.86q25.86,0,44.48-16.43T739.89,582.32Z"/><path class="cls-4" d="M352.9,888.12V837.86h16.28q9.26,0,12.07.75a13.22,13.22,0,0,1,7.23,4.92,15.63,15.63,0,0,1,2.91,9.79,16.49,16.49,0,0,1-1.67,7.78,13.8,13.8,0,0,1-4.27,5,14.73,14.73,0,0,1-5.27,2.38,57.87,57.87,0,0,1-10.52.72H363v19ZM363,846.36v14.26h5.56q6,0,8-.79a6.62,6.62,0,0,0,3.17-2.46,6.74,6.74,0,0,0,1.15-3.91,6.52,6.52,0,0,0-1.61-4.53,7.12,7.12,0,0,0-4.08-2.23,50.17,50.17,0,0,0-7.3-.34Z"/><path class="cls-4" d="M399.93,888.12V838.27h10.15v41.38h25.23v8.47Z"/><path class="cls-4" d="M487.79,888.12h-11l-4.38-11.42H452.28l-4.15,11.42H437.36l19.58-50.26h10.73Zm-18.68-19.89-6.93-18.65-6.78,18.65Z"/><path class="cls-4" d="M499.21,888.12V846.36H484.29v-8.5h39.94v8.5H509.35v41.76Z"/><path class="cls-4" d="M530.78,888.12V837.86h34.45v8.5H540.92v11.9h21v8.5h-21v21.36Z"/><path class="cls-4" d="M571.47,863.3a32,32,0,0,1,2.3-12.89,23.48,23.48,0,0,1,4.68-6.89,19.4,19.4,0,0,1,6.49-4.53,27.69,27.69,0,0,1,10.84-2q11.1,0,17.77,6.89t6.67,19.17q0,12.16-6.62,19T595.91,889q-11.2,0-17.82-6.84T571.47,863.3Zm10.46-.35q0,8.53,3.94,12.95a13.56,13.56,0,0,0,20,0c2.59-2.91,3.89-7.29,3.89-13.11s-1.27-10.06-3.79-12.89a14,14,0,0,0-20.18.05Q581.94,854.29,581.93,863Z"/><path class="cls-4" d="M628.1,888.12V837.86h21.36q8.06,0,11.71,1.35A11.58,11.58,0,0,1,667,844,14.51,14.51,0,0,1,669.2,852a13.43,13.43,0,0,1-3.32,9.34q-3.33,3.69-9.94,4.65a23.79,23.79,0,0,1,5.43,4.21,56.73,56.73,0,0,1,5.78,8.16l6.13,9.81H661.15l-7.34-10.94a70.24,70.24,0,0,0-5.35-7.39,7.85,7.85,0,0,0-3.05-2.09,17,17,0,0,0-5.11-.56h-2v21Zm10.15-29h7.51q7.29,0,9.11-.61a5.44,5.44,0,0,0,2.85-2.13,6.49,6.49,0,0,0,1-3.77,6,6,0,0,0-1.36-4.1,6.22,6.22,0,0,0-3.82-2q-1.23-.16-7.4-.17h-7.92Z"/><path class="cls-4" d="M678.56,888.12V837.86h15.19l9.12,34.28,9-34.28H727.1v50.26h-9.42V848.56l-10,39.56h-9.77L688,848.56v39.56Z"/><path class="cls-4" d="M416.81,963.34V921.59H401.9v-8.51h39.94v8.51H427v41.75Z"/><path class="cls-4" d="M448.35,963.34V913.08H458.5v19.78h19.88V913.08h10.15v50.26H478.38v-22H458.5v22Z"/><path class="cls-4" d="M499,963.34V913.08h21.36q8.05,0,11.71,1.36a11.56,11.56,0,0,1,5.84,4.81,14.51,14.51,0,0,1,2.2,7.92,13.43,13.43,0,0,1-3.33,9.35q-3.32,3.68-9.94,4.64a23.6,23.6,0,0,1,5.43,4.22,56.73,56.73,0,0,1,5.78,8.16l6.14,9.8H532l-7.34-10.94a70.16,70.16,0,0,0-5.34-7.38,7.7,7.7,0,0,0-3.05-2.09,16.65,16.65,0,0,0-5.11-.57h-2.06v21Zm10.15-29h7.51q7.3,0,9.12-.62a5.45,5.45,0,0,0,2.84-2.12,6.55,6.55,0,0,0,1-3.78,6,6,0,0,0-1.35-4.09,6.22,6.22,0,0,0-3.83-2c-.82-.12-3.29-.17-7.4-.17h-7.92Z"/><path class="cls-4" d="M549.58,963.34V913.08h37.26v8.51H559.73v11.14H585v8.46H559.73v13.68H587.8v8.47Z"/><path class="cls-4" d="M641.66,963.34h-11l-4.39-11.42H606.14L602,963.34H591.23l19.58-50.26h10.73ZM623,943.46l-6.93-18.65-6.79,18.65Z"/><path class="cls-4" d="M653.07,963.34V921.59H638.16v-8.51H678.1v8.51H663.22v41.75Z"/><rect class="cls-5" width="1080" height="1080"/><path class="cls-4" d="M385.59,168.34V126.71H370.73v-8.47h39.81v8.47H395.71v41.63Z"/><path class="cls-4" d="M417.11,168.34v-50.1h10.11V138h19.83V118.24h10.12v50.1H447.05v-21.9H427.22v21.9Z"/><path class="cls-4" d="M467.62,168.34v-50.1h37.16v8.47h-27v11.11H502.9v8.44H477.74V159.9h28v8.44Z"/><path class="cls-4" d="M514.35,168.34v-50.1h21.29q8,0,11.67,1.35a11.52,11.52,0,0,1,5.83,4.8,14.42,14.42,0,0,1,2.19,7.9A13.39,13.39,0,0,1,552,141.6q-3.32,3.68-9.91,4.63a23.76,23.76,0,0,1,5.42,4.2,57.94,57.94,0,0,1,5.76,8.14l6.12,9.77H547.3L540,157.44a68.07,68.07,0,0,0-5.33-7.36,7.78,7.78,0,0,0-3-2.09,16.57,16.57,0,0,0-5.09-.56h-2v20.91Zm10.12-28.91H532q7.27,0,9.09-.62a5.4,5.4,0,0,0,2.84-2.12,6.53,6.53,0,0,0,1-3.76,6.06,6.06,0,0,0-1.34-4.08,6.27,6.27,0,0,0-3.82-2q-1.23-.16-7.38-.17h-7.89Z"/><path class="cls-4" d="M564.73,168.34v-50.1h15.14L589,152.42l9-34.18h15.18v50.1h-9.4V128.9l-10,39.44H584l-9.91-39.44v39.44Z"/><path class="cls-4" d="M668.36,168.34h-11L653,157H633l-4.13,11.38H618.08l19.52-50.1h10.7Zm-18.63-19.82-6.9-18.59-6.77,18.59Z"/><path class="cls-4" d="M674,168.34V118.65h10.12V159.9h25.15v8.44Z"/><path class="cls-4" d="M420.11,222.14l9.81,3.11q-2.25,8.2-7.5,12.19t-13.31,4a21.55,21.55,0,0,1-16.41-6.82q-6.42-6.82-6.42-18.64,0-12.51,6.46-19.44t17-6.92q9.19,0,14.94,5.44a19.76,19.76,0,0,1,5.13,9.23l-10,2.39a10.36,10.36,0,0,0-10.56-8.41,11.39,11.39,0,0,0-9,4q-3.46,4-3.47,12.95,0,9.51,3.42,13.54a11.1,11.1,0,0,0,8.89,4,10.11,10.11,0,0,0,6.93-2.56Q418.85,227.65,420.11,222.14Z"/><path class="cls-4" d="M451.77,240.56V219.48l-18.36-29h11.86l11.79,19.82,11.56-19.82h11.65l-18.42,29.08v21Z"/><path class="cls-4" d="M517.36,222.14l9.81,3.11q-2.26,8.2-7.51,12.19t-13.31,4a21.56,21.56,0,0,1-16.41-6.82q-6.42-6.82-6.42-18.64,0-12.51,6.46-19.44t17-6.92q9.18,0,14.93,5.44a19.76,19.76,0,0,1,5.13,9.23l-10,2.39a10.34,10.34,0,0,0-10.56-8.41,11.39,11.39,0,0,0-9,4q-3.46,4-3.47,12.95,0,9.51,3.42,13.54a11.1,11.1,0,0,0,8.89,4,10.13,10.13,0,0,0,6.94-2.56Q516.09,227.65,517.36,222.14Z"/><path class="cls-4" d="M536.12,240.56V190.87h10.12v41.25h25.15v8.44Z"/><path class="cls-4" d="M578.3,240.56v-50.1h10.12v50.1Z"/><path class="cls-4" d="M598.16,240.56v-50.1H608l20.51,33.46V190.46h9.4v50.1H627.76l-20.2-32.67v32.67Z"/><path class="cls-4" d="M671.92,222.14V213.7h21.8v20a27.47,27.47,0,0,1-9.21,5.42,33.52,33.52,0,0,1-12.22,2.34,27.38,27.38,0,0,1-13.7-3.3,21,21,0,0,1-8.79-9.43,30.49,30.49,0,0,1-2.94-13.35,28.9,28.9,0,0,1,3.28-13.91,22.05,22.05,0,0,1,9.61-9.33,25.82,25.82,0,0,1,12-2.5q9.33,0,14.57,3.92a17.64,17.64,0,0,1,6.75,10.81L683,206.21a10.54,10.54,0,0,0-4-5.82,12,12,0,0,0-7.29-2.14q-6.64,0-10.55,4.2t-3.91,12.48q0,8.92,4,13.38a13.26,13.26,0,0,0,10.39,4.46,17.28,17.28,0,0,0,6.38-1.25,21.79,21.79,0,0,0,5.48-3v-6.36Z"/></svg>