<svg id="Layer_1" data-name="Layer 1" xmlns="http://www.w3.org/2000/svg" viewBox="0 0 1080 1080"><defs><style>.cls-1{fill:#ed2024;}.cls-2,.cls-5{fill:none;}.cls-2{stroke:#231f20;stroke-miterlimit:10;stroke-width:0.5px;}.cls-3{fill:#231f20;}.cls-4{fill:#fff;}</style></defs><title>Untitled-2</title><rect class="cls-1" x="271.9" y="71.51" width="536.2" height="216.64"/><rect class="cls-1" x="271.9" y="791.85" width="536.2" height="216.64"/><polygon class="cls-2" points="808.1 791.66 271.9 791.85 271.9 288.15 808.1 288.15 808.1 791.66"/><path class="cls-3" d="M280.43,380.27h63.42V550.39q0,40.5,2.36,52.5a50.89,50.89,0,0,0,19.39,31q15.31,11.67,41.89,11.67,27,0,40.71-11t16.5-27.11q2.78-16.07,2.78-53.35V380.27H530.9v165q0,56.57-5.14,79.92t-19,39.42q-13.82,16.08-37,25.61t-60.42,9.53q-45,0-68.24-10.39t-36.75-27q-13.5-16.59-17.78-34.81-6.22-27-6.22-79.71Z"/><path class="cls-3" d="M548.45,699.33V385.23h63.43V508.85H736.15V385.23h63.42v314.1H736.15V562H611.88V699.33Z"/><path class="cls-4" d="M352.9,888.12V837.86h16.28q9.26,0,12.07.75a13.22,13.22,0,0,1,7.23,4.92,15.63,15.63,0,0,1,2.91,9.79,16.49,16.49,0,0,1-1.67,7.78,13.8,13.8,0,0,1-4.27,5,14.73,14.73,0,0,1-5.27,2.38,57.87,57.87,0,0,1-10.52.72H363v19ZM363,846.36v14.26h5.56q6,0,8-.79a6.62,6.62,0,0,0,3.17-2.46,6.74,6.74,0,0,0,1.15-3.91,6.52,6.52,0,0,0-1.61-4.53,7.12,7.12,0,0,0-4.08-2.23,50.17,50.17,0,0,0-7.3-.34Z"/><path class="cls-4" d="M399.93,888.12V838.27h10.15v41.38h25.23v8.47Z"/><path class="cls-4" d="M487.79,888.12h-11l-4.38-11.42H452.28l-4.15,11.42H437.36l19.58-50.26h10.73Zm-18.68-19.89-6.93-18.65-6.78,18.65Z"/><path class="cls-4" d="M499.21,888.12V846.36H484.29v-8.5h39.94v8.5H509.35v41.76Z"/><path class="cls-4" d="M530.78,888.12V837.86h34.45v8.5H540.92v11.9h21v8.5h-21v21.36Z"/><path class="cls-4" d="M571.47,863.3a32,32,0,0,1,2.3-12.89,23.48,23.48,0,0,1,4.68-6.89,19.4,19.4,0,0,1,6.49-4.53,27.69,27.69,0,0,1,10.84-2q11.1,0,17.77,6.89t6.67,19.17q0,12.16-6.62,19T595.91,889q-11.2,0-17.82-6.84T571.47,863.3Zm10.46-.35q0,8.53,3.94,12.95a13.56,13.56,0,0,0,20,0c2.59-2.91,3.89-7.29,3.89-13.11s-1.27-10.06-3.79-12.89a14,14,0,0,0-20.18.05Q581.94,854.29,581.93,863Z"/><path class="cls-4" d="M628.1,888.12V837.86h21.36q8.06,0,11.71,1.35A11.58,11.58,0,0,1,667,844,14.51,14.51,0,0,1,669.2,852a13.43,13.43,0,0,1-3.32,9.34q-3.33,3.69-9.94,4.65a23.79,23.79,0,0,1,5.43,4.21,56.73,56.73,0,0,1,5.78,8.16l6.13,9.81H661.15l-7.34-10.94a70.24,70.24,0,0,0-5.35-7.39,7.85,7.85,0,0,0-3.05-2.09,17,17,0,0,0-5.11-.56h-2v21Zm10.15-29h7.51q7.29,0,9.11-.61a5.44,5.44,0,0,0,2.85-2.13,6.49,6.49,0,0,0,1-3.77,6,6,0,0,0-1.36-4.1,6.22,6.22,0,0,0-3.82-2q-1.23-.16-7.4-.17h-7.92Z"/><path class="cls-4" d="M678.56,888.12V837.86h15.19l9.12,34.28,9-34.28H727.1v50.26h-9.42V848.56l-10,39.56h-9.77L688,848.56v39.56Z"/><path class="cls-4" d="M416.81,963.34V921.59H401.9v-8.51h39.94v8.51H427v41.75Z"/><path class="cls-4" d="M448.35,963.34V913.08H458.5v19.78h19.88V913.08h10.15v50.26H478.38v-22H458.5v22Z"/><path class="cls-4" d="M499,963.34V913.08h21.36q8.05,0,11.71,1.36a11.56,11.56,0,0,1,5.84,4.81,14.51,14.51,0,0,1,2.2,7.92,13.43,13.43,0,0,1-3.33,9.35q-3.32,3.68-9.94,4.64a23.6,23.6,0,0,1,5.43,4.22,56.73,56.73,0,0,1,5.78,8.16l6.14,9.8H532l-7.34-10.94a70.16,70.16,0,0,0-5.34-7.38,7.7,7.7,0,0,0-3.05-2.09,16.65,16.65,0,0,0-5.11-.57h-2.06v21Zm10.15-29h7.51q7.3,0,9.12-.62a5.45,5.45,0,0,0,2.84-2.12,6.55,6.55,0,0,0,1-3.78,6,6,0,0,0-1.35-4.09,6.22,6.22,0,0,0-3.83-2c-.82-.12-3.29-.17-7.4-.17h-7.92Z"/><path class="cls-4" d="M549.58,963.34V913.08h37.26v8.51H559.73v11.14H585v8.46H559.73v13.68H587.8v8.47Z"/><path class="cls-4" d="M641.66,963.34h-11l-4.39-11.42H606.14L602,963.34H591.23l19.58-50.26h10.73ZM623,943.46l-6.93-18.65-6.79,18.65Z"/><path class="cls-4" d="M653.07,963.34V921.59H638.16v-8.51H678.1v8.51H663.22v41.75Z"/><rect class="cls-5" width="1080" height="1080"/><path class="cls-4" d="M445.46,115.42h10.12v27.14a56.81,56.81,0,0,0,.37,8.38,8.13,8.13,0,0,0,3.1,4.94,10.75,10.75,0,0,0,6.68,1.86q4.31,0,6.49-1.76a6.92,6.92,0,0,0,2.63-4.32,55.78,55.78,0,0,0,.45-8.52V115.42h10.12v26.32q0,9-.83,12.75a14,14,0,0,1-3,6.29,15.37,15.37,0,0,1-5.9,4.09,25.7,25.7,0,0,1-9.63,1.52q-7.19,0-10.89-1.66a15.55,15.55,0,0,1-5.86-4.31,13.74,13.74,0,0,1-2.84-5.55,61,61,0,0,1-1-12.72Z"/><path class="cls-4" d="M493.52,149.23l9.84-1c.59,3.31,1.79,5.73,3.6,7.28a10.93,10.93,0,0,0,7.34,2.33c3.25,0,5.71-.69,7.36-2.07a6.16,6.16,0,0,0,2.48-4.84,4.58,4.58,0,0,0-1-3,8.34,8.34,0,0,0-3.64-2.17q-1.79-.61-8.1-2.19-8.14-2-11.42-5a13,13,0,0,1-4.61-10.08,12.85,12.85,0,0,1,2.17-7.16,13.62,13.62,0,0,1,6.25-5.08,25.1,25.1,0,0,1,9.86-1.74q9.43,0,14.2,4.14a14.57,14.57,0,0,1,5,11l-10.11.44c-.44-2.57-1.37-4.43-2.79-5.55s-3.56-1.7-6.41-1.7a11.52,11.52,0,0,0-6.9,1.82,3.65,3.65,0,0,0-1.61,3.11,3.85,3.85,0,0,0,1.5,3q1.92,1.6,9.3,3.35a49.16,49.16,0,0,1,10.92,3.6,14.08,14.08,0,0,1,5.54,5.1,15.77,15.77,0,0,1-.39,16,14.39,14.39,0,0,1-6.77,5.59,28.38,28.38,0,0,1-10.91,1.83q-9.5,0-14.59-4.39T493.52,149.23Z"/><path class="cls-4" d="M542.77,165.53V115.42h37.15v8.48h-27V135H578v8.44H552.89v13.64h28v8.44Z"/><path class="cls-4" d="M589.49,165.53V115.42h21.3q8,0,11.67,1.36a11.56,11.56,0,0,1,5.83,4.8,14.48,14.48,0,0,1,2.18,7.89,13.39,13.39,0,0,1-3.31,9.32q-3.31,3.68-9.91,4.63a23.63,23.63,0,0,1,5.41,4.2,56.31,56.31,0,0,1,5.76,8.14l6.12,9.77h-12.1l-7.31-10.9a70.78,70.78,0,0,0-5.34-7.37,7.68,7.68,0,0,0-3-2.08,16.5,16.5,0,0,0-5.09-.57h-2v20.92Zm10.12-28.91h7.48q7.29,0,9.1-.62a5.46,5.46,0,0,0,2.83-2.12,6.46,6.46,0,0,0,1-3.76A6,6,0,0,0,618.7,126a6.22,6.22,0,0,0-3.81-2q-1.23-.16-7.39-.17h-7.89Z"/><path class="cls-4" d="M352.17,244.23V194.12h10.11v19.73h19.83V194.12h10.11v50.11H382.11V222.32H362.28v21.91Z"/><path class="cls-4" d="M402.38,244.23V194.12h10.11v50.11Z"/><path class="cls-4" d="M440.21,194.12H450.3v31.72a32.27,32.27,0,0,1-1.1,9.57,13.59,13.59,0,0,1-5.33,7q-3.87,2.64-10.19,2.65-7.41,0-11.41-4.16t-4-12.18l9.54-1.1c.11,2.88.54,4.9,1.27,6.09a5.43,5.43,0,0,0,5,2.7c2.25,0,3.85-.65,4.78-1.93s1.4-4,1.4-8Z"/><path class="cls-4" d="M506.25,244.23h-11l-4.37-11.38h-20l-4.14,11.38H456l19.52-50.11h10.69Zm-18.63-19.82-6.9-18.6L474,224.41Z"/><path class="cls-4" d="M543.67,225.81l9.81,3.11q-2.25,8.21-7.5,12.18t-13.31,4a21.58,21.58,0,0,1-16.41-6.82q-6.42-6.83-6.42-18.65,0-12.51,6.46-19.43t17-6.92q9.19,0,14.94,5.43a19.81,19.81,0,0,1,5.13,9.23l-10,2.4a10.34,10.34,0,0,0-10.56-8.41,11.39,11.39,0,0,0-9,4q-3.47,4-3.47,13,0,9.49,3.42,13.54a11.13,11.13,0,0,0,8.89,4,10.12,10.12,0,0,0,6.93-2.57Q542.41,231.32,543.67,225.81Z"/><path class="cls-4" d="M562.3,244.23V194.12h10.12v22.25l20.44-22.25h13.6L587.6,213.64l19.89,30.59H594.4l-13.78-23.51-8.2,8.37v15.14Z"/><path class="cls-4" d="M612.41,244.23V194.12h10.12v50.11Z"/><path class="cls-4" d="M632.27,244.23V194.12h9.84l20.51,33.47V194.12H672v50.11H661.87l-20.2-32.67v32.67Z"/><path class="cls-4" d="M706,225.81v-8.44h21.8v20a27.36,27.36,0,0,1-9.21,5.41,33.32,33.32,0,0,1-12.22,2.35,27.38,27.38,0,0,1-13.7-3.3,21,21,0,0,1-8.79-9.44A30.47,30.47,0,0,1,681,219a28.79,28.79,0,0,1,3.29-13.91,22.05,22.05,0,0,1,9.6-9.34,26,26,0,0,1,12-2.49q9.33,0,14.58,3.91A17.75,17.75,0,0,1,727.19,208l-10.05,1.88a10.66,10.66,0,0,0-4-5.83,12,12,0,0,0-7.29-2.13q-6.63,0-10.55,4.2T691.4,218.6q0,8.91,4,13.38a13.26,13.26,0,0,0,10.39,4.46,17.48,17.48,0,0,0,6.38-1.25,21.79,21.79,0,0,0,5.48-3v-6.36Z"/></svg>