<svg id="Layer_1" data-name="Layer 1" xmlns="http://www.w3.org/2000/svg" viewBox="0 0 1080 1080"><defs><style>.cls-1{fill:#6fccdd;}.cls-2{fill:none;stroke:#231f20;stroke-miterlimit:10;stroke-width:0.5px;}.cls-3{fill:#fff;}.cls-4{fill:#231f20;}</style></defs><title>SPARTA</title><rect class="cls-1" x="276.87" y="80.19" width="526.26" height="212.63"/><rect class="cls-1" x="276.87" y="787.18" width="526.26" height="212.63"/><polygon class="cls-2" points="803.13 787 276.87 787.18 276.87 292.82 803.13 292.82 803.13 787"/><path class="cls-3" d="M402.7,902.23l9.84-1c.6,3.31,1.8,5.73,3.61,7.28a10.91,10.91,0,0,0,7.33,2.33c3.26,0,5.71-.69,7.37-2.07a6.16,6.16,0,0,0,2.48-4.84,4.53,4.53,0,0,0-1.05-3,8.28,8.28,0,0,0-3.64-2.17q-1.77-.62-8.1-2.19-8.13-2-11.41-5a13,13,0,0,1-4.62-10.08,12.85,12.85,0,0,1,2.17-7.16,13.65,13.65,0,0,1,6.26-5.08,25.1,25.1,0,0,1,9.86-1.74q9.43,0,14.2,4.14a14.57,14.57,0,0,1,5,11l-10.12.44a8.56,8.56,0,0,0-2.79-5.55c-1.42-1.13-3.56-1.69-6.4-1.69a11.55,11.55,0,0,0-6.91,1.81,3.65,3.65,0,0,0-1.61,3.11,3.86,3.86,0,0,0,1.51,3q1.9,1.61,9.3,3.35a49.16,49.16,0,0,1,10.92,3.6,14.12,14.12,0,0,1,5.53,5.1,15.77,15.77,0,0,1-.39,16,14.34,14.34,0,0,1-6.77,5.59,28.33,28.33,0,0,1-10.9,1.83q-9.51,0-14.6-4.39T402.7,902.23Z"/><path class="cls-3" d="M452,918.53v-50.1h16.24q9.22,0,12,.75a13.17,13.17,0,0,1,7.21,4.9,15.54,15.54,0,0,1,2.91,9.76,16.31,16.31,0,0,1-1.68,7.76,13.67,13.67,0,0,1-4.25,4.94,14.62,14.62,0,0,1-5.25,2.37,57.57,57.57,0,0,1-10.49.72h-6.6v18.9Zm10.12-41.63v14.22h5.54q6,0,8-.78a6.59,6.59,0,0,0,4.3-6.36,6.45,6.45,0,0,0-1.6-4.51,7,7,0,0,0-4.07-2.23,49.93,49.93,0,0,0-7.28-.34Z"/><path class="cls-3" d="M538.63,918.53h-11l-4.38-11.38h-20l-4.13,11.38H488.35l19.52-50.1h10.7ZM520,898.71l-6.9-18.59-6.77,18.59Z"/><path class="cls-3" d="M544,918.53v-50.1h21.3q8,0,11.67,1.35a11.52,11.52,0,0,1,5.83,4.8,14.4,14.4,0,0,1,2.18,7.89,13.39,13.39,0,0,1-3.31,9.32q-3.32,3.68-9.91,4.63a23.91,23.91,0,0,1,5.41,4.2,56.31,56.31,0,0,1,5.76,8.14l6.12,9.77H577l-7.31-10.9a72.88,72.88,0,0,0-5.33-7.37,7.89,7.89,0,0,0-3.05-2.08,16.52,16.52,0,0,0-5.09-.56h-2.05v20.91Zm10.12-28.91h7.49q7.27,0,9.09-.62a5.37,5.37,0,0,0,2.83-2.12,6.46,6.46,0,0,0,1-3.76,6,6,0,0,0-1.35-4.08,6.22,6.22,0,0,0-3.81-2q-1.23-.17-7.38-.17h-7.9Z"/><path class="cls-3" d="M605.83,918.53V876.9H591v-8.47h39.82v8.47H616v41.63Z"/><path class="cls-3" d="M677.3,918.53h-11l-4.37-11.38h-20l-4.14,11.38H627l19.52-50.1h10.7Zm-18.63-19.82-6.9-18.59L645,898.71Z"/><path class="cls-3" d="M379,117.87h18.49a36,36,0,0,1,9.54,1,16.65,16.65,0,0,1,7.55,4.61,22,22,0,0,1,4.79,8.12A37.07,37.07,0,0,1,421,143.4a32.84,32.84,0,0,1-1.54,10.67,22.06,22.06,0,0,1-5.37,8.85,17.77,17.77,0,0,1-7.1,4,30.88,30.88,0,0,1-9,1.06H379Zm10.12,8.48v33.19h7.55a27.45,27.45,0,0,0,6.12-.48,9.41,9.41,0,0,0,4.09-2.09,10.59,10.59,0,0,0,2.64-4.83,32.49,32.49,0,0,0,1-9.18,29.65,29.65,0,0,0-1-8.92,11.47,11.47,0,0,0-2.87-4.86,9.63,9.63,0,0,0-4.68-2.35,45.67,45.67,0,0,0-8.3-.48Z"/><path class="cls-3" d="M429.55,168V117.87H466.7v8.48h-27v11.11h25.15v8.44H439.67v13.64h28V168Z"/><path class="cls-3" d="M476.31,168V117.87h34.35v8.48H486.42v11.86h20.92v8.47H486.42V168Z"/><path class="cls-3" d="M519,168V117.87h37.15v8.48h-27v11.11h25.16v8.44H529.11v13.64h28V168Z"/><path class="cls-3" d="M565.79,168V117.87h9.84l20.51,33.46V117.87h9.4V168H595.39l-20.2-32.68V168Z"/><path class="cls-3" d="M613.67,151.67l9.85-.95q.88,5,3.6,7.28a10.93,10.93,0,0,0,7.34,2.32c3.25,0,5.71-.69,7.36-2.07a6.14,6.14,0,0,0,2.48-4.83,4.59,4.59,0,0,0-1-3,8.44,8.44,0,0,0-3.64-2.17q-1.79-.61-8.1-2.19-8.14-2-11.42-4.95A13,13,0,0,1,615.49,131a12.89,12.89,0,0,1,2.17-7.17,13.54,13.54,0,0,1,6.25-5.07,25.1,25.1,0,0,1,9.86-1.74q9.43,0,14.2,4.13a14.61,14.61,0,0,1,5,11l-10.12.45a8.6,8.6,0,0,0-2.78-5.56c-1.43-1.13-3.56-1.69-6.41-1.69a11.52,11.52,0,0,0-6.9,1.81,3.64,3.64,0,0,0-1.61,3.11,3.84,3.84,0,0,0,1.5,3q1.92,1.62,9.3,3.35a49.6,49.6,0,0,1,10.92,3.61,14.12,14.12,0,0,1,5.54,5.09,15,15,0,0,1,2,8,14.75,14.75,0,0,1-2.4,8.07,14.32,14.32,0,0,1-6.76,5.59,28.38,28.38,0,0,1-10.91,1.83q-9.5,0-14.59-4.4T613.67,151.67Z"/><path class="cls-3" d="M662.93,168V117.87h37.15v8.48H673v11.11H698.2v8.44H673v13.64h28V168Z"/><path class="cls-3" d="M390.41,255.1V205h37.16v8.48h-27v11.11h25.16V233H400.53v13.64h28v8.44Z"/><path class="cls-3" d="M449.89,255.1,432,205h11l12.68,37.09L467.9,205h10.73L460.69,255.1Z"/><path class="cls-3" d="M523.78,255.1h-11l-4.38-11.38h-20l-4.13,11.38H473.5L493,205h10.7Zm-18.63-19.82-6.9-18.6-6.77,18.6Z"/><path class="cls-3" d="M526.58,238.8l9.85-1c.59,3.31,1.79,5.73,3.6,7.28a10.93,10.93,0,0,0,7.34,2.33c3.25,0,5.71-.69,7.36-2.07a6.16,6.16,0,0,0,2.48-4.84,4.58,4.58,0,0,0-1-3,8.25,8.25,0,0,0-3.64-2.17q-1.78-.61-8.1-2.19-8.14-2-11.42-5a13,13,0,0,1-4.61-10.08,12.85,12.85,0,0,1,2.17-7.16,13.62,13.62,0,0,1,6.25-5.08,25.1,25.1,0,0,1,9.86-1.74q9.44,0,14.2,4.14a14.57,14.57,0,0,1,5,11l-10.12.44c-.43-2.57-1.36-4.43-2.78-5.55s-3.56-1.7-6.41-1.7a11.52,11.52,0,0,0-6.9,1.82,3.62,3.62,0,0,0-1.61,3.11,3.85,3.85,0,0,0,1.5,3q1.92,1.61,9.3,3.35a49.16,49.16,0,0,1,10.92,3.6,14.15,14.15,0,0,1,5.54,5.1,14.9,14.9,0,0,1,2,8,14.69,14.69,0,0,1-2.4,8.06,14.32,14.32,0,0,1-6.76,5.59A28.38,28.38,0,0,1,547.26,256q-9.5,0-14.59-4.39T526.58,238.8Z"/><path class="cls-3" d="M575.53,255.1V205h10.12V255.1Z"/><path class="cls-3" d="M593.23,230.36a32,32,0,0,1,2.29-12.86,23.68,23.68,0,0,1,4.67-6.87,19.59,19.59,0,0,1,6.48-4.51,27.52,27.52,0,0,1,10.8-2q11.07,0,17.72,6.87t6.65,19.11q0,12.13-6.6,19T617.6,256q-11.18,0-17.77-6.82T593.23,230.36Zm10.43-.35q0,8.52,3.93,12.91a13.51,13.51,0,0,0,19.91,0q3.88-4.35,3.88-13.07T627.6,217a14,14,0,0,0-20.11.05Q603.67,221.37,603.66,230Z"/><path class="cls-3" d="M649.84,255.1V205h9.84l20.51,33.47V205h9.4V255.1H679.44l-20.2-32.67V255.1Z"/><path class="cls-4" d="M287.79,347.46H394.85q36.21,0,55.21,5.54a97,97,0,0,1,43.73,26.71q18.21,19.2,27.71,47t9.5,68.57q0,35.82-8.91,61.74Q511.2,588.68,491,608.27q-15.24,14.85-41.16,23.15-19.39,6.14-51.84,6.14H287.79Zm58.58,49.07V588.68H390.1q24.54,0,35.42-2.77,14.25-3.55,23.65-12.07t15.34-28q5.92-19.49,5.93-53.13t-5.93-51.65q-5.94-18-16.63-28.1T420.77,399.3q-12.27-2.76-48.08-2.77Z"/><path class="cls-4" d="M580.67,637.56V347.46h215.1v49.07H639.24v64.32H784.88v48.87H639.24v79H801.31v48.88Z"/><rect class="cls-2" y="-4.35" width="1080" height="1080"/></svg>