<svg id="Layer_1" data-name="Layer 1" xmlns="http://www.w3.org/2000/svg" viewBox="0 0 1080 1080"><defs><style>.cls-1{fill:#6fccdd;}.cls-2{fill:none;stroke:#231f20;stroke-miterlimit:10;stroke-width:0.5px;}.cls-3{fill:#fff;}.cls-4{fill:#231f20;}</style></defs><title>SPARTA</title><rect class="cls-1" x="285.39" y="110.79" width="526.26" height="212.63"/><rect class="cls-1" x="285.39" y="817.78" width="526.26" height="212.63"/><polygon class="cls-2" points="811.65 817.6 285.39 817.78 285.39 323.42 811.65 323.42 811.65 817.6"/><path class="cls-3" d="M411.22,932.83l9.85-1c.59,3.31,1.79,5.73,3.6,7.28a10.91,10.91,0,0,0,7.33,2.33q4.89,0,7.37-2.07a6.16,6.16,0,0,0,2.48-4.84,4.53,4.53,0,0,0-1.05-3,8.13,8.13,0,0,0-3.64-2.17q-1.77-.61-8.1-2.19-8.13-2-11.41-5A13.14,13.14,0,0,1,415.2,905a13.64,13.64,0,0,1,6.26-5.08,25.1,25.1,0,0,1,9.86-1.74q9.44,0,14.2,4.14a14.57,14.57,0,0,1,5,11l-10.12.44c-.43-2.57-1.36-4.43-2.78-5.55s-3.56-1.7-6.41-1.7a11.57,11.57,0,0,0-6.91,1.82,3.64,3.64,0,0,0-1.6,3.11,3.87,3.87,0,0,0,1.5,3q1.92,1.61,9.3,3.35a49.16,49.16,0,0,1,10.92,3.6,14.15,14.15,0,0,1,5.54,5.1,14.9,14.9,0,0,1,2,8,14.68,14.68,0,0,1-2.39,8.06,14.29,14.29,0,0,1-6.77,5.59A28.33,28.33,0,0,1,431.9,950q-9.5,0-14.59-4.39T411.22,932.83Z"/><path class="cls-3" d="M460.48,949.13V899h16.23q9.23,0,12,.76a13.08,13.08,0,0,1,7.21,4.9,15.54,15.54,0,0,1,2.91,9.76,16.31,16.31,0,0,1-1.68,7.76,13.76,13.76,0,0,1-4.25,4.94,14.62,14.62,0,0,1-5.25,2.37,57.5,57.5,0,0,1-10.49.72h-6.6v18.9Zm10.11-41.63v14.22h5.54c4,0,6.65-.26,8-.79a6.6,6.6,0,0,0,3.16-2.46,6.72,6.72,0,0,0,1.14-3.89,6.49,6.49,0,0,0-1.6-4.52,7,7,0,0,0-4.07-2.22,48.39,48.39,0,0,0-7.28-.34Z"/><path class="cls-3" d="M547.16,949.13h-11l-4.38-11.38h-20l-4.13,11.38H496.88L516.39,899h10.7Zm-18.63-19.82-6.91-18.6-6.76,18.6Z"/><path class="cls-3" d="M552.56,949.13V899h21.29q8,0,11.67,1.35a11.54,11.54,0,0,1,5.83,4.81,14.41,14.41,0,0,1,2.19,7.89,13.4,13.4,0,0,1-3.32,9.32q-3.32,3.68-9.91,4.63a23.7,23.7,0,0,1,5.42,4.2,57.94,57.94,0,0,1,5.76,8.14l6.11,9.77H585.5l-7.31-10.9a71.26,71.26,0,0,0-5.33-7.37,7.75,7.75,0,0,0-3-2.08,16.58,16.58,0,0,0-5.1-.57h-2.05v20.92Zm10.11-28.91h7.49q7.27,0,9.09-.62a5.49,5.49,0,0,0,2.84-2.12,6.53,6.53,0,0,0,1-3.76,6,6,0,0,0-1.35-4.08,6.22,6.22,0,0,0-3.81-2q-1.23-.17-7.38-.17h-7.9Z"/><path class="cls-3" d="M614.35,949.13V907.5H599.48V899H639.3v8.48H624.47v41.63Z"/><path class="cls-3" d="M685.82,949.13h-11l-4.38-11.38h-20l-4.13,11.38H635.54L655.06,899h10.7Zm-18.63-19.82-6.9-18.6-6.77,18.6Z"/><path class="cls-3" d="M349.68,242.16V192.05h37.16v8.47h-27v11.11H385v8.45H359.8v13.63h28v8.45Z"/><path class="cls-3" d="M391.28,242.16,408.4,216l-15.52-24h11.83l10.05,16.1,9.84-16.1h11.73l-15.59,24.33,17.13,25.78H425.66l-11.11-17.33-11.14,17.33Z"/><path class="cls-3" d="M443.06,242.16V192.05h37.15v8.47h-27v11.11h25.15v8.45H453.18v13.63h28v8.45Z"/><path class="cls-3" d="M521.81,223.73l9.81,3.11q-2.25,8.21-7.5,12.19t-13.32,4a21.53,21.53,0,0,1-16.4-6.82Q488,229.38,488,217.55q0-12.51,6.46-19.44t17-6.92q9.19,0,14.94,5.44a19.84,19.84,0,0,1,5.12,9.23l-10,2.39a10.36,10.36,0,0,0-10.56-8.41,11.38,11.38,0,0,0-9,4q-3.48,4-3.47,12.95,0,9.51,3.42,13.54a11.08,11.08,0,0,0,8.88,4,10.13,10.13,0,0,0,6.94-2.56Q520.55,229.24,521.81,223.73Z"/><path class="cls-3" d="M540.23,192.05h10.12v27.14a56.22,56.22,0,0,0,.38,8.37,8.09,8.09,0,0,0,3.09,4.94,10.79,10.79,0,0,0,6.68,1.86c2.87,0,5-.58,6.5-1.76a7,7,0,0,0,2.63-4.32,57.43,57.43,0,0,0,.44-8.51V192.05h10.12v26.32q0,9-.82,12.75a14.09,14.09,0,0,1-3,6.28,15.23,15.23,0,0,1-5.89,4.09,25.75,25.75,0,0,1-9.64,1.52c-4.79,0-8.41-.55-10.89-1.66a15.61,15.61,0,0,1-5.86-4.3,14,14,0,0,1-2.84-5.56,60.9,60.9,0,0,1-1-12.71Z"/><path class="cls-3" d="M602.13,242.16V200.52H587.26v-8.47h39.82v8.47H612.25v41.64Z"/><path class="cls-3" d="M633.3,242.16V192.05h10.12v50.11Z"/><path class="cls-3" d="M651,217.41a31.81,31.81,0,0,1,2.29-12.85,23.49,23.49,0,0,1,4.67-6.87,19.51,19.51,0,0,1,6.47-4.51,27.34,27.34,0,0,1,10.8-2q11.09,0,17.73,6.87t6.64,19.11q0,12.14-6.59,19T675.38,243q-11.18,0-17.77-6.82T651,217.41Zm10.42-.34q0,8.51,3.94,12.9a13.51,13.51,0,0,0,19.91,0q3.87-4.35,3.87-13.07t-3.77-12.85a14,14,0,0,0-20.12,0Q661.44,208.42,661.43,217.07Z"/><path class="cls-3" d="M707.61,242.16V192.05h9.85L738,225.51V192.05h9.4v50.11H737.21L717,209.48v32.68Z"/><path class="cls-4" d="M372.8,801.64V339.56H715.42v78.17H466.1V520.17h232V598h-232V723.79H724.25v77.85Z"/><rect class="cls-2" width="1080" height="1080"/></svg>