<svg id="Layer_1" data-name="Layer 1" xmlns="http://www.w3.org/2000/svg" viewBox="0 0 1080 1080"><defs><style>.cls-1{fill:#6fccdd;}.cls-2{fill:none;stroke:#231f20;stroke-miterlimit:10;stroke-width:0.5px;}.cls-3{fill:#fff;}.cls-4{fill:#231f20;}</style></defs><title>SPARTA</title><rect class="cls-1" x="285.39" y="80.19" width="526.26" height="212.63"/><rect class="cls-1" x="285.39" y="787.18" width="526.26" height="212.63"/><polygon class="cls-2" points="811.65 787 285.39 787.18 285.39 292.82 811.65 292.82 811.65 787"/><path class="cls-3" d="M411.22,902.23l9.85-1c.59,3.31,1.79,5.73,3.6,7.28a10.91,10.91,0,0,0,7.33,2.33q4.89,0,7.37-2.07a6.16,6.16,0,0,0,2.48-4.84,4.53,4.53,0,0,0-1.05-3,8.22,8.22,0,0,0-3.64-2.17q-1.77-.62-8.1-2.19-8.13-2-11.41-5a13.14,13.14,0,0,1-2.45-17.24,13.7,13.7,0,0,1,6.26-5.08,25.1,25.1,0,0,1,9.86-1.74q9.44,0,14.2,4.14a14.57,14.57,0,0,1,5,11l-10.12.44a8.6,8.6,0,0,0-2.78-5.55c-1.43-1.13-3.56-1.69-6.41-1.69a11.58,11.58,0,0,0-6.91,1.81,3.64,3.64,0,0,0-1.6,3.11,3.85,3.85,0,0,0,1.5,3q1.92,1.61,9.3,3.35a49.16,49.16,0,0,1,10.92,3.6A14.15,14.15,0,0,1,450,896a14.9,14.9,0,0,1,2,8,14.68,14.68,0,0,1-2.39,8.06,14.29,14.29,0,0,1-6.77,5.59,28.33,28.33,0,0,1-10.9,1.83q-9.5,0-14.59-4.39T411.22,902.23Z"/><path class="cls-3" d="M460.48,918.53v-50.1h16.23q9.23,0,12,.75a13.14,13.14,0,0,1,7.21,4.9,15.54,15.54,0,0,1,2.91,9.76,16.31,16.31,0,0,1-1.68,7.76,13.67,13.67,0,0,1-4.25,4.94,14.62,14.62,0,0,1-5.25,2.37,57.5,57.5,0,0,1-10.49.72h-6.6v18.9Zm10.11-41.63v14.22h5.54c4,0,6.65-.26,8-.78a6.59,6.59,0,0,0,4.3-6.36,6.45,6.45,0,0,0-1.6-4.51,7,7,0,0,0-4.07-2.23,49.83,49.83,0,0,0-7.28-.34Z"/><path class="cls-3" d="M547.16,918.53h-11l-4.38-11.38h-20l-4.13,11.38H496.88l19.51-50.1h10.7Zm-18.63-19.82-6.91-18.59-6.76,18.59Z"/><path class="cls-3" d="M552.56,918.53v-50.1h21.29q8,0,11.67,1.35a11.52,11.52,0,0,1,5.83,4.8,14.41,14.41,0,0,1,2.19,7.89,13.4,13.4,0,0,1-3.32,9.32q-3.32,3.68-9.91,4.63a24,24,0,0,1,5.42,4.2,57.94,57.94,0,0,1,5.76,8.14l6.11,9.77H585.5l-7.31-10.9a71.26,71.26,0,0,0-5.33-7.37,7.86,7.86,0,0,0-3-2.08,16.64,16.64,0,0,0-5.1-.56h-2.05v20.91Zm10.11-28.91h7.49q7.27,0,9.09-.62a5.43,5.43,0,0,0,2.84-2.12,6.53,6.53,0,0,0,1-3.76,6,6,0,0,0-1.35-4.08,6.22,6.22,0,0,0-3.81-2q-1.23-.17-7.38-.17h-7.9Z"/><path class="cls-3" d="M614.35,918.53V876.9H599.48v-8.47H639.3v8.47H624.47v41.63Z"/><path class="cls-3" d="M685.82,918.53h-11l-4.38-11.38h-20l-4.13,11.38H635.54l19.52-50.1h10.7Zm-18.63-19.82-6.9-18.59-6.77,18.59Z"/><path class="cls-3" d="M304.36,211.56V161.45h37.15v8.48h-27V181h25.15v8.45H314.48v13.63h28v8.45Z"/><path class="cls-3" d="M346,211.56l17.12-26.15-15.52-24h11.83l10.05,16.1,9.84-16.1H391l-15.59,24.34,17.12,25.77h-12.2l-11.11-17.33-11.14,17.33Z"/><path class="cls-3" d="M397.81,211.56V161.45h34.35v8.48H407.92v11.86h20.92v8.47H407.92v21.3Z"/><path class="cls-3" d="M440.19,211.56V161.45h10.12v50.11Z"/><path class="cls-3" d="M460.22,211.56v-49.7h10.12v41.25h25.15v8.45Z"/><path class="cls-3" d="M508.79,211.56V169.93H493.92v-8.48h39.82v8.48H518.91v41.63Z"/><path class="cls-3" d="M540.3,211.56V161.45h21.3q8,0,11.67,1.35a11.52,11.52,0,0,1,5.83,4.8,14.52,14.52,0,0,1,2.18,7.9,13.36,13.36,0,0,1-3.31,9.31q-3.32,3.67-9.91,4.63a23.66,23.66,0,0,1,5.41,4.21,56.07,56.07,0,0,1,5.76,8.13l6.12,9.78h-12.1l-7.31-10.91a70.23,70.23,0,0,0-5.34-7.36,7.71,7.71,0,0,0-3-2.09,16.89,16.89,0,0,0-5.09-.56h-2.05v20.92Zm10.12-28.92h7.48q7.29,0,9.1-.61a5.46,5.46,0,0,0,2.83-2.12,6.5,6.5,0,0,0,1-3.76,6,6,0,0,0-1.35-4.09,6.21,6.21,0,0,0-3.81-2c-.82-.12-3.28-.17-7.39-.17h-7.89Z"/><path class="cls-3" d="M636,211.56H625l-4.38-11.38h-20l-4.13,11.38H585.73l19.51-50.11h10.7Zm-18.63-19.83-6.91-18.59-6.76,18.59Z"/><path class="cls-3" d="M647.46,211.56V169.93H632.59v-8.48h39.82v8.48H657.57v41.63Z"/><path class="cls-3" d="M678.63,211.56V161.45h10.11v50.11Z"/><path class="cls-3" d="M696.33,186.81A32,32,0,0,1,698.62,174a23.68,23.68,0,0,1,4.67-6.87,19.51,19.51,0,0,1,6.47-4.51,27.61,27.61,0,0,1,10.81-2q11.07,0,17.72,6.87t6.65,19.1q0,12.13-6.6,19t-17.64,6.85q-11.18,0-17.77-6.82T696.33,186.81Zm10.43-.34q0,8.5,3.93,12.9a13.52,13.52,0,0,0,19.91,0q3.87-4.36,3.88-13.08t-3.78-12.85a14,14,0,0,0-20.11.05Q706.75,177.82,706.76,186.47Z"/><path class="cls-3" d="M752.93,211.56V161.45h9.85l20.51,33.46V161.45h9.39v50.11H782.53l-20.2-32.68v32.68Z"/><path class="cls-4" d="M372.8,771V309H715.42v78.17H466.1V489.57h232v77.85h-232V693.19H724.25V771Z"/><rect class="cls-2" y="-4.35" width="1080" height="1080"/></svg>