<svg id="Layer_1" data-name="Layer 1" xmlns="http://www.w3.org/2000/svg" viewBox="0 0 1080 1080"><defs><style>.cls-1{fill:#6fccdd;}.cls-2{fill:none;stroke:#231f20;stroke-miterlimit:10;stroke-width:0.5px;}.cls-3{fill:#fff;}.cls-4{fill:#231f20;}</style></defs><title>SPARTA</title><rect class="cls-1" x="272.61" y="57.03" width="526.26" height="212.63"/><rect class="cls-1" x="272.61" y="764.02" width="526.26" height="212.63"/><polygon class="cls-2" points="798.87 763.84 272.61 764.02 272.61 269.66 798.87 269.66 798.87 763.84"/><path class="cls-3" d="M398.44,879.07l9.84-1c.6,3.31,1.8,5.73,3.61,7.28a10.89,10.89,0,0,0,7.33,2.33c3.26,0,5.71-.69,7.37-2.07a6.15,6.15,0,0,0,2.47-4.84,4.53,4.53,0,0,0-1-3,8.28,8.28,0,0,0-3.64-2.17q-1.77-.61-8.1-2.19-8.13-2-11.42-5a13,13,0,0,1-4.61-10.08,12.85,12.85,0,0,1,2.17-7.16,13.65,13.65,0,0,1,6.26-5.08,25.1,25.1,0,0,1,9.86-1.74q9.43,0,14.2,4.14a14.57,14.57,0,0,1,5,11l-10.12.44a8.56,8.56,0,0,0-2.79-5.55q-2.13-1.69-6.41-1.69a11.52,11.52,0,0,0-6.9,1.81,3.65,3.65,0,0,0-1.61,3.11,3.83,3.83,0,0,0,1.51,3q1.9,1.61,9.29,3.35a48.79,48.79,0,0,1,10.92,3.6,14.08,14.08,0,0,1,5.54,5.1,15.77,15.77,0,0,1-.39,16,14.34,14.34,0,0,1-6.77,5.59,28.36,28.36,0,0,1-10.9,1.83q-9.51,0-14.6-4.39T398.44,879.07Z"/><path class="cls-3" d="M447.69,895.37v-50.1h16.24q9.22,0,12,.75a13.17,13.17,0,0,1,7.21,4.9,15.54,15.54,0,0,1,2.91,9.76,16.31,16.31,0,0,1-1.68,7.76,13.77,13.77,0,0,1-4.25,4.94,14.7,14.7,0,0,1-5.25,2.37,57.57,57.57,0,0,1-10.49.72h-6.6v18.9Zm10.12-41.63V868h5.54c4,0,6.65-.26,8-.78a6.58,6.58,0,0,0,4.31-6.36,6.41,6.41,0,0,0-1.61-4.51,7,7,0,0,0-4.06-2.23,49.93,49.93,0,0,0-7.28-.34Z"/><path class="cls-3" d="M534.37,895.37h-11L519,884H499l-4.13,11.38H484.09l19.52-50.1h10.7Zm-18.63-19.82L508.84,857l-6.77,18.59Z"/><path class="cls-3" d="M539.77,895.37v-50.1h21.3q8,0,11.67,1.35a11.52,11.52,0,0,1,5.83,4.8,14.48,14.48,0,0,1,2.18,7.89,13.39,13.39,0,0,1-3.31,9.32q-3.32,3.68-9.91,4.63a23.91,23.91,0,0,1,5.41,4.2,56.31,56.31,0,0,1,5.76,8.14l6.12,9.77h-12.1l-7.31-10.9a70.78,70.78,0,0,0-5.34-7.37,7.79,7.79,0,0,0-3-2.08,16.57,16.57,0,0,0-5.09-.56h-2.05v20.91Zm10.12-28.91h7.48q7.29,0,9.1-.62a5.41,5.41,0,0,0,2.83-2.12,6.46,6.46,0,0,0,1-3.76,6,6,0,0,0-1.35-4.08,6.22,6.22,0,0,0-3.81-2q-1.23-.17-7.39-.17h-7.89Z"/><path class="cls-3" d="M601.57,895.37V853.74H586.7v-8.47h39.82v8.47H611.69v41.63Z"/><path class="cls-3" d="M673,895.37H662L657.66,884h-20l-4.14,11.38H622.76l19.52-50.1H653Zm-18.63-19.82L647.51,857l-6.77,18.59Z"/><path class="cls-3" d="M407.29,188.4V138.29h10.12V188.4Z"/><path class="cls-3" d="M426.91,188.4V138.29h15.14l9.09,34.18,9-34.18h15.18V188.4h-9.4V149L456,188.4h-9.74L436.31,149V188.4Z"/><path class="cls-3" d="M485.36,188.4V138.29h16.23q9.24,0,12,.75a13.13,13.13,0,0,1,7.22,4.91,15.57,15.57,0,0,1,2.9,9.75,16.4,16.4,0,0,1-1.67,7.76,13.71,13.71,0,0,1-4.26,4.94,14.68,14.68,0,0,1-5.24,2.38,57.7,57.7,0,0,1-10.5.72h-6.59v18.9Zm10.12-41.63V161H501q6,0,8-.78a6.59,6.59,0,0,0,4.31-6.36,6.47,6.47,0,0,0-1.61-4.51,7,7,0,0,0-4.07-2.22,48.3,48.3,0,0,0-7.28-.34Z"/><path class="cls-3" d="M572,188.4H561L556.66,177h-20l-4.14,11.38H521.76l19.52-50.11H552Zm-18.63-19.83L546.51,150l-6.77,18.59Z"/><path class="cls-3" d="M609.46,170l9.81,3.11q-2.25,8.21-7.5,12.19t-13.31,4a21.55,21.55,0,0,1-16.41-6.82q-6.42-6.81-6.42-18.64,0-12.51,6.46-19.43t17-6.92q9.2,0,14.94,5.43a19.76,19.76,0,0,1,5.13,9.23l-10,2.39a10.36,10.36,0,0,0-10.56-8.41,11.42,11.42,0,0,0-9,4q-3.46,4-3.47,13,0,9.5,3.42,13.53a11.1,11.1,0,0,0,8.89,4,10.11,10.11,0,0,0,6.93-2.56Q608.2,175.48,609.46,170Z"/><path class="cls-3" d="M639.23,188.4V146.77H624.37v-8.48h39.82v8.48H649.35V188.4Z"/><path class="cls-4" d="M491.08,738V295.67H580.4V738Z"/><rect class="cls-2" y="-9.16" width="1080" height="1080"/></svg>