<svg id="Layer_1" data-name="Layer 1" xmlns="http://www.w3.org/2000/svg" viewBox="0 0 1080 1080"><defs><style>.cls-1{fill:#6fccdd;}.cls-2{fill:none;stroke:#231f20;stroke-miterlimit:10;stroke-width:0.5px;}.cls-3{fill:#fff;}.cls-4{fill:#231f20;}</style></defs><title>SPARTA</title><rect class="cls-1" x="281.13" y="110.79" width="526.26" height="212.63"/><rect class="cls-1" x="281.13" y="817.78" width="526.26" height="212.63"/><polygon class="cls-2" points="807.39 817.6 281.13 817.78 281.13 323.42 807.39 323.42 807.39 817.6"/><path class="cls-3" d="M407,932.83l9.85-1c.59,3.31,1.79,5.73,3.6,7.28a10.91,10.91,0,0,0,7.33,2.33q4.89,0,7.37-2.07a6.16,6.16,0,0,0,2.48-4.84,4.53,4.53,0,0,0-1-3,8.13,8.13,0,0,0-3.64-2.17q-1.77-.61-8.1-2.19-8.13-2-11.41-5A13.14,13.14,0,0,1,410.94,905a13.59,13.59,0,0,1,6.26-5.08,25.1,25.1,0,0,1,9.86-1.74q9.44,0,14.2,4.14a14.57,14.57,0,0,1,5,11l-10.12.44c-.43-2.57-1.36-4.43-2.78-5.55s-3.57-1.7-6.41-1.7a11.57,11.57,0,0,0-6.91,1.82,3.64,3.64,0,0,0-1.6,3.11,3.87,3.87,0,0,0,1.5,3c1.28,1.07,4.37,2.19,9.3,3.35a49.16,49.16,0,0,1,10.92,3.6,14.05,14.05,0,0,1,5.53,5.1,15.77,15.77,0,0,1-.39,16,14.29,14.29,0,0,1-6.77,5.59,28.33,28.33,0,0,1-10.9,1.83q-9.5,0-14.59-4.39T407,932.83Z"/><path class="cls-3" d="M456.21,949.13V899h16.24q9.23,0,12,.76a13.08,13.08,0,0,1,7.21,4.9,15.54,15.54,0,0,1,2.91,9.76,16.31,16.31,0,0,1-1.68,7.76,13.76,13.76,0,0,1-4.25,4.94,14.62,14.62,0,0,1-5.25,2.37,57.5,57.5,0,0,1-10.49.72h-6.6v18.9Zm10.12-41.63v14.22h5.54c4,0,6.65-.26,8-.79a6.64,6.64,0,0,0,3.16-2.46,6.72,6.72,0,0,0,1.14-3.89,6.49,6.49,0,0,0-1.6-4.52,7,7,0,0,0-4.07-2.22,48.48,48.48,0,0,0-7.28-.34Z"/><path class="cls-3" d="M542.89,949.13h-11l-4.38-11.38h-20l-4.13,11.38H492.62L512.13,899h10.7Zm-18.62-19.82-6.91-18.6-6.77,18.6Z"/><path class="cls-3" d="M548.29,949.13V899h21.3q8,0,11.67,1.35a11.54,11.54,0,0,1,5.83,4.81,14.41,14.41,0,0,1,2.19,7.89,13.4,13.4,0,0,1-3.32,9.32q-3.32,3.68-9.91,4.63a23.7,23.7,0,0,1,5.42,4.2,57.25,57.25,0,0,1,5.75,8.14l6.12,9.77h-12.1l-7.31-10.9a72.88,72.88,0,0,0-5.33-7.37,7.75,7.75,0,0,0-3-2.08,16.58,16.58,0,0,0-5.1-.57h-2.05v20.92Zm10.12-28.91h7.49q7.27,0,9.09-.62a5.49,5.49,0,0,0,2.84-2.12,6.53,6.53,0,0,0,1-3.76,6,6,0,0,0-1.35-4.08,6.22,6.22,0,0,0-3.81-2q-1.23-.17-7.38-.17h-7.9Z"/><path class="cls-3" d="M610.09,949.13V907.5H595.22V899H635v8.48H620.21v41.63Z"/><path class="cls-3" d="M681.56,949.13h-11l-4.38-11.38h-20L642,949.13H631.28L650.8,899h10.7Zm-18.63-19.82-6.9-18.6-6.77,18.6Z"/><path class="cls-3" d="M425.23,207.68V157.57h10.12v50.11Z"/><path class="cls-3" d="M445.09,207.68V157.57h9.84L475.44,191V157.57h9.4v50.11H474.69L454.49,175v32.68Z"/><path class="cls-3" d="M495.23,207.68V157.57h10.12v50.11Z"/><path class="cls-3" d="M526.27,207.68V166H511.4v-8.47h39.82V166H536.38v41.64Z"/><path class="cls-3" d="M557.44,207.68V157.57h10.11v50.11Z"/><path class="cls-3" d="M622.38,207.68h-11L607,196.29H587l-4.14,11.39H572.1l19.52-50.11h10.7Zm-18.63-19.83-6.9-18.59-6.77,18.59Z"/><path class="cls-3" d="M628,207.68V158h10.12v41.25h25.15v8.45Z"/><path class="cls-3" d="M450.39,275.75h-11L435,264.36H415l-4.14,11.39H400.11l19.51-50.11h10.7Zm-18.63-19.83-6.91-18.59-6.76,18.59Z"/><path class="cls-3" d="M487.81,257.32l9.81,3.11q-2.25,8.2-7.5,12.19t-13.31,4a21.53,21.53,0,0,1-16.41-6.82Q454,263,454,251.14q0-12.51,6.46-19.43t17-6.93q9.19,0,14.94,5.44a19.76,19.76,0,0,1,5.13,9.23l-10,2.39a10.36,10.36,0,0,0-10.56-8.41,11.39,11.39,0,0,0-9,4q-3.47,4-3.47,12.95,0,9.51,3.42,13.54a11.09,11.09,0,0,0,8.88,4,10.12,10.12,0,0,0,6.94-2.56Q486.55,262.83,487.81,257.32Z"/><path class="cls-3" d="M538.37,257.32l9.8,3.11q-2.25,8.2-7.5,12.19t-13.31,4A21.56,21.56,0,0,1,511,269.78q-6.42-6.81-6.42-18.64,0-12.51,6.46-19.43t17-6.93q9.19,0,14.94,5.44a19.76,19.76,0,0,1,5.13,9.23l-10,2.39a10.36,10.36,0,0,0-10.56-8.41,11.39,11.39,0,0,0-9,4q-3.46,4-3.47,12.95,0,9.51,3.42,13.54a11.1,11.1,0,0,0,8.89,4,10.13,10.13,0,0,0,6.94-2.56Q537.1,262.83,538.37,257.32Z"/><path class="cls-3" d="M556.86,275.75V225.64H594v8.48H567v11.1h25.16v8.45H567V267.3h28v8.45Z"/><path class="cls-3" d="M601,259.44l9.85-.95q.88,5,3.6,7.28a10.9,10.9,0,0,0,7.33,2.32q4.89,0,7.37-2.07a6.16,6.16,0,0,0,2.48-4.83,4.54,4.54,0,0,0-1.05-3,8.31,8.31,0,0,0-3.64-2.17q-1.77-.62-8.1-2.19-8.13-2-11.41-5A13.16,13.16,0,0,1,605,231.6a13.62,13.62,0,0,1,6.26-5.07,25.09,25.09,0,0,1,9.86-1.75q9.43,0,14.2,4.14a14.61,14.61,0,0,1,5,11l-10.12.44a8.6,8.6,0,0,0-2.78-5.55c-1.43-1.13-3.56-1.69-6.41-1.69a11.58,11.58,0,0,0-6.91,1.81,3.64,3.64,0,0,0-1.6,3.11,3.84,3.84,0,0,0,1.5,3q1.92,1.6,9.3,3.35a49.07,49.07,0,0,1,10.92,3.61,14,14,0,0,1,5.53,5.09,15.78,15.78,0,0,1-.39,16.05,14.35,14.35,0,0,1-6.77,5.59,28.53,28.53,0,0,1-10.9,1.82q-9.49,0-14.59-4.39T601,259.44Z"/><path class="cls-3" d="M647.67,259.44l9.85-.95q.88,5,3.6,7.28a10.9,10.9,0,0,0,7.33,2.32q4.89,0,7.37-2.07a6.16,6.16,0,0,0,2.48-4.83,4.54,4.54,0,0,0-1-3,8.31,8.31,0,0,0-3.64-2.17q-1.77-.62-8.1-2.19-8.13-2-11.41-5a13.16,13.16,0,0,1-2.45-17.25,13.62,13.62,0,0,1,6.26-5.07,25.09,25.09,0,0,1,9.86-1.75q9.43,0,14.2,4.14a14.61,14.61,0,0,1,5,11l-10.12.44a8.6,8.6,0,0,0-2.78-5.55c-1.43-1.13-3.56-1.69-6.41-1.69a11.58,11.58,0,0,0-6.91,1.81,3.64,3.64,0,0,0-1.6,3.11,3.84,3.84,0,0,0,1.5,3q1.92,1.6,9.3,3.35a49.07,49.07,0,0,1,10.92,3.61,14,14,0,0,1,5.53,5.09,15.78,15.78,0,0,1-.39,16.05,14.35,14.35,0,0,1-6.77,5.59,28.53,28.53,0,0,1-10.9,1.82q-9.5,0-14.59-4.39T647.67,259.44Z"/><path class="cls-4" d="M299.83,759.2V382H376V759.2Z"/><path class="cls-4" d="M788.7,759.2H705.85l-32.94-85.68H522.13L491,759.2H410.21L557.13,382h80.53ZM648.47,610l-52-140L545.55,610Z"/><rect class="cls-2" width="1080" height="1080"/></svg>