<svg id="Layer_1" data-name="Layer 1" xmlns="http://www.w3.org/2000/svg" viewBox="0 0 1080 1080"><defs><style>.cls-1{fill:#6fccdd;}.cls-2{fill:none;stroke:#231f20;stroke-miterlimit:10;stroke-width:0.5px;}.cls-3{fill:#fff;}.cls-4{fill:#231f20;}</style></defs><title>SPARTA</title><rect class="cls-1" x="281.13" y="80.19" width="526.26" height="212.63"/><rect class="cls-1" x="281.13" y="787.18" width="526.26" height="212.63"/><polygon class="cls-2" points="807.39 787 281.13 787.18 281.13 292.82 807.39 292.82 807.39 787"/><path class="cls-3" d="M407,902.23l9.85-1c.59,3.31,1.79,5.73,3.6,7.28a10.91,10.91,0,0,0,7.33,2.33q4.89,0,7.37-2.07a6.16,6.16,0,0,0,2.48-4.84,4.53,4.53,0,0,0-1-3,8.22,8.22,0,0,0-3.64-2.17q-1.77-.62-8.1-2.19-8.13-2-11.41-5a13.14,13.14,0,0,1-2.45-17.24,13.65,13.65,0,0,1,6.26-5.08,25.1,25.1,0,0,1,9.86-1.74q9.44,0,14.2,4.14a14.57,14.57,0,0,1,5,11l-10.12.44a8.6,8.6,0,0,0-2.78-5.55q-2.14-1.7-6.41-1.69a11.58,11.58,0,0,0-6.91,1.81,3.64,3.64,0,0,0-1.6,3.11,3.85,3.85,0,0,0,1.5,3c1.28,1.07,4.37,2.19,9.3,3.35a49.16,49.16,0,0,1,10.92,3.6,14.05,14.05,0,0,1,5.53,5.1,15.77,15.77,0,0,1-.39,16,14.29,14.29,0,0,1-6.77,5.59,28.33,28.33,0,0,1-10.9,1.83q-9.5,0-14.59-4.39T407,902.23Z"/><path class="cls-3" d="M456.21,918.53v-50.1h16.24q9.23,0,12,.75a13.14,13.14,0,0,1,7.21,4.9,15.54,15.54,0,0,1,2.91,9.76,16.31,16.31,0,0,1-1.68,7.76,13.67,13.67,0,0,1-4.25,4.94,14.62,14.62,0,0,1-5.25,2.37,57.5,57.5,0,0,1-10.49.72h-6.6v18.9Zm10.12-41.63v14.22h5.54c4,0,6.65-.26,8-.78a6.59,6.59,0,0,0,4.3-6.36,6.45,6.45,0,0,0-1.6-4.51,7,7,0,0,0-4.07-2.23,49.93,49.93,0,0,0-7.28-.34Z"/><path class="cls-3" d="M542.89,918.53h-11l-4.38-11.38h-20l-4.13,11.38H492.62l19.51-50.1h10.7Zm-18.62-19.82-6.91-18.59-6.77,18.59Z"/><path class="cls-3" d="M548.29,918.53v-50.1h21.3q8,0,11.67,1.35a11.52,11.52,0,0,1,5.83,4.8,14.41,14.41,0,0,1,2.19,7.89,13.4,13.4,0,0,1-3.32,9.32q-3.32,3.68-9.91,4.63a24,24,0,0,1,5.42,4.2,57.25,57.25,0,0,1,5.75,8.14l6.12,9.77h-12.1l-7.31-10.9a72.88,72.88,0,0,0-5.33-7.37,7.86,7.86,0,0,0-3-2.08,16.64,16.64,0,0,0-5.1-.56h-2.05v20.91Zm10.12-28.91h7.49q7.27,0,9.09-.62a5.43,5.43,0,0,0,2.84-2.12,6.53,6.53,0,0,0,1-3.76A6,6,0,0,0,577.5,879a6.22,6.22,0,0,0-3.81-2q-1.23-.17-7.38-.17h-7.9Z"/><path class="cls-3" d="M610.09,918.53V876.9H595.22v-8.47H635v8.47H620.21v41.63Z"/><path class="cls-3" d="M681.56,918.53h-11l-4.38-11.38h-20L642,918.53H631.28l19.52-50.1h10.7Zm-18.63-19.82L656,880.12l-6.77,18.59Z"/><path class="cls-3" d="M387.29,168.54v-49.7h10.12V160.1h25.15v8.44Z"/><path class="cls-3" d="M475,168.54H464l-4.38-11.38h-20l-4.13,11.38H424.68l19.52-50.11h10.7Zm-18.63-19.82-6.9-18.6-6.77,18.6Z"/><path class="cls-3" d="M486.41,168.54V126.91H471.54v-8.48h39.82v8.48H496.53v41.63Z"/><path class="cls-3" d="M517.89,168.54V118.43H555v8.48H528V138h25.15v8.44H528V160.1h28v8.44Z"/><path class="cls-3" d="M564.62,168.54V118.43h21.29q8,0,11.67,1.35a11.54,11.54,0,0,1,5.83,4.81,14.41,14.41,0,0,1,2.19,7.89,13.4,13.4,0,0,1-3.32,9.32q-3.31,3.67-9.91,4.63a23.7,23.7,0,0,1,5.42,4.2,57.94,57.94,0,0,1,5.76,8.14l6.11,9.77h-12.1l-7.31-10.9a72.88,72.88,0,0,0-5.33-7.37,7.75,7.75,0,0,0-3-2.08,16.58,16.58,0,0,0-5.1-.57h-2v20.92Zm10.11-28.91h7.49q7.28,0,9.09-.62a5.49,5.49,0,0,0,2.84-2.12,6.53,6.53,0,0,0,1-3.76,6,6,0,0,0-1.35-4.08,6.22,6.22,0,0,0-3.81-2q-1.23-.17-7.38-.17h-7.9Z"/><path class="cls-3" d="M660.32,168.54h-11l-4.37-11.38h-20l-4.14,11.38H610l19.52-50.11h10.69Zm-18.63-19.82-6.9-18.6L628,148.72Z"/><path class="cls-3" d="M666,168.54v-49.7h10.12V160.1h25.15v8.44Z"/><path class="cls-3" d="M345.23,253.72V203.61h15.14l9.1,34.18,9-34.18h15.17v50.11h-9.4V214.27l-9.94,39.45h-9.75l-9.91-39.45v39.45Z"/><path class="cls-3" d="M401.63,229a31.81,31.81,0,0,1,2.29-12.85,23.65,23.65,0,0,1,4.66-6.87,19.55,19.55,0,0,1,6.48-4.51,27.52,27.52,0,0,1,10.8-2q11.08,0,17.72,6.87t6.65,19.1q0,12.14-6.59,19T426,254.57q-11.17,0-17.77-6.82T401.63,229Zm10.42-.34q0,8.51,3.93,12.9a13.52,13.52,0,0,0,19.91,0q3.89-4.37,3.88-13.08T436,215.64a14,14,0,0,0-20.12.05Q412.05,220,412.05,228.63Z"/><path class="cls-3" d="M470.91,253.72,453,203.61h11l12.68,37.09,12.27-37.09h10.74l-18,50.11Z"/><path class="cls-3" d="M504.82,253.72V203.61H542v8.48h-27V223.2h25.16v8.44H514.93v13.64h28v8.44Z"/><path class="cls-3" d="M551.37,253.72V203.61h15.14l9.09,34.18,9-34.18h15.18v50.11h-9.4V214.27l-10,39.45h-9.74l-9.91-39.45v39.45Z"/><path class="cls-3" d="M609.82,253.72V203.61H647v8.48h-27V223.2h25.16v8.44H619.93v13.64h28v8.44Z"/><path class="cls-3" d="M656.61,253.72V203.61h9.84L687,237.07V203.61h9.4v50.11H686.21L666,221v32.68Z"/><path class="cls-3" d="M718.34,253.72V212.09H703.47v-8.48h39.82v8.48H728.46v41.63Z"/><path class="cls-4" d="M292.4,679.07V403.21h56.16v229H488.2v46.86Z"/><path class="cls-4" d="M527.47,679.07V400.93h84L662,590.66l49.9-189.73h84.24V679.07H744V460.13L688.74,679.07H634.66l-55-218.94V679.07Z"/><rect class="cls-2" y="-4.35" width="1080" height="1080"/></svg>