<svg id="Layer_1" data-name="Layer 1" xmlns="http://www.w3.org/2000/svg" viewBox="0 0 1080 1080"><defs><style>.cls-1{fill:#6fccdd;}.cls-2{fill:none;stroke:#231f20;stroke-miterlimit:10;stroke-width:0.5px;}.cls-3{fill:#fff;}.cls-4{fill:#231f20;}</style></defs><title>SPARTA</title><rect class="cls-1" x="272.61" y="80.19" width="526.26" height="212.63"/><rect class="cls-1" x="272.61" y="787.18" width="526.26" height="212.63"/><polygon class="cls-2" points="798.87 787 272.61 787.18 272.61 292.82 798.87 292.82 798.87 787"/><path class="cls-3" d="M398.44,902.23l9.84-1c.6,3.31,1.8,5.73,3.61,7.28a10.89,10.89,0,0,0,7.33,2.33c3.26,0,5.71-.69,7.37-2.07a6.15,6.15,0,0,0,2.47-4.84,4.53,4.53,0,0,0-1-3,8.28,8.28,0,0,0-3.64-2.17q-1.77-.62-8.1-2.19-8.13-2-11.42-5a13,13,0,0,1-4.61-10.08,12.85,12.85,0,0,1,2.17-7.16,13.65,13.65,0,0,1,6.26-5.08,25.1,25.1,0,0,1,9.86-1.74q9.43,0,14.2,4.14a14.57,14.57,0,0,1,5,11l-10.12.44a8.56,8.56,0,0,0-2.79-5.55q-2.13-1.7-6.41-1.69a11.52,11.52,0,0,0-6.9,1.81,3.65,3.65,0,0,0-1.61,3.11,3.83,3.83,0,0,0,1.51,3q1.9,1.61,9.29,3.35a48.79,48.79,0,0,1,10.92,3.6,14.08,14.08,0,0,1,5.54,5.1,15.77,15.77,0,0,1-.39,16,14.34,14.34,0,0,1-6.77,5.59,28.36,28.36,0,0,1-10.9,1.83q-9.51,0-14.6-4.39T398.44,902.23Z"/><path class="cls-3" d="M447.69,918.53v-50.1h16.24q9.22,0,12,.75a13.17,13.17,0,0,1,7.21,4.9,15.54,15.54,0,0,1,2.91,9.76,16.31,16.31,0,0,1-1.68,7.76,13.77,13.77,0,0,1-4.25,4.94,14.7,14.7,0,0,1-5.25,2.37,57.57,57.57,0,0,1-10.49.72h-6.6v18.9Zm10.12-41.63v14.22h5.54c4,0,6.65-.26,8-.78a6.58,6.58,0,0,0,4.31-6.36,6.41,6.41,0,0,0-1.61-4.51,7,7,0,0,0-4.06-2.23,49.93,49.93,0,0,0-7.28-.34Z"/><path class="cls-3" d="M534.37,918.53h-11L519,907.15H499l-4.13,11.38H484.09l19.52-50.1h10.7Zm-18.63-19.82-6.9-18.59-6.77,18.59Z"/><path class="cls-3" d="M539.77,918.53v-50.1h21.3q8,0,11.67,1.35a11.52,11.52,0,0,1,5.83,4.8,14.48,14.48,0,0,1,2.18,7.89,13.39,13.39,0,0,1-3.31,9.32q-3.32,3.68-9.91,4.63a23.91,23.91,0,0,1,5.41,4.2,56.31,56.31,0,0,1,5.76,8.14l6.12,9.77h-12.1l-7.31-10.9a70.78,70.78,0,0,0-5.34-7.37,7.79,7.79,0,0,0-3-2.08,16.57,16.57,0,0,0-5.09-.56h-2.05v20.91Zm10.12-28.91h7.48q7.29,0,9.1-.62a5.41,5.41,0,0,0,2.83-2.12,6.46,6.46,0,0,0,1-3.76A6,6,0,0,0,569,879a6.22,6.22,0,0,0-3.81-2q-1.23-.17-7.39-.17h-7.89Z"/><path class="cls-3" d="M601.57,918.53V876.9H586.7v-8.47h39.82v8.47H611.69v41.63Z"/><path class="cls-3" d="M673,918.53H662l-4.37-11.38h-20l-4.14,11.38H622.76l19.52-50.1H653Zm-18.63-19.82-6.9-18.59-6.77,18.59Z"/><path class="cls-3" d="M293,211.54V161.43h16.23q9.24,0,12,.75a13.19,13.19,0,0,1,7.21,4.91,15.6,15.6,0,0,1,2.9,9.76,16.46,16.46,0,0,1-1.67,7.76,13.88,13.88,0,0,1-4.26,4.94,14.83,14.83,0,0,1-5.24,2.37,57.7,57.7,0,0,1-10.5.72h-6.59v18.9Zm10.12-41.63v14.22h5.53q6,0,8-.79a6.55,6.55,0,0,0,3.16-2.46A6.69,6.69,0,0,0,321,177a6.49,6.49,0,0,0-1.61-4.51,7,7,0,0,0-4.07-2.22,48.3,48.3,0,0,0-7.28-.34Z"/><path class="cls-3" d="M339.72,211.54V161.43h37.15v8.48h-27V181H375v8.44H349.84V203.1h28v8.44Z"/><path class="cls-3" d="M386.44,211.54V161.43h21.3q8,0,11.67,1.35a11.52,11.52,0,0,1,5.83,4.8,14.54,14.54,0,0,1,2.18,7.9,13.35,13.35,0,0,1-3.31,9.31q-3.32,3.68-9.91,4.64a23.36,23.36,0,0,1,5.41,4.2,56.65,56.65,0,0,1,5.76,8.13l6.12,9.78h-12.1l-7.31-10.9a70.78,70.78,0,0,0-5.34-7.37,7.68,7.68,0,0,0-3-2.08,16.5,16.5,0,0,0-5.09-.57h-2.05v20.92Zm10.12-28.92H404q7.29,0,9.1-.61a5.46,5.46,0,0,0,2.83-2.12,6.48,6.48,0,0,0,1-3.76,6,6,0,0,0-1.35-4.08,6.17,6.17,0,0,0-3.81-2q-1.23-.17-7.39-.17h-7.89Z"/><path class="cls-3" d="M434.4,195.24l9.84-1q.88,5,3.61,7.28a10.88,10.88,0,0,0,7.33,2.32q4.89,0,7.36-2.06A6.16,6.16,0,0,0,465,197a4.61,4.61,0,0,0-1-3,8.44,8.44,0,0,0-3.64-2.17q-1.79-.61-8.1-2.18-8.14-2-11.42-5a13.06,13.06,0,0,1-4.61-10.08,12.85,12.85,0,0,1,2.17-7.16,13.56,13.56,0,0,1,6.25-5.08,25.13,25.13,0,0,1,9.86-1.74q9.43,0,14.21,4.13a14.63,14.63,0,0,1,5,11l-10.11.45q-.66-3.87-2.79-5.56c-1.42-1.12-3.56-1.69-6.41-1.69a11.59,11.59,0,0,0-6.9,1.81,3.67,3.67,0,0,0-1.61,3.11,3.87,3.87,0,0,0,1.5,3q1.92,1.61,9.3,3.35a49.16,49.16,0,0,1,10.92,3.6,14.06,14.06,0,0,1,5.54,5.09,15,15,0,0,1,2,8,14.76,14.76,0,0,1-2.39,8.06A14.39,14.39,0,0,1,466,210.6a28.38,28.38,0,0,1-10.91,1.83q-9.49,0-14.59-4.39T434.4,195.24Z"/><path class="cls-3" d="M483.34,211.54V161.43h10.12v50.11Z"/><path class="cls-3" d="M500.53,195.24l9.85-1q.89,5,3.6,7.28a10.93,10.93,0,0,0,7.34,2.32c3.25,0,5.71-.69,7.36-2.06a6.16,6.16,0,0,0,2.48-4.84,4.61,4.61,0,0,0-1-3,8.44,8.44,0,0,0-3.64-2.17q-1.79-.61-8.1-2.18-8.14-2-11.42-5a13,13,0,0,1-4.61-10.08,12.85,12.85,0,0,1,2.17-7.16,13.56,13.56,0,0,1,6.25-5.08,25.1,25.1,0,0,1,9.86-1.74q9.43,0,14.2,4.13a14.61,14.61,0,0,1,5,11l-10.12.45a8.6,8.6,0,0,0-2.78-5.56c-1.43-1.12-3.56-1.69-6.41-1.69a11.65,11.65,0,0,0-6.91,1.81,3.66,3.66,0,0,0-1.6,3.11,3.87,3.87,0,0,0,1.5,3q1.92,1.61,9.3,3.35a49.16,49.16,0,0,1,10.92,3.6,14.12,14.12,0,0,1,5.54,5.09,15,15,0,0,1,2,8,14.69,14.69,0,0,1-2.4,8.06,14.32,14.32,0,0,1-6.76,5.59,28.42,28.42,0,0,1-10.91,1.83q-9.5,0-14.59-4.39T500.53,195.24Z"/><path class="cls-3" d="M561.07,211.54V169.91H546.2v-8.48H586v8.48H571.18v41.63Z"/><path class="cls-3" d="M592.55,211.54V161.43H629.7v8.48h-27V181h25.16v8.44H602.66V203.1h28v8.44Z"/><path class="cls-3" d="M639.34,211.54V161.43h9.84l20.51,33.46V161.43h9.4v50.11H668.94l-20.2-32.68v32.68Z"/><path class="cls-3" d="M721.85,193.12l9.81,3.11q-2.26,8.21-7.51,12.18t-13.31,4a21.55,21.55,0,0,1-16.4-6.81Q688,198.76,688,186.93q0-12.51,6.46-19.43t17-6.92q9.19,0,14.93,5.43a19.76,19.76,0,0,1,5.13,9.23l-10,2.39a10.34,10.34,0,0,0-10.57-8.4,11.43,11.43,0,0,0-9,4q-3.46,4-3.47,13c0,6.33,1.14,10.85,3.42,13.53a11.1,11.1,0,0,0,8.89,4,10.14,10.14,0,0,0,6.94-2.57Q720.58,198.62,721.85,193.12Z"/><path class="cls-3" d="M740.34,211.54V161.43h37.15v8.48h-27V181h25.15v8.44H750.46V203.1h28v8.44Z"/><path class="cls-4" d="M365.19,762.63V317.37H509.47q82,0,106.91,6.68,38.26,10,64.09,43.58t25.81,86.72q0,41-14.88,68.94t-37.81,43.89Q630.66,583.13,607,588.29q-32.19,6.38-93.24,6.38H455.1v168ZM455.1,392.69V519h49.2q53.15,0,71.08-7t28.09-21.87q10.17-14.88,10.18-34.63,0-24.29-14.28-40.09t-36.14-19.74q-16.11-3-64.7-3Z"/><rect class="cls-2" y="-4.35" width="1080" height="1080"/></svg>