<svg id="Layer_1" data-name="Layer 1" xmlns="http://www.w3.org/2000/svg" viewBox="0 0 1080 1080"><defs><style>.cls-1{fill:#6fccdd;}.cls-2{fill:none;stroke:#231f20;stroke-miterlimit:10;stroke-width:0.5px;}.cls-3{fill:#fff;}.cls-4{fill:#231f20;}</style></defs><title>SPARTA</title><rect class="cls-1" x="272.61" y="110.79" width="526.26" height="212.63"/><rect class="cls-1" x="272.61" y="817.78" width="526.26" height="212.63"/><polygon class="cls-2" points="798.87 817.6 272.61 817.78 272.61 323.42 798.87 323.42 798.87 817.6"/><path class="cls-3" d="M398.44,932.83l9.84-1c.6,3.31,1.8,5.73,3.61,7.28a10.89,10.89,0,0,0,7.33,2.33c3.26,0,5.71-.69,7.37-2.07a6.15,6.15,0,0,0,2.47-4.84,4.53,4.53,0,0,0-1-3,8.19,8.19,0,0,0-3.64-2.17q-1.77-.61-8.1-2.19-8.13-2-11.42-5a13,13,0,0,1-4.61-10.08,12.85,12.85,0,0,1,2.17-7.16,13.59,13.59,0,0,1,6.26-5.08,25.1,25.1,0,0,1,9.86-1.74q9.43,0,14.2,4.14a14.57,14.57,0,0,1,5,11l-10.12.44c-.43-2.57-1.36-4.43-2.79-5.55s-3.56-1.7-6.41-1.7a11.52,11.52,0,0,0-6.9,1.82,3.65,3.65,0,0,0-1.61,3.11,3.85,3.85,0,0,0,1.51,3q1.9,1.61,9.29,3.35a48.79,48.79,0,0,1,10.92,3.6,14.08,14.08,0,0,1,5.54,5.1,15.77,15.77,0,0,1-.39,16,14.34,14.34,0,0,1-6.77,5.59,28.36,28.36,0,0,1-10.9,1.83q-9.51,0-14.6-4.39T398.44,932.83Z"/><path class="cls-3" d="M447.69,949.13V899h16.24q9.22,0,12,.76a13.12,13.12,0,0,1,7.21,4.9,15.54,15.54,0,0,1,2.91,9.76,16.31,16.31,0,0,1-1.68,7.76,13.85,13.85,0,0,1-4.25,4.94,14.7,14.7,0,0,1-5.25,2.37,57.57,57.57,0,0,1-10.49.72h-6.6v18.9Zm10.12-41.63v14.22h5.54c4,0,6.65-.26,8-.79a6.62,6.62,0,0,0,3.17-2.46,6.72,6.72,0,0,0,1.14-3.89,6.45,6.45,0,0,0-1.61-4.52,7,7,0,0,0-4.06-2.22,48.48,48.48,0,0,0-7.28-.34Z"/><path class="cls-3" d="M534.37,949.13h-11L519,937.75H499l-4.13,11.38H484.09L503.61,899h10.7Zm-18.63-19.82-6.9-18.6-6.77,18.6Z"/><path class="cls-3" d="M539.77,949.13V899h21.3q8,0,11.67,1.35a11.54,11.54,0,0,1,5.83,4.81,14.48,14.48,0,0,1,2.18,7.89,13.39,13.39,0,0,1-3.31,9.32q-3.32,3.68-9.91,4.63a23.63,23.63,0,0,1,5.41,4.2,56.31,56.31,0,0,1,5.76,8.14l6.12,9.77h-12.1l-7.31-10.9a70.78,70.78,0,0,0-5.34-7.37,7.68,7.68,0,0,0-3-2.08,16.5,16.5,0,0,0-5.09-.57h-2.05v20.92Zm10.12-28.91h7.48q7.29,0,9.1-.62a5.46,5.46,0,0,0,2.83-2.12,6.46,6.46,0,0,0,1-3.76,6,6,0,0,0-1.35-4.08,6.22,6.22,0,0,0-3.81-2q-1.23-.17-7.39-.17h-7.89Z"/><path class="cls-3" d="M601.57,949.13V907.5H586.7V899h39.82v8.48H611.69v41.63Z"/><path class="cls-3" d="M673,949.13H662l-4.37-11.38h-20l-4.14,11.38H622.76L642.28,899H653Zm-18.63-19.82-6.9-18.6-6.77,18.6Z"/><path class="cls-3" d="M284.05,236.3V197.88h16.33q6.17,0,8.95,1a8.86,8.86,0,0,1,4.47,3.68,11.09,11.09,0,0,1,1.68,6.06,10.24,10.24,0,0,1-2.55,7.14q-2.54,2.82-7.6,3.55a18.11,18.11,0,0,1,4.16,3.23,44.12,44.12,0,0,1,4.41,6.23l4.7,7.5h-9.28l-5.61-8.36a54.62,54.62,0,0,0-4.09-5.65,5.92,5.92,0,0,0-2.33-1.6,12.75,12.75,0,0,0-3.91-.43h-1.57v16Zm7.76-22.17h5.74c3.72,0,6.05-.16,7-.47A4.23,4.23,0,0,0,306.7,212a5,5,0,0,0,.78-2.88,4.58,4.58,0,0,0-1-3.13,4.75,4.75,0,0,0-2.92-1.51c-.63-.09-2.52-.13-5.67-.13h-6.05Z"/><path class="cls-3" d="M322.79,236.3V197.88h28.49v6.5H330.55v8.51h19.29v6.48H330.55v10.46H352v6.47Z"/><path class="cls-3" d="M383.18,222.17l7.52,2.39c-1.16,4.19-3.07,7.31-5.76,9.34a18.11,18.11,0,0,1-22.78-2.17q-4.94-5.23-4.93-14.3,0-9.6,4.95-14.9t13-5.31q7.05,0,11.45,4.17a15.08,15.08,0,0,1,3.93,7.08l-7.68,1.83a7.93,7.93,0,0,0-8.1-6.45,8.74,8.74,0,0,0-6.93,3.07q-2.65,3.06-2.66,9.93,0,7.29,2.62,10.38a8.52,8.52,0,0,0,6.82,3.09,7.78,7.78,0,0,0,5.32-2A11.47,11.47,0,0,0,383.18,222.17Z"/><path class="cls-3" d="M395.78,217.32a24.45,24.45,0,0,1,1.76-9.85,17.89,17.89,0,0,1,3.58-5.27,15,15,0,0,1,5-3.46,21.19,21.19,0,0,1,8.28-1.52q8.5,0,13.59,5.27t5.1,14.65q0,9.3-5.06,14.56T414.47,237q-8.57,0-13.63-5.22T395.78,217.32Zm8-.26q0,6.52,3,9.9a10.38,10.38,0,0,0,15.27,0q3-3.34,3-10t-2.89-9.86a10.74,10.74,0,0,0-15.43,0Q403.77,210.44,403.78,217.06Z"/><path class="cls-3" d="M439.18,236.3V197.88h7.55l15.73,25.66V197.88h7.21V236.3h-7.79l-15.49-25.06V236.3Z"/><path class="cls-3" d="M478,236.3V197.88h7.55l15.72,25.66V197.88h7.21V236.3h-7.79l-15.48-25.06V236.3Z"/><path class="cls-3" d="M551.28,236.3h-8.44l-3.35-8.73H524.13L521,236.3h-8.23l15-38.42h8.21ZM537,221.1l-5.3-14.26-5.19,14.26Z"/><path class="cls-3" d="M555.16,236.3V197.88h7.76V236.3Z"/><path class="cls-3" d="M568.34,223.8l7.55-.74a9.25,9.25,0,0,0,2.77,5.59,8.34,8.34,0,0,0,5.62,1.78,8.63,8.63,0,0,0,5.65-1.59,4.72,4.72,0,0,0,1.9-3.71,3.49,3.49,0,0,0-.8-2.31,6.44,6.44,0,0,0-2.79-1.67q-1.37-.47-6.22-1.68-6.22-1.54-8.75-3.8a10,10,0,0,1-3.54-7.73,9.86,9.86,0,0,1,1.67-5.49,10.41,10.41,0,0,1,4.79-3.89,19.25,19.25,0,0,1,7.56-1.34q7.25,0,10.89,3.17a11.19,11.19,0,0,1,3.84,8.47l-7.75.34a6.66,6.66,0,0,0-2.14-4.26,7.84,7.84,0,0,0-4.91-1.3,8.92,8.92,0,0,0-5.3,1.39,2.81,2.81,0,0,0-1.23,2.39,2.94,2.94,0,0,0,1.15,2.33q1.47,1.23,7.13,2.57a37.72,37.72,0,0,1,8.38,2.76,10.9,10.9,0,0,1,4.24,3.91,11.44,11.44,0,0,1,1.53,6.12,11.32,11.32,0,0,1-1.83,6.18,11,11,0,0,1-5.19,4.29,21.86,21.86,0,0,1-8.36,1.4q-7.29,0-11.19-3.37T568.34,223.8Z"/><path class="cls-3" d="M604.14,223.8l7.55-.74a9.25,9.25,0,0,0,2.77,5.59,8.34,8.34,0,0,0,5.62,1.78,8.63,8.63,0,0,0,5.65-1.59,4.72,4.72,0,0,0,1.9-3.71,3.49,3.49,0,0,0-.8-2.31,6.32,6.32,0,0,0-2.79-1.67q-1.37-.47-6.21-1.68-6.24-1.54-8.76-3.8a10,10,0,0,1-3.54-7.73,9.86,9.86,0,0,1,1.67-5.49,10.46,10.46,0,0,1,4.79-3.89,19.27,19.27,0,0,1,7.57-1.34q7.23,0,10.89,3.17a11.26,11.26,0,0,1,3.84,8.47l-7.76.34a6.62,6.62,0,0,0-2.14-4.26,7.84,7.84,0,0,0-4.91-1.3,8.92,8.92,0,0,0-5.3,1.39,2.81,2.81,0,0,0-1.23,2.39,3,3,0,0,0,1.15,2.33q1.47,1.23,7.13,2.57a37.72,37.72,0,0,1,8.38,2.76,10.83,10.83,0,0,1,4.24,3.91,12,12,0,0,1-.3,12.3,11,11,0,0,1-5.19,4.29A21.82,21.82,0,0,1,620,237q-7.29,0-11.19-3.37T604.14,223.8Z"/><path class="cls-3" d="M676.56,236.3h-8.44l-3.35-8.73H649.41l-3.17,8.73H638l15-38.42h8.21Zm-14.28-15.2L657,206.84l-5.19,14.26Z"/><path class="cls-3" d="M680.75,236.3V197.88h7.55L704,223.54V197.88h7.21V236.3h-7.79L688,211.24V236.3Z"/><path class="cls-3" d="M744,222.17l7.53,2.39q-1.74,6.28-5.76,9.34a16.37,16.37,0,0,1-10.21,3A16.55,16.55,0,0,1,723,231.73q-4.92-5.23-4.92-14.3,0-9.6,4.95-14.9t13-5.31a16,16,0,0,1,11.45,4.17,15.08,15.08,0,0,1,3.93,7.08l-7.68,1.83a7.93,7.93,0,0,0-8.1-6.45,8.72,8.72,0,0,0-6.93,3.07q-2.65,3.06-2.66,9.93,0,7.29,2.62,10.38a8.52,8.52,0,0,0,6.82,3.09,7.78,7.78,0,0,0,5.32-2A11.39,11.39,0,0,0,744,222.17Z"/><path class="cls-3" d="M758.2,236.3V197.88h28.49v6.5H766v8.51h19.29v6.48H766v10.46h21.47v6.47Z"/><path class="cls-4" d="M334.46,794.48V346.72H524.74q71.78,0,104.31,12.06t52.07,42.92q19.54,30.84,19.55,70.55,0,50.4-29.63,83.23t-88.57,41.39q29.32,17.1,48.41,37.56t51.46,72.69L737,794.48H628.9l-65.37-97.43q-34.81-52.23-47.64-65.82T488.7,612.59q-14.35-5-45.51-5H424.87V794.48Zm90.41-258.4h66.89q65.06,0,81.24-5.49a48.73,48.73,0,0,0,25.35-18.94q9.17-13.44,9.16-33.6,0-22.59-12.06-36.5T561.4,424q-11-1.51-66-1.53H424.87Z"/><rect class="cls-2" width="1080" height="1080"/></svg>