<svg id="Layer_1" data-name="Layer 1" xmlns="http://www.w3.org/2000/svg" viewBox="0 0 1080 1080"><defs><style>.cls-1{fill:#6fccdd;}.cls-2{fill:none;stroke:#231f20;stroke-miterlimit:10;stroke-width:0.5px;}.cls-3{fill:#fff;}.cls-4{fill:#231f20;}</style></defs><title>SPARTA</title><rect class="cls-1" x="276.87" y="110.79" width="526.26" height="212.63"/><rect class="cls-1" x="276.87" y="817.78" width="526.26" height="212.63"/><polygon class="cls-2" points="803.13 817.6 276.87 817.78 276.87 323.42 803.13 323.42 803.13 817.6"/><path class="cls-3" d="M402.7,932.83l9.84-1c.6,3.31,1.8,5.73,3.61,7.28a10.91,10.91,0,0,0,7.33,2.33c3.26,0,5.71-.69,7.37-2.07a6.16,6.16,0,0,0,2.48-4.84,4.53,4.53,0,0,0-1.05-3,8.19,8.19,0,0,0-3.64-2.17q-1.77-.61-8.1-2.19-8.13-2-11.41-5a13,13,0,0,1-4.62-10.08,12.85,12.85,0,0,1,2.17-7.16,13.59,13.59,0,0,1,6.26-5.08,25.1,25.1,0,0,1,9.86-1.74q9.43,0,14.2,4.14a14.57,14.57,0,0,1,5,11l-10.12.44c-.43-2.57-1.36-4.43-2.79-5.55s-3.56-1.7-6.4-1.7a11.55,11.55,0,0,0-6.91,1.82,3.65,3.65,0,0,0-1.61,3.11,3.88,3.88,0,0,0,1.51,3q1.9,1.61,9.3,3.35a49.16,49.16,0,0,1,10.92,3.6,14.12,14.12,0,0,1,5.53,5.1,15.77,15.77,0,0,1-.39,16,14.34,14.34,0,0,1-6.77,5.59,28.33,28.33,0,0,1-10.9,1.83q-9.51,0-14.6-4.39T402.7,932.83Z"/><path class="cls-3" d="M452,949.13V899h16.24q9.22,0,12,.76a13.12,13.12,0,0,1,7.21,4.9,15.54,15.54,0,0,1,2.91,9.76,16.31,16.31,0,0,1-1.68,7.76,13.76,13.76,0,0,1-4.25,4.94,14.62,14.62,0,0,1-5.25,2.37,57.57,57.57,0,0,1-10.49.72h-6.6v18.9Zm10.12-41.63v14.22h5.54q6,0,8-.79a6.64,6.64,0,0,0,3.16-2.46,6.72,6.72,0,0,0,1.14-3.89,6.49,6.49,0,0,0-1.6-4.52,7.08,7.08,0,0,0-4.07-2.22,48.48,48.48,0,0,0-7.28-.34Z"/><path class="cls-3" d="M538.63,949.13h-11l-4.38-11.38h-20l-4.13,11.38H488.35L507.87,899h10.7ZM520,929.31l-6.9-18.6-6.77,18.6Z"/><path class="cls-3" d="M544,949.13V899h21.3q8,0,11.67,1.35a11.54,11.54,0,0,1,5.83,4.81,14.4,14.4,0,0,1,2.18,7.89,13.39,13.39,0,0,1-3.31,9.32q-3.32,3.68-9.91,4.63a23.63,23.63,0,0,1,5.41,4.2,56.31,56.31,0,0,1,5.76,8.14l6.12,9.77H577l-7.31-10.9a72.88,72.88,0,0,0-5.33-7.37,7.78,7.78,0,0,0-3.05-2.08,16.46,16.46,0,0,0-5.09-.57h-2.05v20.92Zm10.12-28.91h7.49q7.27,0,9.09-.62a5.42,5.42,0,0,0,2.83-2.12,6.46,6.46,0,0,0,1-3.76,6,6,0,0,0-1.35-4.08,6.22,6.22,0,0,0-3.81-2q-1.23-.17-7.38-.17h-7.9Z"/><path class="cls-3" d="M605.83,949.13V907.5H591V899h39.82v8.48H616v41.63Z"/><path class="cls-3" d="M677.3,949.13h-11l-4.37-11.38h-20l-4.14,11.38H627L646.54,899h10.7Zm-18.63-19.82-6.9-18.6L645,929.31Z"/><path class="cls-3" d="M350.46,199.92V151h20.8q7.85,0,11.4,1.32a11.22,11.22,0,0,1,5.69,4.69,14.06,14.06,0,0,1,2.14,7.71,13.05,13.05,0,0,1-3.24,9.1q-3.24,3.58-9.68,4.52a23.09,23.09,0,0,1,5.29,4.11,55.65,55.65,0,0,1,5.63,7.95l6,9.54H382.64l-7.14-10.65a69,69,0,0,0-5.21-7.19,7.56,7.56,0,0,0-3-2,16.51,16.51,0,0,0-5-.55h-2v20.43Zm9.88-28.24h7.32q7.11,0,8.88-.6a5.36,5.36,0,0,0,2.77-2.07,6.42,6.42,0,0,0,1-3.67,5.86,5.86,0,0,0-1.32-4,6.08,6.08,0,0,0-3.72-1.92c-.8-.11-3.21-.17-7.21-.17h-7.72Z"/><path class="cls-3" d="M399.8,199.92V151h36.29v8.28h-26.4v10.85h24.57v8.25H409.69v13.32H437v8.24Z"/><path class="cls-3" d="M442.9,184l9.62-.94q.87,4.84,3.52,7.12a10.67,10.67,0,0,0,7.16,2.27c3.18,0,5.58-.68,7.19-2a6,6,0,0,0,2.42-4.73,4.44,4.44,0,0,0-1-2.95,8.19,8.19,0,0,0-3.56-2.12c-1.16-.4-3.79-1.11-7.91-2.14q-7.95-2-11.15-4.84a12.84,12.84,0,0,1-2.39-16.84,13.34,13.34,0,0,1,6.11-5,24.58,24.58,0,0,1,9.63-1.7q9.23,0,13.87,4A14.22,14.22,0,0,1,481.29,165l-9.88.43a8.38,8.38,0,0,0-2.72-5.42q-2.08-1.65-6.26-1.65a11.27,11.27,0,0,0-6.74,1.77,3.55,3.55,0,0,0-1.57,3,3.78,3.78,0,0,0,1.47,3q1.86,1.56,9.08,3.27a47.94,47.94,0,0,1,10.67,3.52,13.73,13.73,0,0,1,5.4,5,15.39,15.39,0,0,1-.38,15.68,14,14,0,0,1-6.61,5.46,27.75,27.75,0,0,1-10.65,1.78q-9.28,0-14.25-4.29T442.9,184Z"/><path class="cls-3" d="M489,175.75a31.15,31.15,0,0,1,2.23-12.55,23.11,23.11,0,0,1,4.56-6.71,19,19,0,0,1,6.33-4.41,26.84,26.84,0,0,1,10.55-1.93q10.82,0,17.3,6.71t6.5,18.66q0,11.85-6.45,18.54t-17.22,6.7q-10.92,0-17.36-6.66T489,175.75Zm10.18-.33q0,8.31,3.84,12.6a13.2,13.2,0,0,0,19.44,0q3.79-4.26,3.79-12.77t-3.69-12.56a13.66,13.66,0,0,0-19.64.05Q499.18,167,499.19,175.42Z"/><path class="cls-3" d="M544.12,151H554v26.51a55.56,55.56,0,0,0,.37,8.18,7.91,7.91,0,0,0,3,4.82,10.49,10.49,0,0,0,6.53,1.82c2.8,0,4.92-.57,6.34-1.72a6.75,6.75,0,0,0,2.57-4.22,54.75,54.75,0,0,0,.44-8.31V151h9.88v25.71a66.41,66.41,0,0,1-.8,12.45,13.78,13.78,0,0,1-3,6.14,14.83,14.83,0,0,1-5.76,4,25,25,0,0,1-9.41,1.49q-7,0-10.63-1.62a15.12,15.12,0,0,1-5.73-4.21,13.53,13.53,0,0,1-2.77-5.42,59.87,59.87,0,0,1-1-12.42Z"/><path class="cls-3" d="M593.6,199.92V151h20.8q7.85,0,11.4,1.32a11.26,11.26,0,0,1,5.69,4.69,14.15,14.15,0,0,1,2.14,7.71,13.05,13.05,0,0,1-3.24,9.1q-3.24,3.58-9.68,4.52a23.31,23.31,0,0,1,5.29,4.11,55.79,55.79,0,0,1,5.62,7.95l6,9.54H625.78l-7.14-10.65a70.59,70.59,0,0,0-5.21-7.19,7.71,7.71,0,0,0-3-2,16.59,16.59,0,0,0-5-.55h-2v20.43Zm9.88-28.24h7.31q7.11,0,8.88-.6a5.32,5.32,0,0,0,2.77-2.07,6.35,6.35,0,0,0,1-3.67,5.86,5.86,0,0,0-1.32-4,6.06,6.06,0,0,0-3.72-1.92q-1.2-.17-7.21-.17h-7.71Z"/><path class="cls-3" d="M674.25,181.93l9.58,3q-2.19,8-7.32,11.9t-13,3.89a21,21,0,0,1-16-6.66q-6.27-6.66-6.28-18.21,0-12.22,6.31-19t16.59-6.76q9,0,14.59,5.31a19.21,19.21,0,0,1,5,9l-9.78,2.34a10.12,10.12,0,0,0-10.32-8.22,11.16,11.16,0,0,0-8.83,3.91q-3.37,3.9-3.38,12.65,0,9.28,3.33,13.22a10.84,10.84,0,0,0,8.68,3.94,9.89,9.89,0,0,0,6.78-2.5Q673,187.3,674.25,181.93Z"/><path class="cls-3" d="M692.31,199.92V151H728.6v8.28H702.2v10.85h24.57v8.25H702.2v13.32h27.34v8.24Z"/><path class="cls-3" d="M283,234.28H301a35.39,35.39,0,0,1,9.31.93,16.37,16.37,0,0,1,7.38,4.51,21.37,21.37,0,0,1,4.68,7.93,36.36,36.36,0,0,1,1.6,11.57,32.14,32.14,0,0,1-1.5,10.41,21.64,21.64,0,0,1-5.24,8.65,17.47,17.47,0,0,1-6.95,3.91,29.94,29.94,0,0,1-8.75,1H283Zm9.88,8.28V275h7.38a27.21,27.21,0,0,0,6-.46,9,9,0,0,0,4-2,10.37,10.37,0,0,0,2.59-4.72,31.91,31.91,0,0,0,1-9,29.18,29.18,0,0,0-1-8.71,11.17,11.17,0,0,0-2.8-4.74,9.35,9.35,0,0,0-4.58-2.3,43.89,43.89,0,0,0-8.11-.47Z"/><path class="cls-3" d="M332.37,283.22V234.28h36.29v8.28H342.25v10.85h24.57v8.24H342.25V275h27.34v8.25Z"/><path class="cls-3" d="M390.46,283.22,373,234.28h10.72l12.38,36.22,12-36.22h10.48L401,283.22Z"/><path class="cls-3" d="M423.57,283.22V234.28h36.29v8.28h-26.4v10.85H458v8.24H433.46V275H460.8v8.25Z"/><path class="cls-3" d="M469.44,283.22V234.68h9.88V275H503.9v8.25Z"/><path class="cls-3" d="M508.94,259.05a31.15,31.15,0,0,1,2.23-12.55,23.11,23.11,0,0,1,4.56-6.71,19,19,0,0,1,6.33-4.41,26.87,26.87,0,0,1,10.55-1.94q10.82,0,17.31,6.71t6.49,18.67q0,11.85-6.44,18.54t-17.23,6.69q-10.92,0-17.36-6.66T508.94,259.05Zm10.18-.33q0,8.31,3.84,12.6a12.51,12.51,0,0,0,9.75,4.29,12.38,12.38,0,0,0,9.69-4.26q3.79-4.26,3.79-12.77T542.5,246a13.66,13.66,0,0,0-19.64.05Q519.11,250.27,519.12,258.72Z"/><path class="cls-3" d="M564.12,283.22V234.28H580q9,0,11.75.73a12.91,12.91,0,0,1,7,4.79,15.22,15.22,0,0,1,2.84,9.54,15.93,15.93,0,0,1-1.64,7.57,13.42,13.42,0,0,1-4.15,4.83,14.31,14.31,0,0,1-5.13,2.32,56.16,56.16,0,0,1-10.25.7H574v18.46ZM574,242.56v13.89h5.41c3.89,0,6.5-.26,7.81-.77a6.44,6.44,0,0,0,4.21-6.21,6.36,6.36,0,0,0-1.57-4.41,6.89,6.89,0,0,0-4-2.17,48,48,0,0,0-7.11-.33Z"/><path class="cls-3" d="M609.59,283.22V234.28h14.79l8.88,33.38L642,234.28h14.82v48.94h-9.18V244.7L638,283.22h-9.52l-9.68-38.52v38.52Z"/><path class="cls-3" d="M666.68,283.22V234.28H703v8.28h-26.4v10.85h24.57v8.24H676.56V275H703.9v8.25Z"/><path class="cls-3" d="M712.38,283.22V234.28H722L742,267V234.28h9.18v48.94h-9.91l-19.73-31.91v31.91Z"/><path class="cls-3" d="M772.67,283.22V242.56H758.15v-8.28H797v8.28H782.55v40.66Z"/><path class="cls-4" d="M289.39,706.37V434.83h115.4q43.51,0,63.25,7.32t31.58,26q11.85,18.7,11.86,42.79,0,30.56-18,50.47t-53.72,25.1q17.79,10.37,29.36,22.78t31.21,44.08l33.16,53H468l-39.64-59.09q-21.12-31.68-28.89-39.91t-16.49-11.3q-8.7-3.06-27.6-3.06H344.22V706.37Zm54.83-156.7h40.56q39.45,0,49.27-3.34a29.49,29.49,0,0,0,15.38-11.48Q455,526.7,455,514.48q0-13.71-7.31-22.14T427,481.69q-6.66-.92-40-.92H344.22Z"/><path class="cls-4" d="M563,434.83h100.2q33.9,0,51.68,5.19a90.82,90.82,0,0,1,40.93,25q17,18,25.94,44t8.89,64.18q0,33.52-8.34,57.79-10.18,29.64-29.08,48-14.27,13.89-38.52,21.67-18.17,5.75-48.53,5.75H563Zm54.82,45.94V660.62h40.94q23,0,33.15-2.6,13.33-3.33,22.14-11.3t14.35-26.2q5.57-18.25,5.56-49.74t-5.56-48.34q-5.55-16.85-15.56-26.3t-25.37-12.78q-11.49-2.6-45-2.59Z"/><rect class="cls-2" width="1080" height="1080"/></svg>