<svg id="Layer_1" data-name="Layer 1" xmlns="http://www.w3.org/2000/svg" viewBox="0 0 1080 1080"><defs><style>.cls-1{fill:#7f6127;}.cls-2,.cls-3{fill:none;}.cls-2{stroke:#231f20;stroke-miterlimit:10;stroke-width:0.5px;}.cls-4{fill:#fff;}.cls-5{fill:#231f20;}</style></defs><title>5th oder</title><rect class="cls-1" x="258.99" y="54.73" width="526.26" height="212.63"/><rect class="cls-1" x="258.99" y="761.72" width="526.26" height="212.63"/><polygon class="cls-2" points="785.25 761.54 258.99 761.72 258.99 267.36 785.25 267.36 785.25 761.54"/><rect class="cls-3" y="0.54" width="1080" height="1080"/><path class="cls-4" d="M344,864v-50.1h37.15v8.47h-27v11.11h25.16v8.44H354.11v13.64h28V864Z"/><path class="cls-4" d="M390.79,864v-50.1h9.84l20.51,33.46V813.85h9.4V864H420.39l-20.2-32.67V864Z"/><path class="cls-4" d="M441.2,813.85h18.49a36.12,36.12,0,0,1,9.54.95,16.76,16.76,0,0,1,7.55,4.62,21.91,21.91,0,0,1,4.79,8.11,37.14,37.14,0,0,1,1.64,11.85A32.77,32.77,0,0,1,481.67,850a21.92,21.92,0,0,1-5.37,8.85,17.65,17.65,0,0,1-7.1,4,30.54,30.54,0,0,1-9,1.06h-19Zm10.12,8.47v33.19h7.55A27.45,27.45,0,0,0,465,855a9.4,9.4,0,0,0,4.09-2.08,10.58,10.58,0,0,0,2.64-4.84,32.4,32.4,0,0,0,1-9.18,29.74,29.74,0,0,0-1-8.92,11.43,11.43,0,0,0-2.87-4.85,9.64,9.64,0,0,0-4.68-2.36,45.67,45.67,0,0,0-8.3-.48Z"/><path class="cls-4" d="M511.17,813.85h10.12V841a56.81,56.81,0,0,0,.37,8.38,8.11,8.11,0,0,0,3.1,4.94,10.75,10.75,0,0,0,6.68,1.86q4.3,0,6.49-1.76a6.92,6.92,0,0,0,2.63-4.32,55.78,55.78,0,0,0,.45-8.52V813.85h10.11v26.31q0,9-.82,12.75a14,14,0,0,1-3,6.29,15.37,15.37,0,0,1-5.9,4.09,25.72,25.72,0,0,1-9.64,1.52q-7.17,0-10.88-1.66a15.47,15.47,0,0,1-5.86-4.31,13.61,13.61,0,0,1-2.84-5.55,61,61,0,0,1-1-12.72Z"/><path class="cls-4" d="M559.22,847.65l9.85-1c.59,3.31,1.79,5.73,3.6,7.28A10.93,10.93,0,0,0,580,856.3c3.25,0,5.71-.69,7.36-2.07a6.16,6.16,0,0,0,2.48-4.84,4.58,4.58,0,0,0-1-3,8.34,8.34,0,0,0-3.64-2.17q-1.78-.62-8.1-2.19-8.15-2-11.42-5A13,13,0,0,1,561,827a12.85,12.85,0,0,1,2.17-7.16,13.62,13.62,0,0,1,6.25-5.08,25.1,25.1,0,0,1,9.86-1.74q9.43,0,14.2,4.14a14.57,14.57,0,0,1,5,11l-10.12.44a8.6,8.6,0,0,0-2.78-5.55c-1.43-1.13-3.56-1.7-6.41-1.7a11.52,11.52,0,0,0-6.9,1.82,3.62,3.62,0,0,0-1.61,3.11,3.85,3.85,0,0,0,1.5,3q1.92,1.6,9.3,3.35a49.16,49.16,0,0,1,10.92,3.6,14.15,14.15,0,0,1,5.54,5.1,14.9,14.9,0,0,1,2,8,14.69,14.69,0,0,1-2.4,8.06,14.32,14.32,0,0,1-6.76,5.59,28.38,28.38,0,0,1-10.91,1.83q-9.49,0-14.59-4.39T559.22,847.65Z"/><path class="cls-4" d="M608.48,864v-50.1h37.15v8.47h-27v11.11h25.16v8.44H618.59v13.64h28V864Z"/><path class="cls-4" d="M655.2,864v-50.1h21.3q8,0,11.67,1.34A11.63,11.63,0,0,1,694,820a14.48,14.48,0,0,1,2.18,7.89,13.39,13.39,0,0,1-3.31,9.32q-3.32,3.67-9.91,4.63a23.63,23.63,0,0,1,5.41,4.2,56.31,56.31,0,0,1,5.76,8.14l6.12,9.77h-12.1l-7.31-10.9a70.78,70.78,0,0,0-5.34-7.37,7.68,7.68,0,0,0-3-2.08,16.5,16.5,0,0,0-5.09-.57h-2V864ZM665.32,835h7.48q7.29,0,9.1-.62a5.41,5.41,0,0,0,2.83-2.12,6.46,6.46,0,0,0,1-3.76,6,6,0,0,0-1.35-4.08,6.22,6.22,0,0,0-3.81-2q-1.23-.16-7.39-.17h-7.89Z"/><path class="cls-4" d="M396.09,881.45h18.49a36,36,0,0,1,9.53,1,16.82,16.82,0,0,1,7.56,4.61,21.94,21.94,0,0,1,4.78,8.12A36.8,36.8,0,0,1,438.09,907a32.84,32.84,0,0,1-1.54,10.67,22,22,0,0,1-5.36,8.85,17.89,17.89,0,0,1-7.11,4,30.54,30.54,0,0,1-9,1.06h-19Zm10.11,8.48v33.19h7.56a27.41,27.41,0,0,0,6.11-.48,9.35,9.35,0,0,0,4.09-2.09,10.69,10.69,0,0,0,2.65-4.83,32.92,32.92,0,0,0,1-9.18,30.08,30.08,0,0,0-1-8.92,11.53,11.53,0,0,0-2.87-4.85,9.59,9.59,0,0,0-4.69-2.36,45.67,45.67,0,0,0-8.3-.48Z"/><path class="cls-4" d="M446.67,931.56V881.45h37.15v8.48h-27V901h25.15v8.44H456.79v13.64h28v8.44Z"/><path class="cls-4" d="M506.14,931.56l-17.91-50.11h11l12.68,37.09,12.27-37.09h10.73l-17.95,50.11Z"/><path class="cls-4" d="M539.74,931.56V881.45h10.12v50.11Z"/><path class="cls-4" d="M591.56,913.14l9.81,3.11q-2.26,8.21-7.5,12.18t-13.32,4a21.55,21.55,0,0,1-16.4-6.81q-6.43-6.83-6.43-18.65,0-12.51,6.46-19.43t17-6.92q9.2,0,14.93,5.43a19.81,19.81,0,0,1,5.13,9.23l-10,2.39a10.34,10.34,0,0,0-10.56-8.4,11.43,11.43,0,0,0-9,4q-3.47,4-3.46,13c0,6.33,1.13,10.85,3.41,13.53a11.1,11.1,0,0,0,8.89,4,10.14,10.14,0,0,0,6.94-2.57Q590.3,918.64,591.56,913.14Z"/><path class="cls-4" d="M610.05,931.56V881.45H647.2v8.48h-27V901h25.15v8.44H620.17v13.64h28v8.44Z"/><path class="cls-4" d="M337.18,133.83l9.84-1c.59,3.31,1.79,5.73,3.61,7.28a10.89,10.89,0,0,0,7.33,2.33q4.89,0,7.36-2.07a6.13,6.13,0,0,0,2.48-4.84,4.58,4.58,0,0,0-1-3,8.25,8.25,0,0,0-3.64-2.17q-1.78-.62-8.1-2.19-8.14-2-11.42-5A13,13,0,0,1,339,113.15a12.85,12.85,0,0,1,2.17-7.16,13.67,13.67,0,0,1,6.25-5.08,25.13,25.13,0,0,1,9.86-1.74q9.44,0,14.21,4.14a14.6,14.6,0,0,1,5,11l-10.11.44c-.44-2.57-1.37-4.43-2.79-5.55s-3.56-1.7-6.41-1.7a11.52,11.52,0,0,0-6.9,1.82,3.65,3.65,0,0,0-1.61,3.11,3.85,3.85,0,0,0,1.5,3q1.92,1.6,9.3,3.35a49.16,49.16,0,0,1,10.92,3.6,14.08,14.08,0,0,1,5.54,5.1,15.77,15.77,0,0,1-.39,16,14.39,14.39,0,0,1-6.77,5.59,28.36,28.36,0,0,1-10.9,1.83q-9.51,0-14.6-4.39T337.18,133.83Z"/><path class="cls-4" d="M431.61,150.13h-11l-4.38-11.38h-20l-4.13,11.38H381.34L400.85,100h10.7ZM413,130.31l-6.91-18.6-6.76,18.6Z"/><path class="cls-4" d="M443.07,150.13V108.5H428.2V100H468v8.48H453.18v41.63Z"/><path class="cls-4" d="M474.54,150.13V100H511.7v8.48h-27v11.11h25.16v8.44H484.66v13.64h28v8.44Z"/><path class="cls-4" d="M521.51,150.13v-49.7h10.11v41.26h25.16v8.44Z"/><path class="cls-4" d="M564.27,150.13v-49.7h10.11v41.26h25.16v8.44Z"/><path class="cls-4" d="M606.44,150.13V100h10.12v50.11Z"/><path class="cls-4" d="M637.48,150.13V108.5H622.61V100h39.82v8.48H647.6v41.63Z"/><path class="cls-4" d="M669,150.13V100h37.15v8.48h-27v11.11h25.15v8.44H679.08v13.64h28v8.44Z"/><path class="cls-4" d="M402,222.06V172h16.23q9.22,0,12,.75a13.19,13.19,0,0,1,7.22,4.9,15.6,15.6,0,0,1,2.9,9.76,16.43,16.43,0,0,1-1.67,7.76,13.79,13.79,0,0,1-4.26,4.94,14.62,14.62,0,0,1-5.25,2.37,57.5,57.5,0,0,1-10.49.72h-6.6v18.9Zm10.11-41.63v14.22h5.54c4,0,6.65-.26,8-.79a6.6,6.6,0,0,0,3.16-2.46,6.73,6.73,0,0,0,1.15-3.89A6.47,6.47,0,0,0,428.3,183a7,7,0,0,0-4.07-2.23,49.83,49.83,0,0,0-7.28-.34Z"/><path class="cls-4" d="M448.67,222.06V172h10.12v19.72h19.82V172h10.12v50.1H478.61V200.15H458.79v21.91Z"/><path class="cls-4" d="M497.14,197.32a31.77,31.77,0,0,1,2.29-12.85,23.39,23.39,0,0,1,4.66-6.87,19.48,19.48,0,0,1,6.48-4.52,27.52,27.52,0,0,1,10.8-2q11.07,0,17.72,6.87t6.65,19.11q0,12.13-6.6,19t-17.63,6.86q-11.18,0-17.78-6.82T497.14,197.32Zm10.42-.34q0,8.51,3.93,12.9a12.8,12.8,0,0,0,10,4.39,12.67,12.67,0,0,0,9.93-4.36q3.89-4.35,3.88-13.07T531.51,184a14,14,0,0,0-20.12,0Q507.56,188.33,507.56,197Z"/><path class="cls-4" d="M553.74,222.06V172h9.84l20.51,33.46V172h9.4v50.1H583.34l-20.2-32.67v32.67Z"/><path class="cls-4" d="M604.19,222.06V172h37.15v8.47h-27v11.11h25.15V200H614.31v13.64h28v8.44Z"/><path class="cls-5" d="M264.72,565.84l57.82-5.62q5.22,29.12,21.19,42.77t43.06,13.65q28.72,0,43.27-12.15t14.56-28.41a26.82,26.82,0,0,0-6.12-17.77q-6.13-7.32-21.39-12.75-10.44-3.62-47.58-12.85-47.79-11.84-67.06-29.11-27.11-24.3-27.11-59.23a75.63,75.63,0,0,1,12.75-42.06q12.75-19.59,36.74-29.82t57.93-10.24q55.41,0,83.42,24.29t29.42,64.85L436.19,454q-3.82-22.68-16.37-32.63t-37.64-9.93q-25.9,0-40.56,10.64a21.45,21.45,0,0,0-9.44,18.27q0,10.45,8.84,17.87,11.24,9.43,54.61,19.68t64.15,21.18A82.8,82.8,0,0,1,492.31,529q11.74,19,11.74,46.89A86.64,86.64,0,0,1,490,623.26q-14.06,22.1-39.76,32.84t-64.05,10.73q-55.81,0-85.73-25.8T264.72,565.84Z"/><path class="cls-5" d="M554.05,661.61V367.27h95.37q54.21,0,70.68,4.41,25.29,6.63,42.36,28.81t17.07,57.33q0,27.1-9.84,45.58t-25,29q-15.16,10.53-30.82,14-21.29,4.23-61.64,4.22H613.48v111Zm59.43-244.55v83.53H646q35.13,0,47-4.62a39,39,0,0,0,18.57-14.46,39.53,39.53,0,0,0,6.73-22.89q0-16-9.44-26.5A41.08,41.08,0,0,0,685,419.07q-10.65-2-42.77-2Z"/></svg>