<svg id="Layer_1" data-name="Layer 1" xmlns="http://www.w3.org/2000/svg" viewBox="0 0 1080 1080"><defs><style>.cls-1{fill:#7f6127;}.cls-2,.cls-3{fill:none;}.cls-2{stroke:#231f20;stroke-miterlimit:10;stroke-width:0.5px;}.cls-4{fill:#fff;}.cls-5{fill:#231f20;}</style></defs><title>5th oder</title><rect class="cls-1" x="258.99" y="54.73" width="526.26" height="212.63"/><rect class="cls-1" x="258.99" y="761.72" width="526.26" height="212.63"/><polygon class="cls-2" points="785.25 761.54 258.99 761.72 258.99 267.36 785.25 267.36 785.25 761.54"/><rect class="cls-3" y="0.54" width="1080" height="1080"/><path class="cls-4" d="M344,859.29V809.18h37.15v8.48h-27v11.1h25.16v8.45H354.11v13.63h28v8.45Z"/><path class="cls-4" d="M390.79,859.29V809.18h9.84l20.51,33.46V809.18h9.4v50.11H420.39l-20.2-32.68v32.68Z"/><path class="cls-4" d="M441.2,809.18h18.49a36,36,0,0,1,9.54,1,16.65,16.65,0,0,1,7.55,4.61,22,22,0,0,1,4.79,8.12,37.07,37.07,0,0,1,1.64,11.84,32.84,32.84,0,0,1-1.54,10.67,22.06,22.06,0,0,1-5.37,8.85,17.77,17.77,0,0,1-7.1,4,30.88,30.88,0,0,1-9,1.06h-19Zm10.12,8.48v33.18h7.55a27.6,27.6,0,0,0,6.12-.47,9.41,9.41,0,0,0,4.09-2.09,10.59,10.59,0,0,0,2.64-4.83,32.49,32.49,0,0,0,1-9.18,29.65,29.65,0,0,0-1-8.92,11.47,11.47,0,0,0-2.87-4.86,9.64,9.64,0,0,0-4.68-2.36,47,47,0,0,0-8.3-.47Z"/><path class="cls-4" d="M511.17,809.18h10.12v27.14a56.54,56.54,0,0,0,.37,8.37,8.11,8.11,0,0,0,3.1,4.94,10.75,10.75,0,0,0,6.68,1.86c2.87,0,5-.58,6.49-1.76a6.9,6.9,0,0,0,2.63-4.32,55.71,55.71,0,0,0,.45-8.51V809.18h10.11V835.5q0,9-.82,12.75a14.06,14.06,0,0,1-3,6.29,15.25,15.25,0,0,1-5.9,4.08,25.72,25.72,0,0,1-9.64,1.52q-7.17,0-10.88-1.66a15.45,15.45,0,0,1-5.86-4.3,13.71,13.71,0,0,1-2.84-5.56,60.9,60.9,0,0,1-1-12.71Z"/><path class="cls-4" d="M559.22,843l9.85-1q.88,5,3.6,7.28a10.93,10.93,0,0,0,7.34,2.32c3.25,0,5.71-.69,7.36-2.07a6.16,6.16,0,0,0,2.48-4.83,4.59,4.59,0,0,0-1-3,8.44,8.44,0,0,0-3.64-2.17q-1.78-.62-8.1-2.19-8.15-2-11.42-5A13,13,0,0,1,561,822.3a12.88,12.88,0,0,1,2.17-7.16,13.54,13.54,0,0,1,6.25-5.07,25.1,25.1,0,0,1,9.86-1.74q9.43,0,14.2,4.13a14.61,14.61,0,0,1,5,11l-10.12.45a8.6,8.6,0,0,0-2.78-5.56c-1.43-1.13-3.56-1.69-6.41-1.69a11.52,11.52,0,0,0-6.9,1.81,3.64,3.64,0,0,0-1.61,3.11,3.84,3.84,0,0,0,1.5,3q1.92,1.61,9.3,3.35a49.07,49.07,0,0,1,10.92,3.61,14.12,14.12,0,0,1,5.54,5.09,15,15,0,0,1,2,8,14.75,14.75,0,0,1-2.4,8.07,14.32,14.32,0,0,1-6.76,5.59,28.38,28.38,0,0,1-10.91,1.83q-9.49,0-14.59-4.4T559.22,843Z"/><path class="cls-4" d="M608.48,859.29V809.18h37.15v8.48h-27v11.1h25.16v8.45H618.59v13.63h28v8.45Z"/><path class="cls-4" d="M655.2,859.29V809.18h21.3q8,0,11.67,1.35a11.56,11.56,0,0,1,5.83,4.8,14.52,14.52,0,0,1,2.18,7.9,13.36,13.36,0,0,1-3.31,9.31q-3.32,3.68-9.91,4.63a23.66,23.66,0,0,1,5.41,4.21,56.07,56.07,0,0,1,5.76,8.13l6.12,9.78h-12.1l-7.31-10.91A70.23,70.23,0,0,0,675.5,841a7.71,7.71,0,0,0-3-2.09,16.89,16.89,0,0,0-5.09-.56h-2v20.92Zm10.12-28.92h7.48q7.29,0,9.1-.61a5.46,5.46,0,0,0,2.83-2.12,6.5,6.5,0,0,0,1-3.76,6,6,0,0,0-1.35-4.09,6.21,6.21,0,0,0-3.81-2c-.82-.12-3.28-.17-7.39-.17h-7.89Z"/><path class="cls-4" d="M396.09,876.79h18.49a36.47,36.47,0,0,1,9.53,1,16.84,16.84,0,0,1,7.56,4.62,21.94,21.94,0,0,1,4.78,8.12,36.8,36.8,0,0,1,1.64,11.84A32.77,32.77,0,0,1,436.55,913a22.12,22.12,0,0,1-5.36,8.86,17.87,17.87,0,0,1-7.11,4,30.54,30.54,0,0,1-9,1.06h-19Zm10.11,8.47v33.19h7.56a27.41,27.41,0,0,0,6.11-.48,9.34,9.34,0,0,0,4.09-2.08,10.68,10.68,0,0,0,2.65-4.84,32.79,32.79,0,0,0,1-9.17,30.15,30.15,0,0,0-1-8.93,11.53,11.53,0,0,0-2.87-4.85,9.68,9.68,0,0,0-4.69-2.36,45.67,45.67,0,0,0-8.3-.48Z"/><path class="cls-4" d="M446.67,926.89v-50.1h37.15v8.47h-27v11.11h25.15v8.44H456.79v13.64h28v8.44Z"/><path class="cls-4" d="M506.14,926.89l-17.91-50.1h11l12.68,37.08,12.27-37.08h10.73l-17.95,50.1Z"/><path class="cls-4" d="M539.74,926.89v-50.1h10.12v50.1Z"/><path class="cls-4" d="M591.56,908.47l9.81,3.11q-2.26,8.2-7.5,12.19t-13.32,4a21.53,21.53,0,0,1-16.4-6.82q-6.43-6.82-6.43-18.64,0-12.51,6.46-19.44t17-6.92q9.2,0,14.93,5.44a19.76,19.76,0,0,1,5.13,9.23l-10,2.39a10.36,10.36,0,0,0-10.56-8.41,11.41,11.41,0,0,0-9,4q-3.47,4-3.46,12.95,0,9.51,3.41,13.54a11.1,11.1,0,0,0,8.89,4,10.13,10.13,0,0,0,6.94-2.56Q590.3,914,591.56,908.47Z"/><path class="cls-4" d="M610.05,926.89v-50.1H647.2v8.47h-27v11.11h25.15v8.44H620.17v13.64h28v8.44Z"/><path class="cls-4" d="M344.24,104.05l9.47-.92c.57,3.17,1.73,5.51,3.47,7a10.48,10.48,0,0,0,7.05,2.23q4.69,0,7.08-2a5.9,5.9,0,0,0,2.39-4.65,4.39,4.39,0,0,0-1-2.91,7.91,7.91,0,0,0-3.5-2.08c-1.14-.4-3.73-1.1-7.79-2.11q-7.81-1.94-11-4.76a12.56,12.56,0,0,1-4.44-9.7,12.41,12.41,0,0,1,2.09-6.89,13.06,13.06,0,0,1,6-4.88,24.06,24.06,0,0,1,9.48-1.68q9.07,0,13.66,4a14.05,14.05,0,0,1,4.82,10.62l-9.73.43a8.3,8.3,0,0,0-2.68-5.35q-2.06-1.62-6.17-1.62a11.14,11.14,0,0,0-6.64,1.74,3.5,3.5,0,0,0-1.54,3,3.71,3.71,0,0,0,1.44,2.93q1.84,1.54,8.95,3.22a47.06,47.06,0,0,1,10.5,3.47A13.45,13.45,0,0,1,381.5,98a15.16,15.16,0,0,1-.37,15.44,13.83,13.83,0,0,1-6.51,5.37,27.17,27.17,0,0,1-10.49,1.76q-9.13,0-14-4.22T344.24,104.05Z"/><path class="cls-4" d="M435.07,119.73H424.49l-4.21-11H401l-4,11H386.72l18.77-48.2h10.29Zm-17.91-19.07-6.64-17.88L404,100.66Z"/><path class="cls-4" d="M446.09,119.73v-40h-14.3V71.53h38.29v8.16H455.82v40Z"/><path class="cls-4" d="M476.36,119.73V71.53H512.1v8.16h-26V90.37h24.2v8.12h-24.2v13.12H513v8.12Z"/><path class="cls-4" d="M521.53,119.73V71.93h9.73v39.68h24.2v8.12Z"/><path class="cls-4" d="M562.66,119.73V71.93h9.73v39.68h24.19v8.12Z"/><path class="cls-4" d="M603.22,119.73V71.53H613v48.2Z"/><path class="cls-4" d="M633.07,119.73v-40h-14.3V71.53h38.3v8.16H642.8v40Z"/><path class="cls-4" d="M663.35,119.73V71.53h35.73v8.16h-26V90.37h24.19v8.12H673.08v13.12H700v8.12Z"/><path class="cls-4" d="M356.8,185.16V137h9.73v48.2Z"/><path class="cls-4" d="M375.9,185.16V137h9.47l19.72,32.19V137h9v48.2h-9.76l-19.43-31.43v31.43Z"/><path class="cls-4" d="M435.27,185.16v-40H421V137h38.3v8.16H445v40Z"/><path class="cls-4" d="M465.55,185.16V137h35.73v8.16h-26V155.8h24.19v8.12H475.28V177H502.2v8.12Z"/><path class="cls-4" d="M510.49,185.16V137H531q7.72,0,11.22,1.3a11.13,11.13,0,0,1,5.61,4.62,13.9,13.9,0,0,1,2.1,7.59,12.83,12.83,0,0,1-3.19,9q-3.18,3.54-9.53,4.46a22.54,22.54,0,0,1,5.21,4,55.1,55.1,0,0,1,5.54,7.82l5.88,9.41H542.18l-7-10.49a67.14,67.14,0,0,0-5.13-7.08,7.4,7.4,0,0,0-2.92-2,16.14,16.14,0,0,0-4.9-.54h-2v20.12Zm9.73-27.81h7.2c4.66,0,7.58-.2,8.74-.6a5.25,5.25,0,0,0,2.73-2,6.27,6.27,0,0,0,1-3.62,5.82,5.82,0,0,0-1.29-3.93,6,6,0,0,0-3.67-1.89q-1.18-.17-7.1-.16h-7.59Z"/><path class="cls-4" d="M559.17,185.16V137h9.47l19.72,32.19V137h9v48.2h-9.76l-19.43-31.43v31.43Z"/><path class="cls-4" d="M607.69,185.16V137h35.74v8.16h-26V155.8h24.2v8.12h-24.2V177h26.93v8.12Z"/><path class="cls-4" d="M663.45,185.16v-40h-14.3V137h38.3v8.16H673.18v40Z"/><path class="cls-4" d="M397.86,250.55V202.36h14.56l8.75,32.87,8.64-32.87h14.6v48.19h-9V212.62l-9.57,37.93h-9.37l-9.53-37.93v37.93Z"/><path class="cls-4" d="M452.1,226.75a30.62,30.62,0,0,1,2.2-12.36,23.09,23.09,0,0,1,4.49-6.61,18.9,18.9,0,0,1,6.23-4.34,26.49,26.49,0,0,1,10.39-1.9q10.65,0,17,6.61t6.4,18.37q0,11.67-6.35,18.26t-17,6.6q-10.76,0-17.09-6.56T452.1,226.75Zm10-.33q0,8.19,3.78,12.41a13,13,0,0,0,19.15,0q3.72-4.2,3.73-12.58t-3.63-12.36a13.48,13.48,0,0,0-19.35,0Q462.12,218.11,462.13,226.42Z"/><path class="cls-4" d="M506.41,202.36h17.78a35,35,0,0,1,9.18.92,16.1,16.1,0,0,1,7.26,4.44,20.93,20.93,0,0,1,4.6,7.81,35.31,35.31,0,0,1,1.58,11.39,31.55,31.55,0,0,1-1.48,10.25,21.14,21.14,0,0,1-5.16,8.52,17.17,17.17,0,0,1-6.84,3.84,29.42,29.42,0,0,1-8.61,1H506.41Zm9.73,8.15v31.92h7.26a26.39,26.39,0,0,0,5.89-.46,8.94,8.94,0,0,0,3.93-2,10.21,10.21,0,0,0,2.55-4.65,31.77,31.77,0,0,0,1-8.83,29,29,0,0,0-1-8.58,11,11,0,0,0-2.77-4.67,9.26,9.26,0,0,0-4.5-2.27,44.8,44.8,0,0,0-8-.46Z"/><path class="cls-4" d="M555.06,250.55V202.36H590.8v8.15h-26V221.2H589v8.12h-24.2v13.11h26.93v8.12Z"/><path class="cls-4" d="M599.84,250.55V202.36H614.4l8.74,32.87,8.65-32.87h14.6v48.19h-9V212.62l-9.57,37.93h-9.37l-9.53-37.93v37.93Z"/><path class="cls-5" d="M267.22,552.6l42.91-4.17Q314,570,325.84,580.17t32,10.13q21.3,0,32.1-9t10.81-21.08A19.89,19.89,0,0,0,396.16,547q-4.55-5.44-15.86-9.46Q372.54,534.88,345,528q-35.46-8.78-49.76-21.6-20.12-18-20.11-43.95a56.11,56.11,0,0,1,9.46-31.21q9.45-14.52,27.26-22.12t43-7.6q41.12,0,61.9,18t21.83,48.12l-44.1,1.93q-2.83-16.83-12.14-24.21T354.37,438q-19.22,0-30.09,7.9a15.9,15.9,0,0,0-7,13.55q0,7.75,6.55,13.26,8.34,7,40.53,14.6T412,503.07a61.43,61.43,0,0,1,24.14,22.19q8.71,14.09,8.71,34.79a64.23,64.23,0,0,1-10.43,35.16q-10.42,16.39-29.49,24.36t-47.53,8q-41.42,0-63.61-19.15T267.22,552.6Z"/><path class="cls-5" d="M480.56,623.67V405.27h44.1v218.4Z"/><path class="cls-5" d="M566.07,623.67V405.27h66l39.63,149,39.18-149H777v218.4h-41V451.75L692.7,623.67H650.24L607,451.75V623.67Z"/></svg>