<svg id="Layer_1" data-name="Layer 1" xmlns="http://www.w3.org/2000/svg" viewBox="0 0 1080 1080"><defs><style>.cls-1{fill:#7f6127;}.cls-2,.cls-3{fill:none;}.cls-2{stroke:#231f20;stroke-miterlimit:10;stroke-width:0.5px;}.cls-4{fill:#fff;}.cls-5{fill:#231f20;}</style></defs><title>5th oder</title><rect class="cls-1" x="258.99" y="54.73" width="526.26" height="212.63"/><rect class="cls-1" x="258.99" y="761.72" width="526.26" height="212.63"/><polygon class="cls-2" points="785.25 761.54 258.99 761.72 258.99 267.36 785.25 267.36 785.25 761.54"/><rect class="cls-3" y="0.54" width="1080" height="1080"/><path class="cls-4" d="M344,859.29V809.18h37.15v8.48h-27v11.1h25.16v8.45H354.11v13.63h28v8.45Z"/><path class="cls-4" d="M390.79,859.29V809.18h9.84l20.51,33.46V809.18h9.4v50.11H420.39l-20.2-32.68v32.68Z"/><path class="cls-4" d="M441.2,809.18h18.49a36,36,0,0,1,9.54,1,16.65,16.65,0,0,1,7.55,4.61,22,22,0,0,1,4.79,8.12,37.07,37.07,0,0,1,1.64,11.84,32.84,32.84,0,0,1-1.54,10.67,22.06,22.06,0,0,1-5.37,8.85,17.77,17.77,0,0,1-7.1,4,30.88,30.88,0,0,1-9,1.06h-19Zm10.12,8.48v33.18h7.55a27.6,27.6,0,0,0,6.12-.47,9.41,9.41,0,0,0,4.09-2.09,10.59,10.59,0,0,0,2.64-4.83,32.49,32.49,0,0,0,1-9.18,29.65,29.65,0,0,0-1-8.92,11.47,11.47,0,0,0-2.87-4.86,9.64,9.64,0,0,0-4.68-2.36,47,47,0,0,0-8.3-.47Z"/><path class="cls-4" d="M511.17,809.18h10.12v27.14a56.54,56.54,0,0,0,.37,8.37,8.11,8.11,0,0,0,3.1,4.94,10.75,10.75,0,0,0,6.68,1.86c2.87,0,5-.58,6.49-1.76a6.9,6.9,0,0,0,2.63-4.32,55.71,55.71,0,0,0,.45-8.51V809.18h10.11V835.5q0,9-.82,12.75a14.06,14.06,0,0,1-3,6.29,15.25,15.25,0,0,1-5.9,4.08,25.72,25.72,0,0,1-9.64,1.52q-7.17,0-10.88-1.66a15.45,15.45,0,0,1-5.86-4.3,13.71,13.71,0,0,1-2.84-5.56,60.9,60.9,0,0,1-1-12.71Z"/><path class="cls-4" d="M559.22,843l9.85-1q.88,5,3.6,7.28a10.93,10.93,0,0,0,7.34,2.32c3.25,0,5.71-.69,7.36-2.07a6.16,6.16,0,0,0,2.48-4.83,4.59,4.59,0,0,0-1-3,8.44,8.44,0,0,0-3.64-2.17q-1.78-.62-8.1-2.19-8.15-2-11.42-5A13,13,0,0,1,561,822.3a12.88,12.88,0,0,1,2.17-7.16,13.54,13.54,0,0,1,6.25-5.07,25.1,25.1,0,0,1,9.86-1.74q9.43,0,14.2,4.13a14.61,14.61,0,0,1,5,11l-10.12.45a8.6,8.6,0,0,0-2.78-5.56c-1.43-1.13-3.56-1.69-6.41-1.69a11.52,11.52,0,0,0-6.9,1.81,3.64,3.64,0,0,0-1.61,3.11,3.84,3.84,0,0,0,1.5,3q1.92,1.61,9.3,3.35a49.07,49.07,0,0,1,10.92,3.61,14.12,14.12,0,0,1,5.54,5.09,15,15,0,0,1,2,8,14.75,14.75,0,0,1-2.4,8.07,14.32,14.32,0,0,1-6.76,5.59,28.38,28.38,0,0,1-10.91,1.83q-9.49,0-14.59-4.4T559.22,843Z"/><path class="cls-4" d="M608.48,859.29V809.18h37.15v8.48h-27v11.1h25.16v8.45H618.59v13.63h28v8.45Z"/><path class="cls-4" d="M655.2,859.29V809.18h21.3q8,0,11.67,1.35a11.56,11.56,0,0,1,5.83,4.8,14.52,14.52,0,0,1,2.18,7.9,13.36,13.36,0,0,1-3.31,9.31q-3.32,3.68-9.91,4.63a23.66,23.66,0,0,1,5.41,4.21,56.07,56.07,0,0,1,5.76,8.13l6.12,9.78h-12.1l-7.31-10.91A70.23,70.23,0,0,0,675.5,841a7.71,7.71,0,0,0-3-2.09,16.89,16.89,0,0,0-5.09-.56h-2v20.92Zm10.12-28.92h7.48q7.29,0,9.1-.61a5.46,5.46,0,0,0,2.83-2.12,6.5,6.5,0,0,0,1-3.76,6,6,0,0,0-1.35-4.09,6.21,6.21,0,0,0-3.81-2c-.82-.12-3.28-.17-7.39-.17h-7.89Z"/><path class="cls-4" d="M396.09,876.79h18.49a36.47,36.47,0,0,1,9.53,1,16.84,16.84,0,0,1,7.56,4.62,21.94,21.94,0,0,1,4.78,8.12,36.8,36.8,0,0,1,1.64,11.84A32.77,32.77,0,0,1,436.55,913a22.12,22.12,0,0,1-5.36,8.86,17.87,17.87,0,0,1-7.11,4,30.54,30.54,0,0,1-9,1.06h-19Zm10.11,8.47v33.19h7.56a27.41,27.41,0,0,0,6.11-.48,9.34,9.34,0,0,0,4.09-2.08,10.68,10.68,0,0,0,2.65-4.84,32.79,32.79,0,0,0,1-9.17,30.15,30.15,0,0,0-1-8.93,11.53,11.53,0,0,0-2.87-4.85,9.68,9.68,0,0,0-4.69-2.36,45.67,45.67,0,0,0-8.3-.48Z"/><path class="cls-4" d="M446.67,926.89v-50.1h37.15v8.47h-27v11.11h25.15v8.44H456.79v13.64h28v8.44Z"/><path class="cls-4" d="M506.14,926.89l-17.91-50.1h11l12.68,37.08,12.27-37.08h10.73l-17.95,50.1Z"/><path class="cls-4" d="M539.74,926.89v-50.1h10.12v50.1Z"/><path class="cls-4" d="M591.56,908.47l9.81,3.11q-2.26,8.2-7.5,12.19t-13.32,4a21.53,21.53,0,0,1-16.4-6.82q-6.43-6.82-6.43-18.64,0-12.51,6.46-19.44t17-6.92q9.2,0,14.93,5.44a19.76,19.76,0,0,1,5.13,9.23l-10,2.39a10.36,10.36,0,0,0-10.56-8.41,11.41,11.41,0,0,0-9,4q-3.47,4-3.46,12.95,0,9.51,3.41,13.54a11.1,11.1,0,0,0,8.89,4,10.13,10.13,0,0,0,6.94-2.56Q590.3,914,591.56,908.47Z"/><path class="cls-4" d="M610.05,926.89v-50.1H647.2v8.47h-27v11.11h25.15v8.44H620.17v13.64h28v8.44Z"/><path class="cls-4" d="M337.18,106.17l9.84-1q.89,4.95,3.61,7.28a10.88,10.88,0,0,0,7.33,2.32q4.89,0,7.36-2.07a6.13,6.13,0,0,0,2.48-4.83,4.59,4.59,0,0,0-1-3,8.44,8.44,0,0,0-3.64-2.17q-1.78-.61-8.1-2.19-8.14-2-11.42-5A13.06,13.06,0,0,1,339,85.49a12.85,12.85,0,0,1,2.17-7.16,13.59,13.59,0,0,1,6.25-5.07,25.13,25.13,0,0,1,9.86-1.75q9.44,0,14.21,4.14a14.63,14.63,0,0,1,5,11l-10.11.44a8.65,8.65,0,0,0-2.79-5.55q-2.13-1.69-6.41-1.69a11.52,11.52,0,0,0-6.9,1.81,3.65,3.65,0,0,0-1.61,3.11,3.84,3.84,0,0,0,1.5,3q1.92,1.61,9.3,3.35a49.07,49.07,0,0,1,10.92,3.61,14.06,14.06,0,0,1,5.54,5.09,15.78,15.78,0,0,1-.39,16,14.45,14.45,0,0,1-6.77,5.59,28.57,28.57,0,0,1-10.9,1.82q-9.51,0-14.6-4.39T337.18,106.17Z"/><path class="cls-4" d="M431.61,122.48h-11l-4.38-11.39h-20l-4.13,11.39H381.34l19.51-50.11h10.7ZM413,102.65l-6.91-18.59-6.76,18.59Z"/><path class="cls-4" d="M443.07,122.48V80.85H428.2V72.37H468v8.48H453.18v41.63Z"/><path class="cls-4" d="M474.54,122.48V72.37H511.7v8.48h-27V92h25.16v8.45H484.66V114h28v8.45Z"/><path class="cls-4" d="M521.51,122.48V72.78h10.11V114h25.16v8.45Z"/><path class="cls-4" d="M564.27,122.48V72.78h10.11V114h25.16v8.45Z"/><path class="cls-4" d="M606.44,122.48V72.37h10.12v50.11Z"/><path class="cls-4" d="M637.48,122.48V80.85H622.61V72.37h39.82v8.48H647.6v41.63Z"/><path class="cls-4" d="M669,122.48V72.37h37.15v8.48h-27V92h25.15v8.45H679.08V114h28v8.45Z"/><path class="cls-4" d="M297,136h20a58.14,58.14,0,0,1,8.87.49,13,13,0,0,1,5.23,2.07,12.84,12.84,0,0,1,3.84,4.19,11.3,11.3,0,0,1,1.54,5.86,11.63,11.63,0,0,1-1.9,6.46,11.75,11.75,0,0,1-5.14,4.41,13.2,13.2,0,0,1,7,4.54,12.09,12.09,0,0,1,2.46,7.56,14.91,14.91,0,0,1-1.59,6.65A13.47,13.47,0,0,1,333,183.4a14.35,14.35,0,0,1-6.78,2.37q-2.53.28-12.21.34H297Zm10.12,8.34v11.58h6.63c3.94,0,6.39-.05,7.34-.17a6.65,6.65,0,0,0,4.09-1.79,5.31,5.31,0,0,0,1.49-3.92,5.48,5.48,0,0,0-1.29-3.77,5.75,5.75,0,0,0-3.81-1.76c-1-.12-3.88-.17-8.64-.17Zm0,19.92v13.4h9.36a45,45,0,0,0,6.94-.31,6.18,6.18,0,0,0,3.67-2,6.1,6.1,0,0,0,1.42-4.25,6.55,6.55,0,0,0-1.09-3.83,6.21,6.21,0,0,0-3.16-2.29q-2.07-.72-9-.72Z"/><path class="cls-4" d="M347.55,186.11V136h21.29q8,0,11.68,1.35a11.53,11.53,0,0,1,5.82,4.8,14.41,14.41,0,0,1,2.19,7.89,13.39,13.39,0,0,1-3.31,9.32Q381.91,163,375.3,164a23.76,23.76,0,0,1,5.42,4.2,57.94,57.94,0,0,1,5.76,8.14l6.12,9.77H380.5l-7.32-10.9a68.07,68.07,0,0,0-5.33-7.36,7.71,7.71,0,0,0-3-2.09,16.57,16.57,0,0,0-5.09-.56h-2.05v20.91Zm10.12-28.91h7.48q7.29,0,9.09-.62a5.4,5.4,0,0,0,2.84-2.12,6.53,6.53,0,0,0,1-3.76,6,6,0,0,0-1.35-4.08,6.22,6.22,0,0,0-3.81-2c-.82-.11-3.29-.17-7.39-.17h-7.89Z"/><path class="cls-4" d="M396,161.37a31.77,31.77,0,0,1,2.29-12.85,23.65,23.65,0,0,1,4.66-6.87,19.45,19.45,0,0,1,6.48-4.51,27.34,27.34,0,0,1,10.8-2q11.07,0,17.72,6.87t6.65,19.11q0,12.13-6.6,19T420.39,187q-11.17,0-17.78-6.82T396,161.37Zm10.42-.34q0,8.5,3.93,12.9a12.8,12.8,0,0,0,10,4.39,12.67,12.67,0,0,0,9.93-4.36q3.89-4.35,3.88-13.07T430.38,148a14,14,0,0,0-20.11.05Q406.45,152.38,406.44,161Z"/><path class="cls-4" d="M497.7,186.11h-11l-4.38-11.38h-20l-4.13,11.38H447.42L466.94,136h10.7Zm-18.63-19.82-6.9-18.59-6.77,18.59Z"/><path class="cls-4" d="M503,136h18.49a36.55,36.55,0,0,1,9.54,1,16.76,16.76,0,0,1,7.55,4.62,21.82,21.82,0,0,1,4.79,8.12A37.07,37.07,0,0,1,545,161.54a32.77,32.77,0,0,1-1.54,10.66,22.12,22.12,0,0,1-5.36,8.86,17.87,17.87,0,0,1-7.11,4,30.54,30.54,0,0,1-9,1.06H503Zm10.12,8.47v33.19h7.55a27.45,27.45,0,0,0,6.12-.48,9.4,9.4,0,0,0,4.09-2.08,10.68,10.68,0,0,0,2.65-4.84,32.79,32.79,0,0,0,1-9.17,30.15,30.15,0,0,0-1-8.93,11.44,11.44,0,0,0-2.88-4.85A9.64,9.64,0,0,0,526,145a45.67,45.67,0,0,0-8.3-.48Z"/><path class="cls-4" d="M553.65,136h20a58,58,0,0,1,8.87.49,13,13,0,0,1,5.23,2.07,12.86,12.86,0,0,1,3.85,4.19,11.39,11.39,0,0,1,1.54,5.86,11.88,11.88,0,0,1-7,10.87,13.23,13.23,0,0,1,7,4.54,12.09,12.09,0,0,1,2.46,7.56,14.91,14.91,0,0,1-1.59,6.65,13.47,13.47,0,0,1-4.34,5.16,14.39,14.39,0,0,1-6.79,2.37q-2.53.28-12.2.34H553.65Zm10.12,8.34v11.58h6.63c3.94,0,6.39-.05,7.35-.17a6.71,6.71,0,0,0,4.09-1.79,5.3,5.3,0,0,0,1.48-3.92,5.52,5.52,0,0,0-1.28-3.77,5.8,5.8,0,0,0-3.81-1.76c-1-.12-3.89-.17-8.65-.17Zm0,19.92v13.4h9.37a44.88,44.88,0,0,0,6.93-.31,5.91,5.91,0,0,0,5.1-6.25,6.55,6.55,0,0,0-1.1-3.83,6.17,6.17,0,0,0-3.16-2.29q-2.07-.72-9-.72Z"/><path class="cls-4" d="M649.36,186.11h-11L634,174.73H614l-4.14,11.38H599.08L618.59,136h10.7Zm-18.63-19.82-6.91-18.59-6.76,18.59Z"/><path class="cls-4" d="M654.83,186.11V136h9.84l20.51,33.46V136h9.4v50.1H684.42l-20.2-32.67v32.67Z"/><path class="cls-4" d="M705.24,136h18.49a36.55,36.55,0,0,1,9.54,1,16.81,16.81,0,0,1,7.55,4.62,22,22,0,0,1,4.79,8.12,37.07,37.07,0,0,1,1.64,11.84,33,33,0,0,1-1.54,10.66,22,22,0,0,1-5.37,8.86,17.74,17.74,0,0,1-7.11,4,30.46,30.46,0,0,1-9,1.06h-19Zm10.12,8.47v33.19h7.55a27.45,27.45,0,0,0,6.12-.48,9.3,9.3,0,0,0,4.08-2.08,10.49,10.49,0,0,0,2.65-4.84,32.37,32.37,0,0,0,1-9.17,29.77,29.77,0,0,0-1-8.93,11.43,11.43,0,0,0-2.87-4.85,9.64,9.64,0,0,0-4.68-2.36,45.72,45.72,0,0,0-8.31-.48Z"/><path class="cls-4" d="M358,250.57V208.94H343.12v-8.47h39.82v8.47H368.11v41.63Z"/><path class="cls-4" d="M389.47,250.57v-50.1h37.15v8.47h-27v11.11h25.15v8.44H399.59v13.64h28v8.44Z"/><path class="cls-4" d="M436.2,250.57v-50.1h21.29q8,0,11.67,1.35a11.52,11.52,0,0,1,5.83,4.8,14.41,14.41,0,0,1,2.19,7.89,13.4,13.4,0,0,1-3.32,9.32q-3.32,3.67-9.91,4.63a24,24,0,0,1,5.42,4.2,57.94,57.94,0,0,1,5.76,8.14l6.11,9.77h-12.1l-7.31-10.9a72.88,72.88,0,0,0-5.33-7.37,7.86,7.86,0,0,0-3-2.08,16.64,16.64,0,0,0-5.1-.56h-2.05v20.91Zm10.11-28.91h7.49q7.27,0,9.09-.62a5.43,5.43,0,0,0,2.84-2.12,6.53,6.53,0,0,0,1-3.76,6,6,0,0,0-1.35-4.08,6.22,6.22,0,0,0-3.81-2q-1.23-.17-7.38-.17h-7.9Z"/><path class="cls-4" d="M486.58,250.57v-50.1h15.14l9.09,34.18,9-34.18H535v50.1h-9.4V211.13l-9.94,39.44h-9.74L496,211.13v39.44Z"/><path class="cls-4" d="M544.72,250.57v-50.1h10.11v50.1Z"/><path class="cls-4" d="M564.57,250.57v-50.1h9.85l20.51,33.46V200.47h9.39v50.1H594.17L574,217.9v32.67Z"/><path class="cls-4" d="M660.21,250.57h-11l-4.37-11.38h-20l-4.14,11.38H609.93l19.52-50.1h10.7Zm-18.63-19.82-6.9-18.59-6.77,18.59Z"/><path class="cls-4" d="M665.85,250.57V200.88H676v41.25h25.15v8.44Z"/><path class="cls-5" d="M266,547.42l37.06-3.6q3.35,18.66,13.58,27.41t27.6,8.75q18.4,0,27.74-7.79t9.33-18.2a17.21,17.21,0,0,0-3.93-11.4q-3.93-4.68-13.7-8.17-6.7-2.31-30.5-8.23-30.63-7.59-43-18.66-17.37-15.57-17.37-38a48.46,48.46,0,0,1,8.17-27q8.17-12.56,23.55-19.11t37.13-6.57q35.52,0,53.47,15.58T414,474.07l-38.1,1.67q-2.44-14.53-10.49-20.92t-24.13-6.37q-16.59,0-26,6.83A13.73,13.73,0,0,0,309.26,467a14.46,14.46,0,0,0,5.66,11.45q7.2,6,35,12.61T391,504.63a53,53,0,0,1,20.85,19.17q7.53,12.18,7.53,30.06a55.53,55.53,0,0,1-9,30.37,54,54,0,0,1-25.48,21q-16.47,6.88-41.05,6.89-35.79,0-55-16.54T266,547.42Z"/><path class="cls-5" d="M451.6,420.14H527q22.4,0,33.4,1.87a49.06,49.06,0,0,1,19.69,7.78,48.52,48.52,0,0,1,14.48,15.77,42.71,42.71,0,0,1,5.79,22.07,44.74,44.74,0,0,1-26.51,40.93q17.25,5,26.51,17.11t9.27,28.44a56,56,0,0,1-6,25,50.35,50.35,0,0,1-16.34,19.44q-10.37,7.27-25.55,8.94-9.53,1-45.94,1.29H451.6Zm38.09,31.4v43.63h25q22.26,0,27.67-.64,9.78-1.15,15.38-6.76t5.6-14.73q0-8.76-4.83-14.22t-14.35-6.63q-5.67-.65-32.56-.65Zm0,75V577H525q20.59,0,26.13-1.16a23.55,23.55,0,0,0,13.83-7.53q5.34-6,5.35-16a24.65,24.65,0,0,0-4.12-14.41,23.28,23.28,0,0,0-11.91-8.62q-7.79-2.71-33.78-2.71Z"/><path class="cls-5" d="M684.28,608.81V452.06h-56V420.14H778.23v31.92H722.38V608.81Z"/></svg>