<svg id="Layer_1" data-name="Layer 1" xmlns="http://www.w3.org/2000/svg" viewBox="0 0 1080 1080"><defs><style>.cls-1{fill:#7f6127;}.cls-2,.cls-3{fill:none;}.cls-2{stroke:#231f20;stroke-miterlimit:10;stroke-width:0.5px;}.cls-4{fill:#fff;}.cls-5{fill:#231f20;}</style></defs><title>5th oder</title><rect class="cls-1" x="258.99" y="54.73" width="526.26" height="212.63"/><rect class="cls-1" x="258.99" y="761.72" width="526.26" height="212.63"/><polygon class="cls-2" points="785.25 761.54 258.99 761.72 258.99 267.36 785.25 267.36 785.25 761.54"/><rect class="cls-3" y="0.54" width="1080" height="1080"/><path class="cls-4" d="M344,859.29V809.18h37.15v8.48h-27v11.1h25.16v8.45H354.11v13.63h28v8.45Z"/><path class="cls-4" d="M390.79,859.29V809.18h9.84l20.51,33.46V809.18h9.4v50.11H420.39l-20.2-32.68v32.68Z"/><path class="cls-4" d="M441.2,809.18h18.49a36,36,0,0,1,9.54,1,16.65,16.65,0,0,1,7.55,4.61,22,22,0,0,1,4.79,8.12,37.07,37.07,0,0,1,1.64,11.84,32.84,32.84,0,0,1-1.54,10.67,22.06,22.06,0,0,1-5.37,8.85,17.77,17.77,0,0,1-7.1,4,30.88,30.88,0,0,1-9,1.06h-19Zm10.12,8.48v33.18h7.55a27.6,27.6,0,0,0,6.12-.47,9.41,9.41,0,0,0,4.09-2.09,10.59,10.59,0,0,0,2.64-4.83,32.49,32.49,0,0,0,1-9.18,29.65,29.65,0,0,0-1-8.92,11.47,11.47,0,0,0-2.87-4.86,9.64,9.64,0,0,0-4.68-2.36,47,47,0,0,0-8.3-.47Z"/><path class="cls-4" d="M511.17,809.18h10.12v27.14a56.54,56.54,0,0,0,.37,8.37,8.11,8.11,0,0,0,3.1,4.94,10.75,10.75,0,0,0,6.68,1.86c2.87,0,5-.58,6.49-1.76a6.9,6.9,0,0,0,2.63-4.32,55.71,55.71,0,0,0,.45-8.51V809.18h10.11V835.5q0,9-.82,12.75a14.06,14.06,0,0,1-3,6.29,15.25,15.25,0,0,1-5.9,4.08,25.72,25.72,0,0,1-9.64,1.52q-7.17,0-10.88-1.66a15.45,15.45,0,0,1-5.86-4.3,13.71,13.71,0,0,1-2.84-5.56,60.9,60.9,0,0,1-1-12.71Z"/><path class="cls-4" d="M559.22,843l9.85-1q.88,5,3.6,7.28a10.93,10.93,0,0,0,7.34,2.32c3.25,0,5.71-.69,7.36-2.07a6.16,6.16,0,0,0,2.48-4.83,4.59,4.59,0,0,0-1-3,8.44,8.44,0,0,0-3.64-2.17q-1.78-.62-8.1-2.19-8.15-2-11.42-5A13,13,0,0,1,561,822.3a12.88,12.88,0,0,1,2.17-7.16,13.54,13.54,0,0,1,6.25-5.07,25.1,25.1,0,0,1,9.86-1.74q9.43,0,14.2,4.13a14.61,14.61,0,0,1,5,11l-10.12.45a8.6,8.6,0,0,0-2.78-5.56c-1.43-1.13-3.56-1.69-6.41-1.69a11.52,11.52,0,0,0-6.9,1.81,3.64,3.64,0,0,0-1.61,3.11,3.84,3.84,0,0,0,1.5,3q1.92,1.61,9.3,3.35a49.07,49.07,0,0,1,10.92,3.61,14.12,14.12,0,0,1,5.54,5.09,15,15,0,0,1,2,8,14.75,14.75,0,0,1-2.4,8.07,14.32,14.32,0,0,1-6.76,5.59,28.38,28.38,0,0,1-10.91,1.83q-9.49,0-14.59-4.4T559.22,843Z"/><path class="cls-4" d="M608.48,859.29V809.18h37.15v8.48h-27v11.1h25.16v8.45H618.59v13.63h28v8.45Z"/><path class="cls-4" d="M655.2,859.29V809.18h21.3q8,0,11.67,1.35a11.56,11.56,0,0,1,5.83,4.8,14.52,14.52,0,0,1,2.18,7.9,13.36,13.36,0,0,1-3.31,9.31q-3.32,3.68-9.91,4.63a23.66,23.66,0,0,1,5.41,4.21,56.07,56.07,0,0,1,5.76,8.13l6.12,9.78h-12.1l-7.31-10.91A70.23,70.23,0,0,0,675.5,841a7.71,7.71,0,0,0-3-2.09,16.89,16.89,0,0,0-5.09-.56h-2v20.92Zm10.12-28.92h7.48q7.29,0,9.1-.61a5.46,5.46,0,0,0,2.83-2.12,6.5,6.5,0,0,0,1-3.76,6,6,0,0,0-1.35-4.09,6.21,6.21,0,0,0-3.81-2c-.82-.12-3.28-.17-7.39-.17h-7.89Z"/><path class="cls-4" d="M396.09,876.79h18.49a36.47,36.47,0,0,1,9.53,1,16.84,16.84,0,0,1,7.56,4.62,21.94,21.94,0,0,1,4.78,8.12,36.8,36.8,0,0,1,1.64,11.84A32.77,32.77,0,0,1,436.55,913a22.12,22.12,0,0,1-5.36,8.86,17.87,17.87,0,0,1-7.11,4,30.54,30.54,0,0,1-9,1.06h-19Zm10.11,8.47v33.19h7.56a27.41,27.41,0,0,0,6.11-.48,9.34,9.34,0,0,0,4.09-2.08,10.68,10.68,0,0,0,2.65-4.84,32.79,32.79,0,0,0,1-9.17,30.15,30.15,0,0,0-1-8.93,11.53,11.53,0,0,0-2.87-4.85,9.68,9.68,0,0,0-4.69-2.36,45.67,45.67,0,0,0-8.3-.48Z"/><path class="cls-4" d="M446.67,926.89v-50.1h37.15v8.47h-27v11.11h25.15v8.44H456.79v13.64h28v8.44Z"/><path class="cls-4" d="M506.14,926.89l-17.91-50.1h11l12.68,37.08,12.27-37.08h10.73l-17.95,50.1Z"/><path class="cls-4" d="M539.74,926.89v-50.1h10.12v50.1Z"/><path class="cls-4" d="M591.56,908.47l9.81,3.11q-2.26,8.2-7.5,12.19t-13.32,4a21.53,21.53,0,0,1-16.4-6.82q-6.43-6.82-6.43-18.64,0-12.51,6.46-19.44t17-6.92q9.2,0,14.93,5.44a19.76,19.76,0,0,1,5.13,9.23l-10,2.39a10.36,10.36,0,0,0-10.56-8.41,11.41,11.41,0,0,0-9,4q-3.47,4-3.46,12.95,0,9.51,3.41,13.54a11.1,11.1,0,0,0,8.89,4,10.13,10.13,0,0,0,6.94-2.56Q590.3,914,591.56,908.47Z"/><path class="cls-4" d="M610.05,926.89v-50.1H647.2v8.47h-27v11.11h25.15v8.44H620.17v13.64h28v8.44Z"/><path class="cls-4" d="M337.18,131.37l9.84-1q.89,5,3.61,7.28A10.88,10.88,0,0,0,358,140q4.89,0,7.36-2.07a6.13,6.13,0,0,0,2.48-4.83,4.59,4.59,0,0,0-1-3,8.44,8.44,0,0,0-3.64-2.17q-1.78-.61-8.1-2.19-8.14-2-11.42-5A13.06,13.06,0,0,1,339,110.7a12.89,12.89,0,0,1,2.17-7.17,13.59,13.59,0,0,1,6.25-5.07,25.13,25.13,0,0,1,9.86-1.74q9.44,0,14.21,4.13a14.63,14.63,0,0,1,5,11l-10.11.45q-.66-3.87-2.79-5.56t-6.41-1.69a11.52,11.52,0,0,0-6.9,1.81,3.66,3.66,0,0,0-1.61,3.11,3.84,3.84,0,0,0,1.5,3q1.92,1.61,9.3,3.35A49.6,49.6,0,0,1,370.38,120a14.06,14.06,0,0,1,5.54,5.09,15.78,15.78,0,0,1-.39,16.05,14.39,14.39,0,0,1-6.77,5.59,28.36,28.36,0,0,1-10.9,1.83q-9.51,0-14.6-4.4T337.18,131.37Z"/><path class="cls-4" d="M431.61,147.68h-11l-4.38-11.38h-20l-4.13,11.38H381.34l19.51-50.11h10.7ZM413,127.85l-6.91-18.59-6.76,18.59Z"/><path class="cls-4" d="M443.07,147.68V106.05H428.2V97.57H468v8.48H453.18v41.63Z"/><path class="cls-4" d="M474.54,147.68V97.57H511.7v8.48h-27v11.11h25.16v8.44H484.66v13.64h28v8.44Z"/><path class="cls-4" d="M521.51,147.68V98h10.11v41.26h25.16v8.44Z"/><path class="cls-4" d="M564.27,147.68V98h10.11v41.26h25.16v8.44Z"/><path class="cls-4" d="M606.44,147.68V97.57h10.12v50.11Z"/><path class="cls-4" d="M637.48,147.68V106.05H622.61V97.57h39.82v8.48H647.6v41.63Z"/><path class="cls-4" d="M669,147.68V97.57h37.15v8.48h-27v11.11h25.15v8.44H679.08v13.64h28v8.44Z"/><path class="cls-4" d="M316.53,224.52v-49.7h10.12v41.26h25.16v8.44Z"/><path class="cls-4" d="M357,199.77a31.81,31.81,0,0,1,2.29-12.85,23.65,23.65,0,0,1,4.66-6.87,19.45,19.45,0,0,1,6.48-4.51,27.52,27.52,0,0,1,10.8-2q11.07,0,17.72,6.87t6.65,19.1q0,12.14-6.6,19t-17.63,6.85q-11.18,0-17.78-6.82T357,199.77Zm10.42-.34c0,5.67,1.31,10,3.93,12.9a13.52,13.52,0,0,0,19.91,0q3.88-4.37,3.88-13.08t-3.78-12.85a14,14,0,0,0-20.11.05Q367.4,190.78,367.39,199.43Z"/><path class="cls-4" d="M424.74,224.52V182.89H409.88v-8.48H449.7v8.48H434.86v41.63Z"/><path class="cls-4" d="M475.64,174.41h18.49a36,36,0,0,1,9.54,1,16.7,16.7,0,0,1,7.55,4.61A21.8,21.8,0,0,1,516,188.1a36.77,36.77,0,0,1,1.65,11.84,33.11,33.11,0,0,1-1.54,10.67,22.17,22.17,0,0,1-5.37,8.85,17.75,17.75,0,0,1-7.11,4,30.81,30.81,0,0,1-8.95,1.06h-19Zm10.12,8.48v33.19h7.55a27.58,27.58,0,0,0,6.12-.48,9.31,9.31,0,0,0,4.08-2.09,10.6,10.6,0,0,0,2.65-4.83,32.86,32.86,0,0,0,1-9.18,30,30,0,0,0-1-8.92,11.47,11.47,0,0,0-2.87-4.86,9.63,9.63,0,0,0-4.68-2.35,45.8,45.8,0,0,0-8.31-.48Z"/><path class="cls-4" d="M526.22,224.52V174.41h37.16v8.48h-27V194H561.5v8.44H536.34v13.64h28v8.44Z"/><path class="cls-4" d="M585.7,224.52l-17.91-50.11h11l12.68,37.09,12.27-37.09h10.73L596.5,224.52Z"/><path class="cls-4" d="M619.3,224.52V174.41h10.11v50.11Z"/><path class="cls-4" d="M671.11,206.09l9.81,3.11q-2.25,8.2-7.5,12.19t-13.31,4a21.53,21.53,0,0,1-16.41-6.82q-6.42-6.81-6.43-18.64,0-12.51,6.46-19.43t17-6.92q9.19,0,14.94,5.43a19.66,19.66,0,0,1,5.12,9.23l-10,2.39a10.36,10.36,0,0,0-10.56-8.41,11.41,11.41,0,0,0-9,4q-3.46,4-3.47,13,0,9.5,3.42,13.53a11.09,11.09,0,0,0,8.88,4,10.13,10.13,0,0,0,6.94-2.56Q669.85,211.59,671.11,206.09Z"/><path class="cls-4" d="M689.6,224.52V174.41h37.16v8.48h-27V194h25.16v8.44H699.72v13.64h28v8.44Z"/><path class="cls-5" d="M269.53,546.45l36.26-3.52q3.29,18.26,13.29,26.82t27,8.56q18,0,27.14-7.62t9.13-17.81a16.82,16.82,0,0,0-3.84-11.15q-3.84-4.59-13.41-8-6.56-2.28-29.85-8.06-30-7.42-42.06-18.26-17-15.24-17-37.15a47.38,47.38,0,0,1,8-26.38q8-12.28,23-18.71t36.33-6.42q34.76,0,52.33,15.24t18.44,40.67l-37.27,1.64q-2.4-14.22-10.26-20.46t-23.62-6.24q-16.24,0-25.43,6.68a13.44,13.44,0,0,0-5.92,11.46A14.16,14.16,0,0,0,317.38,479q7,5.91,34.25,12.34t40.24,13.28a51.89,51.89,0,0,1,20.4,18.76q7.37,11.91,7.36,29.41a54.4,54.4,0,0,1-8.81,29.72,52.8,52.8,0,0,1-24.94,20.59q-16.11,6.74-40.17,6.74-35,0-53.77-16.19T269.53,546.45Z"/><path class="cls-5" d="M620,421.91h68.13q23,0,35.13,3.53a61.74,61.74,0,0,1,27.84,17,80.65,80.65,0,0,1,17.63,29.91q6,17.68,6,43.63,0,22.8-5.67,39.29-6.91,20.15-19.77,32.62-9.69,9.43-26.19,14.73-12.35,3.9-33,3.9H620Zm37.28,31.23V575.42h27.83q15.62,0,22.54-1.76a34.45,34.45,0,0,0,15-7.69q6-5.41,9.76-17.81t3.78-33.82q0-21.41-3.78-32.87t-10.58-17.88a35.49,35.49,0,0,0-17.25-8.69q-7.82-1.75-30.6-1.76Z"/><path class="cls-5" d="M437.55,610.32V422.07h46.67V578.34h116v32Z"/></svg>