<svg id="Layer_1" data-name="Layer 1" xmlns="http://www.w3.org/2000/svg" viewBox="0 0 1080 1080"><defs><style>.cls-1{fill:#7f6127;}.cls-2,.cls-3{fill:none;}.cls-2{stroke:#231f20;stroke-miterlimit:10;stroke-width:0.5px;}.cls-4{fill:#fff;}.cls-5{fill:#231f20;}</style></defs><title>5th oder</title><rect class="cls-1" x="258.99" y="54.73" width="526.26" height="212.63"/><rect class="cls-1" x="258.99" y="761.72" width="526.26" height="212.63"/><polygon class="cls-2" points="785.25 761.3 258.99 761.49 258.99 267.13 785.25 267.13 785.25 761.3"/><rect class="cls-3" y="0.54" width="1080" height="1080"/><path class="cls-4" d="M344,859.29V809.18h37.15v8.48h-27v11.1h25.16v8.45H354.11v13.63h28v8.45Z"/><path class="cls-4" d="M390.79,859.29V809.18h9.84l20.51,33.46V809.18h9.4v50.11H420.39l-20.2-32.68v32.68Z"/><path class="cls-4" d="M441.2,809.18h18.49a36,36,0,0,1,9.54,1,16.65,16.65,0,0,1,7.55,4.61,22,22,0,0,1,4.79,8.12,37.07,37.07,0,0,1,1.64,11.84,32.84,32.84,0,0,1-1.54,10.67,22.06,22.06,0,0,1-5.37,8.85,17.77,17.77,0,0,1-7.1,4,30.88,30.88,0,0,1-9,1.06h-19Zm10.12,8.48v33.18h7.55a27.6,27.6,0,0,0,6.12-.47,9.41,9.41,0,0,0,4.09-2.09,10.59,10.59,0,0,0,2.64-4.83,32.49,32.49,0,0,0,1-9.18,29.65,29.65,0,0,0-1-8.92,11.47,11.47,0,0,0-2.87-4.86,9.64,9.64,0,0,0-4.68-2.36,47,47,0,0,0-8.3-.47Z"/><path class="cls-4" d="M511.17,809.18h10.12v27.14a56.54,56.54,0,0,0,.37,8.37,8.11,8.11,0,0,0,3.1,4.94,10.75,10.75,0,0,0,6.68,1.86c2.87,0,5-.58,6.49-1.76a6.9,6.9,0,0,0,2.63-4.32,55.71,55.71,0,0,0,.45-8.51V809.18h10.11V835.5q0,9-.82,12.75a14.06,14.06,0,0,1-3,6.29,15.25,15.25,0,0,1-5.9,4.08,25.72,25.72,0,0,1-9.64,1.52q-7.17,0-10.88-1.66a15.45,15.45,0,0,1-5.86-4.3,13.71,13.71,0,0,1-2.84-5.56,60.9,60.9,0,0,1-1-12.71Z"/><path class="cls-4" d="M559.22,843l9.85-1q.88,5,3.6,7.28a10.93,10.93,0,0,0,7.34,2.32c3.25,0,5.71-.69,7.36-2.07a6.16,6.16,0,0,0,2.48-4.83,4.59,4.59,0,0,0-1-3,8.44,8.44,0,0,0-3.64-2.17q-1.78-.62-8.1-2.19-8.15-2-11.42-5A13,13,0,0,1,561,822.3a12.88,12.88,0,0,1,2.17-7.16,13.54,13.54,0,0,1,6.25-5.07,25.1,25.1,0,0,1,9.86-1.74q9.43,0,14.2,4.13a14.61,14.61,0,0,1,5,11l-10.12.45a8.6,8.6,0,0,0-2.78-5.56c-1.43-1.13-3.56-1.69-6.41-1.69a11.52,11.52,0,0,0-6.9,1.81,3.64,3.64,0,0,0-1.61,3.11,3.84,3.84,0,0,0,1.5,3q1.92,1.61,9.3,3.35a49.07,49.07,0,0,1,10.92,3.61,14.12,14.12,0,0,1,5.54,5.09,15,15,0,0,1,2,8,14.75,14.75,0,0,1-2.4,8.07,14.32,14.32,0,0,1-6.76,5.59,28.38,28.38,0,0,1-10.91,1.83q-9.49,0-14.59-4.4T559.22,843Z"/><path class="cls-4" d="M608.48,859.29V809.18h37.15v8.48h-27v11.1h25.16v8.45H618.59v13.63h28v8.45Z"/><path class="cls-4" d="M655.2,859.29V809.18h21.3q8,0,11.67,1.35a11.56,11.56,0,0,1,5.83,4.8,14.52,14.52,0,0,1,2.18,7.9,13.36,13.36,0,0,1-3.31,9.31q-3.32,3.68-9.91,4.63a23.66,23.66,0,0,1,5.41,4.21,56.07,56.07,0,0,1,5.76,8.13l6.12,9.78h-12.1l-7.31-10.91A70.23,70.23,0,0,0,675.5,841a7.71,7.71,0,0,0-3-2.09,16.89,16.89,0,0,0-5.09-.56h-2v20.92Zm10.12-28.92h7.48q7.29,0,9.1-.61a5.46,5.46,0,0,0,2.83-2.12,6.5,6.5,0,0,0,1-3.76,6,6,0,0,0-1.35-4.09,6.21,6.21,0,0,0-3.81-2c-.82-.12-3.28-.17-7.39-.17h-7.89Z"/><path class="cls-4" d="M396.09,876.79h18.49a36.47,36.47,0,0,1,9.53,1,16.84,16.84,0,0,1,7.56,4.62,21.94,21.94,0,0,1,4.78,8.12,36.8,36.8,0,0,1,1.64,11.84A32.77,32.77,0,0,1,436.55,913a22.12,22.12,0,0,1-5.36,8.86,17.87,17.87,0,0,1-7.11,4,30.54,30.54,0,0,1-9,1.06h-19Zm10.11,8.47v33.19h7.56a27.41,27.41,0,0,0,6.11-.48,9.34,9.34,0,0,0,4.09-2.08,10.68,10.68,0,0,0,2.65-4.84,32.79,32.79,0,0,0,1-9.17,30.15,30.15,0,0,0-1-8.93,11.53,11.53,0,0,0-2.87-4.85,9.68,9.68,0,0,0-4.69-2.36,45.67,45.67,0,0,0-8.3-.48Z"/><path class="cls-4" d="M446.67,926.89v-50.1h37.15v8.47h-27v11.11h25.15v8.44H456.79v13.64h28v8.44Z"/><path class="cls-4" d="M506.14,926.89l-17.91-50.1h11l12.68,37.08,12.27-37.08h10.73l-17.95,50.1Z"/><path class="cls-4" d="M539.74,926.89v-50.1h10.12v50.1Z"/><path class="cls-4" d="M591.56,908.47l9.81,3.11q-2.26,8.2-7.5,12.19t-13.32,4a21.53,21.53,0,0,1-16.4-6.82q-6.43-6.82-6.43-18.64,0-12.51,6.46-19.44t17-6.92q9.2,0,14.93,5.44a19.76,19.76,0,0,1,5.13,9.23l-10,2.39a10.36,10.36,0,0,0-10.56-8.41,11.41,11.41,0,0,0-9,4q-3.47,4-3.46,12.95,0,9.51,3.41,13.54a11.1,11.1,0,0,0,8.89,4,10.13,10.13,0,0,0,6.94-2.56Q590.3,914,591.56,908.47Z"/><path class="cls-4" d="M610.05,926.89v-50.1H647.2v8.47h-27v11.11h25.15v8.44H620.17v13.64h28v8.44Z"/><path class="cls-4" d="M280.22,107.69v-5.9h15.27v14a19.4,19.4,0,0,1-6.45,3.79,23.55,23.55,0,0,1-8.55,1.64,19.22,19.22,0,0,1-9.6-2.31,14.7,14.7,0,0,1-6.14-6.6,21.26,21.26,0,0,1-2.06-9.35A20.07,20.07,0,0,1,265,93.2a15.42,15.42,0,0,1,6.72-6.53,18.06,18.06,0,0,1,8.39-1.75q6.54,0,10.21,2.74A12.36,12.36,0,0,1,295,95.23l-7,1.32a7.38,7.38,0,0,0-2.79-4.08A8.39,8.39,0,0,0,280.1,91a9.61,9.61,0,0,0-7.38,2.94q-2.73,3-2.73,8.74,0,6.24,2.77,9.36a9.26,9.26,0,0,0,7.27,3.12,12.19,12.19,0,0,0,4.46-.87,14.91,14.91,0,0,0,3.84-2.12v-4.45Z"/><path class="cls-4" d="M302.21,120.59V85.81h7.08v28.87H326.9v5.91Z"/><path class="cls-4" d="M330.51,103.27a22.34,22.34,0,0,1,1.6-9,16.48,16.48,0,0,1,3.27-4.8,13.59,13.59,0,0,1,4.53-3.16,19.13,19.13,0,0,1,7.56-1.39q7.75,0,12.4,4.81t4.66,13.37q0,8.49-4.62,13.29t-12.35,4.8q-7.81,0-12.43-4.78T330.51,103.27Zm7.29-.24q0,6,2.76,9a9.46,9.46,0,0,0,13.93,0q2.72-3,2.72-9.15c0-4-.89-7-2.65-9a9.79,9.79,0,0,0-14.08,0C338.7,96,337.8,99,337.8,103Z"/><path class="cls-4" d="M370.08,85.52h14a39.26,39.26,0,0,1,6.21.35A9.07,9.07,0,0,1,394,87.31a8.94,8.94,0,0,1,2.69,2.93,7.93,7.93,0,0,1,1.08,4.11,8.3,8.3,0,0,1-4.93,7.6,9.27,9.27,0,0,1,4.93,3.18,8.45,8.45,0,0,1,1.72,5.29,10.39,10.39,0,0,1-1.11,4.65,9.31,9.31,0,0,1-3,3.62,10.07,10.07,0,0,1-4.75,1.66c-1.18.13-4,.21-8.54.24H370.08Zm7.08,5.84v8.1h4.64c2.76,0,4.47,0,5.14-.11a4.74,4.74,0,0,0,2.86-1.26,3.72,3.72,0,0,0,1-2.74,3.84,3.84,0,0,0-.9-2.64,4,4,0,0,0-2.66-1.24c-.71-.07-2.72-.11-6.06-.11Zm0,13.94v9.38h6.55a31,31,0,0,0,4.86-.22,4.13,4.13,0,0,0,3.56-4.37,4.55,4.55,0,0,0-.76-2.68,4.33,4.33,0,0,0-2.22-1.61,24.25,24.25,0,0,0-6.28-.5Z"/><path class="cls-4" d="M437.06,120.59h-7.71l-3.06-8h-14l-2.89,8h-7.51l13.66-35.07H423Zm-13-13.88-4.83-13-4.74,13Z"/><path class="cls-4" d="M441,120.59V85.81h7.09v28.87h17.6v5.91Z"/><path class="cls-4" d="M488.82,120.59V85.52h6.89l14.35,23.42V85.52h6.58v35.07h-7.1L495.4,97.72v22.87Z"/><path class="cls-4" d="M555.76,120.59h-7.71l-3.06-8H531l-2.89,8h-7.51l13.66-35.07h7.48Zm-13-13.88-4.83-13-4.74,13Z"/><path class="cls-4" d="M564.82,120.59,552.29,85.52H560l8.87,26,8.59-25.95h7.51l-12.56,35.07Z"/><path class="cls-4" d="M588.34,120.59V85.52h7.08v35.07Z"/><path class="cls-4" d="M618.48,107.69v-5.9h15.26v14a19.19,19.19,0,0,1-6.45,3.79,23.47,23.47,0,0,1-8.55,1.64,19.18,19.18,0,0,1-9.59-2.31,14.67,14.67,0,0,1-6.15-6.6,21.4,21.4,0,0,1-2.06-9.35,20.18,20.18,0,0,1,2.3-9.73A15.42,15.42,0,0,1,610,86.67a18.08,18.08,0,0,1,8.4-1.75q6.52,0,10.2,2.74a12.42,12.42,0,0,1,4.73,7.57l-7,1.32a7.37,7.37,0,0,0-2.78-4.08,8.43,8.43,0,0,0-5.11-1.5A9.61,9.61,0,0,0,611,93.91q-2.75,3-2.74,8.74,0,6.24,2.78,9.36a9.25,9.25,0,0,0,7.27,3.12,12.23,12.23,0,0,0,4.46-.87,15.25,15.25,0,0,0,3.84-2.12v-4.45Z"/><path class="cls-4" d="M671.9,120.59h-7.71l-3.06-8h-14l-2.89,8h-7.51l13.66-35.07h7.48Zm-13-13.88L654,93.7l-4.74,13Z"/><path class="cls-4" d="M679.91,120.59V91.45H669.5V85.52h27.87v5.93H687v29.14Z"/><path class="cls-4" d="M701.73,120.59V85.52h7.08v35.07Z"/><path class="cls-4" d="M714.12,103.27a22.34,22.34,0,0,1,1.6-9,16.48,16.48,0,0,1,3.27-4.8,13.59,13.59,0,0,1,4.53-3.16,19.2,19.2,0,0,1,7.56-1.39q7.75,0,12.4,4.81t4.66,13.37q0,8.49-4.62,13.29t-12.34,4.8q-7.83,0-12.44-4.78T714.12,103.27Zm7.3-.24c0,4,.91,7,2.75,9a9,9,0,0,0,7,3.07,8.86,8.86,0,0,0,7-3q2.71-3,2.72-9.15c0-4-.88-7-2.65-9a9.78,9.78,0,0,0-14.07,0C722.31,96,721.42,99,721.42,103Z"/><path class="cls-4" d="M753.73,120.59V85.52h6.89L775,108.94V85.52h6.58v35.07h-7.11L760.31,97.72v22.87Z"/><path class="cls-4" d="M276.32,165.8l7.14-.69a8.71,8.71,0,0,0,2.62,5.28,7.88,7.88,0,0,0,5.32,1.69,8.17,8.17,0,0,0,5.34-1.5,4.46,4.46,0,0,0,1.8-3.51,3.31,3.31,0,0,0-.76-2.2,6.06,6.06,0,0,0-2.64-1.57q-1.29-.45-5.87-1.59-5.91-1.46-8.29-3.59a9.46,9.46,0,0,1-3.34-7.32,9.32,9.32,0,0,1,1.57-5.19,9.83,9.83,0,0,1,4.54-3.68,18,18,0,0,1,7.15-1.27q6.86,0,10.31,3a10.62,10.62,0,0,1,3.63,8l-7.34.32a6.3,6.3,0,0,0-2-4,7.48,7.48,0,0,0-4.65-1.22,8.45,8.45,0,0,0-5,1.31,2.65,2.65,0,0,0-1.17,2.26,2.78,2.78,0,0,0,1.1,2.2q1.38,1.17,6.74,2.43a35.94,35.94,0,0,1,7.92,2.62,10.24,10.24,0,0,1,4,3.69,10.82,10.82,0,0,1,1.45,5.79,10.7,10.7,0,0,1-1.74,5.86,10.36,10.36,0,0,1-4.91,4,20.64,20.64,0,0,1-7.91,1.33q-6.88,0-10.58-3.19T276.32,165.8Z"/><path class="cls-4" d="M344.83,177.63h-8l-3.17-8.25H319.15l-3,8.25h-7.78l14.16-36.35h7.76Zm-13.51-14.38-5-13.49-4.91,13.49Z"/><path class="cls-4" d="M353.14,177.63v-30.2H342.35v-6.15h28.89v6.15H360.48v30.2Z"/><path class="cls-4" d="M376,177.63V141.28h26.95v6.15H383.32v8.06h18.25v6.12H383.32v9.9h20.3v6.12Z"/><path class="cls-4" d="M410.05,177.63v-36h7.34v29.93h18.24v6.12Z"/><path class="cls-4" d="M441.07,177.63v-36h7.33v29.93h18.25v6.12Z"/><path class="cls-4" d="M471.66,177.63V141.28H479v36.35Z"/><path class="cls-4" d="M494.18,177.63v-30.2H483.39v-6.15h28.89v6.15H501.52v30.2Z"/><path class="cls-4" d="M517,177.63V141.28h27v6.15H524.35v8.06H542.6v6.12H524.35v9.9h20.31v6.12Z"/><path class="cls-4" d="M564.55,165.8l7.14-.69a8.66,8.66,0,0,0,2.62,5.28,7.85,7.85,0,0,0,5.31,1.69,8.19,8.19,0,0,0,5.35-1.5,4.46,4.46,0,0,0,1.8-3.51,3.36,3.36,0,0,0-.76-2.2,6.18,6.18,0,0,0-2.64-1.57q-1.29-.45-5.88-1.59-5.9-1.46-8.28-3.59a9.47,9.47,0,0,1-3.35-7.32,9.33,9.33,0,0,1,1.58-5.19,9.85,9.85,0,0,1,4.53-3.68,18.09,18.09,0,0,1,7.16-1.27q6.84,0,10.3,3a10.55,10.55,0,0,1,3.63,8l-7.34.32a6.21,6.21,0,0,0-2-4,7.44,7.44,0,0,0-4.65-1.22,8.39,8.39,0,0,0-5,1.31,2.65,2.65,0,0,0-1.17,2.26,2.77,2.77,0,0,0,1.09,2.2c.93.78,3.17,1.59,6.75,2.43a35.94,35.94,0,0,1,7.92,2.62,10.15,10.15,0,0,1,4,3.69,10.82,10.82,0,0,1,1.46,5.79,10.7,10.7,0,0,1-1.74,5.86,10.41,10.41,0,0,1-4.91,4,20.67,20.67,0,0,1-7.91,1.33q-6.9,0-10.59-3.19T564.55,165.8Z"/><path class="cls-4" d="M609.83,177.63v-15.3l-13.32-21.05h8.6l8.56,14.38,8.38-14.38h8.46l-13.37,21.1v15.25Z"/><path class="cls-4" d="M632.29,165.8l7.14-.69a8.66,8.66,0,0,0,2.62,5.28,7.86,7.86,0,0,0,5.32,1.69,8.17,8.17,0,0,0,5.34-1.5,4.46,4.46,0,0,0,1.8-3.51,3.31,3.31,0,0,0-.76-2.2,6.06,6.06,0,0,0-2.64-1.57q-1.29-.45-5.88-1.59-5.9-1.46-8.28-3.59a9.47,9.47,0,0,1-3.35-7.32,9.33,9.33,0,0,1,1.58-5.19,9.83,9.83,0,0,1,4.54-3.68,18,18,0,0,1,7.15-1.27q6.84,0,10.3,3a10.6,10.6,0,0,1,3.64,8l-7.34.32a6.3,6.3,0,0,0-2-4,7.48,7.48,0,0,0-4.65-1.22,8.4,8.4,0,0,0-5,1.31,2.65,2.65,0,0,0-1.17,2.26,2.8,2.8,0,0,0,1.09,2.2q1.39,1.17,6.75,2.43a35.94,35.94,0,0,1,7.92,2.62,10.24,10.24,0,0,1,4,3.69,10.91,10.91,0,0,1,1.45,5.79,10.7,10.7,0,0,1-1.74,5.86,10.41,10.41,0,0,1-4.91,4,20.64,20.64,0,0,1-7.91,1.33q-6.88,0-10.59-3.19T632.29,165.8Z"/><path class="cls-4" d="M676.2,177.63v-30.2H665.42v-6.15H694.3v6.15H683.54v30.2Z"/><path class="cls-4" d="M699,177.63V141.28h27v6.15H706.38v8.06h18.25v6.12H706.38v9.9h20.31v6.12Z"/><path class="cls-4" d="M732.81,177.63V141.28h11l6.59,24.8,6.52-24.8h11v36.35H761.1V149l-7.21,28.61h-7.07L739.63,149v28.61Z"/><path class="cls-4" d="M394.31,236.55V200.2h15.45c3.89,0,6.71.32,8.47,1a8.34,8.34,0,0,1,4.23,3.48,10.54,10.54,0,0,1,1.58,5.73,9.68,9.68,0,0,1-2.4,6.75,11.54,11.54,0,0,1-7.19,3.36,17.77,17.77,0,0,1,3.93,3.05,42.48,42.48,0,0,1,4.18,5.91l4.43,7.09h-8.77l-5.31-7.91a50.15,50.15,0,0,0-3.87-5.35,5.65,5.65,0,0,0-2.2-1.51,12.22,12.22,0,0,0-3.7-.41h-1.49v15.18Zm7.34-21h5.43a27.89,27.89,0,0,0,6.6-.45,4,4,0,0,0,2.06-1.53,4.79,4.79,0,0,0,.74-2.73,4.37,4.37,0,0,0-1-3,4.45,4.45,0,0,0-2.76-1.43c-.6-.08-2.38-.12-5.36-.12h-5.73Z"/><path class="cls-4" d="M431,236.55V200.2h27v6.15H438.3v8.06h18.25v6.12H438.3v9.89h20.31v6.13Z"/><path class="cls-4" d="M488.09,223.18l7.12,2.26q-1.63,6-5.45,8.84a17.12,17.12,0,0,1-21.56-2.06q-4.65-5-4.66-13.53,0-9.08,4.69-14.09a16,16,0,0,1,12.32-5,15.12,15.12,0,0,1,10.84,3.94,14.41,14.41,0,0,1,3.72,6.69L487.84,212a7.52,7.52,0,0,0-7.66-6.1,8.3,8.3,0,0,0-6.56,2.9c-1.68,1.94-2.51,5.07-2.51,9.4q0,6.89,2.48,9.82a8,8,0,0,0,6.44,2.92,7.38,7.38,0,0,0,5-1.86A10.82,10.82,0,0,0,488.09,223.18Z"/><path class="cls-4" d="M501.51,236.55V200.2h27v6.15H508.84v8.06h18.25v6.12H508.84v9.89h20.31v6.13Z"/><path class="cls-4" d="M535.15,236.55V200.2h7.34v36.35Z"/><path class="cls-4" d="M558.76,236.55l-13-36.35h8l9.2,26.9,8.91-26.9h7.78l-13,36.35Z"/><path class="cls-4" d="M583.36,236.55V200.2h26.95v6.15H590.69v8.06h18.25v6.12H590.69v9.89H611v6.13Z"/><path class="cls-4" d="M617.25,236.55V200.2H632.7c3.88,0,6.71.32,8.47,1a8.28,8.28,0,0,1,4.22,3.48,10.46,10.46,0,0,1,1.59,5.73,9.68,9.68,0,0,1-2.4,6.75,11.54,11.54,0,0,1-7.19,3.36,17.77,17.77,0,0,1,3.93,3.05,41.78,41.78,0,0,1,4.17,5.91l4.44,7.09h-8.78l-5.3-7.91a53.31,53.31,0,0,0-3.87-5.35,5.61,5.61,0,0,0-2.21-1.51,12.14,12.14,0,0,0-3.69-.41h-1.49v15.18Zm7.34-21H630a27.89,27.89,0,0,0,6.6-.45,3.92,3.92,0,0,0,2-1.53,4.72,4.72,0,0,0,.75-2.73,4.37,4.37,0,0,0-1-3,4.47,4.47,0,0,0-2.77-1.43c-.59-.08-2.38-.12-5.35-.12h-5.73Z"/><path class="cls-5" d="M315,528.35V510.42h46.3v42.39q-6.75,6.53-19.56,11.5a71.08,71.08,0,0,1-26,5q-16.69,0-29.1-7a44.57,44.57,0,0,1-18.65-20,64.72,64.72,0,0,1-6.24-28.34q0-16.62,7-29.54a47,47,0,0,1,20.4-19.82q10.23-5.3,25.47-5.29,19.81,0,31,8.31t14.33,23l-21.34,4a22.52,22.52,0,0,0-8.45-12.37q-6.21-4.55-15.5-4.54-14.08,0-22.39,8.93T283.92,513q0,18.94,8.42,28.41t22.06,9.47a36.92,36.92,0,0,0,13.54-2.65,46.11,46.11,0,0,0,11.65-6.42v-13.5Z"/><path class="cls-5" d="M381.32,567.47V461.07h20.9l43.55,71.05V461.07h20v106.4H444.17l-42.89-69.38v69.38Z"/><path class="cls-5" d="M483,532.85l20.91-2q1.88,10.53,7.65,15.46t15.57,4.93q10.38,0,15.64-4.39T548,536.55a9.72,9.72,0,0,0-2.21-6.42q-2.22-2.65-7.73-4.61-3.78-1.31-17.2-4.64-17.28-4.29-24.24-10.53-9.79-8.78-9.8-21.41a27.34,27.34,0,0,1,4.61-15.2A28.85,28.85,0,0,1,504.74,463q8.67-3.7,20.94-3.7,20,0,30.16,8.78t10.63,23.44l-21.49.94c-.91-5.46-2.89-9.39-5.91-11.79S531.51,477,525.46,477q-9.36,0-14.66,3.84a7.77,7.77,0,0,0-3.41,6.61,8.16,8.16,0,0,0,3.19,6.46q4.06,3.41,19.74,7.11t23.19,7.66a29.9,29.9,0,0,1,11.76,10.81q4.25,6.87,4.25,17a31.38,31.38,0,0,1-5.08,17.13,30.5,30.5,0,0,1-14.37,11.87q-9.3,3.87-23.16,3.88-20.17,0-31-9.33T483,532.85Z"/><path class="cls-5" d="M582.14,532.85l20.91-2q1.88,10.53,7.65,15.46t15.57,4.93q10.38,0,15.64-4.39t5.26-10.27a9.67,9.67,0,0,0-2.21-6.42q-2.22-2.65-7.73-4.61-3.76-1.31-17.2-4.64-17.28-4.29-24.24-10.53-9.79-8.78-9.8-21.41a27.34,27.34,0,0,1,4.61-15.2A28.85,28.85,0,0,1,603.88,463q8.67-3.7,20.94-3.7,20,0,30.16,8.78t10.63,23.44l-21.48.94q-1.38-8.19-5.92-11.79T624.6,477q-9.36,0-14.66,3.84a7.77,7.77,0,0,0-3.41,6.61,8.16,8.16,0,0,0,3.19,6.46q4.06,3.41,19.75,7.11t23.18,7.66a29.9,29.9,0,0,1,11.76,10.81q4.25,6.87,4.25,17a31.38,31.38,0,0,1-5.08,17.13,30.5,30.5,0,0,1-14.37,11.87q-9.3,3.87-23.16,3.88-20.17,0-31-9.33T582.14,532.85Z"/><path class="cls-5" d="M686.8,567.47V461.07H732q17.06,0,24.78,2.87a24.46,24.46,0,0,1,12.38,10.19,30.73,30.73,0,0,1,4.64,16.77q0,12-7,19.78t-21,9.83a50.4,50.4,0,0,1,11.5,8.93q4.53,4.86,12.23,17.27l13,20.76H756.77l-15.53-23.15Q733,531.9,729.91,528.68a16.49,16.49,0,0,0-6.46-4.43q-3.41-1.2-10.81-1.2h-4.35v44.42Zm21.49-61.4h15.89q15.47,0,19.31-1.31a11.56,11.56,0,0,0,6-4.5,13.84,13.84,0,0,0,2.18-8,12.76,12.76,0,0,0-2.87-8.67,13.17,13.17,0,0,0-8.09-4.18q-2.61-.36-15.68-.36H708.29Z"/></svg>