<svg id="Layer_1" data-name="Layer 1" xmlns="http://www.w3.org/2000/svg" viewBox="0 0 1080 1080"><defs><style>.cls-1{fill:#7c287d;}.cls-2,.cls-5{fill:none;}.cls-2{stroke:#231f20;stroke-miterlimit:10;stroke-width:0.5px;}.cls-3{fill:#fff;}.cls-4{fill:#231f20;}</style></defs><title>MITRE ATT&amp;amp;C</title><rect class="cls-1" x="280.36" y="68.24" width="526.26" height="212.63"/><rect class="cls-1" x="280.36" y="775.23" width="526.26" height="212.63"/><polygon class="cls-2" points="806.62 775.05 280.36 775.23 280.36 280.87 806.62 280.87 806.62 775.05"/><path class="cls-3" d="M394.09,118.74l9.81,3.11Q401.64,130,396.39,134t-13.31,4a21.53,21.53,0,0,1-16.4-6.82q-6.44-6.81-6.43-18.64,0-12.51,6.46-19.43t17-6.92q9.19,0,14.93,5.43a19.76,19.76,0,0,1,5.13,9.23l-10,2.39a10.36,10.36,0,0,0-10.57-8.41,11.44,11.44,0,0,0-9,4q-3.47,4-3.47,13,0,9.49,3.42,13.53a11.1,11.1,0,0,0,8.89,4,10.14,10.14,0,0,0,6.94-2.57Q392.82,124.24,394.09,118.74Z"/><path class="cls-3" d="M410.53,112.41a31.81,31.81,0,0,1,2.29-12.85,23.65,23.65,0,0,1,4.66-6.87A19.45,19.45,0,0,1,424,88.18a27.52,27.52,0,0,1,10.8-2q11.07,0,17.72,6.87t6.65,19.1q0,12.14-6.6,19T434.9,138q-11.17,0-17.78-6.82T410.53,112.41Zm10.42-.34c0,5.67,1.31,10,3.93,12.9a13.5,13.5,0,0,0,19.91,0q3.88-4.37,3.88-13.08T444.9,99.08a14,14,0,0,0-20.12,0Q421,103.42,421,112.07Z"/><path class="cls-3" d="M466.89,137.16V87.05H482l9.09,34.18,9-34.18h15.18v50.11h-9.4V97.71l-9.95,39.45H486.2l-9.91-39.45v39.45Z"/><path class="cls-3" d="M525.2,137.16V87.05h15.14l9.09,34.18,9-34.18H573.6v50.11h-9.4V97.71l-10,39.45h-9.74L534.6,97.71v39.45Z"/><path class="cls-3" d="M628.83,137.16h-11l-4.38-11.38h-20l-4.13,11.38H578.56l19.51-50.11h10.7Zm-18.62-19.83L603.3,98.74l-6.77,18.59Z"/><path class="cls-3" d="M634.3,137.16V87.05h9.85l20.5,33.46V87.05h9.4v50.11H663.9l-20.2-32.68v32.68Z"/><path class="cls-3" d="M684.72,87.05h18.49a35.91,35.91,0,0,1,9.53,1,16.74,16.74,0,0,1,7.56,4.61,21.94,21.94,0,0,1,4.78,8.12,36.8,36.8,0,0,1,1.64,11.84,33.13,33.13,0,0,1-1.53,10.67,22.28,22.28,0,0,1-5.37,8.85,17.75,17.75,0,0,1-7.11,4,30.46,30.46,0,0,1-9,1.06h-19Zm10.11,8.48v33.19h7.56a27.58,27.58,0,0,0,6.12-.48,9.31,9.31,0,0,0,4.08-2.09,10.6,10.6,0,0,0,2.65-4.83,32.86,32.86,0,0,0,1-9.18,30,30,0,0,0-1-8.92,11.47,11.47,0,0,0-2.87-4.86A9.63,9.63,0,0,0,707.69,96a45.88,45.88,0,0,0-8.31-.48Z"/><path class="cls-3" d="M519.68,202.92h-11l-4.38-11.38h-20l-4.14,11.38H469.4l19.52-50.11h10.7ZM501.05,183.1l-6.9-18.6-6.77,18.6Z"/><path class="cls-3" d="M525.15,202.92V152.81H535l20.51,33.47V152.81h9.4v50.11H554.75l-20.2-32.67v32.67Z"/><path class="cls-3" d="M575.56,152.81h18.5a36,36,0,0,1,9.53,1,16.84,16.84,0,0,1,7.56,4.62,21.89,21.89,0,0,1,4.78,8.11,37.14,37.14,0,0,1,1.64,11.85A32.77,32.77,0,0,1,616,189a22,22,0,0,1-5.36,8.85,17.77,17.77,0,0,1-7.11,4,30.54,30.54,0,0,1-9,1.06h-19Zm10.12,8.48v33.19h7.56a27.41,27.41,0,0,0,6.11-.48,9.34,9.34,0,0,0,4.09-2.08,10.73,10.73,0,0,0,2.65-4.84,32.82,32.82,0,0,0,1-9.18,30.12,30.12,0,0,0-1-8.92,11.53,11.53,0,0,0-2.87-4.85,9.68,9.68,0,0,0-4.69-2.36,45.67,45.67,0,0,0-8.3-.48Z"/><path class="cls-3" d="M407,250.26l9.81,3.11q-2.26,8.2-7.5,12.19t-13.32,4a21.53,21.53,0,0,1-16.4-6.82q-6.44-6.81-6.43-18.64,0-12.51,6.46-19.44t17-6.92q9.19,0,14.93,5.44a19.76,19.76,0,0,1,5.13,9.23l-10,2.39a10.36,10.36,0,0,0-10.57-8.41,11.4,11.4,0,0,0-9,4q-3.46,4-3.47,12.95,0,9.51,3.42,13.54a11.1,11.1,0,0,0,8.89,4,10.13,10.13,0,0,0,6.94-2.56Q405.74,255.77,407,250.26Z"/><path class="cls-3" d="M423.45,243.94a31.81,31.81,0,0,1,2.29-12.85,23.65,23.65,0,0,1,4.66-6.87,19.45,19.45,0,0,1,6.48-4.51,27.34,27.34,0,0,1,10.8-2q11.07,0,17.72,6.87t6.65,19.11q0,12.13-6.6,19t-17.63,6.85q-11.18,0-17.78-6.82T423.45,243.94Zm10.42-.34q0,8.51,3.93,12.9a13.52,13.52,0,0,0,19.91,0q3.89-4.37,3.88-13.08t-3.77-12.85a14,14,0,0,0-20.12,0Q433.88,235,433.87,243.6Z"/><path class="cls-3" d="M480.05,268.69V218.58h9.84L510.4,252V218.58h9.4v50.11H509.65L489.45,236v32.68Z"/><path class="cls-3" d="M541.78,268.69V227.05H526.91v-8.47h39.82v8.47H551.9v41.64Z"/><path class="cls-3" d="M573.29,268.69V218.58h21.3q8,0,11.67,1.35a11.56,11.56,0,0,1,5.83,4.8,14.49,14.49,0,0,1,2.18,7.9,13.36,13.36,0,0,1-3.31,9.31q-3.32,3.67-9.91,4.63a23.66,23.66,0,0,1,5.41,4.21,55.5,55.5,0,0,1,5.76,8.13l6.12,9.78h-12.1l-7.31-10.91a70.23,70.23,0,0,0-5.34-7.36,7.71,7.71,0,0,0-3-2.09,16.89,16.89,0,0,0-5.09-.56h-2.05v20.92Zm10.12-28.92h7.48q7.29,0,9.1-.62a5.45,5.45,0,0,0,2.83-2.11,6.5,6.5,0,0,0,1-3.76,6,6,0,0,0-1.35-4.09,6.16,6.16,0,0,0-3.81-2q-1.23-.18-7.39-.18h-7.89Z"/><path class="cls-3" d="M621.76,243.94a31.81,31.81,0,0,1,2.29-12.85,23.65,23.65,0,0,1,4.66-6.87,19.45,19.45,0,0,1,6.48-4.51,27.34,27.34,0,0,1,10.8-2q11.07,0,17.72,6.87t6.65,19.11q0,12.13-6.59,19t-17.64,6.85q-11.18,0-17.77-6.82T621.76,243.94Zm10.42-.34q0,8.51,3.93,12.9a13.52,13.52,0,0,0,19.91,0q3.88-4.37,3.88-13.08t-3.77-12.85a14,14,0,0,0-20.12,0Q632.19,235,632.18,243.6Z"/><path class="cls-3" d="M678.53,268.69V219h10.12v41.25H713.8v8.45Z"/><path class="cls-4" d="M471.06,564.26l53.57,17q-12.32,44.81-41,66.55T411,669.54q-54.49,0-89.6-37.24T286.26,530.48q0-68.33,35.28-106.12t92.77-37.8q50.22,0,81.58,29.68,18.66,17.55,28,50.4l-54.7,13.07q-4.85-21.29-20.25-33.61t-37.43-12.31q-30.42,0-49.37,21.84T343.2,526.37q0,51.9,18.66,73.92t48.53,22q22,0,37.9-14T471.06,564.26Z"/><path class="cls-4" d="M747.14,564.26l53.57,17q-12.32,44.81-41,66.55T687,669.54q-54.51,0-89.6-37.24T562.34,530.48q0-68.33,35.28-106.12t92.77-37.8q50.22,0,81.58,29.68,18.66,17.55,28,50.4l-54.7,13.07Q740.43,458.42,725,446.1t-37.43-12.31q-30.42,0-49.37,21.84t-19,70.74q0,51.9,18.67,73.92t48.53,22q22,0,37.9-14T747.14,564.26Z"/><rect class="cls-5" y="-2.64" width="1080" height="1080"/><path class="cls-3" d="M287.46,906.38V856.27h15.15l9.09,34.18,9-34.18h15.17v50.11h-9.4V866.94l-9.94,39.44h-9.74l-9.92-39.44v39.44Z"/><path class="cls-3" d="M345.6,906.38V856.27h10.12v50.11Z"/><path class="cls-3" d="M376.64,906.38V864.75H361.77v-8.48h39.82v8.48H386.76v41.63Z"/><path class="cls-3" d="M408.15,906.38V856.27h21.3q8,0,11.67,1.35a11.52,11.52,0,0,1,5.83,4.8,14.54,14.54,0,0,1,2.18,7.9,13.36,13.36,0,0,1-3.31,9.31q-3.31,3.68-9.91,4.64a23.36,23.36,0,0,1,5.41,4.2,56.65,56.65,0,0,1,5.76,8.13l6.12,9.78H441.1l-7.31-10.9a71.65,71.65,0,0,0-5.33-7.37,7.78,7.78,0,0,0-3-2.08,16.5,16.5,0,0,0-5.09-.57h-2.05v20.92Zm10.12-28.92h7.49q7.28,0,9.09-.61a5.46,5.46,0,0,0,2.83-2.12,6.48,6.48,0,0,0,1-3.76,6,6,0,0,0-1.35-4.08,6.17,6.17,0,0,0-3.81-2q-1.23-.17-7.38-.17h-7.9Z"/><path class="cls-3" d="M458.67,906.38V856.27h37.15v8.48h-27v11.11h25.15v8.44H468.79v13.64h28v8.44Z"/><path class="cls-3" d="M567.4,906.38h-11L552,895H532l-4.14,11.38H517.12l19.51-50.11h10.7Zm-18.63-19.82L541.86,868l-6.76,18.6Z"/><path class="cls-3" d="M578.85,906.38V864.75H564v-8.48H603.8v8.48H589v41.63Z"/><path class="cls-3" d="M621.6,906.38V864.75H606.74v-8.48h39.82v8.48H631.72v41.63Z"/><path class="cls-3" d="M697.42,900.26l-5.82,7.42a34.29,34.29,0,0,1-8.2-5.74,20.75,20.75,0,0,1-6.46,4,22.8,22.8,0,0,1-8.13,1.3q-9.37,0-14.09-5.27a13.61,13.61,0,0,1-3.65-9.36,14.07,14.07,0,0,1,2.87-8.66,23.34,23.34,0,0,1,8.58-6.69,26.81,26.81,0,0,1-3.86-5.79,12.16,12.16,0,0,1-1.3-5.21,9.84,9.84,0,0,1,3.64-7.71q3.63-3.17,10.37-3.16,6.5,0,10.15,3.31a10.52,10.52,0,0,1,3.66,8.1,10.35,10.35,0,0,1-1.81,5.78q-1.82,2.73-7.32,6.19l7,9.19a23.46,23.46,0,0,0,2.11-5.71l8.69,2a54.24,54.24,0,0,1-2.26,6.75,18.38,18.38,0,0,1-2.05,3.57,39.52,39.52,0,0,0,4.15,3.3A32.25,32.25,0,0,0,697.42,900.26Zm-29.91-16.81a13,13,0,0,0-5,4,8.38,8.38,0,0,0-1.64,4.82,6.73,6.73,0,0,0,2,5.07,7.5,7.5,0,0,0,5.45,2,11,11,0,0,0,4.34-.89,18.75,18.75,0,0,0,4.54-2.94ZM671.27,873l2.6-2q2.86-2.22,2.87-4.41a4.15,4.15,0,0,0-1.39-3.15,6.14,6.14,0,0,0-7.33-.15,3.44,3.44,0,0,0-1.3,2.65q0,1.77,2.19,4.31Z"/><path class="cls-3" d="M735.7,888l9.81,3.11q-2.26,8.2-7.51,12.18t-13.31,4a21.59,21.59,0,0,1-16.41-6.81q-6.42-6.82-6.42-18.65,0-12.51,6.46-19.43t17-6.92q9.2,0,14.93,5.43a19.76,19.76,0,0,1,5.13,9.23l-10,2.39a10.32,10.32,0,0,0-10.56-8.4,11.43,11.43,0,0,0-9,4q-3.46,4-3.47,13c0,6.33,1.14,10.85,3.42,13.53a11.1,11.1,0,0,0,8.89,4,10.14,10.14,0,0,0,6.94-2.57Q734.43,893.46,735.7,888Z"/><path class="cls-3" d="M754.32,906.38V856.27h10.12v22.25l20.44-22.25h13.6l-18.86,19.52,19.89,30.59H786.42l-13.78-23.52-8.2,8.38v15.14Z"/></svg>