<svg id="Layer_1" data-name="Layer 1" xmlns="http://www.w3.org/2000/svg" viewBox="0 0 1080 1080"><defs><style>.cls-1{fill:#7c287d;}.cls-2,.cls-5{fill:none;}.cls-2{stroke:#231f20;stroke-miterlimit:10;stroke-width:0.5px;}.cls-3{fill:#fff;}.cls-4{fill:#231f20;}</style></defs><title>MITRE ATT&amp;amp;C</title><rect class="cls-1" x="278.61" y="68.24" width="526.26" height="212.63"/><rect class="cls-1" x="278.61" y="775.23" width="526.26" height="212.63"/><polygon class="cls-2" points="804.87 775.05 278.61 775.23 278.61 280.87 804.87 280.87 804.87 775.05"/><path class="cls-3" d="M352.56,181.19l9.81,3.11q-2.26,8.19-7.5,12.18t-13.32,4a21.53,21.53,0,0,1-16.4-6.82q-6.43-6.81-6.43-18.64,0-12.51,6.46-19.43t17-6.92q9.19,0,14.93,5.43a19.76,19.76,0,0,1,5.13,9.23l-10,2.39a10.36,10.36,0,0,0-10.56-8.41,11.41,11.41,0,0,0-9,4q-3.48,4-3.47,13,0,9.5,3.41,13.53a11.1,11.1,0,0,0,8.89,4,10.14,10.14,0,0,0,6.94-2.57Q351.3,186.69,352.56,181.19Z"/><path class="cls-3" d="M369,174.86A31.81,31.81,0,0,1,371.29,162a23.65,23.65,0,0,1,4.66-6.87,19.55,19.55,0,0,1,6.48-4.51,27.52,27.52,0,0,1,10.8-2q11.08,0,17.72,6.87t6.65,19.1q0,12.13-6.59,19t-17.64,6.85q-11.17,0-17.77-6.82T369,174.86Zm10.42-.34c0,5.67,1.31,10,3.93,12.9a13.5,13.5,0,0,0,19.91,0q3.89-4.36,3.88-13.08t-3.77-12.85a14,14,0,0,0-20.12.05Q379.42,165.87,379.42,174.52Z"/><path class="cls-3" d="M425.77,199.61v-49.7h10.12v41.26h25.16v8.44Z"/><path class="cls-3" d="M468.53,199.61v-49.7h10.12v41.26H503.8v8.44Z"/><path class="cls-3" d="M511,199.61V149.5h37.15V158h-27v11.11h25.16v8.44H521.13v13.64h28v8.44Z"/><path class="cls-3" d="M589.77,181.19l9.81,3.11q-2.26,8.19-7.51,12.18t-13.31,4a21.56,21.56,0,0,1-16.41-6.82q-6.42-6.81-6.42-18.64,0-12.51,6.46-19.43t17-6.92q9.18,0,14.93,5.43a19.76,19.76,0,0,1,5.13,9.23l-10,2.39a10.34,10.34,0,0,0-10.56-8.41,11.42,11.42,0,0,0-9,4q-3.47,4-3.47,13,0,9.5,3.42,13.53a11.1,11.1,0,0,0,8.89,4,10.14,10.14,0,0,0,6.94-2.57Q588.49,186.69,589.77,181.19Z"/><path class="cls-3" d="M619.54,199.61V158H604.67V149.5h39.82V158H629.65v41.63Z"/><path class="cls-3" d="M650.71,199.61V149.5h10.12v50.11Z"/><path class="cls-3" d="M668.41,174.86A32,32,0,0,1,670.7,162a23.68,23.68,0,0,1,4.67-6.87,19.45,19.45,0,0,1,6.48-4.51,27.52,27.52,0,0,1,10.8-2q11.07,0,17.72,6.87t6.65,19.1q0,12.13-6.6,19t-17.64,6.85q-11.17,0-17.77-6.82T668.41,174.86Zm10.43-.34c0,5.67,1.31,10,3.93,12.9a13.5,13.5,0,0,0,19.91,0q3.87-4.36,3.88-13.08t-3.78-12.85a14,14,0,0,0-20.11.05Q678.83,165.87,678.84,174.52Z"/><path class="cls-3" d="M725,199.61V149.5h9.84L755.37,183V149.5h9.4v50.11H754.61l-20.2-32.68v32.68Z"/><path class="cls-4" d="M650.6,588.13l88.89,28.19q-20.44,74.32-68,110.41T550.88,762.81q-90.44,0-148.66-61.79T344,532.08Q344,418.73,402.53,356T556.45,293.3q83.31,0,135.35,49.24,31,29.11,46.45,83.62l-90.74,21.68q-8.06-35.31-33.61-55.75t-62.09-20.44q-50.49,0-81.92,36.24T438.46,525.26q0,86.12,31,122.65T550,684.45q36.54,0,62.87-23.23T650.6,588.13Z"/><rect class="cls-5" y="-2.64" width="1080" height="1080"/><path class="cls-3" d="M285.72,906.38V856.27h15.14L310,890.45l9-34.18h15.18v50.11h-9.4V866.94l-10,39.44H305l-9.91-39.44v39.44Z"/><path class="cls-3" d="M343.86,906.38V856.27H354v50.11Z"/><path class="cls-3" d="M374.9,906.38V864.75H360v-8.48h39.82v8.48H385v41.63Z"/><path class="cls-3" d="M406.41,906.38V856.27H427.7q8,0,11.68,1.35a11.53,11.53,0,0,1,5.82,4.8,14.46,14.46,0,0,1,2.19,7.9,13.36,13.36,0,0,1-3.31,9.31q-3.33,3.68-9.92,4.64a23.22,23.22,0,0,1,5.42,4.2,58.31,58.31,0,0,1,5.76,8.13l6.12,9.78h-12.1L432,895.48a68.59,68.59,0,0,0-5.33-7.37,7.75,7.75,0,0,0-3-2.08,16.5,16.5,0,0,0-5.09-.57h-2.05v20.92Zm10.12-28.92H424q7.29,0,9.09-.61a5.45,5.45,0,0,0,2.84-2.12,6.56,6.56,0,0,0,1-3.76,6,6,0,0,0-1.35-4.08,6.17,6.17,0,0,0-3.82-2q-1.23-.17-7.38-.17h-7.89Z"/><path class="cls-3" d="M456.93,906.38V856.27h37.15v8.48H467v11.11H492.2v8.44H467v13.64h28v8.44Z"/><path class="cls-3" d="M565.65,906.38h-11L550.27,895h-20l-4.13,11.38H515.37l19.52-50.11h10.7ZM547,886.56l-6.9-18.6-6.77,18.6Z"/><path class="cls-3" d="M577.1,906.38V864.75H562.23v-8.48h39.82v8.48H587.22v41.63Z"/><path class="cls-3" d="M619.86,906.38V864.75H605v-8.48h39.82v8.48H630v41.63Z"/><path class="cls-3" d="M695.67,900.26l-5.81,7.42a34.1,34.1,0,0,1-8.2-5.74,20.75,20.75,0,0,1-6.46,4,22.82,22.82,0,0,1-8.14,1.3q-9.36,0-14.08-5.27a13.58,13.58,0,0,1-3.66-9.36A14.08,14.08,0,0,1,652.2,884a23.39,23.39,0,0,1,8.57-6.69,27.57,27.57,0,0,1-3.86-5.79,12.3,12.3,0,0,1-1.3-5.21,9.87,9.87,0,0,1,3.64-7.71q3.64-3.17,10.38-3.16,6.5,0,10.15,3.31a10.52,10.52,0,0,1,3.66,8.1,10.28,10.28,0,0,1-1.82,5.78q-1.8,2.73-7.31,6.19l7,9.19a23.43,23.43,0,0,0,2.12-5.71l8.68,2a54.58,54.58,0,0,1-2.25,6.75,18.38,18.38,0,0,1-2.05,3.57,39.52,39.52,0,0,0,4.15,3.3A32.36,32.36,0,0,0,695.67,900.26Zm-29.91-16.81a12.91,12.91,0,0,0-5,4,8.31,8.31,0,0,0-1.64,4.82,6.76,6.76,0,0,0,2,5.07,7.52,7.52,0,0,0,5.45,2,11,11,0,0,0,4.34-.89,18.79,18.79,0,0,0,4.55-2.94ZM669.52,873l2.6-2c1.92-1.48,2.87-2.95,2.87-4.41a4.18,4.18,0,0,0-1.38-3.15,6.14,6.14,0,0,0-7.33-.15A3.44,3.44,0,0,0,665,866q0,1.77,2.19,4.31Z"/><path class="cls-3" d="M734,888l9.81,3.11q-2.25,8.2-7.5,12.18t-13.31,4a21.56,21.56,0,0,1-16.41-6.81q-6.42-6.82-6.42-18.65,0-12.51,6.46-19.43t17-6.92q9.2,0,14.94,5.43a19.76,19.76,0,0,1,5.13,9.23l-10,2.39a10.34,10.34,0,0,0-10.56-8.4,11.41,11.41,0,0,0-9,4q-3.46,4-3.47,13c0,6.33,1.14,10.85,3.42,13.53a11.1,11.1,0,0,0,8.88,4,10.12,10.12,0,0,0,6.94-2.57Q732.69,893.46,734,888Z"/><path class="cls-3" d="M752.58,906.38V856.27H762.7v22.25l20.44-22.25h13.6l-18.87,19.52,19.9,30.59H784.68L770.9,882.86l-8.2,8.38v15.14Z"/></svg>