<svg id="Layer_1" data-name="Layer 1" xmlns="http://www.w3.org/2000/svg" viewBox="0 0 1080 1080"><defs><style>.cls-1{fill:#7c287d;}.cls-2,.cls-5{fill:none;}.cls-2{stroke:#231f20;stroke-miterlimit:10;stroke-width:0.5px;}.cls-3{fill:#fff;}.cls-4{fill:#231f20;}</style></defs><title>MITRE ATT&amp;amp;C</title><rect class="cls-1" x="280.36" y="80.19" width="526.26" height="212.63"/><rect class="cls-1" x="280.36" y="787.18" width="526.26" height="212.63"/><polygon class="cls-2" points="806.62 787 280.36 787.18 280.36 292.82 806.62 292.82 806.62 787"/><path class="cls-3" d="M354.49,157.74l9.81,3.11q-2.25,8.21-7.5,12.19t-13.32,4a21.53,21.53,0,0,1-16.4-6.82q-6.43-6.81-6.43-18.64,0-12.51,6.46-19.43t17-6.93q9.19,0,14.94,5.44a19.84,19.84,0,0,1,5.12,9.23l-10,2.39a10.36,10.36,0,0,0-10.56-8.41,11.41,11.41,0,0,0-9,4q-3.48,4-3.47,13,0,9.49,3.42,13.53a11.08,11.08,0,0,0,8.88,4,10.13,10.13,0,0,0,6.94-2.56Q353.23,163.25,354.49,157.74Z"/><path class="cls-3" d="M373,176.17V126.06h21.29c5.35,0,9.25.45,11.67,1.35a11.52,11.52,0,0,1,5.83,4.8,14.44,14.44,0,0,1,2.19,7.9,13.37,13.37,0,0,1-3.32,9.31q-3.31,3.68-9.91,4.63a23.73,23.73,0,0,1,5.42,4.21,57.09,57.09,0,0,1,5.76,8.13l6.11,9.78H406l-7.32-10.91a70.7,70.7,0,0,0-5.33-7.36,7.78,7.78,0,0,0-3-2.09,16.92,16.92,0,0,0-5.1-.56h-2.05v20.92Zm10.11-28.92h7.49q7.28,0,9.09-.61a5.49,5.49,0,0,0,2.84-2.12,6.58,6.58,0,0,0,1-3.76,6,6,0,0,0-1.35-4.09,6.21,6.21,0,0,0-3.81-2c-.82-.12-3.28-.17-7.38-.17h-7.9Z"/><path class="cls-3" d="M423.53,176.17V126.06h37.16v8.48h-27v11.1h25.16v8.45H433.65v13.63h28v8.45Z"/><path class="cls-3" d="M470.19,126.06h18.49a36,36,0,0,1,9.54,1,16.7,16.7,0,0,1,7.55,4.61,21.8,21.8,0,0,1,4.78,8.12,36.77,36.77,0,0,1,1.65,11.84,33.11,33.11,0,0,1-1.54,10.67,22.17,22.17,0,0,1-5.37,8.85,17.75,17.75,0,0,1-7.11,4,30.81,30.81,0,0,1-8.95,1.06h-19Zm10.12,8.48v33.18h7.55a28.36,28.36,0,0,0,6.12-.47,9.31,9.31,0,0,0,4.08-2.09,10.58,10.58,0,0,0,2.65-4.84,32.74,32.74,0,0,0,1-9.17,30,30,0,0,0-1-8.92,11.41,11.41,0,0,0-2.87-4.86,9.64,9.64,0,0,0-4.68-2.36,47.09,47.09,0,0,0-8.31-.47Z"/><path class="cls-3" d="M520.77,176.17V126.06h37.16v8.48h-27v11.1h25.16v8.45H530.89v13.63h28v8.45Z"/><path class="cls-3" d="M567.57,176.17V126.06h9.84l20.51,33.46V126.06h9.4v50.11H597.17L577,143.49v32.68Z"/><path class="cls-3" d="M629.3,176.17V134.54H614.43v-8.48h39.82v8.48H639.41v41.63Z"/><path class="cls-3" d="M660.47,176.17V126.06h10.11v50.11Z"/><path class="cls-3" d="M725.41,176.17h-11L710,164.78H690l-4.14,11.39H675.13l19.52-50.11h10.69Zm-18.63-19.83-6.9-18.59-6.77,18.59Z"/><path class="cls-3" d="M731.05,176.17v-49.7h10.12v41.25h25.15v8.45Z"/><path class="cls-3" d="M449.61,246.91h-11l-4.38-11.38h-20l-4.13,11.38H399.33l19.52-50.1h10.7ZM431,227.09l-6.9-18.59-6.77,18.59Z"/><path class="cls-3" d="M487,228.49l9.81,3.11q-2.27,8.21-7.5,12.19t-13.32,4a21.56,21.56,0,0,1-16.4-6.82q-6.44-6.82-6.43-18.65,0-12.51,6.46-19.43t17-6.92q9.19,0,14.94,5.44a19.8,19.8,0,0,1,5.12,9.22l-10,2.4a10.34,10.34,0,0,0-10.56-8.41,11.38,11.38,0,0,0-9,4q-3.48,4-3.47,13,0,9.51,3.41,13.54a11.11,11.11,0,0,0,8.89,4,10.13,10.13,0,0,0,6.94-2.56Q485.78,234,487,228.49Z"/><path class="cls-3" d="M537.59,228.49l9.81,3.11q-2.25,8.21-7.5,12.19t-13.31,4A21.57,21.57,0,0,1,510.18,241q-6.44-6.82-6.43-18.65,0-12.51,6.46-19.43t17-6.92q9.19,0,14.94,5.44a19.71,19.71,0,0,1,5.12,9.22l-10,2.4a10.34,10.34,0,0,0-10.56-8.41,11.38,11.38,0,0,0-9,4q-3.48,4-3.47,13,0,9.51,3.42,13.54a11.08,11.08,0,0,0,8.88,4,10.13,10.13,0,0,0,6.94-2.56Q536.33,234,537.59,228.49Z"/><path class="cls-3" d="M556.08,246.91v-50.1h37.16v8.47h-27v11.11h25.16v8.44H566.2v13.64h28v8.44Z"/><path class="cls-3" d="M600.21,230.61l9.84-1c.59,3.31,1.8,5.73,3.61,7.28a10.89,10.89,0,0,0,7.33,2.33c3.26,0,5.71-.69,7.37-2.07a6.15,6.15,0,0,0,2.47-4.84,4.53,4.53,0,0,0-1-3,8.28,8.28,0,0,0-3.64-2.17q-1.77-.61-8.1-2.19-8.13-2-11.42-5A13,13,0,0,1,602,209.93a12.85,12.85,0,0,1,2.17-7.16,13.67,13.67,0,0,1,6.25-5.08,25.15,25.15,0,0,1,9.87-1.74q9.42,0,14.2,4.14a14.53,14.53,0,0,1,5,11l-10.11.44C629,209,628,207.15,626.61,206s-3.56-1.69-6.41-1.69a11.52,11.52,0,0,0-6.9,1.81,3.65,3.65,0,0,0-1.61,3.11,3.83,3.83,0,0,0,1.51,3q1.9,1.61,9.29,3.35a48.79,48.79,0,0,1,10.92,3.6,14.08,14.08,0,0,1,5.54,5.1,15.78,15.78,0,0,1-.39,16,14.38,14.38,0,0,1-6.77,5.58,28.36,28.36,0,0,1-10.9,1.83q-9.51,0-14.6-4.39T600.21,230.61Z"/><path class="cls-3" d="M646.9,230.61l9.84-1c.59,3.31,1.8,5.73,3.61,7.28a10.89,10.89,0,0,0,7.33,2.33q4.89,0,7.36-2.07a6.13,6.13,0,0,0,2.48-4.84,4.58,4.58,0,0,0-1-3,8.34,8.34,0,0,0-3.64-2.17q-1.79-.61-8.1-2.19-8.13-2-11.42-5a13,13,0,0,1-4.61-10.08,12.85,12.85,0,0,1,2.17-7.16,13.67,13.67,0,0,1,6.25-5.08A25.15,25.15,0,0,1,667,196q9.42,0,14.2,4.14a14.57,14.57,0,0,1,5,11l-10.11.44c-.44-2.57-1.36-4.42-2.79-5.55s-3.56-1.69-6.41-1.69a11.52,11.52,0,0,0-6.9,1.81,3.65,3.65,0,0,0-1.61,3.11,3.83,3.83,0,0,0,1.51,3q1.9,1.61,9.29,3.35a49.16,49.16,0,0,1,10.92,3.6,14.08,14.08,0,0,1,5.54,5.1,15.78,15.78,0,0,1-.39,16,14.38,14.38,0,0,1-6.77,5.58,28.36,28.36,0,0,1-10.9,1.83q-9.51,0-14.6-4.39T646.9,230.61Z"/><path class="cls-4" d="M465.27,574.76l51.43,16.31q-11.84,43-39.34,63.89t-69.79,20.87q-52.33,0-86-35.75t-33.69-97.75q0-65.6,33.87-101.88t89.06-36.28q48.21,0,78.31,28.49Q507,449.51,516,481l-52.5,12.55q-4.67-20.43-19.45-32.26T408.1,449.5q-29.21,0-47.4,21t-18.18,67.92q0,49.82,17.92,71T407,630.5q21.14,0,36.38-13.44T465.27,574.76Z"/><path class="cls-4" d="M799.11,671.35h-57.7l-22.93-59.67h-105l-21.68,59.67H535.51l102.32-262.7h56.09ZM701.45,567.42l-36.2-97.49-35.48,97.49Z"/><rect class="cls-5" y="-10.82" width="1080" height="1080"/><path class="cls-3" d="M287.46,918.33V868.22h15.15l9.09,34.18,9-34.18h15.17v50.11h-9.4V878.88l-9.94,39.45h-9.74l-9.92-39.45v39.45Z"/><path class="cls-3" d="M345.6,918.33V868.22h10.12v50.11Z"/><path class="cls-3" d="M376.64,918.33V876.7H361.77v-8.48h39.82v8.48H386.76v41.63Z"/><path class="cls-3" d="M408.15,918.33V868.22h21.3q8,0,11.67,1.35a11.52,11.52,0,0,1,5.83,4.8,14.52,14.52,0,0,1,2.18,7.9,13.36,13.36,0,0,1-3.31,9.31q-3.31,3.67-9.91,4.63a23.66,23.66,0,0,1,5.41,4.21,56.07,56.07,0,0,1,5.76,8.13l6.12,9.78H441.1l-7.31-10.91a72.3,72.3,0,0,0-5.33-7.36,7.92,7.92,0,0,0-3-2.09,16.89,16.89,0,0,0-5.09-.56h-2.05v20.92Zm10.12-28.92h7.49q7.28,0,9.09-.61a5.46,5.46,0,0,0,2.83-2.12,6.48,6.48,0,0,0,1-3.76,6,6,0,0,0-1.35-4.09,6.21,6.21,0,0,0-3.81-2c-.82-.12-3.28-.17-7.38-.17h-7.9Z"/><path class="cls-3" d="M458.67,918.33V868.22h37.15v8.48h-27v11.11h25.15v8.44H468.79v13.64h28v8.44Z"/><path class="cls-3" d="M567.4,918.33h-11L552,907H532l-4.14,11.38H517.12l19.51-50.11h10.7ZM548.77,898.5l-6.91-18.59L535.1,898.5Z"/><path class="cls-3" d="M578.85,918.33V876.7H564v-8.48H603.8v8.48H589v41.63Z"/><path class="cls-3" d="M621.6,918.33V876.7H606.74v-8.48h39.82v8.48H631.72v41.63Z"/><path class="cls-3" d="M697.42,912.21l-5.82,7.42a34.06,34.06,0,0,1-8.2-5.75,20.61,20.61,0,0,1-6.46,4,23,23,0,0,1-8.13,1.3q-9.37,0-14.09-5.27a13.61,13.61,0,0,1-3.65-9.36,14.12,14.12,0,0,1,2.87-8.67,23.43,23.43,0,0,1,8.58-6.68,27.05,27.05,0,0,1-3.86-5.79,12.19,12.19,0,0,1-1.3-5.21,9.84,9.84,0,0,1,3.64-7.71q3.63-3.16,10.37-3.16,6.5,0,10.15,3.31a10.52,10.52,0,0,1,3.66,8.1,10.35,10.35,0,0,1-1.81,5.78q-1.82,2.73-7.32,6.19l7,9.19a23.46,23.46,0,0,0,2.11-5.71l8.69,2a53.09,53.09,0,0,1-2.26,6.75,18.18,18.18,0,0,1-2.05,3.58,38.31,38.31,0,0,0,4.15,3.29A31.33,31.33,0,0,0,697.42,912.21Zm-29.91-16.82a13,13,0,0,0-5,4,8.38,8.38,0,0,0-1.64,4.82,6.73,6.73,0,0,0,2,5.07,7.5,7.5,0,0,0,5.45,2,11,11,0,0,0,4.34-.89,18.75,18.75,0,0,0,4.54-2.94ZM671.27,885l2.6-2q2.86-2.22,2.87-4.41a4.15,4.15,0,0,0-1.39-3.15,6.1,6.1,0,0,0-7.33-.15,3.44,3.44,0,0,0-1.3,2.65c0,1.18.73,2.62,2.19,4.3Z"/><path class="cls-3" d="M735.7,899.91l9.81,3.11q-2.26,8.19-7.51,12.18t-13.31,4a21.56,21.56,0,0,1-16.41-6.82q-6.42-6.81-6.42-18.64,0-12.51,6.46-19.43t17-6.92q9.2,0,14.93,5.43a19.76,19.76,0,0,1,5.13,9.23l-10,2.39A10.34,10.34,0,0,0,724.79,876a11.44,11.44,0,0,0-9,4q-3.46,4-3.47,13,0,9.49,3.42,13.53a11.1,11.1,0,0,0,8.89,4,10.14,10.14,0,0,0,6.94-2.57Q734.43,905.41,735.7,899.91Z"/><path class="cls-3" d="M754.32,918.33V868.22h10.12v22.25l20.44-22.25h13.6l-18.86,19.52,19.89,30.59H786.42l-13.78-23.52-8.2,8.38v15.14Z"/></svg>