<svg id="Layer_1" data-name="Layer 1" xmlns="http://www.w3.org/2000/svg" viewBox="0 0 1080 1080"><defs><style>.cls-1{fill:#7c287d;}.cls-2,.cls-5{fill:none;}.cls-2{stroke:#231f20;stroke-miterlimit:10;stroke-width:0.5px;}.cls-3{fill:#fff;}.cls-4{fill:#231f20;}</style></defs><title>MITRE ATT&amp;amp;C</title><rect class="cls-1" x="278.61" y="80.19" width="526.26" height="212.63"/><rect class="cls-1" x="278.61" y="787.18" width="526.26" height="212.63"/><polygon class="cls-2" points="804.87 787 278.61 787.18 278.61 292.82 804.87 292.82 804.87 787"/><path class="cls-3" d="M380.71,128.05H399.2a35.91,35.91,0,0,1,9.53,1,16.74,16.74,0,0,1,7.56,4.61,21.94,21.94,0,0,1,4.78,8.12,36.8,36.8,0,0,1,1.64,11.84,32.84,32.84,0,0,1-1.54,10.67,22.15,22.15,0,0,1-5.36,8.85,17.89,17.89,0,0,1-7.11,4,30.83,30.83,0,0,1-9,1.06h-19Zm10.11,8.48v33.19h7.56a27.41,27.41,0,0,0,6.11-.48,9.3,9.3,0,0,0,4.09-2.09,10.69,10.69,0,0,0,2.65-4.83,32.92,32.92,0,0,0,1-9.18,30,30,0,0,0-1-8.92,11.57,11.57,0,0,0-2.87-4.86,9.62,9.62,0,0,0-4.69-2.35,45.67,45.67,0,0,0-8.3-.48Z"/><path class="cls-3" d="M431.29,178.16V128.05h37.16v8.48h-27v11.11h25.16v8.44H441.41v13.64h28v8.44Z"/><path class="cls-3" d="M478.05,178.16V128.05H512.4v8.48H488.17v11.86h20.91v8.47H488.17v21.3Z"/><path class="cls-3" d="M520.74,178.16V128.05h37.15v8.48h-27v11.11H556v8.44H530.86v13.64h28v8.44Z"/><path class="cls-3" d="M567.53,178.16V128.05h9.85l20.5,33.46V128.05h9.4v50.11H597.13l-20.2-32.68v32.68Z"/><path class="cls-3" d="M615.42,161.85l9.84-.95c.59,3.3,1.8,5.73,3.61,7.28a10.88,10.88,0,0,0,7.33,2.32q4.89,0,7.36-2.07A6.12,6.12,0,0,0,646,163.6a4.53,4.53,0,0,0-1-3,8.37,8.37,0,0,0-3.64-2.17c-1.18-.41-3.89-1.14-8.1-2.19q-8.13-2-11.42-5a13.06,13.06,0,0,1-4.61-10.08A12.89,12.89,0,0,1,619.4,134a13.59,13.59,0,0,1,6.25-5.07,25.15,25.15,0,0,1,9.87-1.74q9.42,0,14.2,4.13a14.6,14.6,0,0,1,5,11l-10.11.45c-.44-2.58-1.36-4.43-2.79-5.56s-3.56-1.69-6.41-1.69a11.52,11.52,0,0,0-6.9,1.81,3.66,3.66,0,0,0-1.61,3.11,3.82,3.82,0,0,0,1.51,3q1.9,1.62,9.29,3.35a49.42,49.42,0,0,1,10.92,3.61,14.06,14.06,0,0,1,5.54,5.09,15.78,15.78,0,0,1-.39,16,14.34,14.34,0,0,1-6.77,5.59,28.36,28.36,0,0,1-10.9,1.83q-9.51,0-14.6-4.4T615.42,161.85Z"/><path class="cls-3" d="M664.67,178.16V128.05h37.15v8.48h-27v11.11h25.15v8.44H674.79v13.64h28v8.44Z"/><path class="cls-3" d="M390.21,244.92V194.81h37.15v8.48h-27V214.4h25.15v8.44H400.33v13.64h28v8.44Z"/><path class="cls-3" d="M449.68,244.92l-17.91-50.11h11l12.68,37.09,12.27-37.09h10.74l-17.95,50.11Z"/><path class="cls-3" d="M523.58,244.92h-11l-4.37-11.38h-20L484,244.92H473.3l19.52-50.11h10.69ZM505,225.1,498,206.5l-6.76,18.6Z"/><path class="cls-3" d="M526.38,228.62l9.84-1c.6,3.31,1.8,5.73,3.61,7.28a10.89,10.89,0,0,0,7.33,2.33c3.26,0,5.71-.69,7.37-2.07a6.15,6.15,0,0,0,2.47-4.84,4.53,4.53,0,0,0-1-3,8.19,8.19,0,0,0-3.64-2.17q-1.77-.61-8.1-2.19-8.13-2-11.41-5a13,13,0,0,1-4.62-10.08,12.85,12.85,0,0,1,2.17-7.16,13.65,13.65,0,0,1,6.26-5.08,25.1,25.1,0,0,1,9.86-1.74q9.43,0,14.2,4.14a14.57,14.57,0,0,1,5,11l-10.12.44c-.43-2.57-1.36-4.43-2.79-5.55s-3.56-1.7-6.41-1.7a11.54,11.54,0,0,0-6.9,1.82,3.65,3.65,0,0,0-1.61,3.11,3.86,3.86,0,0,0,1.51,3q1.9,1.6,9.3,3.35a49.16,49.16,0,0,1,10.92,3.6,14.12,14.12,0,0,1,5.53,5.1,15.77,15.77,0,0,1-.39,16A14.34,14.34,0,0,1,558,244a28.36,28.36,0,0,1-10.9,1.83q-9.51,0-14.6-4.39T526.38,228.62Z"/><path class="cls-3" d="M575.33,244.92V194.81h10.11v50.11Z"/><path class="cls-3" d="M593,220.18a31.86,31.86,0,0,1,2.29-12.86,23.49,23.49,0,0,1,4.67-6.87,19.66,19.66,0,0,1,6.47-4.51,27.52,27.52,0,0,1,10.8-2q11.09,0,17.73,6.87t6.64,19.11q0,12.13-6.59,19t-17.64,6.86q-11.17,0-17.77-6.82T593,220.18Zm10.42-.35q0,8.52,3.94,12.91a13.51,13.51,0,0,0,19.91,0q3.87-4.35,3.87-13.07t-3.77-12.85a14,14,0,0,0-20.12.05Q603.46,211.19,603.45,219.83Z"/><path class="cls-3" d="M649.63,244.92V194.81h9.85L680,228.28V194.81h9.4v50.11H679.23L659,212.25v32.67Z"/><path class="cls-4" d="M289,397.19h105.4q35.65,0,54.36,5.46a95.55,95.55,0,0,1,43,26.3q17.93,18.9,27.28,46.27t9.35,67.51q0,35.26-8.77,60.78Q508.92,634.68,489,654q-15,14.61-40.52,22.8-19.09,6-51,6H289Zm57.67,48.32V634.68h43.05q24.17,0,34.88-2.72,14-3.51,23.28-11.89t15.1-27.56q5.83-19.2,5.84-52.32t-5.84-50.84q-5.85-17.73-16.37-27.67t-26.69-13.44q-12.08-2.73-47.34-2.73Z"/><path class="cls-4" d="M577.3,682.81V397.19H789.07v48.32H635v63.32H778.36V557H635v77.73H794.53v48.13Z"/><rect class="cls-5" y="-10.82" width="1080" height="1080"/><path class="cls-3" d="M285.72,918.33V868.22h15.14L310,902.4l9-34.18h15.18v50.11h-9.4V878.88l-10,39.45H305l-9.91-39.45v39.45Z"/><path class="cls-3" d="M343.86,918.33V868.22H354v50.11Z"/><path class="cls-3" d="M374.9,918.33V876.7H360v-8.48h39.82v8.48H385v41.63Z"/><path class="cls-3" d="M406.41,918.33V868.22H427.7q8,0,11.68,1.35a11.53,11.53,0,0,1,5.82,4.8,14.44,14.44,0,0,1,2.19,7.9,13.36,13.36,0,0,1-3.31,9.31q-3.33,3.67-9.92,4.63a23.51,23.51,0,0,1,5.42,4.21,57.69,57.69,0,0,1,5.76,8.13l6.12,9.78h-12.1L432,907.42a69.17,69.17,0,0,0-5.33-7.36,7.89,7.89,0,0,0-3-2.09,16.89,16.89,0,0,0-5.09-.56h-2.05v20.92Zm10.12-28.92H424q7.29,0,9.09-.61a5.45,5.45,0,0,0,2.84-2.12,6.56,6.56,0,0,0,1-3.76,6,6,0,0,0-1.35-4.09,6.21,6.21,0,0,0-3.82-2c-.82-.12-3.28-.17-7.38-.17h-7.89Z"/><path class="cls-3" d="M456.93,918.33V868.22h37.15v8.48H467v11.11H492.2v8.44H467v13.64h28v8.44Z"/><path class="cls-3" d="M565.65,918.33h-11L550.27,907h-20l-4.13,11.38H515.37l19.52-50.11h10.7ZM547,898.5l-6.9-18.59-6.77,18.59Z"/><path class="cls-3" d="M577.1,918.33V876.7H562.23v-8.48h39.82v8.48H587.22v41.63Z"/><path class="cls-3" d="M619.86,918.33V876.7H605v-8.48h39.82v8.48H630v41.63Z"/><path class="cls-3" d="M695.67,912.21l-5.81,7.42a33.87,33.87,0,0,1-8.2-5.75,20.61,20.61,0,0,1-6.46,4,23,23,0,0,1-8.14,1.3q-9.36,0-14.08-5.27a13.58,13.58,0,0,1-3.66-9.36,14.13,14.13,0,0,1,2.88-8.67,23.47,23.47,0,0,1,8.57-6.68,27.83,27.83,0,0,1-3.86-5.79,12.34,12.34,0,0,1-1.3-5.21,9.87,9.87,0,0,1,3.64-7.71q3.64-3.16,10.38-3.16,6.5,0,10.15,3.31a10.52,10.52,0,0,1,3.66,8.1,10.28,10.28,0,0,1-1.82,5.78q-1.8,2.73-7.31,6.19l7,9.19a23.43,23.43,0,0,0,2.12-5.71l8.68,2a53.42,53.42,0,0,1-2.25,6.75,18.18,18.18,0,0,1-2.05,3.58,38.31,38.31,0,0,0,4.15,3.29A31.43,31.43,0,0,0,695.67,912.21Zm-29.91-16.82a12.93,12.93,0,0,0-5,4,8.31,8.31,0,0,0-1.64,4.82,6.76,6.76,0,0,0,2,5.07,7.52,7.52,0,0,0,5.45,2,11,11,0,0,0,4.34-.89,18.79,18.79,0,0,0,4.55-2.94ZM669.52,885l2.6-2c1.92-1.48,2.87-3,2.87-4.41a4.18,4.18,0,0,0-1.38-3.15,6.1,6.1,0,0,0-7.33-.15,3.44,3.44,0,0,0-1.3,2.65c0,1.18.73,2.62,2.19,4.3Z"/><path class="cls-3" d="M734,899.91l9.81,3.11q-2.25,8.19-7.5,12.18t-13.31,4a21.53,21.53,0,0,1-16.41-6.82q-6.42-6.81-6.42-18.64,0-12.51,6.46-19.43t17-6.92q9.2,0,14.94,5.43a19.76,19.76,0,0,1,5.13,9.23l-10,2.39A10.36,10.36,0,0,0,723.05,876a11.42,11.42,0,0,0-9,4q-3.46,4-3.47,13,0,9.49,3.42,13.53a11.1,11.1,0,0,0,8.88,4,10.12,10.12,0,0,0,6.94-2.57Q732.69,905.41,734,899.91Z"/><path class="cls-3" d="M752.58,918.33V868.22H762.7v22.25l20.44-22.25h13.6l-18.87,19.52,19.9,30.59H784.68L770.9,894.81l-8.2,8.38v15.14Z"/></svg>