<svg id="Layer_1" data-name="Layer 1" xmlns="http://www.w3.org/2000/svg" viewBox="0 0 1080 1080"><defs><style>.cls-1{fill:#7c287d;}.cls-2,.cls-5{fill:none;}.cls-2{stroke:#231f20;stroke-miterlimit:10;stroke-width:0.5px;}.cls-3{fill:#fff;}.cls-4{fill:#231f20;}</style></defs><title>MITRE ATT&amp;amp;C</title><rect class="cls-1" x="275.13" y="68.24" width="526.26" height="212.63"/><rect class="cls-1" x="275.13" y="775.23" width="526.26" height="212.63"/><polygon class="cls-2" points="801.39 775.05 275.13 775.23 275.13 280.87 801.39 280.87 801.39 775.05"/><path class="cls-3" d="M335.9,149.48h18.49a35.91,35.91,0,0,1,9.53,1,16.84,16.84,0,0,1,7.56,4.62,21.89,21.89,0,0,1,4.78,8.11A36.82,36.82,0,0,1,377.9,175a32.77,32.77,0,0,1-1.54,10.66,22,22,0,0,1-5.36,8.85,17.89,17.89,0,0,1-7.11,4,30.49,30.49,0,0,1-9,1.06h-19ZM346,158v33.19h7.56a27.41,27.41,0,0,0,6.11-.48,9.29,9.29,0,0,0,4.09-2.08,10.73,10.73,0,0,0,2.65-4.84,32.82,32.82,0,0,0,1-9.18,30.08,30.08,0,0,0-1-8.92,11.53,11.53,0,0,0-2.87-4.85,9.63,9.63,0,0,0-4.69-2.36,45.67,45.67,0,0,0-8.3-.48Z"/><path class="cls-3" d="M386.17,199.59V149.48h10.12v50.11Z"/><path class="cls-3" d="M403.37,183.29l9.84-1c.59,3.31,1.79,5.73,3.61,7.28a10.89,10.89,0,0,0,7.33,2.33q4.89,0,7.36-2.07A6.13,6.13,0,0,0,434,185a4.58,4.58,0,0,0-1-3,8.25,8.25,0,0,0-3.64-2.17q-1.79-.61-8.1-2.19-8.15-2-11.42-5a13,13,0,0,1-4.61-10.08,12.85,12.85,0,0,1,2.17-7.16,13.61,13.61,0,0,1,6.25-5.08,25.13,25.13,0,0,1,9.86-1.74q9.44,0,14.21,4.14a14.6,14.6,0,0,1,5,11l-10.11.44c-.44-2.57-1.37-4.43-2.79-5.55s-3.56-1.7-6.41-1.7a11.52,11.52,0,0,0-6.9,1.82,3.65,3.65,0,0,0-1.61,3.11,3.87,3.87,0,0,0,1.5,3q1.92,1.6,9.3,3.35a49.16,49.16,0,0,1,10.92,3.6,14.08,14.08,0,0,1,5.54,5.1,15.77,15.77,0,0,1-.39,16,14.39,14.39,0,0,1-6.77,5.59,28.36,28.36,0,0,1-10.9,1.83q-9.51,0-14.6-4.39T403.37,183.29Z"/><path class="cls-3" d="M484.68,181.17l9.81,3.11q-2.25,8.21-7.5,12.18t-13.32,4a21.56,21.56,0,0,1-16.4-6.82q-6.43-6.82-6.43-18.65,0-12.51,6.46-19.43t17-6.92q9.19,0,14.94,5.43a19.89,19.89,0,0,1,5.12,9.23l-10,2.4a10.34,10.34,0,0,0-10.56-8.41,11.38,11.38,0,0,0-9,4q-3.48,4-3.47,12.95,0,9.51,3.41,13.54a11.14,11.14,0,0,0,8.89,4,10.18,10.18,0,0,0,6.94-2.56Q483.42,186.68,484.68,181.17Z"/><path class="cls-3" d="M501.12,174.85A31.86,31.86,0,0,1,503.41,162a23.49,23.49,0,0,1,4.67-6.87,19.66,19.66,0,0,1,6.47-4.51,27.52,27.52,0,0,1,10.8-2q11.08,0,17.73,6.87t6.64,19.11q0,12.13-6.59,19t-17.64,6.86q-11.18,0-17.77-6.82T501.12,174.85Zm10.43-.35q0,8.52,3.93,12.91a13.51,13.51,0,0,0,19.91,0q3.87-4.37,3.87-13.07t-3.77-12.85a14,14,0,0,0-20.12,0Q511.55,165.86,511.55,174.5Z"/><path class="cls-3" d="M570.4,199.59l-17.91-50.11h11l12.68,37.09,12.28-37.09h10.73L581.2,199.59Z"/><path class="cls-3" d="M604.31,199.59V149.48h37.15V158h-27v11.11h25.15v8.44H614.43v13.64h28v8.44Z"/><path class="cls-3" d="M651,199.59V149.48h21.3q8,0,11.67,1.35a11.54,11.54,0,0,1,5.83,4.81,14.48,14.48,0,0,1,2.18,7.89,13.39,13.39,0,0,1-3.31,9.32q-3.32,3.68-9.91,4.63a23.36,23.36,0,0,1,5.41,4.2,56.31,56.31,0,0,1,5.76,8.14l6.12,9.77H684l-7.31-10.9a72.88,72.88,0,0,0-5.33-7.37,7.78,7.78,0,0,0-3.05-2.08,16.5,16.5,0,0,0-5.09-.57h-2.05v20.92Zm10.12-28.91h7.48q7.29,0,9.1-.62a5.46,5.46,0,0,0,2.83-2.12,6.46,6.46,0,0,0,1-3.76,6,6,0,0,0-1.35-4.08,6.17,6.17,0,0,0-3.81-2q-1.23-.16-7.38-.17h-7.9Z"/><path class="cls-3" d="M712.11,199.59V178.5l-18.35-29h11.86l11.79,19.83L729,149.48h11.66l-18.43,29.09v21Z"/><path class="cls-4" d="M341,292.69H514.66q58.76,0,89.58,9a157.55,157.55,0,0,1,71,43.35q29.53,31.16,44.95,76.26t15.42,111.26q0,58.11-14.45,100.18-17.67,51.38-50.41,83.16Q646,740,603.92,753.46q-31.47,9.94-84.13,9.95H341Zm95,79.63V684.1h71q39.81,0,57.48-4.49,23.12-5.79,38.37-19.59t24.88-45.43q9.63-31.64,9.63-86.22t-9.63-83.8q-9.63-29.22-27-45.6t-44-22.15q-19.92-4.5-78-4.5Z"/><rect class="cls-5" y="-2.64" width="1080" height="1080"/><path class="cls-3" d="M282.23,906.38V856.27h15.15l9.09,34.18,9-34.18h15.17v50.11h-9.4V866.94l-9.94,39.44h-9.74l-9.92-39.44v39.44Z"/><path class="cls-3" d="M340.37,906.38V856.27h10.12v50.11Z"/><path class="cls-3" d="M371.41,906.38V864.75H356.54v-8.48h39.82v8.48H381.53v41.63Z"/><path class="cls-3" d="M402.92,906.38V856.27h21.3q8,0,11.67,1.35a11.52,11.52,0,0,1,5.83,4.8,14.54,14.54,0,0,1,2.18,7.9,13.36,13.36,0,0,1-3.31,9.31q-3.31,3.68-9.91,4.64a23.36,23.36,0,0,1,5.41,4.2,56.65,56.65,0,0,1,5.76,8.13l6.12,9.78h-12.1l-7.31-10.9a69.62,69.62,0,0,0-5.34-7.37,7.68,7.68,0,0,0-3-2.08,16.5,16.5,0,0,0-5.09-.57h-2v20.92ZM413,877.46h7.48q7.29,0,9.1-.61a5.46,5.46,0,0,0,2.83-2.12,6.48,6.48,0,0,0,1-3.76,6,6,0,0,0-1.35-4.08,6.17,6.17,0,0,0-3.81-2q-1.23-.17-7.39-.17H413Z"/><path class="cls-3" d="M453.44,906.38V856.27h37.15v8.48h-27v11.11h25.15v8.44H463.56v13.64h28v8.44Z"/><path class="cls-3" d="M562.17,906.38h-11L546.78,895h-20l-4.14,11.38H511.89l19.51-50.11h10.7Zm-18.63-19.82L536.63,868l-6.76,18.6Z"/><path class="cls-3" d="M573.62,906.38V864.75H558.75v-8.48h39.82v8.48H583.73v41.63Z"/><path class="cls-3" d="M616.37,906.38V864.75H601.51v-8.48h39.82v8.48H626.49v41.63Z"/><path class="cls-3" d="M692.18,900.26l-5.81,7.42a34.29,34.29,0,0,1-8.2-5.74,20.75,20.75,0,0,1-6.46,4,22.8,22.8,0,0,1-8.13,1.3q-9.37,0-14.09-5.27a13.61,13.61,0,0,1-3.65-9.36,14.07,14.07,0,0,1,2.87-8.66,23.34,23.34,0,0,1,8.58-6.69,27.26,27.26,0,0,1-3.87-5.79,12.28,12.28,0,0,1-1.29-5.21,9.84,9.84,0,0,1,3.64-7.71q3.63-3.17,10.37-3.16,6.5,0,10.15,3.31a10.52,10.52,0,0,1,3.66,8.1,10.35,10.35,0,0,1-1.81,5.78q-1.82,2.73-7.32,6.19l7,9.19a23.46,23.46,0,0,0,2.11-5.71l8.69,2a54.24,54.24,0,0,1-2.26,6.75,18.38,18.38,0,0,1-2.05,3.57,39.52,39.52,0,0,0,4.15,3.3A33.25,33.25,0,0,0,692.18,900.26Zm-29.9-16.81a13,13,0,0,0-5,4,8.38,8.38,0,0,0-1.64,4.82,6.76,6.76,0,0,0,2,5.07,7.54,7.54,0,0,0,5.46,2,11,11,0,0,0,4.34-.89,18.75,18.75,0,0,0,4.54-2.94ZM666,873l2.59-2q2.88-2.22,2.88-4.41a4.19,4.19,0,0,0-1.39-3.15,6.14,6.14,0,0,0-7.33-.15,3.44,3.44,0,0,0-1.3,2.65q0,1.77,2.19,4.31Z"/><path class="cls-3" d="M730.47,888l9.81,3.11q-2.26,8.2-7.51,12.18t-13.31,4a21.59,21.59,0,0,1-16.41-6.81q-6.42-6.82-6.42-18.65,0-12.51,6.46-19.43t17-6.92q9.18,0,14.93,5.43a19.76,19.76,0,0,1,5.13,9.23l-10,2.39a10.32,10.32,0,0,0-10.56-8.4,11.41,11.41,0,0,0-9,4q-3.46,4-3.47,13c0,6.33,1.14,10.85,3.42,13.53a11.1,11.1,0,0,0,8.89,4A10.14,10.14,0,0,0,726.3,896Q729.2,893.46,730.47,888Z"/><path class="cls-3" d="M749.09,906.38V856.27h10.12v22.25l20.44-22.25h13.6l-18.86,19.52,19.89,30.59H781.19l-13.78-23.52-8.2,8.38v15.14Z"/></svg>