<svg id="Layer_1" data-name="Layer 1" xmlns="http://www.w3.org/2000/svg" viewBox="0 0 1080 1080"><defs><style>.cls-1{fill:#7c287d;}.cls-2,.cls-5{fill:none;}.cls-2{stroke:#231f20;stroke-miterlimit:10;stroke-width:0.5px;}.cls-3{fill:#fff;}.cls-4{fill:#231f20;}</style></defs><title>MITRE ATT&amp;amp;C</title><rect class="cls-1" x="278.61" y="92.14" width="526.26" height="212.63"/><rect class="cls-1" x="278.61" y="799.13" width="526.26" height="212.63"/><polygon class="cls-2" points="804.87 798.95 278.61 799.13 278.61 304.77 804.87 304.77 804.87 798.95"/><path class="cls-3" d="M422.71,175V124.92h10.12V175Z"/><path class="cls-3" d="M442.57,175V124.92h9.84l20.51,33.46V124.92h9.4V175H472.17L452,142.35V175Z"/><path class="cls-3" d="M492.71,175V124.92h10.12V175Z"/><path class="cls-3" d="M523.75,175V133.4H508.88v-8.48H548.7v8.48H533.87V175Z"/><path class="cls-3" d="M554.92,175V124.92H565V175Z"/><path class="cls-3" d="M619.86,175h-11l-4.38-11.39h-20L580.32,175H569.58l19.52-50.11h10.7ZM601.23,155.2l-6.9-18.59-6.77,18.59Z"/><path class="cls-3" d="M625.5,175v-49.7h10.12v41.25h25.15V175Z"/><path class="cls-3" d="M447.87,271.1h-11l-4.37-11.39h-20l-4.14,11.39H397.59L417.11,221h10.7Zm-18.63-19.83-6.9-18.59-6.77,18.59Z"/><path class="cls-3" d="M485.3,252.67l9.81,3.11Q492.85,264,487.6,268t-13.31,4a21.56,21.56,0,0,1-16.41-6.82q-6.42-6.81-6.42-18.64,0-12.51,6.46-19.44t17-6.92q9.18,0,14.93,5.44A19.76,19.76,0,0,1,495,234.8l-10,2.39a10.34,10.34,0,0,0-10.56-8.41,11.39,11.39,0,0,0-9,4q-3.47,4-3.47,12.95,0,9.51,3.42,13.54a11.1,11.1,0,0,0,8.89,4,10.13,10.13,0,0,0,6.94-2.56Q484,258.17,485.3,252.67Z"/><path class="cls-3" d="M535.85,252.67l9.81,3.11Q543.4,264,538.15,268t-13.31,4a21.53,21.53,0,0,1-16.4-6.82Q502,258.32,502,246.49q0-12.51,6.46-19.44t17-6.92q9.19,0,14.93,5.44a19.76,19.76,0,0,1,5.13,9.23l-10,2.39a10.36,10.36,0,0,0-10.57-8.41,11.4,11.4,0,0,0-9,4q-3.46,4-3.47,12.95,0,9.51,3.42,13.54a11.1,11.1,0,0,0,8.89,4,10.13,10.13,0,0,0,6.94-2.56Q534.58,258.17,535.85,252.67Z"/><path class="cls-3" d="M554.34,271.1V221h37.15v8.47h-27v11.11h25.15V249H564.46v13.63h28v8.45Z"/><path class="cls-3" d="M598.46,254.79l9.85-1q.88,5,3.6,7.28a10.93,10.93,0,0,0,7.34,2.33c3.25,0,5.71-.69,7.36-2.07a6.16,6.16,0,0,0,2.48-4.84,4.58,4.58,0,0,0-1-3,8.34,8.34,0,0,0-3.64-2.17q-1.78-.61-8.1-2.19-8.14-2-11.42-5a13,13,0,0,1-4.61-10.09,12.85,12.85,0,0,1,2.17-7.16,13.54,13.54,0,0,1,6.25-5.07,24.91,24.91,0,0,1,9.86-1.75q9.44,0,14.2,4.14a14.61,14.61,0,0,1,5,11l-10.12.44a8.6,8.6,0,0,0-2.78-5.55c-1.43-1.13-3.56-1.69-6.41-1.69a11.52,11.52,0,0,0-6.9,1.81,3.62,3.62,0,0,0-1.61,3.11,3.85,3.85,0,0,0,1.5,3q1.92,1.6,9.3,3.35a49.07,49.07,0,0,1,10.92,3.61,14.12,14.12,0,0,1,5.54,5.09,14.9,14.9,0,0,1,2,8,14.75,14.75,0,0,1-2.4,8.07,14.37,14.37,0,0,1-6.76,5.59A28.58,28.58,0,0,1,619.14,272q-9.5,0-14.59-4.39T598.46,254.79Z"/><path class="cls-3" d="M645.15,254.79l9.85-1q.88,5,3.6,7.28a10.93,10.93,0,0,0,7.34,2.33c3.25,0,5.71-.69,7.36-2.07a6.16,6.16,0,0,0,2.48-4.84,4.58,4.58,0,0,0-1-3,8.34,8.34,0,0,0-3.64-2.17q-1.79-.61-8.1-2.19-8.14-2-11.42-5A13,13,0,0,1,647,234.11a12.85,12.85,0,0,1,2.17-7.16,13.54,13.54,0,0,1,6.25-5.07,24.91,24.91,0,0,1,9.86-1.75q9.43,0,14.2,4.14a14.61,14.61,0,0,1,5,11l-10.12.44a8.6,8.6,0,0,0-2.78-5.55c-1.43-1.13-3.56-1.69-6.41-1.69a11.58,11.58,0,0,0-6.91,1.81,3.64,3.64,0,0,0-1.6,3.11,3.85,3.85,0,0,0,1.5,3q1.92,1.6,9.3,3.35a49.07,49.07,0,0,1,10.92,3.61,14.12,14.12,0,0,1,5.54,5.09,14.9,14.9,0,0,1,2,8,14.75,14.75,0,0,1-2.4,8.07,14.37,14.37,0,0,1-6.76,5.59A28.62,28.62,0,0,1,665.83,272q-9.5,0-14.59-4.39T645.15,254.79Z"/><path class="cls-4" d="M296.77,741v-378H373.1V741Z"/><path class="cls-4" d="M786.72,741h-83l-33-85.87H519.57L488.36,741h-81l147.25-378h80.71ZM646.18,591.4,594.09,451.12,543,591.4Z"/><rect class="cls-5" width="1080" height="1080"/><path class="cls-3" d="M267.26,930.28V880.17h15.15l9.09,34.18,9-34.18h15.17v50.11h-9.4V890.83l-9.94,39.45h-9.74l-9.92-39.45v39.45Z"/><path class="cls-3" d="M325.4,930.28V880.17h10.12v50.11Z"/><path class="cls-3" d="M356.44,930.28V888.65H341.57v-8.48h39.82v8.48H366.56v41.63Z"/><path class="cls-3" d="M388,930.28V880.17h21.3q8,0,11.67,1.35a11.52,11.52,0,0,1,5.83,4.8,14.52,14.52,0,0,1,2.18,7.9,13.36,13.36,0,0,1-3.31,9.31q-3.31,3.68-9.91,4.63a23.66,23.66,0,0,1,5.41,4.21,55.5,55.5,0,0,1,5.76,8.13l6.12,9.78H420.9l-7.31-10.91a70.23,70.23,0,0,0-5.34-7.36,7.71,7.71,0,0,0-3-2.09,16.89,16.89,0,0,0-5.09-.56h-2.05v20.92Zm10.12-28.92h7.48q7.29,0,9.1-.61a5.46,5.46,0,0,0,2.83-2.12,6.5,6.5,0,0,0,1-3.76,6,6,0,0,0-1.35-4.09,6.21,6.21,0,0,0-3.81-2c-.82-.12-3.28-.17-7.39-.17h-7.89Z"/><path class="cls-3" d="M438.47,930.28V880.17h37.15v8.48h-27v11.1h25.15v8.45H448.59v13.63h28v8.45Z"/><path class="cls-3" d="M547.2,930.28h-11l-4.38-11.39h-20l-4.14,11.39H496.92l19.51-50.11h10.7Zm-18.63-19.83-6.91-18.59-6.76,18.59Z"/><path class="cls-3" d="M558.65,930.28V888.65H543.78v-8.48H583.6v8.48H568.76v41.63Z"/><path class="cls-3" d="M601.4,930.28V888.65H586.54v-8.48h39.82v8.48H611.52v41.63Z"/><path class="cls-3" d="M677.21,924.16l-5.81,7.42a34.06,34.06,0,0,1-8.2-5.75,20.61,20.61,0,0,1-6.46,4,23,23,0,0,1-8.13,1.3q-9.37,0-14.09-5.27a13.61,13.61,0,0,1-3.65-9.36,14.1,14.1,0,0,1,2.87-8.67,23.43,23.43,0,0,1,8.58-6.68,27.51,27.51,0,0,1-3.87-5.79,12.36,12.36,0,0,1-1.29-5.22,9.8,9.8,0,0,1,3.64-7.7q3.63-3.16,10.37-3.17,6.5,0,10.15,3.32a10.52,10.52,0,0,1,3.66,8.1,10.37,10.37,0,0,1-1.81,5.78q-1.81,2.73-7.32,6.18l7,9.2a23.46,23.46,0,0,0,2.11-5.71l8.69,2a53.09,53.09,0,0,1-2.26,6.75,17.79,17.79,0,0,1-2,3.57,37.08,37.08,0,0,0,4.15,3.3A32.27,32.27,0,0,0,677.21,924.16Zm-29.9-16.82a13,13,0,0,0-5,4,8.35,8.35,0,0,0-1.64,4.81,6.76,6.76,0,0,0,2,5.08,7.54,7.54,0,0,0,5.46,2,11,11,0,0,0,4.34-.89,19.38,19.38,0,0,0,4.54-2.94Zm3.76-10.42,2.59-2q2.88-2.22,2.88-4.4a4.19,4.19,0,0,0-1.39-3.15,5.27,5.27,0,0,0-3.74-1.3,5.21,5.21,0,0,0-3.59,1.15,3.42,3.42,0,0,0-1.3,2.65c0,1.18.73,2.62,2.19,4.3Z"/><path class="cls-3" d="M715.5,911.85l9.81,3.11q-2.26,8.2-7.51,12.19t-13.31,4a21.56,21.56,0,0,1-16.41-6.82q-6.42-6.81-6.42-18.64,0-12.51,6.46-19.43t17-6.93q9.18,0,14.93,5.44a19.76,19.76,0,0,1,5.13,9.23l-10,2.39A10.34,10.34,0,0,0,704.59,888a11.42,11.42,0,0,0-9,4q-3.46,4-3.47,13,0,9.5,3.42,13.53a11.1,11.1,0,0,0,8.89,4,10.13,10.13,0,0,0,6.94-2.56Q714.22,917.36,715.5,911.85Z"/><path class="cls-3" d="M734.12,930.28V880.17h10.12v22.25l20.44-22.25h13.6l-18.86,19.52,19.89,30.59H766.22l-13.78-23.52-8.2,8.38v15.14Z"/></svg>