<svg id="Layer_1" data-name="Layer 1" xmlns="http://www.w3.org/2000/svg" viewBox="0 0 1080 1080"><defs><style>.cls-1{fill:#7c287d;}.cls-2,.cls-5{fill:none;}.cls-2{stroke:#231f20;stroke-miterlimit:10;stroke-width:0.5px;}.cls-3{fill:#fff;}.cls-4{fill:#231f20;}</style></defs><title>MITRE ATT&amp;amp;C</title><rect class="cls-1" x="276.87" y="56.29" width="526.26" height="212.63"/><rect class="cls-1" x="276.87" y="763.29" width="526.26" height="212.63"/><polygon class="cls-2" points="803.13 763.1 276.87 763.28 276.87 268.92 803.13 268.92 803.13 763.1"/><path class="cls-3" d="M411.55,187.66V137.55h10.12v50.11Z"/><path class="cls-3" d="M431.17,187.66V137.55h15.14l9.1,34.18,9-34.18h15.18v50.11h-9.4V148.22l-9.95,39.44h-9.74l-9.91-39.44v39.44Z"/><path class="cls-3" d="M489.62,187.66V137.55h16.23q9.24,0,12,.75a13.19,13.19,0,0,1,7.21,4.91A15.6,15.6,0,0,1,528,153a16.46,16.46,0,0,1-1.67,7.76,13.88,13.88,0,0,1-4.26,4.94,14.83,14.83,0,0,1-5.24,2.37,57.7,57.7,0,0,1-10.5.72h-6.59v18.9ZM499.74,146v14.22h5.53q6,0,8-.79a6.55,6.55,0,0,0,3.16-2.46,6.69,6.69,0,0,0,1.15-3.9,6.49,6.49,0,0,0-1.61-4.51,7,7,0,0,0-4.07-2.22,48.3,48.3,0,0,0-7.28-.34Z"/><path class="cls-3" d="M576.3,187.66h-11l-4.37-11.38h-20l-4.14,11.38H526l19.52-50.11h10.7Zm-18.63-19.82-6.9-18.6L544,167.84Z"/><path class="cls-3" d="M613.73,169.24l9.81,3.11q-2.26,8.21-7.51,12.18t-13.31,4a21.59,21.59,0,0,1-16.41-6.81q-6.42-6.82-6.42-18.65,0-12.51,6.46-19.43t17-6.92q9.2,0,14.94,5.43a19.81,19.81,0,0,1,5.13,9.23l-10,2.39a10.32,10.32,0,0,0-10.56-8.4,11.41,11.41,0,0,0-9,4q-3.46,4-3.47,13c0,6.33,1.14,10.85,3.42,13.53a11.1,11.1,0,0,0,8.89,4,10.14,10.14,0,0,0,6.94-2.57Q612.46,174.74,613.73,169.24Z"/><path class="cls-3" d="M643.5,187.66V146H628.63v-8.48h39.82V146H653.61v41.63Z"/><path class="cls-4" d="M492.37,752V280.22h95.26V752Z"/><rect class="cls-5" y="2.53" width="1080" height="1080"/><path class="cls-3" d="M284,894.43V844.32h15.14l9.09,34.18,9-34.18h15.18v50.11H323V855l-10,39.44h-9.74L293.38,855v39.44Z"/><path class="cls-3" d="M342.12,894.43V844.32h10.11v50.11Z"/><path class="cls-3" d="M373.15,894.43V852.8H358.28v-8.48H398.1v8.48H383.27v41.63Z"/><path class="cls-3" d="M404.67,894.43V844.32H426c5.35,0,9.25.45,11.67,1.35a11.54,11.54,0,0,1,5.83,4.81,14.41,14.41,0,0,1,2.19,7.89,13.4,13.4,0,0,1-3.32,9.32q-3.31,3.67-9.91,4.63a23.43,23.43,0,0,1,5.42,4.2,57.94,57.94,0,0,1,5.76,8.14l6.11,9.77h-12.1l-7.31-10.9a71.26,71.26,0,0,0-5.33-7.37,7.75,7.75,0,0,0-3-2.08,16.58,16.58,0,0,0-5.1-.57h-2.05v20.92Zm10.11-28.91h7.49q7.28,0,9.09-.62a5.49,5.49,0,0,0,2.84-2.12,6.53,6.53,0,0,0,1-3.76,6,6,0,0,0-1.35-4.08,6.17,6.17,0,0,0-3.81-2q-1.23-.16-7.38-.17h-7.9Z"/><path class="cls-3" d="M455.18,894.43V844.32h37.16v8.48h-27v11.11h25.16v8.44H465.3V886h28v8.44Z"/><path class="cls-3" d="M563.91,894.43h-11l-4.37-11.38h-20l-4.14,11.38H513.63l19.52-50.11h10.7Zm-18.63-19.82-6.9-18.6-6.77,18.6Z"/><path class="cls-3" d="M575.36,894.43V852.8H560.49v-8.48h39.82v8.48H585.48v41.63Z"/><path class="cls-3" d="M618.12,894.43V852.8H603.25v-8.48h39.82v8.48H628.23v41.63Z"/><path class="cls-3" d="M693.93,888.31l-5.81,7.42a33.86,33.86,0,0,1-8.21-5.74,20.46,20.46,0,0,1-6.46,4,22.77,22.77,0,0,1-8.13,1.3q-9.36,0-14.08-5.26a13.62,13.62,0,0,1-3.66-9.37,14.13,14.13,0,0,1,2.87-8.66,23.62,23.62,0,0,1,8.58-6.69,26.57,26.57,0,0,1-3.86-5.79,12.16,12.16,0,0,1-1.3-5.21,9.84,9.84,0,0,1,3.64-7.71q3.65-3.17,10.37-3.16,6.5,0,10.15,3.31a10.55,10.55,0,0,1,3.66,8.11,10.26,10.26,0,0,1-1.81,5.77q-1.82,2.75-7.31,6.19l7,9.19a23.85,23.85,0,0,0,2.12-5.71l8.68,2a54.24,54.24,0,0,1-2.26,6.75,17.88,17.88,0,0,1-2.05,3.57,39.76,39.76,0,0,0,4.16,3.3A30.22,30.22,0,0,0,693.93,888.31ZM664,871.5a13,13,0,0,0-5,4,8.38,8.38,0,0,0-1.64,4.82,6.77,6.77,0,0,0,2,5.08,7.5,7.5,0,0,0,5.45,2,11,11,0,0,0,4.34-.89,18.79,18.79,0,0,0,4.55-2.94Zm3.76-10.43,2.6-2q2.86-2.22,2.87-4.41a4.14,4.14,0,0,0-1.38-3.14,6.14,6.14,0,0,0-7.34-.16,3.48,3.48,0,0,0-1.3,2.65c0,1.19.73,2.62,2.19,4.31Z"/><path class="cls-3" d="M732.21,876l9.81,3.11q-2.25,8.21-7.5,12.18t-13.32,4a21.56,21.56,0,0,1-16.4-6.82q-6.43-6.83-6.43-18.65,0-12.51,6.46-19.43t17-6.92q9.2,0,14.94,5.43a19.89,19.89,0,0,1,5.12,9.23l-10,2.4a10.34,10.34,0,0,0-10.56-8.41,11.38,11.38,0,0,0-9,4q-3.48,4-3.47,13,0,9.51,3.41,13.54a11.14,11.14,0,0,0,8.89,4,10.14,10.14,0,0,0,6.94-2.57Q731,881.52,732.21,876Z"/><path class="cls-3" d="M750.84,894.43V844.32H761v22.25l20.44-22.25H795l-18.87,19.52L796,894.43H782.93l-13.77-23.51L761,879.29v15.14Z"/></svg>