<svg id="Layer_1" data-name="Layer 1" xmlns="http://www.w3.org/2000/svg" viewBox="0 0 1080 1080"><defs><style>.cls-1{fill:#7c287d;}.cls-2,.cls-5{fill:none;}.cls-2{stroke:#231f20;stroke-miterlimit:10;stroke-width:0.5px;}.cls-3{fill:#fff;}.cls-4{fill:#231f20;}</style></defs><title>MITRE ATT&amp;amp;C</title><rect class="cls-1" x="276.87" y="68.24" width="526.26" height="212.63"/><rect class="cls-1" x="276.87" y="775.23" width="526.26" height="212.63"/><polygon class="cls-2" points="803.13 775.05 276.87 775.23 276.87 280.87 803.13 280.87 803.13 775.05"/><path class="cls-3" d="M383,160.74V111h10.12V152.3H418.3v8.44Z"/><path class="cls-3" d="M470.7,160.74h-11l-4.37-11.38h-20l-4.14,11.38H420.42l19.52-50.11h10.7Zm-18.63-19.83-6.9-18.59-6.77,18.59Z"/><path class="cls-3" d="M482.15,160.74V119.11H467.28v-8.48H507.1v8.48H492.27v41.63Z"/><path class="cls-3" d="M513.63,160.74V110.63h37.15v8.48h-27v11.11H548.9v8.44H523.75V152.3h28v8.44Z"/><path class="cls-3" d="M560.35,160.74V110.63h21.3q8,0,11.67,1.35a11.52,11.52,0,0,1,5.83,4.8,14.44,14.44,0,0,1,2.19,7.9A13.37,13.37,0,0,1,598,134q-3.32,3.67-9.91,4.63a23.73,23.73,0,0,1,5.42,4.21,57,57,0,0,1,5.75,8.13l6.12,9.78H593.3L586,149.83a72.3,72.3,0,0,0-5.33-7.36,7.85,7.85,0,0,0-3-2.09,16.84,16.84,0,0,0-5.09-.56h-2v20.92Zm10.12-28.92H578q7.27,0,9.09-.61a5.49,5.49,0,0,0,2.84-2.12,6.55,6.55,0,0,0,1-3.76,6,6,0,0,0-1.35-4.09,6.21,6.21,0,0,0-3.81-2c-.82-.12-3.28-.17-7.38-.17h-7.9Z"/><path class="cls-3" d="M656.06,160.74h-11l-4.37-11.38h-20l-4.14,11.38H605.78l19.52-50.11H636Zm-18.63-19.83-6.91-18.59-6.76,18.59Z"/><path class="cls-3" d="M661.7,160.74V111h10.11V152.3H697v8.44Z"/><path class="cls-3" d="M341,237.62v-50.1h15.14l9.1,34.18,9-34.18h15.18v50.1H380V198.18l-10,39.44h-9.74l-9.91-39.44v39.44Z"/><path class="cls-3" d="M397.37,212.88A31.81,31.81,0,0,1,399.66,200a23.65,23.65,0,0,1,4.66-6.87,19.45,19.45,0,0,1,6.48-4.51,27.34,27.34,0,0,1,10.8-2q11.07,0,17.72,6.87T446,212.64q0,12.13-6.59,19t-17.64,6.85q-11.17,0-17.78-6.82T397.37,212.88Zm10.42-.34q0,8.51,3.93,12.9a12.8,12.8,0,0,0,10,4.39,12.67,12.67,0,0,0,9.93-4.36q3.89-4.35,3.88-13.07t-3.77-12.85a14,14,0,0,0-20.12,0Q407.79,203.89,407.79,212.54Z"/><path class="cls-3" d="M466.65,237.62l-17.91-50.1h11l12.68,37.08,12.27-37.08H495.4l-17.95,50.1Z"/><path class="cls-3" d="M500.56,237.62v-50.1h37.15V196h-27V207.1h25.16v8.44H510.67v13.64h28v8.44Z"/><path class="cls-3" d="M547.11,237.62v-50.1h15.14l9.09,34.18,9-34.18h15.18v50.1h-9.4V198.18l-10,39.44h-9.74l-9.91-39.44v39.44Z"/><path class="cls-3" d="M605.56,237.62v-50.1h37.15V196h-27V207.1h25.16v8.44H615.67v13.64h28v8.44Z"/><path class="cls-3" d="M652.35,237.62v-50.1h9.84L682.7,221V187.52h9.4v50.1H682L661.75,205v32.67Z"/><path class="cls-3" d="M714.08,237.62V196H699.21v-8.47H739V196H724.19v41.63Z"/><path class="cls-4" d="M291.11,665.48V392.87h55.5v226.3h138v46.31Z"/><path class="cls-4" d="M523.41,665.48V390.62h83.05l49.88,187.49,49.31-187.49h83.24V665.48H737.33V449.12L682.77,665.48H629.34L575,449.12V665.48Z"/><rect class="cls-5" y="-2.64" width="1080" height="1080"/><path class="cls-3" d="M284,906.38V856.27h15.14l9.09,34.18,9-34.18h15.18v50.11H323V866.94l-10,39.44h-9.74l-9.91-39.44v39.44Z"/><path class="cls-3" d="M342.12,906.38V856.27h10.11v50.11Z"/><path class="cls-3" d="M373.15,906.38V864.75H358.28v-8.48H398.1v8.48H383.27v41.63Z"/><path class="cls-3" d="M404.67,906.38V856.27H426c5.35,0,9.25.45,11.67,1.35a11.52,11.52,0,0,1,5.83,4.8,14.46,14.46,0,0,1,2.19,7.9,13.37,13.37,0,0,1-3.32,9.31q-3.31,3.68-9.91,4.64a23.43,23.43,0,0,1,5.42,4.2,58.31,58.31,0,0,1,5.76,8.13l6.11,9.78h-12.1l-7.31-10.9a70.09,70.09,0,0,0-5.33-7.37,7.75,7.75,0,0,0-3-2.08,16.58,16.58,0,0,0-5.1-.57h-2.05v20.92Zm10.11-28.92h7.49q7.28,0,9.09-.61a5.49,5.49,0,0,0,2.84-2.12,6.55,6.55,0,0,0,1-3.76,6,6,0,0,0-1.35-4.08,6.17,6.17,0,0,0-3.81-2q-1.23-.17-7.38-.17h-7.9Z"/><path class="cls-3" d="M455.18,906.38V856.27h37.16v8.48h-27v11.11h25.16v8.44H465.3v13.64h28v8.44Z"/><path class="cls-3" d="M563.91,906.38h-11L548.53,895h-20l-4.14,11.38H513.63l19.52-50.11h10.7Zm-18.63-19.82-6.9-18.6-6.77,18.6Z"/><path class="cls-3" d="M575.36,906.38V864.75H560.49v-8.48h39.82v8.48H585.48v41.63Z"/><path class="cls-3" d="M618.12,906.38V864.75H603.25v-8.48h39.82v8.48H628.23v41.63Z"/><path class="cls-3" d="M693.93,900.26l-5.81,7.42a34.14,34.14,0,0,1-8.21-5.74,20.64,20.64,0,0,1-6.46,4,22.77,22.77,0,0,1-8.13,1.3q-9.36,0-14.08-5.27a13.58,13.58,0,0,1-3.66-9.36,14.13,14.13,0,0,1,2.87-8.66,23.51,23.51,0,0,1,8.58-6.69,26.81,26.81,0,0,1-3.86-5.79,12.16,12.16,0,0,1-1.3-5.21,9.84,9.84,0,0,1,3.64-7.71q3.65-3.17,10.37-3.16,6.5,0,10.15,3.31a10.52,10.52,0,0,1,3.66,8.1,10.27,10.27,0,0,1-1.81,5.78q-1.82,2.73-7.31,6.19l7,9.19a23.85,23.85,0,0,0,2.12-5.71l8.68,2a54.24,54.24,0,0,1-2.26,6.75,17.88,17.88,0,0,1-2.05,3.57,39.76,39.76,0,0,0,4.16,3.3A31.51,31.51,0,0,0,693.93,900.26ZM664,883.45a13,13,0,0,0-5,4,8.38,8.38,0,0,0-1.64,4.82,6.73,6.73,0,0,0,2,5.07,7.5,7.5,0,0,0,5.45,2,11,11,0,0,0,4.34-.89,18.79,18.79,0,0,0,4.55-2.94ZM667.78,873l2.6-2q2.86-2.22,2.87-4.41a4.18,4.18,0,0,0-1.38-3.15,6.16,6.16,0,0,0-7.34-.15,3.47,3.47,0,0,0-1.3,2.65q0,1.77,2.19,4.31Z"/><path class="cls-3" d="M732.21,888l9.81,3.11q-2.25,8.2-7.5,12.18t-13.32,4a21.55,21.55,0,0,1-16.4-6.81q-6.43-6.82-6.43-18.65,0-12.51,6.46-19.43t17-6.92q9.2,0,14.94,5.43a19.84,19.84,0,0,1,5.12,9.23l-10,2.39a10.34,10.34,0,0,0-10.56-8.4,11.4,11.4,0,0,0-9,4q-3.48,4-3.47,13c0,6.33,1.14,10.85,3.41,13.53a11.12,11.12,0,0,0,8.89,4A10.14,10.14,0,0,0,728,896Q731,893.46,732.21,888Z"/><path class="cls-3" d="M750.84,906.38V856.27H761v22.25l20.44-22.25H795l-18.87,19.52L796,906.38H782.93l-13.77-23.52L761,891.24v15.14Z"/></svg>