<svg id="Layer_1" data-name="Layer 1" xmlns="http://www.w3.org/2000/svg" viewBox="0 0 1080 1080"><defs><style>.cls-1{fill:#7c287d;}.cls-2,.cls-5{fill:none;}.cls-2{stroke:#231f20;stroke-miterlimit:10;stroke-width:0.5px;}.cls-3{fill:#fff;}.cls-4{fill:#231f20;}</style></defs><title>MITRE ATT&amp;amp;C</title><rect class="cls-1" x="276.87" y="80.19" width="526.26" height="212.63"/><rect class="cls-1" x="276.87" y="787.18" width="526.26" height="212.63"/><polygon class="cls-2" points="803.13 787 276.87 787.18 276.87 292.82 803.13 292.82 803.13 787"/><path class="cls-3" d="M357.58,169.44V119.33h16.24q9.23,0,12,.75a13.14,13.14,0,0,1,7.21,4.91,15.51,15.51,0,0,1,2.91,9.75,16.28,16.28,0,0,1-1.68,7.76,13.59,13.59,0,0,1-4.25,4.94,14.65,14.65,0,0,1-5.25,2.38,57.57,57.57,0,0,1-10.49.72h-6.6v18.9Zm10.12-41.63V142h5.54q6,0,8-.78a6.56,6.56,0,0,0,4.3-6.36,6.47,6.47,0,0,0-1.6-4.51,7,7,0,0,0-4.07-2.22,48.48,48.48,0,0,0-7.28-.34Z"/><path class="cls-3" d="M404.31,169.44V119.33H425.6q8,0,11.67,1.35a11.52,11.52,0,0,1,5.83,4.8,14.44,14.44,0,0,1,2.19,7.9,13.37,13.37,0,0,1-3.32,9.31q-3.32,3.67-9.91,4.63a23.73,23.73,0,0,1,5.42,4.21,57.09,57.09,0,0,1,5.76,8.13l6.12,9.78h-12.1l-7.32-10.91a70.7,70.7,0,0,0-5.33-7.36,7.78,7.78,0,0,0-3-2.09,16.92,16.92,0,0,0-5.1-.56h-2.05v20.92Zm10.11-28.92h7.49q7.27,0,9.09-.61a5.49,5.49,0,0,0,2.84-2.12,6.58,6.58,0,0,0,1-3.76,6,6,0,0,0-1.35-4.09,6.21,6.21,0,0,0-3.81-2c-.82-.12-3.28-.17-7.38-.17h-7.9Z"/><path class="cls-3" d="M454.52,169.44V119.33h10.11v50.11Z"/><path class="cls-3" d="M487.06,169.44l-17.91-50.11h11l12.68,37.08,12.27-37.08H515.8l-17.94,50.11Z"/><path class="cls-3" d="M520.65,169.44V119.33h10.12v50.11Z"/><path class="cls-3" d="M540.68,169.44v-49.7H550.8V161H576v8.45Z"/><path class="cls-3" d="M583.17,169.44V119.33h37.15v8.48h-27v11.1h25.15v8.45H593.29V161h28v8.45Z"/><path class="cls-3" d="M653.17,151v-8.44H675v20a27.43,27.43,0,0,1-9.22,5.42,33.52,33.52,0,0,1-12.22,2.34,27.4,27.4,0,0,1-13.7-3.3,21,21,0,0,1-8.79-9.43,30.48,30.48,0,0,1-2.93-13.35,28.81,28.81,0,0,1,3.28-13.91A22.08,22.08,0,0,1,641,121a26,26,0,0,1,12-2.5q9.33,0,14.58,3.92a17.73,17.73,0,0,1,6.75,10.82l-10.05,1.88a10.66,10.66,0,0,0-4-5.83,12,12,0,0,0-7.3-2.14q-6.63,0-10.55,4.21t-3.91,12.47q0,8.92,4,13.38a13.24,13.24,0,0,0,10.4,4.46,17.46,17.46,0,0,0,6.37-1.24,22.05,22.05,0,0,0,5.49-3V151Z"/><path class="cls-3" d="M684.31,169.44V119.33h37.15v8.48h-27v11.1h25.16v8.45H694.42V161h28v8.45Z"/><path class="cls-3" d="M320.45,253.64v-50.1H357.6V212h-27v11.11h25.16v8.44H330.56V245.2h28v8.44Z"/><path class="cls-3" d="M364.57,237.34l9.85-1c.59,3.31,1.79,5.73,3.6,7.28a10.91,10.91,0,0,0,7.33,2.33q4.89,0,7.37-2.07a6.16,6.16,0,0,0,2.48-4.84,4.58,4.58,0,0,0-1-3,8.34,8.34,0,0,0-3.64-2.17q-1.78-.62-8.11-2.19-8.13-2-11.41-5a13.14,13.14,0,0,1-2.45-17.24,13.7,13.7,0,0,1,6.26-5.08,25.1,25.1,0,0,1,9.86-1.74q9.43,0,14.2,4.14a14.57,14.57,0,0,1,5,11l-10.12.44a8.6,8.6,0,0,0-2.78-5.55c-1.43-1.13-3.56-1.69-6.41-1.69a11.58,11.58,0,0,0-6.91,1.81,3.64,3.64,0,0,0-1.6,3.11,3.85,3.85,0,0,0,1.5,3q1.92,1.6,9.3,3.35a49.16,49.16,0,0,1,10.92,3.6,14.15,14.15,0,0,1,5.54,5.1,14.9,14.9,0,0,1,2,8,14.69,14.69,0,0,1-2.4,8.06,14.29,14.29,0,0,1-6.77,5.59,28.33,28.33,0,0,1-10.9,1.83q-9.5,0-14.59-4.39T364.57,237.34Z"/><path class="cls-3" d="M445.89,235.22l9.81,3.11q-2.26,8.21-7.51,12.19t-13.31,4a21.6,21.6,0,0,1-16.41-6.82q-6.42-6.83-6.42-18.65,0-12.51,6.46-19.43t17-6.92q9.19,0,14.93,5.44a19.72,19.72,0,0,1,5.13,9.22l-10,2.4A10.32,10.32,0,0,0,435,211.33a11.4,11.4,0,0,0-9,4q-3.46,4-3.47,12.95,0,9.51,3.42,13.54a11.1,11.1,0,0,0,8.89,4,10.13,10.13,0,0,0,6.94-2.56Q444.61,240.73,445.89,235.22Z"/><path class="cls-3" d="M509.56,253.64h-11l-4.38-11.38h-20L470,253.64H459.28l19.52-50.1h10.7Zm-18.63-19.82L484,215.23l-6.77,18.59Z"/><path class="cls-3" d="M515.2,253.64V204h10.12V245.2h25.16v8.44Z"/><path class="cls-3" d="M602.87,253.64h-11l-4.38-11.38h-20l-4.13,11.38H552.6l19.51-50.1h10.7Zm-18.62-19.82-6.91-18.59-6.77,18.59Z"/><path class="cls-3" d="M614.32,253.64V212H599.46v-8.47h39.81V212H624.44v41.63Z"/><path class="cls-3" d="M645.5,253.64v-50.1h10.11v50.1Z"/><path class="cls-3" d="M663.2,228.9a31.77,31.77,0,0,1,2.29-12.85,23.23,23.23,0,0,1,4.67-6.87,19.54,19.54,0,0,1,6.47-4.52,27.52,27.52,0,0,1,10.8-2q11.09,0,17.73,6.87t6.64,19.11q0,12.14-6.59,19t-17.64,6.86q-11.18,0-17.77-6.82T663.2,228.9Zm10.43-.34q0,8.5,3.93,12.9a13.51,13.51,0,0,0,19.91,0q3.87-4.35,3.88-13.07t-3.78-12.85a14,14,0,0,0-20.12.05Q673.63,219.91,673.63,228.56Z"/><path class="cls-3" d="M719.8,253.64v-50.1h9.85L750.15,237V203.54h9.4v50.1H749.4L729.2,221v32.67Z"/><path class="cls-4" d="M286.65,689.7V390.3h97q55.14,0,71.89,4.49,25.72,6.73,43.09,29.31T516,482.41q0,27.57-10,46.36t-25.42,29.51Q465.15,569,449.22,572.47q-21.66,4.29-62.7,4.29H347.1V689.7ZM347.1,441v85h33.09q35.73,0,47.79-4.7a39.74,39.74,0,0,0,18.89-14.7,40.28,40.28,0,0,0,6.84-23.29q0-16.34-9.6-27A41.85,41.85,0,0,0,419.81,443q-10.83-2-43.51-2Z"/><path class="cls-4" d="M565.63,689.7V390.3h222V441H626.09v66.37H776.4v50.45H626.09v81.49H793.35V689.7Z"/><rect class="cls-5" y="-10.82" width="1080" height="1080"/><path class="cls-3" d="M284,918.33V868.22h15.14l9.09,34.18,9-34.18h15.18v50.11H323V878.88l-10,39.45h-9.74l-9.91-39.45v39.45Z"/><path class="cls-3" d="M342.12,918.33V868.22h10.11v50.11Z"/><path class="cls-3" d="M373.15,918.33V876.7H358.28v-8.48H398.1v8.48H383.27v41.63Z"/><path class="cls-3" d="M404.67,918.33V868.22H426c5.35,0,9.25.45,11.67,1.35a11.52,11.52,0,0,1,5.83,4.8,14.44,14.44,0,0,1,2.19,7.9,13.37,13.37,0,0,1-3.32,9.31q-3.31,3.67-9.91,4.63a23.73,23.73,0,0,1,5.42,4.21,57.69,57.69,0,0,1,5.76,8.13l6.11,9.78h-12.1l-7.31-10.91a70.7,70.7,0,0,0-5.33-7.36,7.89,7.89,0,0,0-3-2.09,17,17,0,0,0-5.1-.56h-2.05v20.92Zm10.11-28.92h7.49q7.28,0,9.09-.61a5.49,5.49,0,0,0,2.84-2.12,6.55,6.55,0,0,0,1-3.76,6,6,0,0,0-1.35-4.09,6.21,6.21,0,0,0-3.81-2c-.82-.12-3.28-.17-7.38-.17h-7.9Z"/><path class="cls-3" d="M455.18,918.33V868.22h37.16v8.48h-27v11.11h25.16v8.44H465.3v13.64h28v8.44Z"/><path class="cls-3" d="M563.91,918.33h-11L548.53,907h-20l-4.14,11.38H513.63l19.52-50.11h10.7ZM545.28,898.5l-6.9-18.59-6.77,18.59Z"/><path class="cls-3" d="M575.36,918.33V876.7H560.49v-8.48h39.82v8.48H585.48v41.63Z"/><path class="cls-3" d="M618.12,918.33V876.7H603.25v-8.48h39.82v8.48H628.23v41.63Z"/><path class="cls-3" d="M693.93,912.21l-5.81,7.42a33.91,33.91,0,0,1-8.21-5.75,20.49,20.49,0,0,1-6.46,4,23,23,0,0,1-8.13,1.3q-9.36,0-14.08-5.27a13.58,13.58,0,0,1-3.66-9.36,14.18,14.18,0,0,1,2.87-8.67,23.6,23.6,0,0,1,8.58-6.68,27.05,27.05,0,0,1-3.86-5.79,12.19,12.19,0,0,1-1.3-5.21,9.84,9.84,0,0,1,3.64-7.71q3.65-3.16,10.37-3.16,6.5,0,10.15,3.31a10.52,10.52,0,0,1,3.66,8.1,10.27,10.27,0,0,1-1.81,5.78q-1.82,2.73-7.31,6.19l7,9.19a23.85,23.85,0,0,0,2.12-5.71l8.68,2a53.09,53.09,0,0,1-2.26,6.75,17.7,17.7,0,0,1-2.05,3.58,38.54,38.54,0,0,0,4.16,3.29A30.63,30.63,0,0,0,693.93,912.21ZM664,895.39a13,13,0,0,0-5,4,8.38,8.38,0,0,0-1.64,4.82,6.73,6.73,0,0,0,2,5.07,7.5,7.5,0,0,0,5.45,2,11,11,0,0,0,4.34-.89,18.79,18.79,0,0,0,4.55-2.94ZM667.78,885l2.6-2q2.86-2.22,2.87-4.41a4.18,4.18,0,0,0-1.38-3.15,6.12,6.12,0,0,0-7.34-.15,3.47,3.47,0,0,0-1.3,2.65c0,1.18.73,2.62,2.19,4.3Z"/><path class="cls-3" d="M732.21,899.91,742,903q-2.25,8.19-7.5,12.18t-13.32,4a21.53,21.53,0,0,1-16.4-6.82q-6.43-6.81-6.43-18.64,0-12.51,6.46-19.43t17-6.92q9.2,0,14.94,5.43a19.84,19.84,0,0,1,5.12,9.23l-10,2.39A10.36,10.36,0,0,0,721.31,876a11.41,11.41,0,0,0-9,4q-3.48,4-3.47,13,0,9.49,3.41,13.53a11.12,11.12,0,0,0,8.89,4A10.14,10.14,0,0,0,728,908Q731,905.41,732.21,899.91Z"/><path class="cls-3" d="M750.84,918.33V868.22H761v22.25l20.44-22.25H795l-18.87,19.52L796,918.33H782.93l-13.77-23.52L761,903.19v15.14Z"/></svg>