<svg id="Layer_1" data-name="Layer 1" xmlns="http://www.w3.org/2000/svg" viewBox="0 0 1080 1080"><defs><style>.cls-1{fill:#7c287d;}.cls-2,.cls-5{fill:none;}.cls-2{stroke:#231f20;stroke-miterlimit:10;stroke-width:0.5px;}.cls-3{fill:#fff;}.cls-4{fill:#231f20;}</style></defs><title>MITRE ATT&amp;amp;C</title><rect class="cls-1" x="275.13" y="80.19" width="526.26" height="212.63"/><rect class="cls-1" x="275.13" y="787.18" width="526.26" height="212.63"/><polygon class="cls-2" points="801.39 787 275.13 787.18 275.13 292.82 801.39 292.82 801.39 787"/><path class="cls-3" d="M295.55,211.54V161.43h16.23q9.23,0,12,.75a13.21,13.21,0,0,1,7.22,4.91,15.6,15.6,0,0,1,2.9,9.76,16.46,16.46,0,0,1-1.67,7.76,13.88,13.88,0,0,1-4.26,4.94,14.79,14.79,0,0,1-5.25,2.37,57.5,57.5,0,0,1-10.49.72h-6.6v18.9Zm10.11-41.63v14.22h5.54c4,0,6.65-.26,8-.79a6.6,6.6,0,0,0,3.16-2.46,6.76,6.76,0,0,0,1.15-3.9,6.49,6.49,0,0,0-1.61-4.51,7,7,0,0,0-4.07-2.22,48.39,48.39,0,0,0-7.28-.34Z"/><path class="cls-3" d="M342.24,211.54V161.43h37.15v8.48h-27V181h25.16v8.44H352.35V203.1h28v8.44Z"/><path class="cls-3" d="M389,211.54V161.43h21.29q8,0,11.68,1.35a11.49,11.49,0,0,1,5.82,4.8,14.46,14.46,0,0,1,2.19,7.9,13.35,13.35,0,0,1-3.31,9.31q-3.31,3.68-9.92,4.64a23.22,23.22,0,0,1,5.42,4.2,58.31,58.31,0,0,1,5.76,8.13l6.12,9.78h-12.1l-7.32-10.9a69.71,69.71,0,0,0-5.33-7.37,7.68,7.68,0,0,0-3-2.08,16.5,16.5,0,0,0-5.09-.57h-2.05v20.92Zm10.12-28.92h7.48q7.29,0,9.09-.61a5.45,5.45,0,0,0,2.84-2.12,6.56,6.56,0,0,0,1-3.76,6,6,0,0,0-1.35-4.08,6.17,6.17,0,0,0-3.81-2q-1.25-.17-7.39-.17h-7.89Z"/><path class="cls-3" d="M436.91,195.24l9.85-1q.89,5,3.6,7.28a10.9,10.9,0,0,0,7.33,2.32q4.89,0,7.37-2.06a6.16,6.16,0,0,0,2.48-4.84,4.61,4.61,0,0,0-1-3,8.44,8.44,0,0,0-3.64-2.17q-1.78-.61-8.1-2.18-8.14-2-11.42-5a13,13,0,0,1-4.61-10.08,12.85,12.85,0,0,1,2.17-7.16,13.56,13.56,0,0,1,6.25-5.08,25.1,25.1,0,0,1,9.86-1.74q9.44,0,14.2,4.13a14.61,14.61,0,0,1,5,11l-10.12.45a8.6,8.6,0,0,0-2.78-5.56c-1.43-1.12-3.56-1.69-6.41-1.69a11.65,11.65,0,0,0-6.91,1.81,3.66,3.66,0,0,0-1.6,3.11,3.87,3.87,0,0,0,1.5,3q1.92,1.61,9.3,3.35a49.16,49.16,0,0,1,10.92,3.6,14.12,14.12,0,0,1,5.54,5.09,15,15,0,0,1,2,8,14.69,14.69,0,0,1-2.4,8.06,14.32,14.32,0,0,1-6.76,5.59,28.42,28.42,0,0,1-10.91,1.83q-9.49,0-14.59-4.39T436.91,195.24Z"/><path class="cls-3" d="M485.86,211.54V161.43H496v50.11Z"/><path class="cls-3" d="M503.05,195.24l9.85-1q.89,5,3.6,7.28a10.9,10.9,0,0,0,7.33,2.32q4.89,0,7.37-2.06a6.16,6.16,0,0,0,2.48-4.84,4.56,4.56,0,0,0-1-3,8.31,8.31,0,0,0-3.64-2.17q-1.77-.61-8.1-2.18-8.13-2-11.41-5A13.14,13.14,0,0,1,507,167.4a13.64,13.64,0,0,1,6.26-5.08,25.1,25.1,0,0,1,9.86-1.74q9.44,0,14.2,4.13a14.61,14.61,0,0,1,5,11l-10.12.45a8.6,8.6,0,0,0-2.78-5.56c-1.43-1.12-3.57-1.69-6.41-1.69a11.65,11.65,0,0,0-6.91,1.81,3.66,3.66,0,0,0-1.6,3.11,3.87,3.87,0,0,0,1.5,3c1.28,1.07,4.37,2.18,9.3,3.35a49.16,49.16,0,0,1,10.92,3.6,14,14,0,0,1,5.53,5.09,14.87,14.87,0,0,1,2,8A14.68,14.68,0,0,1,541.4,205a14.29,14.29,0,0,1-6.77,5.59,28.33,28.33,0,0,1-10.9,1.83q-9.5,0-14.59-4.39T503.05,195.24Z"/><path class="cls-3" d="M563.58,211.54V169.91H548.72v-8.48h39.81v8.48H573.7v41.63Z"/><path class="cls-3" d="M595.06,211.54V161.43h37.16v8.48h-27V181h25.16v8.44H605.18V203.1h28v8.44Z"/><path class="cls-3" d="M641.86,211.54V161.43h9.84l20.51,33.46V161.43h9.4v50.11H671.45l-20.2-32.68v32.68Z"/><path class="cls-3" d="M724.36,193.12l9.81,3.11q-2.25,8.21-7.5,12.18t-13.31,4A21.59,21.59,0,0,1,697,205.58q-6.42-6.83-6.42-18.65,0-12.51,6.46-19.43t17-6.92q9.19,0,14.94,5.43a19.76,19.76,0,0,1,5.13,9.23l-10,2.39a10.34,10.34,0,0,0-10.56-8.4,11.41,11.41,0,0,0-9,4q-3.46,4-3.47,13c0,6.33,1.14,10.85,3.42,13.53a11.1,11.1,0,0,0,8.89,4,10.12,10.12,0,0,0,6.93-2.57Q723.1,198.62,724.36,193.12Z"/><path class="cls-3" d="M742.86,211.54V161.43H780v8.48H753V181h25.16v8.44H753V203.1h28v8.44Z"/><path class="cls-4" d="M355.11,779.08V300.92H510q88.07,0,114.82,7.17,41.08,10.77,68.82,46.81T721.4,448q0,44-16,74t-40.61,47.13q-24.63,17.13-50.07,22.67-34.57,6.85-100.13,6.85H451.66V779.08Zm96.55-397.27V517.49H504.5q57.07,0,76.32-7.5T611,486.51q10.93-16,10.93-37.19,0-26.08-15.33-43.05t-38.81-21.2q-17.29-3.26-69.48-3.26Z"/><rect class="cls-5" y="-10.82" width="1080" height="1080"/><path class="cls-3" d="M282.23,918.33V868.22h15.15l9.09,34.18,9-34.18h15.17v50.11h-9.4V878.88l-9.94,39.45h-9.74l-9.92-39.45v39.45Z"/><path class="cls-3" d="M340.37,918.33V868.22h10.12v50.11Z"/><path class="cls-3" d="M371.41,918.33V876.7H356.54v-8.48h39.82v8.48H381.53v41.63Z"/><path class="cls-3" d="M402.92,918.33V868.22h21.3q8,0,11.67,1.35a11.52,11.52,0,0,1,5.83,4.8,14.52,14.52,0,0,1,2.18,7.9,13.36,13.36,0,0,1-3.31,9.31q-3.31,3.67-9.91,4.63a23.66,23.66,0,0,1,5.41,4.21,56.07,56.07,0,0,1,5.76,8.13l6.12,9.78h-12.1l-7.31-10.91a70.23,70.23,0,0,0-5.34-7.36,7.82,7.82,0,0,0-3-2.09,16.89,16.89,0,0,0-5.09-.56h-2v20.92ZM413,889.41h7.48q7.29,0,9.1-.61a5.46,5.46,0,0,0,2.83-2.12,6.48,6.48,0,0,0,1-3.76,6,6,0,0,0-1.35-4.09,6.21,6.21,0,0,0-3.81-2c-.82-.12-3.28-.17-7.39-.17H413Z"/><path class="cls-3" d="M453.44,918.33V868.22h37.15v8.48h-27v11.11h25.15v8.44H463.56v13.64h28v8.44Z"/><path class="cls-3" d="M562.17,918.33h-11L546.78,907h-20l-4.14,11.38H511.89l19.51-50.11h10.7ZM543.54,898.5l-6.91-18.59-6.76,18.59Z"/><path class="cls-3" d="M573.62,918.33V876.7H558.75v-8.48h39.82v8.48H583.73v41.63Z"/><path class="cls-3" d="M616.37,918.33V876.7H601.51v-8.48h39.82v8.48H626.49v41.63Z"/><path class="cls-3" d="M692.18,912.21l-5.81,7.42a34.06,34.06,0,0,1-8.2-5.75,20.61,20.61,0,0,1-6.46,4,23,23,0,0,1-8.13,1.3q-9.37,0-14.09-5.27a13.61,13.61,0,0,1-3.65-9.36,14.12,14.12,0,0,1,2.87-8.67,23.43,23.43,0,0,1,8.58-6.68,27.51,27.51,0,0,1-3.87-5.79,12.32,12.32,0,0,1-1.29-5.21,9.84,9.84,0,0,1,3.64-7.71q3.63-3.16,10.37-3.16,6.5,0,10.15,3.31a10.52,10.52,0,0,1,3.66,8.1,10.35,10.35,0,0,1-1.81,5.78q-1.82,2.73-7.32,6.19l7,9.19a23.46,23.46,0,0,0,2.11-5.71l8.69,2a53.09,53.09,0,0,1-2.26,6.75,18.18,18.18,0,0,1-2.05,3.58,38.31,38.31,0,0,0,4.15,3.29A32.27,32.27,0,0,0,692.18,912.21Zm-29.9-16.82a13,13,0,0,0-5,4,8.38,8.38,0,0,0-1.64,4.82,6.76,6.76,0,0,0,2,5.07,7.54,7.54,0,0,0,5.46,2,11,11,0,0,0,4.34-.89,18.75,18.75,0,0,0,4.54-2.94ZM666,885l2.59-2q2.88-2.22,2.88-4.41a4.19,4.19,0,0,0-1.39-3.15,6.1,6.1,0,0,0-7.33-.15,3.44,3.44,0,0,0-1.3,2.65c0,1.18.73,2.62,2.19,4.3Z"/><path class="cls-3" d="M730.47,899.91l9.81,3.11q-2.26,8.19-7.51,12.18t-13.31,4a21.56,21.56,0,0,1-16.41-6.82q-6.42-6.81-6.42-18.64,0-12.51,6.46-19.43t17-6.92q9.18,0,14.93,5.43a19.76,19.76,0,0,1,5.13,9.23l-10,2.39A10.34,10.34,0,0,0,719.56,876a11.42,11.42,0,0,0-9,4q-3.46,4-3.47,13,0,9.49,3.42,13.53a11.1,11.1,0,0,0,8.89,4A10.14,10.14,0,0,0,726.3,908Q729.2,905.41,730.47,899.91Z"/><path class="cls-3" d="M749.09,918.33V868.22h10.12v22.25l20.44-22.25h13.6l-18.86,19.52,19.89,30.59H781.19l-13.78-23.52-8.2,8.38v15.14Z"/></svg>