<svg id="Layer_1" data-name="Layer 1" xmlns="http://www.w3.org/2000/svg" viewBox="0 0 1080 1080"><defs><style>.cls-1{fill:#7c287d;}.cls-2,.cls-5{fill:none;}.cls-2{stroke:#231f20;stroke-miterlimit:10;stroke-width:0.5px;}.cls-3{fill:#fff;}.cls-4{fill:#231f20;}</style></defs><title>MITRE ATT&amp;amp;C</title><rect class="cls-1" x="276.87" y="92.14" width="526.26" height="212.63"/><rect class="cls-1" x="276.87" y="799.13" width="526.26" height="212.63"/><polygon class="cls-2" points="803.13 798.95 276.87 799.13 276.87 304.77 803.13 304.77 803.13 798.95"/><path class="cls-3" d="M348.63,187.9V138.49h21q7.92,0,11.51,1.33a11.36,11.36,0,0,1,5.75,4.74,14.2,14.2,0,0,1,2.16,7.78,13.21,13.21,0,0,1-3.27,9.19q-3.27,3.63-9.78,4.57a23.58,23.58,0,0,1,5.35,4.14,57.74,57.74,0,0,1,5.68,8l6,9.64H381.13l-7.22-10.75a70.57,70.57,0,0,0-5.25-7.26,7.75,7.75,0,0,0-3-2.06,16.55,16.55,0,0,0-5-.55h-2V187.9Zm10-28.51H366q7.18,0,9-.61a5.38,5.38,0,0,0,2.8-2.09,6.46,6.46,0,0,0,1-3.71,5.94,5.94,0,0,0-1.33-4,6.08,6.08,0,0,0-3.76-1.94q-1.21-.17-7.28-.17h-7.79Z"/><path class="cls-3" d="M398.45,187.9V138.49h36.64v8.36H408.43v11h24.81v8.33H408.43v13.45H436v8.32Z"/><path class="cls-3" d="M442,171.83l9.7-1c.59,3.26,1.77,5.65,3.56,7.18a10.75,10.75,0,0,0,7.23,2.29q4.82,0,7.26-2a6.07,6.07,0,0,0,2.45-4.77,4.54,4.54,0,0,0-1-3,8.27,8.27,0,0,0-3.59-2.14q-1.76-.6-8-2.15-8-2-11.26-4.89a13,13,0,0,1-2.41-17,13.41,13.41,0,0,1,6.17-5,24.69,24.69,0,0,1,9.73-1.72q9.3,0,14,4.08a14.42,14.42,0,0,1,4.94,10.88l-10,.44c-.43-2.54-1.34-4.36-2.75-5.47s-3.51-1.67-6.32-1.67a11.4,11.4,0,0,0-6.8,1.78,3.61,3.61,0,0,0-1.59,3.07,3.81,3.81,0,0,0,1.48,3q1.89,1.59,9.17,3.3a48.07,48.07,0,0,1,10.77,3.56,13.81,13.81,0,0,1,5.46,5,15.57,15.57,0,0,1-.39,15.83,14.09,14.09,0,0,1-6.67,5.51,28,28,0,0,1-10.75,1.8q-9.37,0-14.39-4.33T442,171.83Z"/><path class="cls-3" d="M488.51,163.5a31.5,31.5,0,0,1,2.26-12.67,23.43,23.43,0,0,1,4.6-6.78,19.41,19.41,0,0,1,6.39-4.45,27.2,27.2,0,0,1,10.65-1.95q10.92,0,17.48,6.77t6.55,18.85q0,12-6.5,18.72t-17.39,6.76q-11,0-17.53-6.73T488.51,163.5Zm10.28-.34q0,8.4,3.88,12.73a13.32,13.32,0,0,0,19.63,0q3.83-4.29,3.83-12.89t-3.72-12.67a13.8,13.8,0,0,0-19.84,0Q498.79,154.64,498.79,163.16Z"/><path class="cls-3" d="M544.16,138.49h10v26.76a55.17,55.17,0,0,0,.37,8.26,8,8,0,0,0,3,4.87,10.59,10.59,0,0,0,6.59,1.84c2.83,0,5-.58,6.4-1.74a6.81,6.81,0,0,0,2.6-4.26,55.81,55.81,0,0,0,.44-8.39V138.49h10v26a66.59,66.59,0,0,1-.81,12.57,13.94,13.94,0,0,1-3,6.2,15.1,15.1,0,0,1-5.81,4,25.33,25.33,0,0,1-9.51,1.5q-7.08,0-10.73-1.64a15.29,15.29,0,0,1-5.78-4.24,13.64,13.64,0,0,1-2.8-5.48,60.08,60.08,0,0,1-1-12.54Z"/><path class="cls-3" d="M594.11,187.9V138.49h21q7.92,0,11.51,1.33a11.36,11.36,0,0,1,5.75,4.74,14.2,14.2,0,0,1,2.16,7.78,13.21,13.21,0,0,1-3.27,9.19q-3.27,3.63-9.78,4.57a23.58,23.58,0,0,1,5.35,4.14,57.74,57.74,0,0,1,5.68,8l6,9.64H626.61l-7.22-10.75a70.57,70.57,0,0,0-5.25-7.26,7.75,7.75,0,0,0-3-2.06,16.55,16.55,0,0,0-5-.55h-2V187.9Zm10-28.51h7.38q7.18,0,9-.61a5.38,5.38,0,0,0,2.8-2.09,6.46,6.46,0,0,0,1-3.71,5.94,5.94,0,0,0-1.33-4,6.08,6.08,0,0,0-3.76-1.94q-1.21-.17-7.28-.17h-7.79Z"/><path class="cls-3" d="M675.55,169.74l9.67,3.06q-2.22,8.1-7.4,12t-13.12,3.93A21.22,21.22,0,0,1,648.52,182q-6.35-6.72-6.34-18.38,0-12.34,6.37-19.17t16.75-6.82q9.08,0,14.73,5.36a19.49,19.49,0,0,1,5.06,9.1l-9.88,2.36a10.2,10.2,0,0,0-10.41-8.29,11.24,11.24,0,0,0-8.92,3.94q-3.42,3.94-3.42,12.77,0,9.38,3.37,13.35a11,11,0,0,0,8.76,4,10,10,0,0,0,6.85-2.53C673.35,176,674.72,173.35,675.55,169.74Z"/><path class="cls-3" d="M693.78,187.9V138.49h36.64v8.36H703.76v11h24.81v8.33H703.76v13.45h27.61v8.32Z"/><path class="cls-3" d="M280.48,209h18.24a35.59,35.59,0,0,1,9.4.94,16.58,16.58,0,0,1,7.45,4.55,21.57,21.57,0,0,1,4.72,8,36.44,36.44,0,0,1,1.62,11.68,32.48,32.48,0,0,1-1.52,10.51,21.79,21.79,0,0,1-5.29,8.73,17.58,17.58,0,0,1-7,4,30.49,30.49,0,0,1-8.83,1H280.48Zm10,8.36v32.73h7.45a26.77,26.77,0,0,0,6-.48,9.13,9.13,0,0,0,4-2.05,10.44,10.44,0,0,0,2.61-4.77,32.38,32.38,0,0,0,1-9,29.71,29.71,0,0,0-1-8.8,11.27,11.27,0,0,0-2.83-4.78,9.4,9.4,0,0,0-4.62-2.33,45.68,45.68,0,0,0-8.19-.47Z"/><path class="cls-3" d="M330.37,258.41V209H367v8.36H340.34v10.95h24.81v8.33H340.34v13.45H368v8.32Z"/><path class="cls-3" d="M389,258.41,371.35,209h10.82l12.51,36.57L406.78,209h10.58l-17.69,49.41Z"/><path class="cls-3" d="M422.45,258.41V209h36.64v8.36H432.43v10.95h24.8v8.33h-24.8v13.45H460v8.32Z"/><path class="cls-3" d="M468.76,258.41v-49h10v40.69h24.81v8.32Z"/><path class="cls-3" d="M508.64,234a31.5,31.5,0,0,1,2.25-12.67,23.27,23.27,0,0,1,4.61-6.78,19.27,19.27,0,0,1,6.38-4.45,27.2,27.2,0,0,1,10.65-2q10.92,0,17.48,6.77t6.56,18.84q0,12-6.51,18.73t-17.39,6.75q-11,0-17.53-6.72T508.64,234Zm10.28-.34q0,8.4,3.87,12.73a12.67,12.67,0,0,0,9.85,4.33,12.55,12.55,0,0,0,9.79-4.3q3.83-4.31,3.82-12.89t-3.72-12.68a13.8,13.8,0,0,0-19.84,0Q518.91,225.14,518.92,233.67Z"/><path class="cls-3" d="M564.35,258.41V209h16q9.1,0,11.87.74a12.92,12.92,0,0,1,7.11,4.84,15.33,15.33,0,0,1,2.86,9.62,16.15,16.15,0,0,1-1.65,7.65,13.56,13.56,0,0,1-4.19,4.87,14.41,14.41,0,0,1-5.18,2.34,56.17,56.17,0,0,1-10.35.71h-6.5v18.64Zm10-41.05v14h5.46q5.9,0,7.89-.78a6.5,6.5,0,0,0,3.11-2.42,6.58,6.58,0,0,0,1.13-3.84,6.35,6.35,0,0,0-1.58-4.45,6.88,6.88,0,0,0-4-2.19,47.14,47.14,0,0,0-7.18-.34Z"/><path class="cls-3" d="M610.26,258.41V209h14.93l9,33.71L643,209h15v49.41h-9.27V219.52l-9.81,38.89H629.3l-9.77-38.89v38.89Z"/><path class="cls-3" d="M667.9,258.41V209h36.64v8.36H677.87v10.95h24.81v8.33H677.87v13.45h27.61v8.32Z"/><path class="cls-3" d="M714,258.41V209h9.71L744,242V209h9.27v49.41h-10l-19.92-32.22v32.22Z"/><path class="cls-3" d="M774.91,258.41V217.36H760.25V209h39.27v8.36H784.89v41.05Z"/><path class="cls-4" d="M293.61,685.43v-267H407.06q42.79,0,62.19,7.2t31.05,25.58Q512,469.65,512,493.31q0,30-17.67,49.62t-52.81,24.68Q459,577.81,470.34,590T501,633.35l32.6,52.08H469.16l-39-58.09q-20.76-31.14-28.41-39.24T385.57,577q-8.56-3-27.13-3H347.51V685.43Zm53.9-154.06h39.88q38.79,0,48.44-3.28A28.94,28.94,0,0,0,451,516.8q5.46-8,5.46-20,0-13.47-7.19-21.76t-20.31-10.47q-6.56-.92-39.33-.91H347.51Z"/><path class="cls-4" d="M562.58,418.46H661.1q33.33,0,50.81,5.1a89.34,89.34,0,0,1,40.25,24.59q16.76,17.66,25.49,43.25t8.74,63.1q0,33-8.19,56.82-10,29.13-28.59,47.16-14,13.66-37.88,21.31-17.85,5.64-47.71,5.64H562.58Zm53.91,45.17V640.45h40.24q22.57,0,32.6-2.55,13.11-3.27,21.76-11.1T725.21,601q5.46-17.94,5.46-48.9t-5.46-47.53q-5.48-16.58-15.3-25.86T685,466.17q-11.3-2.54-44.25-2.54Z"/><rect class="cls-5" width="1080" height="1080"/><path class="cls-3" d="M274.75,930.28V880.17h15.14L299,914.35l9-34.18h15.18v50.11h-9.4V890.83l-9.95,39.45h-9.74l-9.91-39.45v39.45Z"/><path class="cls-3" d="M332.89,930.28V880.17H343v50.11Z"/><path class="cls-3" d="M363.92,930.28V888.65H349.06v-8.48h39.81v8.48H374v41.63Z"/><path class="cls-3" d="M395.44,930.28V880.17h21.29q8,0,11.67,1.35a11.52,11.52,0,0,1,5.83,4.8,14.44,14.44,0,0,1,2.19,7.9,13.37,13.37,0,0,1-3.32,9.31q-3.32,3.68-9.91,4.63a23.73,23.73,0,0,1,5.42,4.21,57.09,57.09,0,0,1,5.76,8.13l6.12,9.78h-12.1l-7.32-10.91a70.7,70.7,0,0,0-5.33-7.36,7.78,7.78,0,0,0-3-2.09,16.92,16.92,0,0,0-5.1-.56h-2.05v20.92Zm10.11-28.92H413q7.27,0,9.09-.61a5.49,5.49,0,0,0,2.84-2.12,6.58,6.58,0,0,0,1-3.76,6,6,0,0,0-1.35-4.09,6.21,6.21,0,0,0-3.81-2c-.82-.12-3.28-.17-7.38-.17h-7.9Z"/><path class="cls-3" d="M446,930.28V880.17h37.16v8.48h-27v11.1h25.16v8.45H456.07v13.63h28v8.45Z"/><path class="cls-3" d="M554.68,930.28h-11l-4.37-11.39h-20l-4.14,11.39H504.4l19.52-50.11h10.7Zm-18.63-19.83-6.9-18.59-6.77,18.59Z"/><path class="cls-3" d="M566.13,930.28V888.65H551.26v-8.48h39.82v8.48H576.25v41.63Z"/><path class="cls-3" d="M608.89,930.28V888.65H594v-8.48h39.82v8.48H619v41.63Z"/><path class="cls-3" d="M684.7,924.16l-5.81,7.42a33.87,33.87,0,0,1-8.2-5.75,20.72,20.72,0,0,1-6.46,4,23,23,0,0,1-8.14,1.3q-9.36,0-14.08-5.27a13.58,13.58,0,0,1-3.66-9.36,14.16,14.16,0,0,1,2.87-8.67,23.6,23.6,0,0,1,8.58-6.68,27.44,27.44,0,0,1-3.86-5.79,12.23,12.23,0,0,1-1.3-5.22,9.8,9.8,0,0,1,3.64-7.7q3.65-3.16,10.37-3.17,6.5,0,10.16,3.32a10.54,10.54,0,0,1,3.65,8.1,10.29,10.29,0,0,1-1.81,5.78q-1.81,2.73-7.31,6.18l7,9.2a23.43,23.43,0,0,0,2.12-5.71l8.68,2a53.09,53.09,0,0,1-2.26,6.75,17.33,17.33,0,0,1-2.05,3.57,38.24,38.24,0,0,0,4.16,3.3A30.63,30.63,0,0,0,684.7,924.16Zm-29.91-16.82a12.93,12.93,0,0,0-4.95,4,8.28,8.28,0,0,0-1.64,4.81,6.73,6.73,0,0,0,2,5.08,7.5,7.5,0,0,0,5.45,2,11,11,0,0,0,4.34-.89,19.41,19.41,0,0,0,4.55-2.94Zm3.76-10.42,2.6-2q2.86-2.22,2.87-4.4a4.18,4.18,0,0,0-1.38-3.15,5.29,5.29,0,0,0-3.75-1.3,5.19,5.19,0,0,0-3.58,1.15,3.42,3.42,0,0,0-1.3,2.65c0,1.18.73,2.62,2.18,4.3Z"/><path class="cls-3" d="M723,911.85l9.81,3.11q-2.25,8.2-7.5,12.19t-13.31,4a21.53,21.53,0,0,1-16.41-6.82q-6.44-6.81-6.43-18.64,0-12.51,6.46-19.43t17-6.93q9.2,0,14.94,5.44a19.75,19.75,0,0,1,5.12,9.23l-10,2.39A10.36,10.36,0,0,0,712.08,888a11.41,11.41,0,0,0-9,4q-3.48,4-3.47,13,0,9.5,3.42,13.53a11.08,11.08,0,0,0,8.88,4,10.13,10.13,0,0,0,6.94-2.56Q721.72,917.36,723,911.85Z"/><path class="cls-3" d="M741.61,930.28V880.17h10.12v22.25l20.44-22.25h13.6L766.9,899.69l19.89,30.59H773.7l-13.77-23.52-8.2,8.38v15.14Z"/></svg>