<svg id="Layer_1" data-name="Layer 1" xmlns="http://www.w3.org/2000/svg" viewBox="0 0 1080 1080"><defs><style>.cls-1{fill:#7c287d;}.cls-2,.cls-5{fill:none;}.cls-2{stroke:#231f20;stroke-miterlimit:10;stroke-width:0.5px;}.cls-3{fill:#fff;}.cls-4{fill:#231f20;}</style></defs><title>MITRE ATT&amp;amp;C</title><rect class="cls-1" x="275.13" y="92.14" width="526.26" height="212.63"/><rect class="cls-1" x="275.13" y="799.13" width="526.26" height="212.63"/><polygon class="cls-2" points="801.39 798.95 275.13 799.13 275.13 304.77 801.39 304.77 801.39 798.95"/><path class="cls-3" d="M278.17,218.29v-39.7H295c4.25,0,7.33.35,9.25,1.07a9.11,9.11,0,0,1,4.62,3.8,11.4,11.4,0,0,1,1.73,6.26A10.6,10.6,0,0,1,308,197.1q-2.62,2.91-7.86,3.67a18.6,18.6,0,0,1,4.3,3.33,46.88,46.88,0,0,1,4.56,6.44l4.85,7.75h-9.59l-5.8-8.64a55.39,55.39,0,0,0-4.22-5.84,6.21,6.21,0,0,0-2.41-1.65,13.24,13.24,0,0,0-4-.44h-1.62v16.57Zm8-22.91h5.93c3.84,0,6.25-.16,7.2-.49a4.25,4.25,0,0,0,2.25-1.68,5.18,5.18,0,0,0,.81-3,4.72,4.72,0,0,0-1.07-3.23,4.83,4.83,0,0,0-3-1.56c-.65-.09-2.6-.14-5.85-.14h-6.25Z"/><path class="cls-3" d="M318.2,218.29v-39.7h29.44v6.71H326.22v8.8h19.93v6.69H326.22V211.6H348.4v6.69Z"/><path class="cls-3" d="M380.6,203.69l7.77,2.47q-1.78,6.5-5.94,9.65a18.69,18.69,0,0,1-23.55-2.25q-5.08-5.4-5.09-14.77,0-9.91,5.12-15.4t13.46-5.48q7.29,0,11.83,4.3a15.72,15.72,0,0,1,4.07,7.32l-7.94,1.89a8.21,8.21,0,0,0-8.37-6.66,9,9,0,0,0-7.16,3.17q-2.74,3.16-2.75,10.26,0,7.53,2.71,10.73a8.79,8.79,0,0,0,7,3.2,8,8,0,0,0,5.5-2A11.81,11.81,0,0,0,380.6,203.69Z"/><path class="cls-3" d="M393.63,198.68a25.23,25.23,0,0,1,1.81-10.18,19,19,0,0,1,3.7-5.45,15.57,15.57,0,0,1,5.13-3.57,21.79,21.79,0,0,1,8.56-1.57q8.78,0,14,5.44t5.27,15.14q0,9.62-5.23,15t-14,5.43q-8.85,0-14.08-5.41T393.63,198.68Zm8.26-.27q0,6.75,3.11,10.23a10.71,10.71,0,0,0,15.78,0q3.08-3.45,3.07-10.36t-3-10.18a11.09,11.09,0,0,0-15.94,0Q401.89,191.57,401.89,198.41Z"/><path class="cls-3" d="M438.48,218.29v-39.7h7.8l16.25,26.51V178.59H470v39.7h-8.05l-16-25.89v25.89Z"/><path class="cls-3" d="M478.54,218.29v-39.7h7.8l16.25,26.51V178.59H510v39.7H502L486,192.4v25.89Z"/><path class="cls-3" d="M554.32,218.29H545.6l-3.47-9H526.26l-3.28,9h-8.5l15.46-39.7h8.48Zm-14.76-15.71-5.47-14.73-5.37,14.73Z"/><path class="cls-3" d="M558.33,218.29v-39.7h8v39.7Z"/><path class="cls-3" d="M572,205.37l7.8-.76a9.5,9.5,0,0,0,2.86,5.77,8.61,8.61,0,0,0,5.81,1.84q3.87,0,5.83-1.63a4.89,4.89,0,0,0,2-3.84,3.6,3.6,0,0,0-.83-2.39,6.51,6.51,0,0,0-2.88-1.72q-1.41-.49-6.42-1.74-6.45-1.59-9.05-3.92a10.43,10.43,0,0,1-1.94-13.67,10.78,10.78,0,0,1,5-4,19.87,19.87,0,0,1,7.81-1.38q7.49,0,11.26,3.28a11.56,11.56,0,0,1,4,8.74l-8,.36a6.83,6.83,0,0,0-2.21-4.41,8.11,8.11,0,0,0-5.08-1.34,9.14,9.14,0,0,0-5.47,1.44,2.88,2.88,0,0,0-1.27,2.46,3,3,0,0,0,1.19,2.41q1.51,1.28,7.37,2.66a38.49,38.49,0,0,1,8.65,2.86,11.18,11.18,0,0,1,4.39,4,11.89,11.89,0,0,1,1.58,6.33,11.74,11.74,0,0,1-1.89,6.39,11.43,11.43,0,0,1-5.37,4.43,22.61,22.61,0,0,1-8.64,1.44q-7.53,0-11.56-3.48T572,205.37Z"/><path class="cls-3" d="M609,205.37l7.8-.76a9.49,9.49,0,0,0,2.85,5.77,8.63,8.63,0,0,0,5.81,1.84q3.87,0,5.84-1.63a4.88,4.88,0,0,0,2-3.84,3.59,3.59,0,0,0-.82-2.39,6.56,6.56,0,0,0-2.89-1.72q-1.41-.49-6.42-1.74-6.44-1.59-9-3.92a10.34,10.34,0,0,1-3.66-8,10.18,10.18,0,0,1,1.72-5.68,10.78,10.78,0,0,1,5-4,19.84,19.84,0,0,1,7.81-1.38c5,0,8.74,1.09,11.25,3.28a11.53,11.53,0,0,1,4,8.74l-8,.36a6.82,6.82,0,0,0-2.2-4.41,8.11,8.11,0,0,0-5.08-1.34,9.14,9.14,0,0,0-5.47,1.44,2.88,2.88,0,0,0-1.27,2.46,3,3,0,0,0,1.19,2.41q1.51,1.28,7.36,2.66a38.6,38.6,0,0,1,8.66,2.86,11.08,11.08,0,0,1,4.38,4,11.8,11.8,0,0,1,1.59,6.33,11.66,11.66,0,0,1-1.9,6.39,11.4,11.4,0,0,1-5.36,4.43,22.61,22.61,0,0,1-8.64,1.44q-7.53,0-11.56-3.48T609,205.37Z"/><path class="cls-3" d="M683.78,218.29h-8.72l-3.47-9H655.72l-3.28,9h-8.5l15.46-39.7h8.48ZM669,202.58l-5.47-14.73-5.37,14.73Z"/><path class="cls-3" d="M688.11,218.29v-39.7h7.8l16.25,26.51V178.59h7.45v39.7h-8l-16-25.89v25.89Z"/><path class="cls-3" d="M753.49,203.69l7.77,2.47q-1.78,6.5-5.94,9.65a18.69,18.69,0,0,1-23.55-2.25q-5.09-5.4-5.09-14.77,0-9.91,5.12-15.4t13.46-5.48q7.29,0,11.83,4.3a15.72,15.72,0,0,1,4.07,7.32l-7.94,1.89a8.21,8.21,0,0,0-8.37-6.66,9,9,0,0,0-7.16,3.17q-2.75,3.16-2.75,10.26,0,7.53,2.71,10.73a8.79,8.79,0,0,0,7,3.2,8,8,0,0,0,5.5-2A11.81,11.81,0,0,0,753.49,203.69Z"/><path class="cls-3" d="M768.14,218.29v-39.7h29.44v6.71H776.16v8.8h19.93v6.69H776.16V211.6h22.18v6.69Z"/><path class="cls-4" d="M331.11,782.36V321.54H526.94q73.86,0,107.35,12.41t53.59,44.17Q708,409.88,708,450.73q0,51.87-30.49,85.66T586.35,579q30.18,17.61,49.82,38.67t53,74.81l56.27,89.9H634.13L566.86,682.08q-35.83-53.74-49-67.74t-28-19.17Q475.08,590,443,590H424.15V782.36Zm93-265.93H493q67,0,83.62-5.66a50.09,50.09,0,0,0,26.09-19.49q9.42-13.83,9.43-34.58,0-23.25-12.42-37.56t-35.05-18.07q-11.31-1.57-67.9-1.58H424.15Z"/><rect class="cls-5" width="1080" height="1080"/><path class="cls-3" d="M282.23,930.28V880.17h15.15l9.09,34.18,9-34.18h15.17v50.11h-9.4V890.83l-9.94,39.45h-9.74l-9.92-39.45v39.45Z"/><path class="cls-3" d="M340.37,930.28V880.17h10.12v50.11Z"/><path class="cls-3" d="M371.41,930.28V888.65H356.54v-8.48h39.82v8.48H381.53v41.63Z"/><path class="cls-3" d="M402.92,930.28V880.17h21.3q8,0,11.67,1.35a11.52,11.52,0,0,1,5.83,4.8,14.52,14.52,0,0,1,2.18,7.9,13.36,13.36,0,0,1-3.31,9.31q-3.31,3.68-9.91,4.63a23.66,23.66,0,0,1,5.41,4.21,55.5,55.5,0,0,1,5.76,8.13l6.12,9.78h-12.1l-7.31-10.91a70.23,70.23,0,0,0-5.34-7.36,7.71,7.71,0,0,0-3-2.09,16.89,16.89,0,0,0-5.09-.56h-2v20.92ZM413,901.36h7.48q7.29,0,9.1-.61a5.46,5.46,0,0,0,2.83-2.12,6.5,6.5,0,0,0,1-3.76,6,6,0,0,0-1.35-4.09,6.21,6.21,0,0,0-3.81-2c-.82-.12-3.28-.17-7.39-.17H413Z"/><path class="cls-3" d="M453.44,930.28V880.17h37.15v8.48h-27v11.1h25.15v8.45H463.56v13.63h28v8.45Z"/><path class="cls-3" d="M562.17,930.28h-11l-4.38-11.39h-20l-4.14,11.39H511.89l19.51-50.11h10.7Zm-18.63-19.83-6.91-18.59-6.76,18.59Z"/><path class="cls-3" d="M573.62,930.28V888.65H558.75v-8.48h39.82v8.48H583.73v41.63Z"/><path class="cls-3" d="M616.37,930.28V888.65H601.51v-8.48h39.82v8.48H626.49v41.63Z"/><path class="cls-3" d="M692.18,924.16l-5.81,7.42a34.06,34.06,0,0,1-8.2-5.75,20.61,20.61,0,0,1-6.46,4,23,23,0,0,1-8.13,1.3q-9.37,0-14.09-5.27a13.61,13.61,0,0,1-3.65-9.36,14.1,14.1,0,0,1,2.87-8.67,23.43,23.43,0,0,1,8.58-6.68,27.51,27.51,0,0,1-3.87-5.79,12.36,12.36,0,0,1-1.29-5.22,9.8,9.8,0,0,1,3.64-7.7q3.63-3.16,10.37-3.17,6.5,0,10.15,3.32a10.52,10.52,0,0,1,3.66,8.1,10.37,10.37,0,0,1-1.81,5.78q-1.82,2.73-7.32,6.18l7,9.2a23.46,23.46,0,0,0,2.11-5.71l8.69,2a53.09,53.09,0,0,1-2.26,6.75,17.79,17.79,0,0,1-2.05,3.57,37.08,37.08,0,0,0,4.15,3.3A32.27,32.27,0,0,0,692.18,924.16Zm-29.9-16.82a13,13,0,0,0-5,4,8.35,8.35,0,0,0-1.64,4.81,6.76,6.76,0,0,0,2,5.08,7.54,7.54,0,0,0,5.46,2,11,11,0,0,0,4.34-.89,19.38,19.38,0,0,0,4.54-2.94ZM666,896.92l2.59-2q2.88-2.22,2.88-4.4a4.19,4.19,0,0,0-1.39-3.15,5.27,5.27,0,0,0-3.74-1.3,5.21,5.21,0,0,0-3.59,1.15,3.42,3.42,0,0,0-1.3,2.65c0,1.18.73,2.62,2.19,4.3Z"/><path class="cls-3" d="M730.47,911.85l9.81,3.11q-2.26,8.2-7.51,12.19t-13.31,4a21.56,21.56,0,0,1-16.41-6.82q-6.42-6.81-6.42-18.64,0-12.51,6.46-19.43t17-6.93q9.18,0,14.93,5.44a19.76,19.76,0,0,1,5.13,9.23l-10,2.39A10.34,10.34,0,0,0,719.56,888a11.42,11.42,0,0,0-9,4q-3.46,4-3.47,13,0,9.5,3.42,13.53a11.1,11.1,0,0,0,8.89,4,10.13,10.13,0,0,0,6.94-2.56Q729.2,917.36,730.47,911.85Z"/><path class="cls-3" d="M749.09,930.28V880.17h10.12v22.25l20.44-22.25h13.6l-18.86,19.52,19.89,30.59H781.19l-13.78-23.52-8.2,8.38v15.14Z"/></svg>