<svg id="Layer_1" data-name="Layer 1" xmlns="http://www.w3.org/2000/svg" viewBox="0 0 1080 1080"><defs><style>.cls-1{fill:#3953a4;}.cls-2,.cls-5{fill:none;}.cls-2{stroke:#231f20;stroke-miterlimit:10;stroke-width:0.5px;}.cls-3{fill:#fff;}.cls-4{fill:#231f20;}</style></defs><title>15 NEW</title><rect class="cls-1" x="221.03" y="66.84" width="526.26" height="212.63"/><rect class="cls-1" x="221.03" y="773.84" width="526.26" height="212.63"/><polygon class="cls-2" points="747.29 773.65 221.03 773.84 221.03 279.47 747.29 279.47 747.29 773.65"/><path class="cls-3" d="M290.22,836.36v-50.1h16.24q9.23,0,12,.75a13.17,13.17,0,0,1,7.21,4.9,15.56,15.56,0,0,1,2.91,9.76,16.31,16.31,0,0,1-1.68,7.76,13.77,13.77,0,0,1-4.25,4.94,14.73,14.73,0,0,1-5.25,2.38,58.68,58.68,0,0,1-10.49.71h-6.6v18.9Zm10.12-41.63V809h5.54c4,0,6.65-.26,8-.78a6.55,6.55,0,0,0,4.31-6.36,6.43,6.43,0,0,0-1.61-4.51,6.91,6.91,0,0,0-4.06-2.22,48,48,0,0,0-7.28-.35Z"/><path class="cls-3" d="M337.18,836.36V786.67H347.3v41.25h25.16v8.44Z"/><path class="cls-3" d="M424.86,836.36h-11L409.47,825h-20l-4.14,11.38H374.58l19.51-50.1h10.7Zm-18.63-19.82L399.32,798l-6.76,18.59Z"/><path class="cls-3" d="M436.31,836.36V794.73H421.44v-8.47h39.82v8.47H446.42v41.63Z"/><path class="cls-3" d="M467.85,836.36v-50.1H502.2v8.47H478v11.86h20.92v8.48H478v21.29Z"/><path class="cls-3" d="M508.49,811.62a31.94,31.94,0,0,1,2.29-12.85,23.68,23.68,0,0,1,4.67-6.87,19.3,19.3,0,0,1,6.48-4.51,27.34,27.34,0,0,1,10.8-2q11.07,0,17.72,6.87t6.65,19.11q0,12.14-6.6,19t-17.64,6.85q-11.18,0-17.77-6.82T508.49,811.62Zm10.43-.34q0,8.51,3.93,12.9a13.51,13.51,0,0,0,19.91,0q3.87-4.35,3.88-13.07t-3.78-12.85a14,14,0,0,0-20.11.05Q518.91,802.63,518.92,811.28Z"/><path class="cls-3" d="M565,836.36v-50.1h21.29c5.35,0,9.25.45,11.67,1.35a11.52,11.52,0,0,1,5.83,4.8,14.42,14.42,0,0,1,2.19,7.9,13.37,13.37,0,0,1-3.32,9.31q-3.32,3.68-9.91,4.63a24,24,0,0,1,5.42,4.2,57.94,57.94,0,0,1,5.76,8.14l6.12,9.77H598l-7.32-10.9a70.7,70.7,0,0,0-5.33-7.36,7.78,7.78,0,0,0-3-2.09,16.6,16.6,0,0,0-5.1-.56h-2.05v20.91Zm10.11-28.91h7.49q7.27,0,9.09-.62a5.43,5.43,0,0,0,2.84-2.12,6.53,6.53,0,0,0,1-3.76,6,6,0,0,0-1.35-4.08,6.22,6.22,0,0,0-3.81-2q-1.23-.17-7.38-.17h-7.9Z"/><path class="cls-3" d="M615.41,836.36v-50.1h15.14l9.09,34.18,9-34.18h15.18v50.1h-9.4V796.92l-9.95,39.44h-9.74l-9.91-39.44v39.44Z"/><path class="cls-3" d="M301.28,888l9.84-1q.9,5,3.61,7.28a10.89,10.89,0,0,0,7.33,2.33c3.26,0,5.71-.69,7.37-2.07a6.15,6.15,0,0,0,2.47-4.84,4.53,4.53,0,0,0-1-3,8.19,8.19,0,0,0-3.64-2.17q-1.77-.62-8.1-2.19-8.13-2-11.42-5a13,13,0,0,1-4.61-10.08,12.85,12.85,0,0,1,2.17-7.16,13.59,13.59,0,0,1,6.26-5.08,25.1,25.1,0,0,1,9.86-1.74q9.44,0,14.2,4.14a14.57,14.57,0,0,1,5,11l-10.12.44q-.64-3.87-2.79-5.55t-6.41-1.7a11.52,11.52,0,0,0-6.9,1.82,3.65,3.65,0,0,0-1.61,3.11,3.85,3.85,0,0,0,1.51,3q1.91,1.6,9.29,3.35a48.79,48.79,0,0,1,10.92,3.6,14,14,0,0,1,5.54,5.1,15.77,15.77,0,0,1-.39,16,14.34,14.34,0,0,1-6.77,5.59,28.36,28.36,0,0,1-10.9,1.83q-9.51,0-14.6-4.39T301.28,888Z"/><path class="cls-3" d="M350.53,904.32V854.21h37.15v8.48h-27V873.8h25.16v8.44H360.65v13.64h28v8.44Z"/><path class="cls-3" d="M429.28,885.9l9.81,3.11q-2.25,8.21-7.5,12.18t-13.31,4a21.57,21.57,0,0,1-16.41-6.82q-6.42-6.83-6.43-18.65,0-12.51,6.46-19.43t17-6.92q9.19,0,14.94,5.43A19.8,19.8,0,0,1,439,868l-10,2.4A10.34,10.34,0,0,0,418.38,862a11.38,11.38,0,0,0-9,4q-3.48,4-3.47,13,0,9.51,3.42,13.54a11.11,11.11,0,0,0,8.88,4,10.16,10.16,0,0,0,6.94-2.56Q428,891.41,429.28,885.9Z"/><path class="cls-3" d="M447.7,854.21h10.12v27.14a56.29,56.29,0,0,0,.38,8.38,8.12,8.12,0,0,0,3.09,4.94,10.79,10.79,0,0,0,6.68,1.86q4.3,0,6.5-1.76a7,7,0,0,0,2.63-4.33,57.24,57.24,0,0,0,.44-8.51V854.21h10.12v26.32q0,9-.82,12.75a14.16,14.16,0,0,1-3,6.29,15.25,15.25,0,0,1-5.9,4.08,25.5,25.5,0,0,1-9.64,1.53q-7.17,0-10.89-1.66a15.63,15.63,0,0,1-5.86-4.31,13.78,13.78,0,0,1-2.83-5.55,60.13,60.13,0,0,1-1-12.72Z"/><path class="cls-3" d="M498.36,904.32V854.21h21.29q8,0,11.68,1.35a11.5,11.5,0,0,1,5.82,4.81,14.41,14.41,0,0,1,2.19,7.89,13.4,13.4,0,0,1-3.32,9.32q-3.32,3.67-9.91,4.63a23.49,23.49,0,0,1,5.42,4.2,57.94,57.94,0,0,1,5.76,8.14l6.12,9.77h-12.1L524,893.42a69.71,69.71,0,0,0-5.33-7.37,7.75,7.75,0,0,0-3-2.08,16.5,16.5,0,0,0-5.09-.57h-2v20.92Zm10.12-28.91H516c4.85,0,7.89-.21,9.09-.62a5.45,5.45,0,0,0,2.84-2.12,6.53,6.53,0,0,0,1-3.76,6,6,0,0,0-1.35-4.08,6.24,6.24,0,0,0-3.82-2q-1.23-.17-7.38-.17h-7.89Z"/><path class="cls-3" d="M548.57,904.32V854.21h10.12v50.11Z"/><path class="cls-3" d="M579.6,904.32V862.69H564.74v-8.48h39.82v8.48H589.72v41.63Z"/><path class="cls-3" d="M624.24,904.32V883.23l-18.35-29h11.86L629.54,874l11.55-19.83h11.66L634.33,883.3v21Z"/><path class="cls-3" d="M340.53,953.92l9.81,3.11q-2.25,8.21-7.5,12.19t-13.31,4a21.55,21.55,0,0,1-16.41-6.82q-6.42-6.81-6.42-18.64,0-12.51,6.46-19.43t17-6.93q9.19,0,14.94,5.44a19.76,19.76,0,0,1,5.13,9.23l-10,2.39A10.36,10.36,0,0,0,329.63,930a11.42,11.42,0,0,0-9,4q-3.46,4-3.47,13,0,9.5,3.42,13.53a11.1,11.1,0,0,0,8.89,4,10.11,10.11,0,0,0,6.93-2.56Q339.27,959.43,340.53,953.92Z"/><path class="cls-3" d="M357,947.6a32,32,0,0,1,2.29-12.85,23.68,23.68,0,0,1,4.67-6.87,19.45,19.45,0,0,1,6.48-4.51,27.52,27.52,0,0,1,10.8-2q11.07,0,17.72,6.87t6.65,19.11q0,12.14-6.6,19t-17.64,6.85q-11.18,0-17.77-6.82T357,947.6Zm10.43-.34q0,8.5,3.93,12.9a13.52,13.52,0,0,0,19.91,0q3.88-4.37,3.88-13.08t-3.78-12.85a14,14,0,0,0-20.11.05Q367.41,938.61,367.4,947.26Z"/><path class="cls-3" d="M413.58,972.35V922.24h9.84l20.51,33.46V922.24h9.4v50.11H443.18L423,939.67v32.68Z"/><path class="cls-3" d="M475.3,972.35V930.72H460.44v-8.48h39.82v8.48H485.42v41.63Z"/><path class="cls-3" d="M506.82,972.35V922.24h21.29q8,0,11.68,1.35a11.53,11.53,0,0,1,5.82,4.8,14.44,14.44,0,0,1,2.19,7.9,13.37,13.37,0,0,1-3.32,9.31q-3.32,3.67-9.91,4.63a23.51,23.51,0,0,1,5.42,4.21,57.09,57.09,0,0,1,5.76,8.13l6.12,9.78h-12.1l-7.32-10.91a69.17,69.17,0,0,0-5.33-7.36,7.78,7.78,0,0,0-3-2.09,16.89,16.89,0,0,0-5.09-.56h-2v20.92Zm10.12-28.92h7.48q7.27,0,9.09-.61a5.45,5.45,0,0,0,2.84-2.12,6.58,6.58,0,0,0,1-3.76,6.07,6.07,0,0,0-1.34-4.09,6.26,6.26,0,0,0-3.82-2c-.82-.12-3.28-.17-7.38-.17h-7.89Z"/><path class="cls-3" d="M555.29,947.6a31.81,31.81,0,0,1,2.29-12.85,23.46,23.46,0,0,1,4.66-6.87,19.45,19.45,0,0,1,6.48-4.51,27.52,27.52,0,0,1,10.8-2q11.07,0,17.72,6.87t6.65,19.11q0,12.14-6.6,19t-17.63,6.85q-11.19,0-17.78-6.82T555.29,947.6Zm10.42-.34q0,8.5,3.93,12.9a13.52,13.52,0,0,0,19.91,0q3.88-4.37,3.88-13.08t-3.78-12.85a14,14,0,0,0-20.11.05Q565.72,938.61,565.71,947.26Z"/><path class="cls-3" d="M612.06,972.35v-49.7h10.11V963.9h25.16v8.45Z"/><path class="cls-3" d="M261.09,190V139.9h37.15v8.48h-27v11.11h25.15v8.44H271.21v13.64h28V190Z"/><path class="cls-3" d="M307.88,190V139.9h9.85l20.5,33.46V139.9h9.4V190H337.48l-20.2-32.68V190Z"/><path class="cls-3" d="M390.39,171.59l9.81,3.11q-2.25,8.2-7.5,12.18t-13.31,4A21.56,21.56,0,0,1,363,184.05q-6.42-6.83-6.43-18.65,0-12.51,6.46-19.43t17-6.92q9.19,0,14.94,5.43a19.66,19.66,0,0,1,5.12,9.23l-10,2.39a10.34,10.34,0,0,0-10.56-8.4,11.4,11.4,0,0,0-9,4q-3.46,4-3.47,13c0,6.33,1.14,10.85,3.42,13.53a11.1,11.1,0,0,0,8.88,4,10.14,10.14,0,0,0,6.94-2.57Q389.13,177.08,390.39,171.59Z"/><path class="cls-3" d="M408.92,190V139.9h21.29q8,0,11.67,1.35a11.52,11.52,0,0,1,5.83,4.8,14.46,14.46,0,0,1,2.19,7.9,13.35,13.35,0,0,1-3.32,9.31q-3.31,3.68-9.91,4.64a23.43,23.43,0,0,1,5.42,4.2,58.31,58.31,0,0,1,5.76,8.13L454,190h-12.1l-7.32-10.9a71.26,71.26,0,0,0-5.33-7.37,7.75,7.75,0,0,0-3-2.08,16.5,16.5,0,0,0-5.09-.57H419V190ZM419,161.09h7.49q7.28,0,9.09-.61a5.49,5.49,0,0,0,2.84-2.12,6.55,6.55,0,0,0,1-3.76,6,6,0,0,0-1.35-4.08,6.17,6.17,0,0,0-3.81-2q-1.23-.17-7.38-.17H419Z"/><path class="cls-3" d="M470,190V168.92l-18.36-29H463.5l11.79,19.83,11.56-19.83H498.5L480.08,169v21Z"/><path class="cls-3" d="M503.53,190V139.9h16.23q9.22,0,12,.75a13.21,13.21,0,0,1,7.22,4.91,15.6,15.6,0,0,1,2.9,9.76,16.46,16.46,0,0,1-1.67,7.76A13.88,13.88,0,0,1,536,168a14.79,14.79,0,0,1-5.25,2.37,57.5,57.5,0,0,1-10.49.72h-6.6V190Zm10.11-41.63V162.6h5.54c4,0,6.65-.26,8-.79a6.6,6.6,0,0,0,3.16-2.46,6.76,6.76,0,0,0,1.15-3.9,6.49,6.49,0,0,0-1.61-4.51,7,7,0,0,0-4.07-2.22,48.39,48.39,0,0,0-7.28-.34Z"/><path class="cls-3" d="M561.5,190V148.38H546.63V139.9h39.82v8.48H571.61V190Z"/><path class="cls-3" d="M592.67,190V139.9h10.11V190Z"/><path class="cls-3" d="M610.37,165.26a32,32,0,0,1,2.29-12.85,23.68,23.68,0,0,1,4.67-6.87A19.51,19.51,0,0,1,623.8,141a27.61,27.61,0,0,1,10.81-2q11.07,0,17.72,6.87T659,165q0,12.14-6.6,19t-17.64,6.85q-11.18,0-17.77-6.81T610.37,165.26Zm10.43-.34q0,8.52,3.93,12.9a13.5,13.5,0,0,0,19.91,0q3.87-4.37,3.88-13.07t-3.78-12.86a14,14,0,0,0-20.11,0Q620.79,156.27,620.8,164.92Z"/><path class="cls-3" d="M667,190V139.9h9.85l20.51,33.46V139.9h9.39V190H696.57l-20.2-32.68V190Z"/><path class="cls-4" d="M313.81,750.63V302.68H646v75.78H404.26v99.31H629.15v75.47H404.26V675.16H654.51v75.47Z"/><rect class="cls-5" x="0.05" y="8.01" width="1080" height="1080"/></svg>