<svg id="Layer_1" data-name="Layer 1" xmlns="http://www.w3.org/2000/svg" viewBox="0 0 1080 1080"><defs><style>.cls-1{fill:#3953a4;}.cls-2,.cls-5{fill:none;}.cls-2{stroke:#231f20;stroke-miterlimit:10;stroke-width:0.5px;}.cls-3{fill:#fff;}.cls-4{fill:#231f20;}</style></defs><title>15 NEW</title><rect class="cls-1" x="256.39" y="66.84" width="526.26" height="212.63"/><rect class="cls-1" x="256.39" y="773.84" width="526.26" height="212.63"/><polygon class="cls-2" points="782.65 773.65 256.39 773.84 256.39 279.47 782.65 279.47 782.65 773.65"/><path class="cls-3" d="M325.58,836.36v-50.1h16.23q9.24,0,12,.75a13.16,13.16,0,0,1,7.22,4.9,15.62,15.62,0,0,1,2.9,9.76,16.43,16.43,0,0,1-1.67,7.76,13.79,13.79,0,0,1-4.26,4.94,14.65,14.65,0,0,1-5.25,2.38,58.6,58.6,0,0,1-10.49.71h-6.6v18.9Zm10.11-41.63V809h5.54q6,0,8-.78a6.59,6.59,0,0,0,4.31-6.36,6.47,6.47,0,0,0-1.61-4.51,6.94,6.94,0,0,0-4.07-2.22,47.93,47.93,0,0,0-7.28-.35Z"/><path class="cls-3" d="M372.54,836.36V786.67h10.12v41.25h25.15v8.44Z"/><path class="cls-3" d="M460.21,836.36h-11L444.83,825h-20l-4.13,11.38H409.93l19.52-50.1h10.7Zm-18.63-19.82L434.68,798l-6.77,18.59Z"/><path class="cls-3" d="M471.66,836.36V794.73H456.79v-8.47h39.82v8.47H481.78v41.63Z"/><path class="cls-3" d="M503.21,836.36v-50.1h34.35v8.47H513.33v11.86h20.91v8.48H513.33v21.29Z"/><path class="cls-3" d="M543.85,811.62a31.77,31.77,0,0,1,2.29-12.85,23.65,23.65,0,0,1,4.66-6.87,19.4,19.4,0,0,1,6.48-4.51,27.34,27.34,0,0,1,10.8-2q11.08,0,17.72,6.87t6.65,19.11q0,12.14-6.59,19t-17.64,6.85q-11.18,0-17.77-6.82T543.85,811.62Zm10.42-.34q0,8.51,3.93,12.9a12.8,12.8,0,0,0,10,4.39,12.67,12.67,0,0,0,9.93-4.36q3.89-4.35,3.88-13.07t-3.77-12.85a14,14,0,0,0-20.12.05Q554.27,802.63,554.27,811.28Z"/><path class="cls-3" d="M600.38,836.36v-50.1h21.3q8,0,11.67,1.35a11.52,11.52,0,0,1,5.83,4.8,14.49,14.49,0,0,1,2.18,7.9,13.36,13.36,0,0,1-3.31,9.31q-3.31,3.68-9.91,4.63a23.91,23.91,0,0,1,5.41,4.2,56.31,56.31,0,0,1,5.76,8.14l6.12,9.77h-12.1L626,825.46a70.23,70.23,0,0,0-5.34-7.36,7.71,7.71,0,0,0-3-2.09,16.57,16.57,0,0,0-5.09-.56h-2v20.91Zm10.12-28.91H618q7.29,0,9.1-.62a5.41,5.41,0,0,0,2.83-2.12,6.46,6.46,0,0,0,1-3.76,6,6,0,0,0-1.35-4.08,6.22,6.22,0,0,0-3.81-2q-1.23-.17-7.39-.17H610.5Z"/><path class="cls-3" d="M650.76,836.36v-50.1H665.9l9.1,34.18,9-34.18h15.17v50.1h-9.4V796.92l-9.94,39.44h-9.75l-9.91-39.44v39.44Z"/><path class="cls-3" d="M336.63,888l9.85-1q.88,5,3.6,7.28a10.93,10.93,0,0,0,7.34,2.33c3.25,0,5.71-.69,7.36-2.07a6.16,6.16,0,0,0,2.48-4.84,4.58,4.58,0,0,0-1-3,8.25,8.25,0,0,0-3.64-2.17q-1.79-.62-8.1-2.19-8.14-2-11.42-5a13,13,0,0,1-4.61-10.08,12.85,12.85,0,0,1,2.17-7.16,13.56,13.56,0,0,1,6.25-5.08,25.1,25.1,0,0,1,9.86-1.74q9.43,0,14.2,4.14a14.57,14.57,0,0,1,5,11l-10.12.44q-.65-3.87-2.78-5.55c-1.43-1.13-3.56-1.7-6.41-1.7a11.52,11.52,0,0,0-6.9,1.82,3.62,3.62,0,0,0-1.61,3.11,3.87,3.87,0,0,0,1.5,3q1.92,1.6,9.3,3.35a49.16,49.16,0,0,1,10.92,3.6,14.07,14.07,0,0,1,5.54,5.1,14.9,14.9,0,0,1,2,8,14.69,14.69,0,0,1-2.4,8.06,14.32,14.32,0,0,1-6.76,5.59,28.38,28.38,0,0,1-10.91,1.83q-9.49,0-14.59-4.39T336.63,888Z"/><path class="cls-3" d="M385.89,904.32V854.21H423v8.48H396V873.8h25.16v8.44H396v13.64h28v8.44Z"/><path class="cls-3" d="M464.64,885.9l9.81,3.11q-2.26,8.21-7.5,12.18t-13.32,4a21.56,21.56,0,0,1-16.4-6.82q-6.44-6.83-6.43-18.65,0-12.51,6.46-19.43t17-6.92q9.19,0,14.93,5.43a19.81,19.81,0,0,1,5.13,9.23l-10,2.4A10.34,10.34,0,0,0,453.73,862a11.4,11.4,0,0,0-9,4q-3.46,4-3.47,13,0,9.51,3.42,13.54a11.13,11.13,0,0,0,8.89,4,10.18,10.18,0,0,0,6.94-2.56Q463.36,891.41,464.64,885.9Z"/><path class="cls-3" d="M483.06,854.21h10.12v27.14a56.81,56.81,0,0,0,.37,8.38,8.18,8.18,0,0,0,3.1,4.94,10.77,10.77,0,0,0,6.68,1.86q4.31,0,6.49-1.76a6.92,6.92,0,0,0,2.63-4.33,55.53,55.53,0,0,0,.45-8.51V854.21H523v26.32a68.19,68.19,0,0,1-.82,12.75,14.18,14.18,0,0,1-3,6.29,15.21,15.21,0,0,1-5.89,4.08,25.57,25.57,0,0,1-9.64,1.53q-7.18,0-10.89-1.66a15.55,15.55,0,0,1-5.86-4.31,13.8,13.8,0,0,1-2.84-5.55,61,61,0,0,1-1-12.72Z"/><path class="cls-3" d="M533.71,904.32V854.21H555q8,0,11.67,1.35a11.49,11.49,0,0,1,5.83,4.81,14.41,14.41,0,0,1,2.19,7.89,13.4,13.4,0,0,1-3.32,9.32q-3.32,3.67-9.91,4.63a23.7,23.7,0,0,1,5.42,4.2,57.94,57.94,0,0,1,5.76,8.14l6.11,9.77h-12.1l-7.31-10.9a72.88,72.88,0,0,0-5.33-7.37,7.75,7.75,0,0,0-3-2.08,16.58,16.58,0,0,0-5.1-.57h-2v20.92Zm10.12-28.91h7.49q7.27,0,9.09-.62a5.49,5.49,0,0,0,2.84-2.12,6.53,6.53,0,0,0,1-3.76,6,6,0,0,0-1.35-4.08,6.22,6.22,0,0,0-3.81-2q-1.23-.17-7.38-.17h-7.9Z"/><path class="cls-3" d="M583.92,904.32V854.21H594v50.11Z"/><path class="cls-3" d="M615,904.32V862.69H600.09v-8.48h39.82v8.48H625.08v41.63Z"/><path class="cls-3" d="M659.6,904.32V883.23l-18.36-29H653.1L664.9,874l11.55-19.83H688.1L669.68,883.3v21Z"/><path class="cls-3" d="M375.89,953.92,385.7,957q-2.25,8.21-7.5,12.19t-13.32,4a21.53,21.53,0,0,1-16.4-6.82q-6.44-6.81-6.43-18.64,0-12.51,6.46-19.43t17-6.93q9.19,0,14.94,5.44a19.84,19.84,0,0,1,5.12,9.23l-10,2.39A10.36,10.36,0,0,0,365,930a11.41,11.41,0,0,0-9,4q-3.48,4-3.47,13,0,9.5,3.41,13.53a11.11,11.11,0,0,0,8.89,4,10.13,10.13,0,0,0,6.94-2.56Q374.63,959.43,375.89,953.92Z"/><path class="cls-3" d="M392.33,947.6a31.81,31.81,0,0,1,2.29-12.85,23.49,23.49,0,0,1,4.67-6.87,19.51,19.51,0,0,1,6.47-4.51,27.56,27.56,0,0,1,10.8-2q11.08,0,17.73,6.87t6.64,19.11q0,12.14-6.59,19T416.7,973.2q-11.18,0-17.77-6.82T392.33,947.6Zm10.43-.34q0,8.5,3.93,12.9a13.52,13.52,0,0,0,19.91,0q3.87-4.37,3.87-13.08t-3.77-12.85a14,14,0,0,0-20.12.05Q402.76,938.61,402.76,947.26Z"/><path class="cls-3" d="M448.93,972.35V922.24h9.85l20.5,33.46V922.24h9.4v50.11H478.53l-20.2-32.68v32.68Z"/><path class="cls-3" d="M510.66,972.35V930.72H495.79v-8.48h39.82v8.48H520.78v41.63Z"/><path class="cls-3" d="M542.17,972.35V922.24h21.3q8,0,11.67,1.35a11.52,11.52,0,0,1,5.83,4.8,14.44,14.44,0,0,1,2.19,7.9,13.37,13.37,0,0,1-3.32,9.31q-3.32,3.67-9.91,4.63a23.73,23.73,0,0,1,5.42,4.21,56.42,56.42,0,0,1,5.75,8.13l6.12,9.78h-12.1l-7.31-10.91a72.3,72.3,0,0,0-5.33-7.36,7.74,7.74,0,0,0-3.05-2.09,16.84,16.84,0,0,0-5.09-.56h-2.05v20.92Zm10.12-28.92h7.49q7.28,0,9.09-.61a5.49,5.49,0,0,0,2.84-2.12,6.58,6.58,0,0,0,1-3.76,6,6,0,0,0-1.35-4.09,6.21,6.21,0,0,0-3.81-2c-.82-.12-3.28-.17-7.38-.17h-7.9Z"/><path class="cls-3" d="M590.64,947.6a31.81,31.81,0,0,1,2.29-12.85,23.68,23.68,0,0,1,4.67-6.87,19.51,19.51,0,0,1,6.47-4.51,27.59,27.59,0,0,1,10.8-2q11.08,0,17.73,6.87t6.64,19.11q0,12.14-6.59,19T615,973.2q-11.18,0-17.77-6.82T590.64,947.6Zm10.43-.34q0,8.5,3.93,12.9a13.52,13.52,0,0,0,19.91,0q3.87-4.37,3.88-13.08T625,934.27a14,14,0,0,0-20.12.05Q601.07,938.61,601.07,947.26Z"/><path class="cls-3" d="M647.41,972.35v-49.7h10.12V963.9h25.16v8.45Z"/><path class="cls-3" d="M346.6,198.21v-50.1h16.24q9.23,0,12,.75a13.08,13.08,0,0,1,7.21,4.9,15.54,15.54,0,0,1,2.91,9.76,16.31,16.31,0,0,1-1.68,7.76,13.67,13.67,0,0,1-4.25,4.94,14.62,14.62,0,0,1-5.25,2.37,57.5,57.5,0,0,1-10.49.72h-6.6v18.9Zm10.12-41.63V170.8h5.54c4,0,6.65-.26,8-.79a6.64,6.64,0,0,0,3.16-2.46,6.72,6.72,0,0,0,1.14-3.89,6.45,6.45,0,0,0-1.6-4.51,7,7,0,0,0-4.07-2.23,49.93,49.93,0,0,0-7.28-.34Z"/><path class="cls-3" d="M433.28,198.21h-11l-4.38-11.38h-20l-4.13,11.38H383l19.51-50.1h10.7Zm-18.62-19.82-6.91-18.6L401,178.39Z"/><path class="cls-3" d="M444.73,198.21V156.58H429.87v-8.47h39.82v8.47H454.85v41.63Z"/><path class="cls-3" d="M508.27,179.79l9.81,3.11q-2.25,8.21-7.5,12.19t-13.31,4a21.58,21.58,0,0,1-16.41-6.82q-6.42-6.83-6.42-18.65,0-12.51,6.46-19.43t17-6.92q9.19,0,14.94,5.44a19.72,19.72,0,0,1,5.13,9.22l-10,2.4a10.34,10.34,0,0,0-10.56-8.41,11.39,11.39,0,0,0-9,4q-3.46,4-3.47,12.95,0,9.51,3.42,13.54a11.1,11.1,0,0,0,8.89,4,10.11,10.11,0,0,0,6.93-2.56Q507,185.3,508.27,179.79Z"/><path class="cls-3" d="M526.8,198.21v-50.1h10.12v19.72h19.82V148.11h10.12v50.1H556.74V176.3H536.92v21.91Z"/><path class="cls-3" d="M577,198.21v-50.1h10.12v50.1Z"/><path class="cls-3" d="M596.87,198.21v-50.1h9.84l20.51,33.46V148.11h9.4v50.1H626.47l-20.2-32.67v32.67Z"/><path class="cls-3" d="M670.63,179.79v-8.44h21.8v20a27.37,27.37,0,0,1-9.21,5.42A33.52,33.52,0,0,1,671,199.07a27.38,27.38,0,0,1-13.7-3.3,21,21,0,0,1-8.79-9.43A30.49,30.49,0,0,1,645.57,173a28.79,28.79,0,0,1,3.29-13.91,22,22,0,0,1,9.6-9.33,25.82,25.82,0,0,1,12-2.5q9.33,0,14.58,3.91A17.75,17.75,0,0,1,691.79,162l-10,1.88a10.66,10.66,0,0,0-4-5.83,12,12,0,0,0-7.29-2.13q-6.63,0-10.55,4.2c-2.61,2.81-3.91,7-3.91,12.48q0,8.92,4,13.38a13.26,13.26,0,0,0,10.39,4.46,17.48,17.48,0,0,0,6.38-1.25,21.79,21.79,0,0,0,5.48-3v-6.36Z"/><path class="cls-4" d="M352.18,745.11V308.2H493.74q80.47,0,104.91,6.56,37.54,9.83,62.88,42.77t25.33,85.08q0,40.23-14.6,67.65t-37.11,43.07Q612.65,569,589.41,574q-31.59,6.26-91.5,6.26H440.39V745.11Zm88.21-363v124h48.28q52.16,0,69.74-6.85T586,477.78q10-14.59,10-34,0-23.83-14-39.34t-35.47-19.37q-15.79-3-63.48-3Z"/><rect class="cls-5" x="1.4" y="8.01" width="1080" height="1080"/></svg>