<svg id="Layer_1" data-name="Layer 1" xmlns="http://www.w3.org/2000/svg" viewBox="0 0 1080 1080"><defs><style>.cls-1{fill:#3953a4;}.cls-2,.cls-5{fill:none;}.cls-2{stroke:#231f20;stroke-miterlimit:10;stroke-width:0.5px;}.cls-3{fill:#fff;}.cls-4{fill:#231f20;}</style></defs><title>15 NEW</title><rect class="cls-1" x="185.68" y="66.84" width="526.26" height="212.63"/><rect class="cls-1" x="185.68" y="773.84" width="526.26" height="212.63"/><polygon class="cls-2" points="711.94 773.65 185.68 773.84 185.68 279.47 711.94 279.47 711.94 773.65"/><path class="cls-3" d="M262,837.22V787.11h16.23q9.22,0,12,.75a13.14,13.14,0,0,1,7.21,4.9,15.56,15.56,0,0,1,2.91,9.76,16.28,16.28,0,0,1-1.68,7.76,13.67,13.67,0,0,1-4.25,4.94,14.65,14.65,0,0,1-5.25,2.38,58.6,58.6,0,0,1-10.49.71h-6.6v18.91Zm10.11-41.64V809.8h5.54c4,0,6.65-.26,8-.78a6.56,6.56,0,0,0,4.3-6.36,6.47,6.47,0,0,0-1.6-4.51,6.94,6.94,0,0,0-4.07-2.22,47.93,47.93,0,0,0-7.28-.35Z"/><path class="cls-3" d="M309,837.22v-49.7H319.1v41.25h25.15v8.45Z"/><path class="cls-3" d="M396.65,837.22h-11l-4.37-11.39h-20l-4.14,11.39H346.37l19.52-50.11h10.7ZM378,817.39l-6.9-18.59-6.77,18.59Z"/><path class="cls-3" d="M408.1,837.22V795.58H393.23v-8.47h39.82v8.47H418.22v41.64Z"/><path class="cls-3" d="M439.65,837.22V787.11H474v8.47H449.76v11.86h20.92v8.48H449.76v21.3Z"/><path class="cls-3" d="M480.29,812.47a31.77,31.77,0,0,1,2.29-12.85,23.65,23.65,0,0,1,4.66-6.87,19.45,19.45,0,0,1,6.48-4.51,27.34,27.34,0,0,1,10.8-2q11.07,0,17.72,6.87t6.65,19.11q0,12.13-6.6,19t-17.63,6.85q-11.18,0-17.78-6.82T480.29,812.47Zm10.42-.34q0,8.5,3.93,12.9a12.8,12.8,0,0,0,10,4.39,12.67,12.67,0,0,0,9.93-4.36q3.88-4.35,3.88-13.07t-3.77-12.85a14,14,0,0,0-20.12.05Q490.72,803.48,490.71,812.13Z"/><path class="cls-3" d="M536.82,837.22V787.11h21.29q8,0,11.68,1.35a11.49,11.49,0,0,1,5.82,4.8,14.42,14.42,0,0,1,2.19,7.9,13.36,13.36,0,0,1-3.31,9.31q-3.32,3.67-9.92,4.63a23.51,23.51,0,0,1,5.42,4.21,55.5,55.5,0,0,1,5.76,8.13l6.12,9.78h-12.1l-7.31-10.91a70.23,70.23,0,0,0-5.34-7.36,7.71,7.71,0,0,0-3-2.09,16.57,16.57,0,0,0-5.09-.56h-2v20.92Zm10.12-28.92h7.48q7.29,0,9.09-.62a5.43,5.43,0,0,0,2.84-2.11,6.5,6.5,0,0,0,1-3.76,6,6,0,0,0-1.35-4.09,6.16,6.16,0,0,0-3.81-2c-.82-.12-3.29-.18-7.39-.18h-7.89Z"/><path class="cls-3" d="M587.2,837.22V787.11h15.14l9.09,34.18,9-34.18H635.6v50.11h-9.4V797.77l-10,39.45h-9.74l-9.91-39.45v39.45Z"/><path class="cls-3" d="M273.07,888.87l9.85-1c.59,3.31,1.79,5.73,3.6,7.28a10.91,10.91,0,0,0,7.33,2.33q4.89,0,7.37-2.07a6.16,6.16,0,0,0,2.48-4.84,4.58,4.58,0,0,0-1-3,8.34,8.34,0,0,0-3.64-2.17q-1.78-.61-8.11-2.19-8.13-2-11.41-5a13,13,0,0,1-4.62-10.08,12.87,12.87,0,0,1,2.18-7.16,13.62,13.62,0,0,1,6.25-5.08,25.1,25.1,0,0,1,9.86-1.74q9.43,0,14.2,4.14a14.57,14.57,0,0,1,5,11l-10.12.44c-.43-2.57-1.36-4.43-2.78-5.55s-3.56-1.7-6.41-1.7a11.57,11.57,0,0,0-6.91,1.82,3.64,3.64,0,0,0-1.6,3.11,3.85,3.85,0,0,0,1.5,3q1.92,1.61,9.3,3.35a49.16,49.16,0,0,1,10.92,3.6,14.15,14.15,0,0,1,5.54,5.1,14.9,14.9,0,0,1,2,8,14.69,14.69,0,0,1-2.4,8.06,14.29,14.29,0,0,1-6.77,5.59,28.33,28.33,0,0,1-10.9,1.83q-9.5,0-14.59-4.39T273.07,888.87Z"/><path class="cls-3" d="M322.33,905.17V855.06h37.15v8.48h-27v11.11H357.6v8.44H332.44v13.64h28v8.44Z"/><path class="cls-3" d="M401.08,886.75l9.81,3.11q-2.26,8.21-7.51,12.18t-13.31,4a21.6,21.6,0,0,1-16.41-6.82q-6.42-6.83-6.42-18.65,0-12.51,6.46-19.43t17-6.92q9.19,0,14.93,5.43a19.81,19.81,0,0,1,5.13,9.23l-10,2.4a10.32,10.32,0,0,0-10.56-8.41,11.39,11.39,0,0,0-9,4q-3.47,4-3.47,12.95,0,9.51,3.42,13.54a11.13,11.13,0,0,0,8.89,4,10.18,10.18,0,0,0,6.94-2.56Q399.8,892.26,401.08,886.75Z"/><path class="cls-3" d="M419.5,855.06h10.12V882.2a56.81,56.81,0,0,0,.37,8.38,8.13,8.13,0,0,0,3.1,4.94,10.75,10.75,0,0,0,6.68,1.86q4.31,0,6.49-1.76a6.92,6.92,0,0,0,2.63-4.32,55.78,55.78,0,0,0,.45-8.52V855.06h10.11v26.32q0,9-.82,12.75a14,14,0,0,1-3,6.29,15.37,15.37,0,0,1-5.9,4.09,25.72,25.72,0,0,1-9.64,1.52q-7.17,0-10.88-1.66a15.55,15.55,0,0,1-5.86-4.31,13.8,13.8,0,0,1-2.84-5.55,61,61,0,0,1-1-12.72Z"/><path class="cls-3" d="M470.15,905.17V855.06h21.3q8,0,11.67,1.35a11.54,11.54,0,0,1,5.83,4.81,14.48,14.48,0,0,1,2.18,7.89,13.39,13.39,0,0,1-3.31,9.32q-3.31,3.68-9.91,4.63a23.63,23.63,0,0,1,5.41,4.2,56.31,56.31,0,0,1,5.76,8.14l6.12,9.77H503.1l-7.31-10.9a72.88,72.88,0,0,0-5.33-7.37,7.71,7.71,0,0,0-3-2.08,16.46,16.46,0,0,0-5.09-.57h-2.05v20.92Zm10.12-28.91h7.49q7.28,0,9.09-.62a5.42,5.42,0,0,0,2.83-2.12,6.46,6.46,0,0,0,1-3.76,6,6,0,0,0-1.35-4.08,6.22,6.22,0,0,0-3.81-2q-1.23-.16-7.38-.17h-7.9Z"/><path class="cls-3" d="M520.36,905.17V855.06h10.12v50.11Z"/><path class="cls-3" d="M551.4,905.17V863.54H536.53v-8.48h39.82v8.48H561.52v41.63Z"/><path class="cls-3" d="M596,905.17V884.08l-18.36-29h11.86l11.79,19.83,11.56-19.83h11.65l-18.42,29.09v21Z"/><path class="cls-3" d="M312.33,954.77l9.81,3.11q-2.26,8.21-7.5,12.19t-13.32,4a21.53,21.53,0,0,1-16.4-6.82q-6.44-6.81-6.43-18.64,0-12.51,6.46-19.43t17-6.92q9.19,0,14.93,5.43A19.76,19.76,0,0,1,322,936.9l-10,2.39a10.36,10.36,0,0,0-10.57-8.41,11.44,11.44,0,0,0-9,4q-3.47,4-3.46,13,0,9.49,3.41,13.53a11.1,11.1,0,0,0,8.89,4,10.13,10.13,0,0,0,6.94-2.56C310.09,961.13,311.49,958.44,312.33,954.77Z"/><path class="cls-3" d="M328.77,948.45a31.81,31.81,0,0,1,2.29-12.85,23.65,23.65,0,0,1,4.66-6.87,19.55,19.55,0,0,1,6.48-4.51,27.52,27.52,0,0,1,10.8-2q11.07,0,17.72,6.87t6.65,19.1q0,12.13-6.59,19t-17.64,6.85q-11.17,0-17.77-6.82T328.77,948.45Zm10.42-.34q0,8.5,3.93,12.9a13.52,13.52,0,0,0,19.91,0q3.89-4.37,3.88-13.08t-3.77-12.85a14,14,0,0,0-20.12,0Q339.2,939.46,339.19,948.11Z"/><path class="cls-3" d="M385.37,973.2V923.09h9.84l20.51,33.46V923.09h9.4V973.2H415l-20.2-32.68V973.2Z"/><path class="cls-3" d="M447.1,973.2V931.57H432.23v-8.48h39.82v8.48H457.22V973.2Z"/><path class="cls-3" d="M478.61,973.2V923.09h21.3q8,0,11.67,1.35a11.52,11.52,0,0,1,5.83,4.8,14.52,14.52,0,0,1,2.18,7.9,13.36,13.36,0,0,1-3.31,9.31q-3.31,3.67-9.91,4.63a23.66,23.66,0,0,1,5.41,4.21,56.07,56.07,0,0,1,5.76,8.13l6.12,9.78h-12.1l-7.31-10.91a72.3,72.3,0,0,0-5.33-7.36,7.81,7.81,0,0,0-3.05-2.09,16.89,16.89,0,0,0-5.09-.56h-2V973.2Zm10.12-28.92h7.49q7.27,0,9.09-.61a5.46,5.46,0,0,0,2.83-2.12,6.5,6.5,0,0,0,1-3.76,6,6,0,0,0-1.35-4.09,6.21,6.21,0,0,0-3.81-2c-.82-.12-3.28-.17-7.38-.17h-7.9Z"/><path class="cls-3" d="M527.08,948.45a31.81,31.81,0,0,1,2.29-12.85,23.49,23.49,0,0,1,4.67-6.87,19.51,19.51,0,0,1,6.47-4.51,27.52,27.52,0,0,1,10.8-2q11.09,0,17.73,6.87t6.64,19.1q0,12.13-6.59,19t-17.64,6.85q-11.18,0-17.77-6.82T527.08,948.45Zm10.42-.34q0,8.5,3.93,12.9a13.52,13.52,0,0,0,19.91,0q3.88-4.37,3.88-13.08t-3.77-12.85a14,14,0,0,0-20.12,0Q537.5,939.46,537.5,948.11Z"/><path class="cls-3" d="M583.85,973.2V923.5H594v41.25h25.16v8.45Z"/><path class="cls-3" d="M261.5,161.21v-50.1h10.12v50.1Z"/><path class="cls-3" d="M281.36,161.21v-50.1h9.85l20.5,33.46V111.11h9.4v50.1H311l-20.2-32.67v32.67Z"/><path class="cls-3" d="M343.09,161.21V119.58H328.22v-8.47H368v8.47H353.21v41.63Z"/><path class="cls-3" d="M374.6,161.21v-50.1h21.3q8,0,11.67,1.35a11.52,11.52,0,0,1,5.83,4.8,14.41,14.41,0,0,1,2.19,7.89,13.4,13.4,0,0,1-3.32,9.32q-3.31,3.67-9.91,4.63a24,24,0,0,1,5.42,4.2,57.25,57.25,0,0,1,5.75,8.14l6.12,9.77h-12.1l-7.31-10.9a72.88,72.88,0,0,0-5.33-7.37,7.78,7.78,0,0,0-3.05-2.08,16.46,16.46,0,0,0-5.09-.57h-2v20.92Zm10.12-28.91h7.49q7.28,0,9.09-.62a5.37,5.37,0,0,0,2.83-2.12,6.46,6.46,0,0,0,1-3.76,6,6,0,0,0-1.35-4.08,6.22,6.22,0,0,0-3.81-2q-1.23-.16-7.38-.17h-7.9Z"/><path class="cls-3" d="M425.05,111.11h10.12v27.13a56.29,56.29,0,0,0,.38,8.38,8.09,8.09,0,0,0,3.09,4.94,10.79,10.79,0,0,0,6.68,1.86q4.31,0,6.5-1.76a7,7,0,0,0,2.63-4.32,57.43,57.43,0,0,0,.44-8.51V111.11H465v26.31q0,9-.82,12.75a14.12,14.12,0,0,1-3,6.29,15.33,15.33,0,0,1-5.89,4.09,25.75,25.75,0,0,1-9.64,1.52c-4.79,0-8.41-.56-10.89-1.66a15.63,15.63,0,0,1-5.86-4.31,13.86,13.86,0,0,1-2.84-5.55,61,61,0,0,1-1-12.72Z"/><path class="cls-3" d="M473.11,144.91l9.84-1c.6,3.31,1.8,5.73,3.61,7.28a10.89,10.89,0,0,0,7.33,2.33c3.26,0,5.71-.69,7.37-2.07a6.15,6.15,0,0,0,2.47-4.84,4.53,4.53,0,0,0-1-3,8.28,8.28,0,0,0-3.64-2.17q-1.77-.61-8.1-2.19-8.13-2-11.41-5a13,13,0,0,1-4.62-10.08,12.85,12.85,0,0,1,2.17-7.16,13.65,13.65,0,0,1,6.26-5.08,25.1,25.1,0,0,1,9.86-1.74q9.44,0,14.2,4.14a14.57,14.57,0,0,1,5,11l-10.12.44a8.56,8.56,0,0,0-2.79-5.55q-2.13-1.69-6.41-1.69a11.54,11.54,0,0,0-6.9,1.81,3.65,3.65,0,0,0-1.61,3.11,3.83,3.83,0,0,0,1.51,3q1.9,1.6,9.29,3.35a48.79,48.79,0,0,1,10.92,3.6,14.08,14.08,0,0,1,5.54,5.1,15.77,15.77,0,0,1-.39,16,14.34,14.34,0,0,1-6.77,5.59,28.36,28.36,0,0,1-10.9,1.83q-9.51,0-14.6-4.39T473.11,144.91Z"/><path class="cls-3" d="M522.05,161.21v-50.1h10.12v50.1Z"/><path class="cls-3" d="M539.76,136.47a31.77,31.77,0,0,1,2.29-12.85,23.23,23.23,0,0,1,4.67-6.87,19.44,19.44,0,0,1,6.47-4.52,27.52,27.52,0,0,1,10.8-2q11.09,0,17.73,6.87t6.64,19.11q0,12.14-6.59,19t-17.64,6.86q-11.18,0-17.77-6.82T539.76,136.47Zm10.42-.34q0,8.51,3.94,12.9a12.79,12.79,0,0,0,10,4.39,12.66,12.66,0,0,0,9.92-4.36q3.88-4.35,3.88-13.07t-3.77-12.85a14,14,0,0,0-20.12,0Q550.19,127.48,550.18,136.13Z"/><path class="cls-3" d="M596.36,161.21v-50.1h9.85l20.5,33.46V111.11h9.4v50.1H626l-20.2-32.67v32.67Z"/><path class="cls-3" d="M251.92,185.11h18.49a36,36,0,0,1,9.53.95,16.84,16.84,0,0,1,7.56,4.62,21.89,21.89,0,0,1,4.78,8.11,36.86,36.86,0,0,1,1.64,11.85,32.77,32.77,0,0,1-1.54,10.66,22,22,0,0,1-5.36,8.85,17.77,17.77,0,0,1-7.11,4,30.49,30.49,0,0,1-9,1.06h-19ZM262,193.58v33.19h7.56a27.41,27.41,0,0,0,6.11-.48,9.29,9.29,0,0,0,4.09-2.08,10.68,10.68,0,0,0,2.65-4.84,32.82,32.82,0,0,0,1-9.18,30.12,30.12,0,0,0-1-8.92,11.53,11.53,0,0,0-2.87-4.85,9.63,9.63,0,0,0-4.69-2.36,45.67,45.67,0,0,0-8.3-.48Z"/><path class="cls-3" d="M302.5,235.21v-50.1h37.15v8.47h-27v11.11h25.16v8.44H312.62v13.64h28v8.44Z"/><path class="cls-3" d="M360.47,235.21V193.58H345.6v-8.47h39.82v8.47H370.59v41.63Z"/><path class="cls-3" d="M392,235.21v-50.1H429.1v8.47h-27v11.11h25.15v8.44H402.07v13.64h28v8.44Z"/><path class="cls-3" d="M470.7,216.79l9.81,3.11q-2.25,8.21-7.5,12.19t-13.32,4a21.56,21.56,0,0,1-16.4-6.82q-6.44-6.83-6.43-18.65,0-12.51,6.46-19.43t17-6.92q9.19,0,14.94,5.44a19.8,19.8,0,0,1,5.12,9.22l-10,2.4a10.34,10.34,0,0,0-10.56-8.41,11.38,11.38,0,0,0-9,4q-3.48,4-3.47,12.95,0,9.51,3.41,13.54a11.1,11.1,0,0,0,8.89,4,10.13,10.13,0,0,0,6.94-2.56Q469.44,222.3,470.7,216.79Z"/><path class="cls-3" d="M500.47,235.21V193.58H485.6v-8.47h39.82v8.47H510.59v41.63Z"/><path class="cls-3" d="M531.64,235.21v-50.1h10.12v50.1Z"/><path class="cls-3" d="M549.35,210.47a31.77,31.77,0,0,1,2.29-12.85,23.39,23.39,0,0,1,4.66-6.87,19.48,19.48,0,0,1,6.48-4.52,27.52,27.52,0,0,1,10.8-2q11.07,0,17.72,6.87T598,210.23q0,12.14-6.6,19t-17.63,6.86q-11.18,0-17.78-6.82T549.35,210.47Zm10.42-.34q0,8.51,3.93,12.9a12.8,12.8,0,0,0,10,4.39,12.67,12.67,0,0,0,9.93-4.36q3.89-4.35,3.88-13.07t-3.77-12.85a14,14,0,0,0-20.12.05Q559.77,201.48,559.77,210.13Z"/><path class="cls-3" d="M606,235.21v-50.1h9.84l20.51,33.46V185.11h9.4v50.1H635.55l-20.2-32.67v32.67Z"/><path class="cls-4" d="M215.09,716.37V336.94H291.7V716.37Z"/><path class="cls-4" d="M364.43,336.94h140q47.37,0,72.21,7.25a126.94,126.94,0,0,1,57.2,34.94q23.82,25.11,36.24,61.47t12.42,89.68q0,46.85-11.65,80.75-14.24,41.41-40.63,67-19.93,19.43-53.83,30.29-25.38,8-67.82,8H364.43ZM441,401.13V652.44h57.2q32.1,0,46.33-3.62Q563.2,644.16,575.5,633t20.06-36.62q7.76-25.5,7.76-69.5t-7.76-67.55q-7.77-23.55-21.74-36.75t-35.46-17.86q-16.05-3.62-62.89-3.62Z"/><rect class="cls-5" x="13.08" y="-13.21" width="1080" height="1080"/><rect class="cls-5" x="6.7" y="8.01" width="1080" height="1080"/></svg>