<svg id="Layer_1" data-name="Layer 1" xmlns="http://www.w3.org/2000/svg" viewBox="0 0 1080 1080"><defs><style>.cls-1{fill:#3953a4;}.cls-2,.cls-5{fill:none;}.cls-2{stroke:#231f20;stroke-miterlimit:10;stroke-width:0.5px;}.cls-3{fill:#fff;}.cls-4{fill:#231f20;}</style></defs><title>15 NEW</title><rect class="cls-1" x="297.83" y="91.47" width="526.26" height="212.63"/><rect class="cls-1" x="297.83" y="798.46" width="526.26" height="212.63"/><polygon class="cls-2" points="824.09 798.28 297.83 798.46 297.83 304.1 824.09 304.1 824.09 798.28"/><path class="cls-3" d="M367,861V810.88h16.23q9.24,0,12,.75a13.14,13.14,0,0,1,7.21,4.91,15.6,15.6,0,0,1,2.9,9.76,16.39,16.39,0,0,1-1.67,7.75,13.71,13.71,0,0,1-4.26,4.94,14.68,14.68,0,0,1-5.24,2.38,57.7,57.7,0,0,1-10.5.72h-6.59V861Zm10.12-41.63v14.22h5.53c4,0,6.66-.27,8-.79a6.59,6.59,0,0,0,4.31-6.36,6.47,6.47,0,0,0-1.61-4.51,7,7,0,0,0-4.07-2.22,48.3,48.3,0,0,0-7.28-.34Z"/><path class="cls-3" d="M414,861v-49.7H424.1v41.26h25.16V861Z"/><path class="cls-3" d="M501.65,861h-11l-4.38-11.38h-20L462.11,861H451.37l19.52-50.11h10.7ZM483,841.16l-6.9-18.59-6.77,18.59Z"/><path class="cls-3" d="M513.1,861V819.36H498.23v-8.48h39.82v8.48H523.22V861Z"/><path class="cls-3" d="M544.65,861V810.88H579v8.48H554.77v11.86h20.92v8.47H554.77V861Z"/><path class="cls-3" d="M585.29,836.24a31.81,31.81,0,0,1,2.29-12.85,23.49,23.49,0,0,1,4.67-6.87,19.51,19.51,0,0,1,6.47-4.51,27.56,27.56,0,0,1,10.8-2q11.09,0,17.73,6.87t6.64,19.1q0,12.13-6.59,19t-17.64,6.85q-11.17,0-17.77-6.82T585.29,836.24Zm10.43-.34q0,8.51,3.93,12.9a13.52,13.52,0,0,0,19.91,0q3.87-4.37,3.88-13.08t-3.78-12.85a14,14,0,0,0-20.12.05Q595.72,827.25,595.72,835.9Z"/><path class="cls-3" d="M641.82,861V810.88h21.3q8,0,11.67,1.35a11.52,11.52,0,0,1,5.83,4.8,14.44,14.44,0,0,1,2.19,7.9,13.37,13.37,0,0,1-3.32,9.31q-3.32,3.68-9.91,4.63a23.73,23.73,0,0,1,5.42,4.21,57,57,0,0,1,5.75,8.13l6.12,9.78h-12.1l-7.31-10.91a72.3,72.3,0,0,0-5.33-7.36,7.74,7.74,0,0,0-3-2.09,16.84,16.84,0,0,0-5.09-.56h-2V861Zm10.12-28.92h7.49q7.27,0,9.09-.61a5.49,5.49,0,0,0,2.84-2.12,6.58,6.58,0,0,0,1-3.76,6,6,0,0,0-1.35-4.09,6.21,6.21,0,0,0-3.81-2c-.82-.12-3.28-.17-7.38-.17h-7.9Z"/><path class="cls-3" d="M692.2,861V810.88h15.15l9.09,34.18,9-34.18H740.6V861h-9.4V821.54L721.26,861h-9.74l-9.92-39.45V861Z"/><path class="cls-3" d="M378.08,912.64l9.84-1c.59,3.31,1.79,5.73,3.61,7.28a10.89,10.89,0,0,0,7.33,2.33q4.89,0,7.36-2.07a6.13,6.13,0,0,0,2.48-4.84,4.58,4.58,0,0,0-1-3,8.34,8.34,0,0,0-3.64-2.17q-1.78-.62-8.1-2.19-8.13-2-11.42-5A13,13,0,0,1,379.89,892a12.85,12.85,0,0,1,2.17-7.16,13.54,13.54,0,0,1,6.25-5.07,25,25,0,0,1,9.86-1.75q9.43,0,14.21,4.14a14.62,14.62,0,0,1,5,11l-10.11.44a8.65,8.65,0,0,0-2.79-5.55q-2.13-1.69-6.41-1.69a11.52,11.52,0,0,0-6.9,1.81,3.65,3.65,0,0,0-1.61,3.11,3.85,3.85,0,0,0,1.5,3q1.92,1.6,9.3,3.35a48.56,48.56,0,0,1,10.92,3.61,14,14,0,0,1,5.54,5.09,15.78,15.78,0,0,1-.39,16,14.32,14.32,0,0,1-6.77,5.58,28.38,28.38,0,0,1-10.91,1.83q-9.5,0-14.59-4.39T378.08,912.64Z"/><path class="cls-3" d="M427.33,928.94v-50.1h37.15v8.47h-27v11.11H462.6v8.44H437.45V920.5h28v8.44Z"/><path class="cls-3" d="M506.08,910.52l9.81,3.11q-2.26,8.21-7.5,12.19t-13.32,4a21.53,21.53,0,0,1-16.4-6.82q-6.44-6.83-6.43-18.65,0-12.5,6.46-19.43t17-6.92q9.19,0,14.94,5.44a19.79,19.79,0,0,1,5.12,9.23l-10,2.39a10.36,10.36,0,0,0-10.56-8.41,11.38,11.38,0,0,0-9,4q-3.48,4-3.47,13,0,9.51,3.41,13.54a11.11,11.11,0,0,0,8.89,4,10.13,10.13,0,0,0,6.94-2.56Q504.82,916,506.08,910.52Z"/><path class="cls-3" d="M524.5,878.84h10.12V906a54.81,54.81,0,0,0,.38,8.37,8.09,8.09,0,0,0,3.09,4.94,10.79,10.79,0,0,0,6.68,1.86c2.87,0,5-.59,6.49-1.76a7,7,0,0,0,2.64-4.32,57.43,57.43,0,0,0,.44-8.51V878.84h10.12v26.32a68.13,68.13,0,0,1-.82,12.74,14.12,14.12,0,0,1-3,6.29,15.33,15.33,0,0,1-5.89,4.09,25.75,25.75,0,0,1-9.64,1.52q-7.19,0-10.89-1.66a15.52,15.52,0,0,1-5.86-4.31,13.74,13.74,0,0,1-2.84-5.55,60.9,60.9,0,0,1-1-12.71Z"/><path class="cls-3" d="M575.16,928.94v-50.1h21.29c5.35,0,9.25.45,11.67,1.35A11.52,11.52,0,0,1,614,885a14.41,14.41,0,0,1,2.19,7.89,13.4,13.4,0,0,1-3.32,9.32q-3.32,3.67-9.91,4.63a24,24,0,0,1,5.42,4.2,57.94,57.94,0,0,1,5.76,8.14l6.12,9.77h-12.1L600.79,918a71.26,71.26,0,0,0-5.33-7.37,7.86,7.86,0,0,0-3-2.08,16.6,16.6,0,0,0-5.1-.56h-2.05v20.91ZM585.27,900h7.49q7.28,0,9.09-.62a5.43,5.43,0,0,0,2.84-2.12,6.53,6.53,0,0,0,1-3.76,6,6,0,0,0-1.35-4.08,6.22,6.22,0,0,0-3.81-2q-1.23-.16-7.38-.17h-7.9Z"/><path class="cls-3" d="M625.37,928.94v-50.1h10.11v50.1Z"/><path class="cls-3" d="M656.4,928.94V887.31H641.53v-8.47h39.82v8.47H666.52v41.63Z"/><path class="cls-3" d="M701,928.94V907.86l-18.35-29h11.86l11.79,19.82,11.55-19.82h11.66l-18.43,29.08v21Z"/><path class="cls-3" d="M417.33,978.55l9.81,3.11q-2.25,8.21-7.5,12.18t-13.31,4A21.53,21.53,0,0,1,389.92,991q-6.42-6.81-6.43-18.64,0-12.51,6.46-19.43t17-6.92q9.19,0,14.94,5.43a19.75,19.75,0,0,1,5.12,9.23l-10,2.39a10.36,10.36,0,0,0-10.56-8.41,11.41,11.41,0,0,0-9,4q-3.48,4-3.47,13,0,9.5,3.42,13.53a11.08,11.08,0,0,0,8.88,4,10.12,10.12,0,0,0,6.94-2.57Q416.07,984,417.33,978.55Z"/><path class="cls-3" d="M433.77,972.22a32,32,0,0,1,2.29-12.85,23.68,23.68,0,0,1,4.67-6.87A19.51,19.51,0,0,1,447.2,948,27.61,27.61,0,0,1,458,946q11.07,0,17.72,6.87t6.65,19.1q0,12.13-6.6,19t-17.64,6.85q-11.17,0-17.77-6.82T433.77,972.22Zm10.43-.34q0,8.52,3.93,12.9a13.5,13.5,0,0,0,19.91,0c2.58-2.91,3.88-7.26,3.88-13.08s-1.26-10-3.78-12.85a14,14,0,0,0-20.12.05Q444.2,963.23,444.2,971.88Z"/><path class="cls-3" d="M490.37,997V946.86h9.85l20.51,33.46V946.86h9.39V997H520l-20.2-32.68V997Z"/><path class="cls-3" d="M552.1,997V955.34H537.23v-8.48h39.82v8.48H562.22V997Z"/><path class="cls-3" d="M583.62,997V946.86h21.29c5.35,0,9.25.45,11.67,1.35a11.52,11.52,0,0,1,5.83,4.8,14.46,14.46,0,0,1,2.19,7.9,13.37,13.37,0,0,1-3.32,9.31q-3.31,3.67-9.91,4.64a23.43,23.43,0,0,1,5.42,4.2,58.31,58.31,0,0,1,5.76,8.13l6.11,9.78h-12.1l-7.31-10.9a70.09,70.09,0,0,0-5.33-7.37,7.89,7.89,0,0,0-3-2.09,16.92,16.92,0,0,0-5.1-.56h-2V997Zm10.11-28.92h7.49q7.28,0,9.09-.61a5.49,5.49,0,0,0,2.84-2.12,6.55,6.55,0,0,0,1-3.76,6,6,0,0,0-1.35-4.09,6.21,6.21,0,0,0-3.81-2q-1.23-.16-7.38-.17h-7.9Z"/><path class="cls-3" d="M632.08,972.22a32,32,0,0,1,2.29-12.85A23.68,23.68,0,0,1,639,952.5a19.45,19.45,0,0,1,6.48-4.51,27.52,27.52,0,0,1,10.8-2q11.07,0,17.72,6.87t6.65,19.1q0,12.13-6.6,19t-17.64,6.85q-11.18,0-17.77-6.82T632.08,972.22Zm10.43-.34q0,8.52,3.93,12.9a13.5,13.5,0,0,0,19.91,0c2.58-2.91,3.88-7.26,3.88-13.08s-1.26-10-3.78-12.85a14,14,0,0,0-20.11.05Q642.5,963.23,642.51,971.88Z"/><path class="cls-3" d="M688.86,997v-49.7H699v41.26h25.16V997Z"/><path class="cls-3" d="M363.08,177l-17.91-50.11h11L368.82,164l12.27-37.09h10.73L373.88,177Z"/><path class="cls-3" d="M418.21,177v-5.43a14.09,14.09,0,0,1-5.21,4.58,14.72,14.72,0,0,1-6.82,1.67,13.31,13.31,0,0,1-6.56-1.61,9.48,9.48,0,0,1-4.21-4.51,20.19,20.19,0,0,1-1.3-8v-23h9.61v16.68c0,5.11.17,8.23.53,9.38a5.08,5.08,0,0,0,1.93,2.74,5.94,5.94,0,0,0,3.55,1,7.56,7.56,0,0,0,4.41-1.35,6.89,6.89,0,0,0,2.67-3.35c.48-1.34.72-4.6.72-9.8V140.67h9.6V177Z"/><path class="cls-3" d="M437.08,177V126.86h9.6V177Z"/><path class="cls-3" d="M489.54,177h-9.6V158.44c0-3.91-.21-6.45-.62-7.6a5.3,5.3,0,0,0-2-2.68,5.69,5.69,0,0,0-3.33-1,7.73,7.73,0,0,0-4.48,1.37,6.89,6.89,0,0,0-2.71,3.62q-.74,2.25-.74,8.34V177h-9.6v-36.3h8.92V146a14.52,14.52,0,0,1,12-6.15,14.28,14.28,0,0,1,5.81,1.15,9.61,9.61,0,0,1,4,2.92,10.52,10.52,0,0,1,1.88,4,29.62,29.62,0,0,1,.53,6.46Z"/><path class="cls-3" d="M520.3,165.42l9.57,1.6a15.7,15.7,0,0,1-5.82,8,17.18,17.18,0,0,1-10,2.75q-9.47,0-14-6.19-3.58-4.95-3.59-12.51,0-9,4.72-14.13a15.52,15.52,0,0,1,11.93-5.11q8.1,0,12.78,5.35t4.48,16.39H506.32a9.75,9.75,0,0,0,2.33,6.65,7.28,7.28,0,0,0,5.54,2.37,5.89,5.89,0,0,0,3.79-1.23A7.53,7.53,0,0,0,520.3,165.42Zm.55-9.71c-.07-2.78-.78-4.89-2.15-6.34a6.6,6.6,0,0,0-5-2.17,6.67,6.67,0,0,0-5.2,2.29,8.86,8.86,0,0,0-2,6.22Z"/><path class="cls-3" d="M547.41,177H537.8v-36.3h8.93v5.16a15.46,15.46,0,0,1,4.11-4.82,7.64,7.64,0,0,1,4.16-1.16,12.27,12.27,0,0,1,6.32,1.81l-3,8.38a8.46,8.46,0,0,0-4.52-1.58,5.32,5.32,0,0,0-3.41,1.12,7.55,7.55,0,0,0-2.21,4q-.8,2.91-.8,12.17Z"/><path class="cls-3" d="M572.63,151.75l-8.71-1.58a13.54,13.54,0,0,1,5.06-7.79q3.59-2.53,10.66-2.53,6.42,0,9.57,1.52a9.6,9.6,0,0,1,4.43,3.86c.85,1.57,1.28,4.43,1.28,8.6l-.1,11.21a38.79,38.79,0,0,0,.46,7.06A20.71,20.71,0,0,0,597,177h-9.5c-.25-.64-.56-1.58-.92-2.84-.16-.57-.27-.94-.34-1.12a17.24,17.24,0,0,1-5.27,3.58,15,15,0,0,1-6,1.2q-5.61,0-8.83-3a10.09,10.09,0,0,1-3.23-7.69,10.35,10.35,0,0,1,1.47-5.49,9.66,9.66,0,0,1,4.12-3.69,32.41,32.41,0,0,1,7.63-2.24,52.27,52.27,0,0,0,9.34-2.36v-.95a5,5,0,0,0-1.37-4q-1.36-1.19-5.16-1.18a6.88,6.88,0,0,0-4,1A7,7,0,0,0,572.63,151.75Zm12.86,7.79c-1.24.41-3.18.9-5.85,1.47a17.82,17.82,0,0,0-5.23,1.67,4,4,0,0,0-1.88,3.39,4.71,4.71,0,0,0,1.5,3.48,5.27,5.27,0,0,0,3.83,1.47,8.32,8.32,0,0,0,5-1.71,6,6,0,0,0,2.29-3.18,18.92,18.92,0,0,0,.38-4.68Z"/><path class="cls-3" d="M604,177V126.86h9.6v18a13.6,13.6,0,0,1,10.53-5.06,14.15,14.15,0,0,1,11,4.8q4.33,4.8,4.34,13.79,0,9.3-4.43,14.33a13.8,13.8,0,0,1-10.75,5,13.37,13.37,0,0,1-6.13-1.55,14.67,14.67,0,0,1-5.21-4.6V177ZM613.51,158q0,5.64,1.78,8.34a7.58,7.58,0,0,0,6.63,3.83,6.79,6.79,0,0,0,5.42-2.71c1.49-1.82,2.24-4.67,2.24-8.57,0-4.14-.76-7.13-2.26-9a7.15,7.15,0,0,0-5.78-2.75,7.23,7.23,0,0,0-5.74,2.68C614.28,151.67,613.51,154.39,613.51,158Z"/><path class="cls-3" d="M647.15,135.75v-8.89h9.6v8.89Zm0,41.22v-36.3h9.6V177Z"/><path class="cls-3" d="M666.59,177V126.86h9.61V177Z"/><path class="cls-3" d="M686,135.75v-8.89h9.61v8.89ZM686,177v-36.3h9.61V177Z"/><path class="cls-3" d="M722.14,140.67v7.66h-6.57V163a37,37,0,0,0,.19,5.17,2.1,2.1,0,0,0,.86,1.22,2.68,2.68,0,0,0,1.62.48,12.35,12.35,0,0,0,3.86-.93l.82,7.45a19,19,0,0,1-7.59,1.44,12,12,0,0,1-4.68-.87,6.79,6.79,0,0,1-3.06-2.26,8.87,8.87,0,0,1-1.35-3.74,47.24,47.24,0,0,1-.31-6.77V148.33h-4.4v-7.66h4.4v-7.21l9.64-5.61v12.82Z"/><path class="cls-3" d="M724.25,140.67h10.22l8.69,25.77,8.47-25.77h10L748.76,175.6l-2.29,6.33a25.82,25.82,0,0,1-2.41,4.85,10.51,10.51,0,0,1-2.63,2.72,11.65,11.65,0,0,1-3.66,1.62,18.87,18.87,0,0,1-4.9.58,25.32,25.32,0,0,1-5.44-.58l-.85-7.52a21,21,0,0,0,4.07.45,6,6,0,0,0,5-2,13.65,13.65,0,0,0,2.46-5Z"/><path class="cls-3" d="M354.7,254V203.86h15.15L378.94,238l9-34.18H403.1V254h-9.4V214.53L383.76,254H374l-9.92-39.44V254Z"/><path class="cls-3" d="M420.26,228.75l-8.72-1.58a13.59,13.59,0,0,1,5.06-7.79q3.6-2.53,10.67-2.53,6.42,0,9.57,1.52a9.57,9.57,0,0,1,4.42,3.86c.86,1.57,1.29,4.43,1.29,8.6L442.44,242a39.73,39.73,0,0,0,.46,7.06,20.77,20.77,0,0,0,1.73,4.87h-9.5c-.25-.64-.56-1.58-.92-2.84-.16-.57-.28-.94-.35-1.12a17.2,17.2,0,0,1-5.26,3.58,15,15,0,0,1-6,1.2c-3.74,0-6.68-1-8.84-3a10.12,10.12,0,0,1-3.23-7.69,10.35,10.35,0,0,1,1.47-5.49,9.71,9.71,0,0,1,4.12-3.69,32.51,32.51,0,0,1,7.64-2.24,51.86,51.86,0,0,0,9.33-2.36v-.95c0-1.85-.45-3.16-1.37-4s-2.63-1.18-5.16-1.18a6.9,6.9,0,0,0-4,1A7,7,0,0,0,420.26,228.75Zm12.85,7.79q-1.85.61-5.84,1.47a17.82,17.82,0,0,0-5.23,1.67,4,4,0,0,0-1.88,3.39,4.71,4.71,0,0,0,1.5,3.48,5.25,5.25,0,0,0,3.83,1.47,8.35,8.35,0,0,0,5-1.71,6,6,0,0,0,2.29-3.18,19.07,19.07,0,0,0,.37-4.68Z"/><path class="cls-3" d="M485,254h-9.6V235.44c0-3.91-.21-6.45-.62-7.6a5.3,5.3,0,0,0-2-2.68,5.69,5.69,0,0,0-3.33-1,7.73,7.73,0,0,0-4.48,1.37,6.9,6.9,0,0,0-2.72,3.62q-.73,2.25-.73,8.34V254H452v-36.3h8.92V223a14.52,14.52,0,0,1,12-6.15,14.31,14.31,0,0,1,5.81,1.15,9.68,9.68,0,0,1,4,2.92,10.52,10.52,0,0,1,1.88,4,30.26,30.26,0,0,1,.53,6.46Z"/><path class="cls-3" d="M502,228.75l-8.72-1.58a13.59,13.59,0,0,1,5.06-7.79q3.6-2.53,10.67-2.53,6.42,0,9.57,1.52a9.57,9.57,0,0,1,4.42,3.86c.86,1.57,1.29,4.43,1.29,8.6L524.13,242a39.73,39.73,0,0,0,.46,7.06,20.77,20.77,0,0,0,1.73,4.87h-9.5c-.25-.64-.56-1.58-.92-2.84-.16-.57-.28-.94-.35-1.12a17.2,17.2,0,0,1-5.26,3.58,15,15,0,0,1-6,1.2c-3.74,0-6.68-1-8.84-3a10.12,10.12,0,0,1-3.23-7.69,10.35,10.35,0,0,1,1.47-5.49,9.71,9.71,0,0,1,4.12-3.69,32.51,32.51,0,0,1,7.64-2.24,51.86,51.86,0,0,0,9.33-2.36v-.95c0-1.85-.45-3.16-1.37-4s-2.63-1.18-5.16-1.18a6.9,6.9,0,0,0-4,1A7,7,0,0,0,502,228.75Zm12.85,7.79Q513,237.15,509,238a17.82,17.82,0,0,0-5.23,1.67,4,4,0,0,0-1.88,3.39,4.71,4.71,0,0,0,1.5,3.48,5.25,5.25,0,0,0,3.83,1.47,8.35,8.35,0,0,0,5-1.71,6,6,0,0,0,2.29-3.18,19.07,19.07,0,0,0,.37-4.68Z"/><path class="cls-3" d="M532.81,256.36l11,1.34a3.75,3.75,0,0,0,1.26,2.63,7.26,7.26,0,0,0,4.31,1,11.13,11.13,0,0,0,5.64-1.13,4.65,4.65,0,0,0,1.91-2.42,14.43,14.43,0,0,0,.45-4.41v-5.3Q553,254,546.49,254a13.37,13.37,0,0,1-11.59-6.19,21,21,0,0,1-3.35-12.16q0-9.13,4.39-14a14.19,14.19,0,0,1,10.92-4.82q6.74,0,11.11,5.91v-5.09h9v32.57a32.35,32.35,0,0,1-1.06,9.61,12,12,0,0,1-3,5,13.25,13.25,0,0,1-5.11,2.84,27.07,27.07,0,0,1-8.09,1q-9.22,0-13.09-3.16a9.94,9.94,0,0,1-3.86-8C532.78,257.21,532.79,256.82,532.81,256.36Zm8.58-21.29q0,5.77,2.24,8.46a6.91,6.91,0,0,0,5.52,2.68,7.65,7.65,0,0,0,6-2.75q2.43-2.75,2.43-8.15,0-5.64-2.33-8.38a7.39,7.39,0,0,0-5.88-2.73,7.08,7.08,0,0,0-5.69,2.68Q541.4,229.57,541.39,235.07Z"/><path class="cls-3" d="M597.48,242.42l9.57,1.6a15.66,15.66,0,0,1-5.83,8,17.12,17.12,0,0,1-10,2.75q-9.46,0-14-6.19-3.59-4.95-3.59-12.51,0-9,4.72-14.13a15.51,15.51,0,0,1,11.92-5.11q8.1,0,12.79,5.35t4.48,16.39H583.5a9.75,9.75,0,0,0,2.33,6.65,7.26,7.26,0,0,0,5.53,2.37,5.9,5.9,0,0,0,3.8-1.23A7.6,7.6,0,0,0,597.48,242.42Zm.55-9.71a9.29,9.29,0,0,0-2.15-6.34,6.94,6.94,0,0,0-10.19.12,8.87,8.87,0,0,0-2,6.22Z"/><path class="cls-3" d="M614.67,217.67h8.86v5c3.16-3.85,6.94-5.78,11.31-5.78a12.17,12.17,0,0,1,6,1.44,10.92,10.92,0,0,1,4.2,4.34,16.66,16.66,0,0,1,5.17-4.34,12.59,12.59,0,0,1,5.91-1.44,13.23,13.23,0,0,1,6.77,1.62,10,10,0,0,1,4.13,4.77q1,2.32,1,7.52V254h-9.6V233.22q0-5.4-1-7a4.55,4.55,0,0,0-4.1-2.05,6.56,6.56,0,0,0-3.8,1.23A6.81,6.81,0,0,0,647,229a25.66,25.66,0,0,0-.79,7.5V254h-9.6V234.08a27.81,27.81,0,0,0-.51-6.84,4.47,4.47,0,0,0-1.59-2.29,5.07,5.07,0,0,0-2.93-.75,7,7,0,0,0-4,1.2,6.51,6.51,0,0,0-2.54,3.45,25.72,25.72,0,0,0-.77,7.48V254h-9.61Z"/><path class="cls-3" d="M698.65,242.42l9.57,1.6a15.7,15.7,0,0,1-5.82,8,17.18,17.18,0,0,1-10,2.75q-9.46,0-14-6.19-3.58-4.95-3.59-12.51,0-9,4.72-14.13a15.52,15.52,0,0,1,11.93-5.11q8.1,0,12.78,5.35t4.48,16.39H684.67a9.75,9.75,0,0,0,2.33,6.65,7.27,7.27,0,0,0,5.54,2.37,5.89,5.89,0,0,0,3.79-1.23A7.53,7.53,0,0,0,698.65,242.42Zm.55-9.71a9.29,9.29,0,0,0-2.15-6.34,6.6,6.6,0,0,0-5-2.17,6.67,6.67,0,0,0-5.2,2.29,8.82,8.82,0,0,0-2,6.22Z"/><path class="cls-3" d="M749.58,254H740V235.44c0-3.91-.21-6.45-.62-7.6a5.3,5.3,0,0,0-2-2.68,5.69,5.69,0,0,0-3.33-1,7.73,7.73,0,0,0-4.48,1.37,6.9,6.9,0,0,0-2.72,3.62q-.74,2.25-.73,8.34V254h-9.6v-36.3h8.92V223a14.52,14.52,0,0,1,12-6.15,14.28,14.28,0,0,1,5.81,1.15,9.68,9.68,0,0,1,4,2.92,10.52,10.52,0,0,1,1.88,4,29.62,29.62,0,0,1,.53,6.46Z"/><path class="cls-3" d="M776,217.67v7.66h-6.56V240a37.85,37.85,0,0,0,.18,5.17,2.1,2.1,0,0,0,.86,1.22,2.68,2.68,0,0,0,1.62.48,12.29,12.29,0,0,0,3.86-.93l.82,7.45a19,19,0,0,1-7.58,1.44,12.06,12.06,0,0,1-4.69-.87,6.7,6.7,0,0,1-3.05-2.26,8.87,8.87,0,0,1-1.36-3.74,47.75,47.75,0,0,1-.3-6.77V225.33h-4.41v-7.66h4.41v-7.21l9.64-5.61v12.82Z"/><path class="cls-4" d="M399.61,677.1,309.66,425.45h55.1L428.44,611.7l61.63-186.25H544L453.85,677.1Z"/><path class="cls-4" d="M569.2,677.1V425.45h76L690.9,597.11l45.15-171.66h76.21V677.1h-47.2V479L715.11,677.1H666.19L616.41,479V677.1Z"/><rect class="cls-5" x="0.05" y="32.33" width="1080" height="1080"/></svg>